<?xml version="1.0" standalone="no"?>
<!DOCTYPE svg PUBLIC "-//W3C//DTD SVG 1.1//EN" "http://www.w3.org/Graphics/SVG/1.1/DTD/svg11.dtd" >
<svg xmlns="http://www.w3.org/2000/svg">
<metadata>
Created at Thu Mar 20 14:00:54 2014

Copyright 2004 - 2010 by Robert Bosch GmbH
</metadata>
<defs>
<font id="BoschSans-BoldItalic" horiz-adv-x="1024" vert-adv-y="2048" >
  <font-face 
    font-family="Bosch Sans Bold"
    font-weight="700"
    font-style="italic"
    font-stretch="normal"
    units-per-em="2048"
    panose-1="2 11 7 4 2 2 2 9 2 4"
    ascent="1638"
    descent="-410"
    x-height="1071"
    cap-height="1464"
    bbox="-473 -557 2743 2074"
    underline-thickness="244"
    underline-position="-188"
    slope="-11"
    unicode-range="U+0020-FB04"
  />
<missing-glyph horiz-adv-x="616" vert-adv-y="2457" 
d="M62 0v1464h492v-1464h-492zM492 62v1340h-368v-1340h368z" />
    <glyph glyph-name="fi" unicode="fi" horiz-adv-x="1352" vert-adv-y="2457" 
d="M791 0l209 1071h301l-209 -1071h-301zM1226 1561q68 0 111.5 -42.5t43.5 -108.5q0 -78 -54.5 -131.5t-133.5 -53.5q-66 0 -109 42.5t-43 107.5q0 78 53.5 132t131.5 54zM117 840l46 231h141l21 106q24 122 48 178t70 105q105 109 286 109q140 0 240 -74l-106 -211
q-54 37 -106 37q-98 0 -123 -121l-27 -129h207l-45 -231h-207l-164 -840h-301l162 840h-142z" />
    <glyph glyph-name="fl" unicode="fl" horiz-adv-x="1354" vert-adv-y="2457" 
d="M791 0l299 1542h303l-299 -1542h-303zM117 840l46 231h141l21 106q24 122 48 178t70 105q105 109 286 109q140 0 240 -74l-106 -211q-54 37 -106 37q-98 0 -123 -121l-27 -129h207l-45 -231h-207l-164 -840h-301l162 840h-142z" />
    <glyph glyph-name="afii61352" unicode="Nr&#x2e;" horiz-adv-x="2601" vert-adv-y="2457" 
d="M55 0l285 1464h354l329 -993l192 993h295l-284 -1464h-341l-338 1016l-197 -1016h-295zM2105 1418q223 0 349 -147q104 -120 104 -315q0 -123 -40 -237.5t-111 -197.5q-153 -176 -406 -176q-98 0 -187 36t-150 100q-117 125 -117 330q0 147 61 282q74 163 219 250
q125 75 278 75zM2094 1198q-118 0 -187 -137q-59 -116 -59 -280q0 -216 167 -216q119 0 183 144q57 125 57 277q0 212 -161 212zM1407 0l46 231h958l-45 -231h-959z" />
    <glyph glyph-name="ff" unicode="ff" horiz-adv-x="1395" vert-adv-y="2457" 
d="M918 1071l21 106q24 122 47.5 178t70.5 105q104 109 286 109q140 0 240 -74l-106 -211q-54 37 -107 37q-98 0 -123 -121l-26 -129h207l-46 -231h-206l-164 -840h-301l162 840h-311l-164 -840h-301l162 840h-142l46 231h141l21 106q24 122 48 178t70 105q105 109 286 109
q140 0 240 -74l-106 -211q-54 37 -106 37q-98 0 -123 -121l-27 -129h311z" />
    <glyph glyph-name="ffi" unicode="ffi" horiz-adv-x="2012" vert-adv-y="2457" 
d="M918 1071l21 106q24 122 47.5 178t70.5 105q104 109 286 109q140 0 240 -74l-106 -211q-54 37 -107 37q-98 0 -123 -121l-26 -129h207l-46 -231h-206l-164 -840h-301l162 840h-311l-164 -840h-301l162 840h-142l46 231h141l21 106q24 122 48 178t70 105q105 109 286 109
q140 0 240 -74l-106 -211q-54 37 -106 37q-98 0 -123 -121l-27 -129h311zM1396 0l209 1071h303l-209 -1071h-303zM1831 1556q69 0 112.5 -42t43.5 -108q0 -78 -54.5 -131.5t-133.5 -53.5q-68 0 -112 42.5t-44 107.5q0 77 54.5 131t133.5 54z" />
    <glyph glyph-name="ffl" unicode="ffl" horiz-adv-x="2012" vert-adv-y="2457" 
d="M918 1071l21 106q24 122 47.5 178t70.5 105q104 109 286 109q140 0 240 -74l-106 -211q-54 37 -107 37q-98 0 -123 -121l-26 -129h207l-46 -231h-206l-164 -840h-301l162 840h-311l-164 -840h-301l162 840h-142l46 231h141l21 106q24 122 48 178t70 105q105 109 286 109
q140 0 240 -74l-106 -211q-54 37 -106 37q-98 0 -123 -121l-27 -129h311zM1379 0l299 1542h306l-299 -1542h-306z" />
    <glyph glyph-name=".notdef" horiz-adv-x="616" vert-adv-y="2457" 
d="M62 0v1464h492v-1464h-492zM492 62v1340h-368v-1340h368z" />
    <glyph glyph-name="glyph1" horiz-adv-x="0" vert-adv-y="0" 
 />
    <glyph glyph-name="glyph2" horiz-adv-x="616" vert-adv-y="2457" 
 />
    <glyph glyph-name="space" unicode=" " horiz-adv-x="616" vert-adv-y="2457" 
 />
    <glyph glyph-name="exclam" unicode="!" horiz-adv-x="758" vert-adv-y="2457" 
d="M314 489l39 549l84 426h340l-88 -447l-180 -528h-195zM372 354q71 0 120.5 -48.5t49.5 -119.5q0 -85 -60 -144.5t-147 -59.5q-72 0 -120 47.5t-48 119.5q0 84 60 144.5t145 60.5z" />
    <glyph glyph-name="quotedbl" unicode="&#x22;" horiz-adv-x="1012" vert-adv-y="2457" 
d="M230 893l74 571h323l-145 -571h-252zM668 893l72 571h319l-143 -571h-248z" />
    <glyph glyph-name="numbersign" unicode="#" horiz-adv-x="1147" vert-adv-y="2457" 
d="M201 961l41 225h191l68 278h188l-70 -278h193l69 278h187l-70 -278h180l-45 -225h-190l-51 -209h182l-45 -225h-193l-67 -281h-187l68 281h-193l-67 -281h-186l67 281h-176l41 225h190l52 209h-177zM564 961l-51 -209h192l52 209h-193z" />
    <glyph glyph-name="dollar" unicode="$" horiz-adv-x="1233" vert-adv-y="2457" 
d="M389 -276l51 266q-194 36 -304 137q-96 87 -140 230l295 104q43 -180 197 -225l75 383q-184 70 -266 144q-111 102 -111 273q0 208 146 328t397 119l37 182h143l-39 -199q276 -58 365 -301l-274 -108q-50 128 -138 166l-69 -355q187 -67 267 -137q122 -105 122 -288
q0 -262 -214 -385q-136 -79 -347 -80l-49 -254h-144zM629 222q201 9 201 180q0 57 -29.5 94t-104.5 74zM684 1243q-197 -13 -197 -163q0 -58 28.5 -93t105.5 -69z" />
    <glyph glyph-name="percent" unicode="%" horiz-adv-x="2025" vert-adv-y="2457" 
d="M611 1480q150 0 245 -95q97 -98 97 -267q0 -214 -120.5 -354t-306.5 -140q-163 0 -260 107q-87 96 -87 255q0 198 115 341q123 153 317 153zM592 1279q-76 0 -120 -77q-47 -83 -47 -211q0 -164 117 -164q76 0 120 81q49 87 49 209q0 162 -119 162zM1570 836
q150 0 245 -95q97 -98 97 -267q0 -214 -120.5 -354t-306.5 -140q-164 0 -259 107q-86 96 -86 255q0 199 115 342q121 152 315 152zM1551 635q-76 0 -120 -77q-47 -83 -47 -212q0 -163 117 -163q75 0 120 80q49 89 49 210q0 162 -119 162zM435 0l1006 1464h221l-1006 -1464
h-221z" />
    <glyph glyph-name="ampersand" unicode="&#x26;" horiz-adv-x="1423" vert-adv-y="2457" 
d="M906 74q-166 -97 -353 -97q-271 0 -407 149q-98 107 -98 270q0 207 148 336q86 75 255 140q-10 76 -10 132q0 225 130 356q120 120 304 120q146 0 233 -77t87 -206q0 -146 -98 -240t-324 -165q70 -174 205 -352q76 127 125 295h243q-86 -271 -223 -459q60 -45 138 -45
q17 0 49 2l-58 -239q-46 -6 -90 -6q-146 0 -256 86zM501 688q-140 -104 -140 -273q0 -109 56.5 -166t163.5 -57q94 0 180 41q-176 223 -260 455zM726 950q107 37 156 80q69 60 69 151q0 100 -85 100q-68 0 -108.5 -64.5t-40.5 -172.5q0 -48 9 -94z" />
    <glyph glyph-name="quotesingle" unicode="'" horiz-adv-x="565" vert-adv-y="2457" 
d="M230 893l74 571h323l-145 -571h-252z" />
    <glyph glyph-name="parenleft" unicode="(" horiz-adv-x="868" vert-adv-y="2457" 
d="M363 -303q-193 314 -193 684q0 461 248 856q111 178 293 352h268q-192 -223 -302 -438q-200 -391 -200 -815q0 -338 127 -639h-241z" />
    <glyph glyph-name="parenright" unicode=")" horiz-adv-x="868" vert-adv-y="2457" 
d="M547 1589q193 -314 193 -684q0 -461 -248 -856q-112 -178 -293 -352h-268q192 223 302 438q200 391 200 815q0 338 -127 639h241z" />
    <glyph glyph-name="asterisk" unicode="*" horiz-adv-x="915" vert-adv-y="2457" 
d="M400 788l-170 136l228 204l-238 39l111 232l196 -125l4 268h240l-90 -272l229 125l47 -234l-260 -37l148 -211l-211 -125l-74 246z" />
    <glyph glyph-name="plus" unicode="+" horiz-adv-x="1147" vert-adv-y="2457" 
d="M118 571l51 252h326l74 381h266l-74 -381h330l-51 -252h-328l-74 -381h-266l74 381h-328z" />
    <glyph glyph-name="comma" unicode="," horiz-adv-x="616" vert-adv-y="2457" 
d="M-38 -346l29 147q170 32 210 201q-70 10 -109 53.5t-39 113.5q0 81 57 135t141 54q83 0 131 -54.5t48 -147.5q0 -90 -33 -181.5t-90 -158.5q-65 -76 -144 -113.5t-201 -48.5z" />
    <glyph glyph-name="hyphen" unicode="-" horiz-adv-x="616" vert-adv-y="2457" 
d="M67 527l53 276h476l-53 -276h-476z" />
    <glyph glyph-name="period" unicode="." horiz-adv-x="616" vert-adv-y="2457" 
d="M256 358q74 0 123 -48.5t49 -121.5q0 -87 -60 -146.5t-148 -59.5q-74 0 -122.5 48t-48.5 121q0 86 60.5 146.5t146.5 60.5z" />
    <glyph glyph-name="slash" unicode="/" horiz-adv-x="891" vert-adv-y="2457" 
d="M-169 -303l938 1892h291l-940 -1892h-289z" />
    <glyph glyph-name="zero" unicode="0" horiz-adv-x="1233" vert-adv-y="2457" 
d="M742 1487q206 0 335 -146q142 -159 142 -445q0 -317 -139 -582q-86 -164 -216 -250.5t-288 -86.5q-229 0 -362 170q-123 156 -123 426q0 185 52 361.5t144 303.5q181 249 455 249zM726 1229q-77 0 -143 -81q-62 -76 -106 -230q-54 -187 -54 -382q0 -301 169 -301
q74 0 137 79q60 75 105 232q54 188 54 380q0 128 -31 200q-44 103 -131 103z" />
    <glyph glyph-name="one" unicode="1" horiz-adv-x="1233" vert-adv-y="2457" 
d="M86 0l47 246h313l155 800q-133 -53 -337 -55l43 223q172 21 261 71q59 32 96.5 76t71.5 120h267l-239 -1235h274l-47 -246h-905z" />
    <glyph glyph-name="two" unicode="2" horiz-adv-x="1233" vert-adv-y="2457" 
d="M2 0l47 250q241 143 370.5 233t229.5 184q216 205 216 404q0 71 -42.5 114.5t-113.5 43.5q-80 0 -133.5 -53t-98.5 -177l-274 88q140 400 534 400q235 0 359 -130q101 -106 101 -274q0 -286 -285 -541q-153 -137 -441 -292h600l-51 -250h-1018z" />
    <glyph glyph-name="three" unicode="3" horiz-adv-x="1233" vert-adv-y="2457" 
d="M922 743q211 -85 211 -319q0 -178 -119 -297q-150 -150 -430 -150q-275 0 -426 146q-59 57 -90 122.5t-47 168.5l297 47q28 -238 254 -238q117 0 178 67q53 59 53 158q0 91 -54.5 140t-154.5 49h-100l47 227h113q244 0 244 204q0 79 -52.5 127t-139.5 48
q-92 0 -150.5 -48.5t-104.5 -162.5l-258 84q143 371 543 371q213 0 344 -104q133 -106 133 -284q0 -263 -291 -356z" />
    <glyph glyph-name="four" unicode="4" horiz-adv-x="1233" vert-adv-y="2457" 
d="M618 0l53 281h-678l53 277l827 923h327l-187 -956h178l-43 -244h-182l-53 -281h-295zM845 1139l-522 -614h403z" />
    <glyph glyph-name="five" unicode="5" horiz-adv-x="1233" vert-adv-y="2457" 
d="M484 860q114 112 291 112q159 0 257 -97q108 -108 108 -310q0 -270 -161 -433q-153 -155 -409 -155q-242 0 -386 126q-56 50 -87.5 105.5t-54.5 143.5l307 63q19 -72 51 -110q58 -72 168 -72q139 0 204 115q46 81 46 189q0 197 -171 197q-125 0 -214 -118h-270l229 848
h826l-50 -258h-589z" />
    <glyph glyph-name="six" unicode="6" horiz-adv-x="1233" vert-adv-y="2457" 
d="M431 774q130 178 340 178q172 0 282 -113q112 -114 112 -304q0 -242 -154 -400t-402 -158q-243 0 -376 142q-140 150 -140 435q0 251 93 466q84 196 230 318q175 146 413 146q161 0 263.5 -68.5t168.5 -219.5l-256 -133q-33 92 -78 129.5t-124 37.5q-269 0 -372 -456z
M656 719q-102 0 -169 -71q-74 -78 -74 -202q0 -104 53 -163.5t145 -59.5q116 0 183 98q56 80 56 189q0 96 -52.5 152.5t-141.5 56.5z" />
    <glyph glyph-name="seven" unicode="7" horiz-adv-x="1233" vert-adv-y="2457" 
d="M216 0q163 733 719 1208h-688l49 256h1007l-43 -229q-329 -289 -521 -692q-65 -137 -100 -248.5t-71 -294.5h-352z" />
    <glyph glyph-name="eight" unicode="8" horiz-adv-x="1233" vert-adv-y="2457" 
d="M955 749q207 -109 207 -317q0 -243 -216 -369q-148 -86 -354 -86q-258 0 -417 126q-148 117 -148 307q0 178 137 288q77 62 215 99q-155 99 -155 267q0 194 166 314q145 104 355 104q216 0 353 -110q131 -105 131 -273q0 -250 -274 -350zM615 663q-111 0 -180.5 -65
t-69.5 -169q0 -95 62 -151.5t166 -56.5q111 0 178 67q65 65 65 169q0 92 -61 149t-160 57zM735 1249q-91 0 -148.5 -56.5t-57.5 -145.5q0 -79 52 -126t140 -47q87 0 141 53.5t54 140.5q0 82 -49.5 131.5t-131.5 49.5z" />
    <glyph glyph-name="nine" unicode="9" horiz-adv-x="1233" vert-adv-y="2457" 
d="M887 704q-126 -163 -332 -163q-175 0 -287 112q-114 114 -114 297q0 231 152 381q154 153 402 153q236 0 374 -145q140 -149 140 -445q0 -271 -93 -488q-119 -277 -353 -377q-122 -52 -265 -52q-170 0 -279 68.5t-178 218.5l258 133q25 -73 60 -109q57 -59 155 -59
q173 0 272 188q54 103 88 287zM705 1236q-119 0 -184 -89q-52 -70 -52 -173q0 -94 52.5 -147t145.5 -53q99 0 165 64q73 71 73 184q0 98 -54 156t-146 58z" />
    <glyph glyph-name="colon" unicode=":" horiz-adv-x="616" vert-adv-y="2457" 
d="M373 950q74 0 123.5 -49t49.5 -121q0 -87 -61 -148t-148 -61q-74 0 -123 48.5t-49 122.5q0 86 61 147t147 61zM257 358q74 0 123 -48t49 -122q0 -87 -59.5 -146.5t-147.5 -59.5q-74 0 -123 48t-49 121q0 85 61 146t146 61z" />
    <glyph glyph-name="semicolon" unicode=";" horiz-adv-x="616" vert-adv-y="2457" 
d="M-37 -346l31 147q167 32 210 201q-71 10 -110.5 53.5t-39.5 112.5q0 81 57 135.5t142 54.5q82 0 131 -54.5t49 -147.5q0 -90 -33.5 -181.5t-90.5 -158.5q-65 -77 -144.5 -114t-201.5 -48zM377 950q74 0 123.5 -49t49.5 -121q0 -87 -61 -148t-148 -61q-74 0 -123 48.5
t-49 122.5q0 86 61 147t147 61z" />
    <glyph glyph-name="less" unicode="&#x3c;" horiz-adv-x="1147" vert-adv-y="2457" 
d="M874 131l-707 408l51 252l862 399l-67 -334l-510 -201l428 -223z" />
    <glyph glyph-name="equal" unicode="=" horiz-adv-x="1147" vert-adv-y="2457" 
d="M116 328l49 252h834l-49 -252h-834zM202 770l49 252h834l-51 -252h-832z" />
    <glyph glyph-name="greater" unicode="&#x3e;" horiz-adv-x="1147" vert-adv-y="2457" 
d="M116 131l63 332l515 203l-431 221l60 303l704 -408l-49 -254z" />
    <glyph glyph-name="question" unicode="?" horiz-adv-x="1133" vert-adv-y="2457" 
d="M394 489l17 82q24 124 80 192t197 145q155 86 155 197q0 61 -39.5 97.5t-105.5 36.5q-146 0 -228 -191l-252 98q61 143 151 221q141 120 359 120q229 0 341 -123q85 -92 85 -235q0 -129 -65 -215.5t-230 -176.5q-96 -53 -133.5 -95t-46.5 -110l-6 -43h-279zM485 354
q72 0 120.5 -48.5t48.5 -119.5q0 -85 -60 -144.5t-146 -59.5q-72 0 -120.5 48t-48.5 119q0 85 60.5 145t145.5 60z" />
    <glyph glyph-name="at" unicode="@" horiz-adv-x="1794" vert-adv-y="2457" 
d="M1351 -168q-128 -86 -242.5 -120t-275.5 -34q-330 0 -535 202q-219 217 -219 572q0 261 123 475q118 205 324 325q210 122 457 122q236 0 419 -106q154 -89 241 -239q95 -166 95 -387q0 -298 -155 -453q-118 -117 -286 -117q-208 0 -249 180q-118 -191 -299 -191
q-133 0 -210 95.5t-77 259.5q0 232 122 386t302 154q158 0 211 -131l22 115h250l-106 -517q-10 -48 -10 -82q0 -95 87 -95q104 0 166 110q64 112 64 292q0 278 -171 429q-160 143 -425 143q-299 0 -499 -198q-218 -216 -218 -569q0 -311 184 -481q153 -141 414 -141
q122 0 210 27t204 99zM917 751q-92 0 -145 -93q-52 -93 -52 -227q0 -157 114 -157q97 0 153 100q53 93 53 217q0 160 -123 160z" />
    <glyph glyph-name="A" unicode="A" horiz-adv-x="1422" vert-adv-y="2457" 
d="M931 279h-553l-141 -279h-317l791 1464h369l213 -1464h-328zM903 512l-78 649l-329 -649h407z" />
    <glyph glyph-name="B" unicode="B" horiz-adv-x="1384" vert-adv-y="2457" 
d="M60 0l285 1464h506q119 0 188.5 -13t132.5 -48q168 -91 168 -296q0 -134 -65 -219t-211 -141q96 -32 147 -86q78 -83 78 -223q0 -197 -131 -313q-141 -125 -410 -125h-688zM422 244h308q131 0 196 68q54 57 54 150q0 86 -50 132.5t-143 46.5h-287zM543 866h252
q240 0 240 202q0 80 -46 116t-146 36h-230z" />
    <glyph glyph-name="C" unicode="C" horiz-adv-x="1423" vert-adv-y="2457" 
d="M1334 383q-95 -204 -236 -299q-156 -107 -378 -107q-285 0 -443 177q-149 167 -149 459q0 179 52 339.5t148 278.5q207 256 549 256q223 0 363 -111t182 -322l-293 -96q-18 97 -48 153q-66 120 -214 120q-193 0 -301 -194q-106 -190 -106 -441q0 -359 281 -359
q219 0 325 267z" />
    <glyph glyph-name="D" unicode="D" horiz-adv-x="1487" vert-adv-y="2457" 
d="M60 0l285 1464h510q203 0 339 -84q240 -147 240 -515q0 -293 -124 -512q-139 -243 -426 -321q-119 -32 -300 -32h-524zM429 258h176q146 0 230 38q143 64 211 234q58 145 58 331q0 223 -117 300q-68 45 -177 45h-195z" />
    <glyph glyph-name="E" unicode="E" horiz-adv-x="1253" vert-adv-y="2457" 
d="M60 0l285 1464h964l-47 -250h-651l-68 -350h488l-47 -238h-488l-71 -376h682l-48 -250h-999z" />
    <glyph glyph-name="F" unicode="F" horiz-adv-x="1200" vert-adv-y="2457" 
d="M60 0l285 1464h948l-47 -250h-631l-78 -403h477l-47 -244h-479l-109 -567h-319z" />
    <glyph glyph-name="G" unicode="G" horiz-adv-x="1554" vert-adv-y="2457" 
d="M1121 226q-59 -97 -142 -154q-137 -95 -313 -95q-242 0 -386 164q-150 170 -150 468q0 285 128 506q102 178 269 275q168 97 379 97q282 0 433 -170q42 -49 66.5 -99t51.5 -145l-303 -98q-22 99 -54 152q-66 110 -213 110q-211 0 -326 -206q-101 -181 -101 -427
q0 -381 291 -381q145 0 240 89q94 89 116 231l4 27h-285l45 227h594l-153 -797h-170z" />
    <glyph glyph-name="H" unicode="H" horiz-adv-x="1481" vert-adv-y="2457" 
d="M60 0l285 1464h321l-117 -598h508l117 598h322l-285 -1464h-322l121 606h-510l-118 -606h-322z" />
    <glyph glyph-name="I" unicode="I" horiz-adv-x="670" vert-adv-y="2457" 
d="M71 0l285 1464h319l-285 -1464h-319z" />
    <glyph glyph-name="J" unicode="J" horiz-adv-x="1237" vert-adv-y="2457" 
d="M1271 1464l-201 -1032q-46 -235 -202 -354q-134 -101 -340 -101q-234 0 -352 129q-95 104 -95 272q0 74 12 126l11 43h307l-8 -45q-11 -58 -11 -99q0 -172 153 -172q91 0 139.5 55t74.5 185l194 993h318z" />
    <glyph glyph-name="K" unicode="K" horiz-adv-x="1401" vert-adv-y="2457" 
d="M60 0l285 1464h319l-125 -637l594 637h359l-611 -629l363 -835h-340l-269 606l-172 -170l-84 -436h-319z" />
    <glyph glyph-name="L" unicode="L" horiz-adv-x="1186" vert-adv-y="2457" 
d="M60 0l285 1464h319l-235 -1208h616l-51 -256h-934z" />
    <glyph glyph-name="M" unicode="M" horiz-adv-x="1831" vert-adv-y="2457" 
d="M60 0l285 1464h428l110 -1005l510 1005h447l-285 -1464h-311l200 1048l-538 -1048h-236l-125 1048l-204 -1048h-281z" />
    <glyph glyph-name="N" unicode="N" horiz-adv-x="1495" vert-adv-y="2457" 
d="M60 0l285 1464h348l332 -1005l196 1005h289l-285 -1464h-336l-340 1024l-200 -1024h-289z" />
    <glyph glyph-name="O" unicode="O" horiz-adv-x="1554" vert-adv-y="2457" 
d="M879 1487q305 0 476 -196q150 -171 150 -452q0 -273 -129 -494q-102 -177 -267 -273q-164 -95 -373 -95q-271 0 -437 167q-172 173 -172 478q0 211 76 400q88 216 274 345q172 120 402 120zM882 1235q-182 0 -295 -162q-60 -86 -94 -211t-34 -259q0 -181 77.5 -277.5
t224.5 -96.5q131 0 230 95q90 87 139 243q43 137 43 293q0 214 -100 307q-73 68 -191 68z" />
    <glyph glyph-name="P" unicode="P" horiz-adv-x="1335" vert-adv-y="2457" 
d="M60 0l285 1464h519q195 0 308 -70q178 -110 178 -353q0 -261 -190 -396q-84 -59 -183 -83t-260 -24h-233l-105 -538h-319zM529 776h240q144 0 213 77q59 66 59 179q0 186 -193 186h-233z" />
    <glyph glyph-name="Q" unicode="Q" horiz-adv-x="1554" vert-adv-y="2457" 
d="M1003 23q-126 -46 -261 -46q-278 0 -444 167q-172 173 -172 478q0 212 76 400q87 217 274 346q172 119 402 119q306 0 476 -196q150 -172 150 -453q0 -204 -73.5 -381t-209.5 -302l113 -159l-213 -139zM857 230l-119 167l209 144l116 -163q109 175 109 477q0 177 -65 271
q-76 109 -227 109q-181 0 -294 -162q-60 -86 -94.5 -213.5t-34.5 -263.5q0 -186 77 -283.5t223 -97.5q48 0 100 15z" />
    <glyph glyph-name="R" unicode="R" horiz-adv-x="1415" vert-adv-y="2457" 
d="M60 0l285 1464h521q230 0 339 -70q162 -104 162 -314q0 -165 -92 -269q-46 -51 -105 -81.5t-162 -55.5q95 -33 137 -92q27 -38 38 -84t17 -149q18 -291 60 -341v-8h-317q-42 92 -52 361q-5 112 -53 159.5t-157 47.5h-191l-111 -568h-319zM535 801h248q143 0 210 75
q56 62 56 167q0 173 -207 173h-227z" />
    <glyph glyph-name="S" unicode="S" horiz-adv-x="1249" vert-adv-y="2457" 
d="M970 1054q-32 77 -69 115q-66 68 -193 68q-100 0 -154 -42t-54 -119q0 -69 49.5 -107.5t212.5 -96.5q187 -65 271 -139q123 -106 123 -287q0 -205 -143 -333q-153 -136 -430 -136q-464 0 -582 383l295 103q22 -81 54 -126q78 -110 249 -110q94 0 155 35q80 46 80 141
q0 71 -49.5 111.5t-202.5 95.5q-191 69 -275 145q-116 105 -116 281q0 186 120 306q145 145 410 145q406 0 527 -324z" />
    <glyph glyph-name="T" unicode="T" horiz-adv-x="1266" vert-adv-y="2457" 
d="M371 0l235 1214h-393l49 250h1103l-48 -250h-393l-234 -1214h-319z" />
    <glyph glyph-name="U" unicode="U" horiz-adv-x="1481" vert-adv-y="2457" 
d="M1509 1464l-177 -916q-48 -247 -144 -372q-151 -199 -489 -199q-295 0 -435 155q-109 120 -109 321q0 79 18 174l164 837h322l-166 -848q-16 -81 -16 -154q0 -229 235 -229q87 0 144.5 30.5t95.5 96.5q41 70 66 198l175 906h316z" />
    <glyph glyph-name="V" unicode="V" horiz-adv-x="1333" vert-adv-y="2457" 
d="M390 0l-193 1464h328l114 -1077l537 1077h321l-770 -1464h-337z" />
    <glyph glyph-name="W" unicode="W" horiz-adv-x="2025" vert-adv-y="2457" 
d="M315 0l-82 1464h324l34 -1034l467 1034h265l75 -1044l443 1044h313l-645 -1464h-328l-74 997l-460 -997h-332z" />
    <glyph glyph-name="X" unicode="X" horiz-adv-x="1427" vert-adv-y="2457" 
d="M-46 0l614 770l-295 694h361l174 -477l338 477h354l-555 -719l322 -745h-357l-200 536l-400 -536h-356z" />
    <glyph glyph-name="Y" unicode="Y" horiz-adv-x="1325" vert-adv-y="2457" 
d="M406 0l119 612l-309 852h336l192 -575l394 575h331l-628 -868l-115 -596h-320z" />
    <glyph glyph-name="Z" unicode="Z" horiz-adv-x="1264" vert-adv-y="2457" 
d="M7 0l51 270l848 944h-631l49 250h1002l-51 -272l-838 -936h666l-52 -256h-1044z" />
    <glyph glyph-name="bracketleft" unicode="[" horiz-adv-x="868" vert-adv-y="2457" 
d="M26 -303l369 1892h557l-45 -236h-252l-275 -1420h248l-45 -236h-557z" />
    <glyph glyph-name="backslash" unicode="\" horiz-adv-x="891" vert-adv-y="2457" 
d="M478 -303l-231 1892h258l231 -1892h-258z" />
    <glyph glyph-name="bracketright" unicode="]" horiz-adv-x="868" vert-adv-y="2457" 
d="M884 1589l-369 -1892h-557l45 236h252l274 1420h-247l45 236h557z" />
    <glyph glyph-name="asciicircum" unicode="^" horiz-adv-x="1071" vert-adv-y="2457" 
d="M145 813l440 651h219l193 -651h-234l-120 352l-250 -352h-248z" />
    <glyph glyph-name="underscore" unicode="_" horiz-adv-x="901" vert-adv-y="2457" 
d="M-229 -432l47 244h983l-47 -244h-983z" />
    <glyph glyph-name="grave" unicode="`" vert-adv-y="2457" 
d="M607 1202l-181 340h332l58 -340h-209z" />
    <glyph glyph-name="a" unicode="a" horiz-adv-x="1111" vert-adv-y="2457" 
d="M606 129q-110 -152 -282 -152q-118 0 -199 64q-101 81 -101 226q0 288 374 351q116 19 296 25l4 23q5 28 5 54q0 130 -146 130t-293 -90l-107 209q93 59 172 86q125 43 280 43q400 0 400 -325q0 -57 -16 -139l-84 -433q-13 -66 -13 -106q0 -48 13 -83v-12h-295
q-10 53 -10 95q0 13 2 34zM659 465q-128 -5 -194 -22q-134 -32 -134 -147q0 -102 111 -102q75 0 129.5 47.5t68.5 125.5z" />
    <glyph glyph-name="b" unicode="b" horiz-adv-x="1253" vert-adv-y="2457" 
d="M522 921q130 177 325 177q148 0 236 -101q100 -114 100 -334q0 -247 -109 -435q-70 -121 -174 -186t-227 -65q-219 0 -292 224l-40 -201h-303l299 1542h303zM702 867q-128 0 -204 -135q-73 -129 -73 -297q0 -223 183 -223q122 0 191 123t69 296q0 236 -166 236z" />
    <glyph glyph-name="c" unicode="c" horiz-adv-x="1102" vert-adv-y="2457" 
d="M999 258q-66 -117 -144 -179q-128 -102 -315 -102q-226 0 -353 141q-110 122 -110 331q0 148 48 277t136 217q155 155 391 155q160 0 262 -73.5t158 -230.5l-260 -96q-30 92 -67 127t-103 35q-126 0 -194 -120q-68 -121 -68 -299q0 -237 175 -237q71 0 120.5 39t97.5 132
z" />
    <glyph glyph-name="d" unicode="d" horiz-adv-x="1263" vert-adv-y="2457" 
d="M747 168q-71 -101 -146.5 -146t-175.5 -45q-151 0 -243 105q-101 116 -101 333q0 147 42 281t117 228q138 174 345 174q107 0 184.5 -51t118.5 -148l125 643h303l-299 -1542h-303zM662 869q-126 0 -195 -123t-69 -296q0 -237 171 -237q123 0 197 134q73 132 73 301
q0 221 -177 221z" />
    <glyph glyph-name="e" unicode="e" horiz-adv-x="1131" vert-adv-y="2457" 
d="M990 176q-93 -104 -201 -151.5t-253 -47.5q-230 0 -350 133q-105 116 -105 320q0 145 49 273t140 220q172 175 426 175q139 0 235 -56q147 -84 147 -259q0 -255 -357 -323q-118 -23 -339 -28v-20q0 -208 174 -208q73 0 128.5 27.5t123.5 98.5zM405 614q207 0 297.5 34.5
t90.5 114.5q0 51 -33.5 80.5t-91.5 29.5q-190 0 -263 -259z" />
    <glyph glyph-name="f" unicode="f" horiz-adv-x="776" vert-adv-y="2457" 
d="M117 840l46 231h141l21 106q24 122 48 178t70 105q105 109 286 109q140 0 240 -74l-106 -211q-54 37 -106 37q-98 0 -123 -121l-27 -129h207l-45 -231h-207l-164 -840h-301l162 840h-142z" />
    <glyph glyph-name="g" unicode="g" horiz-adv-x="1145" vert-adv-y="2457" 
d="M372 420q-46 -39 -46 -83q0 -71 97 -71h153q153 0 230 -28q185 -68 185 -257q0 -114 -61 -201t-176 -134q-132 -55 -329 -55q-194 0 -318 53q-165 70 -165 210q0 158 225 228q-92 59 -92 155q0 141 193 238q-121 94 -121 239q0 181 154 292q126 92 306 92q155 0 277 -76
l313 69l-45 -223h-145q20 -54 20 -114q0 -147 -99 -245q-122 -122 -348 -122q-115 0 -208 33zM323 35q-100 -47 -100 -129q0 -116 216 -116q259 0 259 144q0 101 -144 101h-231zM608 913q-81 0 -131.5 -56.5t-50.5 -148.5q0 -70 39 -109.5t110 -39.5q80 0 129 58t49 152
q0 69 -38 106.5t-107 37.5z" />
    <glyph glyph-name="h" unicode="h" horiz-adv-x="1208" vert-adv-y="2457" 
d="M38 0l299 1542h303l-122 -637q129 193 332 193q127 0 197 -77.5t70 -217.5q0 -60 -19 -159l-122 -644h-305l121 631q12 62 12 92q0 125 -118 125q-86 0 -144.5 -63t-81.5 -181l-119 -604h-303z" />
    <glyph glyph-name="i" unicode="i" horiz-adv-x="600" vert-adv-y="2457" 
d="M46 0l209 1071h303l-209 -1071h-303zM481 1556q69 0 112.5 -42t43.5 -108q0 -78 -54.5 -131.5t-133.5 -53.5q-68 0 -112 42.5t-44 107.5q0 77 54.5 131t133.5 54z" />
    <glyph glyph-name="j" unicode="j" horiz-adv-x="600" vert-adv-y="2457" 
d="M563 1071l-224 -1143q-62 -319 -365 -319q-126 0 -202 55l86 217q43 -22 80 -22q85 0 106 108l215 1104h304zM486 1556q69 0 112.5 -42t43.5 -108q0 -78 -54.5 -131.5t-133.5 -53.5q-68 0 -112 42.5t-44 107.5q0 77 55 131t133 54z" />
    <glyph glyph-name="k" unicode="k" horiz-adv-x="1165" vert-adv-y="2457" 
d="M704 0l-174 430l-130 -127l-59 -303h-303l299 1542h303l-170 -878l391 407h336l-436 -430l262 -641h-319z" />
    <glyph glyph-name="l" unicode="l" horiz-adv-x="602" vert-adv-y="2457" 
d="M45 0l299 1542h305l-299 -1542h-305z" />
    <glyph glyph-name="m" unicode="m" horiz-adv-x="1774" vert-adv-y="2457" 
d="M520 911q130 187 320 187t236 -199q150 199 350 199q124 0 193 -78q68 -77 68 -208q0 -54 -15 -130l-133 -682h-303l127 657q9 47 9 72q0 119 -108 119q-156 0 -202 -234l-121 -614h-303l127 657q9 47 9 72q0 119 -108 119q-75 0 -128.5 -61.5t-75.5 -172.5l-121 -614
h-303l209 1071h303z" />
    <glyph glyph-name="n" unicode="n" horiz-adv-x="1208" vert-adv-y="2457" 
d="M38 0l209 1071h303l-32 -166q56 83 115 125q95 68 219 68q125 0 195 -79q70 -78 70 -214q0 -62 -12 -125l-129 -680h-305l125 651q8 43 8 72q0 125 -119 125q-85 0 -143.5 -63t-81.5 -181l-119 -604h-303z" />
    <glyph glyph-name="o" unicode="o" horiz-adv-x="1196" vert-adv-y="2457" 
d="M645 1098q218 0 346 -134q128 -135 128 -359q0 -141 -48.5 -266t-137.5 -211q-156 -151 -387 -151q-213 0 -341 134q-128 135 -128 366q0 136 49 261t136 211q150 149 383 149zM641 873q-135 0 -205 -170q-50 -122 -50 -269q0 -232 171 -232q137 0 206 177q47 121 47 265
q0 112 -42 169q-45 60 -127 60z" />
    <glyph glyph-name="p" unicode="p" horiz-adv-x="1251" vert-adv-y="2457" 
d="M-34 -373l281 1444h303l-28 -150q129 177 325 177q148 0 236 -101q100 -114 100 -334q0 -147 -42 -281t-119 -230q-140 -175 -350 -175q-218 0 -292 224l-111 -574h-303zM702 867q-128 0 -204 -135q-73 -128 -73 -296q0 -223 184 -223q122 0 190 123q69 122 69 295
q0 236 -166 236z" />
    <glyph glyph-name="q" unicode="q" horiz-adv-x="1255" vert-adv-y="2457" 
d="M633 -373l105 541q-71 -101 -146.5 -146t-174.5 -45q-152 0 -244 105q-101 116 -101 333q0 147 42 281t117 228q138 174 345 174q107 0 184.5 -51t118.5 -148l35 172h303l-281 -1444h-303zM653 869q-126 0 -195 -123t-69 -296q0 -237 171 -237q123 0 197 134
q73 132 73 301q0 221 -177 221z" />
    <glyph glyph-name="r" unicode="r" horiz-adv-x="889" vert-adv-y="2457" 
d="M38 0l209 1071h303l-41 -207q66 121 136.5 175.5t160.5 54.5q81 0 141 -44l-100 -276q-61 39 -126 39q-105 0 -176 -71.5t-97 -202.5l-107 -539h-303z" />
    <glyph glyph-name="s" unicode="s" horiz-adv-x="1032" vert-adv-y="2457" 
d="M820 754q-53 60 -123.5 93.5t-142.5 33.5q-121 0 -121 -91q0 -44 30.5 -67t137.5 -61q146 -53 220 -118q89 -80 89 -210q0 -167 -118.5 -262t-325.5 -95q-319 0 -480 195l166 184q121 -158 306 -158q149 0 149 98q0 48 -46 76q-28 16 -142 58q-275 99 -275 320
q0 194 158 286q107 62 269 62q134 0 233.5 -40t187.5 -128z" />
    <glyph glyph-name="t" unicode="t" horiz-adv-x="819" vert-adv-y="2457" 
d="M116 840l45 231h141l43 217l324 107l-64 -324h216l-46 -231h-215l-90 -477q-6 -31 -6 -54q0 -80 74 -80q43 0 102 29l62 -211q-111 -70 -266 -70q-149 0 -224 83q-61 67 -61 182q0 44 8 86l98 512h-141z" />
    <glyph glyph-name="u" unicode="u" horiz-adv-x="1198" vert-adv-y="2457" 
d="M682 156q-69 -96 -146.5 -139.5t-178.5 -43.5q-124 0 -194 77.5t-70 215.5q0 63 15 140l130 665h304l-125 -633q-13 -65 -13 -101q0 -122 116 -122q171 0 220 246l121 610h303l-209 -1071h-303z" />
    <glyph glyph-name="v" unicode="v" horiz-adv-x="1077" vert-adv-y="2457" 
d="M269 0l-145 1071h315l66 -741l350 741h305l-557 -1071h-334z" />
    <glyph glyph-name="w" unicode="w" horiz-adv-x="1640" vert-adv-y="2457" 
d="M243 0l-94 1071h307l31 -700l305 700h262l41 -700l303 700h301l-516 -1071h-299l-49 668l-289 -668h-303z" />
    <glyph glyph-name="x" unicode="x" horiz-adv-x="1155" vert-adv-y="2457" 
d="M-58 0l459 563l-230 508h336l121 -317l234 317h327l-428 -516l252 -555h-336l-141 356l-268 -356h-326z" />
    <glyph glyph-name="y" unicode="y" horiz-adv-x="1112" vert-adv-y="2457" 
d="M1191 1071l-649 -1178q-83 -151 -179 -216.5t-233 -65.5t-233 71l115 209q52 -40 118 -40q55 0 92.5 30t71.5 102l21 43l-187 1045h316l96 -678l344 678h307z" />
    <glyph glyph-name="z" unicode="z" horiz-adv-x="1004" vert-adv-y="2457" 
d="M-28 0l45 220l598 613h-455l48 238h831l-45 -224l-596 -607h487l-47 -240h-866z" />
    <glyph glyph-name="braceleft" unicode="{" horiz-adv-x="868" vert-adv-y="2457" 
d="M610 -305q-140 4 -213 29q-213 74 -213 295q0 50 10 100l47 233q6 30 6 59q0 59 -41.5 85.5t-136.5 29.5l51 250q123 3 174 49q46 41 64 131l53 271q24 119 71 191t129 113q111 56 367 60l-43 -233q-120 -10 -165.5 -46.5t-65.5 -140.5l-53 -268q-24 -117 -81.5 -177
t-172.5 -87q83 -27 120 -73.5t37 -124.5q0 -35 -10 -87l-45 -237q-8 -48 -8 -64q0 -63 36 -89.5t130 -35.5z" />
    <glyph glyph-name="bar" unicode="|" horiz-adv-x="647" vert-adv-y="2457" 
d="M240 -303v1892h238v-1892h-238z" />
    <glyph glyph-name="braceright" unicode="}" horiz-adv-x="868" vert-adv-y="2457" 
d="M301 1591q140 -4 212 -29q213 -73 213 -294q0 -52 -10 -101l-47 -233q-6 -31 -6 -60q0 -58 41.5 -84.5t136.5 -29.5l-51 -250q-123 -3 -174 -49q-46 -41 -64 -131l-53 -271q-23 -119 -70.5 -191t-129.5 -113q-111 -56 -367 -60l43 233q120 10 165.5 46.5t65.5 140.5
l54 268q23 117 80.5 177t172.5 87q-82 27 -119.5 74t-37.5 124q0 34 10 87l45 237l3 21q5 27 5 44q0 62 -36 89t-130 35z" />
    <glyph glyph-name="asciitilde" unicode="~" horiz-adv-x="1147" vert-adv-y="2457" 
d="M348 497l-213 14q37 158 92 242q90 135 227 135q81 0 193 -72q73 -47 109 -47q41 0 65 27.5t41 95.5l211 -16q-90 -375 -318 -375q-82 0 -192 72q-72 47 -109 47q-41 0 -64 -26.5t-42 -96.5z" />
    <glyph glyph-name="Adieresis" unicode="&#xc4;" horiz-adv-x="1422" vert-adv-y="2457" 
d="M931 279h-553l-141 -279h-317l791 1464h369l213 -1464h-328zM903 512l-78 649l-329 -649h407zM705 1890q61 0 101.5 -39.5t40.5 -100.5q0 -71 -50.5 -122t-121.5 -51q-60 0 -100.5 40.5t-40.5 102.5q0 69 51 119.5t120 50.5zM1128 1890q61 0 101 -39.5t40 -100.5
q0 -71 -50.5 -122t-120.5 -51q-60 0 -99 40t-39 102q0 70 50 120.5t118 50.5z" />
    <glyph glyph-name="Aring" unicode="&#xc5;" horiz-adv-x="1422" vert-adv-y="2457" 
d="M931 279h-553l-141 -279h-317l791 1464h369l213 -1464h-328zM903 512l-78 649l-329 -649h407zM942 2005q92 0 150.5 -57.5t58.5 -147.5q0 -101 -70.5 -170t-174.5 -69q-92 0 -151 57.5t-59 147.5q0 98 69 167q71 72 177 72zM933 1888q-41 0 -68.5 -33.5t-27.5 -84.5
q0 -41 21 -65.5t56 -24.5q42 0 70 33.5t28 83.5q0 41 -21.5 66t-57.5 25z" />
    <glyph glyph-name="Ccedilla" unicode="&#xc7;" horiz-adv-x="1423" vert-adv-y="2457" 
d="M741 -23l-76 -86q25 4 37 4q62 0 102.5 -43.5t40.5 -111.5q0 -92 -61 -145.5t-166 -53.5q-153 0 -217 115l125 59q30 -51 88 -51q34 0 55.5 19.5t21.5 51.5q0 28 -17 45t-45 17q-36 0 -65 -33l-77 60l130 160q-215 31 -340 171q-149 166 -149 458q0 233 87 431
q79 180 219 293q185 150 443 150q223 0 363 -111t182 -322l-293 -96q-18 98 -48 153q-66 120 -214 120q-193 0 -301 -194q-106 -190 -106 -441q0 -359 281 -359q220 0 325 267l268 -121q-174 -396 -593 -406z" />
    <glyph glyph-name="Eacute" unicode="&#xc9;" horiz-adv-x="1253" vert-adv-y="2457" 
d="M60 0l285 1464h964l-47 -250h-651l-68 -350h488l-47 -238h-488l-71 -376h682l-48 -250h-999zM712 1579l139 356h355l-275 -356h-219z" />
    <glyph glyph-name="Ntilde" unicode="&#xd1;" horiz-adv-x="1495" vert-adv-y="2457" 
d="M60 0l285 1464h348l332 -1005l196 1005h289l-285 -1464h-336l-340 1024l-200 -1024h-289zM1360 1872q-61 -291 -255 -291q-68 0 -156 55q-52 33 -80 33q-52 0 -78 -84l-168 12q65 291 250 291q65 0 151 -53q56 -35 85 -35q48 0 75 84z" />
    <glyph glyph-name="Odieresis" unicode="&#xd6;" horiz-adv-x="1554" vert-adv-y="2457" 
d="M879 1487q305 0 476 -196q150 -171 150 -452q0 -273 -129 -494q-102 -177 -267 -273q-164 -95 -373 -95q-271 0 -437 167q-172 173 -172 478q0 211 76 400q88 216 274 345q172 120 402 120zM882 1235q-182 0 -295 -162q-60 -86 -94 -211t-34 -259q0 -181 77.5 -277.5
t224.5 -96.5q131 0 230 95q90 87 139 243q43 137 43 293q0 214 -100 307q-73 68 -191 68zM759 1890q61 0 101.5 -39.5t40.5 -100.5q0 -71 -50.5 -122t-121.5 -51q-61 0 -101 40.5t-40 102.5q0 69 51 119.5t120 50.5zM1183 1890q60 0 100 -40t40 -100q0 -71 -50.5 -122
t-120.5 -51q-60 0 -99 40t-39 102q0 70 50 120.5t119 50.5z" />
    <glyph glyph-name="Udieresis" unicode="&#xdc;" horiz-adv-x="1481" vert-adv-y="2457" 
d="M1509 1464l-177 -916q-48 -247 -144 -372q-151 -199 -489 -199q-295 0 -435 155q-109 120 -109 321q0 79 18 174l164 837h322l-166 -848q-16 -81 -16 -154q0 -229 235 -229q87 0 144.5 30.5t95.5 96.5q41 70 66 198l175 906h316zM771 1890q61 0 101.5 -39.5t40.5 -100.5
q0 -71 -50.5 -122t-121.5 -51q-60 0 -100.5 40.5t-40.5 102.5q0 69 51 119.5t120 50.5zM1194 1890q61 0 101 -40t40 -100q0 -71 -50.5 -122t-120.5 -51q-60 0 -99 40t-39 102q0 70 50 120.5t118 50.5z" />
    <glyph glyph-name="aacute" unicode="&#xe1;" horiz-adv-x="1111" vert-adv-y="2457" 
d="M606 129q-110 -152 -282 -152q-118 0 -199 64q-101 81 -101 226q0 288 374 351q116 19 296 25l4 23q5 28 5 54q0 130 -146 130t-293 -90l-107 209q93 59 172 86q125 43 280 43q400 0 400 -325q0 -57 -16 -139l-84 -433q-13 -66 -13 -106q0 -48 13 -83v-12h-295
q-10 53 -10 95q0 13 2 34zM659 465q-128 -5 -194 -22q-134 -32 -134 -147q0 -102 111 -102q75 0 129.5 47.5t68.5 125.5zM538 1202l136 340h354l-271 -340h-219z" />
    <glyph glyph-name="agrave" unicode="&#xe0;" horiz-adv-x="1111" vert-adv-y="2457" 
d="M606 129q-110 -152 -282 -152q-118 0 -199 64q-101 81 -101 226q0 288 374 351q116 19 296 25l4 23q5 28 5 54q0 130 -146 130t-293 -90l-107 209q93 59 172 86q125 43 280 43q400 0 400 -325q0 -57 -16 -139l-84 -433q-13 -66 -13 -106q0 -48 13 -83v-12h-295
q-10 53 -10 95q0 13 2 34zM659 465q-128 -5 -194 -22q-134 -32 -134 -147q0 -102 111 -102q75 0 129.5 47.5t68.5 125.5zM608 1202l-181 340h332l58 -340h-209z" />
    <glyph glyph-name="acircumflex" unicode="&#xe2;" horiz-adv-x="1111" vert-adv-y="2457" 
d="M606 129q-110 -152 -282 -152q-118 0 -199 64q-101 81 -101 226q0 288 374 351q116 19 296 25l4 23q5 28 5 54q0 130 -146 130t-293 -90l-107 209q93 59 172 86q125 43 280 43q400 0 400 -325q0 -57 -16 -139l-84 -433q-13 -66 -13 -106q0 -48 13 -83v-12h-295
q-10 53 -10 95q0 13 2 34zM659 465q-128 -5 -194 -22q-134 -32 -134 -147q0 -102 111 -102q75 0 129.5 47.5t68.5 125.5zM311 1202l281 340h227l154 -340h-205l-95 145l-151 -145h-211z" />
    <glyph glyph-name="adieresis" unicode="&#xe4;" horiz-adv-x="1111" vert-adv-y="2457" 
d="M606 129q-110 -152 -282 -152q-118 0 -199 64q-101 81 -101 226q0 288 374 351q116 19 296 25l4 23q5 28 5 54q0 130 -146 130t-293 -90l-107 209q93 59 172 86q125 43 280 43q400 0 400 -325q0 -57 -16 -139l-84 -433q-13 -66 -13 -106q0 -48 13 -83v-12h-295
q-10 53 -10 95q0 13 2 34zM659 465q-128 -5 -194 -22q-134 -32 -134 -147q0 -102 111 -102q75 0 129.5 47.5t68.5 125.5zM488 1546q61 0 101.5 -39.5t40.5 -100.5q0 -71 -50.5 -122t-121.5 -51q-61 0 -101 40.5t-40 102.5q0 69 51 119.5t120 50.5zM911 1546q61 0 101 -39.5
t40 -100.5q0 -71 -50.5 -122t-120.5 -51q-60 0 -99 40t-39 102q0 70 50 120.5t118 50.5z" />
    <glyph glyph-name="atilde" unicode="&#xe3;" horiz-adv-x="1111" vert-adv-y="2457" 
d="M606 129q-110 -152 -282 -152q-118 0 -199 64q-101 81 -101 226q0 288 374 351q116 19 296 25l4 23q5 28 5 54q0 130 -146 130t-293 -90l-107 209q93 59 172 86q125 43 280 43q400 0 400 -325q0 -57 -16 -139l-84 -433q-13 -66 -13 -106q0 -48 13 -83v-12h-295
q-10 53 -10 95q0 13 2 34zM659 465q-128 -5 -194 -22q-134 -32 -134 -147q0 -102 111 -102q75 0 129.5 47.5t68.5 125.5zM1022 1524q-61 -291 -255 -291q-69 0 -157 55q-51 33 -79 33q-52 0 -78 -84l-168 12q27 122 69 185q69 106 181 106q65 0 151 -53q57 -35 86 -35
q46 0 74 84z" />
    <glyph glyph-name="aring" unicode="&#xe5;" horiz-adv-x="1111" vert-adv-y="2457" 
d="M606 129q-110 -152 -282 -152q-118 0 -199 64q-101 81 -101 226q0 288 374 351q116 19 296 25l4 23q5 28 5 54q0 130 -146 130t-293 -90l-107 209q93 59 172 86q125 43 280 43q400 0 400 -325q0 -57 -16 -139l-84 -433q-13 -66 -13 -106q0 -48 13 -83v-12h-295
q-10 53 -10 95q0 13 2 34zM659 465q-128 -5 -194 -22q-134 -32 -134 -147q0 -102 111 -102q75 0 129.5 47.5t68.5 125.5zM703 1611q92 0 150.5 -57.5t58.5 -147.5q0 -101 -70.5 -170t-174.5 -69q-92 0 -151 57.5t-59 146.5q0 99 69 168q71 72 177 72zM694 1494
q-41 0 -68.5 -33.5t-27.5 -84.5q0 -41 21 -65.5t56 -24.5q42 0 70 33.5t28 83.5q0 41 -21.5 66t-57.5 25z" />
    <glyph glyph-name="ccedilla" unicode="&#xe7;" horiz-adv-x="1102" vert-adv-y="2457" 
d="M566 -22l-77 -87q25 4 37 4q62 0 102.5 -43.5t40.5 -111.5q0 -92 -61 -145.5t-166 -53.5q-153 0 -217 115l125 59q30 -51 88 -51q34 0 55.5 19.5t21.5 51.5q0 28 -17 45t-45 17q-36 0 -64 -33l-78 60l131 161q-163 31 -255 133q-110 122 -110 331q0 148 48 277t136 217
q155 155 391 155q160 0 262 -73.5t158 -230.5l-260 -96q-30 92 -67 127t-103 35q-125 0 -194 -120q-68 -121 -68 -298q0 -237 175 -237q71 0 120.5 38.5t97.5 131.5l226 -117q-144 -268 -433 -280z" />
    <glyph glyph-name="eacute" unicode="&#xe9;" horiz-adv-x="1131" vert-adv-y="2457" 
d="M990 176q-93 -104 -201 -151.5t-253 -47.5q-230 0 -350 133q-105 116 -105 320q0 145 49 273t140 220q172 175 426 175q139 0 235 -56q147 -84 147 -259q0 -255 -357 -323q-118 -23 -339 -28v-20q0 -208 174 -208q73 0 128.5 27.5t123.5 98.5zM405 614q207 0 297.5 34.5
t90.5 114.5q0 51 -33.5 80.5t-91.5 29.5q-190 0 -263 -259zM572 1202l136 340h354l-271 -340h-219z" />
    <glyph glyph-name="egrave" unicode="&#xe8;" horiz-adv-x="1131" vert-adv-y="2457" 
d="M990 176q-93 -104 -201 -151.5t-253 -47.5q-230 0 -350 133q-105 116 -105 320q0 145 49 273t140 220q172 175 426 175q139 0 235 -56q147 -84 147 -259q0 -255 -357 -323q-118 -23 -339 -28v-20q0 -208 174 -208q73 0 128.5 27.5t123.5 98.5zM405 614q207 0 297.5 34.5
t90.5 114.5q0 51 -33.5 80.5t-91.5 29.5q-190 0 -263 -259zM636 1202l-181 340h332l58 -340h-209z" />
    <glyph glyph-name="ecircumflex" unicode="&#xea;" horiz-adv-x="1131" vert-adv-y="2457" 
d="M990 176q-93 -104 -201 -151.5t-253 -47.5q-230 0 -350 133q-105 116 -105 320q0 145 49 273t140 220q172 175 426 175q139 0 235 -56q147 -84 147 -259q0 -255 -357 -323q-118 -23 -339 -28v-20q0 -208 174 -208q73 0 128.5 27.5t123.5 98.5zM405 614q207 0 297.5 34.5
t90.5 114.5q0 51 -33.5 80.5t-91.5 29.5q-190 0 -263 -259zM382 1202l281 340h227l154 -340h-205l-95 145l-151 -145h-211z" />
    <glyph glyph-name="edieresis" unicode="&#xeb;" horiz-adv-x="1131" vert-adv-y="2457" 
d="M990 176q-93 -104 -201 -151.5t-253 -47.5q-230 0 -350 133q-105 116 -105 320q0 145 49 273t140 220q172 175 426 175q139 0 235 -56q147 -84 147 -259q0 -255 -357 -323q-118 -23 -339 -28v-20q0 -208 174 -208q73 0 128.5 27.5t123.5 98.5zM405 614q207 0 297.5 34.5
t90.5 114.5q0 51 -33.5 80.5t-91.5 29.5q-190 0 -263 -259zM535 1546q61 0 101.5 -39.5t40.5 -100.5q0 -71 -50.5 -122t-121.5 -51q-61 0 -101 40.5t-40 102.5q0 69 51 119.5t120 50.5zM958 1546q61 0 101 -39.5t40 -100.5q0 -71 -50.5 -122t-120.5 -51q-60 0 -99 40
t-39 102q0 70 50 120.5t118 50.5z" />
    <glyph glyph-name="iacute" unicode="&#xed;" horiz-adv-x="600" vert-adv-y="2457" 
d="M46 0l209 1071h303l-209 -1071h-303zM313 1202l136 340h354l-271 -340h-219z" />
    <glyph glyph-name="igrave" unicode="&#xec;" horiz-adv-x="600" vert-adv-y="2457" 
d="M46 0l209 1071h303l-209 -1071h-303zM328 1202l-181 340h332l58 -340h-209z" />
    <glyph glyph-name="icircumflex" unicode="&#xee;" horiz-adv-x="600" vert-adv-y="2457" 
d="M46 0l209 1071h303l-209 -1071h-303zM99 1202l281 340h227l154 -340h-205l-95 145l-151 -145h-211z" />
    <glyph glyph-name="idieresis" unicode="&#xef;" horiz-adv-x="600" vert-adv-y="2457" 
d="M46 0l209 1071h303l-209 -1071h-303zM251 1546q61 0 101.5 -39.5t40.5 -100.5q0 -71 -50.5 -122t-121.5 -51q-61 0 -101 40.5t-40 102.5q0 69 51 119.5t120 50.5zM674 1546q61 0 101 -39.5t40 -100.5q0 -71 -50.5 -122t-120.5 -51q-60 0 -99 40t-39 102q0 70 50 120.5
t118 50.5z" />
    <glyph glyph-name="ntilde" unicode="&#xf1;" horiz-adv-x="1208" vert-adv-y="2457" 
d="M38 0l209 1071h303l-32 -166q56 83 115 125q95 68 219 68q125 0 195 -79q70 -78 70 -214q0 -62 -12 -125l-129 -680h-305l125 651q8 43 8 72q0 125 -119 125q-85 0 -143.5 -63t-81.5 -181l-119 -604h-303zM1114 1524q-61 -291 -255 -291q-69 0 -157 55q-51 33 -79 33
q-52 0 -78 -84l-168 12q27 122 69 185q69 106 181 106q65 0 151 -53q57 -35 86 -35q46 0 74 84z" />
    <glyph glyph-name="oacute" unicode="&#xf3;" horiz-adv-x="1196" vert-adv-y="2457" 
d="M645 1098q218 0 346 -134q128 -135 128 -359q0 -141 -48.5 -266t-137.5 -211q-156 -151 -387 -151q-213 0 -341 134q-128 135 -128 366q0 136 49 261t136 211q150 149 383 149zM641 873q-135 0 -205 -170q-50 -122 -50 -269q0 -232 171 -232q137 0 206 177q47 121 47 265
q0 112 -42 169q-45 60 -127 60zM581 1202l136 340h354l-271 -340h-219z" />
    <glyph glyph-name="ograve" unicode="&#xf2;" horiz-adv-x="1196" vert-adv-y="2457" 
d="M645 1098q218 0 346 -134q128 -135 128 -359q0 -141 -48.5 -266t-137.5 -211q-156 -151 -387 -151q-213 0 -341 134q-128 135 -128 366q0 136 49 261t136 211q150 149 383 149zM641 873q-135 0 -205 -170q-50 -122 -50 -269q0 -232 171 -232q137 0 206 177q47 121 47 265
q0 112 -42 169q-45 60 -127 60zM645 1202l-181 340h332l58 -340h-209z" />
    <glyph glyph-name="ocircumflex" unicode="&#xf4;" horiz-adv-x="1196" vert-adv-y="2457" 
d="M645 1098q218 0 346 -134q128 -135 128 -359q0 -141 -48.5 -266t-137.5 -211q-156 -151 -387 -151q-213 0 -341 134q-128 135 -128 366q0 136 49 261t136 211q150 149 383 149zM641 873q-135 0 -205 -170q-50 -122 -50 -269q0 -232 171 -232q137 0 206 177q47 121 47 265
q0 112 -42 169q-45 60 -127 60zM361 1202l281 340h227l154 -340h-205l-95 145l-151 -145h-211z" />
    <glyph glyph-name="odieresis" unicode="&#xf6;" horiz-adv-x="1196" vert-adv-y="2457" 
d="M645 1098q218 0 346 -134q128 -135 128 -359q0 -141 -48.5 -266t-137.5 -211q-156 -151 -387 -151q-213 0 -341 134q-128 135 -128 366q0 136 49 261t136 211q150 149 383 149zM641 873q-135 0 -205 -170q-50 -122 -50 -269q0 -232 171 -232q137 0 206 177q47 121 47 265
q0 112 -42 169q-45 60 -127 60zM513 1546q61 0 101.5 -39.5t40.5 -100.5q0 -71 -50.5 -122t-121.5 -51q-61 0 -101 40.5t-40 102.5q0 69 51 119.5t120 50.5zM936 1546q61 0 101 -39.5t40 -100.5q0 -71 -50.5 -122t-120.5 -51q-60 0 -99 40t-39 102q0 70 50 120.5t118 50.5z
" />
    <glyph glyph-name="otilde" unicode="&#xf5;" horiz-adv-x="1196" vert-adv-y="2457" 
d="M645 1098q218 0 346 -134q128 -135 128 -359q0 -141 -48.5 -266t-137.5 -211q-156 -151 -387 -151q-213 0 -341 134q-128 135 -128 366q0 136 49 261t136 211q150 149 383 149zM641 873q-135 0 -205 -170q-50 -122 -50 -269q0 -232 171 -232q137 0 206 177q47 121 47 265
q0 112 -42 169q-45 60 -127 60zM1102 1524q-61 -291 -255 -291q-69 0 -157 55q-51 33 -79 33q-52 0 -78 -84l-168 12q27 122 69 185q69 106 181 106q65 0 151 -53q57 -35 86 -35q46 0 74 84z" />
    <glyph glyph-name="uacute" unicode="&#xfa;" horiz-adv-x="1198" vert-adv-y="2457" 
d="M682 156q-69 -96 -146.5 -139.5t-178.5 -43.5q-124 0 -194 77.5t-70 215.5q0 63 15 140l130 665h304l-125 -633q-13 -65 -13 -101q0 -122 116 -122q171 0 220 246l121 610h303l-209 -1071h-303zM618 1202l136 340h354l-271 -340h-219z" />
    <glyph glyph-name="ugrave" unicode="&#xf9;" horiz-adv-x="1198" vert-adv-y="2457" 
d="M682 156q-69 -96 -146.5 -139.5t-178.5 -43.5q-124 0 -194 77.5t-70 215.5q0 63 15 140l130 665h304l-125 -633q-13 -65 -13 -101q0 -122 116 -122q171 0 220 246l121 610h303l-209 -1071h-303zM639 1202l-181 340h332l58 -340h-209z" />
    <glyph glyph-name="ucircumflex" unicode="&#xfb;" horiz-adv-x="1198" vert-adv-y="2457" 
d="M682 156q-69 -96 -146.5 -139.5t-178.5 -43.5q-124 0 -194 77.5t-70 215.5q0 63 15 140l130 665h304l-125 -633q-13 -65 -13 -101q0 -122 116 -122q171 0 220 246l121 610h303l-209 -1071h-303zM391 1202l281 340h227l154 -340h-205l-95 145l-151 -145h-211z" />
    <glyph glyph-name="udieresis" unicode="&#xfc;" horiz-adv-x="1198" vert-adv-y="2457" 
d="M682 156q-69 -96 -146.5 -139.5t-178.5 -43.5q-124 0 -194 77.5t-70 215.5q0 63 15 140l130 665h304l-125 -633q-13 -65 -13 -101q0 -122 116 -122q171 0 220 246l121 610h303l-209 -1071h-303zM556 1546q61 0 101.5 -39.5t40.5 -100.5q0 -71 -50.5 -122t-121.5 -51
q-61 0 -101 40.5t-40 102.5q0 69 51 119.5t120 50.5zM979 1546q61 0 101 -39.5t40 -100.5q0 -71 -50.5 -122t-120.5 -51q-60 0 -99 40t-39 102q0 70 50 120.5t118 50.5z" />
    <glyph glyph-name="dagger" unicode="&#x2020;" horiz-adv-x="700" vert-adv-y="2457" 
d="M173 1058l37 197h174l41 209h211l-41 -209h176l-41 -197h-172l-82 -429h-211l82 429h-174z" />
    <glyph glyph-name="degree" unicode="&#xb0;" horiz-adv-x="920" vert-adv-y="2457" 
d="M612 1484q149 0 242 -93q89 -89 89 -231q0 -180 -117 -297q-113 -112 -284 -112q-150 0 -244 94q-88 89 -88 229q0 175 119 295q114 115 283 115zM599 1312q-78 0 -127 -62t-49 -161q0 -78 36 -122t100 -44q75 0 122 63.5t47 164.5q0 76 -34 118.5t-95 42.5z" />
    <glyph glyph-name="cent" unicode="&#xa2;" horiz-adv-x="1233" vert-adv-y="2457" 
d="M429 -276l51 266q-114 28 -183 81q-169 130 -169 381q0 138 46.5 261t131.5 211q78 80 165.5 118t221.5 51l39 195h144l-41 -207q235 -48 317 -286l-254 -97q-33 116 -108 152l-125 -653q114 28 184 180l221 -119q-142 -265 -448 -278l-50 -256h-143zM648 860
q-58 -18 -95 -48t-68 -83q-68 -118 -68 -290q0 -170 106 -228z" />
    <glyph glyph-name="sterling" unicode="&#xa3;" horiz-adv-x="1233" vert-adv-y="2457" 
d="M120 621l33 182h143q-23 102 -23 193q0 233 149 365q141 126 378 126q216 0 342 -116q53 -49 82.5 -104t52.5 -149l-289 -98q-16 90 -44 133q-50 76 -150 76q-96 0 -148 -63q-54 -63 -54 -175q0 -82 21 -188h355l-33 -182h-293q8 -95 8 -135q0 -101 -33 -199
q79 -43 147 -43q65 0 101.5 34.5t61.5 119.5l264 -43q-53 -170 -122 -252q-104 -123 -279 -123q-151 0 -291 114q-121 -114 -279 -114q-102 0 -171 47q-91 62 -91 181q0 135 110 198q73 41 170 41q69 0 138 -27q-6 73 -35 201h-221zM347 230q-62 47 -114 47q-39 0 -62 -18
t-23 -48q0 -65 77 -65t122 84z" />
    <glyph glyph-name="section" unicode="&#xa7;" horiz-adv-x="1174" vert-adv-y="2457" 
d="M837 323q92 -100 92 -227q0 -155 -104 -258q-123 -123 -346 -123q-328 0 -482 262l215 137q99 -168 272 -168q148 0 148 115q0 50 -43 86t-166 90q-144 63 -221 130q-111 98 -111 231q0 216 277 286q-84 97 -84 223q0 187 147 293q121 87 299 87q154 0 260.5 -60.5
t180.5 -189.5l-213 -135q-80 156 -239 156q-67 0 -105.5 -31.5t-38.5 -85.5q0 -51 38 -87t136 -77q164 -69 243 -133q121 -98 121 -235q0 -210 -276 -286zM675 436q139 20 139 124q0 47 -36.5 82.5t-118.5 69.5l-140 58q-135 -18 -135 -123q0 -90 155 -155z" />
    <glyph glyph-name="bullet" unicode="&#x2022;" horiz-adv-x="819" vert-adv-y="2457" 
d="M440 981q127 0 213 -86q86 -88 86 -217t-85.5 -215t-215.5 -86q-131 0 -218 87q-85 87 -85 213q0 130 87 217t218 87z" />
    <glyph glyph-name="paragraph" unicode="&#xb6;" horiz-adv-x="1249" vert-adv-y="2457" 
d="M414 0l132 674h-7q-172 0 -270 102q-88 92 -88 240q0 202 131 326q129 122 348 122h615l-285 -1464h-209l250 1280h-160l-250 -1280h-207z" />
    <glyph glyph-name="germandbls" unicode="&#xdf;" horiz-adv-x="1221" vert-adv-y="2457" 
d="M884 891q69 -21 109 -48t73 -74q66 -94 66 -250q0 -269 -149 -417q-121 -120 -306 -120q-127 0 -217 51l45 219h6q41 -31 109 -31q106 0 160 94q49 86 49 225q0 124 -46.5 178.5t-162.5 67.5l41 209q63 1 99 13.5t65 43.5q50 54 50 150q0 156 -132 156q-75 0 -116 -52.5
t-66 -180.5l-216 -1125h-307l213 1093q33 169 72 242q127 234 436 234q202 0 310 -109q91 -92 91 -237q0 -127 -69 -213q-37 -46 -83.5 -72.5t-123.5 -46.5z" />
    <glyph glyph-name="registered" unicode="&#xae;" horiz-adv-x="1157" vert-adv-y="2457" 
d="M427 746l92 479h223q79 0 121.5 -34.5t42.5 -97.5q0 -109 -123 -136q39 -10 50.5 -33.5t16.5 -101.5q5 -59 13 -72v-4h-133q-13 32 -14 100q-1 66 -56 66h-57l-33 -166h-143zM621 1010h70q76 0 76 63q0 50 -55 50h-70zM714 1480q195 0 324 -130q128 -129 128 -323
q0 -233 -164 -397q-157 -157 -380 -157q-190 0 -318 127q-129 129 -129 327q0 227 164 393q75 76 173 118t202 42zM707 1386q-178 0 -298 -120q-128 -129 -128 -329q0 -168 98 -269t260 -101q167 0 284 117q134 132 134 341q0 179 -109 277q-93 84 -241 84z" />
    <glyph glyph-name="copyright" unicode="&#xa9;" horiz-adv-x="1624" vert-adv-y="2457" 
d="M1215 532q-63 -115 -141 -169q-99 -70 -238 -70q-174 0 -279 114q-101 109 -101 279q0 205 122 344q128 146 331 146q255 0 339 -234l-201 -98q-21 64 -54.5 91.5t-89.5 27.5q-98 0 -150 -83q-48 -76 -48 -181q0 -191 152 -191q58 0 96 29.5t70 99.5zM923 1480
q286 0 474 -189q191 -191 191 -485q0 -223 -111 -418q-110 -193 -297 -302q-180 -104 -389 -104q-133 0 -254 49t-212 139q-193 193 -193 488q0 225 113 419q113 196 298 300q181 103 380 103zM918 1374q-267 0 -457 -191q-103 -104 -157 -245q-49 -130 -49 -272
q0 -258 160 -420q153 -155 394 -155q124 0 241.5 50t207.5 141q103 104 157 246q50 131 50 274q0 257 -160 419q-151 153 -387 153z" />
    <glyph glyph-name="trademark" unicode="&#x2122;" horiz-adv-x="1573" vert-adv-y="2457" 
d="M763 807l129 657h221l54 -452l219 452h239l-127 -657h-165l81 426l-217 -426h-143l-51 426l-82 -426h-158zM296 807l101 503h-197l29 154h563l-29 -154h-184l-100 -503h-183z" />
    <glyph glyph-name="acute" unicode="&#xb4;" vert-adv-y="2457" 
d="M495 1202l136 340h354l-271 -340h-219z" />
    <glyph glyph-name="dieresis" unicode="&#xa8;" vert-adv-y="2457" 
d="M481 1546q61 0 101.5 -39.5t40.5 -100.5q0 -71 -50.5 -122t-121.5 -51q-61 0 -101 40.5t-40 102.5q0 69 51 119.5t120 50.5zM904 1546q61 0 101 -39.5t40 -100.5q0 -71 -50.5 -122t-120.5 -51q-60 0 -99 40t-39 102q0 70 50 120.5t118 50.5z" />
    <glyph glyph-name="notequal" unicode="&#x2260;" horiz-adv-x="1147" vert-adv-y="2457" 
d="M242 328h-126l49 252h246l127 190h-336l49 252h456l140 209l190 -89l-80 -120h128l-51 -252h-246l-127 -190h338l-49 -252h-458l-138 -207l-191 89z" />
    <glyph glyph-name="AE" unicode="&#xc6;" horiz-adv-x="2042" vert-adv-y="2457" 
d="M-56 0l1042 1464h1110l-47 -250h-635l-67 -350h471l-47 -238h-471l-72 -376h666l-47 -250h-983l57 299h-447l-204 -299h-326zM1095 1200l-459 -665h330z" />
    <glyph glyph-name="Oslash" unicode="&#xd8;" horiz-adv-x="1555" vert-adv-y="2457" 
d="M1411 1215q94 -157 94 -379q0 -270 -129 -491q-103 -177 -267 -273q-164 -95 -366 -95q-249 0 -415 141l-116 -118h-238l244 248q-91 157 -91 375q0 174 51.5 332t146.5 273q213 259 552 259q255 0 423 -141l116 118h241zM1166 966l-631 -638q81 -99 221 -99
q203 0 314 200q103 184 103 428q0 53 -7 109zM466 499l631 641q-81 95 -215 95q-182 0 -295 -162q-59 -84 -93.5 -209.5t-34.5 -254.5q0 -53 7 -110z" />
    <glyph glyph-name="infinity" unicode="&#x221e;" horiz-adv-x="1697" vert-adv-y="2457" 
d="M879 543q-61 -75 -116 -116q-119 -89 -275 -89q-185 0 -279 107q-84 96 -84 250q0 177 107 273q93 84 257 84q119 0 210 -48t180 -157q53 66 100 104q125 101 290 101q186 0 280 -107q84 -96 84 -250q0 -177 -107 -273q-93 -84 -257 -84q-119 0 -210 48t-180 157z
M768 695l-19 20q-72 73 -131 107t-117 34q-79 0 -122 -49q-39 -43 -39 -111q0 -79 49 -123q43 -38 111 -38q62 0 113.5 29t132.5 109zM990 695l22 -22q81 -80 132 -109t113 -29q78 0 122 49q39 43 39 112q0 78 -49 122q-43 38 -113 38q-71 0 -142 -50q-52 -37 -105 -91z" />
    <glyph glyph-name="plusminus" unicode="&#xb1;" horiz-adv-x="1147" vert-adv-y="2457" 
d="M148 729l49 252h330l68 338h264l-66 -338h328l-51 -252h-326l-67 -344h-267l68 344h-330zM9 0l47 252h922l-47 -252h-922z" />
    <glyph glyph-name="lessequal" unicode="&#x2264;" horiz-adv-x="1147" vert-adv-y="2457" 
d="M913 342l-707 397l43 225l863 399l-64 -326l-496 -198l417 -213zM62 0l51 261h785l-51 -261h-785z" />
    <glyph glyph-name="greaterequal" unicode="&#x2265;" horiz-adv-x="1147" vert-adv-y="2457" 
d="M356 1363l707 -398l-43 -224l-863 -399l64 325l496 199l-416 212zM876 0h-785l51 261h785z" />
    <glyph glyph-name="yen" unicode="&#xa5;" horiz-adv-x="1233" vert-adv-y="2457" 
d="M142 651l29 150h250l-234 663h351l157 -567l383 567h328l-483 -663h252l-29 -150h-332l-12 -16l-29 -138h344l-28 -147h-344l-68 -350h-322l68 350h-342l31 147h340l28 138l-6 16h-332z" />
    <glyph glyph-name="mu" unicode="&#xb5;" horiz-adv-x="1233" vert-adv-y="2457" 
d="M707 180q-70 -109 -134.5 -156t-144.5 -47q-39 0 -77 21l-72 -371h-303l281 1444h303l-125 -655q-8 -41 -8 -79q0 -122 115 -122q92 0 149 75q52 68 71 171l117 610h305l-209 -1071h-305z" />
    <glyph glyph-name="partialdiff" unicode="&#x2202;" horiz-adv-x="1233" vert-adv-y="2457" 
d="M834 956q-45 129 -121.5 225t-255.5 246l145 181q179 -106 295 -226q256 -264 256 -645q0 -291 -116 -493q-152 -267 -473 -267q-234 0 -364 144q-114 125 -114 332q0 245 139 418q54 66 120 110q117 76 253 76q144 0 236 -101zM655 842q-125 0 -196 -125
q-66 -118 -66 -280q0 -229 182 -229q121 0 187 120q67 121 67 287q0 227 -174 227z" />
    <glyph glyph-name="summation" unicode="&#x2211;" horiz-adv-x="1233" vert-adv-y="2457" 
d="M1489 1470l-52 -264h-141l-303 -1563h-328l304 1563h-445l-303 -1563h-328l304 1563h-141l51 264h1382z" />
    <glyph glyph-name="product" unicode="&#x220f;" horiz-adv-x="1233" vert-adv-y="2457" 
d="M-95 -373l55 281l510 676l-231 601l54 279h1000l-51 -266h-651l227 -623l-509 -682h748l-51 -266h-1101z" />
    <glyph glyph-name="pi" unicode="&#x3c0;" horiz-adv-x="1242" vert-adv-y="2457" 
d="M79 0l163 846h-114l46 225h1103l-46 -225h-112l-163 -846h-303l163 846h-279l-163 -846h-295z" />
    <glyph glyph-name="integral" unicode="&#x222b;" horiz-adv-x="1038" vert-adv-y="2457" 
d="M128 -310l51 215q55 -26 99 -26q57 0 82 44q20 35 20 167v1133q0 156 8.5 219t36.5 113q80 142 300 142q114 0 223 -35l-44 -220q-61 24 -102 24q-51 0 -75 -43q-19 -35 -19 -140v-1177q0 -227 -31 -297q-72 -161 -313 -161q-120 0 -236 42z" />
    <glyph glyph-name="ordfeminine" unicode="&#xaa;" horiz-adv-x="969" vert-adv-y="2457" 
d="M628 664q-88 -131 -239 -131q-114 0 -183.5 67t-69.5 177q0 161 132 240q69 41 151.5 56.5t281.5 24.5q9 32 9 57q0 113 -121 113q-131 0 -254 -76l-93 184q178 111 394 111q196 0 283 -94q63 -68 63 -176q0 -40 -10 -95l-76 -397q-10 -52 -10 -89q0 -38 12 -75v-10h-258
q-13 38 -12 113zM675 948q-148 -1 -212.5 -34t-64.5 -107q0 -84 93 -84q63 0 109 38.5t58 102.5z" />
    <glyph glyph-name="ordmasculine" unicode="&#xba;" horiz-adv-x="1036" vert-adv-y="2457" 
d="M659 1487q181 0 293 -112q112 -113 112 -300q0 -118 -41.5 -224.5t-115.5 -181.5q-137 -137 -342 -137q-178 0 -291 113q-113 114 -113 301q0 243 159 403q137 138 339 138zM646 1280q-100 0 -155 -97q-58 -104 -58 -258q0 -194 146 -194q97 0 150 97q59 106 59 259
q0 193 -142 193z" />
    <glyph glyph-name="Omega" unicode="&#x2126;" horiz-adv-x="1710" vert-adv-y="2457" 
d="M-32 0l44 227h272q-78 77 -112 166t-34 212q0 220 101 417q120 233 321 349q196 114 447 114q228 0 386 -95q258 -155 258 -509q0 -200 -84 -369.5t-241 -284.5h252l-45 -227h-653l45 230q168 52 261 203q54 89 87 212.5t33 238.5q0 150 -66 234q-81 101 -252 101
q-275 0 -415 -258q-43 -80 -71.5 -199t-28.5 -218q0 -246 193 -314l-45 -230h-653z" />
    <glyph glyph-name="ae" unicode="&#xe6;" horiz-adv-x="1726" vert-adv-y="2457" 
d="M726 193q-77 -114 -167 -164q-94 -52 -213 -52q-137 0 -220.5 78.5t-83.5 207.5q0 236 232 314q158 54 380 54h52l8 41q6 31 6 61q0 115 -146 115q-152 0 -299 -88l-106 209q107 68 214.5 98.5t245.5 30.5q122 0 196.5 -33.5t123.5 -110.5q151 144 350 144q134 0 232 -56
q143 -82 143 -258q0 -189 -178 -269q-147 -67 -514 -75v-28q0 -109 41.5 -158.5t131.5 -49.5q74 0 128.5 27t124.5 99l180 -154q-73 -81 -148 -124q-130 -75 -305 -75q-151 0 -250 52t-159 164zM1007 623q215 0 300.5 31t85.5 111q0 50 -34 79t-94 29q-188 0 -258 -250z
M673 453h-43q-144 0 -213.5 -38.5t-69.5 -117.5q0 -102 110 -102q76 0 130.5 47t68.5 125z" />
    <glyph glyph-name="oslash" unicode="&#xf8;" horiz-adv-x="1196" vert-adv-y="2457" 
d="M243 81l-82 -81h-209l198 194q-67 114 -67 278q0 140 48.5 265.5t136.5 211.5q152 149 383 149q188 0 315 -105l80 78h209l-196 -191q66 -123 66 -274q0 -142 -48.5 -267t-137.5 -211q-156 -151 -387 -151q-188 0 -309 104zM429 262q44 -60 134 -60q143 0 214 177
q47 118 47 253v17zM780 811q-50 62 -133 62q-141 0 -213 -170q-50 -119 -50 -262v-18z" />
    <glyph glyph-name="questiondown" unicode="&#xbf;" horiz-adv-x="1133" vert-adv-y="2457" 
d="M971 -59q-38 -91 -80 -146.5t-104 -98.5q-132 -91 -324 -91q-230 0 -344 123q-84 91 -84 234q0 127 64.5 211.5t230.5 176.5q98 54 131.5 92.5t48.5 114.5l8 41h277l-15 -80q-21 -120 -76.5 -187t-202.5 -150q-84 -48 -119.5 -92.5t-35.5 -103.5q0 -63 40 -99.5
t109 -36.5q144 0 224 190zM740 1110q74 0 122.5 -48t48.5 -122q0 -86 -60 -146.5t-146 -60.5q-71 0 -119.5 49.5t-48.5 121.5q0 86 59 146t144 60z" />
    <glyph glyph-name="exclamdown" unicode="&#xa1;" horiz-adv-x="758" vert-adv-y="2457" 
d="M74 -373l86 447l180 528h197l-41 -549l-84 -426h-338zM513 1110q74 0 122.5 -47.5t48.5 -120.5q0 -86 -60 -145.5t-146 -59.5q-71 0 -119.5 48.5t-48.5 119.5q0 86 59 145.5t144 59.5z" />
    <glyph glyph-name="logicalnot" unicode="&#xac;" horiz-adv-x="1147" vert-adv-y="2457" 
d="M616 319l55 279h-469l51 262h723l-104 -541h-256z" />
    <glyph glyph-name="radical" unicode="&#x221a;" horiz-adv-x="1233" vert-adv-y="2457" 
d="M309 0l-107 617h-179l39 198h413l76 -515l770 1587h637l-47 -239h-395l-813 -1648h-394z" />
    <glyph glyph-name="florin" unicode="&#x192;" horiz-adv-x="893" vert-adv-y="2457" 
d="M108 621l41 223h165l64 297q41 190 151 273q92 70 239 70q133 0 239 -53l-80 -208q-53 30 -107 30q-57 0 -88.5 -30.5t-46.5 -100.5l-59 -278h233l-45 -223h-233l-140 -664q-38 -184 -138 -260q-82 -63 -223 -63q-122 0 -212 47l70 207q43 -23 83 -23q92 0 117 123
l131 633h-161z" />
    <glyph glyph-name="approxequal" unicode="&#x2248;" horiz-adv-x="1147" vert-adv-y="2457" 
d="M1142 1086q-35 -103 -65.5 -159.5t-80.5 -109.5q-93 -100 -218 -100q-84 0 -188 73q-68 48 -107 48q-40 0 -66.5 -28t-49.5 -97l-218 15q34 103 64 159t80 110q94 101 219 101q85 0 189 -73q67 -48 106 -48q40 0 65.5 27.5t51.5 98.5zM312 284l-213 14q37 158 92 242
q90 135 227 135q82 0 193 -72q73 -47 109 -47q41 0 65 27.5t41 95.5l211 -16q-90 -375 -318 -375q-82 0 -192 72q-72 47 -109 47q-41 0 -64 -26.5t-42 -96.5z" />
    <glyph glyph-name="Delta" unicode="&#x2206;" horiz-adv-x="1233" vert-adv-y="2457" 
d="M1226 0h-1428l807 1464h392zM241 245h618l-126 931z" />
    <glyph glyph-name="guillemotleft" unicode="&#xab;" horiz-adv-x="1073" vert-adv-y="2457" 
d="M232 76l-143 432l297 401h258l-307 -422l137 -411h-242zM642 76l-145 420l309 413h258l-322 -432l142 -401h-242z" />
    <glyph glyph-name="guillemotright" unicode="&#xbb;" horiz-adv-x="1073" vert-adv-y="2457" 
d="M-1 76l322 432l-140 401h242l145 -422l-311 -411h-258zM419 76l309 420l-137 413h237l146 -432l-295 -401h-260z" />
    <glyph glyph-name="ellipsis" unicode="&#x2026;" horiz-adv-x="1849" vert-adv-y="2457" 
d="M256 358q74 0 123 -48.5t49 -121.5q0 -87 -60 -146.5t-148 -59.5q-74 0 -122.5 48t-48.5 121q0 86 60.5 146.5t146.5 60.5zM872 358q74 0 123 -48.5t49 -121.5q0 -86 -60 -146t-148 -60q-74 0 -122.5 48t-48.5 121q0 86 60.5 146.5t146.5 60.5zM1489 358q74 0 123 -48.5
t49 -121.5q0 -87 -60 -146.5t-148 -59.5q-74 0 -122.5 48t-48.5 121q0 86 60.5 146.5t146.5 60.5z" />
    <glyph glyph-name="glyph172" horiz-adv-x="1233" vert-adv-y="1233" 
 />
    <glyph glyph-name="Agrave" unicode="&#xc0;" horiz-adv-x="1422" vert-adv-y="2457" 
d="M931 279h-553l-141 -279h-317l791 1464h369l213 -1464h-328zM903 512l-78 649l-329 -649h407zM803 1579l-178 356h332l55 -356h-209z" />
    <glyph glyph-name="Atilde" unicode="&#xc3;" horiz-adv-x="1422" vert-adv-y="2457" 
d="M931 279h-553l-141 -279h-317l791 1464h369l213 -1464h-328zM903 512l-78 649l-329 -649h407zM1264 1872q-61 -291 -255 -291q-68 0 -156 55q-52 33 -80 33q-52 0 -78 -84l-168 12q65 291 250 291q65 0 151 -53q56 -35 85 -35q48 0 75 84z" />
    <glyph glyph-name="Otilde" unicode="&#xd5;" horiz-adv-x="1554" vert-adv-y="2457" 
d="M879 1487q305 0 476 -196q150 -171 150 -452q0 -273 -129 -494q-102 -177 -267 -273q-164 -95 -373 -95q-271 0 -437 167q-172 173 -172 478q0 211 76 400q88 216 274 345q172 120 402 120zM882 1235q-182 0 -295 -162q-60 -86 -94 -211t-34 -259q0 -181 77.5 -277.5
t224.5 -96.5q131 0 230 95q90 87 139 243q43 137 43 293q0 214 -100 307q-73 68 -191 68zM1324 1872q-61 -291 -255 -291q-68 0 -156 55q-52 33 -80 33q-52 0 -78 -84l-168 12q65 291 250 291q65 0 151 -53q56 -35 85 -35q48 0 75 84z" />
    <glyph glyph-name="OE" unicode="&#x152;" horiz-adv-x="2179" vert-adv-y="2457" 
d="M1033 86q-145 -109 -323 -109q-245 0 -401 156q-177 176 -177 485q0 216 83 406q82 187 230 307q192 156 455 156q134 0 222.5 -41t150.5 -132l28 150h945l-48 -250h-651l-67 -350h487l-47 -238h-488l-71 -376h682l-47 -250h-979zM1129 632l29 150q14 73 14 129
q0 169 -94 254q-76 68 -192 68q-209 0 -322 -201q-102 -183 -102 -429q0 -212 101 -306q73 -68 190 -68q165 0 264 132q81 107 112 271z" />
    <glyph glyph-name="oe" unicode="&#x153;" horiz-adv-x="1849" vert-adv-y="2457" 
d="M917 133q-148 -156 -367 -156q-214 0 -344 131q-129 130 -129 347q0 139 49 265.5t138 215.5q161 162 393 162q230 0 352 -187q169 187 413 187q168 0 271 -83q106 -84 106 -232q0 -261 -374 -328q-110 -19 -320 -25v-18q0 -108 42 -158t131 -50q75 0 129 27t124 99
l182 -154q-73 -81 -149 -124q-131 -75 -305 -75q-123 0 -204.5 37t-137.5 119zM645 865q-124 0 -193 -123q-72 -130 -72 -310q0 -230 181 -230q115 0 180 118q75 136 75 323q0 222 -171 222zM1128 612q204 0 296 35.5t92 113.5q0 53 -33.5 82.5t-93.5 29.5q-191 0 -261 -261
z" />
    <glyph glyph-name="endash" unicode="&#x2013;" horiz-adv-x="1233" vert-adv-y="2457" 
d="M150 540l47 246h959l-50 -246h-956z" />
    <glyph glyph-name="emdash" unicode="&#x2014;" horiz-adv-x="1233" vert-adv-y="2457" 
d="M-119 538l47 246h1497l-49 -246h-1495z" />
    <glyph glyph-name="quotedblleft" unicode="&#x201c;" horiz-adv-x="1008" vert-adv-y="2457" 
d="M880 1288q62 -9 96.5 -48t34.5 -98q0 -71 -50.5 -119t-125.5 -48t-118.5 49t-43.5 134q0 160 106 268q56 58 125 85.5t177 34.5l-25 -127q-145 -25 -176 -131zM434 1288q62 -9 96.5 -48t34.5 -98q0 -71 -51 -119t-126 -48t-118 49t-43 134q0 160 106 268q56 58 125 85.5
t176 34.5l-24 -127q-145 -25 -176 -131z" />
    <glyph glyph-name="quotedblright" unicode="&#x201d;" horiz-adv-x="1008" vert-adv-y="2457" 
d="M203 975l25 127q144 25 176 131q-61 9 -96 48t-35 98q0 71 50.5 119t125.5 48q74 0 118 -49t44 -132q0 -157 -101 -263q-57 -60 -127 -89t-180 -38zM652 975l24 127q144 25 176 131q-62 9 -97.5 48t-35.5 98q0 71 51 119t127 48q73 0 116.5 -49.5t43.5 -132.5
q0 -156 -102 -263q-56 -59 -125.5 -88t-177.5 -38z" />
    <glyph glyph-name="quoteleft" unicode="&#x2018;" horiz-adv-x="553" vert-adv-y="2457" 
d="M434 1288q62 -9 96.5 -48t34.5 -98q0 -71 -51 -119t-126 -48t-118 49t-43 134q0 160 106 268q56 58 125 85.5t176 34.5l-24 -127q-145 -25 -176 -131z" />
    <glyph glyph-name="quoteright" unicode="&#x2019;" horiz-adv-x="553" vert-adv-y="2457" 
d="M203 975l25 127q144 25 176 131q-61 9 -96 48t-35 98q0 71 50.5 119t125.5 48q74 0 118 -49t44 -132q0 -157 -101 -263q-57 -60 -127 -89t-180 -38z" />
    <glyph glyph-name="divide" unicode="&#xf7;" horiz-adv-x="1147" vert-adv-y="2457" 
d="M118 571l51 252h922l-51 -252h-922zM705 1300q67 0 111.5 -45t44.5 -112q0 -81 -55.5 -137t-134.5 -56q-68 0 -114 46t-46 113q0 78 57 134.5t137 56.5zM539 446q68 0 113.5 -45t45.5 -112q0 -80 -57 -136.5t-136 -56.5q-68 0 -113 45t-45 112q0 79 56.5 136t135.5 57z
" />
    <glyph glyph-name="lozenge" unicode="&#x25ca;" horiz-adv-x="1233" vert-adv-y="2457" 
d="M654 -63l-653 795l653 795l653 -795zM654 349l308 383l-308 383l-308 -383z" />
    <glyph glyph-name="ydieresis" unicode="&#xff;" horiz-adv-x="1112" vert-adv-y="2457" 
d="M1191 1071l-649 -1178q-83 -151 -179 -216.5t-233 -65.5t-233 71l115 209q52 -40 118 -40q55 0 92.5 30t71.5 102l21 43l-187 1045h316l96 -678l344 678h307zM483 1546q62 0 102.5 -39.5t40.5 -100.5q0 -71 -50.5 -122t-121.5 -51q-61 0 -101.5 40.5t-40.5 102.5
q0 69 51 119.5t120 50.5zM907 1546q61 0 101 -40t40 -100q0 -71 -50.5 -122t-121.5 -51q-60 0 -99 40t-39 102q0 70 50 120.5t119 50.5z" />
    <glyph glyph-name="Ydieresis" unicode="&#x178;" horiz-adv-x="1325" vert-adv-y="2457" 
d="M406 0l119 612l-309 852h336l192 -575l394 575h331l-628 -868l-115 -596h-320zM675 1890q61 0 101.5 -39.5t40.5 -100.5q0 -71 -50.5 -122t-121.5 -51q-60 0 -100.5 40.5t-40.5 102.5q0 69 51 119.5t120 50.5zM1098 1890q61 0 101 -39.5t40 -100.5q0 -71 -50.5 -122
t-120.5 -51q-60 0 -99 40t-39 102q0 70 50 120.5t118 50.5z" />
    <glyph glyph-name="fraction" unicode="&#x2044;" horiz-adv-x="205" vert-adv-y="2457" 
d="M-473 0l1006 1464h221l-1006 -1464h-221z" />
    <glyph glyph-name="Euro" unicode="&#x20ac;" horiz-adv-x="1233" vert-adv-y="2457" 
d="M231 948q49 164 133 280q187 259 496 259q206 0 319 -114q53 -54 81.5 -122.5t47.5 -189.5l-295 -68q-14 113 -38 160q-40 80 -138 80q-180 0 -277 -285h307l-28 -150h-316q-12 -77 -16 -147h303l-29 -150h-273q21 -262 206 -262q82 0 136 55.5t104 192.5l274 -88
q-41 -109 -79.5 -171.5t-96.5 -116.5q-143 -134 -355 -134q-225 0 -359 138.5t-150 385.5h-152l29 150h122q5 91 13 147h-127l29 150h129z" />
    <glyph glyph-name="guilsinglleft" unicode="&#x2039;" horiz-adv-x="659" vert-adv-y="2457" 
d="M232 76l-145 420l311 413h256l-321 -432l141 -401h-242z" />
    <glyph glyph-name="guilsinglright" unicode="&#x203a;" horiz-adv-x="657" vert-adv-y="2457" 
d="M-1 76l322 432l-140 401h242l145 -422l-311 -411h-258z" />
    <glyph glyph-name="daggerdbl" unicode="&#x2021;" horiz-adv-x="700" vert-adv-y="2457" 
d="M185 1108l35 172h172l37 184h211l-37 -184h176l-33 -172h-176l-22 -125h174l-33 -172h-174l-35 -182h-211l35 182h-176l35 172h174l22 125h-174z" />
    <glyph glyph-name="periodcentered" unicode="&#xb7;" horiz-adv-x="616" vert-adv-y="2457" 
d="M351 858q73 0 123 -49.5t50 -122.5q0 -87 -61.5 -147t-149.5 -60q-73 0 -121.5 48.5t-48.5 120.5q0 87 61 148.5t147 61.5z" />
    <glyph glyph-name="quotesinglbase" unicode="&#x201a;" horiz-adv-x="553" vert-adv-y="2457" 
d="M-32 -260l27 127q140 25 176 131q-61 9 -96 48t-35 99q0 71 50 118.5t124 47.5q75 0 119.5 -49.5t44.5 -132.5q0 -157 -103 -264q-57 -59 -127.5 -88t-179.5 -37z" />
    <glyph glyph-name="quotedblbase" unicode="&#x201e;" horiz-adv-x="1008" vert-adv-y="2457" 
d="M-32 -260l27 127q140 25 176 131q-61 9 -96 48t-35 99q0 71 50 118.5t124 47.5q75 0 119.5 -49.5t44.5 -132.5q0 -157 -103 -264q-57 -59 -127.5 -88t-179.5 -37zM414 -260l27 127q141 25 176 131q-61 9 -96 48t-35 98q0 71 50.5 119t124.5 48t118.5 -49.5t44.5 -132.5
q0 -157 -103 -264q-57 -59 -127.5 -88t-179.5 -37z" />
    <glyph glyph-name="perthousand" unicode="&#x2030;" horiz-adv-x="2873" vert-adv-y="2457" 
d="M611 1480q150 0 245 -95q97 -98 97 -267q0 -214 -120.5 -354t-306.5 -140q-163 0 -260 107q-87 96 -87 255q0 198 115 341q123 153 317 153zM592 1279q-76 0 -120 -77q-47 -83 -47 -211q0 -164 117 -164q76 0 120 81q49 87 49 209q0 162 -119 162zM1553 836
q150 0 244 -95q98 -98 98 -267q0 -214 -120.5 -354t-306.5 -140q-164 0 -259 107q-86 96 -86 255q0 199 115 342q122 152 315 152zM1534 635q-76 0 -120 -77q-47 -83 -47 -212q0 -163 117 -163q75 0 120 80q49 89 49 210q0 162 -119 162zM2400 836q152 0 247 -95
q96 -98 96 -266q0 -214 -121 -354.5t-306 -140.5q-164 0 -259 107q-86 96 -86 255q0 199 115 342q121 152 314 152zM2383 635q-77 0 -121 -79q-47 -84 -47 -210q0 -163 115 -163q76 0 120 79q49 89 49 211q0 162 -116 162zM427 0l1005 1464h222l-1006 -1464h-221z" />
    <glyph glyph-name="Acircumflex" unicode="&#xc2;" horiz-adv-x="1422" vert-adv-y="2457" 
d="M931 279h-553l-141 -279h-317l791 1464h369l213 -1464h-328zM903 512l-78 649l-329 -649h407zM560 1587l283 348h227l152 -348h-205l-95 145l-151 -145h-211z" />
    <glyph glyph-name="Ecircumflex" unicode="&#xca;" horiz-adv-x="1253" vert-adv-y="2457" 
d="M60 0l285 1464h964l-47 -250h-651l-68 -350h488l-47 -238h-488l-71 -376h682l-48 -250h-999zM500 1587l283 348h227l152 -348h-205l-95 145l-151 -145h-211z" />
    <glyph glyph-name="Aacute" unicode="&#xc1;" horiz-adv-x="1422" vert-adv-y="2457" 
d="M931 279h-553l-141 -279h-317l791 1464h369l213 -1464h-328zM903 512l-78 649l-329 -649h407zM803 1579l139 356h355l-275 -356h-219z" />
    <glyph glyph-name="Edieresis" unicode="&#xcb;" horiz-adv-x="1253" vert-adv-y="2457" 
d="M60 0l285 1464h964l-47 -250h-651l-68 -350h488l-47 -238h-488l-71 -376h682l-48 -250h-999zM644 1890q62 0 102.5 -39.5t40.5 -100.5q0 -71 -50.5 -122t-121.5 -51q-61 0 -101.5 40.5t-40.5 102.5q0 69 51 119.5t120 50.5zM1068 1890q61 0 101 -40t40 -100
q0 -71 -50.5 -122t-121.5 -51q-60 0 -99 40t-39 102q0 70 50 120.5t119 50.5z" />
    <glyph glyph-name="Egrave" unicode="&#xc8;" horiz-adv-x="1253" vert-adv-y="2457" 
d="M60 0l285 1464h964l-47 -250h-651l-68 -350h488l-47 -238h-488l-71 -376h682l-48 -250h-999zM790 1579l-178 356h332l55 -356h-209z" />
    <glyph glyph-name="Iacute" unicode="&#xcd;" horiz-adv-x="670" vert-adv-y="2457" 
d="M71 0l285 1464h319l-285 -1464h-319zM421 1579l139 356h355l-275 -356h-219z" />
    <glyph glyph-name="Icircumflex" unicode="&#xce;" horiz-adv-x="670" vert-adv-y="2457" 
d="M71 0l285 1464h319l-285 -1464h-319zM197 1587l283 348h227l152 -348h-205l-95 145l-151 -145h-211z" />
    <glyph glyph-name="Idieresis" unicode="&#xcf;" horiz-adv-x="670" vert-adv-y="2457" 
d="M71 0l285 1464h319l-285 -1464h-319zM347 1890q61 0 101.5 -39.5t40.5 -100.5q0 -71 -50.5 -122t-121.5 -51q-60 0 -100.5 40.5t-40.5 102.5q0 69 51 119.5t120 50.5zM770 1890q61 0 101 -39.5t40 -100.5q0 -71 -50.5 -122t-120.5 -51q-60 0 -99 40t-39 102
q0 70 50 120.5t118 50.5z" />
    <glyph glyph-name="Igrave" unicode="&#xcc;" horiz-adv-x="670" vert-adv-y="2457" 
d="M71 0l285 1464h319l-285 -1464h-319zM451 1579l-178 356h332l55 -356h-209z" />
    <glyph glyph-name="Oacute" unicode="&#xd3;" horiz-adv-x="1554" vert-adv-y="2457" 
d="M879 1487q305 0 476 -196q150 -171 150 -452q0 -273 -129 -494q-102 -177 -267 -273q-164 -95 -373 -95q-271 0 -437 167q-172 173 -172 478q0 211 76 400q88 216 274 345q172 120 402 120zM882 1235q-182 0 -295 -162q-60 -86 -94 -211t-34 -259q0 -181 77.5 -277.5
t224.5 -96.5q131 0 230 95q90 87 139 243q43 137 43 293q0 214 -100 307q-73 68 -191 68zM791 1579l139 356h355l-275 -356h-219z" />
    <glyph glyph-name="Ocircumflex" unicode="&#xd4;" horiz-adv-x="1554" vert-adv-y="2457" 
d="M879 1487q305 0 476 -196q150 -171 150 -452q0 -273 -129 -494q-102 -177 -267 -273q-164 -95 -373 -95q-271 0 -437 167q-172 173 -172 478q0 211 76 400q88 216 274 345q172 120 402 120zM882 1235q-182 0 -295 -162q-60 -86 -94 -211t-34 -259q0 -181 77.5 -277.5
t224.5 -96.5q131 0 230 95q90 87 139 243q43 137 43 293q0 214 -100 307q-73 68 -191 68zM608 1587l283 348h227l152 -348h-205l-95 145l-151 -145h-211z" />
    <glyph glyph-name="glyph210" horiz-adv-x="616" vert-adv-y="2457" 
 />
    <glyph glyph-name="Ograve" unicode="&#xd2;" horiz-adv-x="1554" vert-adv-y="2457" 
d="M879 1487q305 0 476 -196q150 -171 150 -452q0 -273 -129 -494q-102 -177 -267 -273q-164 -95 -373 -95q-271 0 -437 167q-172 173 -172 478q0 211 76 400q88 216 274 345q172 120 402 120zM882 1235q-182 0 -295 -162q-60 -86 -94 -211t-34 -259q0 -181 77.5 -277.5
t224.5 -96.5q131 0 230 95q90 87 139 243q43 137 43 293q0 214 -100 307q-73 68 -191 68zM875 1579l-178 356h332l55 -356h-209z" />
    <glyph glyph-name="Uacute" unicode="&#xda;" horiz-adv-x="1481" vert-adv-y="2457" 
d="M1509 1464l-177 -916q-48 -247 -144 -372q-151 -199 -489 -199q-295 0 -435 155q-109 120 -109 321q0 79 18 174l164 837h322l-166 -848q-16 -81 -16 -154q0 -229 235 -229q87 0 144.5 30.5t95.5 96.5q41 70 66 198l175 906h316zM821 1579l139 356h355l-275 -356h-219z
" />
    <glyph glyph-name="Ucircumflex" unicode="&#xdb;" horiz-adv-x="1481" vert-adv-y="2457" 
d="M1509 1464l-177 -916q-48 -247 -144 -372q-151 -199 -489 -199q-295 0 -435 155q-109 120 -109 321q0 79 18 174l164 837h322l-166 -848q-16 -81 -16 -154q0 -229 235 -229q87 0 144.5 30.5t95.5 96.5q41 70 66 198l175 906h316zM614 1587l283 348h227l152 -348h-205
l-95 145l-151 -145h-211z" />
    <glyph glyph-name="Ugrave" unicode="&#xd9;" horiz-adv-x="1481" vert-adv-y="2457" 
d="M1509 1464l-177 -916q-48 -247 -144 -372q-151 -199 -489 -199q-295 0 -435 155q-109 120 -109 321q0 79 18 174l164 837h322l-166 -848q-16 -81 -16 -154q0 -229 235 -229q87 0 144.5 30.5t95.5 96.5q41 70 66 198l175 906h316zM875 1579l-178 356h332l55 -356h-209z
" />
    <glyph glyph-name="dotlessi" unicode="&#x131;" horiz-adv-x="600" vert-adv-y="2457" 
d="M46 0l209 1071h303l-209 -1071h-303z" />
    <glyph glyph-name="circumflex" unicode="&#x2c6;" vert-adv-y="2457" 
d="M311 1202l281 340h227l154 -340h-205l-95 145l-151 -145h-211z" />
    <glyph glyph-name="tilde" unicode="&#x2dc;" vert-adv-y="2457" 
d="M1046 1524q-61 -291 -255 -291q-69 0 -157 55q-51 33 -79 33q-52 0 -78 -84l-168 12q27 122 69 185q69 106 181 106q65 0 151 -53q57 -35 86 -35q46 0 74 84z" />
    <glyph glyph-name="macron" unicode="&#xaf;" vert-adv-y="2457" 
d="M399 1290l41 207h516l-39 -207h-518z" />
    <glyph glyph-name="breve" unicode="&#x2d8;" vert-adv-y="2457" 
d="M387 1530h201q-1 -72 23.5 -102.5t82.5 -30.5q109 0 124 133h200q-14 -126 -57 -197q-81 -132 -267 -132q-188 0 -264 122q-42 69 -43 207z" />
    <glyph glyph-name="dotaccent" unicode="&#x2d9;" vert-adv-y="2457" 
d="M691 1546q61 0 101.5 -39.5t40.5 -100.5q0 -71 -50.5 -122t-120.5 -51q-61 0 -100.5 40.5t-39.5 102.5q0 69 50 119.5t119 50.5z" />
    <glyph glyph-name="ring" unicode="&#x2da;" vert-adv-y="2457" 
d="M696 1611q92 0 150.5 -57.5t58.5 -147.5q0 -101 -70.5 -170t-174.5 -69q-92 0 -151 57.5t-59 146.5q0 99 69 168q71 72 177 72zM687 1494q-41 0 -68.5 -33.5t-27.5 -84.5q0 -41 21 -65.5t56 -24.5q42 0 70 33.5t28 83.5q0 41 -21.5 66t-57.5 25z" />
    <glyph glyph-name="cedilla" unicode="&#xb8;" vert-adv-y="2457" 
d="M414 -109q25 4 37 4q62 0 102.5 -43.5t40.5 -111.5q0 -91 -61 -145t-166 -54q-152 0 -217 115l125 59q30 -51 88 -51q34 0 55.5 19.5t21.5 51.5q0 28 -17 45t-45 17q-36 0 -64 -33l-78 60l143 176h131z" />
    <glyph glyph-name="hungarumlaut" unicode="&#x2dd;" vert-adv-y="2457" 
d="M714 1186l121 356h295l-209 -356h-207zM331 1186l123 356h295l-211 -356h-207z" />
    <glyph glyph-name="ogonek" unicode="&#x2db;" vert-adv-y="2457" 
d="M583 -352q-79 -70 -187 -70q-95 0 -148.5 43.5t-53.5 120.5q0 76 51 143t146 115h155q-176 -118 -176 -227q0 -58 65 -58q42 0 85 37z" />
    <glyph glyph-name="caron" unicode="&#x2c7;" vert-adv-y="2457" 
d="M530 1202l-153 340h205l94 -145l152 145h211l-281 -340h-228z" />
    <glyph glyph-name="nonbreakingspace" unicode="&#xa0;" horiz-adv-x="616" vert-adv-y="2457" 
 />
    <glyph glyph-name="currency" unicode="&#xa4;" horiz-adv-x="1233" vert-adv-y="2457" 
d="M231 948q49 164 133 280q187 259 496 259q206 0 319 -114q53 -54 81.5 -122.5t47.5 -189.5l-295 -68q-14 113 -38 160q-40 80 -138 80q-180 0 -277 -285h307l-28 -150h-316q-12 -77 -16 -147h303l-29 -150h-273q21 -262 206 -262q82 0 136 55.5t104 192.5l274 -88
q-41 -109 -79.5 -171.5t-96.5 -116.5q-143 -134 -355 -134q-225 0 -359 138.5t-150 385.5h-152l29 150h122q5 91 13 147h-127l29 150h129z" />
    <glyph glyph-name="brokenbar" unicode="&#xa6;" horiz-adv-x="592" vert-adv-y="2457" 
d="M70 0l114 588h244l-114 -588h-244zM240 877l115 587h243l-114 -587h-244z" />
    <glyph glyph-name="uni00AD" unicode="&#xad;" horiz-adv-x="616" vert-adv-y="2457" 
d="M67 527l53 276h476l-53 -276h-476z" />
    <glyph glyph-name="twosuperior" unicode="&#xb2;" horiz-adv-x="924" vert-adv-y="2457" 
d="M120 883l40 205q270 126 390 226.5t120 199.5q0 67 -65 67q-77 0 -123 -110l-243 60q105 273 407 273q151 0 237 -66q93 -71 93 -197q0 -135 -106.5 -247.5t-313.5 -194.5h338l-42 -216h-732z" />
    <glyph glyph-name="threesuperior" unicode="&#xb3;" horiz-adv-x="924" vert-adv-y="2457" 
d="M800 1356q133 -48 133 -184q0 -75 -45.5 -143t-122.5 -108q-104 -54 -253 -54q-215 0 -312 95q-35 35 -49.5 72t-17.5 99l255 58q8 -114 119 -114q57 0 92.5 30.5t35.5 79.5q0 63 -93 63h-73l35 178h73q59 0 94 28t35 75q0 64 -85 64q-101 0 -159 -104l-218 61
q37 88 110 152q113 100 303 100q166 0 260 -74q75 -59 75 -159q0 -157 -192 -215z" />
    <glyph glyph-name="onesuperior" unicode="&#xb9;" horiz-adv-x="924" vert-adv-y="2457" 
d="M198 883l39 198h164l72 369q-60 -21 -174 -25l38 194q178 21 240 169h239l-138 -707h151l-38 -198h-593z" />
    <glyph glyph-name="onequarter" unicode="&#xbc;" horiz-adv-x="1884" vert-adv-y="2457" 
d="M180 641l35 180h149l66 336q-56 -19 -158 -23l34 176q162 19 218 154h217l-125 -643h138l-35 -180h-539zM367 0l1005 1464h221l-1005 -1464h-221zM1330 0l27 139h-391l38 196l478 488h273l-98 -504h106l-35 -180h-106l-28 -139h-264zM1460 595l-268 -284h213z" />
    <glyph glyph-name="onehalf" unicode="&#xbd;" horiz-adv-x="1884" vert-adv-y="2457" 
d="M180 641l35 180h149l66 336q-56 -19 -158 -23l34 176q162 19 218 154h217l-125 -643h138l-35 -180h-539zM367 0l1005 1464h221l-1005 -1464h-221zM1029 0l36 187q246 115 355 206t109 181q0 61 -59 61q-69 0 -112 -100l-220 55q92 248 369 248q137 0 216 -60
q84 -64 84 -179q0 -123 -97 -225t-284 -177h307l-38 -197h-666z" />
    <glyph glyph-name="threequarters" unicode="&#xbe;" horiz-adv-x="1884" vert-adv-y="2457" 
d="M728 1071q121 -43 121 -167q0 -123 -107.5 -200.5t-275.5 -77.5q-196 0 -284 87q-32 32 -45.5 65.5t-15.5 89.5l232 53q8 -105 109 -105q52 0 84 28t32 73q0 58 -85 58h-67l32 161h66q54 0 86 25.5t32 68.5q0 58 -77 58q-93 0 -145 -94l-198 55q96 229 376 229
q150 0 236 -67q68 -54 68 -145q0 -142 -174 -195zM376 0l1005 1464h222l-1006 -1464h-221zM1303 0l27 139h-391l38 196l478 488h273l-98 -504h106l-35 -180h-106l-27 -139h-265zM1433 595l-268 -284h213z" />
    <glyph glyph-name="Eth" unicode="&#xd0;" horiz-adv-x="1495" vert-adv-y="2457" 
d="M54 608l47 240h131l121 616h510q289 0 442 -169q138 -152 138 -432q0 -236 -84 -430q-111 -255 -357 -363q-161 -70 -370 -70h-564l117 608h-131zM437 258h215q254 0 370 202q91 160 91 402q0 196 -90 278q-73 66 -205 66h-195l-71 -358h247l-47 -240h-247z" />
    <glyph glyph-name="multiply" unicode="&#xd7;" horiz-adv-x="1147" vert-adv-y="2457" 
d="M284 212l-172 169l319 329l-319 329l171 170l318 -328l315 328l174 -170l-319 -329l319 -329l-174 -169l-315 325z" />
    <glyph glyph-name="Yacute" unicode="&#xdd;" horiz-adv-x="1325" vert-adv-y="2457" 
d="M406 0l119 612l-309 852h336l192 -575l394 575h331l-628 -868l-115 -596h-320zM754 1579l139 356h355l-275 -356h-219z" />
    <glyph glyph-name="Thorn" unicode="&#xde;" horiz-adv-x="1335" vert-adv-y="2457" 
d="M60 0l285 1464h319l-47 -243h225q243 0 367 -135q94 -102 94 -272q0 -240 -157 -380q-157 -139 -429 -139h-282l-56 -295h-319zM482 533h237q147 0 217 77q58 64 58 177q0 91 -49.5 139.5t-143.5 48.5h-233z" />
    <glyph glyph-name="eth" unicode="&#xf0;" horiz-adv-x="1192" vert-adv-y="2457" 
d="M479 1110l-78 123l145 102q-66 56 -108 92l145 181q84 -50 176 -119l162 114l76 -122l-127 -91q115 -122 174 -242q90 -181 90 -411q0 -290 -116 -493q-152 -267 -473 -267q-234 0 -364 144q-114 125 -114 332q0 245 139 418q54 66 120 110q117 76 253 76q144 0 236 -101
q-49 142 -164 277zM636 842q-125 0 -196 -125q-66 -118 -66 -280q0 -229 182 -229q121 0 187 120q67 121 67 287q0 227 -174 227z" />
    <glyph glyph-name="yacute" unicode="&#xfd;" horiz-adv-x="1112" vert-adv-y="2457" 
d="M1191 1071l-649 -1178q-83 -151 -179 -216.5t-233 -65.5t-233 71l115 209q52 -40 118 -40q55 0 92.5 30t71.5 102l21 43l-187 1045h316l96 -678l344 678h307zM557 1202l136 340h354l-271 -340h-219z" />
    <glyph glyph-name="thorn" unicode="&#xfe;" horiz-adv-x="1253" vert-adv-y="2457" 
d="M-32 -373l371 1915h303l-123 -645q134 201 332 201q146 0 234 -101q100 -114 100 -334q0 -147 -42 -281t-119 -230q-140 -175 -353 -175q-215 0 -293 199l-107 -549h-303zM704 867q-128 0 -204 -135q-73 -130 -73 -299q0 -220 183 -220q122 0 190 121q70 126 70 302
q0 231 -166 231z" />
    <glyph glyph-name="Amacron" unicode="&#x100;" horiz-adv-x="1422" vert-adv-y="2457" 
d="M931 279h-553l-141 -279h-317l791 1464h369l213 -1464h-328zM903 512l-78 649l-329 -649h407zM645 1626l41 207h516l-39 -207h-518z" />
    <glyph glyph-name="amacron" unicode="&#x101;" horiz-adv-x="1111" vert-adv-y="2457" 
d="M606 129q-110 -152 -282 -152q-118 0 -199 64q-101 81 -101 226q0 288 374 351q116 19 296 25l4 23q5 28 5 54q0 130 -146 130t-293 -90l-107 209q93 59 172 86q125 43 280 43q400 0 400 -325q0 -57 -16 -139l-84 -433q-13 -66 -13 -106q0 -48 13 -83v-12h-295
q-10 53 -10 95q0 13 2 34zM659 465q-128 -5 -194 -22q-134 -32 -134 -147q0 -102 111 -102q75 0 129.5 47.5t68.5 125.5zM394 1290l41 207h516l-39 -207h-518z" />
    <glyph glyph-name="Abreve" unicode="&#x102;" horiz-adv-x="1422" vert-adv-y="2457" 
d="M931 279h-553l-141 -279h-317l791 1464h369l213 -1464h-328zM903 512l-78 649l-329 -649h407zM1230 1882q-22 -106 -67 -169q-97 -132 -271 -132q-141 0 -220 90q-37 42 -51.5 88t-14.5 123h198q3 -106 103 -106q96 0 125 106h198z" />
    <glyph glyph-name="abreve" unicode="&#x103;" horiz-adv-x="1111" vert-adv-y="2457" 
d="M606 129q-110 -152 -282 -152q-118 0 -199 64q-101 81 -101 226q0 288 374 351q116 19 296 25l4 23q5 28 5 54q0 130 -146 130t-293 -90l-107 209q93 59 172 86q125 43 280 43q400 0 400 -325q0 -57 -16 -139l-84 -433q-13 -66 -13 -106q0 -48 13 -83v-12h-295
q-10 53 -10 95q0 13 2 34zM659 465q-128 -5 -194 -22q-134 -32 -134 -147q0 -102 111 -102q75 0 129.5 47.5t68.5 125.5zM1000 1530q-22 -107 -68 -170q-96 -132 -270 -132q-142 0 -220 90q-37 42 -51.5 88.5t-15.5 123.5h199q4 -107 102 -107t125 107h199z" />
    <glyph glyph-name="Aogonek" unicode="&#x104;" horiz-adv-x="1422" vert-adv-y="2457" 
d="M1293 0q-177 -118 -177 -227q0 -58 65 -58q42 0 85 37l63 -104q-79 -70 -187 -70q-95 0 -148.5 43.5t-53.5 120.5q0 76 51 143t146 115h-172l-34 279h-553l-141 -279h-317l791 1464h369zM903 512l-78 649l-329 -649h407z" />
    <glyph glyph-name="aogonek" unicode="&#x105;" horiz-adv-x="1111" vert-adv-y="2457" 
d="M909 0q-177 -118 -177 -227q0 -58 65 -58q43 0 85 37l64 -104q-79 -70 -188 -70q-95 0 -148.5 43.5t-53.5 120.5q0 76 51.5 143t145.5 115h-139q-10 53 -10 95q0 13 2 34q-110 -152 -282 -152q-118 0 -199 64q-101 81 -101 226q0 288 374 351q116 19 296 25l4 23
q5 28 5 54q0 130 -146 130t-293 -90l-107 209q93 59 172 86q125 43 280 43q400 0 400 -325q0 -57 -16 -139l-84 -433q-13 -66 -13 -106q0 -48 13 -83v-12zM659 465q-128 -5 -194 -22q-134 -32 -134 -147q0 -102 111 -102q75 0 129.5 47.5t68.5 125.5z" />
    <glyph glyph-name="Cacute" unicode="&#x106;" horiz-adv-x="1423" vert-adv-y="2457" 
d="M1334 383q-95 -204 -236 -299q-156 -107 -378 -107q-285 0 -443 177q-149 167 -149 459q0 179 52 339.5t148 278.5q207 256 549 256q223 0 363 -111t182 -322l-293 -96q-18 97 -48 153q-66 120 -214 120q-193 0 -301 -194q-106 -190 -106 -441q0 -359 281 -359
q219 0 325 267zM768 1579l139 356h355l-275 -356h-219z" />
    <glyph glyph-name="cacute" unicode="&#x107;" horiz-adv-x="1102" vert-adv-y="2457" 
d="M999 258q-66 -117 -144 -179q-128 -102 -315 -102q-226 0 -353 141q-110 122 -110 331q0 148 48 277t136 217q155 155 391 155q160 0 262 -73.5t158 -230.5l-260 -96q-30 92 -67 127t-103 35q-126 0 -194 -120q-68 -121 -68 -299q0 -237 175 -237q71 0 120.5 39t97.5 132
zM552 1202l136 340h354l-271 -340h-219z" />
    <glyph glyph-name="Ccircumflex" unicode="&#x108;" horiz-adv-x="1423" vert-adv-y="2457" 
d="M1334 383q-95 -204 -236 -299q-156 -107 -378 -107q-285 0 -443 177q-149 167 -149 459q0 179 52 339.5t148 278.5q207 256 549 256q223 0 363 -111t182 -322l-293 -96q-18 97 -48 153q-66 120 -214 120q-193 0 -301 -194q-106 -190 -106 -441q0 -359 281 -359
q219 0 325 267zM573 1587l283 348h227l152 -348h-205l-95 145l-151 -145h-211z" />
    <glyph glyph-name="ccircumflex" unicode="&#x109;" horiz-adv-x="1102" vert-adv-y="2457" 
d="M999 258q-66 -117 -144 -179q-128 -102 -315 -102q-226 0 -353 141q-110 122 -110 331q0 148 48 277t136 217q155 155 391 155q160 0 262 -73.5t158 -230.5l-260 -96q-30 92 -67 127t-103 35q-126 0 -194 -120q-68 -121 -68 -299q0 -237 175 -237q71 0 120.5 39t97.5 132
zM350 1202l281 340h227l154 -340h-205l-95 145l-151 -145h-211z" />
    <glyph glyph-name="Cdotaccent" unicode="&#x10a;" horiz-adv-x="1423" vert-adv-y="2457" 
d="M1334 383q-95 -204 -236 -299q-156 -107 -378 -107q-285 0 -443 177q-149 167 -149 459q0 179 52 339.5t148 278.5q207 256 549 256q223 0 363 -111t182 -322l-293 -96q-18 97 -48 153q-66 120 -214 120q-193 0 -301 -194q-106 -190 -106 -441q0 -359 281 -359
q219 0 325 267zM946 1890q61 0 101.5 -39.5t40.5 -100.5q0 -71 -50.5 -122t-120.5 -51q-61 0 -100.5 40.5t-39.5 102.5q0 69 50 119.5t119 50.5z" />
    <glyph glyph-name="cdotaccent" unicode="&#x10b;" horiz-adv-x="1102" vert-adv-y="2457" 
d="M999 258q-66 -117 -144 -179q-128 -102 -315 -102q-226 0 -353 141q-110 122 -110 331q0 148 48 277t136 217q155 155 391 155q160 0 262 -73.5t158 -230.5l-260 -96q-30 92 -67 127t-103 35q-126 0 -194 -120q-68 -121 -68 -299q0 -237 175 -237q71 0 120.5 39t97.5 132
zM718 1546q61 0 101.5 -39.5t40.5 -100.5q0 -71 -50.5 -122t-120.5 -51q-61 0 -100.5 40.5t-39.5 102.5q0 69 50 119.5t119 50.5z" />
    <glyph glyph-name="Ccaron" unicode="&#x10c;" horiz-adv-x="1423" vert-adv-y="2457" 
d="M1334 383q-95 -204 -236 -299q-156 -107 -378 -107q-285 0 -443 177q-149 167 -149 459q0 179 52 339.5t148 278.5q207 256 549 256q223 0 363 -111t182 -322l-293 -96q-18 97 -48 153q-66 120 -214 120q-193 0 -301 -194q-106 -190 -106 -441q0 -359 281 -359
q219 0 325 267zM781 1587l-152 348h205l94 -145l152 145h211l-283 -348h-227z" />
    <glyph glyph-name="ccaron" unicode="&#x10d;" horiz-adv-x="1102" vert-adv-y="2457" 
d="M999 258q-66 -117 -144 -179q-128 -102 -315 -102q-226 0 -353 141q-110 122 -110 331q0 148 48 277t136 217q155 155 391 155q160 0 262 -73.5t158 -230.5l-260 -96q-30 92 -67 127t-103 35q-126 0 -194 -120q-68 -121 -68 -299q0 -237 175 -237q71 0 120.5 39t97.5 132
zM557 1202l-153 340h205l94 -145l152 145h211l-281 -340h-228z" />
    <glyph glyph-name="Dcaron" unicode="&#x10e;" horiz-adv-x="1487" vert-adv-y="2457" 
d="M60 0l285 1464h510q203 0 339 -84q240 -147 240 -515q0 -293 -124 -512q-139 -243 -426 -321q-119 -32 -300 -32h-524zM429 258h176q146 0 230 38q143 64 211 234q58 145 58 331q0 223 -117 300q-68 45 -177 45h-195zM715 1587l-152 348h205l94 -145l152 145h211
l-283 -348h-227z" />
    <glyph glyph-name="dcaron" unicode="&#x10f;" horiz-adv-x="1454" vert-adv-y="2457" 
d="M747 168q-71 -101 -146.5 -146t-175.5 -45q-151 0 -243 105q-101 116 -101 333q0 147 42 281t117 228q138 174 345 174q107 0 184.5 -51t118.5 -148l125 643h303l-299 -1542h-303zM662 869q-126 0 -195 -123t-69 -296q0 -237 171 -237q123 0 197 134q73 132 73 301
q0 221 -177 221zM1325 1083l25 108q132 23 153 105q-53 6 -85 40t-32 86q0 58 41.5 97t104.5 39q65 0 105 -44.5t40 -117.5q0 -138 -94 -224q-48 -44 -105.5 -64t-152.5 -25z" />
    <glyph glyph-name="Dcroat" unicode="&#x110;" horiz-adv-x="1495" vert-adv-y="2457" 
d="M54 608l47 240h131l121 616h510q289 0 442 -169q138 -152 138 -432q0 -236 -84 -430q-111 -255 -357 -363q-161 -70 -370 -70h-564l117 608h-131zM437 258h215q254 0 370 202q91 160 91 402q0 196 -90 278q-73 66 -205 66h-195l-71 -358h247l-47 -240h-247z" />
    <glyph glyph-name="dcroat" unicode="&#x111;" horiz-adv-x="1263" vert-adv-y="2457" 
d="M982 1382l31 160h303l-31 -160h135l-36 -197h-137l-230 -1185h-303l33 168q-71 -101 -146.5 -146t-175.5 -45q-150 0 -243 105q-101 115 -101 333q0 146 42 280t117 229q138 173 345 173q107 0 184.5 -50.5t118.5 -147.5l56 286h-222l37 197h223zM662 868
q-126 0 -195 -123t-69 -296q0 -236 171 -236q123 0 197 134q73 132 73 300q0 221 -177 221z" />
    <glyph glyph-name="Emacron" unicode="&#x112;" horiz-adv-x="1253" vert-adv-y="2457" 
d="M60 0l285 1464h964l-47 -250h-651l-68 -350h488l-47 -238h-488l-71 -376h682l-48 -250h-999zM579 1626l41 207h516l-39 -207h-518z" />
    <glyph glyph-name="emacron" unicode="&#x113;" horiz-adv-x="1131" vert-adv-y="2457" 
d="M990 176q-93 -104 -201 -151.5t-253 -47.5q-230 0 -350 133q-105 116 -105 320q0 145 49 273t140 220q172 175 426 175q139 0 235 -56q147 -84 147 -259q0 -255 -357 -323q-118 -23 -339 -28v-20q0 -208 174 -208q73 0 128.5 27.5t123.5 98.5zM405 614q207 0 297.5 34.5
t90.5 114.5q0 51 -33.5 80.5t-91.5 29.5q-190 0 -263 -259zM453 1290l41 207h516l-39 -207h-518z" />
    <glyph glyph-name="Ebreve" unicode="&#x114;" horiz-adv-x="1253" vert-adv-y="2457" 
d="M60 0l285 1464h964l-47 -250h-651l-68 -350h488l-47 -238h-488l-71 -376h682l-48 -250h-999zM1188 1882q-22 -106 -68 -169q-96 -132 -270 -132q-142 0 -220 90q-37 42 -51.5 88t-15.5 123h199q3 -106 102 -106q97 0 125 106h199z" />
    <glyph glyph-name="ebreve" unicode="&#x115;" horiz-adv-x="1131" vert-adv-y="2457" 
d="M990 176q-93 -104 -201 -151.5t-253 -47.5q-230 0 -350 133q-105 116 -105 320q0 145 49 273t140 220q172 175 426 175q139 0 235 -56q147 -84 147 -259q0 -255 -357 -323q-118 -23 -339 -28v-20q0 -208 174 -208q73 0 128.5 27.5t123.5 98.5zM405 614q207 0 297.5 34.5
t90.5 114.5q0 51 -33.5 80.5t-91.5 29.5q-190 0 -263 -259zM455 1530h201q-1 -72 23.5 -102.5t82.5 -30.5q109 0 124 133h200q-14 -126 -57 -197q-81 -132 -267 -132q-188 0 -264 122q-42 69 -43 207z" />
    <glyph glyph-name="Edotaccent" unicode="&#x116;" horiz-adv-x="1253" vert-adv-y="2457" 
d="M60 0l285 1464h964l-47 -250h-651l-68 -350h488l-47 -238h-488l-71 -376h682l-48 -250h-999zM891 1890q61 0 101.5 -39.5t40.5 -100.5q0 -71 -50.5 -122t-120.5 -51q-61 0 -100.5 40.5t-39.5 102.5q0 69 50 119.5t119 50.5z" />
    <glyph glyph-name="edotaccent" unicode="&#x117;" horiz-adv-x="1131" vert-adv-y="2457" 
d="M990 176q-93 -104 -201 -151.5t-253 -47.5q-230 0 -350 133q-105 116 -105 320q0 145 49 273t140 220q172 175 426 175q139 0 235 -56q147 -84 147 -259q0 -255 -357 -323q-118 -23 -339 -28v-20q0 -208 174 -208q73 0 128.5 27.5t123.5 98.5zM405 614q207 0 297.5 34.5
t90.5 114.5q0 51 -33.5 80.5t-91.5 29.5q-190 0 -263 -259zM733 1546q61 0 101.5 -39.5t40.5 -100.5q0 -71 -50.5 -122t-120.5 -51q-61 0 -100.5 40.5t-39.5 102.5q0 69 50 119.5t119 50.5z" />
    <glyph glyph-name="Eogonek" unicode="&#x118;" horiz-adv-x="1253" vert-adv-y="2457" 
d="M1059 0q-176 -118 -176 -227q0 -58 65 -58q42 0 85 37l63 -104q-79 -70 -187 -70q-95 0 -148.5 43.5t-53.5 120.5q0 76 51 143t146 115h-844l285 1464h964l-47 -250h-651l-68 -350h488l-47 -238h-488l-71 -376h682z" />
    <glyph glyph-name="eogonek" unicode="&#x119;" horiz-adv-x="1131" vert-adv-y="2457" 
d="M622 -18q-71 -49 -111 -104.5t-40 -104.5q0 -58 65 -58q43 0 85 37l64 -104q-79 -70 -188 -70q-95 0 -148.5 43.5t-53.5 120.5q0 132 163 240q-117 17 -185 57q-192 113 -192 391q0 145 49 273t140 220q172 175 426 175q139 0 235 -56q147 -84 147 -259q0 -255 -357 -323
q-118 -23 -339 -28v-20q0 -207 174 -207q74 0 128 26.5t124 98.5l182 -154q-144 -168 -368 -194zM405 614q207 0 297.5 34.5t90.5 114.5q0 51 -33.5 80.5t-91.5 29.5q-190 0 -263 -259z" />
    <glyph glyph-name="Ecaron" unicode="&#x11a;" horiz-adv-x="1253" vert-adv-y="2457" 
d="M60 0l285 1464h964l-47 -250h-651l-68 -350h488l-47 -238h-488l-71 -376h682l-48 -250h-999zM737 1587l-152 348h205l94 -145l152 145h211l-283 -348h-227z" />
    <glyph glyph-name="ecaron" unicode="&#x11b;" horiz-adv-x="1131" vert-adv-y="2457" 
d="M990 176q-93 -104 -201 -151.5t-253 -47.5q-230 0 -350 133q-105 116 -105 320q0 145 49 273t140 220q172 175 426 175q139 0 235 -56q147 -84 147 -259q0 -255 -357 -323q-118 -23 -339 -28v-20q0 -208 174 -208q73 0 128.5 27.5t123.5 98.5zM405 614q207 0 297.5 34.5
t90.5 114.5q0 51 -33.5 80.5t-91.5 29.5q-190 0 -263 -259zM583 1202l-153 340h205l94 -145l152 145h211l-281 -340h-228z" />
    <glyph glyph-name="Gcircumflex" unicode="&#x11c;" horiz-adv-x="1554" vert-adv-y="2457" 
d="M1121 226q-59 -97 -142 -154q-137 -95 -313 -95q-242 0 -386 164q-150 170 -150 468q0 285 128 506q102 178 269 275q168 97 379 97q282 0 433 -170q42 -49 66.5 -99t51.5 -145l-303 -98q-22 99 -54 152q-66 110 -213 110q-211 0 -326 -206q-101 -181 -101 -427
q0 -381 291 -381q145 0 240 89q94 89 116 231l4 27h-285l45 227h594l-153 -797h-170zM608 1587l283 348h227l152 -348h-205l-95 145l-151 -145h-211z" />
    <glyph glyph-name="gcircumflex" unicode="&#x11d;" horiz-adv-x="1145" vert-adv-y="2457" 
d="M372 420q-46 -39 -46 -83q0 -71 97 -71h153q153 0 230 -28q185 -68 185 -257q0 -114 -61 -201t-176 -134q-132 -55 -329 -55q-194 0 -318 53q-165 70 -165 210q0 158 225 228q-92 59 -92 155q0 141 193 238q-121 94 -121 239q0 181 154 292q126 92 306 92q155 0 277 -76
l313 69l-45 -223h-145q20 -54 20 -114q0 -147 -99 -245q-122 -122 -348 -122q-115 0 -208 33zM323 35q-100 -47 -100 -129q0 -116 216 -116q259 0 259 144q0 101 -144 101h-231zM608 913q-81 0 -131.5 -56.5t-50.5 -148.5q0 -70 39 -109.5t110 -39.5q80 0 129 58t49 152
q0 69 -38 106.5t-107 37.5zM347 1202l281 340h227l154 -340h-205l-95 145l-151 -145h-211z" />
    <glyph glyph-name="Gbreve" unicode="&#x11e;" horiz-adv-x="1554" vert-adv-y="2457" 
d="M1121 226q-59 -97 -142 -154q-137 -95 -313 -95q-242 0 -386 164q-150 170 -150 468q0 285 128 506q102 178 269 275q168 97 379 97q282 0 433 -170q42 -49 66.5 -99t51.5 -145l-303 -98q-22 99 -54 152q-66 110 -213 110q-211 0 -326 -206q-101 -181 -101 -427
q0 -381 291 -381q145 0 240 89q94 89 116 231l4 27h-285l45 227h594l-153 -797h-170zM1285 1882q-22 -106 -68 -169q-97 -132 -270 -132q-142 0 -221 90q-36 42 -50.5 88t-15.5 123h199q3 -106 102 -106q97 0 125 106h199z" />
    <glyph glyph-name="gbreve" unicode="&#x11f;" horiz-adv-x="1145" vert-adv-y="2457" 
d="M372 420q-46 -39 -46 -83q0 -71 97 -71h153q153 0 230 -28q185 -68 185 -257q0 -114 -61 -201t-176 -134q-132 -55 -329 -55q-194 0 -318 53q-165 70 -165 210q0 158 225 228q-92 59 -92 155q0 141 193 238q-121 94 -121 239q0 181 154 292q126 92 306 92q155 0 277 -76
l313 69l-45 -223h-145q20 -54 20 -114q0 -147 -99 -245q-122 -122 -348 -122q-115 0 -208 33zM323 35q-100 -47 -100 -129q0 -116 216 -116q259 0 259 144q0 101 -144 101h-231zM608 913q-81 0 -131.5 -56.5t-50.5 -148.5q0 -70 39 -109.5t110 -39.5q80 0 129 58t49 152
q0 69 -38 106.5t-107 37.5zM993 1530q-21 -107 -67 -170q-97 -132 -271 -132q-141 0 -220 90q-36 42 -51 88.5t-15 123.5h198q4 -107 103 -107q97 0 125 107h198z" />
    <glyph glyph-name="Gdotaccent" unicode="&#x120;" horiz-adv-x="1554" vert-adv-y="2457" 
d="M1121 226q-59 -97 -142 -154q-137 -95 -313 -95q-242 0 -386 164q-150 170 -150 468q0 285 128 506q102 178 269 275q168 97 379 97q282 0 433 -170q42 -49 66.5 -99t51.5 -145l-303 -98q-22 99 -54 152q-66 110 -213 110q-211 0 -326 -206q-101 -181 -101 -427
q0 -381 291 -381q145 0 240 89q94 89 116 231l4 27h-285l45 227h594l-153 -797h-170zM987 1890q61 0 101.5 -39.5t40.5 -100.5q0 -71 -50.5 -122t-120.5 -51q-61 0 -100.5 40.5t-39.5 102.5q0 69 50 119.5t119 50.5z" />
    <glyph glyph-name="gdotaccent" unicode="&#x121;" horiz-adv-x="1145" vert-adv-y="2457" 
d="M372 420q-46 -39 -46 -83q0 -71 97 -71h153q153 0 230 -28q185 -68 185 -257q0 -114 -61 -201t-176 -134q-132 -55 -329 -55q-194 0 -318 53q-165 70 -165 210q0 158 225 228q-92 59 -92 155q0 141 193 238q-121 94 -121 239q0 181 154 292q126 92 306 92q155 0 277 -76
l313 69l-45 -223h-145q20 -54 20 -114q0 -147 -99 -245q-122 -122 -348 -122q-115 0 -208 33zM323 35q-100 -47 -100 -129q0 -116 216 -116q259 0 259 144q0 101 -144 101h-231zM608 913q-81 0 -131.5 -56.5t-50.5 -148.5q0 -70 39 -109.5t110 -39.5q80 0 129 58t49 152
q0 69 -38 106.5t-107 37.5zM698 1546q61 0 101.5 -39.5t40.5 -100.5q0 -71 -50.5 -122t-120.5 -51q-61 0 -100.5 40.5t-39.5 102.5q0 69 50 119.5t119 50.5z" />
    <glyph glyph-name="Gcommaaccent" unicode="&#x122;" horiz-adv-x="1554" vert-adv-y="2457" 
d="M1121 226q-59 -97 -142 -154q-137 -95 -313 -95q-242 0 -386 164q-150 170 -150 468q0 285 128 506q102 178 269 275q168 97 379 97q282 0 433 -170q42 -49 66.5 -99t51.5 -145l-303 -98q-22 99 -54 152q-66 110 -213 110q-211 0 -326 -206q-101 -181 -101 -427
q0 -381 291 -381q145 0 240 89q94 89 116 231l4 27h-285l45 227h594l-153 -797h-170zM436 -557l25 108q132 23 153 105q-53 6 -85 40t-32 86q0 59 41.5 97.5t104.5 38.5q65 0 105 -44.5t40 -117.5q0 -138 -94 -224q-48 -44 -105.5 -63.5t-152.5 -25.5z" />
    <glyph glyph-name="gcommaaccent" unicode="&#x123;" horiz-adv-x="1145" vert-adv-y="2457" 
d="M372 420q-46 -39 -46 -83q0 -71 97 -71h153q153 0 230 -28q185 -68 185 -257q0 -114 -61 -201t-176 -134q-132 -55 -329 -55q-194 0 -318 53q-165 70 -165 210q0 158 225 228q-92 59 -92 155q0 141 193 238q-121 94 -121 239q0 181 154 292q126 92 306 92q155 0 277 -76
l313 69l-45 -223h-145q20 -54 20 -114q0 -147 -99 -245q-122 -122 -348 -122q-115 0 -208 33zM323 35q-100 -47 -100 -129q0 -116 216 -116q259 0 259 144q0 101 -144 101h-231zM608 913q-81 0 -131.5 -56.5t-50.5 -148.5q0 -70 39 -109.5t110 -39.5q80 0 129 58t49 152
q0 69 -38 106.5t-107 37.5zM730 1426q55 -7 87 -40.5t32 -83.5q0 -59 -42 -97.5t-106 -38.5t-104.5 44.5t-40.5 114.5q0 138 94 224q49 45 106.5 65t151.5 27l-24 -111q-134 -20 -154 -104z" />
    <glyph glyph-name="Hcircumflex" unicode="&#x124;" horiz-adv-x="1481" vert-adv-y="2457" 
d="M60 0l285 1464h321l-117 -598h508l117 598h322l-285 -1464h-322l121 606h-510l-118 -606h-322zM613 1587l283 348h227l152 -348h-205l-95 145l-151 -145h-211z" />
    <glyph glyph-name="hcircumflex" unicode="&#x125;" horiz-adv-x="1208" vert-adv-y="2457" 
d="M38 0l299 1542h303l-122 -637q129 193 332 193q127 0 197 -77.5t70 -217.5q0 -60 -19 -159l-122 -644h-305l121 631q12 62 12 92q0 125 -118 125q-86 0 -144.5 -63t-81.5 -181l-119 -604h-303zM200 1648l283 348h227l152 -348h-205l-95 145l-151 -145h-211z" />
    <glyph glyph-name="Hbar" unicode="&#x126;" horiz-adv-x="1475" vert-adv-y="2457" 
d="M103 1061l37 178h160l45 225h321l-45 -225h508l45 225h322l-45 -225h178l-37 -178h-176l-205 -1061h-322l121 606h-510l-118 -606h-322l205 1061h-162zM549 866h508l37 195h-508z" />
    <glyph glyph-name="hbar" unicode="&#x127;" horiz-adv-x="1206" vert-adv-y="2457" 
d="M151 1187l37 195h118l31 160h303l-31 -160h240l-37 -195h-239l-60 -306q57 92 118 140q96 76 223 76q123 0 193 -79q70 -77 70 -213q0 -62 -12 -125l-129 -680h-305l125 651q8 42 8 74q0 123 -119 123q-86 0 -144 -63t-81 -181l-119 -604h-303l229 1187h-116z" />
    <glyph glyph-name="Itilde" unicode="&#x128;" horiz-adv-x="670" vert-adv-y="2457" 
d="M71 0l285 1464h319l-285 -1464h-319zM974 1872q-61 -291 -255 -291q-68 0 -156 55q-52 33 -80 33q-52 0 -78 -84l-168 12q65 291 250 291q65 0 151 -53q56 -35 85 -35q48 0 75 84z" />
    <glyph glyph-name="itilde" unicode="&#x129;" horiz-adv-x="600" vert-adv-y="2457" 
d="M46 0l209 1071h303l-209 -1071h-303zM836 1524q-61 -291 -255 -291q-69 0 -157 55q-51 33 -79 33q-52 0 -78 -84l-168 12q27 122 69 185q69 106 181 106q65 0 151 -53q57 -35 86 -35q46 0 74 84z" />
    <glyph glyph-name="Imacron" unicode="&#x12a;" horiz-adv-x="670" vert-adv-y="2457" 
d="M71 0l285 1464h319l-285 -1464h-319zM282 1626l41 207h516l-39 -207h-518z" />
    <glyph glyph-name="imacron" unicode="&#x12b;" horiz-adv-x="600" vert-adv-y="2457" 
d="M46 0l209 1071h303l-209 -1071h-303zM169 1290l41 207h516l-39 -207h-518z" />
    <glyph glyph-name="Ibreve" unicode="&#x12c;" horiz-adv-x="670" vert-adv-y="2457" 
d="M71 0l285 1464h319l-285 -1464h-319zM210 1909h201q2 -60 16 -85q28 -48 110 -48q67 0 101 31t44 102h200q-16 -129 -61 -197q-86 -132 -284 -132q-206 0 -286 130q-40 65 -41 199z" />
    <glyph glyph-name="ibreve" unicode="&#x12d;" horiz-adv-x="600" vert-adv-y="2457" 
d="M46 0l209 1071h303l-209 -1071h-303zM805 1530q-21 -107 -67 -170q-97 -132 -271 -132q-141 0 -220 90q-37 42 -51.5 88.5t-14.5 123.5h198q4 -107 103 -107q97 0 125 107h198z" />
    <glyph glyph-name="Iogonek" unicode="&#x12e;" horiz-adv-x="670" vert-adv-y="2457" 
d="M372 -12q-158 -109 -158 -215q0 -58 65 -58q42 0 85 37l63 -104q-79 -70 -187 -70q-95 0 -148.5 43.5t-53.5 121.5q0 75 51.5 142.5t145.5 114.5h-164l284 1464h320z" />
    <glyph glyph-name="iogonek" unicode="&#x12f;" horiz-adv-x="600" vert-adv-y="2457" 
d="M349 0q-176 -118 -176 -227q0 -58 65 -58q42 0 85 37l63 -104q-79 -70 -187 -70q-95 0 -148.5 43.5t-53.5 120.5q0 76 51 143t146 115h-148l209 1071h303zM481 1556q69 0 112.5 -42t43.5 -108q0 -78 -54.5 -131.5t-133.5 -53.5q-68 0 -112 42.5t-44 107.5q0 77 54.5 131
t133.5 54z" />
    <glyph glyph-name="Idotaccent" unicode="&#x130;" horiz-adv-x="670" vert-adv-y="2457" 
d="M71 0l285 1464h319l-285 -1464h-319zM581 1890q61 0 101.5 -39.5t40.5 -100.5q0 -71 -50.5 -122t-120.5 -51q-61 0 -100.5 40.5t-39.5 102.5q0 69 50 119.5t119 50.5z" />
    <glyph glyph-name="IJ" unicode="&#x132;" horiz-adv-x="1784" vert-adv-y="2457" 
d="M85 0l285 1464h319l-285 -1464h-319zM1818 1464l-201 -1032q-46 -235 -202 -354q-134 -101 -340 -101q-234 0 -352 129q-95 104 -95 272q0 74 12 126l11 43h307l-8 -45q-11 -58 -11 -99q0 -172 153 -172q91 0 139.5 55t74.5 185l194 993h318z" />
    <glyph glyph-name="ij" unicode="&#x133;" horiz-adv-x="1162" vert-adv-y="2457" 
d="M46 0l209 1071h303l-209 -1071h-303zM481 1556q69 0 112.5 -42t43.5 -108q0 -78 -54.5 -131.5t-133.5 -53.5q-68 0 -112 42.5t-44 107.5q0 77 54.5 131t133.5 54zM1024 1071l-224 -1143q-62 -319 -365 -319q-126 0 -202 55l86 217q43 -22 80 -22q85 0 106 108l215 1104
h304zM947 1556q69 0 112.5 -42t43.5 -108q0 -78 -54.5 -131.5t-133.5 -53.5q-68 0 -112 42.5t-44 107.5q0 77 55 131t133 54z" />
    <glyph glyph-name="Jcircumflex" unicode="&#x134;" horiz-adv-x="1237" vert-adv-y="2457" 
d="M1271 1464l-201 -1032q-46 -235 -202 -354q-134 -101 -340 -101q-234 0 -352 129q-95 104 -95 272q0 74 12 126l11 43h307l-8 -45q-11 -58 -11 -99q0 -172 153 -172q91 0 139.5 55t74.5 185l194 993h318zM758 1587l283 348h227l152 -348h-205l-95 145l-151 -145h-211z
" />
    <glyph glyph-name="jcircumflex" unicode="&#x135;" horiz-adv-x="600" vert-adv-y="2457" 
d="M563 1071l-224 -1143q-62 -319 -365 -319q-126 0 -202 55l86 217q43 -22 80 -22q85 0 106 108l215 1104h304zM93 1202l281 340h227l154 -340h-205l-95 145l-151 -145h-211z" />
    <glyph glyph-name="Kcommaaccent" unicode="&#x136;" horiz-adv-x="1401" vert-adv-y="2457" 
d="M60 0l285 1464h319l-125 -637l594 637h359l-611 -629l363 -835h-340l-269 606l-172 -170l-84 -436h-319zM413 -557l25 108q132 23 153 105q-53 6 -85 40t-32 86q0 59 41.5 97.5t104.5 38.5q65 0 105 -44.5t40 -117.5q0 -138 -94 -224q-48 -44 -105.5 -63.5t-152.5 -25.5z
" />
    <glyph glyph-name="kcommaaccent" unicode="&#x137;" horiz-adv-x="1165" vert-adv-y="2457" 
d="M704 0l-174 430l-130 -127l-59 -303h-303l299 1542h303l-170 -878l391 407h336l-436 -430l262 -641h-319zM266 -557l25 108q132 23 153 105q-53 6 -85 40t-32 86q0 59 41.5 97.5t104.5 38.5q65 0 105 -44.5t40 -117.5q0 -138 -94 -224q-48 -44 -105.5 -63.5t-152.5 -25.5
z" />
    <glyph glyph-name="kgreenlandic" unicode="&#x138;" horiz-adv-x="1373" vert-adv-y="2457" 
d="M42 0l249 1071h301l-101 -427l479 427h348l-541 -464l315 -607h-321l-225 420l-130 -110l-73 -310h-301z" />
    <glyph glyph-name="Lacute" unicode="&#x139;" horiz-adv-x="1186" vert-adv-y="2457" 
d="M60 0l285 1464h319l-235 -1208h616l-51 -256h-934zM425 1579l139 356h355l-275 -356h-219z" />
    <glyph glyph-name="lacute" unicode="&#x13a;" horiz-adv-x="602" vert-adv-y="2457" 
d="M45 0l299 1542h305l-299 -1542h-305zM400 1622l139 356h354l-274 -356h-219z" />
    <glyph glyph-name="Lcommaaccent" unicode="&#x13b;" horiz-adv-x="1186" vert-adv-y="2457" 
d="M60 0l285 1464h319l-235 -1208h616l-51 -256h-934zM282 -557l25 108q132 23 153 105q-53 6 -85 40t-32 86q0 59 41.5 97.5t104.5 38.5q65 0 105 -44.5t40 -117.5q0 -138 -94 -224q-48 -44 -105.5 -63.5t-152.5 -25.5z" />
    <glyph glyph-name="lcommaaccent" unicode="&#x13c;" horiz-adv-x="602" vert-adv-y="2457" 
d="M44 0l299 1542h305l-299 -1542h-305zM-46 -557l25 108q132 23 153 105q-53 6 -85 40t-32 86q0 59 41.5 97.5t104.5 38.5q65 0 105 -44.5t40 -117.5q0 -138 -94 -224q-48 -44 -105.5 -63.5t-152.5 -25.5z" />
    <glyph glyph-name="Lcaron" unicode="&#x13d;" horiz-adv-x="1186" vert-adv-y="2457" 
d="M60 0l285 1464h319l-235 -1208h616l-51 -256h-934zM730 1083l25 109q132 23 153 104q-54 7 -85.5 40.5t-31.5 85.5q0 59 41.5 97.5t104.5 38.5q65 0 105 -44.5t40 -117.5q0 -138 -94 -224q-48 -43 -105.5 -63t-152.5 -26z" />
    <glyph glyph-name="lcaron" unicode="&#x13e;" horiz-adv-x="773" vert-adv-y="2457" 
d="M45 0l299 1542h305l-299 -1542h-305zM645 1083l25 108q132 23 153 105q-53 6 -85 40t-32 86q0 58 41.5 97t104.5 39q65 0 105 -44.5t40 -117.5q0 -138 -94 -224q-48 -44 -105.5 -64t-152.5 -25z" />
    <glyph glyph-name="Ldot" unicode="&#x13f;" horiz-adv-x="1186" vert-adv-y="2457" 
d="M60 0l285 1464h319l-235 -1208h616l-51 -256h-934zM882 858q73 0 123 -49.5t50 -122.5q0 -87 -61.5 -147t-149.5 -60q-73 0 -121.5 48.5t-48.5 120.5q0 87 61 148.5t147 61.5z" />
    <glyph glyph-name="ldot" unicode="&#x140;" horiz-adv-x="751" vert-adv-y="2457" 
d="M45 0l299 1542h305l-299 -1542h-305zM848 858q73 0 123 -49.5t50 -122.5q0 -87 -61.5 -147t-149.5 -60q-73 0 -121.5 48.5t-48.5 120.5q0 87 61 148.5t147 61.5z" />
    <glyph glyph-name="Lslash" unicode="&#x141;" horiz-adv-x="1210" vert-adv-y="2457" 
d="M40 483l47 238l152 47l135 696h321l-114 -586l348 111l-45 -240l-348 -110l-74 -383h614l-49 -256h-938l103 530z" />
    <glyph glyph-name="lslash" unicode="&#x142;" horiz-adv-x="692" vert-adv-y="2457" 
d="M50 502l51 256l152 65l139 719h305l-110 -571l174 77l-49 -258l-177 -77l-137 -713h-305l111 567z" />
    <glyph glyph-name="Nacute" unicode="&#x143;" horiz-adv-x="1495" vert-adv-y="2457" 
d="M60 0l285 1464h348l332 -1005l196 1005h289l-285 -1464h-336l-340 1024l-200 -1024h-289zM839 1579l139 356h355l-275 -356h-219z" />
    <glyph glyph-name="nacute" unicode="&#x144;" horiz-adv-x="1208" vert-adv-y="2457" 
d="M38 0l209 1071h303l-32 -166q56 83 115 125q95 68 219 68q125 0 195 -79q70 -78 70 -214q0 -62 -12 -125l-129 -680h-305l125 651q8 43 8 72q0 125 -119 125q-85 0 -143.5 -63t-81.5 -181l-119 -604h-303zM617 1202l136 340h354l-271 -340h-219z" />
    <glyph glyph-name="Ncommaaccent" unicode="&#x145;" horiz-adv-x="1495" vert-adv-y="2457" 
d="M60 0l285 1464h348l332 -1005l196 1005h289l-285 -1464h-336l-340 1024l-200 -1024h-289zM436 -557l25 108q132 23 153 105q-53 6 -85 40t-32 86q0 59 41.5 97.5t104.5 38.5q65 0 105 -44.5t40 -117.5q0 -138 -94 -224q-48 -44 -105.5 -63.5t-152.5 -25.5z" />
    <glyph glyph-name="ncommaaccent" unicode="&#x146;" horiz-adv-x="1208" vert-adv-y="2457" 
d="M38 0l209 1071h303l-32 -166q56 83 115 125q95 68 219 68q125 0 195 -79q70 -78 70 -214q0 -62 -12 -125l-129 -680h-305l125 651q8 43 8 72q0 125 -119 125q-85 0 -143.5 -63t-81.5 -181l-119 -604h-303zM269 -557l25 108q132 23 153 105q-53 6 -85 40t-32 86
q0 59 41.5 97.5t104.5 38.5q65 0 105 -44.5t40 -117.5q0 -138 -94 -224q-48 -44 -105.5 -63.5t-152.5 -25.5z" />
    <glyph glyph-name="Ncaron" unicode="&#x147;" horiz-adv-x="1495" vert-adv-y="2457" 
d="M60 0l285 1464h348l332 -1005l196 1005h289l-285 -1464h-336l-340 1024l-200 -1024h-289zM852 1587l-152 348h205l94 -145l152 145h211l-283 -348h-227z" />
    <glyph glyph-name="ncaron" unicode="&#x148;" horiz-adv-x="1208" vert-adv-y="2457" 
d="M38 0l209 1071h303l-32 -166q56 83 115 125q95 68 219 68q125 0 195 -79q70 -78 70 -214q0 -62 -12 -125l-129 -680h-305l125 651q8 43 8 72q0 125 -119 125q-85 0 -143.5 -63t-81.5 -181l-119 -604h-303zM622 1202l-153 340h205l94 -145l152 145h211l-281 -340h-228z
" />
    <glyph glyph-name="napostrophe" unicode="&#x149;" horiz-adv-x="1208" vert-adv-y="2457" 
d="M38 0l209 1071h303l-32 -166q56 83 115 125q95 68 219 68q125 0 195 -79q70 -78 70 -214q0 -62 -12 -125l-129 -680h-305l125 651q8 43 8 72q0 125 -119 125q-85 0 -143.5 -63t-81.5 -181l-119 -604h-303zM-149 1024l25 108q132 23 153 105q-53 6 -85 40t-32 86
q0 58 41.5 97t104.5 39q65 0 105 -44.5t40 -117.5q0 -138 -94 -224q-48 -44 -105.5 -64t-152.5 -25z" />
    <glyph glyph-name="Eng" unicode="&#x14a;" horiz-adv-x="1208" vert-adv-y="2457" 
d="M545 -140q6 -1 15 -1q88 0 108 108l128 684q8 44 8 72q0 125 -119 125q-85 0 -143.5 -63t-81.5 -181l-119 -604h-303l209 1071h303l-32 -166q56 83 115 125q95 68 219 68q125 0 195 -79q70 -78 70 -214q0 -62 -12 -125l-144 -752q-61 -319 -363 -319q-75 0 -122 16z" />
    <glyph glyph-name="eng" unicode="&#x14b;" horiz-adv-x="1208" vert-adv-y="2457" 
d="M574 1300q70 103 150.5 148t197.5 45q134 0 204 -79q70 -78 70 -214q0 -63 -12 -125l-223 -1147q-62 -319 -363 -319q-76 0 -123 16l70 235q5 -1 15 -1q84 0 105 108l209 1077q0 2 2 9q6 21 6 63q0 127 -144 127q-83 0 -141 -63.5t-81 -180.5l-198 -999h-303l288 1466
h303z" />
    <glyph glyph-name="Omacron" unicode="&#x14c;" horiz-adv-x="1554" vert-adv-y="2457" 
d="M879 1487q305 0 476 -196q150 -171 150 -452q0 -273 -129 -494q-102 -177 -267 -273q-164 -95 -373 -95q-271 0 -437 167q-172 173 -172 478q0 211 76 400q88 216 274 345q172 120 402 120zM882 1235q-182 0 -295 -162q-60 -86 -94 -211t-34 -259q0 -181 77.5 -277.5
t224.5 -96.5q131 0 230 95q90 87 139 243q43 137 43 293q0 214 -100 307q-73 68 -191 68zM681 1626l41 207h516l-39 -207h-518z" />
    <glyph glyph-name="omacron" unicode="&#x14d;" horiz-adv-x="1196" vert-adv-y="2457" 
d="M645 1098q218 0 346 -134q128 -135 128 -359q0 -141 -48.5 -266t-137.5 -211q-156 -151 -387 -151q-213 0 -341 134q-128 135 -128 366q0 136 49 261t136 211q150 149 383 149zM641 873q-135 0 -205 -170q-50 -122 -50 -269q0 -232 171 -232q137 0 206 177q47 121 47 265
q0 112 -42 169q-45 60 -127 60zM443 1290l41 207h516l-39 -207h-518z" />
    <glyph glyph-name="Obreve" unicode="&#x14e;" horiz-adv-x="1554" vert-adv-y="2457" 
d="M879 1487q305 0 476 -196q150 -171 150 -452q0 -273 -129 -494q-102 -177 -267 -273q-164 -95 -373 -95q-271 0 -437 167q-172 173 -172 478q0 211 76 400q88 216 274 345q172 120 402 120zM882 1235q-182 0 -295 -162q-60 -86 -94 -211t-34 -259q0 -181 77.5 -277.5
t224.5 -96.5q131 0 230 95q90 87 139 243q43 137 43 293q0 214 -100 307q-73 68 -191 68zM745 1909h201q2 -60 16 -85q28 -48 110 -48q67 0 101 31t44 102h200q-16 -129 -61 -197q-86 -132 -284 -132q-206 0 -286 130q-40 65 -41 199z" />
    <glyph glyph-name="obreve" unicode="&#x14f;" horiz-adv-x="1196" vert-adv-y="2457" 
d="M645 1098q218 0 346 -134q128 -135 128 -359q0 -141 -48.5 -266t-137.5 -211q-156 -151 -387 -151q-213 0 -341 134q-128 135 -128 366q0 136 49 261t136 211q150 149 383 149zM641 873q-135 0 -205 -170q-50 -122 -50 -269q0 -232 171 -232q137 0 206 177q47 121 47 265
q0 112 -42 169q-45 60 -127 60zM473 1530h201q-1 -72 23.5 -102.5t82.5 -30.5q109 0 124 133h200q-14 -126 -57 -197q-81 -132 -267 -132q-188 0 -264 122q-42 69 -43 207z" />
    <glyph glyph-name="Ohungarumlaut" unicode="&#x150;" horiz-adv-x="1554" vert-adv-y="2457" 
d="M879 1487q305 0 476 -196q150 -171 150 -452q0 -273 -129 -494q-102 -177 -267 -273q-164 -95 -373 -95q-271 0 -437 167q-172 173 -172 478q0 211 76 400q88 216 274 345q172 120 402 120zM882 1235q-182 0 -295 -162q-60 -86 -94 -211t-34 -259q0 -181 77.5 -277.5
t224.5 -96.5q131 0 230 95q90 87 139 243q43 137 43 293q0 214 -100 307q-73 68 -191 68zM999 1579l121 356h295l-209 -356h-207zM616 1579l123 356h295l-211 -356h-207z" />
    <glyph glyph-name="ohungarumlaut" unicode="&#x151;" horiz-adv-x="1196" vert-adv-y="2457" 
d="M645 1098q218 0 346 -134q128 -135 128 -359q0 -141 -48.5 -266t-137.5 -211q-156 -151 -387 -151q-213 0 -341 134q-128 135 -128 366q0 136 49 261t136 211q150 149 383 149zM641 873q-135 0 -205 -170q-50 -122 -50 -269q0 -232 171 -232q137 0 206 177q47 121 47 265
q0 112 -42 169q-45 60 -127 60zM758 1186l121 356h295l-209 -356h-207zM375 1186l123 356h295l-211 -356h-207z" />
    <glyph glyph-name="Racute" unicode="&#x154;" horiz-adv-x="1415" vert-adv-y="2457" 
d="M60 0l285 1464h521q230 0 339 -70q162 -104 162 -314q0 -165 -92 -269q-46 -51 -105 -81.5t-162 -55.5q95 -33 137 -92q27 -38 38 -84t17 -149q18 -291 60 -341v-8h-317q-42 92 -52 361q-5 112 -53 159.5t-157 47.5h-191l-111 -568h-319zM535 801h248q143 0 210 75
q56 62 56 167q0 173 -207 173h-227zM709 1579l139 356h355l-275 -356h-219z" />
    <glyph glyph-name="racute" unicode="&#x155;" horiz-adv-x="889" vert-adv-y="2457" 
d="M38 0l209 1071h303l-41 -207q66 121 136.5 175.5t160.5 54.5q81 0 141 -44l-100 -276q-61 39 -126 39q-105 0 -176 -71.5t-97 -202.5l-107 -539h-303zM457 1202l136 340h354l-271 -340h-219z" />
    <glyph glyph-name="Rcommaaccent" unicode="&#x156;" horiz-adv-x="1415" vert-adv-y="2457" 
d="M60 0l285 1464h521q230 0 339 -70q162 -104 162 -314q0 -165 -92 -269q-46 -51 -105 -81.5t-162 -55.5q95 -33 137 -92q27 -38 38 -84t17 -149q18 -291 60 -341v-8h-317q-42 92 -52 361q-5 112 -53 159.5t-157 47.5h-191l-111 -568h-319zM535 801h248q143 0 210 75
q56 62 56 167q0 173 -207 173h-227zM433 -557l25 108q132 23 153 105q-53 6 -85 40t-32 86q0 59 41.5 97.5t104.5 38.5q65 0 105 -44.5t40 -117.5q0 -138 -94 -224q-48 -44 -105.5 -63.5t-152.5 -25.5z" />
    <glyph glyph-name="rcommaaccent" unicode="&#x157;" horiz-adv-x="889" vert-adv-y="2457" 
d="M38 0l209 1071h303l-41 -207q66 121 136.5 175.5t160.5 54.5q81 0 141 -44l-100 -276q-61 39 -126 39q-105 0 -176 -71.5t-97 -202.5l-107 -539h-303zM-47 -557l25 108q132 23 153 105q-53 6 -85 40t-32 86q0 59 41.5 97.5t104.5 38.5q65 0 105 -44.5t40 -117.5
q0 -138 -94 -224q-48 -44 -105.5 -63.5t-152.5 -25.5z" />
    <glyph glyph-name="Rcaron" unicode="&#x158;" horiz-adv-x="1415" vert-adv-y="2457" 
d="M60 0l285 1464h521q230 0 339 -70q162 -104 162 -314q0 -165 -92 -269q-46 -51 -105 -81.5t-162 -55.5q95 -33 137 -92q27 -38 38 -84t17 -149q18 -291 60 -341v-8h-317q-42 92 -52 361q-5 112 -53 159.5t-157 47.5h-191l-111 -568h-319zM535 801h248q143 0 210 75
q56 62 56 167q0 173 -207 173h-227zM722 1587l-152 348h205l94 -145l152 145h211l-283 -348h-227z" />
    <glyph glyph-name="rcaron" unicode="&#x159;" horiz-adv-x="889" vert-adv-y="2457" 
d="M38 0l209 1071h303l-41 -207q66 121 136.5 175.5t160.5 54.5q81 0 141 -44l-100 -276q-61 39 -126 39q-105 0 -176 -71.5t-97 -202.5l-107 -539h-303zM492 1202l-153 340h205l94 -145l152 145h211l-281 -340h-228z" />
    <glyph glyph-name="Sacute" unicode="&#x15a;" horiz-adv-x="1249" vert-adv-y="2457" 
d="M970 1054q-32 77 -69 115q-66 68 -193 68q-100 0 -154 -42t-54 -119q0 -69 49.5 -107.5t212.5 -96.5q187 -65 271 -139q123 -106 123 -287q0 -205 -143 -333q-153 -136 -430 -136q-464 0 -582 383l295 103q22 -81 54 -126q78 -110 249 -110q94 0 155 35q80 46 80 141
q0 71 -49.5 111.5t-202.5 95.5q-191 69 -275 145q-116 105 -116 281q0 186 120 306q145 145 410 145q406 0 527 -324zM656 1579l139 356h355l-275 -356h-219z" />
    <glyph glyph-name="sacute" unicode="&#x15b;" horiz-adv-x="1032" vert-adv-y="2457" 
d="M820 754q-53 60 -123.5 93.5t-142.5 33.5q-121 0 -121 -91q0 -44 30.5 -67t137.5 -61q146 -53 220 -118q89 -80 89 -210q0 -167 -118.5 -262t-325.5 -95q-319 0 -480 195l166 184q121 -158 306 -158q149 0 149 98q0 48 -46 76q-28 16 -142 58q-275 99 -275 320
q0 194 158 286q107 62 269 62q134 0 233.5 -40t187.5 -128zM498 1202l136 340h354l-271 -340h-219z" />
    <glyph glyph-name="Scircumflex" unicode="&#x15c;" horiz-adv-x="1249" vert-adv-y="2457" 
d="M970 1054q-32 77 -69 115q-66 68 -193 68q-100 0 -154 -42t-54 -119q0 -69 49.5 -107.5t212.5 -96.5q187 -65 271 -139q123 -106 123 -287q0 -205 -143 -333q-153 -136 -430 -136q-464 0 -582 383l295 103q22 -81 54 -126q78 -110 249 -110q94 0 155 35q80 46 80 141
q0 71 -49.5 111.5t-202.5 95.5q-191 69 -275 145q-116 105 -116 281q0 186 120 306q145 145 410 145q406 0 527 -324zM456 1587l283 348h227l152 -348h-205l-95 145l-151 -145h-211z" />
    <glyph glyph-name="scircumflex" unicode="&#x15d;" horiz-adv-x="1032" vert-adv-y="2457" 
d="M820 754q-53 60 -123.5 93.5t-142.5 33.5q-121 0 -121 -91q0 -44 30.5 -67t137.5 -61q146 -53 220 -118q89 -80 89 -210q0 -167 -118.5 -262t-325.5 -95q-319 0 -480 195l166 184q121 -158 306 -158q149 0 149 98q0 48 -46 76q-28 16 -142 58q-275 99 -275 320
q0 194 158 286q107 62 269 62q134 0 233.5 -40t187.5 -128zM302 1202l281 340h227l154 -340h-205l-95 145l-151 -145h-211z" />
    <glyph glyph-name="Scedilla" unicode="&#x15e;" horiz-adv-x="1249" vert-adv-y="2457" 
d="M622 -22l-77 -87q24 4 36 4q63 0 103.5 -43.5t40.5 -111.5q0 -92 -61 -145.5t-166 -53.5q-153 0 -218 115l125 59q30 -51 88 -51q35 0 56.5 19.5t21.5 51.5q0 28 -17 45t-46 17q-35 0 -64 -33l-78 60l129 158q-389 37 -494 378l295 103q22 -81 54 -126q78 -110 249 -110
q94 0 155 35q80 46 80 141q0 71 -49.5 111.5t-202.5 95.5q-191 69 -275 145q-116 105 -116 281q0 186 120 306q145 145 410 145q406 0 527 -324l-278 -109q-32 78 -69 115q-67 68 -193 68q-100 0 -154 -42t-54 -119q0 -69 50 -107.5t212 -96.5q187 -65 271 -139
q123 -106 123 -287q0 -129 -57 -228q-64 -110 -186.5 -171.5t-290.5 -68.5z" />
    <glyph glyph-name="scedilla" unicode="&#x15f;" horiz-adv-x="1032" vert-adv-y="2457" 
d="M507 -22l-78 -87q25 4 37 4q63 0 103.5 -43.5t40.5 -111.5q0 -92 -61.5 -145.5t-165.5 -53.5q-153 0 -218 115l125 59q30 -51 88 -51q35 0 56.5 20t21.5 52q0 28 -17 45t-46 17q-35 0 -64 -34l-78 60l129 157q-257 25 -394 191l166 184q121 -157 306 -157q149 0 149 98
q0 48 -46 75q-28 17 -142 58q-275 99 -275 320q0 194 158 286q107 62 269 62q134 0 232.5 -39.5t188.5 -128.5l-172 -176q-53 60 -123.5 93.5t-142.5 33.5q-121 0 -121 -91q0 -44 30 -67t138 -61q147 -53 220 -118q89 -80 89 -210q0 -158 -106.5 -252t-296.5 -104z" />
    <glyph glyph-name="Scaron" unicode="&#x160;" horiz-adv-x="1249" vert-adv-y="2457" 
d="M970 1054q-32 77 -69 115q-66 68 -193 68q-100 0 -154 -42t-54 -119q0 -69 49.5 -107.5t212.5 -96.5q187 -65 271 -139q123 -106 123 -287q0 -205 -143 -333q-153 -136 -430 -136q-464 0 -582 383l295 103q22 -81 54 -126q78 -110 249 -110q94 0 155 35q80 46 80 141
q0 71 -49.5 111.5t-202.5 95.5q-191 69 -275 145q-116 105 -116 281q0 186 120 306q145 145 410 145q406 0 527 -324zM675 1587l-152 348h205l94 -145l152 145h211l-283 -348h-227z" />
    <glyph glyph-name="scaron" unicode="&#x161;" horiz-adv-x="1032" vert-adv-y="2457" 
d="M820 754q-53 60 -123.5 93.5t-142.5 33.5q-121 0 -121 -91q0 -44 30.5 -67t137.5 -61q146 -53 220 -118q89 -80 89 -210q0 -167 -118.5 -262t-325.5 -95q-319 0 -480 195l166 184q121 -158 306 -158q149 0 149 98q0 48 -46 76q-28 16 -142 58q-275 99 -275 320
q0 194 158 286q107 62 269 62q134 0 233.5 -40t187.5 -128zM515 1202l-153 340h205l94 -145l152 145h211l-281 -340h-228z" />
    <glyph glyph-name="Tcommaaccent" unicode="&#x162;" horiz-adv-x="1266" vert-adv-y="2457" 
d="M371 0l235 1214h-393l49 250h1103l-48 -250h-393l-234 -1214h-319zM292 -557l25 108q132 23 153 105q-53 6 -85 40t-32 86q0 59 41.5 97.5t104.5 38.5q65 0 105 -44.5t40 -117.5q0 -138 -94 -224q-48 -44 -105.5 -63.5t-152.5 -25.5z" />
    <glyph glyph-name="tcommaaccent" unicode="&#x163;" horiz-adv-x="819" vert-adv-y="2457" 
d="M116 840l45 231h141l43 217l324 107l-64 -324h216l-46 -231h-215l-90 -477q-6 -31 -6 -54q0 -80 74 -80q43 0 102 29l62 -211q-111 -70 -266 -70q-149 0 -224 83q-61 67 -61 182q0 44 8 86l98 512h-141zM123 -557l25 108q132 23 153 105q-53 6 -85 40t-32 86
q0 59 41.5 97.5t104.5 38.5q65 0 105 -44.5t40 -117.5q0 -138 -94 -224q-48 -44 -105.5 -63.5t-152.5 -25.5z" />
    <glyph glyph-name="Tcaron" unicode="&#x164;" horiz-adv-x="1266" vert-adv-y="2457" 
d="M371 0l235 1214h-393l49 250h1103l-48 -250h-393l-234 -1214h-319zM714 1587l-152 348h205l94 -145l152 145h211l-283 -348h-227z" />
    <glyph glyph-name="tcaron" unicode="&#x165;" horiz-adv-x="912" vert-adv-y="2457" 
d="M116 840l45 231h141l43 217l324 107l-64 -324h216l-46 -231h-215l-90 -477q-6 -31 -6 -54q0 -80 74 -80q43 0 102 29l62 -211q-111 -70 -266 -70q-149 0 -224 83q-61 67 -61 182q0 44 8 86l98 512h-141zM783 1174l25 108q132 23 153 105q-53 6 -85 40t-32 86
q0 58 41.5 97t104.5 39q65 0 105 -44.5t40 -117.5q0 -138 -94 -224q-48 -44 -105.5 -64t-152.5 -25z" />
    <glyph glyph-name="Tbar" unicode="&#x166;" horiz-adv-x="1266" vert-adv-y="2457" 
d="M473 527h-220l54 276h219l80 411h-393l49 250h1103l-48 -250h-393l-80 -411h234l-54 -276h-233l-101 -527h-319z" />
    <glyph glyph-name="tbar" unicode="&#x167;" horiz-adv-x="819" vert-adv-y="2457" 
d="M545 762h213l-44 -229h-213l-32 -170q-6 -33 -6 -54q0 -80 74 -80q43 0 103 29l61 -211q-109 -70 -266 -70q-149 0 -224 83q-61 67 -61 183q0 41 8 85l40 205h-143l44 229h143l15 78h-142l46 231h141l43 217l323 107l-63 -324h215l-45 -231h-215z" />
    <glyph glyph-name="Utilde" unicode="&#x168;" horiz-adv-x="1481" vert-adv-y="2457" 
d="M1509 1464l-177 -916q-48 -247 -144 -372q-151 -199 -489 -199q-295 0 -435 155q-109 120 -109 321q0 79 18 174l164 837h322l-166 -848q-16 -81 -16 -154q0 -229 235 -229q87 0 144.5 30.5t95.5 96.5q41 70 66 198l175 906h316zM1433 1872q-61 -291 -255 -291
q-68 0 -156 55q-52 33 -80 33q-52 0 -78 -84l-168 12q65 291 250 291q65 0 151 -53q56 -35 85 -35q48 0 75 84z" />
    <glyph glyph-name="utilde" unicode="&#x169;" horiz-adv-x="1198" vert-adv-y="2457" 
d="M682 156q-69 -96 -146.5 -139.5t-178.5 -43.5q-124 0 -194 77.5t-70 215.5q0 63 15 140l130 665h304l-125 -633q-13 -65 -13 -101q0 -122 116 -122q171 0 220 246l121 610h303l-209 -1071h-303zM1162 1524q-61 -291 -255 -291q-69 0 -157 55q-51 33 -79 33q-52 0 -78 -84
l-168 12q27 122 69 185q69 106 181 106q65 0 151 -53q57 -35 86 -35q46 0 74 84z" />
    <glyph glyph-name="Umacron" unicode="&#x16a;" horiz-adv-x="1481" vert-adv-y="2457" 
d="M1509 1464l-177 -916q-48 -247 -144 -372q-151 -199 -489 -199q-295 0 -435 155q-109 120 -109 321q0 79 18 174l164 837h322l-166 -848q-16 -81 -16 -154q0 -229 235 -229q87 0 144.5 30.5t95.5 96.5q41 70 66 198l175 906h316zM693 1626l41 207h516l-39 -207h-518z" />
    <glyph glyph-name="umacron" unicode="&#x16b;" horiz-adv-x="1198" vert-adv-y="2457" 
d="M682 156q-69 -96 -146.5 -139.5t-178.5 -43.5q-124 0 -194 77.5t-70 215.5q0 63 15 140l130 665h304l-125 -633q-13 -65 -13 -101q0 -122 116 -122q171 0 220 246l121 610h303l-209 -1071h-303zM480 1290l41 207h516l-39 -207h-518z" />
    <glyph glyph-name="Ubreve" unicode="&#x16c;" horiz-adv-x="1481" vert-adv-y="2457" 
d="M1509 1464l-177 -916q-48 -247 -144 -372q-151 -199 -489 -199q-295 0 -435 155q-109 120 -109 321q0 79 18 174l164 837h322l-166 -848q-16 -81 -16 -154q0 -229 235 -229q87 0 144.5 30.5t95.5 96.5q41 70 66 198l175 906h316zM1296 1882q-21 -106 -67 -169
q-97 -132 -271 -132q-141 0 -220 90q-36 42 -51 88t-15 123h198q3 -106 103 -106q96 0 125 106h198z" />
    <glyph glyph-name="ubreve" unicode="&#x16d;" horiz-adv-x="1198" vert-adv-y="2457" 
d="M682 156q-69 -96 -146.5 -139.5t-178.5 -43.5q-124 0 -194 77.5t-70 215.5q0 63 15 140l130 665h304l-125 -633q-13 -65 -13 -101q0 -122 116 -122q171 0 220 246l121 610h303l-209 -1071h-303zM1074 1530q-22 -107 -68 -170q-96 -132 -270 -132q-142 0 -220 90
q-37 42 -51.5 88.5t-15.5 123.5h199q4 -107 102 -107t125 107h199z" />
    <glyph glyph-name="Uring" unicode="&#x16e;" horiz-adv-x="1481" vert-adv-y="2457" 
d="M1509 1464l-177 -916q-48 -247 -144 -372q-151 -199 -489 -199q-295 0 -435 155q-109 120 -109 321q0 79 18 174l164 837h322l-166 -848q-16 -81 -16 -154q0 -229 235 -229q87 0 144.5 30.5t95.5 96.5q41 70 66 198l175 906h316zM983 2005q92 0 150.5 -57.5t58.5 -147.5
q0 -101 -70.5 -170t-174.5 -69q-92 0 -151 57.5t-59 147.5q0 98 69 167q71 72 177 72zM974 1888q-41 0 -68.5 -33.5t-27.5 -84.5q0 -41 21 -65.5t56 -24.5q42 0 70 33.5t28 83.5q0 41 -21.5 66t-57.5 25z" />
    <glyph glyph-name="uring" unicode="&#x16f;" horiz-adv-x="1198" vert-adv-y="2457" 
d="M682 156q-69 -96 -146.5 -139.5t-178.5 -43.5q-124 0 -194 77.5t-70 215.5q0 63 15 140l130 665h304l-125 -633q-13 -65 -13 -101q0 -122 116 -122q171 0 220 246l121 610h303l-209 -1071h-303zM765 1611q92 0 150.5 -57.5t58.5 -147.5q0 -101 -70.5 -170t-174.5 -69
q-92 0 -151 57.5t-59 146.5q0 99 69 168q71 72 177 72zM756 1494q-41 0 -68.5 -33.5t-27.5 -84.5q0 -41 21 -65.5t56 -24.5q42 0 70 33.5t28 83.5q0 41 -21.5 66t-57.5 25z" />
    <glyph glyph-name="Uhungarumlaut" unicode="&#x170;" horiz-adv-x="1481" vert-adv-y="2457" 
d="M1509 1464l-177 -916q-48 -247 -144 -372q-151 -199 -489 -199q-295 0 -435 155q-109 120 -109 321q0 79 18 174l164 837h322l-166 -848q-16 -81 -16 -154q0 -229 235 -229q87 0 144.5 30.5t95.5 96.5q41 70 66 198l175 906h316zM993 1579l121 356h295l-209 -356h-207z
M610 1579l123 356h295l-211 -356h-207z" />
    <glyph glyph-name="uhungarumlaut" unicode="&#x171;" horiz-adv-x="1198" vert-adv-y="2457" 
d="M682 156q-69 -96 -146.5 -139.5t-178.5 -43.5q-124 0 -194 77.5t-70 215.5q0 63 15 140l130 665h304l-125 -633q-13 -65 -13 -101q0 -122 116 -122q171 0 220 246l121 610h303l-209 -1071h-303zM801 1186l121 356h295l-209 -356h-207zM418 1186l123 356h295l-211 -356
h-207z" />
    <glyph glyph-name="Uogonek" unicode="&#x172;" horiz-adv-x="1481" vert-adv-y="2457" 
d="M790 -19q-69 -49 -109 -104.5t-40 -103.5q0 -58 65 -58q43 0 85 37l63 -105q-78 -69 -187 -69q-95 0 -148.5 43.5t-53.5 120.5q0 139 160 238q-159 14 -265 74q-205 118 -205 399q0 79 18 173l164 838h322l-166 -848q-16 -81 -16 -155q0 -228 235 -228q87 0 144 30.5
t96 96.5q41 70 66 198l175 906h316l-177 -916q-38 -193 -99 -303q-104 -190 -317 -244q-51 -12 -126 -20z" />
    <glyph glyph-name="uogonek" unicode="&#x173;" horiz-adv-x="1198" vert-adv-y="2457" 
d="M955 0q-176 -117 -176 -227q0 -58 65 -58q42 0 85 37l63 -104q-79 -70 -188 -70q-94 0 -147.5 43.5t-53.5 121.5q0 75 51.5 142.5t145.5 114.5h-148l30 156q-69 -96 -146.5 -139.5t-178.5 -43.5q-124 0 -194 77.5t-70 215.5q0 63 15 140l130 665h304l-125 -633
q-13 -65 -13 -101q0 -122 116 -122q171 0 220 246l121 610h303z" />
    <glyph glyph-name="Wcircumflex" unicode="&#x174;" horiz-adv-x="2025" vert-adv-y="2457" 
d="M315 0l-82 1464h324l34 -1034l467 1034h265l75 -1044l443 1044h313l-645 -1464h-328l-74 997l-460 -997h-332zM863 1587l283 348h227l152 -348h-205l-95 145l-151 -145h-211z" />
    <glyph glyph-name="wcircumflex" unicode="&#x175;" horiz-adv-x="1640" vert-adv-y="2457" 
d="M243 0l-94 1071h307l31 -700l305 700h262l41 -700l303 700h301l-516 -1071h-299l-49 668l-289 -668h-303zM723 1202l281 340h227l154 -340h-205l-95 145l-151 -145h-211z" />
    <glyph glyph-name="Ycircumflex" unicode="&#x176;" horiz-adv-x="1325" vert-adv-y="2457" 
d="M406 0l119 612l-309 852h336l192 -575l394 575h331l-628 -868l-115 -596h-320zM536 1587l283 348h227l152 -348h-205l-95 145l-151 -145h-211z" />
    <glyph glyph-name="ycircumflex" unicode="&#x177;" horiz-adv-x="1112" vert-adv-y="2457" 
d="M1191 1071l-649 -1178q-83 -151 -179 -216.5t-233 -65.5t-233 71l115 209q52 -40 118 -40q55 0 92.5 30t71.5 102l21 43l-187 1045h316l96 -678l344 678h307zM343 1202l281 340h227l154 -340h-205l-95 145l-151 -145h-211z" />
    <glyph glyph-name="Zacute" unicode="&#x179;" horiz-adv-x="1264" vert-adv-y="2457" 
d="M7 0l51 270l848 944h-631l49 250h1002l-51 -272l-838 -936h666l-52 -256h-1044zM718 1579l139 356h355l-275 -356h-219z" />
    <glyph glyph-name="zacute" unicode="&#x17a;" horiz-adv-x="1004" vert-adv-y="2457" 
d="M-28 0l45 220l598 613h-455l48 238h831l-45 -224l-596 -607h487l-47 -240h-866zM512 1202l136 340h354l-271 -340h-219z" />
    <glyph glyph-name="Zdotaccent" unicode="&#x17b;" horiz-adv-x="1264" vert-adv-y="2457" 
d="M7 0l51 270l848 944h-631l49 250h1002l-51 -272l-838 -936h666l-52 -256h-1044zM878 1890q61 0 101.5 -39.5t40.5 -100.5q0 -71 -50.5 -122t-120.5 -51q-61 0 -100.5 40.5t-39.5 102.5q0 69 50 119.5t119 50.5z" />
    <glyph glyph-name="zdotaccent" unicode="&#x17c;" horiz-adv-x="1004" vert-adv-y="2457" 
d="M-28 0l45 220l598 613h-455l48 238h831l-45 -224l-596 -607h487l-47 -240h-866zM685 1546q61 0 101.5 -39.5t40.5 -100.5q0 -71 -50.5 -122t-120.5 -51q-61 0 -100.5 40.5t-39.5 102.5q0 69 50 119.5t119 50.5z" />
    <glyph glyph-name="Zcaron" unicode="&#x17d;" horiz-adv-x="1264" vert-adv-y="2457" 
d="M7 0l51 270l848 944h-631l49 250h1002l-51 -272l-838 -936h666l-52 -256h-1044zM749 1587l-152 348h205l94 -145l152 145h211l-283 -348h-227z" />
    <glyph glyph-name="zcaron" unicode="&#x17e;" horiz-adv-x="1004" vert-adv-y="2457" 
d="M-28 0l45 220l598 613h-455l48 238h831l-45 -224l-596 -607h487l-47 -240h-866zM541 1202l-153 340h205l94 -145l152 145h211l-281 -340h-228z" />
    <glyph glyph-name="uni018F" unicode="&#x18f;" horiz-adv-x="1575" vert-adv-y="2457" 
d="M226 1070q24 61 102 157q214 260 562 260q310 0 484 -196q153 -173 153 -455q0 -272 -129 -492q-105 -176 -271 -272q-166 -95 -372 -95q-282 0 -451 167q-84 84 -129 201q-47 124 -47 255q0 100 23 266h1044q-3 153 -55 239q-77 130 -247 130q-117 0 -209.5 -67
t-147.5 -190zM1168 622h-708q1 -168 54 -257q81 -136 254 -136q258 0 371 302q18 46 29 91z" />
    <glyph glyph-name="Ohorn" unicode="&#x1a0;" horiz-adv-x="1554" vert-adv-y="2457" 
d="M1294 1351q5 1 17 4q124 28 153 127q-54 6 -85.5 40t-31.5 86q0 58 41.5 97t104.5 39q65 0 105 -45t40 -118q0 -123 -69 -211t-185 -114q121 -167 121 -418q0 -272 -129 -493q-103 -177 -267 -273q-163 -95 -366 -95q-278 0 -444 167q-172 173 -172 478q0 212 76 400
q88 217 274 346q172 119 400 119q257 0 417 -136zM882 1235q-182 0 -295 -162q-60 -86 -94 -211t-34 -259q0 -181 77.5 -277.5t224.5 -96.5q131 0 230 95q90 87 139 243q43 137 43 293q0 214 -100 307q-73 68 -191 68z" />
    <glyph glyph-name="ohorn" unicode="&#x1a1;" horiz-adv-x="1196" vert-adv-y="2457" 
d="M961 992q127 32 149 125q-53 6 -84.5 40t-31.5 86q0 58 41.5 97t104.5 39q64 0 104 -45t40 -118q0 -120 -65 -206.5t-175 -113.5q75 -124 75 -292q0 -141 -48.5 -265.5t-137.5 -210.5q-156 -151 -387 -151q-213 0 -341 134q-128 135 -128 360q0 141 48.5 266.5
t136.5 211.5q152 149 384 149q192 0 315 -106zM641 873q-135 0 -205 -170q-50 -122 -50 -269q0 -232 171 -232q137 0 206 177q47 121 47 265q0 112 -42 169q-45 60 -127 60z" />
    <glyph glyph-name="Uhorn" unicode="&#x1af;" horiz-adv-x="1481" vert-adv-y="2457" 
d="M1493 1385q97 25 119 97q-53 6 -84.5 40t-31.5 86q0 58 41.5 97t104.5 39q64 0 104 -45t40 -117q0 -132 -84 -215t-231 -95l-139 -724q-48 -247 -144 -372q-151 -199 -489 -199q-295 0 -435 155q-109 120 -109 321q0 79 18 174l164 837h322l-166 -848q-16 -81 -16 -154
q0 -229 235 -229q87 0 144.5 30.5t95.5 96.5q41 70 66 198l175 906h316z" />
    <glyph glyph-name="uhorn" unicode="&#x1b0;" horiz-adv-x="1198" vert-adv-y="2457" 
d="M1155 1022q88 25 109 95q-54 6 -85.5 40t-31.5 86q0 58 41.5 97t104.5 39q65 0 105 -44.5t40 -117.5q0 -129 -82 -212.5t-224 -97.5l-177 -907h-303l30 156q-69 -96 -146.5 -139.5t-178.5 -43.5q-124 0 -194 77.5t-70 215.5q0 63 15 140l130 665h304l-125 -633
q-13 -65 -13 -101q0 -122 116 -122q171 0 220 246l121 610h303z" />
    <glyph glyph-name="uni01CD" unicode="&#x1cd;" horiz-adv-x="1422" vert-adv-y="2457" 
d="M931 279h-553l-141 -279h-317l791 1464h369l213 -1464h-328zM903 512l-78 649l-329 -649h407zM798 1587l-152 348h205l94 -145l152 145h211l-283 -348h-227z" />
    <glyph glyph-name="uni01CE" unicode="&#x1ce;" horiz-adv-x="1111" vert-adv-y="2457" 
d="M606 129q-110 -152 -282 -152q-118 0 -199 64q-101 81 -101 226q0 288 374 351q116 19 296 25l4 23q5 28 5 54q0 130 -146 130t-293 -90l-107 209q93 59 172 86q125 43 280 43q400 0 400 -325q0 -57 -16 -139l-84 -433q-13 -66 -13 -106q0 -48 13 -83v-12h-295
q-10 53 -10 95q0 13 2 34zM659 465q-128 -5 -194 -22q-134 -32 -134 -147q0 -102 111 -102q75 0 129.5 47.5t68.5 125.5zM542 1202l-153 340h205l94 -145l152 145h211l-281 -340h-228z" />
    <glyph glyph-name="uni01CF" unicode="&#x1cf;" horiz-adv-x="670" vert-adv-y="2457" 
d="M71 0l285 1464h319l-285 -1464h-319zM466 1587l-152 348h205l94 -145l152 145h211l-283 -348h-227z" />
    <glyph glyph-name="uni01D0" unicode="&#x1d0;" horiz-adv-x="600" vert-adv-y="2457" 
d="M46 0l209 1071h303l-209 -1071h-303zM320 1202l-153 340h204l95 -145l151 145h211l-281 -340h-227z" />
    <glyph glyph-name="uni01D1" unicode="&#x1d1;" horiz-adv-x="1554" vert-adv-y="2457" 
d="M879 1487q305 0 476 -196q150 -171 150 -452q0 -273 -129 -494q-102 -177 -267 -273q-164 -95 -373 -95q-271 0 -437 167q-172 173 -172 478q0 211 76 400q88 216 274 345q172 120 402 120zM882 1235q-182 0 -295 -162q-60 -86 -94 -211t-34 -259q0 -181 77.5 -277.5
t224.5 -96.5q131 0 230 95q90 87 139 243q43 137 43 293q0 214 -100 307q-73 68 -191 68zM909 1587l-152 348h205l94 -145l152 145h211l-283 -348h-227z" />
    <glyph glyph-name="uni01D2" unicode="&#x1d2;" horiz-adv-x="1196" vert-adv-y="2457" 
d="M645 1098q218 0 346 -134q128 -135 128 -359q0 -141 -48.5 -266t-137.5 -211q-156 -151 -387 -151q-213 0 -341 134q-128 135 -128 366q0 136 49 261t136 211q150 149 383 149zM641 873q-135 0 -205 -170q-50 -122 -50 -269q0 -232 171 -232q137 0 206 177q47 121 47 265
q0 112 -42 169q-45 60 -127 60zM616 1202l-153 340h205l94 -145l152 145h211l-281 -340h-228z" />
    <glyph glyph-name="uni01D3" unicode="&#x1d3;" horiz-adv-x="1481" vert-adv-y="2457" 
d="M1509 1464l-177 -916q-48 -247 -144 -372q-151 -199 -489 -199q-295 0 -435 155q-109 120 -109 321q0 79 18 174l164 837h322l-166 -848q-16 -81 -16 -154q0 -229 235 -229q87 0 144.5 30.5t95.5 96.5q41 70 66 198l175 906h316zM822 1587l-152 348h205l94 -145l152 145
h211l-283 -348h-227z" />
    <glyph glyph-name="uni01D4" unicode="&#x1d4;" horiz-adv-x="1198" vert-adv-y="2457" 
d="M682 156q-69 -96 -146.5 -139.5t-178.5 -43.5q-124 0 -194 77.5t-70 215.5q0 63 15 140l130 665h304l-125 -633q-13 -65 -13 -101q0 -122 116 -122q171 0 220 246l121 610h303l-209 -1071h-303zM646 1202l-153 340h205l94 -145l152 145h211l-281 -340h-228z" />
    <glyph glyph-name="uni01DD" unicode="&#x1dd;" horiz-adv-x="1131" vert-adv-y="2457" 
d="M169 899q92 103 201 151t253 48q230 0 350 -133q105 -116 105 -320q0 -145 -49 -273t-140 -220q-173 -175 -426 -175q-138 0 -235 56q-147 84 -147 259q0 255 358 323q118 23 338 28v21q0 207 -173 207q-74 0 -129 -27.5t-124 -98.5zM755 461q-208 0 -298.5 -34.5
t-90.5 -113.5q0 -52 33.5 -81.5t91.5 -29.5q191 0 264 259z" />
    <glyph glyph-name="Gcaron" unicode="&#x1e6;" horiz-adv-x="1554" vert-adv-y="2457" 
d="M1121 226q-59 -97 -142 -154q-137 -95 -313 -95q-242 0 -386 164q-150 170 -150 468q0 285 128 506q102 178 269 275q168 97 379 97q282 0 433 -170q42 -49 66.5 -99t51.5 -145l-303 -98q-22 99 -54 152q-66 110 -213 110q-211 0 -326 -206q-101 -181 -101 -427
q0 -381 291 -381q145 0 240 89q94 89 116 231l4 27h-285l45 227h594l-153 -797h-170zM816 1587l-152 348h205l94 -145l152 145h211l-283 -348h-227z" />
    <glyph glyph-name="gcaron" unicode="&#x1e7;" horiz-adv-x="1145" vert-adv-y="2457" 
d="M372 420q-46 -39 -46 -83q0 -71 97 -71h153q153 0 230 -28q185 -68 185 -257q0 -114 -61 -201t-176 -134q-132 -55 -329 -55q-194 0 -318 53q-165 70 -165 210q0 158 225 228q-92 59 -92 155q0 141 193 238q-121 94 -121 239q0 181 154 292q126 92 306 92q155 0 277 -76
l313 69l-45 -223h-145q20 -54 20 -114q0 -147 -99 -245q-122 -122 -348 -122q-115 0 -208 33zM323 35q-100 -47 -100 -129q0 -116 216 -116q259 0 259 144q0 101 -144 101h-231zM608 913q-81 0 -131.5 -56.5t-50.5 -148.5q0 -70 39 -109.5t110 -39.5q80 0 129 58t49 152
q0 69 -38 106.5t-107 37.5zM533 1202l-153 340h205l94 -145l152 145h211l-281 -340h-228z" />
    <glyph glyph-name="uni01F4" unicode="&#x1f4;" horiz-adv-x="1554" vert-adv-y="2457" 
d="M1121 226q-59 -97 -142 -154q-137 -95 -313 -95q-242 0 -386 164q-150 170 -150 468q0 285 128 506q102 178 269 275q168 97 379 97q282 0 433 -170q42 -49 66.5 -99t51.5 -145l-303 -98q-22 99 -54 152q-66 110 -213 110q-211 0 -326 -206q-101 -181 -101 -427
q0 -381 291 -381q145 0 240 89q94 89 116 231l4 27h-285l45 227h594l-153 -797h-170zM803 1579l139 356h355l-275 -356h-219z" />
    <glyph glyph-name="uni01F5" unicode="&#x1f5;" horiz-adv-x="1145" vert-adv-y="2457" 
d="M372 420q-46 -39 -46 -83q0 -71 97 -71h153q153 0 230 -28q185 -68 185 -257q0 -114 -61 -201t-176 -134q-132 -55 -329 -55q-194 0 -318 53q-165 70 -165 210q0 158 225 228q-92 59 -92 155q0 141 193 238q-121 94 -121 239q0 181 154 292q126 92 306 92q155 0 277 -76
l313 69l-45 -223h-145q20 -54 20 -114q0 -147 -99 -245q-122 -122 -348 -122q-115 0 -208 33zM323 35q-100 -47 -100 -129q0 -116 216 -116q259 0 259 144q0 101 -144 101h-231zM608 913q-81 0 -131.5 -56.5t-50.5 -148.5q0 -70 39 -109.5t110 -39.5q80 0 129 58t49 152
q0 69 -38 106.5t-107 37.5zM553 1202l136 340h354l-271 -340h-219z" />
    <glyph glyph-name="Aringacute" unicode="&#x1fa;" horiz-adv-x="1422" vert-adv-y="2457" 
d="M807 1464q-117 53 -117 186q0 100 69 168q71 72 177 72q91 0 149.5 -57.5t58.5 -147.5q0 -73 -39.5 -132.5t-107.5 -88.5h83l213 -1464h-328l-34 279h-553l-141 -279h-317l791 1464h96zM903 512l-78 649l-329 -649h407zM927 1773q-41 0 -68.5 -33.5t-27.5 -84.5
q0 -42 21 -66.5t56 -24.5q41 0 69 33.5t28 84.5q0 41 -21.5 66t-56.5 25zM427 1718l139 356h354l-274 -356h-219z" />
    <glyph glyph-name="aringacute" unicode="&#x1fb;" horiz-adv-x="1111" vert-adv-y="2457" 
d="M606 129q-110 -152 -282 -152q-118 0 -199 64q-101 81 -101 226q0 288 374 351q116 19 296 25l4 23q5 28 5 54q0 130 -146 130t-293 -90l-107 209q93 59 172 86q125 43 280 43q400 0 400 -325q0 -57 -16 -139l-84 -433q-13 -66 -13 -106q0 -48 13 -83v-12h-295
q-10 53 -10 95q0 13 2 34zM659 465q-128 -5 -194 -22q-134 -32 -134 -147q0 -102 111 -102q75 0 129.5 47.5t68.5 125.5zM704 1611q91 0 149.5 -57t58.5 -148q0 -101 -70.5 -170t-174.5 -69q-92 0 -151 57.5t-59 146.5q0 102 71 171t176 69zM694 1494q-41 0 -68.5 -33.5
t-27.5 -84.5q0 -41 21 -65.5t56 -24.5q42 0 70 33.5t28 83.5q0 41 -21.5 66t-57.5 25zM223 1474l139 356h355l-275 -356h-219z" />
    <glyph glyph-name="AEacute" unicode="&#x1fc;" horiz-adv-x="2042" vert-adv-y="2457" 
d="M-56 0l1042 1464h1110l-47 -250h-635l-67 -350h471l-47 -238h-471l-72 -376h666l-47 -250h-983l57 299h-447l-204 -299h-326zM1095 1200l-459 -665h330zM1076 1579l139 356h355l-275 -356h-219z" />
    <glyph glyph-name="aeacute" unicode="&#x1fd;" horiz-adv-x="1726" vert-adv-y="2457" 
d="M726 193q-77 -114 -167 -164q-94 -52 -213 -52q-137 0 -220.5 78.5t-83.5 207.5q0 236 232 314q158 54 380 54h52l8 41q6 31 6 61q0 115 -146 115q-152 0 -299 -88l-106 209q107 68 214.5 98.5t245.5 30.5q122 0 196.5 -33.5t123.5 -110.5q151 144 350 144q134 0 232 -56
q143 -82 143 -258q0 -189 -178 -269q-147 -67 -514 -75v-28q0 -109 41.5 -158.5t131.5 -49.5q74 0 128.5 27t124.5 99l180 -154q-73 -81 -148 -124q-130 -75 -305 -75q-151 0 -250 52t-159 164zM1007 623q215 0 300.5 31t85.5 111q0 50 -34 79t-94 29q-188 0 -258 -250z
M673 453h-43q-144 0 -213.5 -38.5t-69.5 -117.5q0 -102 110 -102q76 0 130.5 47t68.5 125zM841 1202l136 340h354l-271 -340h-219z" />
    <glyph glyph-name="Oslashacute" unicode="&#x1fe;" horiz-adv-x="1555" vert-adv-y="2457" 
d="M1411 1215q94 -157 94 -379q0 -270 -129 -491q-103 -177 -267 -273q-164 -95 -366 -95q-249 0 -415 141l-116 -118h-238l244 248q-91 157 -91 375q0 174 51.5 332t146.5 273q213 259 552 259q255 0 423 -141l116 118h241zM1166 966l-631 -638q81 -99 221 -99
q203 0 314 200q103 184 103 428q0 53 -7 109zM466 499l631 641q-81 95 -215 95q-182 0 -295 -162q-59 -84 -93.5 -209.5t-34.5 -254.5q0 -53 7 -110zM872 1579l139 356h355l-275 -356h-219z" />
    <glyph glyph-name="oslashacute" unicode="&#x1ff;" horiz-adv-x="1196" vert-adv-y="2457" 
d="M243 81l-82 -81h-209l198 194q-67 114 -67 278q0 140 48.5 265.5t136.5 211.5q152 149 383 149q188 0 315 -105l80 78h209l-196 -191q66 -123 66 -274q0 -142 -48.5 -267t-137.5 -211q-156 -151 -387 -151q-188 0 -309 104zM429 262q44 -60 134 -60q143 0 214 177
q47 118 47 253v17zM780 811q-50 62 -133 62q-141 0 -213 -170q-50 -119 -50 -262v-18zM586 1202l136 340h354l-271 -340h-219z" />
    <glyph glyph-name="Scommaaccent" unicode="&#x218;" horiz-adv-x="1249" vert-adv-y="2457" 
d="M970 1054q-32 77 -69 115q-66 68 -193 68q-100 0 -154 -42t-54 -119q0 -69 49.5 -107.5t212.5 -96.5q187 -65 271 -139q123 -106 123 -287q0 -205 -143 -333q-153 -136 -430 -136q-464 0 -582 383l295 103q22 -81 54 -126q78 -110 249 -110q94 0 155 35q80 46 80 141
q0 71 -49.5 111.5t-202.5 95.5q-191 69 -275 145q-116 105 -116 281q0 186 120 306q145 145 410 145q406 0 527 -324zM308 -557l25 108q132 23 153 105q-53 6 -85 40t-32 86q0 59 41.5 97.5t104.5 38.5q65 0 105 -44.5t40 -117.5q0 -138 -94 -224q-48 -44 -105.5 -63.5
t-152.5 -25.5z" />
    <glyph glyph-name="scommaaccent" unicode="&#x219;" horiz-adv-x="1032" vert-adv-y="2457" 
d="M820 754q-53 60 -123.5 93.5t-142.5 33.5q-121 0 -121 -91q0 -44 30.5 -67t137.5 -61q146 -53 220 -118q89 -80 89 -210q0 -167 -118.5 -262t-325.5 -95q-319 0 -480 195l166 184q121 -158 306 -158q149 0 149 98q0 48 -46 76q-28 16 -142 58q-275 99 -275 320
q0 194 158 286q107 62 269 62q134 0 233.5 -40t187.5 -128zM169 -557l25 108q132 23 153 105q-53 6 -85 40t-32 86q0 59 41.5 97.5t104.5 38.5q65 0 105 -44.5t40 -117.5q0 -138 -94 -224q-48 -44 -105.5 -63.5t-152.5 -25.5z" />
    <glyph glyph-name="uni021A" unicode="&#x21a;" horiz-adv-x="1266" vert-adv-y="2457" 
d="M371 0l235 1214h-393l49 250h1103l-48 -250h-393l-234 -1214h-319zM292 -557l25 108q132 23 153 105q-53 6 -85 40t-32 86q0 59 41.5 97.5t104.5 38.5q65 0 105 -44.5t40 -117.5q0 -138 -94 -224q-48 -44 -105.5 -63.5t-152.5 -25.5z" />
    <glyph glyph-name="uni021B" unicode="&#x21b;" horiz-adv-x="819" vert-adv-y="2457" 
d="M116 840l45 231h141l43 217l324 107l-64 -324h216l-46 -231h-215l-90 -477q-6 -31 -6 -54q0 -80 74 -80q43 0 102 29l62 -211q-111 -70 -266 -70q-149 0 -224 83q-61 67 -61 182q0 44 8 86l98 512h-141zM123 -557l25 108q132 23 153 105q-53 6 -85 40t-32 86
q0 59 41.5 97.5t104.5 38.5q65 0 105 -44.5t40 -117.5q0 -138 -94 -224q-48 -44 -105.5 -63.5t-152.5 -25.5z" />
    <glyph glyph-name="uni0226" unicode="&#x226;" horiz-adv-x="1422" vert-adv-y="2457" 
d="M931 279h-553l-141 -279h-317l791 1464h369l213 -1464h-328zM903 512l-78 649l-329 -649h407zM927 1890q61 0 101.5 -39.5t40.5 -100.5q0 -71 -50.5 -122t-120.5 -51q-61 0 -100.5 40.5t-39.5 102.5q0 69 50 119.5t119 50.5z" />
    <glyph glyph-name="uni0227" unicode="&#x227;" horiz-adv-x="1111" vert-adv-y="2457" 
d="M606 129q-110 -152 -282 -152q-118 0 -199 64q-101 81 -101 226q0 288 374 351q116 19 296 25l4 23q5 28 5 54q0 130 -146 130t-293 -90l-107 209q93 59 172 86q125 43 280 43q400 0 400 -325q0 -57 -16 -139l-84 -433q-13 -66 -13 -106q0 -48 13 -83v-12h-295
q-10 53 -10 95q0 13 2 34zM659 465q-128 -5 -194 -22q-134 -32 -134 -147q0 -102 111 -102q75 0 129.5 47.5t68.5 125.5zM704 1546q61 0 101.5 -39.5t40.5 -100.5q0 -71 -50.5 -122t-120.5 -51q-61 0 -100.5 40.5t-39.5 102.5q0 69 50 119.5t119 50.5z" />
    <glyph glyph-name="uni0237" unicode="&#x237;" horiz-adv-x="600" vert-adv-y="2457" 
d="M563 1071l-224 -1143q-62 -319 -365 -319q-126 0 -202 55l86 217q43 -22 80 -22q85 0 106 108l215 1104h304z" />
    <glyph glyph-name="uni0259" unicode="&#x259;" horiz-adv-x="1131" vert-adv-y="2457" 
d="M169 899q92 103 201 151t253 48q230 0 350 -133q105 -116 105 -320q0 -145 -49 -273t-140 -220q-173 -175 -426 -175q-138 0 -235 56q-147 84 -147 259q0 255 358 323q118 23 338 28v21q0 207 -173 207q-74 0 -129 -27.5t-124 -98.5zM755 461q-208 0 -298.5 -34.5
t-90.5 -113.5q0 -52 33.5 -81.5t91.5 -29.5q191 0 264 259z" />
    <glyph glyph-name="afii57929" unicode="&#x2bc;" horiz-adv-x="553" vert-adv-y="2457" 
d="M428 1233q-62 10 -96.5 48.5t-34.5 97.5q0 71 50.5 119t126.5 48q74 0 117 -49t43 -134q0 -160 -105 -267q-57 -58 -126 -85.5t-176 -35.5l24 127q146 25 177 131z" />
    <glyph glyph-name="uni02C9" unicode="&#x2c9;" vert-adv-y="2457" 
d="M399 1290l41 207h516l-39 -207h-518z" />
    <glyph glyph-name="uni0309" unicode="&#x309;" vert-adv-y="2457" 
d="M731 1531h-142l31 158l24 3q66 10 82.5 21t16.5 46q0 17 -22 17q-44 0 -68 -9.5t-122 -64.5l-48 110q162 97 259 97q70 0 114 -39.5t44 -101.5q0 -70 -41.5 -116.5t-116.5 -61.5z" />
    <glyph glyph-name="uni037E" unicode="&#x37e;" horiz-adv-x="616" vert-adv-y="2457" 
d="M-37 -346l31 147q167 32 210 201q-71 10 -110.5 53.5t-39.5 112.5q0 81 57 135.5t142 54.5q82 0 131 -54.5t49 -147.5q0 -90 -33.5 -181.5t-90.5 -158.5q-65 -77 -144.5 -114t-201.5 -48zM377 950q74 0 123.5 -49t49.5 -121q0 -87 -61 -148t-148 -61q-74 0 -123 48.5
t-49 122.5q0 86 61 147t147 61z" />
    <glyph glyph-name="tonos" unicode="&#x384;" horiz-adv-x="1001" vert-adv-y="2457" 
d="M862 1573l-103 -354h-253l35 354h321z" />
    <glyph glyph-name="dieresistonos" unicode="&#x385;" vert-adv-y="2457" 
d="M828 1573l-103 -354h-206l35 354h274zM324 1505q51 0 85 -33.5t34 -84.5q0 -60 -44.5 -105t-104.5 -45q-52 0 -85.5 34t-33.5 87q0 60 44 103.5t105 43.5zM1012 1505q52 0 85.5 -33.5t33.5 -84.5q0 -60 -44 -105t-104 -45q-52 0 -85 33.5t-33 86.5q0 61 43.5 104.5
t103.5 43.5z" />
    <glyph glyph-name="Alphatonos" unicode="&#x386;" horiz-adv-x="1463" vert-adv-y="2457" 
d="M972 279h-553l-141 -279h-317l791 1464h369l213 -1464h-328zM944 512l-78 649l-329 -649h407zM124 1038l49 426h322l-118 -426h-253z" />
    <glyph glyph-name="uni0387" unicode="&#x387;" horiz-adv-x="616" vert-adv-y="2457" 
d="M351 858q73 0 123 -49.5t50 -122.5q0 -87 -61.5 -147t-149.5 -60q-73 0 -121.5 48.5t-48.5 120.5q0 87 61 148.5t147 61.5z" />
    <glyph glyph-name="Epsilontonos" unicode="&#x388;" horiz-adv-x="1511" vert-adv-y="2457" 
d="M318 0l284 1464h965l-47 -250h-651l-68 -350h487l-47 -238h-487l-72 -376h682l-47 -250h-999zM100 1038l49 426h322l-118 -426h-253z" />
    <glyph glyph-name="Etatonos" unicode="&#x389;" horiz-adv-x="1738" vert-adv-y="2457" 
d="M318 0l284 1464h322l-117 -598h508l117 598h321l-284 -1464h-322l121 606h-510l-119 -606h-321zM100 1038l49 426h322l-118 -426h-253z" />
    <glyph glyph-name="Iotatonos" unicode="&#x38a;" horiz-adv-x="917" vert-adv-y="2457" 
d="M318 0l284 1464h320l-285 -1464h-319zM100 1038l49 426h322l-118 -426h-253z" />
    <glyph glyph-name="Omicrontonos" unicode="&#x38c;" horiz-adv-x="1828" vert-adv-y="2457" 
d="M1153 1487q305 0 476 -196q150 -171 150 -452q0 -273 -129 -494q-102 -177 -267 -273q-164 -95 -373 -95q-271 0 -437 167q-172 173 -172 478q0 211 76 400q87 216 274 345q172 120 402 120zM1156 1235q-182 0 -295 -162q-60 -86 -94 -211.5t-34 -258.5q0 -181 78 -277.5
t224 -96.5q130 0 230 95q90 87 139 243q43 137 43 293q0 214 -100 307q-73 68 -191 68zM100 1038l49 426h322l-118 -426h-253z" />
    <glyph glyph-name="Upsilontonos" unicode="&#x38e;" horiz-adv-x="1669" vert-adv-y="2457" 
d="M750 0l119 612l-310 852h336l193 -575l393 575h332l-629 -868l-115 -596h-319zM100 1038l49 426h322l-118 -426h-253z" />
    <glyph glyph-name="Omegatonos" unicode="&#x38f;" horiz-adv-x="1882" vert-adv-y="2457" 
d="M242 0l44 225h262q-159 162 -159 420q0 206 90 391q111 228 307 346q175 105 410 105q305 0 476 -175q163 -168 163 -445q0 -200 -83 -364t-242 -278h263l-44 -225h-645l45 225q122 39 206 137q74 87 116 208q52 151 52 309q0 167 -77 259q-81 97 -241 97
q-241 0 -367 -238q-97 -184 -97 -419q0 -145 43.5 -229.5t138.5 -123.5l-44 -225h-617zM100 1038l49 426h322l-118 -426h-253z" />
    <glyph glyph-name="iotadieresistonos" unicode="&#x390;" horiz-adv-x="637" vert-adv-y="2457" 
d="M558 1071l-132 -681q-19 -71 -19 -98q0 -33 17 -46.5t59 -13.5q27 0 68 5l-46 -237q-86 -10 -145 -10q-262 0 -262 212q0 62 24 188l133 681h303zM640 1573l-103 -354h-206l35 354h274zM136 1505q51 0 85 -33.5t34 -84.5q0 -60 -44.5 -105t-104.5 -45q-52 0 -85.5 34
t-33.5 87q0 60 44 103.5t105 43.5zM824 1505q52 0 85.5 -33.5t33.5 -84.5q0 -60 -44 -105t-104 -45q-52 0 -85 33.5t-33 86.5q0 61 43.5 104.5t103.5 43.5z" />
    <glyph glyph-name="Alpha" unicode="&#x391;" horiz-adv-x="1422" vert-adv-y="2457" 
d="M931 279h-553l-141 -279h-317l791 1464h369l213 -1464h-328zM903 512l-78 649l-329 -649h407z" />
    <glyph glyph-name="Beta" unicode="&#x392;" horiz-adv-x="1384" vert-adv-y="2457" 
d="M60 0l285 1464h506q119 0 188.5 -13t132.5 -48q168 -91 168 -296q0 -134 -65 -219t-211 -141q96 -32 147 -86q78 -83 78 -223q0 -197 -131 -313q-141 -125 -410 -125h-688zM422 244h308q131 0 196 68q54 57 54 150q0 86 -50 132.5t-143 46.5h-287zM543 866h252
q240 0 240 202q0 80 -46 116t-146 36h-230z" />
    <glyph glyph-name="Gamma" unicode="&#x393;" horiz-adv-x="1116" vert-adv-y="2457" 
d="M60 0l285 1464h896l-50 -252h-574l-235 -1212h-322z" />
    <glyph glyph-name="uni0394" unicode="&#x394;" horiz-adv-x="1414" vert-adv-y="2457" 
d="M-80 0l777 1464h385l203 -1464h-1365zM345 244h586l-110 933z" />
    <glyph glyph-name="Epsilon" unicode="&#x395;" horiz-adv-x="1253" vert-adv-y="2457" 
d="M60 0l285 1464h964l-47 -250h-651l-68 -350h488l-47 -238h-488l-71 -376h682l-48 -250h-999z" />
    <glyph glyph-name="Zeta" unicode="&#x396;" horiz-adv-x="1264" vert-adv-y="2457" 
d="M7 0l51 270l848 944h-631l49 250h1002l-51 -272l-838 -936h666l-52 -256h-1044z" />
    <glyph glyph-name="Eta" unicode="&#x397;" horiz-adv-x="1481" vert-adv-y="2457" 
d="M60 0l285 1464h321l-117 -598h508l117 598h322l-285 -1464h-322l121 606h-510l-118 -606h-322z" />
    <glyph glyph-name="Theta" unicode="&#x398;" horiz-adv-x="1575" vert-adv-y="2457" 
d="M556 622l47 244h498l-48 -244h-497zM900 1487q300 0 474 -196q153 -172 153 -455q0 -272 -130 -491q-104 -177 -270 -273q-166 -95 -372 -95q-282 0 -451 167q-176 174 -176 481q0 210 76 397q89 216 278 346q174 119 418 119zM889 1235q-184 0 -300 -162
q-60 -85 -94.5 -208.5t-34.5 -255.5q0 -214 107 -310q79 -70 201 -70q209 0 324 200q103 181 103 426q0 380 -306 380z" />
    <glyph glyph-name="Iota" unicode="&#x399;" horiz-adv-x="670" vert-adv-y="2457" 
d="M71 0l285 1464h319l-285 -1464h-319z" />
    <glyph glyph-name="Kappa" unicode="&#x39a;" horiz-adv-x="1401" vert-adv-y="2457" 
d="M60 0l285 1464h319l-125 -637l594 637h359l-611 -629l363 -835h-340l-269 606l-172 -170l-84 -436h-319z" />
    <glyph glyph-name="Lambda" unicode="&#x39b;" horiz-adv-x="1349" vert-adv-y="2457" 
d="M-79 0l751 1464h370l177 -1464h-329l-106 1157l-555 -1157h-308z" />
    <glyph glyph-name="Mu" unicode="&#x39c;" horiz-adv-x="1831" vert-adv-y="2457" 
d="M60 0l285 1464h428l110 -1005l510 1005h447l-285 -1464h-311l200 1048l-538 -1048h-236l-125 1048l-204 -1048h-281z" />
    <glyph glyph-name="Nu" unicode="&#x39d;" horiz-adv-x="1495" vert-adv-y="2457" 
d="M60 0l285 1464h348l332 -1005l196 1005h289l-285 -1464h-336l-340 1024l-200 -1024h-289z" />
    <glyph glyph-name="Xi" unicode="&#x39e;" horiz-adv-x="1233" vert-adv-y="2457" 
d="M6 0l50 252h1012l-50 -252h-1012zM241 1212l50 252h1011l-50 -252h-1011zM241 616l48 252h782l-49 -252h-781z" />
    <glyph glyph-name="Omicron" unicode="&#x39f;" horiz-adv-x="1554" vert-adv-y="2457" 
d="M879 1487q305 0 476 -196q150 -171 150 -452q0 -273 -129 -494q-102 -177 -267 -273q-164 -95 -373 -95q-271 0 -437 167q-172 173 -172 478q0 211 76 400q88 216 274 345q172 120 402 120zM882 1235q-182 0 -295 -162q-60 -86 -94 -211t-34 -259q0 -181 77.5 -277.5
t224.5 -96.5q131 0 230 95q90 87 139 243q43 137 43 293q0 214 -100 307q-73 68 -191 68z" />
    <glyph glyph-name="Pi" unicode="&#x3a0;" horiz-adv-x="1438" vert-adv-y="2457" 
d="M59 0l235 1212h-120l49 252h1348l-50 -252h-114l-235 -1212h-322l235 1212h-470l-234 -1212h-322z" />
    <glyph glyph-name="Rho" unicode="&#x3a1;" horiz-adv-x="1335" vert-adv-y="2457" 
d="M60 0l285 1464h519q195 0 308 -70q178 -110 178 -353q0 -261 -190 -396q-84 -59 -183 -83t-260 -24h-233l-105 -538h-319zM529 776h240q144 0 213 77q59 66 59 179q0 186 -193 186h-233z" />
    <glyph glyph-name="Sigma" unicode="&#x3a3;" horiz-adv-x="1244" vert-adv-y="2457" 
d="M-13 0l57 287l475 475l-269 442l52 260h1016l-49 -250h-691l280 -465l-492 -499h758l-50 -250h-1087z" />
    <glyph glyph-name="Tau" unicode="&#x3a4;" horiz-adv-x="1266" vert-adv-y="2457" 
d="M371 0l235 1214h-393l49 250h1103l-48 -250h-393l-234 -1214h-319z" />
    <glyph glyph-name="Upsilon" unicode="&#x3a5;" horiz-adv-x="1325" vert-adv-y="2457" 
d="M406 0l119 612l-309 852h336l192 -575l394 575h331l-628 -868l-115 -596h-320z" />
    <glyph glyph-name="Phi" unicode="&#x3a6;" horiz-adv-x="1789" vert-adv-y="2457" 
d="M636 -55l29 152q-191 30 -309 115q-110 79 -171 198q-62 123 -62 268q0 117 42 230.5t117 200.5q104 119 255.5 184.5t377.5 86.5l27 140h288l-30 -152q189 -30 310 -115q110 -77 171 -198q62 -122 62 -268q0 -247 -159 -428q-72 -82 -179 -143.5t-225 -88.5
q-96 -22 -228 -36l-28 -146h-288zM999 331q148 27 237 93q83 63 132.5 169t49.5 222q0 256 -264 315zM712 336l155 798q-148 -27 -237 -93q-83 -63 -132.5 -169t-49.5 -221q0 -261 264 -315z" />
    <glyph glyph-name="Chi" unicode="&#x3a7;" horiz-adv-x="1427" vert-adv-y="2457" 
d="M-46 0l614 770l-295 694h361l174 -477l338 477h354l-555 -719l322 -745h-357l-200 536l-400 -536h-356z" />
    <glyph glyph-name="Psi" unicode="&#x3a8;" horiz-adv-x="1836" vert-adv-y="2457" 
d="M655 0l61 313h-59q-250 0 -370 127q-113 119 -113 320q0 119 35 297l79 407h322l-98 -502q-19 -96 -19 -199q0 -102 49.5 -150t156.5 -48h66l175 899h317l-175 -899h73q150 0 223 81q62 70 95 235l113 583h322l-126 -647q-81 -506 -613 -504h-136l-61 -313h-317z" />
    <glyph glyph-name="uni03A9" unicode="&#x3a9;" horiz-adv-x="1614" vert-adv-y="2457" 
d="M-26 0l44 225h262q-159 161 -159 420q0 206 90 391q111 228 307 346q175 105 410 105q305 0 476 -175q163 -168 163 -445q0 -200 -83 -364t-242 -278h263l-44 -225h-645l45 225q122 39 206 137q74 86 116 208q52 151 52 309q0 167 -77 259q-81 97 -241 97
q-241 0 -367 -238q-97 -184 -97 -419q0 -145 43.5 -229.5t138.5 -123.5l-44 -225h-617z" />
    <glyph glyph-name="Iotadieresis" unicode="&#x3aa;" horiz-adv-x="670" vert-adv-y="2457" 
d="M71 0l285 1464h319l-285 -1464h-319zM347 1890q62 0 102.5 -39.5t40.5 -100.5q0 -71 -50.5 -122t-121.5 -51q-61 0 -101.5 40.5t-40.5 102.5q0 69 51 119.5t120 50.5zM771 1890q61 0 101 -40t40 -100q0 -71 -50.5 -122t-121.5 -51q-60 0 -99 40t-39 102q0 70 50 120.5
t119 50.5z" />
    <glyph glyph-name="Upsilondieresis" unicode="&#x3ab;" horiz-adv-x="1325" vert-adv-y="2457" 
d="M406 0l119 612l-309 852h336l192 -575l394 575h331l-628 -868l-115 -596h-320zM675 1890q61 0 101.5 -39.5t40.5 -100.5q0 -71 -50.5 -122t-121.5 -51q-60 0 -100.5 40.5t-40.5 102.5q0 69 51 119.5t120 50.5zM1098 1890q61 0 101 -39.5t40 -100.5q0 -71 -50.5 -122
t-120.5 -51q-60 0 -99 40t-39 102q0 70 50 120.5t118 50.5z" />
    <glyph glyph-name="alphatonos" unicode="&#x3ac;" horiz-adv-x="1206" vert-adv-y="2457" 
d="M1167 1071l-208 -1071h-303l29 150q-123 -173 -303 -173q-137 0 -220 92q-45 50 -71 133.5t-26 181.5q0 127 35 256.5t96 226.5q145 231 375 231q200 0 266 -169l27 142h303zM639 873q-115 0 -190 -153q-33 -66 -54 -161t-21 -177t35.5 -127t98.5 -45q126 0 204 145
q31 59 52.5 150.5t21.5 168.5q0 122 -64 173q-32 26 -83 26zM953 1573l-103 -354h-253l35 354h321z" />
    <glyph glyph-name="epsilontonos" unicode="&#x3ad;" horiz-adv-x="1096" vert-adv-y="2457" 
d="M424 639h389l-36 -182h-389q-8 -30 -8 -59q0 -94 52 -144t149 -50q72 0 128.5 25.5t121.5 86.5l166 -157q-173 -182 -445 -182q-231 0 -358 121q-123 118 -123 333q0 136 46 262.5t130 219.5q166 185 427 185q298 0 423 -220l-197 -139q-47 74 -96.5 104t-123.5 30
q-177 0 -256 -234zM937 1573l-103 -354h-253l35 354h321z" />
    <glyph glyph-name="etatonos" unicode="&#x3ae;" horiz-adv-x="1218" vert-adv-y="2457" 
d="M38 0l208 1071h305l-34 -173q59 88 120 132q94 68 217 68q127 0 198 -81q69 -78 69 -209q0 -56 -16 -137l-203 -1044h-304l194 995q10 55 10 105q0 123 -119 123q-85 0 -142.5 -63t-80.5 -182l-117 -605h-305zM958 1573l-103 -354h-253l35 354h321z" />
    <glyph glyph-name="iotatonos" unicode="&#x3af;" horiz-adv-x="637" vert-adv-y="2457" 
d="M559 1071l-132 -681q-19 -71 -19 -98q0 -33 17 -46.5t59 -13.5q27 0 68 5l-46 -237q-86 -10 -145 -10q-262 0 -262 212q0 62 24 188l133 681h303zM662 1573l-103 -354h-253l35 354h321z" />
    <glyph glyph-name="upsilondieresistonos" unicode="&#x3b0;" horiz-adv-x="1191" vert-adv-y="2457" 
d="M246 1071h303l-118 -608q-13 -66 -13 -131q0 -130 118 -130q145 0 190 231l124 638h303l-138 -708q-37 -191 -137 -279q-122 -107 -355 -107q-203 0 -302 83q-102 85 -102 259q0 99 25 227zM912 1573l-103 -354h-206l35 354h274zM408 1505q51 0 85 -33.5t34 -84.5
q0 -60 -44.5 -105t-104.5 -45q-52 0 -85.5 34t-33.5 87q0 60 44 103.5t105 43.5zM1096 1505q52 0 85.5 -33.5t33.5 -84.5q0 -60 -44 -105t-104 -45q-52 0 -85 33.5t-33 86.5q0 61 43.5 104.5t103.5 43.5z" />
    <glyph glyph-name="alpha" unicode="&#x3b1;" horiz-adv-x="1206" vert-adv-y="2457" 
d="M1167 1071l-208 -1071h-303l29 150q-123 -173 -303 -173q-137 0 -220 92q-45 50 -71 133.5t-26 181.5q0 127 35 256.5t96 226.5q145 231 375 231q200 0 266 -169l27 142h303zM639 873q-115 0 -190 -153q-33 -66 -54 -161t-21 -177t35.5 -127t98.5 -45q126 0 204 145
q31 59 52.5 150.5t21.5 168.5q0 122 -64 173q-32 26 -83 26z" />
    <glyph glyph-name="beta" unicode="&#x3b2;" horiz-adv-x="1259" vert-adv-y="2457" 
d="M-31 -379l277 1426q33 169 56 233t72 124q131 159 403 159q204 0 314 -93q105 -89 105 -239q0 -251 -286 -337q101 -35 152 -82q107 -99 107 -277q0 -110 -41 -225t-109 -194q-119 -139 -324 -139q-129 0 -214 38l43 222q52 -35 109 -35q105 0 165 115q62 118 62 271
q0 98 -49.5 145.5t-153.5 47.5h-13l39 202q103 4 152 41q85 62 85 191q0 141 -142 141q-103 0 -160 -88q-37 -59 -62 -186l-284 -1461h-303z" />
    <glyph glyph-name="gamma" unicode="&#x3b3;" horiz-adv-x="1053" vert-adv-y="2457" 
d="M204 -379l74 378l-166 1072h310l83 -706l344 706h301l-568 -1072l-74 -378h-304z" />
    <glyph glyph-name="delta" unicode="&#x3b4;" horiz-adv-x="1184" vert-adv-y="2457" 
d="M442 1032q-43 50 -59.5 91.5t-16.5 103.5q0 162 118 258q102 84 279 84q249 0 427 -168l-172 -176q-51 60 -117 93.5t-134 33.5q-113 0 -113 -110q0 -60 45 -98q24 -20 143 -86q83 -45 128.5 -86t77.5 -96q59 -106 59 -262q0 -266 -144 -442q-160 -195 -421 -195
q-232 0 -359 159q-106 133 -106 331q0 197 95.5 345t269.5 220zM635 872q-132 0 -200 -170q-49 -122 -49 -271q0 -229 164 -229q135 0 202 177q46 121 46 264q0 229 -163 229z" />
    <glyph glyph-name="epsilon" unicode="&#x3b5;" horiz-adv-x="1096" vert-adv-y="2457" 
d="M424 639h389l-36 -182h-389q-8 -30 -8 -59q0 -94 52 -144t149 -50q72 0 128.5 25.5t121.5 86.5l166 -157q-173 -182 -445 -182q-231 0 -358 121q-123 118 -123 333q0 136 46 262.5t130 219.5q166 185 427 185q298 0 423 -220l-197 -139q-47 74 -96.5 104t-123.5 30
q-177 0 -256 -234z" />
    <glyph glyph-name="zeta" unicode="&#x3b6;" horiz-adv-x="931" vert-adv-y="2457" 
d="M319 1317l46 225h704l-45 -225q-263 -231 -380 -368q-259 -305 -259 -588q0 -81 34 -115.5t125 -48.5q75 -10 116.5 -29t72.5 -56q56 -67 56 -174q0 -141 -101 -311h-266q91 162 91 251q0 61 -36 86q-20 14 -100 23q-138 17 -206 83q-95 92 -95 268q0 173 80.5 333
t250.5 325q118 114 399 321h-487z" />
    <glyph glyph-name="eta" unicode="&#x3b7;" horiz-adv-x="1218" vert-adv-y="2457" 
d="M38 0l208 1071h305l-34 -173q59 88 120 132q94 68 217 68q127 0 198 -81q69 -78 69 -209q0 -56 -16 -137l-203 -1044h-304l194 995q10 55 10 105q0 123 -119 123q-85 0 -142.5 -63t-80.5 -182l-117 -605h-305z" />
    <glyph glyph-name="theta" unicode="&#x3b8;" horiz-adv-x="1234" vert-adv-y="2457" 
d="M780 1561q120 0 221 -66q103 -68 158 -199.5t55 -311.5q0 -194 -57.5 -392t-156.5 -340q-188 -275 -449 -275q-107 0 -196 47t-146 134q-99 152 -99 393q0 191 58.5 392t156.5 344q187 274 455 274zM864 692h-435q-20 -133 -20 -217q0 -129 42 -203q41 -70 117 -70
q189 0 296 490zM901 895q14 123 14 174q0 127 -43 200q-38 67 -114 67q-129 0 -227 -242q-31 -77 -61 -199h431z" />
    <glyph glyph-name="iota" unicode="&#x3b9;" horiz-adv-x="637" vert-adv-y="2457" 
d="M559 1071l-132 -681q-19 -71 -19 -98q0 -33 17 -46.5t59 -13.5q27 0 68 5l-46 -237q-86 -10 -145 -10q-262 0 -262 212q0 62 24 188l133 681h303z" />
    <glyph glyph-name="kappa" unicode="&#x3ba;" horiz-adv-x="1143" vert-adv-y="2457" 
d="M395 276l-54 -276h-303l208 1071h303l-85 -438l431 438h336l-432 -411l269 -660h-320l-181 442z" />
    <glyph glyph-name="lambda" unicode="&#x3bb;" horiz-adv-x="1116" vert-adv-y="2457" 
d="M-84 0l619 1115l-55 427h306l202 -1542h-315l-83 732l-373 -732h-301z" />
    <glyph glyph-name="uni03BC" unicode="&#x3bc;" horiz-adv-x="1214" vert-adv-y="2457" 
d="M-35 -373l281 1444h303l-125 -644q-10 -51 -10 -90q0 -120 116 -120q83 0 140.5 62t79.5 174l120 618h305l-209 -1071h-304l34 174q-122 -188 -331 -188q-7 0 -26 3l-70 -362h-304z" />
    <glyph glyph-name="nu" unicode="&#x3bd;" horiz-adv-x="1077" vert-adv-y="2457" 
d="M269 0l-145 1071h315l66 -741l350 741h305l-557 -1071h-334z" />
    <glyph glyph-name="xi" unicode="&#x3be;" horiz-adv-x="963" vert-adv-y="2457" 
d="M282 1317l45 225h767l-46 -225h-85q-184 0 -275 -54q-54 -31 -84.5 -82t-30.5 -109q0 -95 64 -137q43 -28 145 -28h134l-45 -225h-181q-87 0 -133 -13t-85 -48q-46 -42 -74 -110.5t-28 -140.5q0 -88 41 -129q18 -19 44.5 -28t89.5 -18q134 -18 191 -84q60 -69 60 -176
q0 -140 -102 -308h-266q57 103 74.5 150.5t17.5 100.5q0 52 -25.5 74.5t-92.5 30.5q-93 11 -140.5 26t-86.5 46q-114 90 -114 275q0 214 143 347q86 80 249 129q-62 28 -91 47q-88 59 -88 172q0 129 134 210q79 48 205 82h-331z" />
    <glyph glyph-name="omicron" unicode="&#x3bf;" horiz-adv-x="1196" vert-adv-y="2457" 
d="M645 1098q218 0 346 -134q128 -135 128 -359q0 -141 -48.5 -266t-137.5 -211q-156 -151 -387 -151q-213 0 -341 134q-128 135 -128 366q0 136 49 261t136 211q150 149 383 149zM641 873q-135 0 -205 -170q-50 -122 -50 -269q0 -232 171 -232q137 0 206 177q47 121 47 265
q0 112 -42 169q-45 60 -127 60z" />
    <glyph glyph-name="rho" unicode="&#x3c1;" horiz-adv-x="1216" vert-adv-y="2457" 
d="M90 -373q-40 210 -40 461q0 471 142 720q85 152 230 229q114 61 255 61q207 0 333 -121q134 -129 134 -349q0 -155 -63 -303q-79 -186 -234 -277q-120 -71 -260 -71q-151 0 -261 91q16 -252 56 -441h-292zM661 873q-139 0 -215 -164q-64 -135 -64 -306q0 -93 48 -147
t131 -54q131 0 205 153q29 58 49 151t20 166q0 201 -174 201z" />
    <glyph glyph-name="uni03C2" unicode="&#x3c2;" horiz-adv-x="997" vert-adv-y="2457" 
d="M728 -373h-263q88 161 88 257q0 53 -23 71.5t-106 30.5q-153 23 -222 73q-137 99 -137 328q0 154 48 296.5t131 236.5q158 178 386 178q149 0 249.5 -73.5t137.5 -210.5l-242 -106q-26 85 -57 116.5t-89 31.5q-119 0 -188 -147q-29 -60 -48 -152.5t-19 -171.5
q0 -101 52 -147q30 -26 117 -39q99 -14 146 -32t79 -51q61 -67 61 -175q0 -152 -101 -314z" />
    <glyph glyph-name="sigma" unicode="&#x3c3;" horiz-adv-x="1199" vert-adv-y="2457" 
d="M1265 1071l-46 -236l-200 13q74 -97 74 -243q0 -125 -42 -246.5t-115 -204.5q-73 -85 -179 -131q-105 -46 -222 -46q-206 0 -334 126q-130 128 -130 352q0 139 48 265t134 214q84 86 187.5 125t248.5 39q85 0 181 -13q108 -14 153 -14h242zM625 873q-118 0 -186 -146
q-59 -125 -59 -290q0 -235 161 -235q127 0 195 169q48 123 48 275q0 227 -159 227z" />
    <glyph glyph-name="tau" unicode="&#x3c4;" horiz-adv-x="914" vert-adv-y="2457" 
d="M200 0l163 846h-286l45 225h863l-46 -225h-273l-163 -846h-303z" />
    <glyph glyph-name="upsilon" unicode="&#x3c5;" horiz-adv-x="1191" vert-adv-y="2457" 
d="M246 1071h303l-118 -608q-13 -66 -13 -131q0 -130 118 -130q145 0 190 231l124 638h303l-138 -708q-37 -191 -137 -279q-122 -107 -355 -107q-203 0 -302 83q-102 85 -102 259q0 99 25 227z" />
    <glyph glyph-name="phi" unicode="&#x3c6;" horiz-adv-x="1563" vert-adv-y="2457" 
d="M457 -373l70 360q-170 31 -280 115q-179 135 -179 369q0 335 382 528l103 -193q-85 -52 -130.5 -137.5t-45.5 -192.5q0 -213 192 -272l171 879q78 11 141 11q256 0 426 -125q87 -63 134.5 -163t47.5 -219q0 -252 -183 -413t-498 -187l-70 -360h-281zM850 203
q138 30 213 101q55 52 86 130t31 163q0 110 -52 179.5t-149 89.5z" />
    <glyph glyph-name="chi" unicode="&#x3c7;" horiz-adv-x="1077" vert-adv-y="2457" 
d="M-207 -373l546 782l-205 662h322l115 -416l286 416h294l-482 -693l235 -751h-322l-144 510l-351 -510h-294z" />
    <glyph glyph-name="psi" unicode="&#x3c8;" horiz-adv-x="1683" vert-adv-y="2457" 
d="M1650 1071l-110 -568q-32 -163 -62 -236t-92 -136q-137 -139 -385 -139h-119l-71 -365h-295l71 365h-37q-204 0 -312 103t-108 298q0 115 40 319l69 359h303l-94 -487q-19 -97 -19 -185q0 -96 41 -139t134 -43h28l165 854h295l-165 -854h48q120 0 180 75q54 68 85 226
l107 553h303z" />
    <glyph glyph-name="omega" unicode="&#x3c9;" horiz-adv-x="1574" vert-adv-y="2457" 
d="M490 1112l157 -137q-93 -92 -149 -182q-129 -205 -129 -415q0 -93 40 -141q29 -35 72 -35q58 0 95.5 68.5t69.5 234.5l55 286h269l-56 -286q-27 -140 -27 -204q0 -46 25.5 -72.5t68.5 -26.5q94 0 149 111q24 49 39.5 132t15.5 163q0 193 -92 372l178 122
q107 -124 140 -182q83 -151 83 -329q0 -116 -34 -231t-91 -193q-140 -190 -372 -190q-147 0 -218 86q-31 39 -52 102q-58 -98 -131 -143t-174 -45q-180 0 -275 119q-87 109 -87 278q0 131 44.5 261t125.5 237q84 110 260 240z" />
    <glyph glyph-name="iotadieresis" unicode="&#x3ca;" horiz-adv-x="637" vert-adv-y="2457" 
d="M559 1071l-132 -681q-19 -71 -19 -98q0 -33 17 -46.5t59 -13.5q27 0 68 5l-46 -237q-86 -10 -145 -10q-262 0 -262 212q0 62 24 188l133 681h303zM288 1546q61 0 101.5 -39.5t40.5 -100.5q0 -71 -50.5 -122t-121.5 -51q-60 0 -100.5 40.5t-40.5 102.5q0 69 51 119.5
t120 50.5zM711 1546q61 0 101 -39.5t40 -100.5q0 -71 -50.5 -122t-120.5 -51q-60 0 -99 40t-39 102q0 70 50 120.5t118 50.5z" />
    <glyph glyph-name="upsilondieresis" unicode="&#x3cb;" horiz-adv-x="1191" vert-adv-y="2457" 
d="M246 1071h303l-118 -608q-13 -66 -13 -131q0 -130 118 -130q145 0 190 231l124 638h303l-138 -708q-37 -191 -137 -279q-122 -107 -355 -107q-203 0 -302 83q-102 85 -102 259q0 99 25 227zM565 1546q61 0 101.5 -39.5t40.5 -100.5q0 -71 -50.5 -122t-121.5 -51
q-61 0 -101 40.5t-40 102.5q0 69 51 119.5t120 50.5zM988 1546q61 0 101 -39.5t40 -100.5q0 -71 -50.5 -122t-120.5 -51q-60 0 -99 40t-39 102q0 70 50 120.5t118 50.5z" />
    <glyph glyph-name="omicrontonos" unicode="&#x3cc;" horiz-adv-x="1196" vert-adv-y="2457" 
d="M645 1098q218 0 346 -134q128 -135 128 -359q0 -141 -48.5 -266t-137.5 -211q-156 -151 -387 -151q-213 0 -341 134q-128 135 -128 366q0 136 49 261t136 211q150 149 383 149zM641 873q-135 0 -205 -170q-50 -122 -50 -269q0 -232 171 -232q137 0 206 177q47 121 47 265
q0 112 -42 169q-45 60 -127 60zM911 1573l-103 -354h-253l35 354h321z" />
    <glyph glyph-name="upsilontonos" unicode="&#x3cd;" horiz-adv-x="1191" vert-adv-y="2457" 
d="M246 1071h303l-118 -608q-13 -66 -13 -131q0 -130 118 -130q145 0 190 231l124 638h303l-138 -708q-37 -191 -137 -279q-122 -107 -355 -107q-203 0 -302 83q-102 85 -102 259q0 99 25 227zM945 1573l-103 -354h-253l35 354h321z" />
    <glyph glyph-name="omegatonos" unicode="&#x3ce;" horiz-adv-x="1574" vert-adv-y="2457" 
d="M490 1112l157 -137q-93 -92 -149 -182q-129 -205 -129 -415q0 -93 40 -141q29 -35 72 -35q58 0 95.5 68.5t69.5 234.5l55 286h269l-56 -286q-27 -140 -27 -204q0 -46 25.5 -72.5t68.5 -26.5q94 0 149 111q24 49 39.5 132t15.5 163q0 193 -92 372l178 122
q107 -124 140 -182q83 -151 83 -329q0 -116 -34 -231t-91 -193q-140 -190 -372 -190q-147 0 -218 86q-31 39 -52 102q-58 -98 -131 -143t-174 -45q-180 0 -275 119q-87 109 -87 278q0 131 44.5 261t125.5 237q84 110 260 240zM1124 1573l-103 -354h-253l35 354h321z" />
    <glyph glyph-name="phi1" unicode="&#x3d5;" horiz-adv-x="1563" vert-adv-y="2457" 
d="M738 1082l74 384h280l-74 -383q100 -16 190 -57q153 -69 224 -203q57 -107 57 -236q0 -252 -183 -413t-498 -187l-70 -360h-281l70 360q-170 31 -280 115q-179 135 -179 369q0 191 123 337q85 101 229.5 173.5t317.5 100.5zM569 204l128 667q-95 -37 -142 -65t-84 -68
q-94 -102 -94 -262q0 -213 192 -272zM850 203q138 29 213 101q55 52 86 130t31 163q0 110 -52 179.5t-149 89.5z" />
    <glyph glyph-name="uni0400" unicode="&#x400;" horiz-adv-x="1253" vert-adv-y="2457" 
d="M60 0l285 1464h964l-47 -250h-651l-68 -350h488l-47 -238h-488l-71 -376h682l-48 -250h-999zM849 1579l-178 356h332l55 -356h-209z" />
    <glyph glyph-name="afii10023" unicode="&#x401;" horiz-adv-x="1251" vert-adv-y="2457" 
d="M55 0l285 1464h969l-49 -258h-648l-66 -339h483l-49 -245h-482l-71 -364h681l-50 -258h-1003zM656 1893q63 0 104 -40.5t41 -101.5q0 -72 -51.5 -124t-122.5 -52q-62 0 -102.5 41.5t-40.5 103.5q0 71 51 122t121 51zM1082 1893q63 0 103.5 -40.5t40.5 -102.5
q0 -71 -51.5 -123t-122.5 -52q-61 0 -101 41t-40 104q0 70 50.5 121.5t120.5 51.5z" />
    <glyph glyph-name="afii10051" unicode="&#x402;" horiz-adv-x="1561" vert-adv-y="2457" 
d="M549 0h-327l233 1202h-312l51 262h1104l-51 -262h-465l-79 -410q92 83 186 120.5t206 37.5q159 0 241 -80q85 -84 85 -234q0 -118 -43 -349.5t-89 -367.5q-35 -100 -96.5 -161.5t-161.5 -95.5q-99 -33 -283 -37l25 214q56 5 82 15t47 34q58 65 109 292q66 292 66 399
q0 125 -126 125q-151 0 -299 -172z" />
    <glyph glyph-name="afii10052" unicode="&#x403;" horiz-adv-x="1113" vert-adv-y="2457" 
d="M54 0l285 1464h898l-50 -262h-572l-234 -1202h-327zM645 1577l139 356h355l-275 -356h-219z" />
    <glyph glyph-name="afii10053" unicode="&#x404;" horiz-adv-x="1375" vert-adv-y="2457" 
d="M1427 1148l-276 -121q-31 88 -60 121q-71 77 -201 77q-271 0 -391 -366h555l-46 -238h-556q-3 -53 -3 -74q0 -135 63 -214q75 -94 234 -94q106 0 185 40t153 131l228 -170q-218 -263 -598 -263q-264 0 -417 129q-187 158 -187 451q0 243 101 462q87 189 235 311
q190 157 454 157q270 0 414 -142q78 -77 113 -197z" />
    <glyph glyph-name="afii10054" unicode="&#x405;" horiz-adv-x="1250" vert-adv-y="2457" 
d="M1248 1164l-283 -112q-36 80 -67 112q-65 68 -191 68q-97 0 -151.5 -41t-54.5 -114q0 -67 54 -107q34 -26 65 -39.5t182 -70.5q172 -65 252 -146q102 -104 102 -270q0 -198 -134 -323q-155 -144 -434 -144q-234 0 -381.5 95t-211.5 287l303 104q27 -95 64 -138
q79 -93 231 -93q110 0 173 45t63 124q0 70 -48 110t-202 97q-117 44 -172.5 73t-103.5 73q-115 103 -115 277q0 231 175 357q135 97 352 97q274 0 419 -143q64 -63 114 -178z" />
    <glyph glyph-name="afii10055" unicode="&#x406;" horiz-adv-x="665" vert-adv-y="2457" 
d="M64 0l285 1464h328l-285 -1464h-328z" />
    <glyph glyph-name="afii10056" unicode="&#x407;" horiz-adv-x="665" vert-adv-y="2457" 
d="M64 0l285 1464h328l-285 -1464h-328zM341 1888q61 0 101.5 -39.5t40.5 -100.5q0 -71 -50.5 -122t-121.5 -51q-60 0 -100.5 40.5t-40.5 102.5q0 69 51 119.5t120 50.5zM764 1888q61 0 101 -39.5t40 -100.5q0 -71 -50.5 -122t-120.5 -51q-60 0 -99 40t-39 102
q0 70 50 120.5t118 50.5z" />
    <glyph glyph-name="afii10057" unicode="&#x408;" horiz-adv-x="1230" vert-adv-y="2457" 
d="M1260 1464l-202 -1032q-46 -236 -201 -352q-136 -103 -345 -103q-235 0 -354 130q-95 104 -95 273q0 70 20 168h316q-19 -100 -19 -151q0 -158 151 -158q90 0 137.5 53t71.5 181l193 991h327z" />
    <glyph glyph-name="afii10058" unicode="&#x409;" horiz-adv-x="2028" vert-adv-y="2457" 
d="M781 0l235 1206h-373l-53 -272q-57 -289 -144 -524t-203 -410h-353q145 183 225 382q104 263 196 731l70 351h1012l-107 -551h226q112 0 180 -11t126 -38q156 -73 156 -284q0 -124 -46 -243t-124 -193q-80 -78 -187.5 -111t-282.5 -33h-553zM1157 249h230q136 0 201 77
q64 77 64 187q0 78 -44.5 114.5t-140.5 36.5h-230z" />
    <glyph glyph-name="afii10059" unicode="&#x40a;" horiz-adv-x="2144" vert-adv-y="2457" 
d="M666 1464l-108 -551h475l107 551h323l-107 -550h187q258 0 372 -82q65 -47 101.5 -129.5t36.5 -184.5q0 -114 -44 -219.5t-120 -172.5q-78 -69 -180.5 -97.5t-275.5 -28.5h-578l127 651h-475l-126 -651h-327l285 1464h327zM1226 248h226q136 0 203 65q74 72 74 183
q0 91 -46.5 133.5t-145.5 42.5h-228z" />
    <glyph glyph-name="afii10060" unicode="&#x40b;" horiz-adv-x="1563" vert-adv-y="2457" 
d="M551 0h-327l233 1202h-312l51 262h1104l-51 -262h-465l-79 -410q177 158 392 158q154 0 233 -79q84 -84 84 -237q0 -86 -23 -203l-83 -431h-327l85 437q18 95 18 140q0 127 -132 127q-151 0 -298 -172z" />
    <glyph glyph-name="afii10061" unicode="&#x40c;" horiz-adv-x="1325" vert-adv-y="2457" 
d="M54 0l285 1464h327l-118 -606h25q58 0 99.5 43.5t134.5 202.5q131 224 233 295t292 71q36 0 117 -6l-47 -241q-50 3 -84 3q-91 0 -133 -37t-140 -203q-63 -107 -95 -144t-98 -80q64 -34 98 -76q61 -78 114 -231l158 -455h-356l-112 354q-56 179 -92.5 231.5t-105.5 52.5
h-51l-124 -638h-327zM774 1577l139 356h355l-275 -356h-219z" />
    <glyph glyph-name="uni040D" unicode="&#x40d;" horiz-adv-x="1447" vert-adv-y="2457" 
d="M60 0l285 1464h319l-168 -864l627 737l24 127h319l-285 -1464h-319l170 874l-628 -736l-26 -138h-318zM925 1579l-178 356h332l55 -356h-209z" />
    <glyph glyph-name="afii10062" unicode="&#x40e;" horiz-adv-x="1256" vert-adv-y="2457" 
d="M529 403l-347 1061h346l199 -728l381 728h313l-593 -1077q-128 -233 -245 -322t-296 -89q-101 0 -195 24l80 258q64 -20 123 -20q77 0 122.5 28.5t92.5 105.5zM502 1910h201q2 -60 16 -85q28 -48 110 -48q67 0 101 31t44 102h200q-16 -129 -61 -197q-86 -132 -284 -132
q-206 0 -286 130q-40 65 -41 199z" />
    <glyph glyph-name="afii10145" unicode="&#x40f;" horiz-adv-x="1415" vert-adv-y="2457" 
d="M54 0l285 1464h327l-235 -1206h443l235 1206h327l-285 -1464h-400l-100 -356h-235l38 356h-400z" />
    <glyph glyph-name="afii10017" unicode="&#x410;" horiz-adv-x="1405" vert-adv-y="2457" 
d="M1273 0h-335l-32 287h-529l-142 -287h-311l766 1464h386zM493 528h390l-71 649z" />
    <glyph glyph-name="afii10018" unicode="&#x411;" horiz-adv-x="1348" vert-adv-y="2457" 
d="M54 0l285 1464h950l-48 -248h-628l-62 -319h222q251 0 363 -79q135 -96 135 -308q0 -115 -43 -218t-118 -169q-77 -68 -179 -95.5t-274 -27.5h-603zM425 248h251q144 0 210 69q63 66 63 172q0 89 -46.5 130.5t-144.5 41.5h-253z" />
    <glyph glyph-name="afii10019" unicode="&#x412;" horiz-adv-x="1393" vert-adv-y="2457" 
d="M55 0l285 1464h580q165 0 268 -62q151 -91 151 -284q0 -140 -64 -225.5t-212 -143.5q100 -32 153 -84q82 -80 82 -218q0 -214 -148 -330.5t-422 -116.5h-673zM425 249h308q126 0 185 62q55 58 55 152q0 177 -199 177h-273zM545 869h246q232 0 232 198q0 148 -171 148
h-239z" />
    <glyph glyph-name="afii10020" unicode="&#x413;" horiz-adv-x="1113" vert-adv-y="2457" 
d="M54 0l285 1464h898l-50 -262h-572l-234 -1202h-327z" />
    <glyph glyph-name="afii10021" unicode="&#x414;" horiz-adv-x="1404" vert-adv-y="2457" 
d="M1017 0h-896l-99 -356h-236l119 614h131q95 139 162 322q95 262 179 692l37 192h1002l-234 -1206h151l-119 -614h-236zM860 250l186 956h-379l-24 -121q-124 -575 -274 -835h491z" />
    <glyph glyph-name="afii10022" unicode="&#x415;" horiz-adv-x="1251" vert-adv-y="2457" 
d="M55 0l285 1464h969l-49 -258h-648l-66 -339h483l-49 -246h-482l-71 -363h681l-50 -258h-1003z" />
    <glyph glyph-name="afii10024" unicode="&#x416;" horiz-adv-x="1894" vert-adv-y="2457" 
d="M686 0l125 642q-85 -11 -150.5 -69t-174.5 -219l-239 -354h-359l324 455q96 134 169.5 205t150.5 102q-47 39 -63.5 83t-45.5 209q-18 104 -48.5 138t-104.5 34q-36 0 -86 -3l47 241q83 6 98 6q180 0 249.5 -65.5t109.5 -273.5q26 -135 40 -180.5t37 -67.5q28 -26 88 -26
l118 607h312l-118 -607q64 1 91.5 8.5t55.5 31.5q44 37 148 238q64 122 107.5 181.5t94.5 94.5q85 59 246 59q28 0 115 -6l-47 -241q-51 3 -73 3q-71 0 -107.5 -40t-111.5 -200q-58 -124 -91 -168t-99 -86q83 -52 155 -277l147 -455h-342l-102 354q-48 168 -94.5 226.5
t-134.5 61.5l-125 -642h-312z" />
    <glyph glyph-name="afii10025" unicode="&#x417;" horiz-adv-x="1316" vert-adv-y="2457" 
d="M9 382l298 75q18 -111 70 -158q72 -65 210 -65q142 0 216 72q63 61 63 151q0 85 -55.5 129.5t-160.5 44.5h-149l46 238h141q120 0 192 43q96 56 96 155q0 78 -58 120t-164 42q-108 0 -182 -37t-145 -126l-209 170q187 249 567 249q238 0 376 -105q137 -104 137 -274
q0 -183 -172 -287q-49 -30 -143 -61q75 -30 110 -58q112 -90 112 -249q0 -97 -49 -190t-133 -157q-169 -127 -439 -127q-179 0 -315 55q-120 49 -181 131t-79 219z" />
    <glyph glyph-name="afii10026" unicode="&#x418;" horiz-adv-x="1438" vert-adv-y="2457" 
d="M54 0l285 1464h319l-168 -864l627 737l24 127h319l-285 -1464h-319l170 874l-628 -736l-26 -138h-318z" />
    <glyph glyph-name="afii10027" unicode="&#x419;" horiz-adv-x="1438" vert-adv-y="2457" 
d="M54 0l285 1464h319l-168 -864l627 737l24 127h319l-285 -1464h-319l170 874l-628 -736l-26 -138h-318zM592 1910h201q2 -60 16 -85q28 -48 110 -48q67 0 101 31t44 102h200q-16 -129 -61 -197q-86 -132 -284 -132q-206 0 -286 130q-40 65 -41 199z" />
    <glyph glyph-name="afii10028" unicode="&#x41a;" horiz-adv-x="1325" vert-adv-y="2457" 
d="M54 0l285 1464h327l-118 -606h25q58 0 99.5 43.5t134.5 202.5q131 224 233 295t292 71q36 0 117 -6l-47 -241q-50 3 -84 3q-91 0 -133 -37t-140 -203q-63 -107 -95 -144t-98 -80q64 -34 98 -76q61 -78 114 -231l158 -455h-356l-112 354q-56 179 -92.5 231.5t-105.5 52.5
h-51l-124 -638h-327z" />
    <glyph glyph-name="afii10029" unicode="&#x41b;" horiz-adv-x="1368" vert-adv-y="2457" 
d="M778 0l235 1206h-374l-53 -271q-56 -290 -143 -524.5t-203 -410.5h-350q145 183 225 382q104 262 196 731l70 351h1009l-285 -1464h-327z" />
    <glyph glyph-name="afii10030" unicode="&#x41c;" horiz-adv-x="1853" vert-adv-y="2457" 
d="M55 0l285 1464h436l123 -1005l518 1005h456l-284 -1464h-320l209 1077l-558 -1077h-240l-129 1077l-209 -1077h-287z" />
    <glyph glyph-name="afii10031" unicode="&#x41d;" horiz-adv-x="1475" vert-adv-y="2457" 
d="M55 0l285 1464h327l-116 -595h502l116 595h327l-285 -1464h-327l119 607h-503l-118 -607h-327z" />
    <glyph glyph-name="afii10032" unicode="&#x41e;" horiz-adv-x="1556" vert-adv-y="2457" 
d="M894 1485q266 0 434 -168q177 -177 177 -477q0 -271 -127 -492q-104 -180 -269 -275.5t-372 -95.5q-255 0 -420 150q-192 175 -192 492q0 215 83 404q81 183 226 302q196 160 460 160zM880 1227q-204 0 -315 -196q-102 -181 -102 -429q0 -179 76 -273t221 -94
q129 0 226 94q87 83 136 235q44 138 44 296q0 208 -98 300q-72 67 -188 67z" />
    <glyph glyph-name="afii10033" unicode="&#x41f;" horiz-adv-x="1448" vert-adv-y="2457" 
d="M54 0l285 1464h1131l-285 -1464h-327l234 1204h-477l-234 -1204h-327z" />
    <glyph glyph-name="afii10034" unicode="&#x420;" horiz-adv-x="1332" vert-adv-y="2457" 
d="M55 0l285 1464h535q218 0 338 -94q137 -107 137 -312q0 -246 -157.5 -384.5t-436.5 -138.5h-271l-104 -535h-326zM532 777h228q122 0 191 53q84 66 84 201q0 182 -201 182h-217z" />
    <glyph glyph-name="afii10035" unicode="&#x421;" horiz-adv-x="1425" vert-adv-y="2457" 
d="M1331 381q-189 -404 -620 -404q-282 0 -440 179q-148 166 -148 456q0 288 126 510q99 172 257 267q161 96 365 96q278 0 427 -170q46 -51 72 -106t52 -154l-300 -99q-20 100 -49 152q-63 115 -209 115q-189 0 -300 -195q-102 -180 -102 -431q0 -356 275 -356
q109 0 186 63.5t135 200.5z" />
    <glyph glyph-name="afii10036" unicode="&#x422;" horiz-adv-x="1264" vert-adv-y="2457" 
d="M365 0l235 1206h-393l50 258h1110l-50 -258h-393l-234 -1206h-325z" />
    <glyph glyph-name="afii10037" unicode="&#x423;" horiz-adv-x="1256" vert-adv-y="2457" 
d="M529 403l-347 1061h346l199 -728l381 728h313l-593 -1077q-128 -233 -245 -322t-296 -89q-101 0 -195 24l80 258q64 -20 123 -20q77 0 122.5 28.5t92.5 105.5z" />
    <glyph glyph-name="afii10038" unicode="&#x424;" horiz-adv-x="1785" vert-adv-y="2457" 
d="M629 -76l44 226q-136 11 -225 37.5t-161 77.5q-172 121 -172 351q0 206 124 379q105 147 264.5 224t395.5 96l44 226h290l-44 -226q137 -11 225.5 -37.5t160.5 -76.5q172 -122 172 -352q0 -206 -124 -379q-105 -147 -264.5 -224t-395.5 -96l-44 -226h-290zM719 388
l134 689q-184 -23 -275 -110q-59 -57 -93.5 -146.5t-34.5 -188.5q0 -109 65.5 -168t203.5 -76zM1009 388q182 21 275 110q59 57 93.5 147t34.5 189q0 108 -64.5 166.5t-204.5 76.5z" />
    <glyph glyph-name="afii10039" unicode="&#x425;" horiz-adv-x="1380" vert-adv-y="2457" 
d="M-75 0l613 769l-295 695h368l171 -473l334 473h362l-554 -718l322 -746h-366l-198 534l-394 -534h-363z" />
    <glyph glyph-name="afii10040" unicode="&#x426;" horiz-adv-x="1425" vert-adv-y="2457" 
d="M54 0l285 1464h327l-235 -1206h443l235 1206h327l-234 -1206h152l-120 -614h-235l39 356h-984z" />
    <glyph glyph-name="afii10041" unicode="&#x427;" horiz-adv-x="1341" vert-adv-y="2457" 
d="M1078 0h-327l103 530q-130 -150 -351 -150q-169 0 -257 96q-78 85 -78 230q0 105 34 280l93 478h327l-100 -514q-19 -98 -19 -164q0 -150 155 -150q217 0 265 247l113 581h327z" />
    <glyph glyph-name="afii10042" unicode="&#x428;" horiz-adv-x="2088" vert-adv-y="2457" 
d="M54 0l285 1464h327l-235 -1206h395l235 1206h327l-235 -1206h395l235 1206h327l-285 -1464h-1771z" />
    <glyph glyph-name="afii10043" unicode="&#x429;" horiz-adv-x="2099" vert-adv-y="2457" 
d="M54 0l285 1464h327l-235 -1206h395l235 1206h327l-235 -1206h395l235 1206h327l-235 -1206h153l-120 -614h-236l40 356h-1658z" />
    <glyph glyph-name="afii10044" unicode="&#x42a;" horiz-adv-x="1500" vert-adv-y="2457" 
d="M820 1464l-100 -513h187q257 0 370 -85q134 -100 134 -321q0 -123 -44.5 -234.5t-121.5 -181.5q-78 -71 -180.5 -100t-274.5 -29h-578l235 1206h-319l50 258h642zM583 248h227q81 0 131 19t87 65q60 74 60 188q0 97 -45 143t-142 46h-228z" />
    <glyph glyph-name="afii10045" unicode="&#x42b;" horiz-adv-x="1911" vert-adv-y="2457" 
d="M1321 0l285 1464h327l-285 -1464h-327zM661 1464l-100 -513h188q257 0 370 -85q134 -100 134 -321q0 -123 -44.5 -234.5t-121.5 -181.5q-78 -71 -180.5 -100t-275.5 -29h-577l285 1464h322zM425 248h227q81 0 130.5 19t87.5 65q60 74 60 188q0 97 -45.5 143t-141.5 46
h-228z" />
    <glyph glyph-name="afii10046" unicode="&#x42c;" horiz-adv-x="1342" vert-adv-y="2457" 
d="M661 1464l-100 -513h188q257 0 370 -85q134 -100 134 -321q0 -123 -44.5 -234.5t-121.5 -181.5q-78 -71 -180.5 -100t-275.5 -29h-577l285 1464h322zM425 248h227q81 0 130.5 19t87.5 65q60 74 60 188q0 97 -45.5 143t-141.5 46h-228z" />
    <glyph glyph-name="afii10047" unicode="&#x42d;" horiz-adv-x="1351" vert-adv-y="2457" 
d="M419 859h555v20v18q0 15 -1 30q-8 120 -49 190q-63 108 -222 108q-102 0 -172.5 -35.5t-149.5 -125.5l-218 174q197 249 555 249q285 0 438 -165q152 -164 152 -443q0 -222 -73 -411.5t-205 -309.5q-200 -181 -504 -181q-206 0 -337.5 70.5t-200.5 218.5l280 147
q33 -73 75 -107q84 -67 218 -67q141 0 233.5 93t145.5 289h-566z" />
    <glyph glyph-name="afii10048" unicode="&#x42e;" horiz-adv-x="2126" vert-adv-y="2457" 
d="M666 1464l-116 -594h222q43 170 131 299q84 126 204 204q169 112 380 112q283 0 449 -202q140 -170 140 -442q0 -271 -123 -492q-102 -182 -266 -279q-157 -93 -349 -93q-217 0 -367 112q-111 84 -166.5 210t-62.5 309h-243l-118 -608h-327l285 1464h327zM1467 1228
q-122 0 -217 -96q-83 -84 -129 -235q-41 -137 -41 -293q0 -175 70 -273q68 -96 198 -96q127 0 220 95q81 83 127 235q42 138 42 292q0 371 -270 371z" />
    <glyph glyph-name="afii10049" unicode="&#x42f;" horiz-adv-x="1404" vert-adv-y="2457" 
d="M1425 1464l-285 -1464h-327l108 553h-184q-76 0 -117.5 -14t-75.5 -50q-48 -51 -112 -209q-82 -203 -142 -280h-330l1 6q38 53 67 111.5t90 206.5q52 126 85.5 180.5t80.5 91.5q52 40 146 69q-211 80 -211 334q0 222 165 351q79 62 179 88t258 26h604zM967 791l82 421
h-247q-136 0 -196 -54q-74 -67 -74 -181q0 -88 47 -137t132 -49h256z" />
    <glyph glyph-name="afii10065" unicode="&#x430;" horiz-adv-x="1111" vert-adv-y="2457" 
d="M606 129q-110 -152 -282 -152q-118 0 -199 64q-101 81 -101 226q0 288 374 351q116 19 296 25l4 23q5 28 5 54q0 130 -146 130t-293 -90l-107 209q93 59 172 86q125 43 280 43q400 0 400 -325q0 -57 -16 -139l-84 -433q-13 -66 -13 -106q0 -48 13 -83v-12h-295
q-10 53 -10 95q0 13 2 34zM659 465q-128 -5 -194 -22q-134 -32 -134 -147q0 -102 111 -102q75 0 129.5 47.5t68.5 125.5z" />
    <glyph glyph-name="afii10066" unicode="&#x431;" horiz-adv-x="1205" vert-adv-y="2457" 
d="M1216 1542l-87 -225h-240q-162 0 -239 -30t-132 -113q-60 -93 -104 -298q96 86 133 110q99 63 225 63q165 0 263 -108q110 -121 110 -321q0 -132 -47.5 -257t-131.5 -214q-162 -172 -400 -172q-210 0 -332 121q-131 130 -131 375q0 193 61.5 429t149.5 384
q85 141 211 198.5t351 57.5h340zM680 840q-131 0 -206 -142q-67 -125 -67 -292q0 -97 44 -149q45 -54 123 -54q125 0 197 147q28 55 45.5 136t17.5 152q0 202 -154 202z" />
    <glyph glyph-name="afii10067" unicode="&#x432;" horiz-adv-x="1212" vert-adv-y="2457" 
d="M54 0l208 1071h499q184 0 277 -64q95 -66 95 -188q0 -96 -41 -157t-138 -111q77 -44 110 -95.5t33 -127.5t-35.5 -144.5t-96.5 -110.5q-107 -73 -300 -73h-611zM394 209h239q79 0 113 33q46 45 46 113q0 53 -28 76.5t-92 23.5h-230zM480 638h225q142 0 142 132
q0 49 -27 70.5t-88 21.5h-208z" />
    <glyph glyph-name="afii10068" unicode="&#x433;" horiz-adv-x="930" vert-adv-y="2457" 
d="M56 0l208 1071h716l-48 -242h-406l-161 -829h-309z" />
    <glyph glyph-name="afii10069" unicode="&#x434;" horiz-adv-x="1205" vert-adv-y="2457" 
d="M902 894q10 116 10 171q0 139 -49 205q-52 69 -169 69q-69 0 -128.5 -25.5t-137.5 -87.5l-136 181q112 86 209 122t219 36q238 0 350 -141q103 -130 103 -393q0 -226 -41.5 -434t-113.5 -342t-195.5 -206t-281.5 -72q-216 0 -342 125q-133 133 -133 360q0 147 57 278
q66 151 181.5 230t271.5 79q229 0 326 -155zM641 840q-137 0 -211 -160q-53 -115 -53 -259q0 -111 49 -170q40 -48 117 -48q139 0 211 163q53 119 53 261q0 102 -43.5 157.5t-122.5 55.5z" />
    <glyph glyph-name="afii10070" unicode="&#x435;" horiz-adv-x="1115" vert-adv-y="2457" 
d="M981 176q-92 -98 -178 -140q-122 -59 -277 -59q-233 0 -354 133q-105 116 -105 320q0 295 182 484q175 183 436 183q187 0 292 -95q92 -83 92 -219q0 -250 -337 -319q-122 -25 -354 -31q-2 -25 -2 -39q0 -185 171 -185q73 0 126 25.5t125 96.5zM398 612q201 0 291.5 35
t90.5 113q0 52 -33 81.5t-92 29.5q-189 0 -257 -259z" />
    <glyph glyph-name="afii10072" unicode="&#x436;" horiz-adv-x="1590" vert-adv-y="2457" 
d="M541 0l89 455h-39q-42 0 -73.5 -28.5t-85.5 -116.5l-190 -310h-336l237 330q75 105 118 146t119 80q-36 43 -48.5 71.5t-23.5 96.5q-17 101 -33 120.5t-83 19.5h-57l41 207h81q99 0 146 -14.5t74 -54.5q21 -31 33.5 -75t33.5 -164q11 -65 30 -90t57 -25h36l82 423h299
l-82 -423h53q51 0 79 30.5t89 151.5q77 153 138.5 197t196.5 44h100l-40 -207h-34q-58 0 -79 -20t-69 -122q-35 -73 -61.5 -106t-96.5 -87q39 -33 62.5 -72.5t53.5 -126.5l117 -330h-319l-87 310q-23 84 -46 114.5t-64 30.5h-30l-89 -455h-299z" />
    <glyph glyph-name="afii10073" unicode="&#x437;" horiz-adv-x="1069" vert-adv-y="2457" 
d="M-30 279l251 79q29 -85 73 -117q60 -44 165 -44q84 0 131 39q55 46 55 118q0 100 -141 100h-133l36 187h138q76 0 121.5 36t45.5 96q0 49 -40.5 76.5t-112.5 27.5q-138 0 -259 -115l-167 159q73 77 151 114q129 62 304 62q211 0 326 -79q105 -73 105 -209
q0 -91 -45.5 -150.5t-143.5 -96.5q46 -30 67 -52q59 -62 59 -155q0 -86 -41 -162.5t-113 -124.5q-135 -91 -356 -91q-263 0 -383 126q-57 59 -93 176z" />
    <glyph glyph-name="afii10074" unicode="&#x438;" horiz-adv-x="1251" vert-adv-y="2457" 
d="M56 0l208 1071h309l-112 -576l404 470l21 106h308l-208 -1071h-309l114 583l-404 -470l-22 -113h-309z" />
    <glyph glyph-name="afii10075" unicode="&#x439;" horiz-adv-x="1251" vert-adv-y="2457" 
d="M56 0l208 1071h309l-112 -576l404 470l21 106h308l-208 -1071h-309l114 583l-404 -470l-22 -113h-309zM441 1531h201q-1 -72 23.5 -102.5t82.5 -30.5q109 0 124 133h200q-14 -126 -57 -197q-81 -132 -267 -132q-188 0 -264 122q-42 69 -43 207z" />
    <glyph glyph-name="afii10076" unicode="&#x43a;" horiz-adv-x="1154" vert-adv-y="2457" 
d="M54 0l208 1071h309l-84 -427h28q40 0 68.5 28.5t95.5 136.5q68 111 104 156t74 68q37 23 82 30.5t139 7.5h106l-40 -207h-35q-73 0 -97 -18.5t-84 -121.5q-43 -74 -76 -110t-88 -69q52 -31 82 -74t67 -141l126 -330h-332l-101 311q-26 78 -50.5 108.5t-62.5 30.5h-43
l-88 -450h-308z" />
    <glyph glyph-name="afii10077" unicode="&#x43b;" horiz-adv-x="1194" vert-adv-y="2457" 
d="M623 0l162 834h-251l-31 -156q-76 -392 -268 -678h-316q128 168 206 363t135 488l43 220h836l-208 -1071h-308z" />
    <glyph glyph-name="afii10078" unicode="&#x43c;" horiz-adv-x="1576" vert-adv-y="2457" 
d="M262 1071h404l84 -694l346 694h425l-209 -1071h-304l143 738l-378 -738h-202l-93 736l-143 -736h-281z" />
    <glyph glyph-name="afii10079" unicode="&#x43d;" horiz-adv-x="1238" vert-adv-y="2457" 
d="M54 0l208 1071h308l-79 -409h304l80 409h308l-208 -1071h-309l83 424h-304l-83 -424h-308z" />
    <glyph glyph-name="afii10080" unicode="&#x43e;" horiz-adv-x="1194" vert-adv-y="2457" 
d="M655 1097q217 0 347 -138q121 -128 121 -339q0 -142 -49 -271t-137 -216q-156 -156 -396 -156q-217 0 -349 140q-122 130 -122 339q0 278 174 465q163 176 411 176zM642 869q-123 0 -190 -123q-72 -132 -72 -316q0 -225 175 -225q117 0 182 116q75 136 75 328
q0 220 -170 220z" />
    <glyph glyph-name="afii10081" unicode="&#x43f;" horiz-adv-x="1237" vert-adv-y="2457" 
d="M54 0l208 1071h920l-208 -1071h-308l161 829h-304l-161 -829h-308z" />
    <glyph glyph-name="afii10082" unicode="&#x440;" horiz-adv-x="1269" vert-adv-y="2457" 
d="M-18 -373l281 1444h309l-31 -156q131 182 328 182q158 0 245 -121q82 -113 82 -313q0 -289 -142 -487q-141 -197 -363 -197q-215 0 -291 213l-108 -565h-310zM716 862q-124 0 -197 -129q-72 -128 -72 -299q0 -220 175 -220q126 0 194 121q69 123 69 296q0 231 -169 231z
" />
    <glyph glyph-name="afii10083" unicode="&#x441;" horiz-adv-x="1102" vert-adv-y="2457" 
d="M993 258q-76 -135 -175 -201q-120 -80 -286 -80q-196 0 -319 108q-143 126 -143 364q0 302 174 484q156 164 400 164q163 0 265.5 -74.5t155.5 -230.5l-263 -96q-22 90 -61 129.5t-105 39.5q-123 0 -189 -124q-66 -125 -66 -302q0 -230 170 -230q69 0 118 39t94 129z" />
    <glyph glyph-name="afii10084" unicode="&#x442;" horiz-adv-x="918" vert-adv-y="2457" 
d="M200 0l161 829h-278l47 242h865l-47 -242h-279l-161 -829h-308z" />
    <glyph glyph-name="afii10085" unicode="&#x443;" horiz-adv-x="1111" vert-adv-y="2457" 
d="M1197 1071l-649 -1175q-85 -152 -181.5 -218t-236.5 -66q-136 0 -233 72l117 213q53 -42 116 -42q101 0 158 117l26 52l-186 1047h320l95 -672l343 672h311z" />
    <glyph glyph-name="afii10086" unicode="&#x444;" horiz-adv-x="1698" vert-adv-y="2457" 
d="M532 -373l99 507q-98 -157 -250 -157q-160 0 -248 129q-76 111 -76 291q0 130 35.5 263t96.5 231q61 99 148 152.5t185 53.5q93 0 161.5 -46t100.5 -130l121 621h280l-116 -597q102 152 250 152q78 0 144.5 -36t106.5 -101q71 -113 71 -288q0 -127 -37 -263.5t-96 -229.5
q-130 -202 -332 -202q-97 0 -163.5 46.5t-96.5 135.5l-104 -532h-280zM1202 867q-96 0 -160 -127q-35 -70 -57.5 -169.5t-22.5 -187.5q0 -80 39.5 -128t105.5 -48q82 0 133 90q38 67 64 177.5t26 205.5q0 88 -34 137.5t-94 49.5zM600 868q-89 0 -146 -112q-38 -76 -62 -179
t-24 -195q0 -94 39 -136q37 -39 93 -39q87 0 142 94q40 69 66.5 177t26.5 205q0 94 -40 140q-38 45 -95 45z" />
    <glyph glyph-name="afii10087" unicode="&#x445;" horiz-adv-x="1130" vert-adv-y="2457" 
d="M-78 0l458 563l-228 508h342l118 -313l230 313h333l-427 -517l252 -554h-342l-139 354l-266 -354h-331z" />
    <glyph glyph-name="afii10088" unicode="&#x446;" horiz-adv-x="1230" vert-adv-y="2457" 
d="M54 0l208 1071h309l-162 -829h287l161 829h309l-161 -829h126l-109 -559h-226l39 317h-781z" />
    <glyph glyph-name="afii10089" unicode="&#x447;" horiz-adv-x="1163" vert-adv-y="2457" 
d="M196 1071h308l-66 -341q-12 -61 -12 -109q0 -117 116 -117q68 0 118.5 53t67.5 144l72 370h308l-208 -1071h-308l83 427q-44 -63 -95 -99q-90 -65 -200 -65q-126 0 -197.5 78.5t-71.5 216.5q0 75 20 179z" />
    <glyph glyph-name="afii10090" unicode="&#x448;" horiz-adv-x="1758" vert-adv-y="2457" 
d="M54 0l208 1071h307l-161 -829h268l161 829h291l-161 -829h268l161 829h307l-209 -1071h-1440z" />
    <glyph glyph-name="afii10091" unicode="&#x449;" horiz-adv-x="1767" vert-adv-y="2457" 
d="M54 0l208 1071h307l-161 -829h268l161 829h291l-161 -829h268l161 829h307l-162 -830h126l-108 -558h-223l40 317h-1322z" />
    <glyph glyph-name="afii10092" unicode="&#x44a;" horiz-adv-x="1207" vert-adv-y="2457" 
d="M124 0l167 855h-231l42 216h530l-67 -343h152q119 0 191 -17.5t120 -57.5q94 -78 94 -233q0 -95 -33.5 -183.5t-89.5 -140.5t-132 -74t-201 -22h-542zM466 214h153q67 0 101.5 14t58.5 50q35 54 35 119q0 72 -34.5 99.5t-124.5 27.5h-129z" />
    <glyph glyph-name="afii10093" unicode="&#x44b;" horiz-adv-x="1677" vert-adv-y="2457" 
d="M1106 0l208 1071h308l-208 -1071h-308zM562 1071l-67 -343h152q119 0 191 -17.5t120 -57.5q94 -78 94 -233q0 -94 -34 -183t-89 -141q-56 -52 -132.5 -74t-201.5 -22h-541l208 1071h300zM395 214h154q66 0 100.5 14t59.5 50q35 54 35 119q0 72 -34.5 99.5t-124.5 27.5
h-130z" />
    <glyph glyph-name="afii10094" unicode="&#x44c;" horiz-adv-x="1137" vert-adv-y="2457" 
d="M562 1071l-67 -343h152q119 0 191 -17.5t120 -57.5q94 -78 94 -233q0 -94 -34 -183t-89 -141q-56 -52 -132.5 -74t-201.5 -22h-541l208 1071h300zM395 214h154q66 0 100.5 14t59.5 50q35 54 35 119q0 72 -34.5 99.5t-124.5 27.5h-130z" />
    <glyph glyph-name="afii10095" unicode="&#x44d;" horiz-adv-x="1094" vert-adv-y="2457" 
d="M284 455l35 182h394q1 236 -188 236q-68 0 -126.5 -27.5t-130.5 -93.5l-151 179q171 167 435 167q216 0 332 -108q138 -129 138 -355q0 -129 -40.5 -249.5t-113.5 -207.5q-74 -89 -173 -140q-118 -61 -293 -61q-323 0 -437 217l222 142q45 -70 98.5 -101t131.5 -31
q195 0 266 251h-399z" />
    <glyph glyph-name="afii10096" unicode="&#x44e;" horiz-adv-x="1670" vert-adv-y="2457" 
d="M549 1071l-80 -424h151q44 157 133 263q158 188 399 188q205 0 327 -139q115 -131 115 -343q0 -139 -47.5 -268t-131.5 -216q-148 -155 -373 -155q-273 0 -388 232q-57 115 -60 213h-171l-82 -422h-303l208 1071h303zM1131 869q-108 0 -170 -128q-65 -136 -65 -309
q0 -230 152 -230q110 0 169 118q68 136 68 318q0 231 -154 231z" />
    <glyph glyph-name="afii10097" unicode="&#x44f;" horiz-adv-x="1195" vert-adv-y="2457" 
d="M932 0h-299l77 396h-152q-66 0 -101.5 -36t-81.5 -149q-60 -146 -113 -211h-331l2 14q36 40 60.5 85.5t76.5 164.5q40 93 81.5 140t118.5 85q-133 76 -133 221q0 184 131 280q60 45 137.5 63t209.5 18h526zM746 583l55 279h-184q-92 0 -130 -37q-50 -48 -50 -127
q0 -64 31.5 -89.5t111.5 -25.5h166z" />
    <glyph glyph-name="uni0450" unicode="&#x450;" horiz-adv-x="1131" vert-adv-y="2457" 
d="M990 176q-93 -104 -201 -151.5t-253 -47.5q-230 0 -350 133q-105 116 -105 320q0 145 49 273t140 220q172 175 426 175q139 0 235 -56q147 -84 147 -259q0 -255 -357 -323q-118 -23 -339 -28v-20q0 -208 174 -208q73 0 128.5 27.5t123.5 98.5zM405 614q207 0 297.5 34.5
t90.5 114.5q0 51 -33.5 80.5t-91.5 29.5q-190 0 -263 -259zM675 1202l-181 340h332l58 -340h-209z" />
    <glyph glyph-name="afii10071" unicode="&#x451;" horiz-adv-x="1113" vert-adv-y="2457" 
d="M981 176q-92 -98 -178 -140q-122 -59 -277 -59q-233 0 -354 133q-105 116 -105 320q0 295 182 484q175 183 436 183q187 0 292 -95q92 -83 92 -219q0 -250 -337 -319q-122 -25 -354 -31q-2 -25 -2 -39q0 -185 171 -185q73 0 126 25.5t125 96.5zM398 612q201 0 291.5 35
t90.5 113q0 52 -33 81.5t-92 29.5q-189 0 -257 -259zM520 1525q61 0 101.5 -39.5t40.5 -100.5q0 -71 -50.5 -122t-121.5 -51q-61 0 -101 40.5t-40 102.5q0 69 51 119.5t120 50.5zM943 1525q61 0 101 -39.5t40 -100.5q0 -71 -50.5 -122t-120.5 -51q-60 0 -99 40t-39 102
q0 70 50 120.5t118 50.5z" />
    <glyph glyph-name="afii10099" unicode="&#x452;" horiz-adv-x="1208" vert-adv-y="2457" 
d="M642 1542l-30 -155h208l-36 -185h-208l-58 -305q132 200 334 200q134 0 205 -87q63 -77 63 -202q0 -55 -17 -143l-86 -440q-50 -259 -94.5 -360t-135.5 -160q-119 -78 -358 -82l26 194q60 6 88.5 17.5t52.5 40.5q34 40 56.5 111.5t54.5 234.5l83 429q8 40 8 70
q0 125 -118 125q-172 0 -224 -267l-113 -578h-310l233 1202h-126l36 185h126l30 155h310z" />
    <glyph glyph-name="afii10100" unicode="&#x453;" horiz-adv-x="930" vert-adv-y="2457" 
d="M496 1186l138 356h360l-274 -356h-224zM56 0l208 1071h716l-48 -242h-406l-161 -829h-309z" />
    <glyph glyph-name="afii10101" unicode="&#x454;" horiz-adv-x="1087" vert-adv-y="2457" 
d="M421 639h385l-36 -187h-386q-3 -35 -3 -54q0 -192 197 -192q129 0 244 109l168 -158q-172 -180 -445 -180q-231 0 -358 119q-125 116 -125 332q0 138 46 264.5t130 219.5q166 185 429 185q297 0 424 -219l-200 -142q-46 72 -96 102t-123 30q-91 0 -150.5 -54t-100.5 -175
z" />
    <glyph glyph-name="afii10102" unicode="&#x455;" horiz-adv-x="1036" vert-adv-y="2457" 
d="M822 751q-114 127 -269 127q-55 0 -86.5 -23.5t-31.5 -64.5q0 -53 60 -85q31 -16 180 -71q115 -41 177 -118t62 -176q0 -165 -117 -266q-112 -97 -329 -97q-213 0 -358 88q-50 30 -125 106l170 187q69 -83 140.5 -119t166.5 -36q144 0 144 95q0 49 -52 77q-27 14 -134 55
q-134 50 -197 114q-79 80 -79 204q0 195 159 287q107 62 270 62q133 0 233 -39t191 -127z" />
    <glyph glyph-name="afii10103" unicode="&#x456;" horiz-adv-x="599" vert-adv-y="2457" 
d="M478 1543q68 0 112 -42.5t44 -109.5q0 -78 -55 -133.5t-134 -55.5q-69 0 -114 43.5t-45 110.5q0 78 56 132.5t136 54.5zM41 0l209 1071h308l-209 -1071h-308z" />
    <glyph glyph-name="afii10104" unicode="&#x457;" horiz-adv-x="599" vert-adv-y="2457" 
d="M41 0l209 1071h303l-209 -1071h-303zM245 1525q61 0 101.5 -39.5t40.5 -100.5q0 -71 -50.5 -122t-121.5 -51q-61 0 -101 40.5t-40 102.5q0 69 51 119.5t120 50.5zM668 1525q61 0 101 -39.5t40 -100.5q0 -71 -50.5 -122t-120.5 -51q-60 0 -99 40t-39 102q0 70 50 120.5
t118 50.5z" />
    <glyph glyph-name="afii10105" unicode="&#x458;" horiz-adv-x="608" vert-adv-y="2457" 
d="M567 1071l-223 -1141q-63 -321 -369 -321q-124 0 -204 56l87 221q42 -23 84 -23q43 0 67 25t35 84l214 1099h309zM487 1543q69 0 112.5 -42.5t43.5 -109.5q0 -78 -55 -133.5t-134 -55.5q-69 0 -114 43.5t-45 110.5q0 78 56 132.5t136 54.5z" />
    <glyph glyph-name="afii10106" unicode="&#x459;" horiz-adv-x="1681" vert-adv-y="2457" 
d="M623 0l161 828h-251l-30 -150q-76 -391 -268 -678h-316q126 165 205.5 362.5t135.5 488.5l43 220h827l-70 -358h181q161 0 240 -33q122 -52 122 -216q0 -103 -36.5 -200.5t-97.5 -155.5q-114 -108 -353 -108h-493zM964 216h161q56 0 85 13t52 48q37 58 37 133
q0 55 -25.5 76.5t-91.5 21.5h-162z" />
    <glyph glyph-name="afii10107" unicode="&#x45a;" horiz-adv-x="1716" vert-adv-y="2457" 
d="M779 674l77 397h299l-69 -358h137q119 0 190.5 -16.5t120.5 -55.5q96 -76 96 -228q0 -92 -33.5 -179t-89.5 -138q-55 -52 -131.5 -74t-201.5 -22h-526l89 458h-286l-89 -458h-308l208 1071h308l-77 -397h286zM989 214h139q59 0 88 8.5t53 33.5q53 54 53 134
q0 67 -35.5 93t-125.5 26h-115z" />
    <glyph glyph-name="afii10108" unicode="&#x45b;" horiz-adv-x="1207" vert-adv-y="2457" 
d="M302 1387l30 155h310l-30 -155h208l-36 -185h-208l-58 -305q132 200 334 200q135 0 205 -87q63 -77 63 -202q0 -55 -17 -143l-128 -665h-309l125 650q8 41 8 71q0 124 -118 124q-173 0 -225 -267l-113 -578h-310l233 1202h-126l36 185h126z" />
    <glyph glyph-name="afii10109" unicode="&#x45c;" horiz-adv-x="1154" vert-adv-y="2457" 
d="M54 0l208 1071h309l-84 -427h28q40 0 68.5 28.5t95.5 136.5q68 111 104 156t74 68q37 23 82 30.5t139 7.5h106l-40 -207h-35q-73 0 -97 -18.5t-84 -121.5q-43 -74 -76 -110t-88 -69q52 -31 82 -74t67 -141l126 -330h-332l-101 311q-26 78 -50.5 108.5t-62.5 30.5h-43
l-88 -450h-308zM612 1186l137 356h360l-274 -356h-223z" />
    <glyph glyph-name="uni045D" unicode="&#x45d;" horiz-adv-x="1251" vert-adv-y="2457" 
d="M56 0l208 1071h309l-112 -576l404 470l21 106h308l-208 -1071h-309l114 583l-404 -470l-22 -113h-309zM627 1202l-181 340h332l58 -340h-209z" />
    <glyph glyph-name="afii10110" unicode="&#x45e;" horiz-adv-x="1111" vert-adv-y="2457" 
d="M1197 1071l-649 -1175q-85 -152 -181.5 -218t-236.5 -66q-136 0 -233 72l117 213q53 -42 116 -42q101 0 158 117l26 52l-186 1047h320l95 -672l343 672h311zM373 1531h201q-1 -72 23.5 -102.5t82.5 -30.5q109 0 124 133h200q-14 -126 -57 -197q-81 -132 -267 -132
q-188 0 -264 122q-42 69 -43 207z" />
    <glyph glyph-name="afii10193" unicode="&#x45f;" horiz-adv-x="1224" vert-adv-y="2457" 
d="M54 0l208 1071h310l-161 -829h287l161 829h310l-208 -1071h-327l-84 -317h-208l38 317h-326z" />
    <glyph glyph-name="afii10050" unicode="&#x490;" horiz-adv-x="1113" vert-adv-y="2457" 
d="M54 0l285 1464h647l81 260h221l-101 -522h-572l-234 -1202h-327z" />
    <glyph glyph-name="afii10098" unicode="&#x491;" horiz-adv-x="930" vert-adv-y="2457" 
d="M56 0l208 1071h480l65 222h213l-90 -464h-406l-161 -829h-309z" />
    <glyph glyph-name="uni0492" unicode="&#x492;" horiz-adv-x="1128" vert-adv-y="2457" 
d="M187 649h-188l35 244h200l111 571h896l-50 -252h-574l-61 -319h316l-28 -244h-336l-125 -649h-323z" />
    <glyph glyph-name="uni0493" unicode="&#x493;" horiz-adv-x="930" vert-adv-y="2457" 
d="M137 418h-113l47 242h114l79 411h716l-48 -242h-406l-33 -169h293l-47 -242h-293l-81 -418h-309z" />
    <glyph glyph-name="uni0496" unicode="&#x496;" horiz-adv-x="1894" vert-adv-y="2457" 
d="M1567 0h-113l-102 354q-48 168 -94.5 226.5t-134.5 61.5l-125 -642h-312l125 642q-85 -11 -150.5 -69t-174.5 -219l-239 -354h-359l324 455q96 134 169.5 205t150.5 102q-42 36 -60 77.5t-37 146.5q-24 139 -41 175q-17 37 -44 51t-80 14q-36 0 -86 -3l47 241q83 6 98 6
q180 0 249.5 -65.5t109.5 -273.5q26 -135 40 -180.5t37 -67.5q28 -26 88 -26l118 607h312l-118 -607q64 1 91.5 8.5t55.5 31.5q44 37 148 238q64 123 107 182t95 94q85 59 246 59q28 0 115 -6l-47 -241q-51 3 -73 3q-71 0 -107.5 -40t-111.5 -200q-58 -124 -91 -168t-99 -86
q83 -52 155 -277l63 -195h171l-119 -614h-236z" />
    <glyph glyph-name="uni0497" unicode="&#x497;" horiz-adv-x="1590" vert-adv-y="2457" 
d="M1262 0h-106l-87 310q-23 83 -46 114t-64 31h-30l-89 -455h-299l89 455h-39q-42 0 -74 -29t-85 -116l-190 -310h-336l237 330q75 105 118 146t119 80q-36 43 -48.5 71.5t-23.5 96.5q-17 101 -33 120.5t-83 19.5h-57l41 207h81q99 0 146 -14.5t74 -54.5q21 -31 33.5 -75
t33.5 -164q11 -65 30 -90t57 -25h36l82 423h299l-82 -423h53q51 0 79 30.5t89 151.5q77 153 138.5 197t196.5 44h100l-40 -207h-34q-58 0 -79 -20t-69 -122q-35 -73 -62 -106.5t-96 -87.5q39 -32 62.5 -71.5t53.5 -126.5l31 -87h168l-109 -559h-226z" />
    <glyph glyph-name="uni049A" unicode="&#x49a;" horiz-adv-x="1325" vert-adv-y="2457" 
d="M1132 259h218l-120 -614h-236l39 355h-167l-112 355q-56 178 -92.5 230.5t-105.5 52.5h-51l-124 -638h-327l285 1464h327l-118 -606h25q58 0 99.5 43.5t134.5 202.5q131 224 233 295t292 71q36 0 117 -6l-47 -241q-47 3 -84 3q-91 0 -133 -37t-140 -203
q-63 -107 -95 -144t-98 -80q64 -34 98 -76q61 -77 114 -231z" />
    <glyph glyph-name="uni049B" unicode="&#x49b;" horiz-adv-x="1154" vert-adv-y="2457" 
d="M946 243h204l-109 -559h-226l39 316h-147l-101 311q-26 79 -50.5 109t-62.5 30h-43l-88 -450h-308l208 1071h309l-84 -427h28q40 0 68.5 28.5t95.5 136.5q69 112 104.5 157t73.5 67q37 23 82 30.5t139 7.5h106l-40 -207h-35q-73 0 -97 -18.5t-84 -120.5q-43 -75 -76 -111
t-88 -69q51 -30 81.5 -73.5t67.5 -140.5z" />
    <glyph glyph-name="uni049C" unicode="&#x49c;" horiz-adv-x="1325" vert-adv-y="2457" 
d="M539 638h-34l-124 -638h-327l285 1464h327l-118 -606h34l71 358h158l-54 -274q40 57 102 162q129 223 232 294.5t293 71.5q36 0 117 -6l-47 -240q-54 3 -84 3q-91 0 -134 -38t-139 -202q-63 -107 -95 -144.5t-98 -80.5q64 -33 97 -76q62 -78 115 -231l158 -455h-357
l-111 354q-42 131 -63 178.5t-52 75.5l-88 -448h-159z" />
    <glyph glyph-name="uni049D" unicode="&#x49d;" horiz-adv-x="1154" vert-adv-y="2457" 
d="M482 451h-32l-88 -451h-308l208 1071h309l-84 -427h33l60 303h134l-52 -263q23 27 84 126q69 112 104.5 156t74.5 67q37 23 81.5 30.5t139.5 7.5h105l-40 -206h-34q-73 0 -97 -18.5t-84 -121.5q-44 -75 -77 -111t-88 -69q52 -30 82.5 -73.5t67.5 -140.5l126 -331h-333
l-100 311q-30 91 -62 121l-71 -357h-134z" />
    <glyph glyph-name="uni04A2" unicode="&#x4a2;" horiz-adv-x="1469" vert-adv-y="2457" 
d="M1140 0h-251l121 606h-510l-118 -606h-322l285 1464h321l-117 -598h508l117 598h322l-235 -1204h192l-116 -615h-236z" />
    <glyph glyph-name="uni04A3" unicode="&#x4a3;" horiz-adv-x="1201" vert-adv-y="2457" 
d="M1002 243h181l-108 -559h-226l39 316h-237l83 426h-310l-83 -426h-303l208 1071h303l-80 -420h311l79 420h303z" />
    <glyph glyph-name="uni04AE" unicode="&#x4ae;" horiz-adv-x="1325" vert-adv-y="2457" 
d="M406 0l119 612l-309 852h336l192 -575l394 575h331l-628 -868l-115 -596h-320z" />
    <glyph glyph-name="uni04AF" unicode="&#x4af;" horiz-adv-x="1112" vert-adv-y="2457" 
d="M593 -13l-87 -386h-289l97 429l-186 1041h315l97 -678l344 678h307z" />
    <glyph glyph-name="uni04B0" unicode="&#x4b0;" horiz-adv-x="1325" vert-adv-y="2457" 
d="M454 247h-237l34 244h251l23 121l-309 852h336l192 -575l394 575h331l-628 -868l-21 -105h269l-27 -244h-289l-47 -247h-320z" />
    <glyph glyph-name="uni04B1" unicode="&#x4b1;" horiz-adv-x="1112" vert-adv-y="2457" 
d="M601 1h202l-22 -206h-231l-44 -194h-289l44 194h-169l29 206h186l7 30l-186 1040h315l97 -678l344 678h307z" />
    <glyph glyph-name="uni04B2" unicode="&#x4b2;" horiz-adv-x="1427" vert-adv-y="2457" 
d="M1057 0h-147l-200 536l-400 -536h-356l614 770l-295 694h361l174 -477l338 477h354l-555 -719l210 -485h218l-119 -614h-236z" />
    <glyph glyph-name="uni04B3" unicode="&#x4b3;" horiz-adv-x="1155" vert-adv-y="2457" 
d="M904 240h203l-108 -559h-226l39 319h-135l-141 356l-268 -356h-326l459 563l-230 508h336l121 -317l234 317h327l-428 -516z" />
    <glyph glyph-name="uni04B6" unicode="&#x4b6;" horiz-adv-x="1374" vert-adv-y="2457" 
d="M1369 260l-117 -618h-236l40 358h-297l103 529q-128 -150 -351 -150q-171 0 -258 95q-78 85 -78 232q0 106 34 280l93 478h322l-100 -514q-23 -116 -23 -161q0 -150 160 -150q108 0 177.5 63t92.5 182l113 580h322l-235 -1204h238z" />
    <glyph glyph-name="uni04B7" unicode="&#x4b7;" horiz-adv-x="1144" vert-adv-y="2457" 
d="M857 0h-263l83 425q-116 -161 -295 -161q-123 0 -196 77.5t-73 208.5q0 83 20 186l65 335h303l-66 -342q-13 -66 -13 -108q0 -119 119 -119q69 0 120 53t69 143l72 373h303l-155 -828h204l-110 -559h-226z" />
    <glyph glyph-name="uni04B8" unicode="&#x4b8;" horiz-adv-x="1350" vert-adv-y="2457" 
d="M696 411l-45 -229h-158l38 197h-21q-170 0 -257 95q-78 85 -78 232q0 106 34 280l93 478h322l-100 -514q-23 -116 -23 -162q0 -107 84 -138l55 280h158l-55 -280q151 43 188 234l113 580h322l-285 -1464h-322l103 529q-67 -78 -166 -118z" />
    <glyph glyph-name="uni04B9" unicode="&#x4b9;" horiz-adv-x="1144" vert-adv-y="2457" 
d="M461 525l49 244h159l-49 -246q85 49 110 175l72 373h303l-208 -1071h-303l83 425q-45 -62 -97 -99l-49 -247h-159l37 186q-16 -1 -28 -1q-122 0 -195 78t-73 209q0 83 20 186l65 334h303l-66 -342q-13 -66 -13 -108q0 -65 39 -96z" />
    <glyph glyph-name="uni04BA" unicode="&#x4ba;" horiz-adv-x="1341" vert-adv-y="2457" 
d="M460 1464h321l-102 -529q127 150 351 150q171 0 258 -95q78 -85 78 -232q0 -104 -34 -280l-93 -478h-322l100 514q23 117 23 161q0 150 -160 150q-109 0 -178 -63t-93 -182l-112 -580h-322z" />
    <glyph glyph-name="uni04BB" unicode="&#x4bb;" horiz-adv-x="1208" vert-adv-y="2457" 
d="M38 0l299 1542h303l-122 -637q129 193 332 193q127 0 197 -77.5t70 -217.5q0 -60 -19 -159l-122 -644h-305l121 631q12 62 12 92q0 125 -118 125q-86 0 -144.5 -63t-81.5 -181l-119 -604h-303z" />
    <glyph glyph-name="uni04C0" unicode="&#x4c0;" horiz-adv-x="665" vert-adv-y="2457" 
d="M64 0l285 1464h328l-285 -1464h-328z" />
    <glyph glyph-name="uni04CF" unicode="&#x4cf;" horiz-adv-x="665" vert-adv-y="2457" 
d="M64 0l285 1464h328l-285 -1464h-328z" />
    <glyph glyph-name="uni04D8" unicode="&#x4d8;" horiz-adv-x="1575" vert-adv-y="2457" 
d="M226 1070q24 61 102 157q214 260 562 260q310 0 484 -196q153 -173 153 -455q0 -272 -129 -492q-105 -176 -271 -272q-166 -95 -372 -95q-282 0 -451 167q-84 84 -129 201q-47 124 -47 255q0 100 23 266h1044q-3 153 -55 239q-77 130 -247 130q-117 0 -209.5 -67
t-147.5 -190zM1168 622h-708q1 -168 54 -257q81 -136 254 -136q258 0 371 302q18 46 29 91z" />
    </font>
</defs>
</svg>
