<?xml version="1.0" standalone="no"?>
<!DOCTYPE svg PUBLIC "-//W3C//DTD SVG 1.1//EN" "http://www.w3.org/Graphics/SVG/1.1/DTD/svg11.dtd" >
<svg xmlns="http://www.w3.org/2000/svg">
<metadata>
Created at Thu Mar 20 14:01:10 2014

Copyright 2004 - 2010 by Robert Bosch GmbH
</metadata>
<defs>
<font id="BoschSans-RegularItalic" horiz-adv-x="1233" vert-adv-y="2048" >
  <font-face 
    font-family="Bosch Sans Regular"
    font-weight="400"
    font-style="italic"
    font-stretch="normal"
    units-per-em="2048"
    panose-1="2 11 6 4 2 2 2 9 2 4"
    ascent="1638"
    descent="-410"
    x-height="1071"
    cap-height="1464"
    bbox="-425 -496 2401 2104"
    underline-thickness="137"
    underline-position="-267"
    slope="-11"
    unicode-range="U+0020-FB04"
  />
<missing-glyph horiz-adv-x="616" vert-adv-y="2457" 
d="M62 0v1464h492v-1464h-492zM492 62v1340h-368v-1340h368z" />
    <glyph glyph-name="fi" unicode="fi" horiz-adv-x="1239" vert-adv-y="2457" 
d="M117 0l180 934h-147l26 137h148l37 186q33 166 136 245q82 62 199 62q112 0 193 -61l-72 -127q-57 47 -125 47q-131 0 -165 -170l-37 -182h223l-27 -137h-223l-180 -934h-166zM1131 1497q43 0 71 -26.5t28 -67.5q0 -50 -34.5 -84.5t-83.5 -34.5q-42 0 -69.5 27.5
t-27.5 69.5q0 49 33.5 82.5t82.5 33.5zM772 0l209 1071h168l-209 -1071h-168z" />
    <glyph glyph-name="fl" unicode="fl" horiz-adv-x="1217" vert-adv-y="2457" 
d="M117 0l180 934h-147l26 137h148l37 186q33 166 136 245q82 62 199 62q112 0 193 -61l-72 -127q-57 47 -125 47q-131 0 -165 -170l-37 -182h223l-27 -137h-223l-180 -934h-166zM748 0l299 1542h170l-299 -1542h-170z" />
    <glyph glyph-name="afii61352" unicode="Nr&#x2e;" horiz-adv-x="2454" vert-adv-y="2457" 
d="M86 0l285 1464h186l430 -1249l242 1249h157l-284 -1464h-201l-420 1224l-237 -1224h-158zM1996 1376q203 0 313 -140q92 -117 92 -311q0 -140 -45 -270t-124 -222q-145 -165 -368 -165q-100 0 -184 39.5t-136 110.5q-89 121 -89 309q0 179 74 335q81 168 221 249
q113 65 246 65zM1988 1239q-172 0 -269 -155q-94 -148 -94 -368q0 -311 249 -311q159 0 255 150q98 155 98 388q0 141 -56 213q-63 83 -183 83zM1307 0l27 137h934l-27 -137h-934z" />
    <glyph glyph-name="ff" unicode="ff" horiz-adv-x="1176" vert-adv-y="2457" 
d="M819 1071l31 155q29 146 84 218q93 120 258 120q110 0 192 -61l-71 -127q-58 47 -126 47q-74 0 -111 -43t-60 -156l-31 -153h223l-26 -137h-224l-180 -934h-166l181 934h-330l-180 -934h-166l180 934h-147l26 137h148l30 155q29 146 85 218q93 120 257 120q111 0 193 -61
l-72 -127q-57 47 -125 47q-74 0 -111.5 -43t-59.5 -156l-31 -153h329z" />
    <glyph glyph-name="ffi" unicode="ffi" horiz-adv-x="1562" vert-adv-y="2457" 
d="M819 1071l31 155q29 146 84 218q93 120 258 120q110 0 192 -61l-71 -127q-58 47 -126 47q-74 0 -111 -43t-60 -156l-31 -153h223l-26 -137h-224l-180 -934h-166l181 934h-330l-180 -934h-166l180 934h-147l26 137h148l30 155q29 146 85 218q93 120 257 120q111 0 193 -61
l-72 -127q-57 47 -125 47q-74 0 -111.5 -43t-59.5 -156l-31 -153h329zM1530 1497q43 0 71 -26.5t28 -67.5q0 -50 -34.5 -84.5t-83.5 -34.5q-42 0 -69.5 27.5t-27.5 69.5q0 49 33.5 82.5t82.5 33.5zM1172 0l208 1071h168l-208 -1071h-168z" />
    <glyph glyph-name="ffl" unicode="ffl" horiz-adv-x="1676" vert-adv-y="2457" 
d="M819 1071l31 155q29 146 84 218q93 120 258 120q110 0 192 -61l-71 -127q-58 47 -126 47q-74 0 -111 -43t-60 -156l-31 -153h223l-26 -137h-224l-180 -934h-166l181 934h-330l-180 -934h-166l180 934h-147l26 137h148l30 155q29 146 85 218q93 120 257 120q111 0 193 -61
l-72 -127q-57 47 -125 47q-74 0 -111.5 -43t-59.5 -156l-31 -153h329zM1186 0l299 1542h170l-299 -1542h-170z" />
    <glyph glyph-name=".notdef" horiz-adv-x="616" vert-adv-y="2457" 
d="M62 0v1464h492v-1464h-492zM492 62v1340h-368v-1340h368z" />
    <glyph glyph-name="glyph1" horiz-adv-x="0" vert-adv-y="0" 
 />
    <glyph glyph-name="glyph2" horiz-adv-x="616" vert-adv-y="2457" 
 />
    <glyph glyph-name="space" unicode=" " horiz-adv-x="616" vert-adv-y="2457" 
 />
    <glyph glyph-name="exclam" unicode="!" horiz-adv-x="707" vert-adv-y="2457" 
d="M324 250q53 0 87.5 -34t34.5 -87q0 -58 -40.5 -97.5t-99.5 -39.5q-52 0 -87 34.5t-35 86.5q0 57 41 97t99 40zM331 440l68 576l88 448h182l-92 -469l-155 -555h-91z" />
    <glyph glyph-name="quotedbl" unicode="&#x22;" horiz-adv-x="797" vert-adv-y="2457" 
d="M246 921l80 543h180l-139 -543h-121zM574 921l80 543h180l-139 -543h-121z" />
    <glyph glyph-name="numbersign" unicode="#" horiz-adv-x="1147" vert-adv-y="2457" 
d="M251 268l78 324h-193l29 143h198l66 267h-193l29 143h199l78 319h124l-79 -319h229l80 319h125l-80 -319h199l-29 -143h-205l-65 -267h198l-29 -143h-204l-78 -324h-125l78 324h-230l-77 -324h-123zM486 735h230l65 267h-229z" />
    <glyph glyph-name="dollar" unicode="$" vert-adv-y="2457" 
d="M390 -276l51 270q-178 42 -273 152q-84 97 -114 252l164 30q39 -241 250 -297l112 576q-153 66 -219 127q-104 96 -104 247q0 184 128.5 293.5t344.5 108.5l37 182h118l-38 -197q243 -55 315 -321l-156 -39q-33 101 -73.5 149t-112.5 72l-98 -506q167 -69 240 -133
q114 -100 114 -262q0 -204 -141.5 -325.5t-376.5 -120.5l-49 -258h-119zM611 866l92 480q-136 0 -211 -64t-75 -181q0 -84 40.5 -133t153.5 -102zM584 119q121 1 195 45q129 75 129 246q0 89 -46 142.5t-171 109.5z" />
    <glyph glyph-name="percent" unicode="%" horiz-adv-x="1765" vert-adv-y="2457" 
d="M563 1476q127 0 203 -87q77 -88 77 -244q0 -112 -37.5 -212t-103.5 -167q-97 -97 -227 -97q-129 0 -208 91.5t-79 240.5q0 201 113 343q105 132 262 132zM550 1351q-98 0 -152 -97q-56 -100 -56 -257q0 -203 146 -203q95 0 147 93q59 107 59 260q0 204 -144 204z
M1374 795q127 0 203 -87q77 -88 77 -244q0 -112 -37 -212t-104 -167q-97 -97 -227 -97q-129 0 -208 91.5t-79 240.5q0 201 113 343q105 132 262 132zM1361 670q-98 0 -152 -97q-56 -100 -56 -257q0 -203 146 -203q94 0 146 93q60 107 60 260q0 204 -144 204zM356 0l991 1464
h139l-991 -1464h-139z" />
    <glyph glyph-name="ampersand" unicode="&#x26;" horiz-adv-x="1288" vert-adv-y="2457" 
d="M832 94q-156 -110 -345 -110q-173 0 -284 90q-135 109 -135 305q0 162 96.5 277.5t309.5 207.5q-21 102 -21 199q0 199 110 310q96 97 240 97q108 0 177 -59q83 -71 83 -195q0 -136 -97 -233t-314 -178q71 -240 219 -477q96 145 166 385h147q-89 -325 -233 -502
q72 -84 156 -84q28 0 59 8l-15 -133q-43 -14 -89 -14q-122 0 -230 106zM500 748q-117 -57 -176 -124q-86 -98 -86 -243q0 -117 61 -186q71 -80 202 -80q137 0 253 84q-175 287 -254 549zM623 920q130 50 189 98q100 80 100 201q0 60 -31.5 93t-88.5 33q-86 0 -134.5 -71.5
t-48.5 -199.5q0 -78 14 -154z" />
    <glyph glyph-name="quotesingle" unicode="'" horiz-adv-x="471" vert-adv-y="2457" 
d="M246 921l80 543h180l-139 -543h-121z" />
    <glyph glyph-name="parenleft" unicode="(" horiz-adv-x="868" vert-adv-y="2457" 
d="M424 -303q-180 326 -180 692q0 438 227 823q108 183 293 377h158q-212 -241 -322 -451q-186 -354 -186 -759q0 -361 152 -682h-142z" />
    <glyph glyph-name="parenright" unicode=")" horiz-adv-x="868" vert-adv-y="2457" 
d="M486 1589q180 -326 180 -691q0 -439 -227 -824q-109 -185 -293 -377h-158q212 241 322 451q186 355 186 759q0 361 -152 682h142z" />
    <glyph glyph-name="asterisk" unicode="*" horiz-adv-x="903" vert-adv-y="2457" 
d="M357 835l-111 82l232 240l-238 74l66 139l217 -121l28 293h152l-80 -297l250 109l37 -140l-277 -61l144 -250l-129 -68l-101 250z" />
    <glyph glyph-name="plus" unicode="+" horiz-adv-x="1147" vert-adv-y="2457" 
d="M438 215l82 418h-348l27 135h348l82 418h145l-82 -418h346l-26 -135h-346l-82 -418h-146z" />
    <glyph glyph-name="comma" unicode="," horiz-adv-x="616" vert-adv-y="2457" 
d="M19 -283l18 97q145 32 176 180q-116 16 -116 121q0 57 39 96t95 39q61 0 95.5 -40.5t34.5 -111.5q0 -161 -102 -271q-47 -51 -100.5 -75.5t-139.5 -34.5z" />
    <glyph glyph-name="hyphen" unicode="-" horiz-adv-x="616" vert-adv-y="2457" 
d="M104 591l29 154h430l-29 -154h-430z" />
    <glyph glyph-name="period" unicode="." horiz-adv-x="616" vert-adv-y="2457" 
d="M236 250q53 0 87.5 -34t34.5 -87q0 -58 -40.5 -97.5t-99.5 -39.5q-52 0 -87 34.5t-35 86.5q0 57 41 97t99 40z" />
    <glyph glyph-name="slash" unicode="/" horiz-adv-x="854" vert-adv-y="2457" 
d="M-129 -303l946 1892h160l-946 -1892h-160z" />
    <glyph glyph-name="zero" unicode="0" vert-adv-y="2457" 
d="M742 1482q245 0 360 -217q75 -141 75 -358q0 -271 -100 -513q-82 -196 -213 -304q-129 -106 -293 -106q-168 0 -280 115q-155 159 -155 476q0 159 37 315t103 278q86 159 218 244q109 70 248 70zM733 1347q-119 0 -217 -104q-91 -98 -146 -282q-59 -194 -59 -413
q0 -252 99 -358q65 -71 170 -71q118 0 214 105q87 95 144 279q62 198 62 415q0 182 -54 288q-72 141 -213 141z" />
    <glyph glyph-name="one" unicode="1" vert-adv-y="2457" 
d="M137 0l27 135h342l202 1044q-137 -55 -352 -57l23 115q170 19 265 67q120 64 181 189h108l-264 -1358h310l-27 -135h-815z" />
    <glyph glyph-name="two" unicode="2" vert-adv-y="2457" 
d="M48 0l27 141q377 282 502 386t209 207q152 187 152 375q0 94 -40 153q-55 81 -173 81q-111 0 -182.5 -65t-132.5 -219l-149 41q132 382 475 382q176 0 277 -100q103 -101 103 -271q0 -117 -47 -221q-85 -189 -252 -347t-546 -408h717l-27 -135h-913z" />
    <glyph glyph-name="three" unicode="3" vert-adv-y="2457" 
d="M841 756q219 -87 219 -328q0 -186 -123 -309q-136 -135 -369 -135q-222 0 -356 125q-60 56 -92 124.5t-45 170.5l166 22q14 -100 49 -162q82 -145 291 -145q152 0 230 88q73 80 73 221q0 273 -287 273h-119l29 135h123q340 0 340 274q0 109 -68 173t-185 64
q-122 0 -195 -57.5t-130 -197.5l-133 45q52 144 137 223q130 122 335 122q196 0 308 -112q99 -99 99 -249q0 -269 -297 -365z" />
    <glyph glyph-name="four" unicode="4" vert-adv-y="2457" 
d="M682 0l59 311h-696l31 164l879 1012h176l-203 -1041h192l-24 -135h-195l-59 -311h-160zM227 446h541l160 821z" />
    <glyph glyph-name="five" unicode="5" vert-adv-y="2457" 
d="M426 856q118 109 285 109q174 0 276 -114q96 -108 96 -294q0 -264 -165 -429q-145 -146 -355 -146q-196 0 -322 111q-100 88 -141 247l158 37q27 -98 62 -148q79 -112 241 -112q195 0 285 159q67 117 67 281q0 273 -243 273q-177 0 -294 -148h-141l203 782h741l-28 -143
h-605z" />
    <glyph glyph-name="six" unicode="6" vert-adv-y="2457" 
d="M349 745q138 185 366 185q178 0 291 -113q114 -115 114 -298q0 -112 -41.5 -216t-116.5 -178q-143 -143 -358 -143t-330 141.5t-115 405.5q0 342 158 624q97 171 249 261q114 68 261 68q161 0 259 -88q47 -43 74 -96.5t50 -148.5l-158 -39q-28 126 -83 179.5t-155 53.5
q-340 0 -465 -598zM680 797q-151 0 -245 -95q-104 -104 -104 -278q0 -158 92 -242q73 -67 193 -67q182 0 270 155q60 106 60 243q0 146 -83 222q-69 62 -183 62z" />
    <glyph glyph-name="seven" unicode="7" vert-adv-y="2457" 
d="M274 0q98 405 269 703q195 338 528 626h-795l27 135h950l-31 -160q-363 -291 -578 -716q-132 -266 -196 -588h-174z" />
    <glyph glyph-name="eight" unicode="8" vert-adv-y="2457" 
d="M900 770q219 -115 219 -335q0 -224 -176 -350q-143 -103 -346 -103q-213 0 -360 116q-146 116 -146 302q0 153 96 262q50 57 109 89.5t160 59.5q-160 99 -160 272q0 194 159 308q126 91 299 91q179 0 300 -96q129 -103 129 -265q0 -126 -72 -215t-211 -136zM620 723
q-165 0 -260 -95q-87 -85 -87 -221q0 -131 90.5 -210.5t239.5 -79.5q165 0 256 101q78 87 78 221q0 117 -77 194q-88 90 -240 90zM746 1351q-136 0 -212 -83q-64 -71 -64 -182q0 -140 106 -198q69 -38 162 -38q130 0 203 80q64 71 64 185q0 108 -70 172t-189 64z" />
    <glyph glyph-name="nine" unicode="9" vert-adv-y="2457" 
d="M955 737q-134 -166 -360 -166q-179 0 -292 115q-117 119 -117 305q0 202 131 341q141 150 371 150q224 0 339 -142.5t115 -419.5q0 -298 -103 -538q-113 -265 -318 -356q-101 -44 -217 -44q-161 0 -267 85q-56 45 -89 101.5t-57 146.5l158 39q36 -136 108 -188
q61 -45 154 -45q213 0 331 223q40 75 64 159t49 234zM689 1349q-184 0 -272 -143q-57 -93 -57 -223q0 -133 71.5 -206t200.5 -73q156 0 251 99q90 95 90 247q0 137 -75 217q-77 82 -209 82z" />
    <glyph glyph-name="colon" unicode=":" horiz-adv-x="616" vert-adv-y="2457" 
d="M236 250q53 0 87.5 -34t34.5 -87q0 -58 -40.5 -97.5t-99.5 -39.5q-52 0 -87 34.5t-35 86.5q0 57 41 97t99 40zM356 858q52 0 86.5 -34t34.5 -87q0 -58 -40 -97.5t-100 -39.5q-52 0 -87 34.5t-35 86.5q0 57 41 97t100 40z" />
    <glyph glyph-name="semicolon" unicode=";" horiz-adv-x="616" vert-adv-y="2457" 
d="M19 -283l18 97q145 32 176 180q-116 16 -116 121q0 57 39 96t95 39q61 0 95.5 -40.5t34.5 -111.5q0 -161 -102 -271q-47 -51 -100.5 -75.5t-139.5 -34.5zM356 858q52 0 86.5 -34t34.5 -87q0 -58 -40 -97.5t-100 -39.5q-52 0 -87 34.5t-35 86.5q0 57 41 97t100 40z" />
    <glyph glyph-name="less" unicode="&#x3c;" horiz-adv-x="1147" vert-adv-y="2457" 
d="M869 182l-670 406l27 143l829 406l-35 -179l-651 -307l530 -309z" />
    <glyph glyph-name="equal" unicode="=" horiz-adv-x="1147" vert-adv-y="2457" 
d="M162 406l29 139h770l-29 -139h-770zM234 774l28 139h770l-28 -139h-770z" />
    <glyph glyph-name="greater" unicode="&#x3e;" horiz-adv-x="1147" vert-adv-y="2457" 
d="M139 182l35 178l651 308l-530 309l30 160l670 -406l-27 -143z" />
    <glyph glyph-name="question" unicode="?" horiz-adv-x="1047" vert-adv-y="2457" 
d="M392 440l22 123q20 109 77.5 181t184.5 149q117 70 164 130t47 140q0 85 -54.5 134.5t-148.5 49.5q-212 0 -305 -254l-139 37q51 170 167 259q119 93 286 93q188 0 286 -108q76 -83 76 -210q0 -148 -122 -258q-54 -48 -197 -134q-86 -52 -124.5 -104t-54.5 -138l-16 -90
h-149zM408 250q52 0 86.5 -34t34.5 -87q0 -58 -40.5 -97.5t-99.5 -39.5q-52 0 -87 34.5t-35 86.5q0 57 41 97t100 40z" />
    <glyph glyph-name="at" unicode="@" horiz-adv-x="1845" vert-adv-y="2457" 
d="M1368 -178q-130 -83 -245 -116t-273 -33q-330 0 -532 203q-107 108 -164 259q-56 149 -56 315q0 243 118 448q118 204 323 323q204 119 442 119q231 0 416 -106q166 -94 260 -257q92 -160 92 -362q0 -282 -150 -434q-112 -113 -266 -113q-198 0 -225 188
q-58 -93 -118 -138q-87 -66 -200 -66q-131 0 -205.5 89.5t-74.5 246.5q0 238 131 402q125 157 306 157q155 0 216 -142l29 119h155l-95 -466q-17 -81 -17 -128q0 -133 115 -133q126 0 197 127q65 116 65 289q0 260 -162 422q-177 176 -474 176q-311 0 -518 -207
q-215 -215 -215 -548q0 -327 197 -509q157 -145 422 -145q126 0 220 27.5t216 99.5zM943 806q-124 0 -199 -132q-70 -126 -70 -287q0 -194 146 -194q117 0 197 113q89 124 89 303q0 93 -42.5 145t-120.5 52z" />
    <glyph glyph-name="A" unicode="A" horiz-adv-x="1257" vert-adv-y="2457" 
d="M294 371l-194 -371h-168l791 1466h163l230 -1466h-164l-55 371h-603zM365 506h512l-114 761z" />
    <glyph glyph-name="B" unicode="B" horiz-adv-x="1335" vert-adv-y="2457" 
d="M86 0l285 1464h478q168 0 270 -58q153 -88 153 -284q0 -137 -67 -225.5t-214 -145.5q102 -34 153 -88q77 -80 77 -219q0 -210 -140.5 -327t-392.5 -117h-602zM279 139h425q188 0 271 76q84 76 84 221q0 150 -107 212q-67 38 -199 38h-368zM412 825h336q98 0 154 12
t103 43q107 69 107 231q0 214 -256 214h-346z" />
    <glyph glyph-name="C" unicode="C" horiz-adv-x="1454" vert-adv-y="2457" 
d="M1311 405q-67 -144 -128 -217q-173 -206 -461 -206q-258 0 -407 168q-147 167 -147 458q0 228 86 425q93 215 266 334q166 115 376 115q270 0 397 -185q36 -52 54.5 -105t37.5 -156l-156 -31q-22 130 -63 197q-85 141 -277 141q-245 0 -396 -213t-151 -528
q0 -189 67 -307q100 -174 325 -174q152 0 257.5 83t177.5 259z" />
    <glyph glyph-name="D" unicode="D" horiz-adv-x="1438" vert-adv-y="2457" 
d="M86 0l285 1464h400q238 0 372 -91q211 -145 211 -498q0 -250 -91 -454q-115 -259 -362 -360q-150 -61 -338 -61h-477zM278 139h303q291 0 448 197q75 95 116 237t41 308q0 233 -99.5 338.5t-318.5 105.5h-258z" />
    <glyph glyph-name="E" unicode="E" horiz-adv-x="1210" vert-adv-y="2457" 
d="M86 0l285 1464h876l-27 -139h-711l-101 -520h581l-25 -135h-582l-103 -531h748l-28 -139h-913z" />
    <glyph glyph-name="F" unicode="F" horiz-adv-x="1169" vert-adv-y="2457" 
d="M86 0l285 1464h858l-28 -139h-692l-108 -555h547l-25 -135h-547l-124 -635h-166z" />
    <glyph glyph-name="G" unicode="G" horiz-adv-x="1530" vert-adv-y="2457" 
d="M1165 256q-175 -274 -471 -274q-206 0 -341 124q-181 165 -181 494q0 232 88 431q87 197 243 315q178 136 414 136q276 0 404 -189q33 -49 52 -102t38 -153l-154 -40q-26 129 -69 206q-78 139 -281 139q-259 0 -415 -218q-150 -208 -150 -521q0 -199 70 -321
q92 -162 307 -162q184 0 311.5 120.5t175.5 338.5l8 37h-368l26 139h531l-148 -756h-100z" />
    <glyph glyph-name="H" unicode="H" horiz-adv-x="1393" vert-adv-y="2457" 
d="M86 0l285 1464h168l-129 -667h675l129 667h168l-284 -1464h-168l127 654h-676l-127 -654h-168z" />
    <glyph glyph-name="I" unicode="I" horiz-adv-x="582" vert-adv-y="2457" 
d="M102 0l285 1464h168l-285 -1464h-168z" />
    <glyph glyph-name="J" unicode="J" horiz-adv-x="1102" vert-adv-y="2457" 
d="M1101 1464l-204 -1052q-41 -209 -160 -319.5t-304 -110.5q-191 0 -290 109q-84 92 -84 243q0 63 12 123l13 59h165l-10 -53q-14 -74 -14 -137q0 -209 209 -209q143 0 217 98q55 73 80 203l202 1046h168z" />
    <glyph glyph-name="K" unicode="K" horiz-adv-x="1284" vert-adv-y="2457" 
d="M86 0l285 1464h168l-144 -737l774 739h197l-651 -614l393 -852h-178l-340 735l-236 -219l-100 -516h-168z" />
    <glyph glyph-name="L" unicode="L" horiz-adv-x="1155" vert-adv-y="2457" 
d="M86 0l285 1464h168l-258 -1325h684l-27 -139h-852z" />
    <glyph glyph-name="M" unicode="M" horiz-adv-x="1683" vert-adv-y="2457" 
d="M86 0l285 1464h231l178 -1255l654 1255h239l-284 -1464h-164l239 1235l-645 -1235h-155l-183 1235l-239 -1235h-156z" />
    <glyph glyph-name="N" unicode="N" horiz-adv-x="1397" vert-adv-y="2457" 
d="M86 0l285 1464h186l430 -1249l242 1249h157l-284 -1464h-201l-420 1224l-237 -1224h-158z" />
    <glyph glyph-name="O" unicode="O" horiz-adv-x="1569" vert-adv-y="2457" 
d="M905 1482q244 0 399 -155q174 -173 174 -477q0 -281 -129 -506q-103 -181 -268 -275q-151 -87 -339 -87q-243 0 -400 155q-175 173 -175 481q0 223 86 418q79 181 220 295q185 151 432 151zM894 1343q-194 0 -330 -128q-113 -105 -172 -285q-49 -151 -49 -325
q0 -262 136 -387q107 -97 282 -97q185 0 318 127q112 106 171 288q49 153 49 325q0 264 -136 389q-102 93 -269 93z" />
    <glyph glyph-name="P" unicode="P" horiz-adv-x="1270" vert-adv-y="2457" 
d="M86 0l285 1464h435q125 0 198 -16t128 -55q134 -95 134 -294q0 -236 -159 -365q-142 -115 -412 -115h-323l-120 -619h-166zM399 758h318q383 0 383 339q0 127 -78 184q-60 44 -228 44h-284z" />
    <glyph glyph-name="Q" unicode="Q" horiz-adv-x="1569" vert-adv-y="2457" 
d="M1099 79q-162 -97 -352 -97q-248 0 -405 155q-175 173 -175 481q0 223 86 418q79 181 220 295q185 151 432 151q244 0 399 -155q174 -173 174 -478q0 -195 -67 -373t-185 -295l155 -175l-120 -108zM1003 187l-174 196l120 108l175 -196q33 42 58 85q117 206 117 480
q0 265 -137 389q-102 94 -268 94q-195 0 -331 -127q-112 -105 -170 -285q-50 -152 -50 -325q0 -264 136 -390q106 -97 272 -97q140 0 252 68z" />
    <glyph glyph-name="R" unicode="R" horiz-adv-x="1313" vert-adv-y="2457" 
d="M86 0l285 1464h411q165 0 258 -37q205 -81 205 -317q0 -170 -95 -275q-46 -51 -104.5 -80t-160.5 -52q115 -42 156 -120q24 -43 30.5 -88.5t9.5 -171.5q6 -238 47 -313l-2 -10h-168q-36 101 -38 301q-2 134 -15 191t-51 96q-62 64 -216 64h-260l-126 -652h-166zM405 791
h295q168 0 253 50q128 74 128 259q0 118 -69 171.5t-223 53.5h-279z" />
    <glyph glyph-name="S" unicode="S" horiz-adv-x="1231" vert-adv-y="2457" 
d="M1015 1102q-31 98 -75 148q-83 95 -240 95q-138 0 -216.5 -65t-78.5 -179q0 -97 55.5 -148.5t231.5 -117.5q190 -70 270 -137q123 -102 123 -272q0 -177 -118 -298q-143 -146 -393 -146q-451 0 -531 421l163 31q27 -135 84 -201q97 -114 282 -114q183 0 275 99
q70 76 70 193q0 97 -59.5 154.5t-227.5 120.5q-186 70 -265 133q-120 97 -120 261q0 199 150 311q122 91 304 91q373 0 472 -342z" />
    <glyph glyph-name="T" unicode="T" horiz-adv-x="1241" vert-adv-y="2457" 
d="M434 0l257 1325h-446l27 139h1057l-27 -139h-447l-257 -1325h-164z" />
    <glyph glyph-name="U" unicode="U" horiz-adv-x="1411" vert-adv-y="2457" 
d="M1407 1464l-188 -966q-42 -217 -128 -328q-146 -188 -432 -188q-257 0 -382 138q-101 111 -101 301q0 76 28 222l160 821h168l-165 -847q-25 -128 -25 -199q0 -151 82 -224q79 -71 246 -71q174 0 264 90t132 306l183 945h158z" />
    <glyph glyph-name="V" unicode="V" horiz-adv-x="1190" vert-adv-y="2457" 
d="M422 0l-221 1464h166l168 -1218l647 1218h168l-797 -1464h-131z" />
    <glyph glyph-name="W" unicode="W" horiz-adv-x="1884" vert-adv-y="2457" 
d="M340 0l-102 1464h168l63 -1167l586 1167h133l125 -1171l531 1171h163l-671 -1464h-137l-127 1179l-598 -1179h-134z" />
    <glyph glyph-name="X" unicode="X" horiz-adv-x="1217" vert-adv-y="2457" 
d="M-53 0l606 762l-291 702h179l241 -586l455 586h188l-573 -723l309 -741h-178l-258 627l-492 -627h-186z" />
    <glyph glyph-name="Y" unicode="Y" horiz-adv-x="1143" vert-adv-y="2457" 
d="M398 0l118 616l-319 848h178l250 -702l500 702h182l-627 -858l-116 -606h-166z" />
    <glyph glyph-name="Z" unicode="Z" horiz-adv-x="1206" vert-adv-y="2457" 
d="M10 0l29 147l1021 1178h-750l28 139h925l-32 -164l-998 -1161h764l-26 -139h-961z" />
    <glyph glyph-name="bracketleft" unicode="[" horiz-adv-x="868" vert-adv-y="2457" 
d="M89 -303l369 1892h450l-26 -139h-283l-315 -1614h282l-26 -139h-451z" />
    <glyph glyph-name="backslash" unicode="\" horiz-adv-x="854" vert-adv-y="2457" 
d="M514 -303l-227 1892h143l226 -1892h-142z" />
    <glyph glyph-name="bracketright" unicode="]" horiz-adv-x="868" vert-adv-y="2457" 
d="M820 1589l-368 -1892h-451l27 139h282l316 1614h-283l27 139h450z" />
    <glyph glyph-name="asciicircum" unicode="^" horiz-adv-x="1098" vert-adv-y="2457" 
d="M217 836l434 628h139l189 -628h-156l-133 450l-303 -450h-170z" />
    <glyph glyph-name="underscore" unicode="_" horiz-adv-x="901" vert-adv-y="2457" 
d="M-224 -403l27 137h983l-27 -137h-983z" />
    <glyph glyph-name="grave" unicode="`" horiz-adv-x="1024" vert-adv-y="2457" 
d="M666 1210l-168 332h207l65 -332h-104z" />
    <glyph glyph-name="a" unicode="a" horiz-adv-x="1075" vert-adv-y="2457" 
d="M659 143q-136 -161 -308 -161q-134 0 -218 79.5t-84 205.5q0 132 80.5 213.5t251.5 121.5q117 28 362 37l13 67q8 47 8 74q0 168 -181 168q-161 0 -315 -123l-80 109q183 155 415 155q168 0 253 -83q76 -73 76 -196q0 -49 -11 -104l-92 -477q-3 -17 -3 -32q0 -71 102 -74
l-27 -131q-31 -3 -45 -3q-172 0 -197 154zM719 520q-195 -6 -301 -34q-199 -54 -199 -214q0 -155 180 -155q111 0 190 64.5t99 172.5z" />
    <glyph glyph-name="b" unicode="b" vert-adv-y="2457" 
d="M434 923q132 166 332 166q176 0 276 -123q91 -113 91 -310q0 -159 -52.5 -300t-146.5 -234q-141 -140 -332 -140q-230 0 -309 220l-39 -202h-168l299 1542h168zM723 952q-129 0 -229 -93q-73 -68 -114.5 -181t-41.5 -246q0 -151 69.5 -232t198.5 -81q172 0 264 164
q85 151 85 358q0 311 -232 311z" />
    <glyph glyph-name="c" unicode="c" horiz-adv-x="1077" vert-adv-y="2457" 
d="M919 229q-87 -124 -170 -178q-108 -69 -255 -69q-174 0 -282 108q-120 119 -120 335q0 133 41 259.5t114 217.5q151 187 391 187q131 0 218 -59t143 -186l-139 -74q-50 108 -97 145t-133 37q-189 0 -286 -170q-82 -144 -82 -348q0 -315 248 -315q92 0 155.5 41.5
t135.5 148.5z" />
    <glyph glyph-name="d" unicode="d" horiz-adv-x="1237" vert-adv-y="2457" 
d="M804 158q-74 -95 -149.5 -135.5t-176.5 -40.5q-154 0 -255 101q-121 120 -121 345q0 138 39.5 263t111.5 215q146 183 373 183q113 0 195.5 -51.5t124.5 -148.5l127 653h168l-299 -1542h-168zM636 952q-178 0 -272 -165q-84 -148 -84 -356q0 -180 85 -258q59 -54 154 -54
q161 0 268 148q110 152 110 378q0 167 -86 246q-67 61 -175 61z" />
    <glyph glyph-name="e" unicode="e" horiz-adv-x="1061" vert-adv-y="2457" 
d="M901 199q-164 -217 -413 -217q-189 0 -294 117q-102 114 -102 314q0 269 159 466q170 210 424 210q162 0 251 -96q73 -78 73 -200q0 -172 -177.5 -254.5t-561.5 -87.5v-48q0 -284 236 -284q172 0 288 157zM278 582q297 0 425 48.5t128 160.5q0 77 -45.5 119t-128.5 42
q-193 0 -304 -177q-45 -74 -75 -193z" />
    <glyph glyph-name="f" unicode="f" horiz-adv-x="678" vert-adv-y="2457" 
d="M117 0l180 934h-147l26 137h148l30 155q29 146 85 218q93 120 257 120q111 0 193 -61l-72 -127q-57 47 -125 47q-74 0 -111.5 -43t-59.5 -156l-31 -153h223l-27 -137h-223l-180 -934h-166z" />
    <glyph glyph-name="g" unicode="g" horiz-adv-x="1122" vert-adv-y="2457" 
d="M363 434q-75 -49 -75 -111q0 -83 118 -83h213q181 0 270 -93q66 -69 66 -177q0 -221 -229 -316q-126 -53 -304 -53q-192 0 -309 66q-131 75 -131 214q0 163 229 246q-84 56 -84 152q0 125 152 211q-102 97 -102 224q0 178 155 290q118 85 276 85q107 0 199 -47l330 45
l-29 -149h-180q58 -84 58 -179q0 -180 -146 -285q-114 -83 -274 -83q-107 0 -203 43zM320 92q-160 -74 -160 -194q0 -160 282 -160q154 0 241 50q92 53 92 161q0 139 -175 139h-219q-39 0 -61 4zM596 960q-113 0 -182 -69q-67 -67 -67 -172q0 -93 60 -146t164 -53
q116 0 180.5 63t64.5 175q0 94 -59 148t-161 54z" />
    <glyph glyph-name="h" unicode="h" horiz-adv-x="1184" vert-adv-y="2457" 
d="M86 0l299 1542h168l-120 -625q127 172 321 172q137 0 213.5 -79t76.5 -221q0 -54 -14 -125l-129 -664h-168l131 676q10 50 10 100q0 174 -175 174q-123 0 -208 -83.5t-114 -233.5l-123 -633h-168z" />
    <glyph glyph-name="i" unicode="i" horiz-adv-x="557" vert-adv-y="2457" 
d="M449 1497q43 0 71 -26.5t28 -67.5q0 -50 -34.5 -84.5t-83.5 -34.5q-42 0 -69.5 27.5t-27.5 69.5q0 49 33.5 82.5t82.5 33.5zM90 0l209 1071h168l-209 -1071h-168z" />
    <glyph glyph-name="j" unicode="j" horiz-adv-x="557" vert-adv-y="2457" 
d="M467 1071l-236 -1206q-49 -254 -298 -254q-80 0 -146 41l55 127q52 -27 95 -27q104 0 126 115l236 1204h168zM449 1497q43 0 71 -26.5t28 -67.5q0 -50 -34.5 -84.5t-83.5 -34.5q-42 0 -69.5 27.5t-27.5 69.5q0 49 33.5 82.5t82.5 33.5z" />
    <glyph glyph-name="k" unicode="k" horiz-adv-x="1059" vert-adv-y="2457" 
d="M86 0l299 1542h168l-191 -979l494 508h199l-430 -428l274 -643h-176l-221 520l-183 -182l-65 -338h-168z" />
    <glyph glyph-name="l" unicode="l" horiz-adv-x="559" vert-adv-y="2457" 
d="M90 0l299 1542h170l-299 -1542h-170z" />
    <glyph glyph-name="m" unicode="m" horiz-adv-x="1733" vert-adv-y="2457" 
d="M86 0l209 1071h168l-30 -147q68 88 138 126.5t163 38.5q198 0 245 -206q80 109 163 157.5t189 48.5q124 0 193 -77t69 -215q0 -61 -14 -133l-129 -664h-168l131 676q12 61 12 115q0 159 -146 159q-113 0 -194 -84.5t-110 -232.5l-123 -633h-168l131 676q12 61 12 114
q0 160 -147 160q-112 0 -193.5 -85t-109.5 -232l-123 -633h-168z" />
    <glyph glyph-name="n" unicode="n" horiz-adv-x="1184" vert-adv-y="2457" 
d="M86 0l209 1071h168l-30 -154q127 172 321 172q137 0 213.5 -79t76.5 -221q0 -54 -14 -125l-129 -664h-168l131 676q10 50 10 95q0 179 -175 179q-123 0 -208 -83.5t-114 -233.5l-123 -633h-168z" />
    <glyph glyph-name="o" unicode="o" horiz-adv-x="1139" vert-adv-y="2457" 
d="M639 1089q189 0 297 -123q106 -120 106 -327q0 -151 -51.5 -289t-141.5 -228q-139 -140 -342 -140q-190 0 -302 125q-109 123 -109 334q0 127 39 246.5t110 208.5q154 193 394 193zM628 952q-182 0 -279 -172q-83 -147 -83 -352q0 -309 249 -309q172 0 264 165
q89 159 89 372q0 296 -240 296z" />
    <glyph glyph-name="p" unicode="p" vert-adv-y="2457" 
d="M14 -373l281 1444h168l-30 -154q131 172 333 172q166 0 265 -112q101 -114 101 -321q0 -140 -41 -267.5t-116 -220.5q-150 -186 -375 -186q-228 0 -308 215l-110 -570h-168zM724 952q-131 0 -230 -92q-73 -69 -114.5 -182.5t-41.5 -245.5q0 -151 69 -232t199 -81
q171 0 263 164q85 150 85 359q0 310 -230 310z" />
    <glyph glyph-name="q" unicode="q" horiz-adv-x="1237" vert-adv-y="2457" 
d="M700 -373l104 531q-74 -95 -149.5 -135.5t-175.5 -40.5q-155 0 -256 101q-121 120 -121 346q0 137 39 262t109 215q144 183 370 183q114 0 198.5 -52t127.5 -148l35 182h168l-281 -1444h-168zM636 952q-178 0 -272 -165q-84 -148 -84 -356q0 -180 85 -258q59 -54 154 -54
q161 0 268 148q110 152 110 378q0 167 -86 246q-67 61 -175 61z" />
    <glyph glyph-name="r" unicode="r" horiz-adv-x="846" vert-adv-y="2457" 
d="M86 0l209 1071h168l-35 -172q115 190 290 190q83 0 156 -43l-69 -139q-57 33 -111 33q-121 0 -207 -93.5t-118 -258.5l-115 -588h-168z" />
    <glyph glyph-name="s" unicode="s" horiz-adv-x="991" vert-adv-y="2457" 
d="M783 801q-91 151 -245 151q-87 0 -136 -38.5t-49 -106.5q0 -61 37.5 -99.5t144.5 -86.5q154 -70 205 -111q100 -80 100 -209q0 -142 -110.5 -230.5t-288.5 -88.5q-287 0 -416 235l139 82q56 -99 121.5 -139.5t167.5 -40.5q89 0 144 31q75 42 75 130q0 73 -65 120
q-33 24 -150 77q-123 57 -185 114q-83 78 -83 200q0 163 139 242q98 56 229 56q228 0 357 -194z" />
    <glyph glyph-name="t" unicode="t" horiz-adv-x="754" vert-adv-y="2457" 
d="M646 51q-112 -69 -235 -69q-109 0 -171.5 62.5t-62.5 172.5q0 36 9 81l122 636h-158l27 137h157l56 278l174 41l-62 -319h246l-27 -137h-245l-123 -631q-8 -41 -8 -70q0 -108 103 -108q65 0 140 43z" />
    <glyph glyph-name="u" unicode="u" horiz-adv-x="1161" vert-adv-y="2457" 
d="M729 158q-127 -176 -312 -176q-131 0 -204.5 79t-73.5 220q0 53 14 127l129 663h168l-131 -676q-12 -63 -12 -107q0 -167 161 -167q120 0 203.5 84t112.5 233l123 633h168l-209 -1071h-168z" />
    <glyph glyph-name="v" unicode="v" horiz-adv-x="928" vert-adv-y="2457" 
d="M263 0l-139 1071h172l96 -905l441 905h178l-551 -1071h-197z" />
    <glyph glyph-name="w" unicode="w" horiz-adv-x="1585" vert-adv-y="2457" 
d="M261 0l-104 1071h172l64 -876l399 876h180l84 -876l404 876h176l-527 -1071h-186l-80 864l-397 -864h-185z" />
    <glyph glyph-name="x" unicode="x" horiz-adv-x="1020" vert-adv-y="2457" 
d="M-55 0l471 563l-240 508h185l172 -395l313 395h195l-437 -518l263 -553h-185l-192 440l-355 -440h-190z" />
    <glyph glyph-name="y" unicode="y" horiz-adv-x="940" vert-adv-y="2457" 
d="M1023 1071l-670 -1251q-58 -110 -126.5 -157.5t-167.5 -47.5q-110 0 -193 72l80 114q51 -53 118 -53q103 0 164 127l72 147l-176 1049h174l129 -821l416 821h180z" />
    <glyph glyph-name="z" unicode="z" horiz-adv-x="934" vert-adv-y="2457" 
d="M-23 0l27 139l731 795h-541l27 137h717l-33 -170l-700 -764h561l-25 -137h-764z" />
    <glyph glyph-name="braceleft" unicode="{" horiz-adv-x="850" vert-adv-y="2457" 
d="M575 -309q-107 3 -164 23q-174 61 -174 248q0 42 11 95l53 273q10 52 10 98q0 79 -49 113.5t-164 38.5l27 135q147 2 217 63q56 51 80 170l61 314q42 213 183 284q90 46 278 49l-25 -133q-154 -9 -205 -58q-50 -47 -75 -175l-66 -330q-22 -114 -75 -171t-167 -89
q77 -29 110.5 -76.5t33.5 -126.5q0 -46 -10 -100l-56 -287q-8 -43 -8 -76q0 -78 44 -111t155 -38z" />
    <glyph glyph-name="bar" unicode="|" horiz-adv-x="553" vert-adv-y="2457" 
d="M245 -303v1892h135v-1892h-135z" />
    <glyph glyph-name="braceright" unicode="}" horiz-adv-x="850" vert-adv-y="2457" 
d="M316 1595q107 -3 164 -23q174 -61 174 -246q0 -43 -11 -97l-53 -273q-10 -51 -10 -98q0 -79 49 -113.5t164 -37.5l-27 -136q-147 -2 -217 -62q-56 -52 -80 -171l-61 -313q-42 -214 -183 -285q-90 -46 -278 -49l25 133q153 9 205 59q50 47 75 174l66 330q22 114 75 171
t166 89q-76 29 -109.5 77t-33.5 126q0 47 10 100l56 287q8 44 8 76q0 78 -44 111t-155 38z" />
    <glyph glyph-name="asciitilde" unicode="~" horiz-adv-x="1147" vert-adv-y="2457" 
d="M325 555l-123 12q30 116 71 176q70 101 181 101q42 0 83.5 -18t106.5 -64q86 -62 128 -62q80 0 116 150l121 -12q-71 -277 -253 -277q-43 0 -84 18t-107 65q-84 61 -124 61q-81 0 -116 -150z" />
    <glyph glyph-name="Adieresis" unicode="&#xc4;" horiz-adv-x="1257" vert-adv-y="2457" 
d="M294 371l-194 -371h-168l791 1466h163l230 -1466h-164l-55 371h-603zM365 506h512l-114 761zM643 1825q43 0 70.5 -26.5t27.5 -66.5q0 -47 -34.5 -81.5t-81.5 -34.5q-40 0 -67.5 27t-27.5 67q0 48 33 81.5t80 33.5zM1005 1825q43 0 70.5 -26.5t27.5 -66.5
q0 -47 -34.5 -81.5t-80.5 -34.5q-41 0 -68.5 27t-27.5 67q0 48 33 81.5t80 33.5z" />
    <glyph glyph-name="Aring" unicode="&#xc5;" horiz-adv-x="1257" vert-adv-y="2457" 
d="M294 371l-194 -371h-168l791 1466h163l230 -1466h-164l-55 371h-603zM365 506h512l-114 761zM847 2015q84 0 139 -55t55 -139q0 -96 -66 -164t-160 -68q-82 0 -137 56t-55 141q0 93 66 161t158 68zM842 1923q-50 0 -82.5 -38t-32.5 -97q0 -49 25.5 -78t68.5 -29
q50 0 84 39t34 97q0 47 -26.5 76.5t-70.5 29.5z" />
    <glyph glyph-name="Ccedilla" unicode="&#xc7;" horiz-adv-x="1454" vert-adv-y="2457" 
d="M736 -19l-93 -106q31 9 50 9q59 0 95.5 -40t36.5 -104q0 -73 -48 -120q-60 -59 -165 -59q-114 0 -188 84l80 68q42 -58 115 -58q87 0 87 82q0 68 -66 68q-36 0 -66 -31l-64 58l135 153q-204 22 -330 164q-147 167 -147 459q0 228 86 425q94 215 266 334q166 115 376 115
q270 0 397 -185q36 -52 54.5 -104.5t37.5 -156.5l-156 -31q-22 130 -63 197q-85 141 -277 141q-245 0 -396 -213t-151 -528q0 -189 67 -307q100 -174 325 -174q152 0 257.5 82.5t177.5 259.5l142 -58q-176 -415 -575 -424z" />
    <glyph glyph-name="Eacute" unicode="&#xc9;" horiz-adv-x="1210" vert-adv-y="2457" 
d="M86 0l285 1464h876l-27 -139h-711l-101 -520h581l-25 -135h-582l-103 -531h748l-28 -139h-913zM731 1604l160 331h221l-264 -331h-117z" />
    <glyph glyph-name="Ntilde" unicode="&#xd1;" horiz-adv-x="1397" vert-adv-y="2457" 
d="M86 0l285 1464h186l430 -1249l242 1249h157l-284 -1464h-201l-420 1224l-237 -1224h-158zM723 1616l-106 12q47 221 191 221q56 0 154 -59q65 -39 94 -39q61 0 85 102l105 -12q-20 -96 -59 -148q-55 -73 -133 -73q-58 0 -153 59q-64 39 -92 39q-62 0 -86 -102z" />
    <glyph glyph-name="Odieresis" unicode="&#xd6;" horiz-adv-x="1569" vert-adv-y="2457" 
d="M905 1482q244 0 399 -155q174 -173 174 -477q0 -281 -129 -506q-103 -181 -268 -275q-151 -87 -339 -87q-243 0 -400 155q-175 173 -175 481q0 223 86 418q79 181 220 295q185 151 432 151zM894 1343q-194 0 -330 -128q-113 -105 -172 -285q-49 -151 -49 -325
q0 -262 136 -387q107 -97 282 -97q185 0 318 127q112 106 171 288q49 153 49 325q0 264 -136 389q-102 93 -269 93zM804 1825q43 0 70.5 -26.5t27.5 -66.5q0 -47 -34.5 -81.5t-81.5 -34.5q-40 0 -67.5 27t-27.5 67q0 48 33 81.5t80 33.5zM1166 1825q43 0 70.5 -26.5
t27.5 -66.5q0 -47 -34.5 -81.5t-80.5 -34.5q-41 0 -68.5 27t-27.5 67q0 48 33 81.5t80 33.5z" />
    <glyph glyph-name="Udieresis" unicode="&#xdc;" horiz-adv-x="1411" vert-adv-y="2457" 
d="M1407 1464l-188 -966q-42 -217 -128 -328q-146 -188 -432 -188q-257 0 -382 138q-101 111 -101 301q0 76 28 222l160 821h168l-165 -847q-25 -128 -25 -199q0 -151 82 -224q79 -71 246 -71q174 0 264 90t132 306l183 945h158zM756 1825q43 0 70.5 -26.5t27.5 -66.5
q0 -47 -34.5 -81.5t-80.5 -34.5q-41 0 -68.5 27t-27.5 67q0 48 33 81.5t80 33.5zM1118 1825q43 0 70.5 -26.5t27.5 -66.5q0 -47 -34.5 -81.5t-81.5 -34.5q-40 0 -67.5 27t-27.5 67q0 48 33 81.5t80 33.5z" />
    <glyph glyph-name="aacute" unicode="&#xe1;" horiz-adv-x="1075" vert-adv-y="2457" 
d="M659 143q-136 -161 -308 -161q-134 0 -218 79.5t-84 205.5q0 132 80.5 213.5t251.5 121.5q117 28 362 37l13 67q8 47 8 74q0 168 -181 168q-161 0 -315 -123l-80 109q183 155 415 155q168 0 253 -83q76 -73 76 -196q0 -49 -11 -104l-92 -477q-3 -17 -3 -32q0 -71 102 -74
l-27 -131q-31 -3 -45 -3q-172 0 -197 154zM719 520q-195 -6 -301 -34q-199 -54 -199 -214q0 -155 180 -155q111 0 190 64.5t99 172.5zM551 1210l160 332h221l-264 -332h-117z" />
    <glyph glyph-name="agrave" unicode="&#xe0;" horiz-adv-x="1075" vert-adv-y="2457" 
d="M659 143q-136 -161 -308 -161q-134 0 -218 79.5t-84 205.5q0 132 80.5 213.5t251.5 121.5q117 28 362 37l13 67q8 47 8 74q0 168 -181 168q-161 0 -315 -123l-80 109q183 155 415 155q168 0 253 -83q76 -73 76 -196q0 -49 -11 -104l-92 -477q-3 -17 -3 -32q0 -71 102 -74
l-27 -131q-31 -3 -45 -3q-172 0 -197 154zM719 520q-195 -6 -301 -34q-199 -54 -199 -214q0 -155 180 -155q111 0 190 64.5t99 172.5zM637 1210l-168 332h207l65 -332h-104z" />
    <glyph glyph-name="acircumflex" unicode="&#xe2;" horiz-adv-x="1075" vert-adv-y="2457" 
d="M659 143q-136 -161 -308 -161q-134 0 -218 79.5t-84 205.5q0 132 80.5 213.5t251.5 121.5q117 28 362 37l13 67q8 47 8 74q0 168 -181 168q-161 0 -315 -123l-80 109q183 155 415 155q168 0 253 -83q76 -73 76 -196q0 -49 -11 -104l-92 -477q-3 -17 -3 -32q0 -71 102 -74
l-27 -131q-31 -3 -45 -3q-172 0 -197 154zM719 520q-195 -6 -301 -34q-199 -54 -199 -214q0 -155 180 -155q111 0 190 64.5t99 172.5zM350 1210l260 332h146l135 -332h-111l-119 193l-196 -193h-115z" />
    <glyph glyph-name="adieresis" unicode="&#xe4;" horiz-adv-x="1075" vert-adv-y="2457" 
d="M659 143q-136 -161 -308 -161q-134 0 -218 79.5t-84 205.5q0 132 80.5 213.5t251.5 121.5q117 28 362 37l13 67q8 47 8 74q0 168 -181 168q-161 0 -315 -123l-80 109q183 155 415 155q168 0 253 -83q76 -73 76 -196q0 -49 -11 -104l-92 -477q-3 -17 -3 -32q0 -71 102 -74
l-27 -131q-31 -3 -45 -3q-172 0 -197 154zM719 520q-195 -6 -301 -34q-199 -54 -199 -214q0 -155 180 -155q111 0 190 64.5t99 172.5zM479 1495q43 0 70.5 -26t27.5 -67q0 -47 -34.5 -81.5t-81.5 -34.5q-40 0 -67.5 27t-27.5 67q0 48 33.5 81.5t79.5 33.5zM841 1495
q43 0 70.5 -26t27.5 -67q0 -47 -34 -81.5t-81 -34.5q-41 0 -68.5 27t-27.5 67q0 48 33.5 81.5t79.5 33.5z" />
    <glyph glyph-name="atilde" unicode="&#xe3;" horiz-adv-x="1075" vert-adv-y="2457" 
d="M659 143q-136 -161 -308 -161q-134 0 -218 79.5t-84 205.5q0 132 80.5 213.5t251.5 121.5q117 28 362 37l13 67q8 47 8 74q0 168 -181 168q-161 0 -315 -123l-80 109q183 155 415 155q168 0 253 -83q76 -73 76 -196q0 -49 -11 -104l-92 -477q-3 -17 -3 -32q0 -71 102 -74
l-27 -131q-31 -3 -45 -3q-172 0 -197 154zM719 520q-195 -6 -301 -34q-199 -54 -199 -214q0 -155 180 -155q111 0 190 64.5t99 172.5zM422 1271l-106 12q47 221 191 221q57 0 154 -59q65 -39 94 -39q61 0 85 102l105 -12q-20 -96 -60 -148q-54 -73 -132 -73q-58 0 -153 59
q-64 39 -93 39q-60 0 -85 -102z" />
    <glyph glyph-name="aring" unicode="&#xe5;" horiz-adv-x="1075" vert-adv-y="2457" 
d="M659 143q-136 -161 -308 -161q-134 0 -218 79.5t-84 205.5q0 132 80.5 213.5t251.5 121.5q117 28 362 37l13 67q8 47 8 74q0 168 -181 168q-161 0 -315 -123l-80 109q183 155 415 155q168 0 253 -83q76 -73 76 -196q0 -49 -11 -104l-92 -477q-3 -17 -3 -32q0 -71 102 -74
l-27 -131q-31 -3 -45 -3q-172 0 -197 154zM719 520q-195 -6 -301 -34q-199 -54 -199 -214q0 -155 180 -155q111 0 190 64.5t99 172.5zM699 1613q84 0 139 -55t55 -139q0 -96 -66 -164t-160 -68q-83 0 -137.5 56.5t-54.5 140.5q0 93 66.5 161t157.5 68zM694 1521
q-50 0 -82.5 -38t-32.5 -97q0 -49 25.5 -78t68.5 -29q50 0 84 39t34 96q0 48 -26.5 77.5t-70.5 29.5z" />
    <glyph glyph-name="ccedilla" unicode="&#xe7;" horiz-adv-x="1077" vert-adv-y="2457" 
d="M523 -18l-93 -107q30 9 50 9q59 0 95.5 -40t36.5 -104q0 -72 -48 -119q-60 -59 -165 -59q-113 0 -188 84l80 67q42 -57 115 -57q87 0 87 82q0 67 -66 67q-36 0 -66 -30l-64 57l135 153q-136 20 -220 104q-120 120 -120 335q0 134 41 260.5t114 216.5q151 188 391 188
q131 0 218 -59t143 -186l-139 -74q-50 108 -97 145t-133 37q-189 0 -286 -170q-82 -144 -82 -348q0 -315 248 -315q92 0 155 41.5t136 148.5l118 -80q-89 -128 -176.5 -182.5t-219.5 -64.5z" />
    <glyph glyph-name="eacute" unicode="&#xe9;" horiz-adv-x="1061" vert-adv-y="2457" 
d="M901 199q-164 -217 -413 -217q-189 0 -294 117q-102 114 -102 314q0 269 159 466q170 210 424 210q162 0 251 -96q73 -78 73 -200q0 -172 -177.5 -254.5t-561.5 -87.5v-48q0 -284 236 -284q172 0 288 157zM278 582q297 0 425 48.5t128 160.5q0 77 -45.5 119t-128.5 42
q-193 0 -304 -177q-45 -74 -75 -193zM586 1210l160 332h221l-264 -332h-117z" />
    <glyph glyph-name="egrave" unicode="&#xe8;" horiz-adv-x="1061" vert-adv-y="2457" 
d="M901 199q-164 -217 -413 -217q-189 0 -294 117q-102 114 -102 314q0 269 159 466q170 210 424 210q162 0 251 -96q73 -78 73 -200q0 -172 -177.5 -254.5t-561.5 -87.5v-48q0 -284 236 -284q172 0 288 157zM278 582q297 0 425 48.5t128 160.5q0 77 -45.5 119t-128.5 42
q-193 0 -304 -177q-45 -74 -75 -193zM654 1210l-168 332h207l65 -332h-104z" />
    <glyph glyph-name="ecircumflex" unicode="&#xea;" horiz-adv-x="1061" vert-adv-y="2457" 
d="M901 199q-164 -217 -413 -217q-189 0 -294 117q-102 114 -102 314q0 269 159 466q170 210 424 210q162 0 251 -96q73 -78 73 -200q0 -172 -177.5 -254.5t-561.5 -87.5v-48q0 -284 236 -284q172 0 288 157zM278 582q297 0 425 48.5t128 160.5q0 77 -45.5 119t-128.5 42
q-193 0 -304 -177q-45 -74 -75 -193zM409 1210l260 332h146l135 -332h-111l-119 193l-196 -193h-115z" />
    <glyph glyph-name="edieresis" unicode="&#xeb;" horiz-adv-x="1061" vert-adv-y="2457" 
d="M901 199q-164 -217 -413 -217q-189 0 -294 117q-102 114 -102 314q0 269 159 466q170 210 424 210q162 0 251 -96q73 -78 73 -200q0 -172 -177.5 -254.5t-561.5 -87.5v-48q0 -284 236 -284q172 0 288 157zM278 582q297 0 425 48.5t128 160.5q0 77 -45.5 119t-128.5 42
q-193 0 -304 -177q-45 -74 -75 -193zM523 1495q43 0 70.5 -26t27.5 -67q0 -47 -34.5 -81.5t-81.5 -34.5q-40 0 -67.5 27t-27.5 67q0 48 33.5 81.5t79.5 33.5zM885 1495q43 0 70.5 -26t27.5 -67q0 -47 -34 -81.5t-81 -34.5q-41 0 -68.5 27t-27.5 67q0 48 33.5 81.5t79.5 33.5
z" />
    <glyph glyph-name="iacute" unicode="&#xed;" horiz-adv-x="557" vert-adv-y="2457" 
d="M90 0l209 1071h168l-209 -1071h-168zM328 1210l160 332h221l-264 -332h-117z" />
    <glyph glyph-name="igrave" unicode="&#xec;" horiz-adv-x="557" vert-adv-y="2457" 
d="M90 0l209 1071h168l-209 -1071h-168zM396 1210l-168 332h207l65 -332h-104z" />
    <glyph glyph-name="icircumflex" unicode="&#xee;" horiz-adv-x="557" vert-adv-y="2457" 
d="M90 0l209 1071h168l-209 -1071h-168zM127 1210l260 332h146l135 -332h-111l-119 193l-196 -193h-115z" />
    <glyph glyph-name="idieresis" unicode="&#xef;" horiz-adv-x="557" vert-adv-y="2457" 
d="M90 0l209 1071h168l-209 -1071h-168zM259 1495q43 0 70.5 -26t27.5 -67q0 -47 -34.5 -81.5t-81.5 -34.5q-40 0 -67.5 27t-27.5 67q0 48 33.5 81.5t79.5 33.5zM621 1495q43 0 70.5 -26t27.5 -67q0 -47 -34 -81.5t-81 -34.5q-41 0 -68.5 27t-27.5 67q0 48 33.5 81.5
t79.5 33.5z" />
    <glyph glyph-name="ntilde" unicode="&#xf1;" horiz-adv-x="1184" vert-adv-y="2457" 
d="M86 0l209 1071h168l-30 -154q127 172 321 172q137 0 213.5 -79t76.5 -221q0 -54 -14 -125l-129 -664h-168l131 676q10 50 10 95q0 179 -175 179q-123 0 -208 -83.5t-114 -233.5l-123 -633h-168zM513 1271l-106 12q47 221 191 221q57 0 154 -59q65 -39 94 -39q61 0 85 102
l105 -12q-20 -96 -60 -148q-54 -73 -132 -73q-58 0 -153 59q-64 39 -93 39q-60 0 -85 -102z" />
    <glyph glyph-name="oacute" unicode="&#xf3;" horiz-adv-x="1139" vert-adv-y="2457" 
d="M639 1089q189 0 297 -123q106 -120 106 -327q0 -151 -51.5 -289t-141.5 -228q-139 -140 -342 -140q-190 0 -302 125q-109 123 -109 334q0 127 39 246.5t110 208.5q154 193 394 193zM628 952q-182 0 -279 -172q-83 -147 -83 -352q0 -309 249 -309q172 0 264 165
q89 159 89 372q0 296 -240 296zM601 1210l160 332h221l-264 -332h-117z" />
    <glyph glyph-name="ograve" unicode="&#xf2;" horiz-adv-x="1139" vert-adv-y="2457" 
d="M639 1089q189 0 297 -123q106 -120 106 -327q0 -151 -51.5 -289t-141.5 -228q-139 -140 -342 -140q-190 0 -302 125q-109 123 -109 334q0 127 39 246.5t110 208.5q154 193 394 193zM628 952q-182 0 -279 -172q-83 -147 -83 -352q0 -309 249 -309q172 0 264 165
q89 159 89 372q0 296 -240 296zM687 1210l-168 332h207l65 -332h-104z" />
    <glyph glyph-name="ocircumflex" unicode="&#xf4;" horiz-adv-x="1139" vert-adv-y="2457" 
d="M639 1089q189 0 297 -123q106 -120 106 -327q0 -151 -51.5 -289t-141.5 -228q-139 -140 -342 -140q-190 0 -302 125q-109 123 -109 334q0 127 39 246.5t110 208.5q154 193 394 193zM628 952q-182 0 -279 -172q-83 -147 -83 -352q0 -309 249 -309q172 0 264 165
q89 159 89 372q0 296 -240 296zM405 1210l260 332h146l135 -332h-111l-119 193l-196 -193h-115z" />
    <glyph glyph-name="odieresis" unicode="&#xf6;" horiz-adv-x="1139" vert-adv-y="2457" 
d="M639 1089q189 0 297 -123q106 -120 106 -327q0 -151 -51.5 -289t-141.5 -228q-139 -140 -342 -140q-190 0 -302 125q-109 123 -109 334q0 127 39 246.5t110 208.5q154 193 394 193zM628 952q-182 0 -279 -172q-83 -147 -83 -352q0 -309 249 -309q172 0 264 165
q89 159 89 372q0 296 -240 296zM519 1495q43 0 70.5 -26t27.5 -67q0 -47 -34.5 -81.5t-81.5 -34.5q-40 0 -67.5 27t-27.5 67q0 48 33.5 81.5t79.5 33.5zM881 1495q43 0 70.5 -26t27.5 -67q0 -47 -34 -81.5t-81 -34.5q-41 0 -68.5 27t-27.5 67q0 48 33.5 81.5t79.5 33.5z" />
    <glyph glyph-name="otilde" unicode="&#xf5;" horiz-adv-x="1139" vert-adv-y="2457" 
d="M639 1089q189 0 297 -123q106 -120 106 -327q0 -151 -51.5 -289t-141.5 -228q-139 -140 -342 -140q-190 0 -302 125q-109 123 -109 334q0 127 39 246.5t110 208.5q154 193 394 193zM628 952q-182 0 -279 -172q-83 -147 -83 -352q0 -309 249 -309q172 0 264 165
q89 159 89 372q0 296 -240 296zM490 1271l-106 12q47 221 191 221q57 0 154 -59q65 -39 94 -39q61 0 85 102l105 -12q-20 -96 -60 -148q-54 -73 -132 -73q-58 0 -153 59q-64 39 -93 39q-60 0 -85 -102z" />
    <glyph glyph-name="uacute" unicode="&#xfa;" horiz-adv-x="1161" vert-adv-y="2457" 
d="M729 158q-127 -176 -312 -176q-131 0 -204.5 79t-73.5 220q0 53 14 127l129 663h168l-131 -676q-12 -63 -12 -107q0 -167 161 -167q120 0 203.5 84t112.5 233l123 633h168l-209 -1071h-168zM618 1210l160 332h221l-264 -332h-117z" />
    <glyph glyph-name="ugrave" unicode="&#xf9;" horiz-adv-x="1161" vert-adv-y="2457" 
d="M729 158q-127 -176 -312 -176q-131 0 -204.5 79t-73.5 220q0 53 14 127l129 663h168l-131 -676q-12 -63 -12 -107q0 -167 161 -167q120 0 203.5 84t112.5 233l123 633h168l-209 -1071h-168zM686 1210l-168 332h207l65 -332h-104z" />
    <glyph glyph-name="ucircumflex" unicode="&#xfb;" horiz-adv-x="1161" vert-adv-y="2457" 
d="M729 158q-127 -176 -312 -176q-131 0 -204.5 79t-73.5 220q0 53 14 127l129 663h168l-131 -676q-12 -63 -12 -107q0 -167 161 -167q120 0 203.5 84t112.5 233l123 633h168l-209 -1071h-168zM429 1210l260 332h146l135 -332h-111l-119 193l-196 -193h-115z" />
    <glyph glyph-name="udieresis" unicode="&#xfc;" horiz-adv-x="1161" vert-adv-y="2457" 
d="M729 158q-127 -176 -312 -176q-131 0 -204.5 79t-73.5 220q0 53 14 127l129 663h168l-131 -676q-12 -63 -12 -107q0 -167 161 -167q120 0 203.5 84t112.5 233l123 633h168l-209 -1071h-168zM567 1495q43 0 70.5 -26t27.5 -67q0 -47 -34.5 -81.5t-81.5 -34.5
q-40 0 -67.5 27t-27.5 67q0 48 33.5 81.5t79.5 33.5zM929 1495q43 0 70.5 -26t27.5 -67q0 -47 -34 -81.5t-81 -34.5q-41 0 -68.5 27t-27.5 67q0 48 33.5 81.5t79.5 33.5z" />
    <glyph glyph-name="dagger" unicode="&#x2020;" horiz-adv-x="657" vert-adv-y="2457" 
d="M285 645l94 485h-178l23 115h178l43 219h129l-43 -219h178l-23 -115h-178l-94 -485h-129z" />
    <glyph glyph-name="degree" unicode="&#xb0;" horiz-adv-x="901" vert-adv-y="2457" 
d="M601 1480q134 0 216.5 -84t82.5 -219q0 -171 -112 -282q-104 -103 -253 -103q-126 0 -209 84q-88 88 -88 226q0 161 111 273q105 105 252 105zM593 1369q-84 0 -144 -60q-76 -76 -76 -203q0 -93 47 -147t129 -54q86 0 145 59q73 73 73 202q0 93 -47 148t-127 55z" />
    <glyph glyph-name="cent" unicode="&#xa2;" vert-adv-y="2457" 
d="M418 -276l51 268q-73 19 -119 47t-86 77q-94 116 -94 305q0 145 48.5 278.5t134.5 225.5q68 74 141.5 110t187.5 52l39 201h119l-41 -205q194 -33 278 -239l-139 -74q-42 93 -74 128t-90 50l-162 -831q86 11 139 49.5t128 145.5l114 -82q-90 -128 -179.5 -182t-227.5 -64
l-49 -260h-119zM496 125l159 827q-72 -16 -108 -37q-105 -63 -159 -205q-48 -125 -48 -283q0 -127 37 -199t119 -103z" />
    <glyph glyph-name="sterling" unicode="&#xa3;" vert-adv-y="2457" 
d="M505 106q-97 -122 -243 -122q-102 0 -163 52t-61 139q0 115 94 169q59 33 132 33q82 0 177 -56q5 36 5 64q0 79 -46 274h-210l22 123h160q-25 128 -25 231q0 217 127 343q125 126 333 126q180 0 283 -101.5t115 -291.5l-153 -22q-13 112 -47 172q-59 108 -205 108
q-130 0 -203 -86q-78 -91 -78 -256q0 -83 23 -223h383l-23 -123h-338q29 -154 29 -257q0 -93 -25 -175q73 -57 118.5 -78.5t95.5 -21.5q70 0 114 43.5t72 142.5l143 -31q-46 -159 -126 -229q-79 -69 -197 -69q-77 0 -140 27.5t-143 94.5zM407 196q-77 60 -141 60
q-44 0 -69.5 -21t-25.5 -57t26 -57.5t71 -21.5q85 0 139 97z" />
    <glyph glyph-name="section" unicode="&#xa7;" horiz-adv-x="1075" vert-adv-y="2457" 
d="M721 264q82 -97 82 -216q0 -139 -89 -227q-102 -102 -281 -102q-278 0 -398 268l143 60q86 -193 264 -193q93 0 144 47t51 132q0 90 -78 160q-41 36 -174 107q-154 82 -218 159t-64 181q0 233 288 296q-77 94 -77 211q0 168 129 261q102 74 247 74q135 0 223.5 -63
t143.5 -199l-141 -55q-32 78 -68 117q-62 65 -167 65q-93 0 -147 -49.5t-54 -134.5q0 -86 66 -151q29 -29 55.5 -45.5t128.5 -70.5q149 -79 212.5 -157t63.5 -180q0 -229 -285 -295zM610 356q92 11 139 36q89 48 89 150q0 67 -40 112t-157 110l-143 80q-227 -25 -227 -187
q0 -66 40.5 -111.5t155.5 -109.5z" />
    <glyph glyph-name="bullet" unicode="&#x2022;" horiz-adv-x="719" vert-adv-y="2457" 
d="M391 938q105 0 178 -73t73 -181t-73 -181t-181 -73t-180 73q-74 74 -74 181q0 108 73.5 181t183.5 73z" />
    <glyph glyph-name="paragraph" unicode="&#xb6;" horiz-adv-x="1225" vert-adv-y="2457" 
d="M471 0l137 709h-10q-180 0 -282.5 87.5t-102.5 241.5q0 138 70 241q125 185 405 185h526l-284 -1464h-160l258 1327h-141l-258 -1327h-158z" />
    <glyph glyph-name="germandbls" unicode="&#xdf;" horiz-adv-x="1174" vert-adv-y="2457" 
d="M782 868q119 -38 180 -109q89 -102 89 -278q0 -254 -147 -389q-117 -106 -299 -106q-115 0 -202 51l29 137h4q71 -47 169 -47q149 0 219 121q53 93 53 239q0 155 -65 226t-224 90l28 143q91 1 137 18q78 30 123 100.5t45 164.5q0 96 -49 149t-139 53q-196 0 -246 -254
l-229 -1177h-172l225 1163q43 220 177 322q105 79 258 79q150 0 238 -87q95 -93 95 -243q0 -130 -80 -232q-41 -51 -89.5 -81t-127.5 -53z" />
    <glyph glyph-name="registered" unicode="&#xae;" horiz-adv-x="1118" vert-adv-y="2457" 
d="M430 780l92 469h201q68 0 106.5 -32.5t38.5 -90.5q0 -56 -28 -86t-93 -45q36 -14 46.5 -33t15.5 -77q6 -77 18 -101v-4h-98q-15 39 -17 102q0 46 -15.5 65t-51.5 19h-78l-37 -186h-100zM579 1036h90q101 0 101 80q0 59 -64 59h-100zM689 1482q184 0 307 -123
q124 -125 124 -309q0 -214 -153 -367q-148 -149 -358 -149q-182 0 -305 122q-122 122 -122 308q0 212 153 368q148 150 354 150zM684 1396q-168 0 -283 -116q-123 -123 -123 -310q0 -158 94.5 -254t250.5 -96q162 0 278 116q123 125 123 312q0 157 -96 254q-93 94 -244 94z
" />
    <glyph glyph-name="copyright" unicode="&#xa9;" horiz-adv-x="1729" vert-adv-y="2457" 
d="M1245 543q-61 -129 -147 -190q-99 -70 -235 -70q-149 0 -245 96q-108 109 -108 298q0 208 119 355q126 156 326 156q128 0 205.5 -59.5t119.5 -190.5l-135 -51q-28 86 -60 121q-50 57 -138 57q-141 0 -215 -131q-60 -107 -60 -257q0 -269 203 -269q84 0 139.5 44
t95.5 142zM973 1482q287 0 475 -189q190 -191 190 -485q0 -224 -113 -420q-112 -192 -303 -302q-182 -104 -395 -104q-132 0 -253.5 49.5t-211.5 140.5q-194 196 -194 494q0 337 239 579q118 119 280 183q136 54 286 54zM965 1384q-135 0 -260.5 -52t-221.5 -148
q-204 -205 -204 -510q0 -270 166 -436q157 -158 400 -158q127 0 251.5 54t220.5 150q108 109 163 253q49 129 49 267q0 257 -164 421q-157 159 -400 159z" />
    <glyph glyph-name="trademark" unicode="&#x2122;" horiz-adv-x="1483" vert-adv-y="2457" 
d="M724 805l129 659h149l80 -518l277 518h162l-129 -659h-111l100 514l-282 -514h-90l-82 514l-101 -514h-102zM302 805l113 571h-197l16 88h504l-16 -88h-195l-112 -571h-113z" />
    <glyph glyph-name="acute" unicode="&#xb4;" horiz-adv-x="1024" vert-adv-y="2457" 
d="M526 1210l160 332h221l-264 -332h-117z" />
    <glyph glyph-name="dieresis" unicode="&#xa8;" horiz-adv-x="1024" vert-adv-y="2457" 
d="M504 1495q43 0 70.5 -26t27.5 -67q0 -47 -34.5 -81.5t-81.5 -34.5q-40 0 -67.5 27t-27.5 67q0 48 33.5 81.5t79.5 33.5zM866 1495q43 0 70.5 -26t27.5 -67q0 -47 -34 -81.5t-81 -34.5q-41 0 -68.5 27t-27.5 67q0 48 33.5 81.5t79.5 33.5z" />
    <glyph glyph-name="notequal" unicode="&#x2260;" horiz-adv-x="1147" vert-adv-y="2457" 
d="M838 913h194l-28 -139h-259l-154 -229h370l-29 -139h-434l-159 -237l-108 50l125 187h-194l29 139h259l153 229h-369l28 139h435l158 237l108 -50z" />
    <glyph glyph-name="AE" unicode="&#xc6;" horiz-adv-x="1880" vert-adv-y="2457" 
d="M355 371l-277 -371h-182l1112 1464h909l-27 -139h-670l-101 -520h540l-25 -135h-541l-103 -531h707l-27 -139h-873l72 371h-514zM456 506h440l155 799z" />
    <glyph glyph-name="Oslash" unicode="&#xd8;" horiz-adv-x="1569" vert-adv-y="2457" 
d="M1310 1322l139 142h178l-239 -244q91 -154 91 -370q0 -280 -129 -506q-103 -181 -268 -275q-151 -87 -334 -87q-251 0 -410 160l-139 -142h-180l240 245q-91 158 -91 372q0 224 86 419q79 180 220 295q184 151 432 151q245 0 404 -160zM1201 1211q-112 132 -305 132
q-196 0 -332 -127q-111 -105 -170 -286q-50 -151 -50 -321q0 -142 36 -240zM446 253q111 -132 309 -132q282 0 428 260q118 209 118 477q0 133 -35 236z" />
    <glyph glyph-name="infinity" unicode="&#x221e;" horiz-adv-x="1603" vert-adv-y="2457" 
d="M833 609q-164 -241 -377 -241q-145 0 -236 93q-90 91 -90 240t90 240q91 93 237 93q213 0 376 -241q163 241 377 241q146 0 237 -93q90 -91 90 -240t-90 -240q-91 -93 -237 -93q-214 0 -377 241zM763 701l-11 17q-127 202 -292 202q-92 0 -147 -59.5t-55 -159.5
t55 -159.5t147 -59.5q102 0 190 79q68 61 103 122zM904 701l9 -18q29 -53 103 -122q87 -79 190 -79q93 0 148 59.5t55 159.5t-55 159.5t-148 59.5q-164 0 -291 -202z" />
    <glyph glyph-name="plusminus" unicode="&#xb1;" horiz-adv-x="1147" vert-adv-y="2457" 
d="M455 297l74 377h-369l27 135h368l74 377h145l-73 -377h366l-26 -135h-367l-74 -377h-145zM29 0l27 135h880l-26 -135h-881z" />
    <glyph glyph-name="lessequal" unicode="&#x2264;" horiz-adv-x="1147" vert-adv-y="2457" 
d="M84 0l27 141h749l-28 -141h-748zM876 223l-674 385l27 144l825 385l-34 -179l-648 -286l535 -289z" />
    <glyph glyph-name="greaterequal" unicode="&#x2265;" horiz-adv-x="1147" vert-adv-y="2457" 
d="M147 223l35 178l647 287l-534 289l31 160l673 -385l-26 -144zM104 0l27 141h749l-28 -141h-748z" />
    <glyph glyph-name="yen" unicode="&#xa5;" vert-adv-y="2457" 
d="M430 0l78 410h-397l25 123h397l22 112l-26 80h-357l25 123h291l-207 616h188l201 -669l477 669h166l-446 -616h295l-25 -123h-358l-58 -80l-22 -112h401l-24 -123h-402l-78 -410h-166z" />
    <glyph glyph-name="mu" unicode="&#xb5;" vert-adv-y="2457" 
d="M291 30l-78 -403h-168l281 1444h168l-132 -676q-12 -64 -12 -104q0 -172 161 -172q120 0 203.5 84.5t112.5 234.5l123 633h168l-209 -1071h-168l33 170q-128 -188 -315 -188q-100 0 -168 48z" />
    <glyph glyph-name="partialdiff" unicode="&#x2202;" vert-adv-y="2457" 
d="M618 1595q166 -128 258 -238q219 -261 219 -633q0 -237 -78 -415q-93 -214 -270 -289q-87 -38 -190 -38q-195 0 -307 125q-109 123 -109 333q0 268 153 460q150 189 374 189q134 0 214 -94q-96 272 -358 479zM673 950q-183 0 -279 -171q-83 -146 -83 -351
q0 -309 249 -309q172 0 264 165q89 159 89 371q0 295 -240 295z" />
    <glyph glyph-name="summation" unicode="&#x2211;" vert-adv-y="2457" 
d="M1437 1481l-29 -147h-151l-322 -1658h-170l322 1658h-631l-322 -1658h-170l322 1658h-151l28 147h1274z" />
    <glyph glyph-name="product" unicode="&#x220f;" vert-adv-y="2457" 
d="M-43 -373l30 153l585 799l-256 715l33 170h905l-27 -141h-738l264 -756l-588 -799h829l-27 -141h-1010z" />
    <glyph glyph-name="pi" unicode="&#x3c0;" horiz-adv-x="1135" vert-adv-y="2457" 
d="M88 0l182 932h-111l27 139h970l-26 -139h-109l-181 -932h-168l181 932h-415l-182 -932h-168z" />
    <glyph glyph-name="integral" unicode="&#x222b;" horiz-adv-x="762" vert-adv-y="2457" 
d="M83 -322l37 142q58 -23 97 -23q71 0 95 67q10 29 10 144v1279q0 149 7 205.5t30 95.5q65 107 224 107q72 0 147 -27l-36 -143q-58 23 -99 23q-70 0 -93 -67q-10 -30 -10 -143v-1280q0 -149 -7 -205t-30 -95q-65 -107 -225 -107q-70 0 -147 27z" />
    <glyph glyph-name="ordfeminine" unicode="&#xaa;" horiz-adv-x="893" vert-adv-y="2457" 
d="M656 659q-104 -118 -242 -118q-119 0 -191.5 65.5t-72.5 172.5q0 229 309 290q94 18 279 27l10 52q8 39 8 67q0 140 -155 140q-135 0 -265 -104l-69 98q161 133 354 133q136 0 211.5 -64t75.5 -180q0 -37 -13 -103l-81 -426q-9 -45 -9 -79q0 -40 11 -67v-8h-152
q-9 40 -9 85q0 5 1 19zM717 987q-178 -10 -245 -25q-168 -36 -168 -172q0 -130 142 -130q96 0 162.5 53.5t84.5 144.5z" />
    <glyph glyph-name="ordmasculine" unicode="&#xba;" horiz-adv-x="1012" vert-adv-y="2457" 
d="M660 1482q149 0 240 -92q104 -104 104 -293q0 -126 -44 -242.5t-121 -194.5q-119 -120 -291 -120q-162 0 -258 108q-95 106 -95 286q0 222 128 383q132 165 337 165zM648 1353q-153 0 -231 -137q-66 -117 -66 -292q0 -259 204 -259q146 0 222 138q71 129 71 303
q0 247 -200 247z" />
    <glyph glyph-name="Omega" unicode="&#x2126;" horiz-adv-x="1665" vert-adv-y="2457" 
d="M0 0l25 129h292q-62 67 -95 131q-61 124 -61 287q0 172 60 349q103 300 333 458q186 128 427 128q261 0 421 -148q169 -156 169 -433q0 -137 -36 -273t-100 -243q-87 -144 -246 -256h292l-25 -129h-596l27 137q85 2 150.5 33t130.5 100q95 102 152 254q68 181 68 380
q0 195 -95 309q-106 128 -310 128q-324 0 -504 -308q-63 -108 -101 -252t-38 -274q0 -98 28.5 -179.5t79.5 -128.5q63 -59 175 -62l-27 -137h-596z" />
    <glyph glyph-name="ae" unicode="&#xe6;" horiz-adv-x="1714" vert-adv-y="2457" 
d="M761 194q-80 -112 -169.5 -162t-211.5 -50q-158 0 -247 90q-74 74 -74 186q0 107 57.5 184t165.5 116q130 46 400 46h63l21 102q8 43 8 77q0 165 -181 165q-161 0 -315 -123l-80 109q184 155 416 155q123 0 195 -43t106 -137q169 180 391 180q164 0 252 -96
q70 -76 70 -194q0 -127 -81 -196.5t-263 -98.5q-131 -21 -392 -25q-4 -34 -4 -65q0 -295 235 -295q91 0 152.5 33.5t137.5 123.5l116 -77q-68 -91 -138 -138q-116 -79 -274 -79q-253 0 -356 212zM721 483h-74q-187 0 -282 -32q-136 -46 -136 -180q0 -154 175 -154
q116 0 196 67q80 66 98 170zM911 603q243 0 348 17q107 17 154 60t47 123q0 71 -44 109t-126 38q-177 0 -287 -144q-55 -72 -92 -203z" />
    <glyph glyph-name="oslash" unicode="&#xf8;" horiz-adv-x="1139" vert-adv-y="2457" 
d="M913 992l73 77h176l-172 -181q53 -102 53 -250q0 -150 -51.5 -288t-141.5 -228q-139 -140 -338 -140q-176 0 -283 101l-79 -83h-174l176 186q-55 106 -55 255q0 267 149 455q154 193 395 193q162 0 272 -97zM806 879q-64 73 -177 73q-182 0 -279 -172q-83 -148 -83 -354
q0 -61 9 -108zM332 192q64 -73 180 -73q176 0 268 165q89 159 89 369q0 54 -8 99z" />
    <glyph glyph-name="questiondown" unicode="&#xbf;" horiz-adv-x="1047" vert-adv-y="2457" 
d="M859 -39q-51 -171 -167 -260q-119 -92 -286 -92q-188 0 -286 108q-76 83 -76 210q0 148 122 258q53 47 197 134q86 52 124.5 104t54.5 138l16 90h150l-23 -123q-20 -109 -77 -181t-185 -148q-117 -71 -164 -131t-47 -140q0 -85 54.5 -134.5t147.5 -49.5q213 0 306 254z
M709 1100q53 0 88.5 -34.5t35.5 -86.5q0 -57 -41.5 -97t-101.5 -40q-51 0 -85.5 34.5t-34.5 85.5q0 58 40 98t99 40z" />
    <glyph glyph-name="exclamdown" unicode="&#xa1;" horiz-adv-x="707" vert-adv-y="2457" 
d="M488 1100q53 0 88.5 -34.5t35.5 -86.5q0 -57 -41.5 -97t-100.5 -40q-52 0 -86.5 34.5t-34.5 85.5q0 58 40 98t99 40zM126 -373l92 469l156 555h90l-68 -575l-88 -449h-182z" />
    <glyph glyph-name="logicalnot" unicode="&#xac;" horiz-adv-x="1147" vert-adv-y="2457" 
d="M689 358l61 312h-479l25 135h624l-86 -447h-145z" />
    <glyph glyph-name="radical" unicode="&#x221a;" vert-adv-y="2457" 
d="M402 0l-76 663h-183l24 124h291l60 -574l793 1564h557l-25 -129h-440l-835 -1648h-166z" />
    <glyph glyph-name="florin" unicode="&#x192;" horiz-adv-x="807" vert-adv-y="2457" 
d="M486 686l-158 -772q-31 -151 -105 -219t-207 -68q-92 0 -163 45l55 125q60 -35 110 -35q115 0 146 154l158 770h-190l26 135h193l71 348q65 313 354 313q108 0 191 -51l-57 -125q-71 41 -139 41q-79 0 -123.5 -42t-63.5 -134l-72 -350h271l-27 -135h-270z" />
    <glyph glyph-name="approxequal" unicode="&#x2248;" horiz-adv-x="1147" vert-adv-y="2457" 
d="M359 731l-123 12q31 117 72 176q69 101 180 101q43 0 83.5 -17.5t106.5 -64.5q86 -62 129 -62q80 0 116 150l120 -12q-29 -113 -69 -173q-70 -104 -183 -104q-44 0 -84.5 17.5t-106.5 65.5q-85 61 -125 61q-80 0 -116 -150zM291 379l-123 12q30 116 71 176
q70 101 181 101q42 0 83.5 -18t106.5 -64q86 -62 128 -62q81 0 116 150l121 -12q-29 -114 -69 -173q-71 -104 -184 -104q-43 0 -84 17.5t-107 65.5q-84 61 -124 61q-80 0 -116 -150z" />
    <glyph glyph-name="Delta" unicode="&#x2206;" vert-adv-y="2457" 
d="M1169 0h-1313l856 1464h176zM110 141h872l-215 1145z" />
    <glyph glyph-name="guillemotleft" unicode="&#xab;" horiz-adv-x="1049" vert-adv-y="2457" 
d="M313 88l-180 416l330 395h174l-330 -410l164 -401h-158zM670 88l-181 416l330 395h174l-328 -410l162 -401h-157z" />
    <glyph glyph-name="guillemotright" unicode="&#xbb;" horiz-adv-x="1049" vert-adv-y="2457" 
d="M39 88l328 410l-162 401h158l180 -416l-330 -395h-174zM395 88l330 410l-164 401h158l180 -416l-330 -395h-174z" />
    <glyph glyph-name="ellipsis" unicode="&#x2026;" horiz-adv-x="1849" vert-adv-y="2457" 
d="M236 250q53 0 87.5 -34t34.5 -87q0 -58 -40.5 -97.5t-99.5 -39.5q-52 0 -87 34.5t-35 86.5q0 57 41 97t99 40zM853 250q53 0 87.5 -34t34.5 -87q0 -58 -40.5 -97.5t-99.5 -39.5q-53 0 -88 34.5t-35 86.5q0 57 41 97t100 40zM1470 250q52 0 86.5 -34t34.5 -87
q0 -58 -40.5 -97.5t-99.5 -39.5q-52 0 -87 34.5t-35 86.5q0 57 41 97t100 40z" />
    <glyph glyph-name="glyph172" vert-adv-y="1233" 
 />
    <glyph glyph-name="Agrave" unicode="&#xc0;" horiz-adv-x="1257" vert-adv-y="2457" 
d="M294 371l-194 -371h-168l791 1466h163l230 -1466h-164l-55 371h-603zM365 506h512l-114 761zM780 1603l-168 332h207l65 -332h-104z" />
    <glyph glyph-name="Atilde" unicode="&#xc3;" horiz-adv-x="1257" vert-adv-y="2457" 
d="M294 371l-194 -371h-168l791 1466h163l230 -1466h-164l-55 371h-603zM365 506h512l-114 761zM604 1616l-106 12q47 221 191 221q56 0 154 -59q65 -39 94 -39q61 0 85 102l105 -12q-20 -96 -59 -148q-55 -73 -133 -73q-58 0 -153 59q-64 39 -92 39q-62 0 -86 -102z" />
    <glyph glyph-name="Otilde" unicode="&#xd5;" horiz-adv-x="1569" vert-adv-y="2457" 
d="M905 1482q244 0 399 -155q174 -173 174 -477q0 -281 -129 -506q-103 -181 -268 -275q-151 -87 -339 -87q-243 0 -400 155q-175 173 -175 481q0 223 86 418q79 181 220 295q185 151 432 151zM894 1343q-194 0 -330 -128q-113 -105 -172 -285q-49 -151 -49 -325
q0 -262 136 -387q107 -97 282 -97q185 0 318 127q112 106 171 288q49 153 49 325q0 264 -136 389q-102 93 -269 93zM742 1616l-106 12q47 221 191 221q56 0 154 -59q65 -39 94 -39q61 0 85 102l105 -12q-20 -96 -59 -148q-55 -73 -133 -73q-58 0 -153 59q-64 39 -92 39
q-62 0 -86 -102z" />
    <glyph glyph-name="OE" unicode="&#x152;" horiz-adv-x="2228" vert-adv-y="2457" 
d="M1137 166q-182 -184 -409 -184q-233 0 -384 150q-176 174 -176 485q0 223 87 420q81 183 223 299q181 146 421 146q158 0 266 -62t177 -191l47 235h876l-27 -139h-711l-102 -520h582l-25 -135h-582l-103 -531h748l-28 -139h-913zM1217 580l44 227q17 91 17 143
q0 179 -109 287t-284 108q-187 0 -320 -125q-112 -107 -172 -289q-49 -153 -49 -327q0 -267 135 -392q99 -93 256 -93q197 0 333 149q112 123 149 312z" />
    <glyph glyph-name="oe" unicode="&#x153;" horiz-adv-x="1845" vert-adv-y="2457" 
d="M903 203q-149 -221 -392 -221q-194 0 -306 125q-109 123 -109 334q0 267 149 455q154 193 392 193q258 0 352 -254q178 254 447 254q163 0 251 -96q72 -79 72 -200q0 -185 -218 -271q-166 -65 -521 -71v-48q0 -284 236 -284q90 0 151 33.5t137 123.5l117 -77
q-69 -90 -138 -137q-119 -80 -274 -80q-252 0 -346 221zM628 950q-183 0 -279 -171q-83 -146 -83 -351q0 -309 249 -309q172 0 264 165q89 159 89 371q0 295 -240 295zM1038 582q297 0 425 48t128 161q0 76 -45.5 117.5t-128.5 41.5q-195 0 -304 -176q-46 -74 -75 -192z" />
    <glyph glyph-name="endash" unicode="&#x2013;" vert-adv-y="2457" 
d="M120 596l29 145h1016l-29 -145h-1016z" />
    <glyph glyph-name="emdash" unicode="&#x2014;" vert-adv-y="2457" 
d="M-71 596l29 145h1395l-29 -145h-1395z" />
    <glyph glyph-name="quotedblleft" unicode="&#x201c;" horiz-adv-x="920" vert-adv-y="2457" 
d="M420 1339q51 -5 80 -34.5t29 -74.5q0 -52 -35.5 -87t-88.5 -35q-57 0 -88.5 37t-31.5 104q0 133 81 218q80 84 230 100l-18 -93q-130 -26 -158 -135zM793 1339q50 -5 79 -34.5t29 -74.5q0 -52 -35.5 -87t-87.5 -35q-57 0 -88.5 37t-31.5 104q0 132 81 218q80 84 230 100
l-19 -93q-129 -26 -157 -135z" />
    <glyph glyph-name="quotedblright" unicode="&#x201d;" horiz-adv-x="920" vert-adv-y="2457" 
d="M259 1104l18 92q129 26 158 135q-50 5 -79 34.5t-29 75.5q0 52 35.5 87t87.5 35q57 0 88.5 -37.5t31.5 -104.5q0 -132 -81 -218q-80 -84 -230 -99zM632 1104l18 92q129 26 158 135q-51 5 -80 34.5t-29 75.5q0 52 35.5 87t88.5 35q57 0 88.5 -37.5t31.5 -104.5
q0 -132 -81 -218q-80 -84 -230 -99z" />
    <glyph glyph-name="quoteleft" unicode="&#x2018;" horiz-adv-x="547" vert-adv-y="2457" 
d="M420 1339q51 -5 80 -34.5t29 -74.5q0 -52 -35.5 -87t-88.5 -35q-57 0 -88.5 37t-31.5 104q0 133 81 218q80 84 230 100l-18 -93q-130 -26 -158 -135z" />
    <glyph glyph-name="quoteright" unicode="&#x2019;" horiz-adv-x="547" vert-adv-y="2457" 
d="M259 1104l18 92q129 26 158 135q-50 5 -79 34.5t-29 75.5q0 52 35.5 87t87.5 35q57 0 88.5 -37.5t31.5 -104.5q0 -132 -81 -218q-80 -84 -230 -99z" />
    <glyph glyph-name="divide" unicode="&#xf7;" horiz-adv-x="1147" vert-adv-y="2457" 
d="M540 440q51 0 85 -34t34 -85q0 -57 -40 -96t-98 -39q-51 0 -85.5 34t-34.5 85q0 56 40.5 95.5t98.5 39.5zM690 1214q51 0 85 -34t34 -84q0 -57 -40 -96t-98 -39q-51 0 -85.5 34t-34.5 84q0 56 40.5 95.5t98.5 39.5zM172 633l27 135h839l-26 -135h-840z" />
    <glyph glyph-name="lozenge" unicode="&#x25ca;" vert-adv-y="2457" 
d="M654 -69l-588 800l588 801l589 -801zM654 189l401 542l-401 543l-401 -543z" />
    <glyph glyph-name="ydieresis" unicode="&#xff;" horiz-adv-x="940" vert-adv-y="2457" 
d="M1023 1071l-670 -1251q-58 -110 -126.5 -157.5t-167.5 -47.5q-110 0 -193 72l80 114q51 -53 118 -53q103 0 164 127l72 147l-176 1049h174l129 -821l416 821h180zM432 1495q43 0 70.5 -26t27.5 -67q0 -47 -34.5 -81.5t-81.5 -34.5q-40 0 -67.5 27t-27.5 67
q0 48 33.5 81.5t79.5 33.5zM795 1495q43 0 70.5 -26t27.5 -67q0 -47 -34.5 -81.5t-81.5 -34.5q-40 0 -67.5 27t-27.5 67q0 48 33.5 81.5t79.5 33.5z" />
    <glyph glyph-name="Ydieresis" unicode="&#x178;" horiz-adv-x="1143" vert-adv-y="2457" 
d="M398 0l118 616l-319 848h178l250 -702l500 702h182l-627 -858l-116 -606h-166zM616 1825q43 0 70.5 -26.5t27.5 -66.5q0 -47 -34.5 -81.5t-81.5 -34.5q-40 0 -67.5 27t-27.5 67q0 48 33 81.5t80 33.5zM978 1825q43 0 70.5 -26.5t27.5 -66.5q0 -47 -34.5 -81.5
t-80.5 -34.5q-41 0 -68.5 27t-27.5 67q0 48 33 81.5t80 33.5z" />
    <glyph glyph-name="fraction" unicode="&#x2044;" horiz-adv-x="205" vert-adv-y="2457" 
d="M-425 0l991 1464h139l-991 -1464h-139z" />
    <glyph glyph-name="Euro" unicode="&#x20ac;" vert-adv-y="2457" 
d="M1198 362q-51 -112 -98 -176.5t-114 -113.5q-122 -90 -288 -90q-211 0 -338 138q-67 72 -98.5 161.5t-41.5 236.5h-193l25 123h170q2 69 18 174h-156l25 123h160q39 126 79 203t103 149q171 192 424 192q182 0 283 -97q51 -49 79 -116t47 -186l-157 -30q-23 133 -58 191
q-61 103 -206 103q-295 0 -424 -409h446l-24 -123h-453q-16 -89 -19 -174h439l-25 -123h-416q10 -150 53 -235q81 -162 268 -162q119 0 200 68.5t153 230.5z" />
    <glyph glyph-name="guilsinglleft" unicode="&#x2039;" horiz-adv-x="692" vert-adv-y="2457" 
d="M313 88l-180 416l330 395h174l-330 -410l164 -401h-158z" />
    <glyph glyph-name="guilsinglright" unicode="&#x203a;" horiz-adv-x="692" vert-adv-y="2457" 
d="M39 88l328 410l-162 401h158l180 -416l-330 -395h-174z" />
    <glyph glyph-name="daggerdbl" unicode="&#x2021;" horiz-adv-x="657" vert-adv-y="2457" 
d="M285 645l43 219h-178l23 115h178l28 151h-178l23 115h178l43 219h129l-43 -219h178l-22 -115h-179l-28 -151h178l-23 -115h-178l-43 -219h-129z" />
    <glyph glyph-name="periodcentered" unicode="&#xb7;" horiz-adv-x="616" vert-adv-y="2457" 
d="M343 799q53 0 87.5 -34t34.5 -87q0 -58 -40 -97.5t-100 -39.5q-52 0 -87 34.5t-35 86.5q0 57 41 97t99 40z" />
    <glyph glyph-name="quotesinglbase" unicode="&#x201a;" horiz-adv-x="547" vert-adv-y="2457" 
d="M0 -233l18 92q130 27 158 135q-51 5 -79.5 34t-28.5 75q0 52 35.5 87t87.5 35q57 0 88.5 -37.5t31.5 -103.5q0 -132 -81 -218q-80 -84 -230 -99z" />
    <glyph glyph-name="quotedblbase" unicode="&#x201e;" horiz-adv-x="920" vert-adv-y="2457" 
d="M0 -233l18 92q130 27 158 135q-51 5 -79.5 34t-28.5 75q0 52 35.5 87t87.5 35q57 0 88.5 -37.5t31.5 -103.5q0 -132 -81 -218q-80 -84 -230 -99zM373 -233l18 92q129 27 158 135q-51 5 -80 34t-29 75q0 52 35.5 87t88.5 35q57 0 88.5 -37.5t31.5 -103.5q0 -132 -81 -218
q-80 -84 -230 -99z" />
    <glyph glyph-name="perthousand" unicode="&#x2030;" horiz-adv-x="2466" vert-adv-y="2457" 
d="M563 1476q127 0 203 -87q77 -88 77 -244q0 -112 -37.5 -212t-103.5 -167q-97 -97 -227 -97q-129 0 -208 91.5t-79 240.5q0 201 113 343q105 132 262 132zM550 1351q-98 0 -152 -97q-56 -100 -56 -257q0 -203 146 -203q95 0 147 93q59 107 59 260q0 204 -144 204z
M1333 795q127 0 203 -87q77 -88 77 -244q0 -112 -37 -212t-104 -167q-96 -97 -227 -97q-129 0 -208 91.5t-79 240.5q0 201 113 343q104 132 262 132zM1320 670q-97 0 -152 -97q-56 -100 -56 -257q0 -203 146 -203q94 0 147 93q59 107 59 260q0 204 -144 204zM2075 795
q127 0 203 -87q77 -88 77 -244q0 -112 -37.5 -212t-103.5 -167q-97 -97 -228 -97q-129 0 -208 91.5t-79 240.5q0 202 113 343q105 132 263 132zM2061 670q-97 0 -152 -97q-56 -100 -56 -257q0 -203 146 -203q95 0 147 93q60 107 60 260q0 204 -145 204zM335 0l992 1464h139
l-991 -1464h-140z" />
    <glyph glyph-name="Acircumflex" unicode="&#xc2;" horiz-adv-x="1257" vert-adv-y="2457" 
d="M294 371l-194 -371h-168l791 1466h163l230 -1466h-164l-55 371h-603zM365 506h512l-114 761zM535 1604l260 331h146l135 -331h-111l-119 192l-196 -192h-115z" />
    <glyph glyph-name="Ecircumflex" unicode="&#xca;" horiz-adv-x="1210" vert-adv-y="2457" 
d="M86 0l285 1464h876l-27 -139h-711l-101 -520h581l-25 -135h-582l-103 -531h748l-28 -139h-913zM560 1604l260 331h146l135 -331h-111l-119 192l-196 -192h-115z" />
    <glyph glyph-name="Aacute" unicode="&#xc1;" horiz-adv-x="1257" vert-adv-y="2457" 
d="M294 371l-194 -371h-168l791 1466h163l230 -1466h-164l-55 371h-603zM365 506h512l-114 761zM748 1604l160 331h221l-264 -331h-117z" />
    <glyph glyph-name="Edieresis" unicode="&#xcb;" horiz-adv-x="1210" vert-adv-y="2457" 
d="M86 0l285 1464h876l-27 -139h-711l-101 -520h581l-25 -135h-582l-103 -531h748l-28 -139h-913zM650 1825q43 0 70.5 -26t27.5 -67q0 -47 -34.5 -81.5t-81.5 -34.5q-40 0 -67.5 27t-27.5 67q0 48 33 81.5t80 33.5zM1012 1825q43 0 70.5 -26.5t27.5 -66.5
q0 -47 -34.5 -81.5t-81.5 -34.5q-40 0 -67.5 27t-27.5 67q0 48 33 81.5t80 33.5z" />
    <glyph glyph-name="Egrave" unicode="&#xc8;" horiz-adv-x="1210" vert-adv-y="2457" 
d="M86 0l285 1464h876l-27 -139h-711l-101 -520h581l-25 -135h-582l-103 -531h748l-28 -139h-913zM836 1603l-168 332h207l65 -332h-104z" />
    <glyph glyph-name="Iacute" unicode="&#xcd;" horiz-adv-x="582" vert-adv-y="2457" 
d="M102 0l285 1464h168l-285 -1464h-168zM417 1604l160 331h221l-264 -331h-117z" />
    <glyph glyph-name="Icircumflex" unicode="&#xce;" horiz-adv-x="582" vert-adv-y="2457" 
d="M102 0l285 1464h168l-285 -1464h-168zM215 1604l260 331h146l135 -331h-111l-119 192l-196 -192h-115z" />
    <glyph glyph-name="Idieresis" unicode="&#xcf;" horiz-adv-x="582" vert-adv-y="2457" 
d="M102 0l285 1464h168l-285 -1464h-168zM335 1825q43 0 70.5 -26.5t27.5 -66.5q0 -47 -34.5 -81.5t-81.5 -34.5q-40 0 -67.5 27t-27.5 67q0 48 33 81.5t80 33.5zM697 1825q43 0 70.5 -26.5t27.5 -66.5q0 -47 -34.5 -81.5t-80.5 -34.5q-41 0 -68.5 27t-27.5 67q0 48 33 81.5
t80 33.5z" />
    <glyph glyph-name="Igrave" unicode="&#xcc;" horiz-adv-x="582" vert-adv-y="2457" 
d="M102 0l285 1464h168l-285 -1464h-168zM472 1603l-168 332h207l65 -332h-104z" />
    <glyph glyph-name="Oacute" unicode="&#xd3;" horiz-adv-x="1569" vert-adv-y="2457" 
d="M905 1482q244 0 399 -155q174 -173 174 -477q0 -281 -129 -506q-103 -181 -268 -275q-151 -87 -339 -87q-243 0 -400 155q-175 173 -175 481q0 223 86 418q79 181 220 295q185 151 432 151zM894 1343q-194 0 -330 -128q-113 -105 -172 -285q-49 -151 -49 -325
q0 -262 136 -387q107 -97 282 -97q185 0 318 127q112 106 171 288q49 153 49 325q0 264 -136 389q-102 93 -269 93zM862 1604l160 331h221l-264 -331h-117z" />
    <glyph glyph-name="Ocircumflex" unicode="&#xd4;" horiz-adv-x="1569" vert-adv-y="2457" 
d="M905 1482q244 0 399 -155q174 -173 174 -477q0 -281 -129 -506q-103 -181 -268 -275q-151 -87 -339 -87q-243 0 -400 155q-175 173 -175 481q0 223 86 418q79 181 220 295q185 151 432 151zM894 1343q-194 0 -330 -128q-113 -105 -172 -285q-49 -151 -49 -325
q0 -262 136 -387q107 -97 282 -97q185 0 318 127q112 106 171 288q49 153 49 325q0 264 -136 389q-102 93 -269 93zM697 1604l260 331h146l135 -331h-111l-119 192l-196 -192h-115z" />
    <glyph glyph-name="glyph210" horiz-adv-x="616" vert-adv-y="2457" 
 />
    <glyph glyph-name="Ograve" unicode="&#xd2;" horiz-adv-x="1569" vert-adv-y="2457" 
d="M905 1482q244 0 399 -155q174 -173 174 -477q0 -281 -129 -506q-103 -181 -268 -275q-151 -87 -339 -87q-243 0 -400 155q-175 173 -175 481q0 223 86 418q79 181 220 295q185 151 432 151zM894 1343q-194 0 -330 -128q-113 -105 -172 -285q-49 -151 -49 -325
q0 -262 136 -387q107 -97 282 -97q185 0 318 127q112 106 171 288q49 153 49 325q0 264 -136 389q-102 93 -269 93zM978 1603l-168 332h207l65 -332h-104z" />
    <glyph glyph-name="Uacute" unicode="&#xda;" horiz-adv-x="1411" vert-adv-y="2457" 
d="M1407 1464l-188 -966q-42 -217 -128 -328q-146 -188 -432 -188q-257 0 -382 138q-101 111 -101 301q0 76 28 222l160 821h168l-165 -847q-25 -128 -25 -199q0 -151 82 -224q79 -71 246 -71q174 0 264 90t132 306l183 945h158zM838 1604l160 331h221l-264 -331h-117z" />
    <glyph glyph-name="Ucircumflex" unicode="&#xdb;" horiz-adv-x="1411" vert-adv-y="2457" 
d="M1407 1464l-188 -966q-42 -217 -128 -328q-146 -188 -432 -188q-257 0 -382 138q-101 111 -101 301q0 76 28 222l160 821h168l-165 -847q-25 -128 -25 -199q0 -151 82 -224q79 -71 246 -71q174 0 264 90t132 306l183 945h158zM636 1604l260 331h146l135 -331h-111
l-119 192l-196 -192h-115z" />
    <glyph glyph-name="Ugrave" unicode="&#xd9;" horiz-adv-x="1411" vert-adv-y="2457" 
d="M1407 1464l-188 -966q-42 -217 -128 -328q-146 -188 -432 -188q-257 0 -382 138q-101 111 -101 301q0 76 28 222l160 821h168l-165 -847q-25 -128 -25 -199q0 -151 82 -224q79 -71 246 -71q174 0 264 90t132 306l183 945h158zM906 1603l-168 332h207l65 -332h-104z" />
    <glyph glyph-name="dotlessi" unicode="&#x131;" horiz-adv-x="557" vert-adv-y="2457" 
d="M90 0l209 1071h168l-209 -1071h-168z" />
    <glyph glyph-name="circumflex" unicode="&#x2c6;" horiz-adv-x="1024" vert-adv-y="2457" 
d="M372 1210l260 332h146l135 -332h-111l-119 193l-196 -193h-115z" />
    <glyph glyph-name="tilde" unicode="&#x2dc;" horiz-adv-x="1024" vert-adv-y="2457" 
d="M469 1271l-106 12q47 221 191 221q57 0 154 -59q65 -39 94 -39q61 0 85 102l105 -12q-20 -96 -60 -148q-54 -73 -132 -73q-58 0 -153 59q-64 39 -93 39q-60 0 -85 -102z" />
    <glyph glyph-name="macron" unicode="&#xaf;" horiz-adv-x="1024" vert-adv-y="2457" 
d="M424 1339l25 125h487l-25 -125h-487z" />
    <glyph glyph-name="breve" unicode="&#x2d8;" horiz-adv-x="1024" vert-adv-y="2457" 
d="M440 1536h129q1 -75 14 -106q28 -60 111 -60q131 0 149 166h125q-16 -291 -275 -291q-83 0 -144 34.5t-86 94.5q-22 54 -23 162z" />
    <glyph glyph-name="dotaccent" unicode="&#x2d9;" horiz-adv-x="1024" vert-adv-y="2457" 
d="M686 1495q43 0 70.5 -26t27.5 -67q0 -47 -34.5 -81.5t-81.5 -34.5q-40 0 -67.5 27t-27.5 67q0 48 33.5 81.5t79.5 33.5z" />
    <glyph glyph-name="ring" unicode="&#x2da;" horiz-adv-x="1024" vert-adv-y="2457" 
d="M692 1595q84 0 139 -55t55 -139q0 -96 -66 -164t-160 -68q-83 0 -137.5 56.5t-54.5 140.5q0 93 66.5 161t157.5 68zM687 1503q-50 0 -82.5 -38t-32.5 -97q0 -49 25.5 -78t68.5 -29q50 0 84 39t34 96q0 48 -26.5 77.5t-70.5 29.5z" />
    <glyph glyph-name="cedilla" unicode="&#xb8;" horiz-adv-x="1024" vert-adv-y="2457" 
d="M367 -125q30 9 50 9q59 0 95.5 -40t36.5 -104q0 -72 -48 -119q-60 -59 -165 -59q-114 0 -188 84l80 67q42 -57 115 -57q87 0 87 82q0 67 -66 67q-35 0 -66 -30l-64 57l147 168h95z" />
    <glyph glyph-name="hungarumlaut" unicode="&#x2dd;" horiz-adv-x="1024" vert-adv-y="2457" 
d="M423 1210l125 332h188l-207 -332h-106zM712 1210l125 332h188l-207 -332h-106z" />
    <glyph glyph-name="ogonek" unicode="&#x2db;" horiz-adv-x="1024" vert-adv-y="2457" 
d="M558 -362q-80 -76 -188 -76q-85 0 -134 42.5t-49 116.5q0 157 221 279h125q-219 -136 -219 -267q0 -77 73 -77q61 0 113 51z" />
    <glyph glyph-name="caron" unicode="&#x2c7;" horiz-adv-x="1024" vert-adv-y="2457" 
d="M572 1210l-135 332h111l118 -193l197 193h115l-260 -332h-146z" />
    <glyph glyph-name="nonbreakingspace" unicode="&#xa0;" horiz-adv-x="616" vert-adv-y="2457" 
 />
    <glyph glyph-name="currency" unicode="&#xa4;" vert-adv-y="2457" 
d="M1198 362q-51 -112 -98 -176.5t-114 -113.5q-122 -90 -288 -90q-211 0 -338 138q-67 72 -98.5 161.5t-41.5 236.5h-193l25 123h170q2 69 18 174h-156l25 123h160q39 126 79 203t103 149q171 192 424 192q182 0 283 -97q51 -49 79 -116t47 -186l-157 -30q-23 133 -58 191
q-61 103 -206 103q-295 0 -424 -409h446l-24 -123h-453q-16 -89 -19 -174h439l-25 -123h-416q10 -150 53 -235q81 -162 268 -162q119 0 200 68.5t153 230.5z" />
    <glyph glyph-name="brokenbar" unicode="&#xa6;" horiz-adv-x="582" vert-adv-y="2457" 
d="M111 0l114 588h152l-114 -588h-152zM281 877l115 587h151l-114 -587h-152z" />
    <glyph glyph-name="uni00AD" unicode="&#xad;" horiz-adv-x="616" vert-adv-y="2457" 
d="M104 591l29 154h430l-29 -154h-430z" />
    <glyph glyph-name="twosuperior" unicode="&#xb2;" horiz-adv-x="924" vert-adv-y="2457" 
d="M185 924l23 124l40 27q188 133 260.5 190.5t120.5 112.5q79 91 79 167q0 57 -29 90t-80 33q-55 0 -90.5 -40t-59.5 -128l-148 37q34 135 111.5 198.5t205.5 63.5q125 0 193 -62q70 -64 70 -171q0 -172 -167 -326q-84 -77 -258 -187h360l-25 -129h-606z" />
    <glyph glyph-name="threesuperior" unicode="&#xb3;" horiz-adv-x="924" vert-adv-y="2457" 
d="M754 1367q99 -59 99 -169q0 -133 -86.5 -208.5t-239.5 -75.5q-157 0 -238 69.5t-93 213.5l168 21q27 -175 176 -175q63 0 102 35t39 91q0 142 -153 142h-77l27 129h88q76 0 118.5 30t42.5 84q0 53 -32.5 84t-88.5 31q-61 0 -98.5 -32.5t-67.5 -111.5l-139 43
q28 88 69 134q84 96 249 96q140 0 215 -71q60 -57 60 -147q0 -142 -140 -213z" />
    <glyph glyph-name="onesuperior" unicode="&#xb9;" horiz-adv-x="924" vert-adv-y="2457" 
d="M237 924l26 129h203l98 508q-78 -15 -206 -17l23 116q106 11 154 32q71 31 114 112h123l-146 -751h184l-25 -129h-548z" />
    <glyph glyph-name="onequarter" unicode="&#xbc;" horiz-adv-x="1884" vert-adv-y="2457" 
d="M216 678l23 118h185l89 462q-70 -14 -187 -16l21 106q110 11 160.5 38.5t83.5 92.5h111l-132 -683h167l-23 -118h-498zM415 0l991 1464h139l-991 -1464h-139zM1372 0l30 157h-376l22 122l472 507h148l-100 -511h104l-21 -118h-106l-29 -157h-144zM1204 275h220l64 324z
" />
    <glyph glyph-name="onehalf" unicode="&#xbd;" horiz-adv-x="1884" vert-adv-y="2457" 
d="M216 678l23 118h185l89 462q-70 -14 -187 -16l21 106q110 11 160.5 38.5t83.5 92.5h111l-132 -683h167l-23 -118h-498zM386 0l991 1464h140l-992 -1464h-139zM1052 0l21 113l36 25q174 123 239.5 174.5t107.5 100.5q72 83 72 153q0 52 -26.5 81.5t-73.5 29.5
q-50 0 -82 -36t-54 -117l-135 34q61 238 289 238q114 0 175 -56q64 -58 64 -156q0 -156 -152 -296q-78 -71 -235 -170h328l-23 -118h-551z" />
    <glyph glyph-name="threequarters" unicode="&#xbe;" horiz-adv-x="1884" vert-adv-y="2457" 
d="M685 1081q90 -53 90 -153q0 -121 -79 -189.5t-218 -68.5q-141 0 -215 63t-85 193l153 20q24 -158 160 -158q57 0 92.5 31.5t35.5 82.5q0 128 -140 128h-69l25 118h79q69 0 107.5 27.5t38.5 75.5t-29.5 76t-80.5 28q-55 0 -89 -29.5t-62 -100.5l-125 40q26 79 62 121
q76 87 226 87q127 0 196 -65q54 -51 54 -133q0 -129 -127 -194zM414 0l992 1464h139l-991 -1464h-140zM1371 0l30 157h-376l23 122l471 507h149l-100 -511h104l-22 -118h-105l-30 -157h-144zM1204 275h220l63 324z" />
    <glyph glyph-name="Eth" unicode="&#xd0;" horiz-adv-x="1458" vert-adv-y="2457" 
d="M106 0l127 658h-170l27 137h170l131 669h428q277 0 422 -160q133 -147 133 -426q0 -305 -129 -532q-93 -164 -245 -247q-181 -99 -417 -99h-477zM299 141h303q344 0 496 269q108 193 108 473q0 245 -118 352q-98 90 -282 90h-276l-105 -530h287l-26 -137h-287z" />
    <glyph glyph-name="multiply" unicode="&#xd7;" horiz-adv-x="1147" vert-adv-y="2457" 
d="M291 290l-96 92l320 349l-320 353l96 92l314 -346l315 343l96 -92l-320 -349l323 -347l-96 -92l-317 340z" />
    <glyph glyph-name="Yacute" unicode="&#xdd;" horiz-adv-x="1143" vert-adv-y="2457" 
d="M398 0l118 616l-319 848h178l250 -702l500 702h182l-627 -858l-116 -606h-166zM704 1604l160 331h221l-264 -331h-117z" />
    <glyph glyph-name="Thorn" unicode="&#xde;" horiz-adv-x="1274" vert-adv-y="2457" 
d="M86 0l285 1464h166l-56 -284h314q201 0 308 -92.5t107 -266.5q0 -225 -146 -355t-400 -130h-347l-65 -336h-166zM344 473h338q362 0 362 334q0 234 -264 234h-325z" />
    <glyph glyph-name="eth" unicode="&#xf0;" horiz-adv-x="1130" vert-adv-y="2457" 
d="M796 1399q108 -127 163 -243q91 -193 91 -433q0 -236 -78 -415q-93 -213 -270 -288q-87 -38 -190 -38q-195 0 -307 125q-109 123 -109 333q0 268 153 460q150 189 374 189q134 0 214 -94q-60 164 -170 299l-165 -133l-60 84l156 125q-43 42 -119 104l94 121
q93 -72 150 -125l151 123l60 -84zM628 950q-183 0 -279 -171q-83 -146 -83 -351q0 -309 249 -309q172 0 264 165q89 159 89 371q0 295 -240 295z" />
    <glyph glyph-name="yacute" unicode="&#xfd;" horiz-adv-x="940" vert-adv-y="2457" 
d="M1023 1071l-670 -1251q-58 -110 -126.5 -157.5t-167.5 -47.5q-110 0 -193 72l80 114q51 -53 118 -53q103 0 164 127l72 147l-176 1049h174l129 -821l416 821h180zM502 1210l160 332h221l-264 -332h-117z" />
    <glyph glyph-name="thorn" unicode="&#xfe;" vert-adv-y="2457" 
d="M14 -373l371 1915h168l-123 -641q134 188 337 188q165 0 264 -112q101 -114 101 -321q0 -140 -41 -267.5t-116 -220.5q-150 -186 -376 -186q-227 0 -311 200l-106 -555h-168zM724 954q-172 0 -280 -152q-106 -150 -106 -377q0 -308 267 -308q173 0 265 165q84 150 84 361
q0 311 -230 311z" />
    <glyph glyph-name="Amacron" unicode="&#x100;" horiz-adv-x="1257" vert-adv-y="2457" 
d="M294 371l-194 -371h-168l791 1466h163l230 -1466h-164l-55 371h-603zM365 506h512l-114 761zM568 1636l25 125h487l-25 -125h-487z" />
    <glyph glyph-name="amacron" unicode="&#x101;" horiz-adv-x="1075" vert-adv-y="2457" 
d="M659 143q-136 -161 -308 -161q-134 0 -218 79.5t-84 205.5q0 132 80.5 213.5t251.5 121.5q117 28 362 37l13 67q8 47 8 74q0 168 -181 168q-161 0 -315 -123l-80 109q183 155 415 155q168 0 253 -83q76 -73 76 -196q0 -49 -11 -104l-92 -477q-3 -17 -3 -32q0 -71 102 -74
l-27 -131q-31 -3 -45 -3q-172 0 -197 154zM719 520q-195 -6 -301 -34q-199 -54 -199 -214q0 -155 180 -155q111 0 190 64.5t99 172.5zM401 1339l25 125h487l-25 -125h-487z" />
    <glyph glyph-name="Abreve" unicode="&#x102;" horiz-adv-x="1257" vert-adv-y="2457" 
d="M294 371l-194 -371h-168l791 1466h163l230 -1466h-164l-55 371h-603zM365 506h512l-114 761zM1093 1878q-26 -128 -103 -194q-79 -68 -185 -68q-132 0 -199 98q-42 61 -42 164h129q7 -137 120 -137q58 0 94 32t61 105h125z" />
    <glyph glyph-name="abreve" unicode="&#x103;" horiz-adv-x="1075" vert-adv-y="2457" 
d="M659 143q-136 -161 -308 -161q-134 0 -218 79.5t-84 205.5q0 132 80.5 213.5t251.5 121.5q117 28 362 37l13 67q8 47 8 74q0 168 -181 168q-161 0 -315 -123l-80 109q183 155 415 155q168 0 253 -83q76 -73 76 -196q0 -49 -11 -104l-92 -477q-3 -17 -3 -32q0 -71 102 -74
l-27 -131q-31 -3 -45 -3q-172 0 -197 154zM719 520q-195 -6 -301 -34q-199 -54 -199 -214q0 -155 180 -155q111 0 190 64.5t99 172.5zM933 1524q-26 -128 -103 -194q-78 -68 -185 -68q-131 0 -199 98q-41 61 -41 164h129q6 -137 120 -137q57 0 93 32t61 105h125z" />
    <glyph glyph-name="Aogonek" unicode="&#x104;" horiz-adv-x="1257" vert-adv-y="2457" 
d="M1044 -293l57 -69q-79 -76 -187 -76q-85 0 -134 42.5t-49 116.5q0 158 221 279l-55 371h-603l-194 -371h-168l791 1466h163l227 -1448q-117 -59 -186 -136t-69 -149q0 -77 73 -77q60 0 113 51zM365 506h512l-114 761z" />
    <glyph glyph-name="aogonek" unicode="&#x105;" horiz-adv-x="1075" vert-adv-y="2457" 
d="M903 0q-103 -62 -160.5 -132.5t-57.5 -134.5q0 -77 73 -77q61 0 114 51l57 -69q-79 -76 -188 -76q-85 0 -134 42.5t-49 116.5q0 158 221 279q-102 31 -120 143q-136 -161 -308 -161q-134 0 -218 79.5t-84 205.5q0 132 80.5 213.5t251.5 121.5q117 28 362 37l13 67
q8 47 8 74q0 168 -181 168q-161 0 -315 -123l-80 109q183 155 415 155q168 0 253 -83q76 -73 76 -196q0 -49 -11 -104l-92 -477q-3 -17 -3 -32q0 -71 102 -74zM719 520q-195 -6 -301 -34q-199 -54 -199 -214q0 -155 180 -155q111 0 190 64.5t99 172.5z" />
    <glyph glyph-name="Cacute" unicode="&#x106;" horiz-adv-x="1454" vert-adv-y="2457" 
d="M1311 405q-67 -144 -128 -217q-173 -206 -461 -206q-258 0 -407 168q-147 167 -147 458q0 228 86 425q93 215 266 334q166 115 376 115q270 0 397 -185q36 -52 54.5 -105t37.5 -156l-156 -31q-22 130 -63 197q-85 141 -277 141q-245 0 -396 -213t-151 -528
q0 -189 67 -307q100 -174 325 -174q152 0 257.5 83t177.5 259zM841 1604l160 331h221l-264 -331h-117z" />
    <glyph glyph-name="cacute" unicode="&#x107;" horiz-adv-x="1077" vert-adv-y="2457" 
d="M919 229q-87 -124 -170 -178q-108 -69 -255 -69q-174 0 -282 108q-120 119 -120 335q0 133 41 259.5t114 217.5q151 187 391 187q131 0 218 -59t143 -186l-139 -74q-50 108 -97 145t-133 37q-189 0 -286 -170q-82 -144 -82 -348q0 -315 248 -315q92 0 155.5 41.5
t135.5 148.5zM576 1210l160 332h221l-264 -332h-117z" />
    <glyph glyph-name="Ccircumflex" unicode="&#x108;" horiz-adv-x="1454" vert-adv-y="2457" 
d="M1311 405q-67 -144 -128 -217q-173 -206 -461 -206q-258 0 -407 168q-147 167 -147 458q0 228 86 425q93 215 266 334q166 115 376 115q270 0 397 -185q36 -52 54.5 -105t37.5 -156l-156 -31q-22 130 -63 197q-85 141 -277 141q-245 0 -396 -213t-151 -528
q0 -189 67 -307q100 -174 325 -174q152 0 257.5 83t177.5 259zM658 1604l260 331h146l135 -331h-111l-119 192l-196 -192h-115z" />
    <glyph glyph-name="ccircumflex" unicode="&#x109;" horiz-adv-x="1077" vert-adv-y="2457" 
d="M919 229q-87 -124 -170 -178q-108 -69 -255 -69q-174 0 -282 108q-120 119 -120 335q0 133 41 259.5t114 217.5q151 187 391 187q131 0 218 -59t143 -186l-139 -74q-50 108 -97 145t-133 37q-189 0 -286 -170q-82 -144 -82 -348q0 -315 248 -315q92 0 155.5 41.5
t135.5 148.5zM387 1210l260 332h146l135 -332h-111l-119 193l-196 -193h-115z" />
    <glyph glyph-name="Cdotaccent" unicode="&#x10a;" horiz-adv-x="1454" vert-adv-y="2457" 
d="M1311 405q-67 -144 -128 -217q-173 -206 -461 -206q-258 0 -407 168q-147 167 -147 458q0 228 86 425q93 215 266 334q166 115 376 115q270 0 397 -185q36 -52 54.5 -105t37.5 -156l-156 -31q-22 130 -63 197q-85 141 -277 141q-245 0 -396 -213t-151 -528
q0 -189 67 -307q100 -174 325 -174q152 0 257.5 83t177.5 259zM965 1825q43 0 70.5 -26.5t27.5 -66.5q0 -47 -34.5 -81.5t-81.5 -34.5q-40 0 -67.5 27t-27.5 67q0 48 33 81.5t80 33.5z" />
    <glyph glyph-name="cdotaccent" unicode="&#x10b;" horiz-adv-x="1077" vert-adv-y="2457" 
d="M919 229q-87 -124 -170 -178q-108 -69 -255 -69q-174 0 -282 108q-120 119 -120 335q0 133 41 259.5t114 217.5q151 187 391 187q131 0 218 -59t143 -186l-139 -74q-50 108 -97 145t-133 37q-189 0 -286 -170q-82 -144 -82 -348q0 -315 248 -315q92 0 155.5 41.5
t135.5 148.5zM712 1495q43 0 70.5 -26t27.5 -67q0 -47 -34.5 -81.5t-81.5 -34.5q-40 0 -67.5 27t-27.5 67q0 48 33.5 81.5t79.5 33.5z" />
    <glyph glyph-name="Ccaron" unicode="&#x10c;" horiz-adv-x="1454" vert-adv-y="2457" 
d="M1311 405q-67 -144 -128 -217q-173 -206 -461 -206q-258 0 -407 168q-147 167 -147 458q0 228 86 425q93 215 266 334q166 115 376 115q270 0 397 -185q36 -52 54.5 -105t37.5 -156l-156 -31q-22 130 -63 197q-85 141 -277 141q-245 0 -396 -213t-151 -528
q0 -189 67 -307q100 -174 325 -174q152 0 257.5 83t177.5 259zM851 1604l-135 331h111l118 -192l197 192h115l-260 -331h-146z" />
    <glyph glyph-name="ccaron" unicode="&#x10d;" horiz-adv-x="1077" vert-adv-y="2457" 
d="M919 229q-87 -124 -170 -178q-108 -69 -255 -69q-174 0 -282 108q-120 119 -120 335q0 133 41 259.5t114 217.5q151 187 391 187q131 0 218 -59t143 -186l-139 -74q-50 108 -97 145t-133 37q-189 0 -286 -170q-82 -144 -82 -348q0 -315 248 -315q92 0 155.5 41.5
t135.5 148.5zM574 1210l-135 332h111l118 -193l197 193h115l-260 -332h-146z" />
    <glyph glyph-name="Dcaron" unicode="&#x10e;" horiz-adv-x="1438" vert-adv-y="2457" 
d="M86 0l285 1464h400q238 0 372 -91q211 -145 211 -498q0 -250 -91 -454q-115 -259 -362 -360q-150 -61 -338 -61h-477zM278 139h303q291 0 448 197q75 95 116 237t41 308q0 233 -99.5 338.5t-318.5 105.5h-258zM722 1604l-135 331h111l118 -192l197 192h115l-260 -331
h-146z" />
    <glyph glyph-name="dcaron" unicode="&#x10f;" horiz-adv-x="1278" vert-adv-y="2457" 
d="M804 158q-74 -95 -149.5 -135.5t-176.5 -40.5q-154 0 -255 101q-121 120 -121 345q0 138 39.5 263t111.5 215q146 183 373 183q113 0 195.5 -51.5t124.5 -148.5l127 653h168l-299 -1542h-168zM636 952q-178 0 -272 -165q-84 -148 -84 -356q0 -180 85 -258q59 -54 154 -54
q161 0 268 148q110 152 110 378q0 167 -86 246q-67 61 -175 61zM1240 1153l16 82q113 24 138 117q-97 12 -97 96q0 46 30.5 76.5t76.5 30.5q50 0 79 -34t29 -93q0 -113 -70 -188q-69 -73 -202 -87z" />
    <glyph glyph-name="Dcroat" unicode="&#x110;" horiz-adv-x="1458" vert-adv-y="2457" 
d="M106 0l127 658h-170l27 137h170l131 669h428q277 0 422 -160q133 -147 133 -426q0 -305 -129 -532q-93 -164 -245 -247q-181 -99 -417 -99h-477zM299 141h303q344 0 496 269q108 193 108 473q0 245 -118 352q-98 90 -282 90h-276l-105 -530h287l-26 -137h-287z" />
    <glyph glyph-name="dcroat" unicode="&#x111;" horiz-adv-x="1237" vert-adv-y="2457" 
d="M1039 1368l34 174h168l-34 -174h171l-27 -143h-172l-237 -1225h-168l30 158q-74 -95 -149.5 -135.5t-176.5 -40.5q-154 0 -255 100q-121 121 -121 346q0 138 39.5 263t111.5 215q146 183 373 183q113 0 195.5 -51.5t124.5 -148.5l65 336h-229l27 143h230zM636 952
q-178 0 -272 -165q-84 -148 -84 -356q0 -180 85 -258q59 -54 154 -54q161 0 268 148q110 152 110 378q0 167 -86 246q-67 61 -175 61z" />
    <glyph glyph-name="Emacron" unicode="&#x112;" horiz-adv-x="1210" vert-adv-y="2457" 
d="M86 0l285 1464h876l-27 -139h-711l-101 -520h581l-25 -135h-582l-103 -531h748l-28 -139h-913zM575 1636l25 125h487l-25 -125h-487z" />
    <glyph glyph-name="emacron" unicode="&#x113;" horiz-adv-x="1061" vert-adv-y="2457" 
d="M901 199q-164 -217 -413 -217q-189 0 -294 117q-102 114 -102 314q0 269 159 466q170 210 424 210q162 0 251 -96q73 -78 73 -200q0 -172 -177.5 -254.5t-561.5 -87.5v-48q0 -284 236 -284q172 0 288 157zM278 582q297 0 425 48.5t128 160.5q0 77 -45.5 119t-128.5 42
q-193 0 -304 -177q-45 -74 -75 -193zM442 1339l25 125h487l-25 -125h-487z" />
    <glyph glyph-name="Ebreve" unicode="&#x114;" horiz-adv-x="1210" vert-adv-y="2457" 
d="M86 0l285 1464h876l-27 -139h-711l-101 -520h581l-25 -135h-582l-103 -531h748l-28 -139h-913zM1124 1878q-26 -128 -103 -194q-79 -68 -185 -68q-132 0 -199 98q-41 61 -41 164h129q6 -137 120 -137q57 0 93 32t61 105h125z" />
    <glyph glyph-name="ebreve" unicode="&#x115;" horiz-adv-x="1061" vert-adv-y="2457" 
d="M901 199q-164 -217 -413 -217q-189 0 -294 117q-102 114 -102 314q0 269 159 466q170 210 424 210q162 0 251 -96q73 -78 73 -200q0 -172 -177.5 -254.5t-561.5 -87.5v-48q0 -284 236 -284q172 0 288 157zM278 582q297 0 425 48.5t128 160.5q0 77 -45.5 119t-128.5 42
q-193 0 -304 -177q-45 -74 -75 -193zM473 1536h129q1 -75 14 -106q28 -60 111 -60q131 0 149 166h125q-16 -291 -275 -291q-83 0 -144 34.5t-86 94.5q-22 54 -23 162z" />
    <glyph glyph-name="Edotaccent" unicode="&#x116;" horiz-adv-x="1210" vert-adv-y="2457" 
d="M86 0l285 1464h876l-27 -139h-711l-101 -520h581l-25 -135h-582l-103 -531h748l-28 -139h-913zM861 1825q43 0 70.5 -26.5t27.5 -66.5q0 -47 -34.5 -81.5t-81.5 -34.5q-40 0 -67.5 27t-27.5 67q0 48 33 81.5t80 33.5z" />
    <glyph glyph-name="edotaccent" unicode="&#x117;" horiz-adv-x="1061" vert-adv-y="2457" 
d="M901 199q-164 -217 -413 -217q-189 0 -294 117q-102 114 -102 314q0 269 159 466q170 210 424 210q162 0 251 -96q73 -78 73 -200q0 -172 -177.5 -254.5t-561.5 -87.5v-48q0 -284 236 -284q172 0 288 157zM278 582q297 0 425 48.5t128 160.5q0 77 -45.5 119t-128.5 42
q-193 0 -304 -177q-45 -74 -75 -193zM698 1495q43 0 70.5 -26t27.5 -67q0 -47 -34.5 -81.5t-81.5 -34.5q-40 0 -67.5 27t-27.5 67q0 48 33.5 81.5t79.5 33.5z" />
    <glyph glyph-name="Eogonek" unicode="&#x118;" horiz-adv-x="1210" vert-adv-y="2457" 
d="M999 0q-219 -134 -219 -267q0 -77 73 -77q61 0 114 51l57 -69q-79 -76 -188 -76q-85 0 -134 42.5t-49 116.5q0 159 221 279h-788l285 1464h876l-27 -139h-711l-101 -520h581l-25 -135h-582l-103 -531h748z" />
    <glyph glyph-name="eogonek" unicode="&#x119;" horiz-adv-x="1061" vert-adv-y="2457" 
d="M568 -13q-199 -127 -199 -254q0 -77 73 -77q61 0 113 51l58 -70q-80 -75 -188 -75q-85 0 -134 42.5t-49 116.5q0 150 193 263q-147 16 -234 108q-109 114 -109 321q0 269 159 466q170 210 424 210q162 0 251 -96q73 -78 73 -200q0 -172 -177.5 -254.5t-561.5 -88.5v-47
q0 -284 236 -284q172 0 288 157l117 -77q-140 -185 -333 -212zM278 581q297 0 425 49t128 161q0 77 -45.5 119t-128.5 42q-142 0 -238 -93.5t-141 -277.5z" />
    <glyph glyph-name="Ecaron" unicode="&#x11a;" horiz-adv-x="1210" vert-adv-y="2457" 
d="M86 0l285 1464h876l-27 -139h-711l-101 -520h581l-25 -135h-582l-103 -531h748l-28 -139h-913zM754 1604l-135 331h111l118 -192l197 192h115l-260 -331h-146z" />
    <glyph glyph-name="ecaron" unicode="&#x11b;" horiz-adv-x="1061" vert-adv-y="2457" 
d="M901 199q-164 -217 -413 -217q-189 0 -294 117q-102 114 -102 314q0 269 159 466q170 210 424 210q162 0 251 -96q73 -78 73 -200q0 -172 -177.5 -254.5t-561.5 -87.5v-48q0 -284 236 -284q172 0 288 157zM278 582q297 0 425 48.5t128 160.5q0 77 -45.5 119t-128.5 42
q-193 0 -304 -177q-45 -74 -75 -193zM609 1210l-135 332h111l118 -193l197 193h115l-260 -332h-146z" />
    <glyph glyph-name="Gcircumflex" unicode="&#x11c;" horiz-adv-x="1530" vert-adv-y="2457" 
d="M1165 256q-175 -274 -471 -274q-206 0 -341 124q-181 165 -181 494q0 232 88 431q87 197 243 315q178 136 414 136q276 0 404 -189q33 -49 52 -102t38 -153l-154 -40q-26 129 -69 206q-78 139 -281 139q-259 0 -415 -218q-150 -208 -150 -521q0 -199 70 -321
q92 -162 307 -162q184 0 311.5 120.5t175.5 338.5l8 37h-368l26 139h531l-148 -756h-100zM678 1604l260 331h146l135 -331h-111l-119 192l-196 -192h-115z" />
    <glyph glyph-name="gcircumflex" unicode="&#x11d;" horiz-adv-x="1122" vert-adv-y="2457" 
d="M363 434q-75 -49 -75 -111q0 -83 118 -83h213q181 0 270 -93q66 -69 66 -177q0 -221 -229 -316q-126 -53 -304 -53q-192 0 -309 66q-131 75 -131 214q0 163 229 246q-84 56 -84 152q0 125 152 211q-102 97 -102 224q0 178 155 290q118 85 276 85q107 0 199 -47l330 45
l-29 -149h-180q58 -84 58 -179q0 -180 -146 -285q-114 -83 -274 -83q-107 0 -203 43zM320 92q-160 -74 -160 -194q0 -160 282 -160q154 0 241 50q92 53 92 161q0 139 -175 139h-219q-39 0 -61 4zM596 960q-113 0 -182 -69q-67 -67 -67 -172q0 -93 60 -146t164 -53
q116 0 180.5 63t64.5 175q0 94 -59 148t-161 54zM392 1210l260 332h146l135 -332h-111l-119 193l-196 -193h-115z" />
    <glyph glyph-name="Gbreve" unicode="&#x11e;" horiz-adv-x="1530" vert-adv-y="2457" 
d="M1165 256q-175 -274 -471 -274q-206 0 -341 124q-181 165 -181 494q0 232 88 431q87 197 243 315q178 136 414 136q276 0 404 -189q33 -49 52 -102t38 -153l-154 -40q-26 129 -69 206q-78 139 -281 139q-259 0 -415 -218q-150 -208 -150 -521q0 -199 70 -321
q92 -162 307 -162q184 0 311.5 120.5t175.5 338.5l8 37h-368l26 139h531l-148 -756h-100zM1254 1878q-26 -128 -104 -194q-78 -68 -184 -68q-132 0 -199 98q-42 61 -42 164h129q7 -137 120 -137q58 0 93.5 32t61.5 105h125z" />
    <glyph glyph-name="gbreve" unicode="&#x11f;" horiz-adv-x="1122" vert-adv-y="2457" 
d="M363 434q-75 -49 -75 -111q0 -83 118 -83h213q181 0 270 -93q66 -69 66 -177q0 -221 -229 -316q-126 -53 -304 -53q-192 0 -309 66q-131 75 -131 214q0 163 229 246q-84 56 -84 152q0 125 152 211q-102 97 -102 224q0 178 155 290q118 85 276 85q107 0 199 -47l330 45
l-29 -149h-180q58 -84 58 -179q0 -180 -146 -285q-114 -83 -274 -83q-107 0 -203 43zM320 92q-160 -74 -160 -194q0 -160 282 -160q154 0 241 50q92 53 92 161q0 139 -175 139h-219q-39 0 -61 4zM596 960q-113 0 -182 -69q-67 -67 -67 -172q0 -93 60 -146t164 -53
q116 0 180.5 63t64.5 175q0 94 -59 148t-161 54zM951 1524q-26 -128 -103 -194q-78 -68 -185 -68q-131 0 -198 98q-42 61 -42 164h129q6 -137 120 -137q57 0 93 32t61 105h125z" />
    <glyph glyph-name="Gdotaccent" unicode="&#x120;" horiz-adv-x="1530" vert-adv-y="2457" 
d="M1165 256q-175 -274 -471 -274q-206 0 -341 124q-181 165 -181 494q0 232 88 431q87 197 243 315q178 136 414 136q276 0 404 -189q33 -49 52 -102t38 -153l-154 -40q-26 129 -69 206q-78 139 -281 139q-259 0 -415 -218q-150 -208 -150 -521q0 -199 70 -321
q92 -162 307 -162q184 0 311.5 120.5t175.5 338.5l8 37h-368l26 139h531l-148 -756h-100zM973 1825q43 0 70.5 -26.5t27.5 -66.5q0 -47 -34.5 -81.5t-81.5 -34.5q-40 0 -67.5 27t-27.5 67q0 48 33 81.5t80 33.5z" />
    <glyph glyph-name="gdotaccent" unicode="&#x121;" horiz-adv-x="1122" vert-adv-y="2457" 
d="M363 434q-75 -49 -75 -111q0 -83 118 -83h213q181 0 270 -93q66 -69 66 -177q0 -221 -229 -316q-126 -53 -304 -53q-192 0 -309 66q-131 75 -131 214q0 163 229 246q-84 56 -84 152q0 125 152 211q-102 97 -102 224q0 178 155 290q118 85 276 85q107 0 199 -47l330 45
l-29 -149h-180q58 -84 58 -179q0 -180 -146 -285q-114 -83 -274 -83q-107 0 -203 43zM320 92q-160 -74 -160 -194q0 -160 282 -160q154 0 241 50q92 53 92 161q0 139 -175 139h-219q-39 0 -61 4zM596 960q-113 0 -182 -69q-67 -67 -67 -172q0 -93 60 -146t164 -53
q116 0 180.5 63t64.5 175q0 94 -59 148t-161 54zM669 1495q43 0 70.5 -26t27.5 -67q0 -47 -34.5 -81.5t-81.5 -34.5q-40 0 -67.5 27t-27.5 67q0 48 33.5 81.5t79.5 33.5z" />
    <glyph glyph-name="Gcommaaccent" unicode="&#x122;" horiz-adv-x="1530" vert-adv-y="2457" 
d="M1165 256q-175 -274 -471 -274q-206 0 -341 124q-181 165 -181 494q0 232 88 431q87 197 243 315q178 136 414 136q276 0 404 -189q33 -49 52 -102t38 -153l-154 -40q-26 129 -69 206q-78 139 -281 139q-259 0 -415 -218q-150 -208 -150 -521q0 -199 70 -321
q92 -162 307 -162q184 0 311.5 120.5t175.5 338.5l8 37h-368l26 139h531l-148 -756h-100zM465 -496l16 82q113 24 138 117q-97 12 -97 96q0 46 30.5 76.5t76.5 30.5q50 0 79 -34t29 -93q0 -113 -70 -188q-69 -73 -202 -87z" />
    <glyph glyph-name="gcommaaccent" unicode="&#x123;" horiz-adv-x="1122" vert-adv-y="2457" 
d="M363 434q-75 -49 -75 -111q0 -83 118 -83h213q181 0 270 -93q66 -69 66 -177q0 -221 -229 -316q-126 -53 -304 -53q-192 0 -309 66q-131 75 -131 214q0 163 229 246q-84 56 -84 152q0 125 152 211q-102 97 -102 224q0 178 155 290q118 85 276 85q107 0 199 -47l330 45
l-29 -149h-180q58 -84 58 -179q0 -180 -146 -285q-114 -83 -274 -83q-107 0 -203 43zM320 92q-160 -74 -160 -194q0 -160 282 -160q154 0 241 50q92 53 92 161q0 139 -175 139h-219q-39 0 -61 4zM596 960q-113 0 -182 -69q-67 -67 -67 -172q0 -93 60 -146t164 -53
q116 0 180.5 63t64.5 175q0 94 -59 148t-161 54zM662 1383q96 -12 96 -96q0 -46 -30.5 -76.5t-76.5 -30.5q-50 0 -79 34t-29 93q0 113 70 188q69 73 202 87l-16 -82q-113 -24 -137 -117z" />
    <glyph glyph-name="Hcircumflex" unicode="&#x124;" horiz-adv-x="1393" vert-adv-y="2457" 
d="M86 0l285 1464h168l-129 -667h675l129 667h168l-284 -1464h-168l127 654h-676l-127 -654h-168zM627 1604l260 331h146l135 -331h-111l-119 192l-196 -192h-115z" />
    <glyph glyph-name="hcircumflex" unicode="&#x125;" horiz-adv-x="1184" vert-adv-y="2457" 
d="M86 0l299 1542h168l-120 -625q127 172 321 172q137 0 213.5 -79t76.5 -221q0 -54 -14 -125l-129 -664h-168l131 676q10 50 10 100q0 174 -175 174q-123 0 -208 -83.5t-114 -233.5l-123 -633h-168zM215 1604l260 331h146l135 -331h-111l-119 192l-196 -192h-115z" />
    <glyph glyph-name="Hbar" unicode="&#x126;" horiz-adv-x="1401" vert-adv-y="2457" 
d="M86 0l205 1057h-189l27 129h186l56 278h172l-56 -278h676l56 278h172l-56 -278h191l-27 -129h-188l-205 -1057h-172l127 654h-676l-127 -654h-172zM414 797h676l49 260h-676z" />
    <glyph glyph-name="hbar" unicode="&#x127;" horiz-adv-x="1184" vert-adv-y="2457" 
d="M351 1366l34 176h168l-34 -176h253l-27 -137h-252l-60 -312q127 172 321 172q137 0 213.5 -79t76.5 -221q0 -54 -14 -125l-129 -664h-168l131 676q10 50 10 100q0 174 -175 174q-123 0 -208 -83.5t-114 -233.5l-123 -633h-168l238 1229h-148l27 137h148z" />
    <glyph glyph-name="Itilde" unicode="&#x128;" horiz-adv-x="582" vert-adv-y="2457" 
d="M102 0l285 1464h168l-285 -1464h-168zM353 1616l-106 12q47 221 191 221q56 0 154 -59q65 -39 94 -39q61 0 85 102l105 -12q-20 -96 -59 -148q-55 -73 -133 -73q-58 0 -153 59q-64 39 -92 39q-62 0 -86 -102z" />
    <glyph glyph-name="itilde" unicode="&#x129;" horiz-adv-x="557" vert-adv-y="2457" 
d="M90 0l209 1071h168l-209 -1071h-168zM236 1271l-106 12q47 221 191 221q57 0 154 -59q65 -39 94 -39q61 0 85 102l105 -12q-20 -96 -60 -148q-54 -73 -132 -73q-58 0 -153 59q-64 39 -93 39q-60 0 -85 -102z" />
    <glyph glyph-name="Imacron" unicode="&#x12a;" horiz-adv-x="582" vert-adv-y="2457" 
d="M102 0l285 1464h168l-285 -1464h-168zM254 1636l25 125h487l-25 -125h-487z" />
    <glyph glyph-name="imacron" unicode="&#x12b;" horiz-adv-x="557" vert-adv-y="2457" 
d="M90 0l209 1071h168l-209 -1071h-168zM160 1339l25 125h487l-25 -125h-487z" />
    <glyph glyph-name="Ibreve" unicode="&#x12c;" horiz-adv-x="582" vert-adv-y="2457" 
d="M102 0l285 1464h168l-285 -1464h-168zM223 1906h129q1 -75 17 -106q32 -60 128 -60q78 0 118.5 39t51.5 127h125q-18 -291 -295 -291q-90 0 -155 34t-94 95q-24 53 -25 162z" />
    <glyph glyph-name="ibreve" unicode="&#x12d;" horiz-adv-x="557" vert-adv-y="2457" 
d="M90 0l209 1071h168l-209 -1071h-168zM710 1524q-26 -128 -103 -194q-78 -68 -185 -68q-131 0 -198 98q-42 61 -42 164h129q6 -137 120 -137q57 0 93 32t61 105h125z" />
    <glyph glyph-name="Iogonek" unicode="&#x12e;" horiz-adv-x="582" vert-adv-y="2457" 
d="M102 0l285 1464h168l-280 -1438q-267 -145 -267 -294q0 -77 73 -77q61 0 113 52l58 -70q-80 -76 -188 -76q-85 0 -134 42.5t-49 117.5q0 158 221 279z" />
    <glyph glyph-name="iogonek" unicode="&#x12f;" horiz-adv-x="557" vert-adv-y="2457" 
d="M90 0l209 1071h168l-204 -1045q-129 -68 -198 -143.5t-69 -149.5q0 -77 73 -77q61 0 113 51l58 -70q-80 -75 -188 -75q-85 0 -134 42.5t-49 116.5q0 157 221 279zM449 1497q43 0 71 -26.5t28 -67.5q0 -50 -34.5 -84.5t-83.5 -34.5q-42 0 -69.5 27.5t-27.5 69.5
q0 49 33.5 82.5t82.5 33.5z" />
    <glyph glyph-name="Idotaccent" unicode="&#x130;" horiz-adv-x="582" vert-adv-y="2457" 
d="M102 0l285 1464h168l-285 -1464h-168zM528 1825q43 0 70.5 -26.5t27.5 -66.5q0 -47 -34.5 -81.5t-81.5 -34.5q-40 0 -67.5 27t-27.5 67q0 48 33 81.5t80 33.5z" />
    <glyph glyph-name="IJ" unicode="&#x132;" horiz-adv-x="1477" vert-adv-y="2457" 
d="M37 0l285 1464h168l-285 -1464h-168zM1477 1464l-204 -1052q-41 -209 -160 -319.5t-304 -110.5q-191 0 -290 109q-84 92 -84 243q0 63 12 123l13 59h165l-10 -53q-14 -74 -14 -137q0 -209 209 -209q143 0 217 98q55 73 80 203l202 1046h168z" />
    <glyph glyph-name="ij" unicode="&#x133;" horiz-adv-x="814" vert-adv-y="2457" 
d="M449 1497q43 0 71 -26.5t28 -67.5q0 -50 -34.5 -84.5t-83.5 -34.5q-42 0 -69.5 27.5t-27.5 69.5q0 49 33.5 82.5t82.5 33.5zM90 0l209 1071h168l-209 -1071h-168zM786 1071l-236 -1206q-49 -254 -298 -254q-80 0 -146 41l55 127q52 -27 95 -27q104 0 126 115l236 1204
h168zM768 1497q43 0 71 -26.5t28 -67.5q0 -50 -34.5 -84.5t-83.5 -34.5q-42 0 -69.5 27.5t-27.5 69.5q0 49 33.5 82.5t82.5 33.5z" />
    <glyph glyph-name="Jcircumflex" unicode="&#x134;" horiz-adv-x="1102" vert-adv-y="2457" 
d="M1101 1464l-204 -1052q-41 -209 -160 -319.5t-304 -110.5q-191 0 -290 109q-84 92 -84 243q0 63 12 123l13 59h165l-10 -53q-14 -74 -14 -137q0 -209 209 -209q143 0 217 98q55 73 80 203l202 1046h168zM741 1604l260 331h146l135 -331h-111l-119 192l-196 -192h-115z
" />
    <glyph glyph-name="jcircumflex" unicode="&#x135;" horiz-adv-x="557" vert-adv-y="2457" 
d="M467 1071l-236 -1206q-49 -254 -298 -254q-80 0 -146 41l55 127q52 -27 95 -27q104 0 126 115l236 1204h168zM121 1210l260 332h146l135 -332h-111l-119 193l-196 -193h-115z" />
    <glyph glyph-name="Kcommaaccent" unicode="&#x136;" horiz-adv-x="1284" vert-adv-y="2457" 
d="M86 0l285 1464h168l-144 -737l774 739h197l-651 -614l393 -852h-178l-340 735l-236 -219l-100 -516h-168zM403 -496l16 82q113 24 138 117q-97 12 -97 96q0 46 30.5 76.5t76.5 30.5q50 0 79 -34t29 -93q0 -113 -70 -188q-69 -73 -202 -87z" />
    <glyph glyph-name="kcommaaccent" unicode="&#x137;" horiz-adv-x="1059" vert-adv-y="2457" 
d="M86 0l299 1542h168l-191 -979l494 508h199l-430 -428l274 -643h-176l-221 520l-183 -182l-65 -338h-168zM278 -496l16 82q113 24 138 117q-97 12 -97 96q0 46 30.5 76.5t76.5 30.5q50 0 79 -34t29 -93q0 -113 -70 -188q-69 -73 -202 -87z" />
    <glyph glyph-name="kgreenlandic" unicode="&#x138;" horiz-adv-x="1284" vert-adv-y="2457" 
d="M70 0l261 1072h180l-125 -509l673 511h223l-611 -458l363 -616h-192l-306 514l-197 -148l-89 -366h-180z" />
    <glyph glyph-name="Lacute" unicode="&#x139;" horiz-adv-x="1155" vert-adv-y="2457" 
d="M86 0l285 1464h168l-258 -1325h684l-27 -139h-852zM420 1604l160 331h221l-264 -331h-117z" />
    <glyph glyph-name="lacute" unicode="&#x13a;" horiz-adv-x="559" vert-adv-y="2457" 
d="M90 0l299 1542h170l-299 -1542h-170zM436 1634l160 332h221l-264 -332h-117z" />
    <glyph glyph-name="Lcommaaccent" unicode="&#x13b;" horiz-adv-x="1155" vert-adv-y="2457" 
d="M86 0l285 1464h168l-258 -1325h684l-27 -139h-852zM314 -496l16 82q113 24 138 117q-97 12 -97 96q0 46 30.5 76.5t76.5 30.5q50 0 79 -34t29 -93q0 -113 -70 -188q-69 -73 -202 -87z" />
    <glyph glyph-name="lcommaaccent" unicode="&#x13c;" horiz-adv-x="559" vert-adv-y="2457" 
d="M91 0l299 1542h170l-299 -1542h-170zM-32 -496l16 82q113 24 138 117q-97 12 -97 96q0 46 30.5 76.5t76.5 30.5q50 0 79 -34t29 -93q0 -113 -70 -188q-69 -73 -202 -87z" />
    <glyph glyph-name="Lcaron" unicode="&#x13d;" horiz-adv-x="1155" vert-adv-y="2457" 
d="M86 0l285 1464h168l-258 -1325h684l-27 -139h-852zM650 1153l16 82q113 24 138 117q-46 5 -71.5 30.5t-25.5 64.5q0 46 30.5 76.5t76.5 30.5q50 0 79 -34t29 -93q0 -113 -70 -187q-69 -74 -202 -87z" />
    <glyph glyph-name="lcaron" unicode="&#x13e;" horiz-adv-x="600" vert-adv-y="2457" 
d="M90 0l299 1542h170l-299 -1542h-170zM562 1153l16 82q113 24 138 117q-97 12 -97 96q0 46 30.5 76.5t76.5 30.5q50 0 79 -34t29 -93q0 -113 -70 -188q-69 -73 -202 -87z" />
    <glyph glyph-name="Ldot" unicode="&#x13f;" horiz-adv-x="1155" vert-adv-y="2457" 
d="M86 0l285 1464h168l-258 -1325h684l-27 -139h-852zM783 799q53 0 87.5 -34t34.5 -87q0 -58 -40 -97.5t-100 -39.5q-52 0 -87 34.5t-35 86.5q0 57 41 97t99 40z" />
    <glyph glyph-name="ldot" unicode="&#x140;" horiz-adv-x="606" vert-adv-y="2457" 
d="M90 0l299 1542h170l-299 -1542h-170zM654 799q53 0 87.5 -34t34.5 -87q0 -58 -40 -97.5t-100 -39.5q-52 0 -87 34.5t-35 86.5q0 57 41 97t99 40z" />
    <glyph glyph-name="Lslash" unicode="&#x141;" horiz-adv-x="1192" vert-adv-y="2457" 
d="M122 0l113 577l-174 -67l29 145l172 68l145 741h166l-131 -672l360 140l-26 -146l-363 -139l-98 -512h686l-27 -135h-852z" />
    <glyph glyph-name="lslash" unicode="&#x142;" horiz-adv-x="668" vert-adv-y="2457" 
d="M146 0l127 659l-205 -98l33 162l205 98l139 721h170l-123 -631l227 109l-33 -162l-225 -109l-145 -749h-170z" />
    <glyph glyph-name="Nacute" unicode="&#x143;" horiz-adv-x="1397" vert-adv-y="2457" 
d="M86 0l285 1464h186l430 -1249l242 1249h157l-284 -1464h-201l-420 1224l-237 -1224h-158zM812 1604l160 331h221l-264 -331h-117z" />
    <glyph glyph-name="nacute" unicode="&#x144;" horiz-adv-x="1184" vert-adv-y="2457" 
d="M86 0l209 1071h168l-30 -154q127 172 321 172q137 0 213.5 -79t76.5 -221q0 -54 -14 -125l-129 -664h-168l131 676q10 50 10 95q0 179 -175 179q-123 0 -208 -83.5t-114 -233.5l-123 -633h-168zM648 1210l160 332h221l-264 -332h-117z" />
    <glyph glyph-name="Ncommaaccent" unicode="&#x145;" horiz-adv-x="1397" vert-adv-y="2457" 
d="M86 0l285 1464h186l430 -1249l242 1249h157l-284 -1464h-201l-420 1224l-237 -1224h-158zM417 -496l16 82q113 24 138 117q-97 12 -97 96q0 46 30.5 76.5t76.5 30.5q50 0 79 -34t29 -93q0 -113 -70 -188q-69 -73 -202 -87z" />
    <glyph glyph-name="ncommaaccent" unicode="&#x146;" horiz-adv-x="1184" vert-adv-y="2457" 
d="M86 0l209 1071h168l-30 -154q127 172 321 172q137 0 213.5 -79t76.5 -221q0 -54 -14 -125l-129 -664h-168l131 676q10 50 10 95q0 179 -175 179q-123 0 -208 -83.5t-114 -233.5l-123 -633h-168zM292 -496l16 82q113 24 138 117q-97 12 -97 96q0 46 30.5 76.5t76.5 30.5
q50 0 79 -34t29 -93q0 -113 -70 -188q-69 -73 -202 -87z" />
    <glyph glyph-name="Ncaron" unicode="&#x147;" horiz-adv-x="1397" vert-adv-y="2457" 
d="M86 0l285 1464h186l430 -1249l242 1249h157l-284 -1464h-201l-420 1224l-237 -1224h-158zM835 1604l-135 331h111l118 -192l197 192h115l-260 -331h-146z" />
    <glyph glyph-name="ncaron" unicode="&#x148;" horiz-adv-x="1184" vert-adv-y="2457" 
d="M86 0l209 1071h168l-30 -154q127 172 321 172q137 0 213.5 -79t76.5 -221q0 -54 -14 -125l-129 -664h-168l131 676q10 50 10 95q0 179 -175 179q-123 0 -208 -83.5t-114 -233.5l-123 -633h-168zM652 1210l-135 332h111l118 -193l197 193h115l-260 -332h-146z" />
    <glyph glyph-name="napostrophe" unicode="&#x149;" horiz-adv-x="1184" vert-adv-y="2457" 
d="M86 0l209 1071h168l-29 -154q126 172 321 172q137 0 213.5 -79t76.5 -221q0 -51 -14 -125l-129 -664h-168l131 676q10 53 10 95q0 179 -175 179q-123 0 -208.5 -83.5t-114.5 -233.5l-123 -633h-168zM124 1288q-50 6 -79 35t-29 75q0 52 35.5 87t87.5 35q57 0 88.5 -37
t31.5 -104q0 -132 -81 -218q-80 -85 -230 -100l19 92q129 27 157 135z" />
    <glyph glyph-name="Eng" unicode="&#x14a;" horiz-adv-x="1184" vert-adv-y="2457" 
d="M489 1312q68 92 146 132.5t187 40.5q150 0 229 -88q70 -78 70 -213q0 -54 -12 -116l-255 -1286q-50 -254 -306 -254q-19 0 -32 3l36 139q8 -1 10 -1q101 0 124 115l255 1286q10 51 10 96q0 94 -44 136.5t-141 42.5q-118 0 -198 -65q-102 -84 -135 -253l-199 -1027h-168
l285 1466h168z" />
    <glyph glyph-name="eng" unicode="&#x14b;" horiz-adv-x="1184" vert-adv-y="2457" 
d="M433 917q127 172 321 172q137 0 213.5 -79t76.5 -220q0 -55 -12 -116l-155 -793q-50 -254 -306 -254q-21 0 -33 2l37 140q7 -1 10 -1q101 0 124 115l155 793q10 49 10 95q0 179 -175 179q-123 0 -208 -83.5t-114 -233.5l-123 -633h-168l209 1071h168z" />
    <glyph glyph-name="Omacron" unicode="&#x14c;" horiz-adv-x="1569" vert-adv-y="2457" 
d="M905 1482q244 0 399 -155q174 -173 174 -477q0 -281 -129 -506q-103 -181 -268 -275q-151 -87 -339 -87q-243 0 -400 155q-175 173 -175 481q0 223 86 418q79 181 220 295q185 151 432 151zM894 1343q-194 0 -330 -128q-113 -105 -172 -285q-49 -151 -49 -325
q0 -262 136 -387q107 -97 282 -97q185 0 318 127q112 106 171 288q49 153 49 325q0 264 -136 389q-102 93 -269 93zM694 1636l25 125h487l-25 -125h-487z" />
    <glyph glyph-name="omacron" unicode="&#x14d;" horiz-adv-x="1139" vert-adv-y="2457" 
d="M639 1089q189 0 297 -123q106 -120 106 -327q0 -151 -51.5 -289t-141.5 -228q-139 -140 -342 -140q-190 0 -302 125q-109 123 -109 334q0 127 39 246.5t110 208.5q154 193 394 193zM628 952q-182 0 -279 -172q-83 -147 -83 -352q0 -309 249 -309q172 0 264 165
q89 159 89 372q0 296 -240 296zM439 1339l25 125h487l-25 -125h-487z" />
    <glyph glyph-name="Obreve" unicode="&#x14e;" horiz-adv-x="1569" vert-adv-y="2457" 
d="M905 1482q244 0 399 -155q174 -173 174 -477q0 -281 -129 -506q-103 -181 -268 -275q-151 -87 -339 -87q-243 0 -400 155q-175 173 -175 481q0 223 86 418q79 181 220 295q185 151 432 151zM894 1343q-194 0 -330 -128q-113 -105 -172 -285q-49 -151 -49 -325
q0 -262 136 -387q107 -97 282 -97q185 0 318 127q112 106 171 288q49 153 49 325q0 264 -136 389q-102 93 -269 93zM798 1906h129q1 -75 17 -106q32 -60 128 -60q78 0 118.5 39t51.5 127h125q-18 -291 -295 -291q-90 0 -155 34t-94 95q-24 53 -25 162z" />
    <glyph glyph-name="obreve" unicode="&#x14f;" horiz-adv-x="1139" vert-adv-y="2457" 
d="M639 1089q189 0 297 -123q106 -120 106 -327q0 -151 -51.5 -289t-141.5 -228q-139 -140 -342 -140q-190 0 -302 125q-109 123 -109 334q0 127 39 246.5t110 208.5q154 193 394 193zM628 952q-182 0 -279 -172q-83 -147 -83 -352q0 -309 249 -309q172 0 264 165
q89 159 89 372q0 296 -240 296zM497 1536h129q1 -75 14 -106q28 -60 111 -60q131 0 149 166h125q-16 -291 -275 -291q-83 0 -144 34.5t-86 94.5q-22 54 -23 162z" />
    <glyph glyph-name="Ohungarumlaut" unicode="&#x150;" horiz-adv-x="1569" vert-adv-y="2457" 
d="M905 1482q244 0 399 -155q174 -173 174 -477q0 -281 -129 -506q-103 -181 -268 -275q-151 -87 -339 -87q-243 0 -400 155q-175 173 -175 481q0 223 86 418q79 181 220 295q185 151 432 151zM894 1343q-194 0 -330 -128q-113 -105 -172 -285q-49 -151 -49 -325
q0 -262 136 -387q107 -97 282 -97q185 0 318 127q112 106 171 288q49 153 49 325q0 264 -136 389q-102 93 -269 93zM723 1604l125 331h188l-207 -331h-106zM1012 1604l125 331h188l-207 -331h-106z" />
    <glyph glyph-name="ohungarumlaut" unicode="&#x151;" horiz-adv-x="1139" vert-adv-y="2457" 
d="M639 1089q189 0 297 -123q106 -120 106 -327q0 -151 -51.5 -289t-141.5 -228q-139 -140 -342 -140q-190 0 -302 125q-109 123 -109 334q0 127 39 246.5t110 208.5q154 193 394 193zM628 952q-182 0 -279 -172q-83 -147 -83 -352q0 -309 249 -309q172 0 264 165
q89 159 89 372q0 296 -240 296zM462 1210l125 332h188l-207 -332h-106zM751 1210l125 332h188l-207 -332h-106z" />
    <glyph glyph-name="Racute" unicode="&#x154;" horiz-adv-x="1313" vert-adv-y="2457" 
d="M86 0l285 1464h411q165 0 258 -37q205 -81 205 -317q0 -170 -95 -275q-46 -51 -104.5 -80t-160.5 -52q115 -42 156 -120q24 -43 30.5 -88.5t9.5 -171.5q6 -238 47 -313l-2 -10h-168q-36 101 -38 301q-2 134 -15 191t-51 96q-62 64 -216 64h-260l-126 -652h-166zM405 791
h295q168 0 253 50q128 74 128 259q0 118 -69 171.5t-223 53.5h-279zM704 1604l160 331h221l-264 -331h-117z" />
    <glyph glyph-name="racute" unicode="&#x155;" horiz-adv-x="846" vert-adv-y="2457" 
d="M86 0l209 1071h168l-35 -172q115 190 290 190q83 0 156 -43l-69 -139q-57 33 -111 33q-121 0 -207 -93.5t-118 -258.5l-115 -588h-168zM491 1210l160 332h221l-264 -332h-117z" />
    <glyph glyph-name="Rcommaaccent" unicode="&#x156;" horiz-adv-x="1313" vert-adv-y="2457" 
d="M86 0l285 1464h411q165 0 258 -37q205 -81 205 -317q0 -170 -95 -275q-46 -51 -104.5 -80t-160.5 -52q115 -42 156 -120q24 -43 30.5 -88.5t9.5 -171.5q6 -238 47 -313l-2 -10h-168q-36 101 -38 301q-2 134 -15 191t-51 96q-62 64 -216 64h-260l-126 -652h-166zM405 791
h295q168 0 253 50q128 74 128 259q0 118 -69 171.5t-223 53.5h-279zM411 -496l16 82q113 24 138 117q-97 12 -97 96q0 46 30.5 76.5t76.5 30.5q50 0 79 -34t29 -93q0 -113 -70 -188q-69 -73 -202 -87z" />
    <glyph glyph-name="rcommaaccent" unicode="&#x157;" horiz-adv-x="846" vert-adv-y="2457" 
d="M86 0l209 1071h168l-35 -172q115 190 290 190q83 0 156 -43l-69 -139q-57 33 -111 33q-121 0 -207 -93.5t-118 -258.5l-115 -588h-168zM-28 -496l16 82q113 24 138 117q-97 12 -97 96q0 46 30.5 76.5t76.5 30.5q50 0 79 -34t29 -93q0 -113 -70 -188q-69 -73 -202 -87z
" />
    <glyph glyph-name="Rcaron" unicode="&#x158;" horiz-adv-x="1313" vert-adv-y="2457" 
d="M86 0l285 1464h411q165 0 258 -37q205 -81 205 -317q0 -170 -95 -275q-46 -51 -104.5 -80t-160.5 -52q115 -42 156 -120q24 -43 30.5 -88.5t9.5 -171.5q6 -238 47 -313l-2 -10h-168q-36 101 -38 301q-2 134 -15 191t-51 96q-62 64 -216 64h-260l-126 -652h-166zM405 791
h295q168 0 253 50q128 74 128 259q0 118 -69 171.5t-223 53.5h-279zM738 1604l-135 331h111l118 -192l197 192h115l-260 -331h-146z" />
    <glyph glyph-name="rcaron" unicode="&#x159;" horiz-adv-x="846" vert-adv-y="2457" 
d="M86 0l209 1071h168l-35 -172q115 190 290 190q83 0 156 -43l-69 -139q-57 33 -111 33q-121 0 -207 -93.5t-118 -258.5l-115 -588h-168zM516 1210l-135 332h111l118 -193l197 193h115l-260 -332h-146z" />
    <glyph glyph-name="Sacute" unicode="&#x15a;" horiz-adv-x="1231" vert-adv-y="2457" 
d="M1015 1102q-31 98 -75 148q-83 95 -240 95q-138 0 -216.5 -65t-78.5 -179q0 -97 55.5 -148.5t231.5 -117.5q190 -70 270 -137q123 -102 123 -272q0 -177 -118 -298q-143 -146 -393 -146q-451 0 -531 421l163 31q27 -135 84 -201q97 -114 282 -114q183 0 275 99
q70 76 70 193q0 97 -59.5 154.5t-227.5 120.5q-186 70 -265 133q-120 97 -120 261q0 199 150 311q122 91 304 91q373 0 472 -342zM675 1604l160 331h221l-264 -331h-117z" />
    <glyph glyph-name="sacute" unicode="&#x15b;" horiz-adv-x="991" vert-adv-y="2457" 
d="M783 801q-91 151 -245 151q-87 0 -136 -38.5t-49 -106.5q0 -61 37.5 -99.5t144.5 -86.5q154 -70 205 -111q100 -80 100 -209q0 -142 -110.5 -230.5t-288.5 -88.5q-287 0 -416 235l139 82q56 -99 121.5 -139.5t167.5 -40.5q89 0 144 31q75 42 75 130q0 73 -65 120
q-33 24 -150 77q-123 57 -185 114q-83 78 -83 200q0 163 139 242q98 56 229 56q228 0 357 -194zM504 1210l160 332h221l-264 -332h-117z" />
    <glyph glyph-name="Scircumflex" unicode="&#x15c;" horiz-adv-x="1231" vert-adv-y="2457" 
d="M1015 1102q-31 98 -75 148q-83 95 -240 95q-138 0 -216.5 -65t-78.5 -179q0 -97 55.5 -148.5t231.5 -117.5q190 -70 270 -137q123 -102 123 -272q0 -177 -118 -298q-143 -146 -393 -146q-451 0 -531 421l163 31q27 -135 84 -201q97 -114 282 -114q183 0 275 99
q70 76 70 193q0 97 -59.5 154.5t-227.5 120.5q-186 70 -265 133q-120 97 -120 261q0 199 150 311q122 91 304 91q373 0 472 -342zM486 1604l260 331h146l135 -331h-111l-119 192l-196 -192h-115z" />
    <glyph glyph-name="scircumflex" unicode="&#x15d;" horiz-adv-x="991" vert-adv-y="2457" 
d="M783 801q-91 151 -245 151q-87 0 -136 -38.5t-49 -106.5q0 -61 37.5 -99.5t144.5 -86.5q154 -70 205 -111q100 -80 100 -209q0 -142 -110.5 -230.5t-288.5 -88.5q-287 0 -416 235l139 82q56 -99 121.5 -139.5t167.5 -40.5q89 0 144 31q75 42 75 130q0 73 -65 120
q-33 24 -150 77q-123 57 -185 114q-83 78 -83 200q0 163 139 242q98 56 229 56q228 0 357 -194zM326 1210l260 332h146l135 -332h-111l-119 193l-196 -193h-115z" />
    <glyph glyph-name="Scedilla" unicode="&#x15e;" horiz-adv-x="1231" vert-adv-y="2457" 
d="M575 -19l-92 -106q30 9 49 9q60 0 96.5 -40t36.5 -104q0 -73 -48 -120q-60 -59 -165 -59q-114 0 -188 84l79 68q43 -58 116 -58q87 0 87 82q0 68 -67 68q-36 0 -66 -31l-63 58l135 154q-183 23 -292 123q-117 109 -150 294l163 31q27 -135 84 -202q97 -114 282 -114
q183 0 275 100q70 75 70 192q0 98 -59.5 155t-227.5 120q-187 71 -265 133q-120 97 -120 262q0 199 150 311q122 91 304 91q372 0 472 -342l-156 -38q-31 98 -75 148q-83 95 -240 95q-138 0 -216.5 -65t-78.5 -179q0 -97 55.5 -149t231.5 -117q190 -71 270 -137
q123 -102 123 -272q0 -198 -141 -320.5t-369 -124.5z" />
    <glyph glyph-name="scedilla" unicode="&#x15f;" horiz-adv-x="991" vert-adv-y="2457" 
d="M462 -18l-92 -107q29 9 49 9q60 0 96.5 -40t36.5 -104q0 -72 -48 -119q-60 -59 -165 -59q-114 0 -189 84l80 67q43 -57 116 -57q87 0 87 82q0 67 -67 67q-36 0 -66 -30l-64 57l135 153q-233 25 -346 232l139 82q56 -99 121.5 -139.5t167.5 -40.5q89 0 144 31
q75 42 75 130q0 73 -65 120q-33 24 -150 77q-123 57 -185 114q-83 78 -83 200q0 163 139 242q98 56 229 56q228 0 357 -194l-131 -94q-91 151 -245 151q-87 0 -136 -38.5t-49 -106.5q0 -61 37.5 -99.5t144.5 -87.5q155 -70 205 -111q100 -79 100 -208q0 -138 -103 -225.5
t-275 -93.5z" />
    <glyph glyph-name="Scaron" unicode="&#x160;" horiz-adv-x="1231" vert-adv-y="2457" 
d="M1015 1102q-31 98 -75 148q-83 95 -240 95q-138 0 -216.5 -65t-78.5 -179q0 -97 55.5 -148.5t231.5 -117.5q190 -70 270 -137q123 -102 123 -272q0 -177 -118 -298q-143 -146 -393 -146q-451 0 -531 421l163 31q27 -135 84 -201q97 -114 282 -114q183 0 275 99
q70 76 70 193q0 97 -59.5 154.5t-227.5 120.5q-186 70 -265 133q-120 97 -120 261q0 199 150 311q122 91 304 91q373 0 472 -342zM685 1604l-135 331h111l118 -192l197 192h115l-260 -331h-146z" />
    <glyph glyph-name="scaron" unicode="&#x161;" horiz-adv-x="991" vert-adv-y="2457" 
d="M783 801q-91 151 -245 151q-87 0 -136 -38.5t-49 -106.5q0 -61 37.5 -99.5t144.5 -86.5q154 -70 205 -111q100 -80 100 -209q0 -142 -110.5 -230.5t-288.5 -88.5q-287 0 -416 235l139 82q56 -99 121.5 -139.5t167.5 -40.5q89 0 144 31q75 42 75 130q0 73 -65 120
q-33 24 -150 77q-123 57 -185 114q-83 78 -83 200q0 163 139 242q98 56 229 56q228 0 357 -194zM538 1210l-135 332h111l118 -193l197 193h115l-260 -332h-146z" />
    <glyph glyph-name="Tcommaaccent" unicode="&#x162;" horiz-adv-x="1241" vert-adv-y="2457" 
d="M434 0l257 1325h-446l27 139h1057l-27 -139h-447l-257 -1325h-164zM321 -496l16 82q113 24 138 117q-97 12 -97 96q0 46 30.5 76.5t76.5 30.5q50 0 79 -34t29 -93q0 -113 -70 -188q-69 -73 -202 -87z" />
    <glyph glyph-name="tcommaaccent" unicode="&#x163;" horiz-adv-x="754" vert-adv-y="2457" 
d="M645 51q-112 -69 -235 -69q-109 0 -171.5 62.5t-62.5 172.5q0 36 9 81l122 636h-158l27 137h157l56 278l174 41l-62 -319h246l-27 -137h-245l-123 -631q-8 -41 -8 -70q0 -108 103 -108q65 0 140 43zM143 -496l16 82q113 24 138 117q-97 12 -97 96q0 46 30.5 76.5
t76.5 30.5q50 0 79 -34t29 -93q0 -113 -70 -188q-69 -73 -202 -87z" />
    <glyph glyph-name="Tcaron" unicode="&#x164;" horiz-adv-x="1241" vert-adv-y="2457" 
d="M434 0l257 1325h-446l27 139h1057l-27 -139h-447l-257 -1325h-164zM739 1604l-135 331h111l118 -192l197 192h115l-260 -331h-146z" />
    <glyph glyph-name="tcaron" unicode="&#x165;" horiz-adv-x="754" vert-adv-y="2457" 
d="M646 51q-112 -69 -235 -69q-109 0 -171.5 62.5t-62.5 172.5q0 36 9 81l122 636h-158l27 137h157l56 278l174 41l-62 -319h246l-27 -137h-245l-123 -631q-8 -41 -8 -70q0 -108 103 -108q65 0 140 43zM679 1177l16 82q113 24 138 117q-97 12 -97 96q0 46 30.5 76.5
t76.5 30.5q50 0 79 -34t29 -93q0 -113 -70 -188q-69 -73 -202 -87z" />
    <glyph glyph-name="Tbar" unicode="&#x166;" horiz-adv-x="1241" vert-adv-y="2457" 
d="M549 591h-246l28 154h248l112 580h-446l27 139h1057l-27 -139h-447l-112 -580h242l-28 -154h-244l-115 -591h-164z" />
    <glyph glyph-name="tbar" unicode="&#x167;" horiz-adv-x="753" vert-adv-y="2457" 
d="M256 663h-153l26 137h153l26 134h-158l26 137h158l55 278l175 41l-62 -319h246l-27 -137h-246l-25 -134h251l-27 -137h-251l-70 -360q-9 -46 -9 -70q0 -108 103 -108q66 0 141 43l57 -117q-111 -69 -234 -69q-110 0 -172.5 62.5t-62.5 172.5q0 31 9 81z" />
    <glyph glyph-name="Utilde" unicode="&#x168;" horiz-adv-x="1411" vert-adv-y="2457" 
d="M1407 1464l-188 -966q-42 -217 -128 -328q-146 -188 -432 -188q-257 0 -382 138q-101 111 -101 301q0 76 28 222l160 821h168l-165 -847q-25 -128 -25 -199q0 -151 82 -224q79 -71 246 -71q174 0 264 90t132 306l183 945h158zM816 1616l-106 12q47 221 191 221
q56 0 154 -59q65 -39 94 -39q61 0 85 102l105 -12q-20 -96 -59 -148q-55 -73 -133 -73q-58 0 -153 59q-64 39 -92 39q-62 0 -86 -102z" />
    <glyph glyph-name="utilde" unicode="&#x169;" horiz-adv-x="1161" vert-adv-y="2457" 
d="M729 158q-127 -176 -312 -176q-131 0 -204.5 79t-73.5 220q0 53 14 127l129 663h168l-131 -676q-12 -63 -12 -107q0 -167 161 -167q120 0 203.5 84t112.5 233l123 633h168l-209 -1071h-168zM564 1271l-106 12q47 221 191 221q57 0 154 -59q65 -39 94 -39q61 0 85 102
l105 -12q-20 -96 -60 -148q-54 -73 -132 -73q-58 0 -153 59q-64 39 -93 39q-60 0 -85 -102z" />
    <glyph glyph-name="Umacron" unicode="&#x16a;" horiz-adv-x="1411" vert-adv-y="2457" 
d="M1407 1464l-188 -966q-42 -217 -128 -328q-146 -188 -432 -188q-257 0 -382 138q-101 111 -101 301q0 76 28 222l160 821h168l-165 -847q-25 -128 -25 -199q0 -151 82 -224q79 -71 246 -71q174 0 264 90t132 306l183 945h158zM663 1636l25 125h487l-25 -125h-487z" />
    <glyph glyph-name="umacron" unicode="&#x16b;" horiz-adv-x="1161" vert-adv-y="2457" 
d="M729 158q-127 -176 -312 -176q-131 0 -204.5 79t-73.5 220q0 53 14 127l129 663h168l-131 -676q-12 -63 -12 -107q0 -167 161 -167q120 0 203.5 84t112.5 233l123 633h168l-209 -1071h-168zM462 1339l25 125h487l-25 -125h-487z" />
    <glyph glyph-name="Ubreve" unicode="&#x16c;" horiz-adv-x="1411" vert-adv-y="2457" 
d="M1407 1464l-188 -966q-42 -217 -128 -328q-146 -188 -432 -188q-257 0 -382 138q-101 111 -101 301q0 76 28 222l160 821h168l-165 -847q-25 -128 -25 -199q0 -151 82 -224q79 -71 246 -71q174 0 264 90t132 306l183 945h158zM1206 1878q-26 -128 -103 -194
q-79 -68 -185 -68q-131 0 -198 98q-42 61 -42 164h129q6 -137 120 -137q57 0 93 32t61 105h125z" />
    <glyph glyph-name="ubreve" unicode="&#x16d;" horiz-adv-x="1161" vert-adv-y="2457" 
d="M729 158q-127 -176 -312 -176q-131 0 -204.5 79t-73.5 220q0 53 14 127l129 663h168l-131 -676q-12 -63 -12 -107q0 -167 161 -167q120 0 203.5 84t112.5 233l123 633h168l-209 -1071h-168zM994 1524q-26 -128 -103 -194q-78 -68 -185 -68q-131 0 -198 98q-42 61 -42 164
h129q6 -137 120 -137q57 0 93 32t61 105h125z" />
    <glyph glyph-name="Uring" unicode="&#x16e;" horiz-adv-x="1411" vert-adv-y="2457" 
d="M1407 1464l-188 -966q-42 -217 -128 -328q-146 -188 -432 -188q-257 0 -382 138q-101 111 -101 301q0 76 28 222l160 821h168l-165 -847q-25 -128 -25 -199q0 -151 82 -224q79 -71 246 -71q174 0 264 90t132 306l183 945h158zM967 2015q84 0 139 -55t55 -139
q0 -96 -66 -164t-160 -68q-82 0 -137 56t-55 141q0 93 66 161t158 68zM962 1923q-50 0 -82.5 -38t-32.5 -97q0 -49 25.5 -78t68.5 -29q50 0 84 39t34 97q0 47 -26.5 76.5t-70.5 29.5z" />
    <glyph glyph-name="uring" unicode="&#x16f;" horiz-adv-x="1161" vert-adv-y="2457" 
d="M729 158q-127 -176 -312 -176q-131 0 -204.5 79t-73.5 220q0 53 14 127l129 663h168l-131 -676q-12 -63 -12 -107q0 -167 161 -167q120 0 203.5 84t112.5 233l123 633h168l-209 -1071h-168zM736 1595q84 0 139 -55t55 -139q0 -96 -66 -164t-160 -68q-83 0 -137.5 56.5
t-54.5 140.5q0 93 66.5 161t157.5 68zM731 1503q-50 0 -82.5 -38t-32.5 -97q0 -49 25.5 -78t68.5 -29q50 0 84 39t34 96q0 48 -26.5 77.5t-70.5 29.5z" />
    <glyph glyph-name="Uhungarumlaut" unicode="&#x170;" horiz-adv-x="1411" vert-adv-y="2457" 
d="M1407 1464l-188 -966q-42 -217 -128 -328q-146 -188 -432 -188q-257 0 -382 138q-101 111 -101 301q0 76 28 222l160 821h168l-165 -847q-25 -128 -25 -199q0 -151 82 -224q79 -71 246 -71q174 0 264 90t132 306l183 945h158zM699 1604l125 331h188l-207 -331h-106z
M988 1604l125 331h188l-207 -331h-106z" />
    <glyph glyph-name="uhungarumlaut" unicode="&#x171;" horiz-adv-x="1161" vert-adv-y="2457" 
d="M729 158q-127 -176 -312 -176q-131 0 -204.5 79t-73.5 220q0 53 14 127l129 663h168l-131 -676q-12 -63 -12 -107q0 -167 161 -167q120 0 203.5 84t112.5 233l123 633h168l-209 -1071h-168zM492 1210l125 332h188l-207 -332h-106zM781 1210l125 332h188l-207 -332h-106z
" />
    <glyph glyph-name="Uogonek" unicode="&#x172;" horiz-adv-x="1411" vert-adv-y="2457" 
d="M740 -15q-196 -125 -196 -253q0 -77 73 -77q61 0 114 52l57 -70q-80 -76 -188 -76q-85 0 -134 42.5t-49 117.5q0 149 192 262q-145 9 -246 66q-187 107 -187 372q0 76 28 222l160 821h168l-165 -847q-25 -128 -25 -199q0 -151 82 -224q79 -71 246 -71q174 0 264 90
t132 306l183 945h158l-188 -966q-80 -471 -479 -513z" />
    <glyph glyph-name="uogonek" unicode="&#x173;" horiz-adv-x="1161" vert-adv-y="2457" 
d="M790 -293l58 -69q-80 -76 -188 -76q-85 0 -134 42.5t-49 116.5q0 159 221 279l31 158q-127 -176 -312 -176q-131 0 -204.5 79t-73.5 220q0 53 14 127l129 663h168l-131 -676q-12 -63 -12 -107q0 -167 161 -167q120 0 203.5 84t112.5 233l123 633h168l-204 -1045
q-267 -149 -267 -293q0 -77 73 -77q61 0 113 51z" />
    <glyph glyph-name="Wcircumflex" unicode="&#x174;" horiz-adv-x="1884" vert-adv-y="2457" 
d="M340 0l-102 1464h168l63 -1167l586 1167h133l125 -1171l531 1171h163l-671 -1464h-137l-127 1179l-598 -1179h-134zM849 1604l260 331h146l135 -331h-111l-119 192l-196 -192h-115z" />
    <glyph glyph-name="wcircumflex" unicode="&#x175;" horiz-adv-x="1585" vert-adv-y="2457" 
d="M261 0l-104 1071h172l64 -876l399 876h180l84 -876l404 876h176l-527 -1071h-186l-80 864l-397 -864h-185zM757 1210l260 332h146l135 -332h-111l-119 193l-196 -193h-115z" />
    <glyph glyph-name="Ycircumflex" unicode="&#x176;" horiz-adv-x="1143" vert-adv-y="2457" 
d="M398 0l118 616l-319 848h178l250 -702l500 702h182l-627 -858l-116 -606h-166zM491 1604l260 331h146l135 -331h-111l-119 192l-196 -192h-115z" />
    <glyph glyph-name="ycircumflex" unicode="&#x177;" horiz-adv-x="940" vert-adv-y="2457" 
d="M1023 1071l-670 -1251q-58 -110 -126.5 -157.5t-167.5 -47.5q-110 0 -193 72l80 114q51 -53 118 -53q103 0 164 127l72 147l-176 1049h174l129 -821l416 821h180zM306 1210l260 332h146l135 -332h-111l-119 193l-196 -193h-115z" />
    <glyph glyph-name="Zacute" unicode="&#x179;" horiz-adv-x="1206" vert-adv-y="2457" 
d="M10 0l29 147l1021 1178h-750l28 139h925l-32 -164l-998 -1161h764l-26 -139h-961zM711 1604l160 331h221l-264 -331h-117z" />
    <glyph glyph-name="zacute" unicode="&#x17a;" horiz-adv-x="934" vert-adv-y="2457" 
d="M-23 0l27 139l731 795h-541l27 137h717l-33 -170l-700 -764h561l-25 -137h-764zM516 1210l160 332h221l-264 -332h-117z" />
    <glyph glyph-name="Zdotaccent" unicode="&#x17b;" horiz-adv-x="1206" vert-adv-y="2457" 
d="M10 0l29 147l1021 1178h-750l28 139h925l-32 -164l-998 -1161h764l-26 -139h-961zM841 1825q43 0 70.5 -26.5t27.5 -66.5q0 -47 -34.5 -81.5t-81.5 -34.5q-40 0 -67.5 27t-27.5 67q0 48 33 81.5t80 33.5z" />
    <glyph glyph-name="zdotaccent" unicode="&#x17c;" horiz-adv-x="934" vert-adv-y="2457" 
d="M-23 0l27 139l731 795h-541l27 137h717l-33 -170l-700 -764h561l-25 -137h-764zM622 1495q43 0 70.5 -26t27.5 -67q0 -47 -34.5 -81.5t-81.5 -34.5q-40 0 -67.5 27t-27.5 67q0 48 33.5 81.5t79.5 33.5z" />
    <glyph glyph-name="Zcaron" unicode="&#x17d;" horiz-adv-x="1206" vert-adv-y="2457" 
d="M10 0l29 147l1021 1178h-750l28 139h925l-32 -164l-998 -1161h764l-26 -139h-961zM739 1604l-135 331h111l118 -192l197 192h115l-260 -331h-146z" />
    <glyph glyph-name="zcaron" unicode="&#x17e;" horiz-adv-x="934" vert-adv-y="2457" 
d="M-23 0l27 139l731 795h-541l27 137h717l-33 -170l-700 -764h561l-25 -137h-764zM527 1210l-135 332h111l118 -193l197 193h115l-260 -332h-146z" />
    <glyph glyph-name="uni018F" unicode="&#x18f;" horiz-adv-x="1573" vert-adv-y="2457" 
d="M256 1042q74 152 166 242q201 198 487 198q244 0 399 -155q174 -173 174 -477q0 -280 -129 -506q-104 -181 -268 -275q-151 -87 -334 -87q-250 0 -408 155q-85 84 -131 204q-46 123 -46 250q0 78 19 216h1117q2 21 2 48q0 270 -137 394q-103 94 -269 94q-226 0 -372 -167
q-53 -60 -108 -182zM1287 668h-940q-2 -44 -2 -67q0 -258 137 -383q106 -97 275 -97q222 0 365 168q121 142 165 379z" />
    <glyph glyph-name="Ohorn" unicode="&#x1a0;" horiz-adv-x="1569" vert-adv-y="2457" 
d="M1273 1356q165 27 202 134q-96 12 -96 95q0 46 30.5 76.5t76.5 30.5q50 0 79 -34t29 -93q0 -115 -68 -191t-183 -90q135 -171 135 -434q0 -280 -129 -506q-103 -181 -268 -275q-151 -87 -333 -87q-249 0 -406 155q-175 173 -175 481q0 223 86 418q79 181 220 295
q184 151 432 151q219 0 368 -126zM894 1343q-194 0 -330 -128q-113 -105 -172 -285q-49 -151 -49 -325q0 -262 136 -387q107 -97 282 -97q185 0 318 127q112 106 171 288q49 153 49 325q0 264 -136 389q-102 93 -269 93z" />
    <glyph glyph-name="ohorn" unicode="&#x1a1;" horiz-adv-x="1139" vert-adv-y="2457" 
d="M914 990q119 25 148 119q-45 6 -70.5 31.5t-25.5 64.5q0 46 30.5 76.5t76.5 30.5q50 0 79 -34t29 -93q0 -100 -57 -172.5t-152 -92.5q70 -108 70 -280q0 -152 -51.5 -290t-141.5 -228q-139 -140 -338 -140q-194 0 -306 125q-109 123 -109 334q0 267 149 455
q154 193 395 193q167 0 274 -99zM628 952q-182 0 -279 -172q-83 -147 -83 -352q0 -309 249 -309q172 0 264 165q89 159 89 372q0 296 -240 296z" />
    <glyph glyph-name="Uhorn" unicode="&#x1af;" horiz-adv-x="1411" vert-adv-y="2457" 
d="M1390 1378q92 26 114 112q-96 12 -96 95q0 46 30.5 76.5t76.5 30.5q50 0 79 -34t29 -93q0 -111 -67.5 -184.5t-181.5 -86.5l-155 -796q-42 -217 -128 -328q-146 -188 -432 -188q-257 0 -382 138q-101 111 -101 301q0 76 28 222l160 821h168l-165 -847q-25 -128 -25 -199
q0 -151 82 -224q79 -71 246 -71q174 0 264 90t132 306l183 945h158z" />
    <glyph glyph-name="uhorn" unicode="&#x1b0;" horiz-adv-x="1161" vert-adv-y="2457" 
d="M1061 998q89 26 112 111q-97 12 -97 96q0 46 30.5 76.5t76.5 30.5q50 0 79 -34t29 -93q0 -110 -68 -185t-179 -86l-178 -914h-168l31 158q-127 -176 -312 -176q-131 0 -204.5 79t-73.5 220q0 53 14 127l129 663h168l-131 -676q-12 -63 -12 -107q0 -167 161 -167
q120 0 203.5 84t112.5 233l123 633h168z" />
    <glyph glyph-name="uni01CD" unicode="&#x1cd;" horiz-adv-x="1257" vert-adv-y="2457" 
d="M294 371l-194 -371h-168l791 1466h163l230 -1466h-164l-55 371h-603zM365 506h512l-114 761zM741 1604l-135 331h111l118 -192l197 192h115l-260 -331h-146z" />
    <glyph glyph-name="uni01CE" unicode="&#x1ce;" horiz-adv-x="1075" vert-adv-y="2457" 
d="M659 143q-136 -161 -308 -161q-134 0 -218 79.5t-84 205.5q0 132 80.5 213.5t251.5 121.5q117 28 362 37l13 67q8 47 8 74q0 168 -181 168q-161 0 -315 -123l-80 109q183 155 415 155q168 0 253 -83q76 -73 76 -196q0 -49 -11 -104l-92 -477q-3 -17 -3 -32q0 -71 102 -74
l-27 -131q-31 -3 -45 -3q-172 0 -197 154zM719 520q-195 -6 -301 -34q-199 -54 -199 -214q0 -155 180 -155q111 0 190 64.5t99 172.5zM561 1210l-135 332h111l118 -193l197 193h115l-260 -332h-146z" />
    <glyph glyph-name="uni01CF" unicode="&#x1cf;" horiz-adv-x="582" vert-adv-y="2457" 
d="M102 0l285 1464h168l-285 -1464h-168zM465 1604l-135 331h110l119 -192l197 192h114l-260 -331h-145z" />
    <glyph glyph-name="uni01D0" unicode="&#x1d0;" horiz-adv-x="557" vert-adv-y="2457" 
d="M90 0l209 1071h168l-209 -1071h-168zM339 1210l-136 332h111l119 -193l196 193h115l-260 -332h-145z" />
    <glyph glyph-name="uni01D1" unicode="&#x1d1;" horiz-adv-x="1569" vert-adv-y="2457" 
d="M905 1482q244 0 399 -155q174 -173 174 -477q0 -281 -129 -506q-103 -181 -268 -275q-151 -87 -339 -87q-243 0 -400 155q-175 173 -175 481q0 223 86 418q79 181 220 295q185 151 432 151zM894 1343q-194 0 -330 -128q-113 -105 -172 -285q-49 -151 -49 -325
q0 -262 136 -387q107 -97 282 -97q185 0 318 127q112 106 171 288q49 153 49 325q0 264 -136 389q-102 93 -269 93zM959 1604l-135 331h110l119 -192l197 192h114l-260 -331h-145z" />
    <glyph glyph-name="uni01D2" unicode="&#x1d2;" horiz-adv-x="1139" vert-adv-y="2457" 
d="M639 1089q189 0 297 -123q106 -120 106 -327q0 -151 -51.5 -289t-141.5 -228q-139 -140 -342 -140q-190 0 -302 125q-109 123 -109 334q0 127 39 246.5t110 208.5q154 193 394 193zM628 952q-182 0 -279 -172q-83 -147 -83 -352q0 -309 249 -309q172 0 264 165
q89 159 89 372q0 296 -240 296zM629 1210l-135 332h111l118 -193l197 193h115l-260 -332h-146z" />
    <glyph glyph-name="uni01D3" unicode="&#x1d3;" horiz-adv-x="1411" vert-adv-y="2457" 
d="M1407 1464l-188 -966q-42 -217 -128 -328q-146 -188 -432 -188q-257 0 -382 138q-101 111 -101 301q0 76 28 222l160 821h168l-165 -847q-25 -128 -25 -199q0 -151 82 -224q79 -71 246 -71q174 0 264 90t132 306l183 945h158zM842 1604l-135 331h111l118 -192l197 192
h115l-260 -331h-146z" />
    <glyph glyph-name="uni01D4" unicode="&#x1d4;" horiz-adv-x="1161" vert-adv-y="2457" 
d="M729 158q-127 -176 -312 -176q-131 0 -204.5 79t-73.5 220q0 53 14 127l129 663h168l-131 -676q-12 -63 -12 -107q0 -167 161 -167q120 0 203.5 84t112.5 233l123 633h168l-209 -1071h-168zM667 1210l-135 332h111l118 -193l197 193h115l-260 -332h-146z" />
    <glyph glyph-name="uni01DD" unicode="&#x1dd;" horiz-adv-x="1069" vert-adv-y="2457" 
d="M194 872q165 217 414 217q190 0 296 -117q103 -114 103 -314q0 -277 -169 -476q-169 -200 -417 -200q-166 0 -255 96q-74 78 -74 199q0 172 181 256t560 87q2 26 2 50q0 280 -238 280q-170 0 -286 -156zM817 489q-297 0 -425 -48.5t-128 -160.5q0 -76 45 -117.5
t128 -41.5q144 0 239.5 93t140.5 275z" />
    <glyph glyph-name="Gcaron" unicode="&#x1e6;" horiz-adv-x="1530" vert-adv-y="2457" 
d="M1165 256q-175 -274 -471 -274q-206 0 -341 124q-181 165 -181 494q0 232 88 431q87 197 243 315q178 136 414 136q276 0 404 -189q33 -49 52 -102t38 -153l-154 -40q-26 129 -69 206q-78 139 -281 139q-259 0 -415 -218q-150 -208 -150 -521q0 -199 70 -321
q92 -162 307 -162q184 0 311.5 120.5t175.5 338.5l8 37h-368l26 139h531l-148 -756h-100zM859 1604l-135 331h111l118 -192l197 192h115l-260 -331h-146z" />
    <glyph glyph-name="gcaron" unicode="&#x1e7;" horiz-adv-x="1122" vert-adv-y="2457" 
d="M363 434q-75 -49 -75 -111q0 -83 118 -83h213q181 0 270 -93q66 -69 66 -177q0 -221 -229 -316q-126 -53 -304 -53q-192 0 -309 66q-131 75 -131 214q0 163 229 246q-84 56 -84 152q0 125 152 211q-102 97 -102 224q0 178 155 290q118 85 276 85q107 0 199 -47l330 45
l-29 -149h-180q58 -84 58 -179q0 -180 -146 -285q-114 -83 -274 -83q-107 0 -203 43zM320 92q-160 -74 -160 -194q0 -160 282 -160q154 0 241 50q92 53 92 161q0 139 -175 139h-219q-39 0 -61 4zM596 960q-113 0 -182 -69q-67 -67 -67 -172q0 -93 60 -146t164 -53
q116 0 180.5 63t64.5 175q0 94 -59 148t-161 54zM582 1210l-135 332h111l118 -193l197 193h115l-260 -332h-146z" />
    <glyph glyph-name="uni01F4" unicode="&#x1f4;" horiz-adv-x="1530" vert-adv-y="2457" 
d="M1165 256q-175 -274 -471 -274q-206 0 -341 124q-181 165 -181 494q0 232 88 431q87 197 243 315q178 136 414 136q276 0 404 -189q33 -49 52 -102t38 -153l-154 -40q-26 129 -69 206q-78 139 -281 139q-259 0 -415 -218q-150 -208 -150 -521q0 -199 70 -321
q92 -162 307 -162q184 0 311.5 120.5t175.5 338.5l8 37h-368l26 139h531l-148 -756h-100zM855 1604l160 331h221l-264 -331h-117z" />
    <glyph glyph-name="uni01F5" unicode="&#x1f5;" horiz-adv-x="1122" vert-adv-y="2457" 
d="M363 434q-75 -49 -75 -111q0 -83 118 -83h213q181 0 270 -93q66 -69 66 -177q0 -221 -229 -316q-126 -53 -304 -53q-192 0 -309 66q-131 75 -131 214q0 163 229 246q-84 56 -84 152q0 125 152 211q-102 97 -102 224q0 178 155 290q118 85 276 85q107 0 199 -47l330 45
l-29 -149h-180q58 -84 58 -179q0 -180 -146 -285q-114 -83 -274 -83q-107 0 -203 43zM320 92q-160 -74 -160 -194q0 -160 282 -160q154 0 241 50q92 53 92 161q0 139 -175 139h-219q-39 0 -61 4zM596 960q-113 0 -182 -69q-67 -67 -67 -172q0 -93 60 -146t164 -53
q116 0 180.5 63t64.5 175q0 94 -59 148t-161 54zM573 1210l160 332h221l-264 -332h-117z" />
    <glyph glyph-name="Aringacute" unicode="&#x1fa;" horiz-adv-x="1257" vert-adv-y="2457" 
d="M753 1467q-60 19 -95 69.5t-35 117.5q0 93 66 161t158 68q84 0 139 -55t55 -139q0 -77 -43 -137.5t-115 -84.5h3l230 -1467h-164l-55 371h-603l-194 -371h-168l791 1467h30zM365 506h512l-114 762zM842 1791q-50 0 -82.5 -38t-32.5 -97q0 -49 25.5 -78t68.5 -29
q50 0 84 39t34 97q0 47 -26.5 76.5t-70.5 29.5zM487 1773l160 331h221l-264 -331h-117z" />
    <glyph glyph-name="aringacute" unicode="&#x1fb;" horiz-adv-x="1075" vert-adv-y="2457" 
d="M659 143q-136 -161 -308 -161q-134 0 -218 79.5t-84 205.5q0 132 80.5 213.5t251.5 121.5q117 28 362 37l13 67q8 47 8 74q0 168 -181 168q-161 0 -315 -123l-80 109q183 155 415 155q168 0 253 -83q76 -73 76 -196q0 -49 -11 -104l-92 -477q-3 -17 -3 -32q0 -71 102 -74
l-27 -131q-31 -3 -45 -3q-172 0 -197 154zM719 520q-195 -6 -301 -34q-199 -54 -199 -214q0 -155 180 -155q111 0 190 64.5t99 172.5zM699 1613q84 0 139 -55t55 -139q0 -96 -66 -164t-160 -68q-83 0 -137.5 56.5t-54.5 140.5q0 93 66.5 161t157.5 68zM694 1521
q-50 0 -82.5 -38t-32.5 -97q0 -49 25.5 -78t68.5 -29q50 0 84 39t34 96q0 48 -26.5 77.5t-70.5 29.5zM372 1534l160 332h221l-264 -332h-117z" />
    <glyph glyph-name="AEacute" unicode="&#x1fc;" horiz-adv-x="1880" vert-adv-y="2457" 
d="M355 371l-277 -371h-182l1112 1464h909l-27 -139h-670l-101 -520h540l-25 -135h-541l-103 -531h707l-27 -139h-873l72 371h-514zM456 506h440l155 799zM997 1604l160 331h221l-264 -331h-117z" />
    <glyph glyph-name="aeacute" unicode="&#x1fd;" horiz-adv-x="1714" vert-adv-y="2457" 
d="M761 194q-80 -112 -169.5 -162t-211.5 -50q-158 0 -247 90q-74 74 -74 186q0 107 57.5 184t165.5 116q130 46 400 46h63l21 102q8 43 8 77q0 165 -181 165q-161 0 -315 -123l-80 109q184 155 416 155q123 0 195 -43t106 -137q169 180 391 180q164 0 252 -96
q70 -76 70 -194q0 -127 -81 -196.5t-263 -98.5q-131 -21 -392 -25q-4 -34 -4 -65q0 -295 235 -295q91 0 152.5 33.5t137.5 123.5l116 -77q-68 -91 -138 -138q-116 -79 -274 -79q-253 0 -356 212zM721 483h-74q-187 0 -282 -32q-136 -46 -136 -180q0 -154 175 -154
q116 0 196 67q80 66 98 170zM911 603q243 0 348 17q107 17 154 60t47 123q0 71 -44 109t-126 38q-177 0 -287 -144q-55 -72 -92 -203zM857 1210l160 332h221l-264 -332h-117z" />
    <glyph glyph-name="Oslashacute" unicode="&#x1fe;" horiz-adv-x="1569" vert-adv-y="2457" 
d="M1310 1322l139 142h178l-239 -244q91 -154 91 -370q0 -280 -129 -506q-103 -181 -268 -275q-151 -87 -334 -87q-251 0 -410 160l-139 -142h-180l240 245q-91 158 -91 372q0 224 86 419q79 180 220 295q184 151 432 151q245 0 404 -160zM1201 1211q-112 132 -305 132
q-196 0 -332 -127q-111 -105 -170 -286q-50 -151 -50 -321q0 -142 36 -240zM446 253q111 -132 309 -132q282 0 428 260q118 209 118 477q0 133 -35 236zM913 1604l160 331h221l-264 -331h-117z" />
    <glyph glyph-name="oslashacute" unicode="&#x1ff;" horiz-adv-x="1139" vert-adv-y="2457" 
d="M913 992l73 77h176l-172 -181q53 -102 53 -250q0 -150 -51.5 -288t-141.5 -228q-139 -140 -338 -140q-176 0 -283 101l-79 -83h-174l176 186q-55 106 -55 255q0 267 149 455q154 193 395 193q162 0 272 -97zM806 879q-64 73 -177 73q-182 0 -279 -172q-83 -148 -83 -354
q0 -61 9 -108zM332 192q64 -73 180 -73q176 0 268 165q89 159 89 369q0 54 -8 99zM583 1210l160 332h221l-264 -332h-117z" />
    <glyph glyph-name="Scommaaccent" unicode="&#x218;" horiz-adv-x="1231" vert-adv-y="2457" 
d="M1015 1102q-31 98 -75 148q-83 95 -240 95q-138 0 -216.5 -65t-78.5 -179q0 -97 55.5 -148.5t231.5 -117.5q190 -70 270 -137q123 -102 123 -272q0 -177 -118 -298q-143 -146 -393 -146q-451 0 -531 421l163 31q27 -135 84 -201q97 -114 282 -114q183 0 275 99
q70 76 70 193q0 97 -59.5 154.5t-227.5 120.5q-186 70 -265 133q-120 97 -120 261q0 199 150 311q122 91 304 91q373 0 472 -342zM340 -496l16 82q113 24 138 117q-97 12 -97 96q0 46 30.5 76.5t76.5 30.5q50 0 79 -34t29 -93q0 -113 -70 -188q-69 -73 -202 -87z" />
    <glyph glyph-name="scommaaccent" unicode="&#x219;" horiz-adv-x="991" vert-adv-y="2457" 
d="M783 801q-91 151 -245 151q-87 0 -136 -38.5t-49 -106.5q0 -61 37.5 -99.5t144.5 -86.5q154 -70 205 -111q100 -80 100 -209q0 -142 -110.5 -230.5t-288.5 -88.5q-287 0 -416 235l139 82q56 -99 121.5 -139.5t167.5 -40.5q89 0 144 31q75 42 75 130q0 73 -65 120
q-33 24 -150 77q-123 57 -185 114q-83 78 -83 200q0 163 139 242q98 56 229 56q228 0 357 -194zM190 -496l16 82q113 24 138 117q-97 12 -97 96q0 46 30.5 76.5t76.5 30.5q50 0 79 -34t29 -93q0 -113 -70 -188q-69 -73 -202 -87z" />
    <glyph glyph-name="uni021A" unicode="&#x21a;" horiz-adv-x="1241" vert-adv-y="2457" 
d="M434 0l257 1325h-446l27 139h1057l-27 -139h-447l-257 -1325h-164zM321 -496l16 82q113 24 138 117q-97 12 -97 96q0 46 30.5 76.5t76.5 30.5q50 0 79 -34t29 -93q0 -113 -70 -188q-69 -73 -202 -87z" />
    <glyph glyph-name="uni021B" unicode="&#x21b;" horiz-adv-x="754" vert-adv-y="2457" 
d="M645 51q-112 -69 -235 -69q-109 0 -171.5 62.5t-62.5 172.5q0 36 9 81l122 636h-158l27 137h157l56 278l174 41l-62 -319h246l-27 -137h-245l-123 -631q-8 -41 -8 -70q0 -108 103 -108q65 0 140 43zM143 -496l16 82q113 24 138 117q-97 12 -97 96q0 46 30.5 76.5
t76.5 30.5q50 0 79 -34t29 -93q0 -113 -70 -188q-69 -73 -202 -87z" />
    <glyph glyph-name="uni0226" unicode="&#x226;" horiz-adv-x="1257" vert-adv-y="2457" 
d="M294 371l-194 -371h-168l791 1466h163l230 -1466h-164l-55 371h-603zM365 506h512l-114 761zM830 1825q43 0 70.5 -26.5t27.5 -66.5q0 -47 -34.5 -81.5t-81.5 -34.5q-40 0 -67.5 27t-27.5 67q0 48 33 81.5t80 33.5z" />
    <glyph glyph-name="uni0227" unicode="&#x227;" horiz-adv-x="1075" vert-adv-y="2457" 
d="M659 143q-136 -161 -308 -161q-134 0 -218 79.5t-84 205.5q0 132 80.5 213.5t251.5 121.5q117 28 362 37l13 67q8 47 8 74q0 168 -181 168q-161 0 -315 -123l-80 109q183 155 415 155q168 0 253 -83q76 -73 76 -196q0 -49 -11 -104l-92 -477q-3 -17 -3 -32q0 -71 102 -74
l-27 -131q-31 -3 -45 -3q-172 0 -197 154zM719 520q-195 -6 -301 -34q-199 -54 -199 -214q0 -155 180 -155q111 0 190 64.5t99 172.5zM681 1495q43 0 70.5 -26t27.5 -67q0 -47 -34.5 -81.5t-81.5 -34.5q-40 0 -67.5 27t-27.5 67q0 48 33.5 81.5t79.5 33.5z" />
    <glyph glyph-name="uni0237" unicode="&#x237;" horiz-adv-x="557" vert-adv-y="2457" 
d="M467 1071l-236 -1206q-49 -254 -298 -254q-80 0 -146 41l55 127q52 -27 95 -27q104 0 126 115l236 1204h168z" />
    <glyph glyph-name="uni0259" unicode="&#x259;" horiz-adv-x="1069" vert-adv-y="2457" 
d="M194 872q165 217 414 217q190 0 296 -117q103 -114 103 -314q0 -277 -169 -476q-169 -200 -417 -200q-166 0 -255 96q-74 78 -74 199q0 172 181 256t560 87q2 26 2 50q0 280 -238 280q-170 0 -286 -156zM817 489q-297 0 -425 -48.5t-128 -160.5q0 -76 45 -117.5
t128 -41.5q144 0 239.5 93t140.5 275z" />
    <glyph glyph-name="afii57929" unicode="&#x2bc;" horiz-adv-x="547" vert-adv-y="2457" 
d="M461 1335q-50 6 -79 35t-29 75q0 52 35.5 87t87.5 35q57 0 88.5 -37t31.5 -104q0 -133 -81 -219q-80 -84 -230 -99l19 92q129 27 157 135z" />
    <glyph glyph-name="uni02C9" unicode="&#x2c9;" horiz-adv-x="1024" vert-adv-y="2457" 
d="M424 1339l25 125h487l-25 -125h-487z" />
    <glyph glyph-name="uni0309" unicode="&#x309;" horiz-adv-x="1024" vert-adv-y="2457" 
d="M708 1543h-90l25 130q80 12 107 31.5t27 66.5q0 38 -51 38q-43 0 -76 -11t-107 -48l-29 67q138 81 227 81q63 0 102.5 -34.5t39.5 -89.5q0 -69 -50 -113q-31 -28 -110 -43z" />
    <glyph glyph-name="uni037E" unicode="&#x37e;" horiz-adv-x="616" vert-adv-y="2457" 
d="M19 -283l18 97q145 32 176 180q-116 16 -116 121q0 57 39 96t95 39q61 0 95.5 -40.5t34.5 -111.5q0 -161 -102 -271q-47 -51 -100.5 -75.5t-139.5 -34.5zM356 858q52 0 86.5 -34t34.5 -87q0 -58 -40 -97.5t-100 -39.5q-52 0 -87 34.5t-35 86.5q0 57 41 97t100 40z" />
    <glyph glyph-name="tonos" unicode="&#x384;" horiz-adv-x="1009" vert-adv-y="2457" 
d="M795 1563l-99 -358h-124l41 358h182z" />
    <glyph glyph-name="dieresistonos" unicode="&#x385;" horiz-adv-x="1024" vert-adv-y="2457" 
d="M794 1563l-98 -358h-125l41 358h182zM404 1495q43 0 70.5 -26t27.5 -67q0 -47 -34.5 -81.5t-81.5 -34.5q-40 0 -67.5 27t-27.5 67q0 48 33.5 81.5t79.5 33.5zM955 1495q43 0 70.5 -26t27.5 -67q0 -47 -34.5 -81.5t-81.5 -34.5q-40 0 -67.5 27t-27.5 67q0 48 33.5 81.5
t79.5 33.5z" />
    <glyph glyph-name="Alphatonos" unicode="&#x386;" horiz-adv-x="1257" vert-adv-y="2457" 
d="M1116 0h-164l-55 371h-603l-194 -371h-168l791 1466h163zM365 506h512l-114 761zM182 1044l53 420h182l-110 -420h-125z" />
    <glyph glyph-name="uni0387" unicode="&#x387;" horiz-adv-x="616" vert-adv-y="2457" 
d="M343 799q53 0 87.5 -34t34.5 -87q0 -58 -40 -97.5t-100 -39.5q-52 0 -87 34.5t-35 86.5q0 57 41 97t99 40z" />
    <glyph glyph-name="Epsilontonos" unicode="&#x388;" horiz-adv-x="1339" vert-adv-y="2457" 
d="M214 0l285 1464h876l-27 -139h-711l-102 -520h582l-25 -139h-582l-103 -527h748l-28 -139h-913zM100 1044l53 420h182l-111 -420h-124z" />
    <glyph glyph-name="Etatonos" unicode="&#x389;" horiz-adv-x="1521" vert-adv-y="2457" 
d="M214 0l285 1464h167l-129 -667h676l129 667h168l-284 -1464h-168l127 658h-676l-127 -658h-168zM100 1044l53 420h182l-111 -420h-124z" />
    <glyph glyph-name="Iotatonos" unicode="&#x38a;" horiz-adv-x="693" vert-adv-y="2457" 
d="M214 0l285 1464h167l-284 -1464h-168zM100 1044l53 420h182l-111 -420h-124z" />
    <glyph glyph-name="Omicrontonos" unicode="&#x38c;" horiz-adv-x="1671" vert-adv-y="2457" 
d="M1010 1482q241 0 396 -155q174 -173 174 -477q0 -280 -129 -506q-103 -181 -268 -275q-151 -87 -334 -87q-249 0 -408 155q-176 174 -176 480q0 223 87 419q79 180 221 295q185 151 437 151zM989 1343q-188 0 -325 -128q-113 -105 -172 -284q-49 -152 -49 -325
q0 -263 137 -388q107 -97 275 -97q283 0 429 260q118 208 118 481q0 264 -137 388q-103 93 -276 93zM100 1044l53 420h182l-111 -420h-124z" />
    <glyph glyph-name="Upsilontonos" unicode="&#x38e;" horiz-adv-x="1368" vert-adv-y="2457" 
d="M623 0l118 616l-319 848h178l250 -702l500 702h182l-627 -858l-116 -606h-166zM100 1044l53 420h182l-111 -420h-124z" />
    <glyph glyph-name="Omegatonos" unicode="&#x38f;" horiz-adv-x="1687" vert-adv-y="2457" 
d="M105 0l26 129h314q-68 68 -103 132q-77 141 -77 340q0 167 56 337q91 275 301 423q170 121 396 121q270 0 429 -164q157 -162 157 -434q0 -276 -135 -503q-86 -146 -237 -252h277l-26 -129h-569l27 137q82 2 143.5 32.5t124.5 100.5q92 101 148 253q69 182 69 372
q0 209 -108 329q-107 119 -300 119q-293 0 -452 -280q-57 -101 -90 -234.5t-33 -262.5q0 -239 95 -356q32 -39 68 -55.5t96 -17.5l-27 -137h-570zM100 1044l53 420h182l-111 -420h-124z" />
    <glyph glyph-name="iotadieresistonos" unicode="&#x390;" horiz-adv-x="555" vert-adv-y="2457" 
d="M467 1071l-159 -815q-10 -42 -10 -57q0 -37 18 -52.5t61 -15.5q15 0 41 3l-27 -134q-46 -8 -82 -8q-96 0 -140 50q-39 46 -39 115q0 47 14 117l155 797h168zM565 1563l-98 -358h-125l41 358h182zM175 1495q43 0 70.5 -26t27.5 -67q0 -47 -34.5 -81.5t-81.5 -34.5
q-40 0 -67.5 27t-27.5 67q0 48 33.5 81.5t79.5 33.5zM726 1495q43 0 70.5 -26t27.5 -67q0 -47 -34.5 -81.5t-81.5 -34.5q-40 0 -67.5 27t-27.5 67q0 48 33.5 81.5t79.5 33.5z" />
    <glyph glyph-name="Alpha" unicode="&#x391;" horiz-adv-x="1257" vert-adv-y="2457" 
d="M1116 0h-164l-55 371h-603l-194 -371h-168l791 1466h163zM365 506h512l-114 761z" />
    <glyph glyph-name="Beta" unicode="&#x392;" horiz-adv-x="1335" vert-adv-y="2457" 
d="M86 0l285 1464h478q168 0 270 -58q153 -88 153 -284q0 -137 -67 -225.5t-214 -145.5q104 -34 156 -88q78 -80 78 -219q0 -210 -141.5 -327t-395.5 -117h-602zM279 139h425q187 0 270 76t83 222q0 129 -73 189t-231 60h-368zM412 825h336q97 0 152.5 12t101.5 43
q106 70 106 231q0 214 -252 214h-346z" />
    <glyph glyph-name="Gamma" unicode="&#x393;" horiz-adv-x="1031" vert-adv-y="2457" 
d="M86 0l285 1464h805l-28 -139h-637l-257 -1325h-168z" />
    <glyph glyph-name="uni0394" unicode="&#x394;" horiz-adv-x="1264" vert-adv-y="2457" 
d="M-98 0l822 1464h183l247 -1464h-1252zM153 139h811l-186 1134z" />
    <glyph glyph-name="Epsilon" unicode="&#x395;" horiz-adv-x="1210" vert-adv-y="2457" 
d="M86 0l285 1464h876l-27 -139h-711l-101 -520h581l-25 -139h-582l-103 -527h748l-28 -139h-913z" />
    <glyph glyph-name="Zeta" unicode="&#x396;" horiz-adv-x="1206" vert-adv-y="2457" 
d="M10 0l29 147l1021 1178h-750l28 139h925l-32 -164l-998 -1161h764l-26 -139h-961z" />
    <glyph glyph-name="Eta" unicode="&#x397;" horiz-adv-x="1393" vert-adv-y="2457" 
d="M86 0l285 1464h168l-129 -667h675l129 667h168l-284 -1464h-168l127 658h-676l-127 -658h-168z" />
    <glyph glyph-name="Theta" unicode="&#x398;" horiz-adv-x="1573" vert-adv-y="2457" 
d="M511 668l27 139h606l-27 -139h-606zM912 1482q241 0 396 -155q174 -173 174 -477q0 -280 -129 -506q-103 -181 -268 -275q-151 -87 -334 -87q-250 0 -408 155q-176 173 -176 480q0 224 87 419q79 181 220 295q186 151 438 151zM891 1343q-188 0 -325 -128
q-113 -105 -172 -284q-49 -152 -49 -325q0 -262 137 -388q106 -97 275 -97q283 0 429 260q118 208 118 481q0 263 -137 388q-102 93 -276 93z" />
    <glyph glyph-name="Iota" unicode="&#x399;" horiz-adv-x="582" vert-adv-y="2457" 
d="M102 0l285 1464h168l-285 -1464h-168z" />
    <glyph glyph-name="Kappa" unicode="&#x39a;" horiz-adv-x="1284" vert-adv-y="2457" 
d="M86 0l285 1464h168l-144 -737l774 737h197l-651 -612l393 -852h-178l-340 735l-236 -219l-100 -516h-168z" />
    <glyph glyph-name="Lambda" unicode="&#x39b;" horiz-adv-x="1169" vert-adv-y="2457" 
d="M-76 0l776 1464h135l201 -1464h-164l-155 1203l-620 -1203h-173z" />
    <glyph glyph-name="Mu" unicode="&#x39c;" horiz-adv-x="1683" vert-adv-y="2457" 
d="M86 0l285 1464h231l178 -1255l654 1255h239l-284 -1464h-164l239 1235l-645 -1235h-155l-183 1235l-239 -1235h-156z" />
    <glyph glyph-name="Nu" unicode="&#x39d;" horiz-adv-x="1397" vert-adv-y="2457" 
d="M86 0l285 1464h186l430 -1249l242 1249h157l-284 -1464h-201l-420 1224l-237 -1224h-158z" />
    <glyph glyph-name="Xi" unicode="&#x39e;" horiz-adv-x="1133" vert-adv-y="2457" 
d="M0 0l27 139h924l-27 -139h-924zM258 1325l27 139h923l-27 -139h-923zM224 668l27 139h735l-27 -139h-735z" />
    <glyph glyph-name="Omicron" unicode="&#x39f;" horiz-adv-x="1573" vert-adv-y="2457" 
d="M912 1482q241 0 396 -155q174 -173 174 -477q0 -280 -129 -506q-103 -181 -268 -275q-151 -87 -334 -87q-250 0 -408 155q-176 173 -176 480q0 224 87 419q79 180 220 295q186 151 438 151zM891 1343q-188 0 -325 -128q-113 -105 -172 -284q-49 -152 -49 -325
q0 -262 137 -388q106 -97 275 -97q283 0 429 260q118 208 118 481q0 263 -137 388q-102 93 -276 93z" />
    <glyph glyph-name="Pi" unicode="&#x3a0;" horiz-adv-x="1356" vert-adv-y="2457" 
d="M78 0l257 1325h-114l27 139h1221l-28 -139h-115l-257 -1325h-168l258 1325h-656l-257 -1325h-168z" />
    <glyph glyph-name="Rho" unicode="&#x3a1;" horiz-adv-x="1270" vert-adv-y="2457" 
d="M86 0l285 1464h435q125 0 198 -16t128 -55q134 -95 134 -294q0 -236 -159 -365q-142 -115 -412 -115h-323l-120 -619h-166zM399 758h318q377 0 377 339q0 127 -77 184q-58 44 -223 44h-284z" />
    <glyph glyph-name="Sigma" unicode="&#x3a3;" horiz-adv-x="1161" vert-adv-y="2457" 
d="M4 0l31 161l529 599l-272 555l29 149h906l-28 -139h-735l285 -573l-542 -613h819l-27 -139h-995z" />
    <glyph glyph-name="Tau" unicode="&#x3a4;" horiz-adv-x="1241" vert-adv-y="2457" 
d="M434 0l258 1325h-453l27 139h1057l-27 -139h-441l-257 -1325h-164z" />
    <glyph glyph-name="Upsilon" unicode="&#x3a5;" horiz-adv-x="1143" vert-adv-y="2457" 
d="M398 0l118 616l-319 848h178l250 -702l500 702h182l-627 -858l-116 -606h-166z" />
    <glyph glyph-name="Phi" unicode="&#x3a6;" horiz-adv-x="1655" vert-adv-y="2457" 
d="M631 -41l27 140q-182 25 -291 110q-84 65 -135 160q-66 122 -66 272q0 238 135 430q100 143 240 212.5t364 87.5l26 134h168l-27 -140q183 -25 292 -110q84 -65 135 -160q66 -122 66 -273q0 -237 -135 -429q-142 -201 -372 -261q-95 -25 -233 -37l-26 -136h-168zM851 226
q198 16 315 105q111 85 172 247q49 130 49 266q0 236 -164 338q-72 45 -175 58zM683 226l197 1012q-199 -16 -315 -105q-111 -86 -172 -247q-49 -130 -49 -264q0 -236 164 -338q72 -45 175 -58z" />
    <glyph glyph-name="Chi" unicode="&#x3a7;" horiz-adv-x="1217" vert-adv-y="2457" 
d="M-53 0l606 762l-291 702h179l241 -586l455 586h188l-573 -723l309 -741h-178l-258 627l-492 -627h-186z" />
    <glyph glyph-name="Psi" unicode="&#x3a8;" horiz-adv-x="1581" vert-adv-y="2457" 
d="M602 0l72 371h-58q-144 0 -220 28q-104 37 -160.5 125t-56.5 212q0 118 37 308l81 420h168l-96 -496q-24 -123 -24 -217q0 -125 73 -183t229 -58h55l185 954h168l-185 -954h75q212 0 300 79q75 67 108 238l124 637h168l-129 -666q-31 -160 -72 -229q-116 -198 -461 -198
h-141l-72 -371h-168z" />
    <glyph glyph-name="uni03A9" unicode="&#x3a9;" horiz-adv-x="1575" vert-adv-y="2457" 
d="M-6 0l26 129h314q-68 67 -103 132q-77 141 -77 340q0 167 56 337q91 275 301 423q170 121 396 121q270 0 429 -164q157 -162 157 -434q0 -276 -135 -503q-86 -146 -237 -252h277l-26 -129h-569l27 137q90 2 154 39q130 74 222 254q109 215 109 465q0 209 -108 329
q-107 119 -301 119q-292 0 -451 -280q-57 -101 -90 -234.5t-33 -262.5q0 -239 95 -356q32 -39 68 -55.5t95 -17.5l-27 -137h-569z" />
    <glyph glyph-name="Iotadieresis" unicode="&#x3aa;" horiz-adv-x="582" vert-adv-y="2457" 
d="M102 0l285 1464h168l-285 -1464h-168zM335 1825q43 0 70.5 -26.5t27.5 -66.5q0 -47 -34.5 -81.5t-81.5 -34.5q-40 0 -67.5 27t-27.5 67q0 48 33 81.5t80 33.5zM697 1825q43 0 70.5 -26t27.5 -67q0 -47 -34.5 -81.5t-81.5 -34.5q-40 0 -67.5 27t-27.5 67q0 48 33 81.5
t80 33.5z" />
    <glyph glyph-name="Upsilondieresis" unicode="&#x3ab;" horiz-adv-x="1143" vert-adv-y="2457" 
d="M398 0l118 616l-319 848h178l250 -702l500 702h182l-627 -858l-116 -606h-166zM616 1825q43 0 70.5 -26.5t27.5 -66.5q0 -47 -34.5 -81.5t-81.5 -34.5q-40 0 -67.5 27t-27.5 67q0 48 33 81.5t80 33.5zM978 1825q43 0 70.5 -26.5t27.5 -66.5q0 -47 -34.5 -81.5
t-80.5 -34.5q-41 0 -68.5 27t-27.5 67q0 48 33 81.5t80 33.5z" />
    <glyph glyph-name="alphatonos" unicode="&#x3ac;" horiz-adv-x="1190" vert-adv-y="2457" 
d="M1104 1071l-209 -1071h-168l31 158q-68 -84 -160 -130t-193 -46q-150 0 -231 95q-86 101 -86 285q0 130 36.5 263t98.5 229q152 235 392 235q101 0 175.5 -49t111.5 -140l34 171h168zM630 950q-161 0 -264 -178q-46 -79 -75 -199t-29 -227q0 -225 194 -225q188 0 299 184
q44 73 70.5 176t26.5 200q0 125 -59.5 197t-162.5 72zM862 1563l-99 -358h-124l41 358h182z" />
    <glyph glyph-name="epsilontonos" unicode="&#x3ad;" horiz-adv-x="1056" vert-adv-y="2457" 
d="M303 614h469l-27 -139h-470q-8 -42 -8 -80q0 -135 71 -209q64 -65 196 -65q95 0 164.5 33t135.5 108l114 -93q-62 -70 -128 -111q-123 -76 -292 -76q-240 0 -353 151q-82 110 -82 284q0 132 42.5 256t120.5 218q162 198 412 198q273 0 373 -212l-124 -81q-42 72 -77 101
q-64 53 -172 53q-265 0 -365 -336zM849 1563l-99 -358h-124l41 358h182z" />
    <glyph glyph-name="etatonos" unicode="&#x3ae;" horiz-adv-x="1184" vert-adv-y="2457" 
d="M86 0l208 1071h168l-30 -154q127 172 322 172q142 0 220 -87q70 -77 70 -211q0 -55 -19 -152l-197 -1012h-168l192 984q24 123 24 167q0 172 -176 172q-123 0 -208.5 -84t-114.5 -233l-123 -633h-168zM897 1563l-99 -358h-124l41 358h182z" />
    <glyph glyph-name="iotatonos" unicode="&#x3af;" horiz-adv-x="555" vert-adv-y="2457" 
d="M467 1071l-159 -815q-10 -42 -10 -57q0 -37 18 -52.5t61 -15.5q15 0 41 3l-27 -134q-46 -8 -82 -8q-96 0 -140 50q-39 46 -39 115q0 47 14 117l155 797h168zM573 1563l-99 -358h-124l41 358h182z" />
    <glyph glyph-name="upsilondieresistonos" unicode="&#x3b0;" horiz-adv-x="1149" vert-adv-y="2457" 
d="M282 1071h168l-108 -552q-24 -125 -24 -219q0 -179 190 -179q144 0 211 114q37 64 69 227l118 609h168l-126 -650q-48 -245 -140 -336q-55 -56 -124.5 -79.5t-175.5 -23.5q-186 0 -273 75q-85 74 -85 224q0 113 32 279zM847 1563l-98 -358h-125l41 358h182zM457 1495
q43 0 70.5 -26t27.5 -67q0 -47 -34.5 -81.5t-81.5 -34.5q-40 0 -67.5 27t-27.5 67q0 48 33.5 81.5t79.5 33.5zM1008 1495q43 0 70.5 -26t27.5 -67q0 -47 -34.5 -81.5t-81.5 -34.5q-40 0 -67.5 27t-27.5 67q0 48 33.5 81.5t79.5 33.5z" />
    <glyph glyph-name="alpha" unicode="&#x3b1;" horiz-adv-x="1190" vert-adv-y="2457" 
d="M1104 1071l-209 -1071h-168l31 158q-68 -84 -160 -130t-193 -46q-150 0 -231 95q-86 101 -86 285q0 130 36.5 263t98.5 229q152 235 392 235q101 0 175.5 -49t111.5 -140l34 171h168zM630 950q-161 0 -264 -178q-46 -79 -75 -199t-29 -227q0 -225 194 -225q188 0 299 184
q44 73 70.5 176t26.5 200q0 125 -59.5 197t-162.5 72z" />
    <glyph glyph-name="beta" unicode="&#x3b2;" horiz-adv-x="1225" vert-adv-y="2457" 
d="M14 -373l280 1442q26 133 51 200t73 129q127 166 361 166q161 0 256 -84q103 -92 103 -247q0 -133 -72 -223.5t-213 -133.5q114 -42 170 -108q87 -102 87 -259q0 -114 -43 -227t-112 -183q-117 -117 -298 -117q-116 0 -215 33l28 148q87 -42 176 -42q141 0 215 124
q75 124 75 281q0 149 -95 222q-67 51 -195 52l-13 1l29 145q79 1 118 10t79 35q54 36 86.5 101.5t32.5 140.5q0 87 -45 136q-51 56 -156 56q-154 0 -233 -126q-54 -89 -90 -271l-272 -1401h-168z" />
    <glyph glyph-name="gamma" unicode="&#x3b3;" horiz-adv-x="953" vert-adv-y="2457" 
d="M231 -373l72 373l-168 1071h172l119 -862l419 862h178l-552 -1071l-72 -373h-168z" />
    <glyph glyph-name="delta" unicode="&#x3b4;" horiz-adv-x="1126" vert-adv-y="2457" 
d="M517 1061q-43 36 -63 62q-45 60 -45 153q0 132 89 211.5t236 79.5q244 0 377 -214l-112 -96q-41 76 -79 111q-74 68 -182 68q-172 0 -172 -155q0 -69 37.5 -110.5t150.5 -98.5q86 -44 131.5 -79.5t77.5 -83.5q68 -107 68 -274q0 -277 -152 -468q-147 -185 -377 -185
q-213 0 -323 159q-83 121 -83 300q0 207 102 375q59 97 131 152.5t188 92.5zM622 955q-161 0 -259 -160q-97 -159 -97 -374q0 -143 69 -228q59 -74 171 -74q183 0 280 195q75 150 75 335q0 128 -45 202q-64 104 -194 104z" />
    <glyph glyph-name="epsilon" unicode="&#x3b5;" horiz-adv-x="1056" vert-adv-y="2457" 
d="M303 614h469l-27 -139h-470q-8 -42 -8 -80q0 -135 71 -209q64 -65 196 -65q95 0 164.5 33t135.5 108l114 -93q-62 -70 -128 -111q-123 -76 -292 -76q-240 0 -353 151q-82 110 -82 284q0 132 42.5 256t120.5 218q162 198 412 198q273 0 373 -212l-124 -81q-42 72 -77 101
q-64 53 -172 53q-265 0 -365 -336z" />
    <glyph glyph-name="zeta" unicode="&#x3b6;" horiz-adv-x="897" vert-adv-y="2457" 
d="M353 1403l26 139h640l-31 -161q-302 -269 -427 -421q-288 -353 -288 -637q0 -105 57 -150q35 -28 118 -28q147 -1 208 -74q55 -64 55 -180q0 -119 -65 -264h-161q66 123 66 226q0 79 -36 110.5t-132 36.5q-105 5 -160 38q-124 75 -124 275q0 332 354 719q152 166 417 371
h-517z" />
    <glyph glyph-name="eta" unicode="&#x3b7;" horiz-adv-x="1184" vert-adv-y="2457" 
d="M86 0l208 1071h168l-30 -154q127 172 322 172q142 0 220 -87q70 -77 70 -211q0 -55 -19 -152l-197 -1012h-168l192 984q24 123 24 167q0 172 -176 172q-123 0 -208.5 -84t-114.5 -233l-123 -633h-168z" />
    <glyph glyph-name="theta" unicode="&#x3b8;" horiz-adv-x="1176" vert-adv-y="2457" 
d="M757 1560q116 0 207 -69q175 -132 175 -482q0 -193 -53 -394t-142 -345q-177 -288 -428 -288q-201 0 -302 169q-87 144 -87 380q0 263 98 526q86 229 213 358q141 145 319 145zM930 725h-611q-18 -120 -18 -222q0 -168 56 -276q26 -48 71.5 -77t97.5 -29q96 0 189 98
q140 148 215 506zM954 864q11 123 11 181q0 166 -53 271q-54 105 -169 105q-178 0 -313 -299q-46 -101 -84 -258h608z" />
    <glyph glyph-name="iota" unicode="&#x3b9;" horiz-adv-x="555" vert-adv-y="2457" 
d="M467 1071l-159 -815q-10 -42 -10 -57q0 -37 18 -52.5t61 -15.5q15 0 41 3l-27 -134q-46 -8 -82 -8q-96 0 -140 50q-39 46 -39 115q0 47 14 117l155 797h168z" />
    <glyph glyph-name="kappa" unicode="&#x3ba;" horiz-adv-x="1086" vert-adv-y="2457" 
d="M313 303l-59 -303h-168l208 1071h168l-106 -544l529 544h198l-430 -428l275 -643h-176l-222 520z" />
    <glyph glyph-name="lambda" unicode="&#x3bb;" horiz-adv-x="1001" vert-adv-y="2457" 
d="M-70 0l601 1083l-63 459h164l221 -1542h-168l-119 847l-456 -847h-180z" />
    <glyph glyph-name="uni03BC" unicode="&#x3bc;" horiz-adv-x="1178" vert-adv-y="2457" 
d="M14 -373l281 1444h168l-124 -637q-20 -102 -20 -156q0 -75 42.5 -116t122.5 -41q117 0 201.5 80t110.5 215l127 655h168l-208 -1071h-168l29 148q-119 -166 -324 -166q-94 0 -162 38l-76 -393h-168z" />
    <glyph glyph-name="nu" unicode="&#x3bd;" horiz-adv-x="928" vert-adv-y="2457" 
d="M263 0l-139 1071h172l96 -905l441 905h178l-551 -1071h-197z" />
    <glyph glyph-name="xi" unicode="&#x3be;" horiz-adv-x="924" vert-adv-y="2457" 
d="M318 1403l27 139h733l-27 -139h-66q-219 0 -344 -63q-78 -39 -121 -103t-43 -141q0 -100 62 -147.5t193 -47.5h99l-27 -139h-117q-108 0 -174 -19t-120 -66q-61 -54 -97 -143t-36 -187q0 -105 54 -157q26 -25 61.5 -35t109.5 -11q147 -4 214 -73q65 -67 65 -186
q0 -118 -66 -258h-160q58 121 58 215q0 83 -41 118t-142 38q-80 3 -124.5 15t-84.5 42q-118 88 -118 278q0 201 106.5 336.5t298.5 177.5q-188 59 -188 227q0 219 286 329h-271z" />
    <glyph glyph-name="omicron" unicode="&#x3bf;" horiz-adv-x="1145" vert-adv-y="2457" 
d="M649 1089q195 0 304 -136q95 -118 95 -316q0 -150 -51.5 -287.5t-141.5 -227.5q-139 -140 -338 -140q-209 0 -323 140q-98 121 -98 320q0 267 155 458q152 189 398 189zM633 950q-183 0 -280 -171q-83 -147 -83 -350q0 -308 246 -308q176 0 269 164q89 159 89 373
q0 143 -61.5 217.5t-179.5 74.5z" />
    <glyph glyph-name="rho" unicode="&#x3c1;" horiz-adv-x="1161" vert-adv-y="2457" 
d="M116 -373q-46 206 -46 462q0 422 127 687q74 155 206 242q106 71 247 71q184 0 295 -115q116 -120 116 -322q0 -140 -44 -274t-119 -221q-151 -175 -364 -175q-113 0 -189 42.5t-132 138.5q24 -332 69 -536h-166zM651 950q-192 0 -300 -212q-78 -150 -78 -338
q0 -155 95 -229q66 -50 161 -50q182 0 283 203q33 65 54 162.5t21 181.5q0 124 -55 198q-63 84 -181 84z" />
    <glyph glyph-name="uni03C2" unicode="&#x3c2;" horiz-adv-x="944" vert-adv-y="2457" 
d="M671 -373h-153q30 61 49.5 136t19.5 126q0 60 -35 86q-24 17 -124 26q-140 12 -199 50q-68 46 -102 127q-39 95 -39 200q0 153 44 292.5t122 235.5q149 183 369 183q246 0 332 -233l-133 -80q-36 96 -82 135t-124 39q-175 0 -273 -202q-36 -74 -58.5 -177.5t-22.5 -197.5
q0 -134 82 -192q43 -30 152 -38q88 -6 132 -21.5t73 -51.5q42 -52 42 -138q0 -143 -72 -305z" />
    <glyph glyph-name="sigma" unicode="&#x3c3;" horiz-adv-x="1157" vert-adv-y="2457" 
d="M1183 1071l-28 -144l-236 7q101 -118 101 -299q0 -133 -41.5 -260t-115.5 -217q-142 -176 -361 -176q-191 0 -303 130q-103 120 -103 327q0 132 40.5 254t113.5 212q77 95 180 139q103 45 248 45q61 0 143 -9q80 -9 109 -9h253zM618 950q-165 0 -260 -158
q-88 -146 -88 -365q0 -306 234 -306q177 0 270 191q72 148 72 347q0 137 -54 211q-59 80 -174 80z" />
    <glyph glyph-name="tau" unicode="&#x3c4;" horiz-adv-x="805" vert-adv-y="2457" 
d="M213 0l181 932h-319l27 139h792l-26 -139h-306l-181 -932h-168z" />
    <glyph glyph-name="upsilon" unicode="&#x3c5;" horiz-adv-x="1149" vert-adv-y="2457" 
d="M282 1071h168l-108 -552q-24 -125 -24 -219q0 -179 190 -179q144 0 211 114q37 64 69 227l118 609h168l-126 -650q-48 -245 -140 -336q-55 -56 -124.5 -79.5t-175.5 -23.5q-186 0 -273 75q-85 74 -85 224q0 113 32 279z" />
    <glyph glyph-name="phi" unicode="&#x3c6;" horiz-adv-x="1409" vert-adv-y="2457" 
d="M434 -373l71 364q-164 31 -263 126q-146 140 -146 361q0 178 93.5 317t276.5 233l51 -115q-247 -147 -247 -446q0 -290 259 -347l187 959q39 4 76 4q240 0 379 -134q142 -138 142 -361q0 -142 -59.5 -265t-166.5 -202q-159 -118 -415 -134l-70 -360h-168zM697 120
q164 12 264 89q98 74 143 198q35 96 35 204q0 192 -125 284q-68 51 -154 63z" />
    <glyph glyph-name="chi" unicode="&#x3c7;" horiz-adv-x="965" vert-adv-y="2457" 
d="M-191 -373l539 767l-208 677h171l162 -544l375 544h175l-488 -694l232 -750h-173l-184 618l-427 -618h-174z" />
    <glyph glyph-name="psi" unicode="&#x3c8;" horiz-adv-x="1552" vert-adv-y="2457" 
d="M1476 1071l-119 -613q-29 -146 -55 -213.5t-77 -126.5q-67 -76 -149 -108.5t-207 -32.5h-118l-68 -350h-168l68 350h-19q-187 0 -279 69q-126 95 -126 272q0 111 34 287l91 466h168l-103 -531q-22 -111 -22 -191q0 -118 64 -172.5t201 -54.5h19l185 949h168l-185 -949h57
q162 0 239 73t114 263l119 613h168z" />
    <glyph glyph-name="omega" unicode="&#x3c9;" horiz-adv-x="1450" vert-adv-y="2457" 
d="M459 1090l86 -91q-279 -279 -279 -662q0 -123 58 -179q38 -37 92 -37q91 0 146 105q30 57 59 206l72 369h168l-72 -369q-23 -118 -23 -175q0 -69 40 -104q38 -32 91 -32q127 0 203 153q33 67 54 172.5t21 202.5q0 200 -90 350l105 82q69 -89 96 -151q63 -144 63 -296
q0 -110 -28 -227.5t-74 -198.5q-56 -98 -136 -155q-100 -71 -216 -71q-175 0 -233 181q-100 -181 -257 -181q-161 0 -250 132q-63 93 -63 242q0 286 162 518q75 108 205 216z" />
    <glyph glyph-name="iotadieresis" unicode="&#x3ca;" horiz-adv-x="555" vert-adv-y="2457" 
d="M467 1071l-159 -815q-10 -42 -10 -57q0 -37 18 -52.5t61 -15.5q15 0 41 3l-27 -134q-46 -8 -82 -8q-96 0 -140 50q-39 46 -39 115q0 47 14 117l155 797h168zM270 1495q43 0 70.5 -26.5t27.5 -66.5q0 -47 -34.5 -81.5t-81.5 -34.5q-40 0 -67.5 27t-27.5 67q0 48 33 81.5
t80 33.5zM632 1495q43 0 70.5 -26.5t27.5 -66.5q0 -47 -34.5 -81.5t-80.5 -34.5q-41 0 -68.5 27t-27.5 67q0 48 33 81.5t80 33.5z" />
    <glyph glyph-name="upsilondieresis" unicode="&#x3cb;" horiz-adv-x="1149" vert-adv-y="2457" 
d="M282 1071h168l-108 -552q-24 -125 -24 -219q0 -179 190 -179q144 0 211 114q37 64 69 227l118 609h168l-126 -650q-48 -245 -140 -336q-55 -56 -124.5 -79.5t-175.5 -23.5q-186 0 -273 75q-85 74 -85 224q0 113 32 279zM567 1495q43 0 70.5 -26t27.5 -67
q0 -47 -34.5 -81.5t-81.5 -34.5q-40 0 -67.5 27t-27.5 67q0 48 33.5 81.5t79.5 33.5zM929 1495q43 0 70.5 -26t27.5 -67q0 -47 -34.5 -81.5t-81.5 -34.5q-40 0 -67.5 27t-27.5 67q0 48 33.5 81.5t79.5 33.5z" />
    <glyph glyph-name="omicrontonos" unicode="&#x3cc;" horiz-adv-x="1145" vert-adv-y="2457" 
d="M649 1089q195 0 304 -136q95 -118 95 -316q0 -150 -51.5 -287.5t-141.5 -227.5q-139 -140 -338 -140q-209 0 -323 140q-98 121 -98 320q0 267 155 458q152 189 398 189zM633 950q-183 0 -280 -171q-83 -147 -83 -350q0 -308 246 -308q176 0 269 164q89 159 89 373
q0 143 -61.5 217.5t-179.5 74.5zM839 1563l-99 -358h-124l41 358h182z" />
    <glyph glyph-name="upsilontonos" unicode="&#x3cd;" horiz-adv-x="1149" vert-adv-y="2457" 
d="M282 1071h168l-108 -552q-24 -125 -24 -219q0 -179 190 -179q144 0 211 114q37 64 69 227l118 609h168l-126 -650q-48 -245 -140 -336q-55 -56 -124.5 -79.5t-175.5 -23.5q-186 0 -273 75q-85 74 -85 224q0 113 32 279zM853 1563l-99 -358h-124l41 358h182z" />
    <glyph glyph-name="omegatonos" unicode="&#x3ce;" horiz-adv-x="1450" vert-adv-y="2457" 
d="M459 1090l86 -91q-279 -279 -279 -662q0 -123 58 -179q38 -37 92 -37q91 0 146 105q30 57 59 206l72 369h168l-72 -369q-23 -118 -23 -175q0 -69 40 -104q38 -32 91 -32q127 0 203 153q33 67 54 172.5t21 202.5q0 200 -90 350l105 82q69 -89 96 -151q63 -144 63 -296
q0 -110 -28 -227.5t-74 -198.5q-56 -98 -136 -155q-100 -71 -216 -71q-175 0 -233 181q-100 -181 -257 -181q-161 0 -250 132q-63 93 -63 242q0 286 162 518q75 108 205 216zM998 1563l-99 -358h-124l41 358h182z" />
    <glyph glyph-name="phi1" unicode="&#x3d5;" horiz-adv-x="1409" vert-adv-y="2457" 
d="M715 1080l71 369h168l-72 -372q119 -14 205 -65q125 -73 183 -208q43 -100 43 -216q0 -142 -59.5 -265t-166.5 -202q-159 -118 -415 -134l-70 -360h-168l71 364q-164 31 -263 126q-146 140 -146 361q0 261 202 439q162 143 417 163zM529 120l164 845q-96 -19 -149 -41
t-97 -59q-177 -149 -177 -398q0 -290 259 -347zM697 120q164 12 264 88q98 75 143 199q35 96 35 204q0 192 -125 284q-68 51 -154 62z" />
    <glyph glyph-name="uni0400" unicode="&#x400;" horiz-adv-x="1210" vert-adv-y="2457" 
d="M86 0l285 1464h876l-27 -139h-711l-101 -520h581l-25 -135h-582l-103 -531h748l-28 -139h-913zM897 1603l-168 332h207l65 -332h-104z" />
    <glyph glyph-name="afii10023" unicode="&#x401;" horiz-adv-x="1210" vert-adv-y="2457" 
d="M86 0l285 1464h876l-27 -139h-711l-101 -520h581l-25 -135h-582l-103 -531h748l-28 -139h-913zM650 1825q43 0 70.5 -26t27.5 -67q0 -47 -34.5 -81.5t-81.5 -34.5q-40 0 -67.5 27t-27.5 67q0 48 33 81.5t80 33.5zM1012 1825q43 0 70.5 -26.5t27.5 -66.5
q0 -47 -34.5 -81.5t-81.5 -34.5q-40 0 -67.5 27t-27.5 67q0 48 33 81.5t80 33.5z" />
    <glyph glyph-name="afii10051" unicode="&#x402;" horiz-adv-x="1533" vert-adv-y="2457" 
d="M461 0h-168l257 1325h-403l27 139h1118l-27 -139h-547l-104 -537q150 172 389 172q180 0 268 -83q90 -86 90 -265q0 -129 -37.5 -331t-85.5 -327q-72 -190 -217 -268q-101 -54 -258 -60l7 141q110 7 163 37q119 66 181 319q73 301 73 471q0 110 -44 163q-51 64 -175 64
q-275 0 -402 -279z" />
    <glyph glyph-name="afii10052" unicode="&#x403;" horiz-adv-x="1031" vert-adv-y="2457" 
d="M86 0l285 1464h805l-28 -139h-637l-257 -1325h-168zM672 1604l160 331h221l-264 -331h-117z" />
    <glyph glyph-name="afii10053" unicode="&#x404;" horiz-adv-x="1354" vert-adv-y="2457" 
d="M1404 1132l-153 -57q-20 108 -66 166q-85 107 -257 107q-195 0 -340.5 -143t-210.5 -398h664l-27 -139h-664q-9 -75 -9 -128q0 -188 83 -293q100 -126 305 -126q266 0 415 232l137 -85q-204 -286 -571 -286q-251 0 -393 141q-154 153 -154 423q0 169 54 339t149 300
q220 302 563 302q126 0 228 -41t161 -115q54 -68 86 -199z" />
    <glyph glyph-name="afii10054" unicode="&#x405;" horiz-adv-x="1231" vert-adv-y="2457" 
d="M1171 1140l-156 -38q-31 97 -75 147q-83 94 -239 94q-138 0 -216.5 -65t-78.5 -179q0 -96 56 -148t230 -117q190 -71 270 -137q123 -102 123 -272q0 -176 -118 -297q-143 -146 -393 -146q-451 0 -531 421l163 31q27 -133 84 -200q97 -113 282 -113q183 0 275 99
q70 76 70 192q0 98 -59 155t-227 120q-186 70 -265 133q-120 96 -120 261q0 198 150 310q121 91 303 91q373 0 472 -342z" />
    <glyph glyph-name="afii10055" unicode="&#x406;" horiz-adv-x="582" vert-adv-y="2457" 
d="M102 0l285 1464h168l-285 -1464h-168z" />
    <glyph glyph-name="afii10056" unicode="&#x407;" horiz-adv-x="582" vert-adv-y="2457" 
d="M102 0l285 1464h168l-285 -1464h-168zM335 1825q43 0 70.5 -26.5t27.5 -66.5q0 -47 -34.5 -81.5t-81.5 -34.5q-40 0 -67.5 27t-27.5 67q0 48 33 81.5t80 33.5zM697 1825q43 0 70.5 -26.5t27.5 -66.5q0 -47 -34.5 -81.5t-80.5 -34.5q-41 0 -68.5 27t-27.5 67q0 48 33 81.5
t80 33.5z" />
    <glyph glyph-name="afii10057" unicode="&#x408;" horiz-adv-x="1102" vert-adv-y="2457" 
d="M1101 1464l-204 -1052q-41 -209 -160 -319.5t-304 -110.5q-191 0 -290 109q-84 92 -84 244q0 72 25 181h165q-22 -120 -22 -189q0 -206 208 -206q143 0 217 97q54 72 79 200l202 1046h168z" />
    <glyph glyph-name="afii10058" unicode="&#x409;" horiz-adv-x="1957" vert-adv-y="2457" 
d="M829 0l257 1323h-546l-33 -170q-95 -450 -184 -689q-89 -245 -237 -464h-190q142 170 230 386q122 300 224 802l57 276h875l-120 -616h288q244 0 341 -86q96 -87 96 -237q0 -114 -47 -221t-129 -178q-78 -68 -176 -97t-250 -29h-456zM1025 141h320q195 0 289 111
q86 102 86 248q0 106 -64.5 156.5t-200.5 50.5h-320z" />
    <glyph glyph-name="afii10059" unicode="&#x40a;" horiz-adv-x="2013" vert-adv-y="2457" 
d="M539 1464l-120 -616h622l120 616h168l-119 -612h252q243 0 350 -85q130 -104 130 -296q0 -106 -45 -201.5t-126 -159.5q-78 -62 -172.5 -86t-261.5 -24h-460l137 709h-623l-137 -709h-168l285 1464h168zM1071 139h293q122 0 190.5 23t121.5 81q88 97 88 228
q0 64 -24 117.5t-65 81.5q-64 43 -195 43h-297z" />
    <glyph glyph-name="afii10060" unicode="&#x40b;" horiz-adv-x="1540" vert-adv-y="2457" 
d="M467 0h-168l257 1325h-403l27 139h1118l-27 -139h-547l-104 -537q150 172 390 172q370 0 370 -345q0 -79 -25 -207l-79 -408h-168l77 399q27 136 27 203q0 107 -49 158q-57 61 -188 61q-282 0 -403 -279z" />
    <glyph glyph-name="afii10061" unicode="&#x40c;" horiz-adv-x="1248" vert-adv-y="2457" 
d="M86 0l285 1464h168l-128 -661h42q88 0 138.5 16t88.5 57q37 39 69.5 88t130.5 213q113 190 205 243q85 48 204 48q35 0 84 -4l-29 -146q-33 4 -63 4q-67 0 -105 -18.5t-80 -72.5q-40 -52 -126 -203q-77 -135 -130 -186.5t-163 -98.5q82 -27 118 -54q81 -64 140 -216
l184 -473h-188l-155 401q-65 169 -121 224t-162 55h-106l-133 -680h-168zM756 1604l160 331h221l-264 -331h-117z" />
    <glyph glyph-name="uni040D" unicode="&#x40d;" horiz-adv-x="1391" vert-adv-y="2457" 
d="M86 0l285 1464h155l-207 -1065l877 926l27 139h157l-284 -1464h-156l210 1081l-878 -926l-30 -155h-156zM964 1603l-168 332h207l65 -332h-104z" />
    <glyph glyph-name="afii10062" unicode="&#x40e;" horiz-adv-x="1111" vert-adv-y="2457" 
d="M500 300l-297 1164h170l228 -972l504 972h168l-596 -1115q-81 -151 -109.5 -196.5t-67.5 -81.5q-99 -94 -248 -94q-78 0 -136 24l62 132q47 -17 89 -17q78 0 123 34t102 134zM483 1906h129q1 -75 17 -106q32 -60 128 -60q78 0 118.5 39t51.5 127h125q-18 -291 -295 -291
q-90 0 -155 34t-94 95q-24 53 -25 162z" />
    <glyph glyph-name="afii10145" unicode="&#x40f;" horiz-adv-x="1356" vert-adv-y="2457" 
d="M86 0l285 1464h168l-257 -1323h638l257 1323h169l-285 -1464h-392l-95 -348h-136l40 348h-392z" />
    <glyph glyph-name="afii10017" unicode="&#x410;" horiz-adv-x="1257" vert-adv-y="2457" 
d="M1116 0h-164l-55 371h-603l-194 -371h-168l791 1466h163zM365 506h512l-114 761z" />
    <glyph glyph-name="afii10018" unicode="&#x411;" horiz-adv-x="1241" vert-adv-y="2457" 
d="M86 0l285 1464h813l-27 -139h-646l-85 -438h270q243 0 348 -85q125 -101 125 -296q0 -116 -45.5 -218.5t-126.5 -171.5q-78 -65 -172.5 -90.5t-259.5 -25.5h-479zM281 139h311q120 0 188.5 24.5t121.5 86.5q89 106 89 257q0 123 -67.5 182t-209.5 59h-315z" />
    <glyph glyph-name="afii10019" unicode="&#x412;" horiz-adv-x="1335" vert-adv-y="2457" 
d="M86 0l285 1464h478q168 0 270 -58q153 -88 153 -284q0 -137 -67 -225.5t-214 -145.5q102 -34 153 -88q77 -80 77 -219q0 -210 -140.5 -327t-392.5 -117h-602zM279 139h425q188 0 271 76q84 76 84 221q0 150 -107 212q-67 38 -199 38h-368zM412 825h336q98 0 154 12
t103 43q107 69 107 231q0 214 -256 214h-346z" />
    <glyph glyph-name="afii10020" unicode="&#x413;" horiz-adv-x="1031" vert-adv-y="2457" 
d="M86 0l285 1464h805l-28 -139h-637l-257 -1325h-168z" />
    <glyph glyph-name="afii10021" unicode="&#x414;" horiz-adv-x="1339" vert-adv-y="2457" 
d="M1017 0h-996l-94 -348h-140l95 489h136q65 88 107.5 173t88.5 221q116 342 190 726l40 203h877l-257 -1323h147l-96 -489h-139zM896 141l230 1182h-547l-19 -97q-165 -774 -365 -1085h701z" />
    <glyph glyph-name="afii10022" unicode="&#x415;" horiz-adv-x="1210" vert-adv-y="2457" 
d="M86 0l285 1464h876l-27 -139h-711l-101 -520h581l-25 -139h-582l-103 -527h748l-28 -139h-913z" />
    <glyph glyph-name="afii10024" unicode="&#x416;" horiz-adv-x="1733" vert-adv-y="2457" 
d="M680 0l132 680q-98 0 -146 -24q-97 -49 -248 -255l-296 -401h-202l349 473q91 122 163.5 179t179.5 91q-94 49 -121 112q-26 60 -54 252q-20 128 -52.5 171.5t-110.5 43.5q-32 0 -67 -4l28 146q52 4 68 4q123 0 186 -64q32 -32 51 -84.5t41 -167.5q33 -173 48.5 -225.5
t41.5 -80.5q40 -43 165 -43l129 661h164l-129 -661q83 0 121 6t70 24q39 22 82 88t127 231q96 190 177 252q84 64 208 64q24 0 73 -4l-28 -146q-34 4 -61 4q-58 0 -90 -18.5t-68 -72.5q-41 -61 -107 -203q-67 -145 -110.5 -194t-153.5 -105q59 -25 90 -60q66 -74 109 -196
l165 -473h-186l-139 401q-44 126 -87 189.5t-95 80.5q-30 9 -121 9l-132 -680h-164z" />
    <glyph glyph-name="afii10025" unicode="&#x417;" horiz-adv-x="1287" vert-adv-y="2457" 
d="M22 386l159 37q14 -89 36.5 -136t65.5 -82q99 -82 276 -82q206 0 306 102q87 89 87 219q0 122 -84.5 189.5t-235.5 67.5h-201l27 139h194q174 0 275 67q117 78 117 208q0 105 -78 165q-80 63 -222 63q-129 0 -220.5 -49.5t-162.5 -156.5l-132 79q164 266 527 266
q222 0 347 -106q115 -98 115 -256q0 -193 -170 -291q-52 -30 -146 -60q80 -30 118 -62q110 -92 110 -256q0 -100 -43 -190t-121 -152q-158 -127 -417 -127q-294 0 -433 164q-65 77 -94 240z" />
    <glyph glyph-name="afii10026" unicode="&#x418;" horiz-adv-x="1391" vert-adv-y="2457" 
d="M86 0l285 1464h155l-207 -1065l877 926l27 139h157l-284 -1464h-156l210 1081l-878 -926l-30 -155h-156z" />
    <glyph glyph-name="afii10027" unicode="&#x419;" horiz-adv-x="1391" vert-adv-y="2457" 
d="M86 0l285 1464h155l-207 -1065l877 926l27 139h157l-284 -1464h-156l210 1081l-878 -926l-30 -155h-156zM635 1906h129q1 -75 17 -106q32 -60 128 -60q78 0 118.5 39t51.5 127h125q-18 -291 -295 -291q-90 0 -155 34t-94 95q-24 53 -25 162z" />
    <glyph glyph-name="afii10028" unicode="&#x41a;" horiz-adv-x="1248" vert-adv-y="2457" 
d="M86 0l285 1464h168l-128 -661h42q88 0 138.5 16t88.5 57q37 39 69.5 88t130.5 213q113 190 205 243q85 48 204 48q35 0 84 -4l-29 -146q-33 4 -63 4q-67 0 -105 -18.5t-80 -72.5q-40 -52 -126 -203q-77 -135 -130 -186.5t-163 -98.5q82 -27 118 -54q81 -64 140 -216
l184 -473h-188l-155 401q-65 169 -121 224t-162 55h-106l-133 -680h-168z" />
    <glyph glyph-name="afii10029" unicode="&#x41b;" horiz-adv-x="1292" vert-adv-y="2457" 
d="M829 0l257 1323h-546l-33 -170q-95 -450 -184 -689q-89 -243 -237 -464h-190q142 171 230 386q122 299 224 802l57 276h875l-285 -1464h-168z" />
    <glyph glyph-name="afii10030" unicode="&#x41c;" horiz-adv-x="1683" vert-adv-y="2457" 
d="M86 0l285 1464h231l178 -1255l654 1255h239l-284 -1464h-164l239 1235l-645 -1235h-155l-183 1235l-239 -1235h-156z" />
    <glyph glyph-name="afii10031" unicode="&#x41d;" horiz-adv-x="1393" vert-adv-y="2457" 
d="M86 0l285 1464h168l-129 -667h675l129 667h168l-284 -1464h-168l127 658h-676l-127 -658h-168z" />
    <glyph glyph-name="afii10032" unicode="&#x41e;" horiz-adv-x="1569" vert-adv-y="2457" 
d="M905 1482q244 0 399 -155q174 -173 174 -477q0 -280 -129 -506q-100 -176 -256.5 -269t-350.5 -93q-243 0 -400 155q-175 173 -175 480q0 224 86 419q79 180 220 295q184 151 432 151zM894 1343q-194 0 -331 -128q-113 -105 -171 -285q-49 -151 -49 -325q0 -262 136 -387
q107 -97 282 -97q185 0 318 127q112 106 170 288q50 153 50 325q0 264 -136 389q-103 93 -269 93z" />
    <glyph glyph-name="afii10033" unicode="&#x41f;" horiz-adv-x="1387" vert-adv-y="2457" 
d="M86 0l285 1464h1006l-285 -1464h-169l256 1317h-669l-256 -1317h-168z" />
    <glyph glyph-name="afii10034" unicode="&#x420;" horiz-adv-x="1270" vert-adv-y="2457" 
d="M86 0l285 1464h435q125 0 198 -16t128 -55q134 -95 134 -294q0 -236 -159 -365q-142 -115 -412 -115h-323l-120 -619h-166zM399 758h318q383 0 383 339q0 127 -78 184q-60 44 -228 44h-284z" />
    <glyph glyph-name="afii10035" unicode="&#x421;" horiz-adv-x="1454" vert-adv-y="2457" 
d="M1311 405q-67 -144 -128 -217q-173 -206 -461 -206q-258 0 -407 168q-147 167 -147 458q0 279 124 502q96 173 247 270q159 102 357 102q270 0 397 -185q36 -52 54.5 -105t37.5 -156l-156 -31q-22 130 -63 197q-85 141 -276 141q-244 0 -394 -213t-150 -528
q0 -189 67 -307q99 -174 322 -174q151 0 256.5 83t177.5 259z" />
    <glyph glyph-name="afii10036" unicode="&#x422;" horiz-adv-x="1241" vert-adv-y="2457" 
d="M434 0l257 1325h-446l27 139h1057l-27 -139h-447l-257 -1325h-164z" />
    <glyph glyph-name="afii10037" unicode="&#x423;" horiz-adv-x="1111" vert-adv-y="2457" 
d="M500 300l-297 1164h170l228 -972l504 972h168l-596 -1115q-81 -151 -109.5 -196.5t-67.5 -81.5q-99 -94 -248 -94q-78 0 -136 24l62 132q47 -17 89 -17q78 0 123 34t102 134z" />
    <glyph glyph-name="afii10038" unicode="&#x424;" horiz-adv-x="1664" vert-adv-y="2457" 
d="M633 -61l41 210q-129 11 -207 34.5t-143 71.5q-165 120 -165 349q0 203 111 378q139 219 393 295q91 27 238 39l41 210h164l-41 -210q130 -11 207.5 -34.5t142.5 -71.5q165 -120 165 -348q0 -205 -111 -379q-139 -219 -393 -295q-91 -27 -238 -39l-41 -210h-164zM700 279
l176 907q-234 -21 -362 -136q-98 -88 -142 -231q-36 -113 -36 -221q0 -286 364 -319zM863 279q234 21 362 136q98 88 142 231q36 113 36 222q0 285 -363 318z" />
    <glyph glyph-name="afii10039" unicode="&#x425;" horiz-adv-x="1217" vert-adv-y="2457" 
d="M-53 0l606 762l-291 702h179l241 -586l455 586h188l-573 -723l309 -741h-178l-258 627l-492 -627h-186z" />
    <glyph glyph-name="afii10040" unicode="&#x426;" horiz-adv-x="1364" vert-adv-y="2457" 
d="M86 0l285 1464h168l-257 -1323h638l257 1323h169l-257 -1323h146l-95 -489h-140l41 348h-955z" />
    <glyph glyph-name="afii10041" unicode="&#x427;" horiz-adv-x="1292" vert-adv-y="2457" 
d="M997 0h-168l110 566q-127 -154 -363 -154q-192 0 -289 112q-70 80 -70 218q0 90 27 231l96 491h168l-99 -509q-24 -123 -24 -201q0 -203 237 -203q146 0 245.5 79t126.5 216l120 618h168z" />
    <glyph glyph-name="afii10042" unicode="&#x428;" horiz-adv-x="1974" vert-adv-y="2457" 
d="M86 0l285 1464h168l-257 -1323h544l257 1323h168l-257 -1323h544l257 1323h169l-285 -1464h-1593z" />
    <glyph glyph-name="afii10043" unicode="&#x429;" horiz-adv-x="1982" vert-adv-y="2457" 
d="M86 0l285 1464h168l-257 -1323h544l257 1323h168l-257 -1323h544l257 1323h169l-257 -1323h146l-95 -489h-140l41 348h-1573z" />
    <glyph glyph-name="afii10044" unicode="&#x42a;" horiz-adv-x="1395" vert-adv-y="2457" 
d="M710 1464l-109 -561h252q243 0 348 -88q123 -103 123 -302q0 -120 -45.5 -224t-127.5 -173q-78 -65 -172.5 -90.5t-259.5 -25.5h-461l257 1325h-356l27 139h524zM453 139h293q120 0 188.5 24.5t121.5 86.5q90 107 90 264q0 129 -66.5 189.5t-207.5 60.5h-298z" />
    <glyph glyph-name="afii10045" unicode="&#x42b;" horiz-adv-x="1712" vert-adv-y="2457" 
d="M1249 0l285 1464h167l-284 -1464h-168zM539 1464l-109 -561h251q243 0 348 -88q124 -103 124 -302q0 -120 -45.5 -224t-128.5 -173q-77 -65 -172 -90.5t-260 -25.5h-461l285 1464h168zM281 139h293q120 0 189 24.5t122 86.5q90 107 90 264q0 129 -67 189.5t-208 60.5
h-298z" />
    <glyph glyph-name="afii10046" unicode="&#x42c;" horiz-adv-x="1223" vert-adv-y="2457" 
d="M539 1464l-109 -561h251q243 0 348 -88q124 -103 124 -302q0 -120 -45.5 -224t-128.5 -173q-77 -65 -172 -90.5t-260 -25.5h-461l285 1464h168zM281 139h293q120 0 189 24.5t122 86.5q90 107 90 264q0 129 -67 189.5t-208 60.5h-298z" />
    <glyph glyph-name="afii10047" unicode="&#x42d;" horiz-adv-x="1331" vert-adv-y="2457" 
d="M390 807h671q4 52 4 92v5q0 444 -355 444q-258 0 -420 -230l-143 76q93 128 192 192q158 101 368 101q290 0 422 -179q114 -154 114 -413q0 -206 -66.5 -393t-184.5 -314q-191 -206 -476 -206q-410 0 -504 355l153 58q66 -274 365 -274q192 0 324 141.5t186 405.5h-677z
" />
    <glyph glyph-name="afii10048" unicode="&#x42e;" horiz-adv-x="2068" vert-adv-y="2457" 
d="M539 1464l-130 -665h310q29 177 112 324q79 140 198 230q172 129 395 129q252 0 406 -177q148 -169 148 -452q0 -281 -126 -508q-100 -181 -261 -276q-148 -87 -324 -87q-206 0 -349 116q-112 91 -162.5 225t-50.5 337h-323l-128 -660h-168l285 1464h168zM1405 1343
q-179 0 -311 -128q-109 -105 -165 -284q-48 -152 -48 -325q0 -215 89 -339q104 -146 301 -146q275 0 416 261q113 210 113 475q0 208 -82 335q-98 151 -313 151z" />
    <glyph glyph-name="afii10049" unicode="&#x42f;" horiz-adv-x="1335" vert-adv-y="2457" 
d="M1325 1464l-284 -1464h-168l124 639h-247q-97 0 -157 -16t-109 -54q-48 -38 -80 -92.5t-80 -180.5q-48 -124 -77 -181.5t-73 -114.5h-188l2 10q52 61 87 130t109 258q48 121 115 185.5t186 103.5q-99 33 -148 89q-84 96 -84 245q0 185 125 313q69 71 159 100.5t238 29.5
h550zM1024 778l106 547h-373q-117 0 -182 -34q-69 -35 -109.5 -110t-40.5 -167q0 -116 68 -180q60 -56 179 -56h352z" />
    <glyph glyph-name="afii10065" unicode="&#x430;" horiz-adv-x="1075" vert-adv-y="2457" 
d="M659 143q-136 -161 -308 -161q-134 0 -218 79.5t-84 205.5q0 132 80.5 213.5t251.5 121.5q117 28 362 37l13 67q8 47 8 74q0 168 -181 168q-161 0 -315 -123l-80 109q183 155 415 155q168 0 253 -83q76 -73 76 -196q0 -49 -11 -104l-92 -477q-3 -17 -3 -32q0 -71 102 -74
l-27 -131q-31 -3 -45 -3q-172 0 -197 154zM719 520q-195 -6 -301 -34q-199 -54 -199 -214q0 -155 180 -155q111 0 190 64.5t99 172.5z" />
    <glyph glyph-name="afii10066" unicode="&#x431;" horiz-adv-x="1140" vert-adv-y="2457" 
d="M1115 1542l-56 -143h-205q-181 0 -256 -33q-91 -41 -148 -148t-104 -326q95 109 175 153.5t186 44.5q169 0 255 -108q95 -119 95 -313q0 -129 -39.5 -254t-109.5 -219q-159 -214 -396 -214q-183 0 -293 119q-106 114 -106 300q0 174 66 454.5t141 424.5q39 77 103.5 137
t134.5 86q105 39 267 39h290zM673 951q-89 0 -168 -53.5t-134 -149.5q-90 -158 -90 -350q0 -124 58 -198q62 -79 172 -79q176 0 284 203q40 74 64 172.5t24 186.5q0 120 -48 189q-54 79 -162 79z" />
    <glyph glyph-name="afii10067" unicode="&#x432;" horiz-adv-x="1130" vert-adv-y="2457" 
d="M86 0l208 1071h420q326 0 326 -247q0 -184 -173 -267q143 -68 143 -218q0 -77 -32.5 -146.5t-89.5 -112.5q-104 -80 -295 -80h-507zM281 139h312q111 0 171 47q74 59 74 151q0 145 -180 145h-310zM374 621h293q101 0 151 52q54 58 54 143q0 116 -152 116h-284z" />
    <glyph glyph-name="afii10068" unicode="&#x433;" horiz-adv-x="871" vert-adv-y="2457" 
d="M92 0l208 1071h633l-27 -141h-463l-181 -930h-170z" />
    <glyph glyph-name="afii10069" unicode="&#x434;" horiz-adv-x="1150" vert-adv-y="2457" 
d="M932 906q6 115 6 166q0 191 -61 274q-55 75 -176 75q-140 0 -275 -122l-90 109q94 83 181.5 118t199.5 35q201 0 290.5 -121t89.5 -393q0 -222 -37.5 -428.5t-101.5 -338.5q-70 -144 -186 -221t-263 -77q-177 0 -285 100q-125 118 -125 336q0 160 59 311q69 174 188 267
t274 93q230 0 312 -183zM641 950q-186 0 -293 -214q-75 -151 -75 -328q0 -145 73 -225q56 -62 157 -62q195 0 304 222q76 154 76 325q0 131 -59 203q-65 79 -183 79z" />
    <glyph glyph-name="afii10070" unicode="&#x435;" horiz-adv-x="1069" vert-adv-y="2457" 
d="M905 199q-164 -217 -413 -217q-191 0 -297 117q-103 114 -103 314q0 277 169 476q169 200 417 200q165 0 255 -96q74 -78 74 -199q0 -172 -181 -256t-559 -87q-3 -27 -3 -50q0 -280 238 -280q171 0 286 155zM282 582q297 0 425 48.5t128 160.5q0 76 -45 117.5t-128 41.5
q-143 0 -239 -93t-141 -275z" />
    <glyph glyph-name="afii10072" unicode="&#x436;" horiz-adv-x="1460" vert-adv-y="2457" 
d="M541 0l97 496h-81q-68 0 -103 -24q-49 -35 -115 -140l-210 -332h-199l218 332q70 106 124.5 154.5t137.5 77.5q-50 32 -67 72.5t-47 202.5q-11 60 -28 75.5t-74 15.5h-46l27 141h37q119 0 159 -32q25 -21 40 -60t37 -139q33 -156 58 -189t109 -33h47l88 453h168l-88 -453
h84q82 0 124 42q42 43 107 174q78 158 125 197.5t157 39.5h66l-28 -141h-46q-53 0 -71.5 -21t-73.5 -142q-45 -100 -90.5 -149t-123.5 -81q87 -50 142 -205l119 -332h-178l-115 332q-34 99 -70 131.5t-111 32.5h-41l-96 -496h-169z" />
    <glyph glyph-name="afii10073" unicode="&#x437;" horiz-adv-x="1022" vert-adv-y="2457" 
d="M2 286l159 35q24 -112 79 -151q68 -49 192 -49q100 0 169 39q46 26 73.5 72t27.5 97q0 76 -60.5 119.5t-165.5 43.5h-168l27 139h162q109 0 180 40q91 50 91 135q0 66 -54 105t-145 39q-197 0 -283 -132l-131 72q116 199 415 199q176 0 271 -72t95 -198q0 -89 -46 -149
t-150 -105q136 -67 136 -219q0 -82 -35.5 -154.5t-97.5 -118.5q-121 -91 -317 -91q-248 0 -353 127q-51 63 -71 177z" />
    <glyph glyph-name="afii10074" unicode="&#x438;" horiz-adv-x="1206" vert-adv-y="2457" 
d="M92 0l208 1071h170l-139 -716l589 595l23 121h170l-208 -1071h-170l141 727l-588 -594l-26 -133h-170z" />
    <glyph glyph-name="afii10075" unicode="&#x439;" horiz-adv-x="1206" vert-adv-y="2457" 
d="M92 0l208 1071h170l-139 -716l589 595l23 121h170l-208 -1071h-170l141 727l-588 -594l-26 -133h-170zM475 1536h129q1 -75 14 -106q28 -60 111 -60q131 0 149 166h125q-16 -291 -275 -291q-83 0 -144 34.5t-86 94.5q-22 54 -23 162z" />
    <glyph glyph-name="afii10076" unicode="&#x43a;" horiz-adv-x="1075" vert-adv-y="2457" 
d="M86 0l208 1071h169l-89 -457h66q90 0 130.5 34t135.5 187q63 102 94.5 141.5t66.5 61.5q54 33 180 33h49l-27 -141h-38q-71 0 -94 -19.5t-94 -137.5q-68 -111 -106.5 -149.5t-119.5 -73.5q60 -22 103.5 -73.5t81.5 -145.5l131 -331h-184l-128 332q-31 82 -73 116.5
t-109 34.5h-91l-94 -483h-168z" />
    <glyph glyph-name="afii10077" unicode="&#x43b;" horiz-adv-x="1136" vert-adv-y="2457" 
d="M672 0l181 930h-374l-39 -201q-88 -452 -294 -729h-201q127 147 211 342.5t136 467.5l51 261h706l-208 -1071h-169z" />
    <glyph glyph-name="afii10078" unicode="&#x43c;" horiz-adv-x="1450" vert-adv-y="2457" 
d="M294 1071h240l127 -851l449 851h253l-208 -1071h-156l180 925l-489 -925h-129l-139 925l-180 -925h-156z" />
    <glyph glyph-name="afii10079" unicode="&#x43d;" horiz-adv-x="1186" vert-adv-y="2457" 
d="M86 0l208 1071h168l-89 -457h469l89 457h168l-208 -1071h-168l92 475h-469l-92 -475h-168z" />
    <glyph glyph-name="afii10080" unicode="&#x43e;" horiz-adv-x="1139" vert-adv-y="2457" 
d="M639 1089q199 0 308 -136q95 -118 95 -316q0 -150 -51.5 -287.5t-141.5 -227.5q-139 -140 -343 -140q-201 0 -314 140q-96 121 -96 321q0 266 153 457q151 189 390 189zM629 952q-183 0 -280 -172q-83 -148 -83 -356q0 -305 245 -305q176 0 268 165q89 159 89 372
q0 296 -239 296z" />
    <glyph glyph-name="afii10081" unicode="&#x43f;" horiz-adv-x="1179" vert-adv-y="2457" 
d="M86 0l208 1071h798l-208 -1071h-168l180 930h-461l-181 -930h-168z" />
    <glyph glyph-name="afii10082" unicode="&#x440;" vert-adv-y="2457" 
d="M14 -373l281 1444h168l-30 -154q131 172 333 172q166 0 265 -112q101 -114 101 -320q0 -140 -41 -267.5t-116 -221.5q-150 -186 -375 -186q-228 0 -308 215l-110 -570h-168zM719 950q-126 0 -225 -92q-73 -68 -114.5 -181t-41.5 -244q0 -149 69 -230.5t195 -81.5
q177 0 270 163q86 149 86 358q0 308 -239 308z" />
    <glyph glyph-name="afii10083" unicode="&#x441;" horiz-adv-x="1077" vert-adv-y="2457" 
d="M920 229q-88 -124 -171 -178q-108 -69 -255 -69q-174 0 -282 108q-120 119 -120 333q0 138 42 265.5t118 219.5q150 181 386 181q131 0 218 -59t143 -186l-139 -74q-36 76 -66 113q-55 67 -164 67q-188 0 -283 -169q-81 -144 -81 -346q0 -314 245 -314q90 0 154 41.5
t136 146.5z" />
    <glyph glyph-name="afii10084" unicode="&#x442;" horiz-adv-x="805" vert-adv-y="2457" 
d="M213 0l181 932h-311l27 139h792l-26 -139h-314l-181 -932h-168z" />
    <glyph glyph-name="afii10085" unicode="&#x443;" horiz-adv-x="940" vert-adv-y="2457" 
d="M1023 1071l-670 -1251q-58 -110 -126.5 -157.5t-167.5 -47.5q-110 0 -193 72l80 114q51 -57 118 -57q101 0 164 131l72 147l-176 1049h174l129 -821l416 821h180z" />
    <glyph glyph-name="afii10086" unicode="&#x444;" horiz-adv-x="1635" vert-adv-y="2457" 
d="M566 -373l101 516q-109 -161 -267 -161q-134 0 -213 99q-95 121 -95 327q0 130 36.5 259.5t100.5 223.5q132 198 331 198q90 0 159 -46t98 -126l122 625h151l-118 -608q110 155 263 155q70 0 130.5 -31.5t98.5 -86.5q80 -117 80 -303q0 -128 -37.5 -260t-101.5 -228
q-132 -198 -328 -198q-94 0 -158.5 44.5t-97.5 132.5l-103 -532h-152zM1203 950q-62 0 -120.5 -40.5t-100.5 -113.5q-51 -86 -81.5 -206t-30.5 -234q0 -85 32 -146q46 -89 159 -89q109 0 177 96q58 81 95 213t37 256q0 123 -44.5 193.5t-122.5 70.5zM583 950
q-119 0 -196 -124q-55 -89 -88 -215t-33 -248q0 -242 166 -242q112 0 193 106q67 88 105 233q36 133 36 242q0 113 -46 178q-50 70 -137 70z" />
    <glyph glyph-name="afii10087" unicode="&#x445;" horiz-adv-x="1020" vert-adv-y="2457" 
d="M-55 0l471 563l-240 508h185l172 -395l313 395h195l-437 -518l263 -553h-185l-192 440l-355 -440h-190z" />
    <glyph glyph-name="afii10088" unicode="&#x446;" horiz-adv-x="1162" vert-adv-y="2457" 
d="M86 0l208 1071h169l-181 -930h444l180 930h169l-181 -930h118l-88 -448h-139l40 307h-739z" />
    <glyph glyph-name="afii10089" unicode="&#x447;" horiz-adv-x="1104" vert-adv-y="2457" 
d="M245 1071h168l-74 -379q-13 -69 -13 -114q0 -148 184 -148q95 0 165 51.5t86 133.5l88 456h168l-208 -1071h-168l78 401q-101 -110 -263 -110q-141 0 -219.5 69.5t-78.5 193.5q0 69 21 176z" />
    <glyph glyph-name="afii10090" unicode="&#x448;" horiz-adv-x="1662" vert-adv-y="2457" 
d="M86 0l208 1071h169l-181 -930h388l181 930h168l-181 -930h388l181 930h168l-208 -1071h-1281z" />
    <glyph glyph-name="afii10091" unicode="&#x449;" horiz-adv-x="1662" vert-adv-y="2457" 
d="M86 0l208 1071h169l-181 -929h388l181 929h168l-181 -929h388l181 929h168l-180 -929h117l-87 -449h-140l40 307h-1239z" />
    <glyph glyph-name="afii10092" unicode="&#x44a;" horiz-adv-x="1135" vert-adv-y="2457" 
d="M162 0l181 932h-260l27 139h428l-73 -375h210q195 0 277 -68q94 -78 94 -226q0 -92 -34.5 -174.5t-95.5 -136.5q-57 -50 -126.5 -70.5t-180.5 -20.5h-447zM356 139h266q138 0 204 94q48 69 48 153q0 171 -182 171h-254z" />
    <glyph glyph-name="afii10093" unicode="&#x44b;" horiz-adv-x="1491" vert-adv-y="2457" 
d="M1028 0l208 1071h168l-208 -1071h-168zM462 1071l-73 -375h210q195 0 278 -68q94 -78 94 -226q0 -92 -34.5 -174.5t-95.5 -136.5q-57 -50 -126.5 -70.5t-181.5 -20.5h-447l208 1071h168zM281 139h266q137 0 204 94q48 69 48 153q0 171 -183 171h-254z" />
    <glyph glyph-name="afii10094" unicode="&#x44c;" horiz-adv-x="1059" vert-adv-y="2457" 
d="M462 1071l-73 -375h210q195 0 278 -68q94 -78 94 -226q0 -92 -34.5 -174.5t-95.5 -136.5q-57 -50 -126.5 -70.5t-181.5 -20.5h-447l208 1071h168zM281 139h266q137 0 204 94q48 69 48 153q0 171 -183 171h-254z" />
    <glyph glyph-name="afii10095" unicode="&#x44d;" horiz-adv-x="1044" vert-adv-y="2457" 
d="M275 469l27 139h470q7 38 7 70q0 128 -61.5 200t-170.5 72q-81 0 -148.5 -30t-153.5 -104l-105 106q168 167 403 167q194 0 296 -109q112 -118 112 -326q0 -253 -136 -445q-160 -227 -431 -227q-292 0 -398 221l142 89q37 -67 72 -101q73 -70 198 -70q261 0 350 348h-473
z" />
    <glyph glyph-name="afii10096" unicode="&#x44e;" horiz-adv-x="1599" vert-adv-y="2457" 
d="M462 1071l-91 -469h227q33 160 116 275q151 212 398 212q192 0 297 -133q94 -118 94 -317q0 -151 -50 -289t-138 -228q-136 -140 -331 -140q-151 0 -252 82t-135 233q-15 65 -15 166h-238l-90 -463h-168l208 1071h168zM1101 950q-177 0 -270 -171q-81 -148 -81 -349
q0 -309 232 -309q172 0 261 164q86 159 86 371q0 134 -51 209q-58 85 -177 85z" />
    <glyph glyph-name="afii10097" unicode="&#x44f;" horiz-adv-x="1124" vert-adv-y="2457" 
d="M830 0h-168l85 438h-197q-109 0 -166 -46q-33 -26 -52 -58.5t-54 -120.5q-54 -136 -116 -213h-176l8 39q56 59 139 263q32 78 71 120.5t111 76.5q-136 72 -136 228q0 149 95 246q53 55 120.5 76.5t183.5 21.5h460zM774 577l69 355h-282q-100 0 -152 -49q-62 -57 -62 -153
q0 -82 44.5 -117.5t146.5 -35.5h236z" />
    <glyph glyph-name="uni0450" unicode="&#x450;" horiz-adv-x="1061" vert-adv-y="2457" 
d="M901 199q-164 -217 -413 -217q-189 0 -294 117q-102 114 -102 314q0 269 159 466q170 210 424 210q162 0 251 -96q73 -78 73 -200q0 -172 -177.5 -254.5t-561.5 -87.5v-48q0 -284 236 -284q172 0 288 157zM278 582q297 0 425 48.5t128 160.5q0 77 -45.5 119t-128.5 42
q-193 0 -304 -177q-45 -74 -75 -193zM700 1210l-168 332h207l65 -332h-104z" />
    <glyph glyph-name="afii10071" unicode="&#x451;" horiz-adv-x="1061" vert-adv-y="2457" 
d="M905 199q-164 -217 -413 -217q-191 0 -297 117q-103 114 -103 314q0 277 169 476q169 200 417 200q165 0 255 -96q74 -78 74 -199q0 -172 -181 -256t-559 -87q-3 -27 -3 -50q0 -280 238 -280q171 0 286 155zM282 582q297 0 425 48.5t128 160.5q0 76 -45 117.5t-128 41.5
q-143 0 -239 -93t-141 -275zM523 1495q43 0 70.5 -26t27.5 -67q0 -47 -34.5 -81.5t-81.5 -34.5q-40 0 -67.5 27t-27.5 67q0 48 33.5 81.5t79.5 33.5zM885 1495q43 0 70.5 -26t27.5 -67q0 -47 -34 -81.5t-81 -34.5q-41 0 -68.5 27t-27.5 67q0 48 33.5 81.5t79.5 33.5z" />
    <glyph glyph-name="afii10099" unicode="&#x452;" horiz-adv-x="1188" vert-adv-y="2457" 
d="M554 1542l-34 -174h248l-26 -133h-248l-61 -318q127 172 321 172q137 0 213.5 -79t76.5 -221q0 -54 -14 -125l-77 -396q-43 -224 -92 -341.5t-128 -190.5q-67 -61 -146 -89t-199 -34l16 129q89 6 137 24.5t87 62.5q52 57 86 150.5t70 280.5l80 416q12 61 12 99
q0 175 -175 175q-124 0 -209.5 -84t-114.5 -233l-123 -633h-168l239 1235h-146l26 133h146l34 174h169z" />
    <glyph glyph-name="afii10100" unicode="&#x453;" horiz-adv-x="871" vert-adv-y="2457" 
d="M92 0l208 1071h633l-27 -141h-463l-181 -930h-170zM530 1210l160 332h221l-264 -332h-117z" />
    <glyph glyph-name="afii10101" unicode="&#x454;" horiz-adv-x="1050" vert-adv-y="2457" 
d="M303 614h469l-27 -139h-470q-8 -42 -8 -80q0 -135 71 -209q64 -65 196 -65q95 0 164.5 33t135.5 108l114 -93q-62 -70 -128 -111q-123 -76 -292 -76q-240 0 -353 151q-82 110 -82 284q0 132 42.5 256t120.5 218q162 198 412 198q273 0 373 -212l-124 -81q-42 72 -77 101
q-64 53 -172 53q-265 0 -365 -336z" />
    <glyph glyph-name="afii10102" unicode="&#x455;" horiz-adv-x="991" vert-adv-y="2457" 
d="M783 801q-92 149 -247 149q-88 0 -137.5 -38t-49.5 -107q0 -61 37 -98.5t147 -87.5q165 -75 210 -113q97 -82 97 -205q0 -143 -110.5 -231t-288.5 -88q-287 0 -416 235l139 82q56 -97 121.5 -137.5t167.5 -40.5q89 0 144 31q75 42 75 130q0 73 -65 119q-31 23 -150 77
q-122 56 -185 114q-83 78 -83 199q0 163 139 242q98 56 229 56q228 0 357 -194z" />
    <glyph glyph-name="afii10103" unicode="&#x456;" horiz-adv-x="557" vert-adv-y="2457" 
d="M451 1497q42 0 70 -26.5t28 -67.5q0 -49 -34.5 -84t-82.5 -35q-43 0 -70.5 27.5t-27.5 69.5q0 49 33.5 82.5t83.5 33.5zM90 0l209 1071h168l-209 -1071h-168z" />
    <glyph glyph-name="afii10104" unicode="&#x457;" horiz-adv-x="557" vert-adv-y="2457" 
d="M90 0l209 1071h168l-209 -1071h-168zM259 1495q43 0 70.5 -26t27.5 -67q0 -47 -34.5 -81.5t-81.5 -34.5q-40 0 -67.5 27t-27.5 67q0 48 33.5 81.5t79.5 33.5zM621 1495q43 0 70.5 -26t27.5 -67q0 -47 -34 -81.5t-81 -34.5q-41 0 -68.5 27t-27.5 67q0 48 33.5 81.5
t79.5 33.5z" />
    <glyph glyph-name="afii10105" unicode="&#x458;" horiz-adv-x="557" vert-adv-y="2457" 
d="M467 1071l-236 -1206q-49 -254 -298 -254q-80 0 -146 41l55 127q53 -29 95 -29q104 0 126 117l236 1204h168zM451 1497q42 0 70 -26.5t28 -67.5q0 -49 -34.5 -84t-82.5 -35q-43 0 -70.5 27.5t-27.5 69.5q0 49 33.5 82.5t83.5 33.5z" />
    <glyph glyph-name="afii10106" unicode="&#x459;" horiz-adv-x="1637" vert-adv-y="2457" 
d="M672 0l181 930h-374l-39 -201q-88 -451 -294 -729h-201q127 147 211 342.5t136 467.5l51 261h706l-75 -387h243q190 0 264 -66q71 -65 71 -184q0 -98 -37.5 -189.5t-101.5 -147.5q-59 -52 -134.5 -74.5t-194.5 -22.5h-412zM868 137h266q124 0 189 83q60 75 60 175
q0 152 -169 152h-267z" />
    <glyph glyph-name="afii10107" unicode="&#x45a;" horiz-adv-x="1681" vert-adv-y="2457" 
d="M835 651l82 420h168l-75 -387h209q194 0 277 -66q95 -76 95 -222q0 -89 -34.5 -170t-94.5 -135q-56 -50 -125.5 -70.5t-180.5 -20.5h-447l99 512h-455l-99 -512h-168l208 1071h168l-81 -420h454zM903 139h267q104 0 166 55q37 33 60 84.5t23 102.5q0 164 -182 164h-255z
" />
    <glyph glyph-name="afii10108" unicode="&#x45b;" horiz-adv-x="1184" vert-adv-y="2457" 
d="M351 1368l34 174h168l-33 -174h248l-26 -133h-248l-61 -318q127 172 321 172q137 0 213.5 -79t76.5 -221q0 -54 -14 -125l-129 -664h-168l131 676q12 60 12 99q0 175 -175 175q-124 0 -209.5 -84t-114.5 -233l-123 -633h-168l239 1235h-146l26 133h146z" />
    <glyph glyph-name="afii10109" unicode="&#x45c;" horiz-adv-x="1075" vert-adv-y="2457" 
d="M86 0l208 1071h169l-89 -457h66q90 0 130.5 34t135.5 187q63 102 94.5 141.5t66.5 61.5q54 33 180 33h49l-27 -141h-38q-71 0 -94 -19.5t-94 -137.5q-68 -111 -106.5 -149.5t-119.5 -73.5q60 -22 103.5 -73.5t81.5 -145.5l131 -331h-184l-128 332q-31 82 -73 116.5
t-109 34.5h-91l-94 -483h-168zM620 1210l160 332h221l-264 -332h-117z" />
    <glyph glyph-name="uni045D" unicode="&#x45d;" horiz-adv-x="1206" vert-adv-y="2457" 
d="M92 0l208 1071h170l-139 -716l589 595l23 121h170l-208 -1071h-170l141 727l-588 -594l-26 -133h-170zM707 1210l-168 332h207l65 -332h-104z" />
    <glyph glyph-name="afii10110" unicode="&#x45e;" horiz-adv-x="940" vert-adv-y="2457" 
d="M1023 1071l-670 -1251q-58 -110 -126.5 -157.5t-167.5 -47.5q-110 0 -193 72l80 114q51 -57 118 -57q101 0 164 131l72 147l-176 1049h174l129 -821l416 821h180zM337 1536h129q1 -75 14 -106q28 -60 111 -60q131 0 149 166h125q-16 -291 -275 -291q-83 0 -144 34.5
t-86 94.5q-22 54 -23 162z" />
    <glyph glyph-name="afii10193" unicode="&#x45f;" horiz-adv-x="1162" vert-adv-y="2457" 
d="M86 0l208 1071h169l-181 -930h444l181 930h168l-208 -1071h-302l-79 -307h-138l39 307h-301z" />
    <glyph glyph-name="afii10050" unicode="&#x490;" horiz-adv-x="1031" vert-adv-y="2457" 
d="M86 0l285 1464h650l74 238h127l-74 -377h-637l-257 -1325h-168z" />
    <glyph glyph-name="afii10098" unicode="&#x491;" horiz-adv-x="871" vert-adv-y="2457" 
d="M92 0l208 1071h479l62 213h133l-68 -354h-463l-181 -930h-170z" />
    <glyph glyph-name="uni0492" unicode="&#x492;" horiz-adv-x="1031" vert-adv-y="2457" 
d="M223 705h-182l22 141h188l120 618h805l-27 -139h-637l-93 -479h361l-22 -141h-367l-137 -705h-168z" />
    <glyph glyph-name="uni0493" unicode="&#x493;" horiz-adv-x="871" vert-adv-y="2457" 
d="M200 553h-147l27 141h147l74 377h633l-28 -141h-463l-46 -236h316l-27 -141h-316l-107 -553h-170z" />
    <glyph glyph-name="uni0496" unicode="&#x496;" horiz-adv-x="1733" vert-adv-y="2457" 
d="M1554 143h126l-95 -489h-140l40 346h-67l-139 401q-44 126 -87 189.5t-95 79.5q-30 9 -121 9l-132 -679h-164l132 679q-98 0 -146 -24q-96 -48 -248 -254l-296 -401h-202l349 472q91 122 163.5 179.5t179.5 91.5q-94 49 -121 111q-25 61 -54 253q-20 128 -52.5 171.5
t-110.5 43.5q-30 0 -67 -4l28 146q52 4 68 4q123 0 186 -64q32 -32 51 -84.5t41 -168.5q33 -173 48.5 -225t41.5 -80q40 -43 165 -44l129 662h164l-129 -662q83 0 121 6t70 24q39 23 82.5 89t126.5 231q96 190 177 252q84 64 208 64q24 0 73 -4l-28 -146q-35 4 -61 4
q-58 0 -90 -18t-68 -73q-41 -61 -107 -203q-67 -146 -110 -195t-154 -105q59 -24 90 -59q66 -74 109 -197z" />
    <glyph glyph-name="uni0497" unicode="&#x497;" horiz-adv-x="1460" vert-adv-y="2457" 
d="M1271 142h120l-87 -449h-140l40 307h-61l-115 333q-33 98 -69.5 130.5t-111.5 32.5h-41l-96 -496h-169l97 496h-81q-68 0 -103 -24q-50 -36 -115 -139l-210 -333h-199l218 332q70 106 125 154.5t137 77.5q-50 32 -67 72.5t-47 202.5q-11 60 -28 75.5t-74 15.5h-46l27 141
h37q119 0 159 -32q25 -21 40 -60t37 -139q33 -156 58 -189t109 -33h47l88 453h168l-88 -453h84q82 0 124 42q42 43 107 174q78 158 125 197.5t157 39.5h66l-28 -141h-46q-53 0 -71.5 -21t-73.5 -142q-45 -100 -90.5 -149t-123.5 -81q87 -50 142 -205z" />
    <glyph glyph-name="uni049A" unicode="&#x49a;" horiz-adv-x="1248" vert-adv-y="2457" 
d="M1064 142h132l-95 -489h-140l40 347h-70l-155 401q-65 169 -121 224t-162 55h-106l-133 -680h-168l285 1464h168l-128 -661h42q88 0 138.5 16t88.5 57q37 39 69.5 88t130.5 213q113 190 205 243q85 48 204 48q35 0 84 -4l-29 -146q-33 4 -63 4q-67 0 -105 -18.5
t-80 -72.5q-40 -52 -126 -203q-77 -135 -130 -186.5t-163 -98.5q82 -27 118 -54q81 -64 140 -216z" />
    <glyph glyph-name="uni049B" unicode="&#x49b;" horiz-adv-x="1075" vert-adv-y="2457" 
d="M877 142h153l-87 -449h-140l40 307h-94l-128 332q-31 82 -73 116.5t-109 34.5h-91l-94 -483h-168l208 1071h169l-89 -457h66q90 0 130.5 34t135.5 187q63 102 94.5 141.5t66.5 61.5q54 33 180 33h49l-27 -141h-38q-71 0 -94 -19.5t-94 -137.5q-68 -111 -106.5 -149.5
t-119.5 -73.5q60 -22 104 -73.5t81 -144.5z" />
    <glyph glyph-name="uni049C" unicode="&#x49c;" horiz-adv-x="1248" vert-adv-y="2457" 
d="M556 676l-76 -379h-136l76 383h-33l-133 -680h-168l285 1464h168l-128 -661h34l76 382h137l-74 -368q67 20 116 80t180 280q112 190 205 243q85 48 204 48q35 0 84 -4l-29 -146q-33 4 -63 4q-67 0 -105 -18.5t-80 -72.5q-40 -51 -126 -203q-77 -135 -130 -186.5
t-163 -97.5q82 -28 118 -55q81 -63 140 -216l184 -473h-188l-155 402q-55 142 -103.5 203t-116.5 71z" />
    <glyph glyph-name="uni049D" unicode="&#x49d;" horiz-adv-x="1075" vert-adv-y="2457" 
d="M507 473l-60 -299h-132l62 309h-29l-94 -483h-168l208 1071h169l-89 -456h29l57 282h132l-54 -268q31 13 66 55.5t102 150.5q63 103 94 142t67 61q54 33 180 33h49l-27 -141h-38q-71 0 -94 -19t-94 -137q-68 -113 -106.5 -150.5t-119.5 -73.5q60 -22 103.5 -73.5
t81.5 -144.5l131 -332h-184l-128 332q-43 114 -114 141z" />
    <glyph glyph-name="uni04A2" unicode="&#x4a2;" horiz-adv-x="1393" vert-adv-y="2457" 
d="M1064 0h-134l127 658h-676l-127 -658h-168l285 1464h168l-129 -667h675l129 667h168l-257 -1323h135l-97 -491h-140z" />
    <glyph glyph-name="uni04A3" unicode="&#x4a3;" horiz-adv-x="1186" vert-adv-y="2457" 
d="M1052 142l-87 -449h-139l39 307h-142l92 475h-469l-92 -475h-168l208 1071h168l-89 -457h469l89 457h168l-181 -929h134z" />
    <glyph glyph-name="uni04AE" unicode="&#x4ae;" horiz-adv-x="1143" vert-adv-y="2457" 
d="M398 0l118 616l-319 848h178l250 -702l500 702h182l-627 -858l-116 -606h-166z" />
    <glyph glyph-name="uni04AF" unicode="&#x4af;" horiz-adv-x="940" vert-adv-y="2457" 
d="M452 4l-86 -386h-160l91 416l-173 1037h174l129 -821l416 821h180z" />
    <glyph glyph-name="uni04B0" unicode="&#x4b0;" horiz-adv-x="1143" vert-adv-y="2457" 
d="M453 291h-258l22 141h263l36 184l-320 848h179l249 -702l500 702h182l-626 -858l-34 -174h278l-22 -141h-283l-56 -291h-166z" />
    <glyph glyph-name="uni04B1" unicode="&#x4b1;" horiz-adv-x="940" vert-adv-y="2457" 
d="M290 2l7 32l-173 1037h174l129 -821l416 821h180l-571 -1069h217l-16 -139h-232l-54 -245h-161l54 245h-211l17 139h224z" />
    <glyph glyph-name="uni04B2" unicode="&#x4b2;" horiz-adv-x="1217" vert-adv-y="2457" 
d="M1002 142h152l-95 -489h-140l41 347h-77l-258 627l-492 -627h-186l606 762l-291 702h179l241 -586l455 586h188l-573 -723z" />
    <glyph glyph-name="uni04B3" unicode="&#x4b3;" horiz-adv-x="1020" vert-adv-y="2457" 
d="M777 0h-95l-192 440l-355 -440h-190l471 563l-240 508h185l172 -395l313 395h195l-437 -518l196 -412h146l-68 -352h-122z" />
    <glyph glyph-name="uni04B6" unicode="&#x4b6;" horiz-adv-x="1292" vert-adv-y="2457" 
d="M1157 140l-96 -488h-140l41 348h-133l110 565q-127 -154 -363 -154q-192 0 -289 112q-70 81 -70 219q0 90 27 231l96 491h168l-99 -509q-24 -123 -24 -202q0 -203 237 -203q146 0 245.5 79t126.5 216l120 619h168l-257 -1323h131v-1h1z" />
    <glyph glyph-name="uni04B7" unicode="&#x4b7;" horiz-adv-x="1104" vert-adv-y="2457" 
d="M837 143h135l-87 -449h-140l40 306h-144l78 401q-102 -109 -263 -109q-141 0 -219.5 69.5t-78.5 193.5q0 68 21 176l66 340h168l-74 -379q-13 -69 -13 -114q0 -147 184 -147q95 0 165 51.5t86 133.5l88 455h168z" />
    <glyph glyph-name="uni04B8" unicode="&#x4b8;" horiz-adv-x="1292" vert-adv-y="2457" 
d="M655 417l-51 -251h-136l50 249q-149 17 -225 100t-76 227q0 91 27 231l96 491h168l-99 -509q-24 -123 -24 -201q0 -164 162 -196l66 333h136l-66 -336q122 16 204.5 93t106.5 198l120 618h168l-285 -1464h-168l110 566q-106 -129 -284 -149z" />
    <glyph glyph-name="uni04B9" unicode="&#x4b9;" horiz-adv-x="1104" vert-adv-y="2457" 
d="M435 440l56 276h137l-57 -280q73 15 125 63.5t65 116.5l88 455h168l-208 -1071h-168l78 401q-72 -78 -176 -101l-37 -187h-137l37 181q-121 14 -184.5 80.5t-63.5 179.5q0 69 21 177l66 340h168l-74 -379q-13 -69 -13 -114q0 -110 109 -138z" />
    <glyph glyph-name="uni04BA" unicode="&#x4ba;" horiz-adv-x="1292" vert-adv-y="2457" 
d="M502 1464h168l-110 -565q126 154 363 154q192 0 289 -112q70 -81 70 -219q0 -90 -27 -231l-96 -491h-168l99 509q24 123 24 202q0 203 -237 203q-146 0 -245.5 -79t-126.5 -217l-120 -618h-168z" />
    </font>
</defs>
</svg>
