<?xml version="1.0" standalone="no"?>
<!DOCTYPE svg PUBLIC "-//W3C//DTD SVG 1.1//EN" "http://www.w3.org/Graphics/SVG/1.1/DTD/svg11.dtd" >
<svg xmlns="http://www.w3.org/2000/svg">
<metadata>
Created at Thu Mar 20 14:01:00 2014

Copyright 2004 - 2010 by Robert Bosch GmbH
</metadata>
<defs>
<font id="BoschSans-MediumItalic" horiz-adv-x="1024" vert-adv-y="2048" >
  <font-face 
    font-family="Bosch Sans Medium"
    font-weight="600"
    font-style="italic"
    font-stretch="normal"
    units-per-em="2048"
    panose-1="2 11 6 4 2 2 2 9 2 4"
    ascent="1638"
    descent="-410"
    x-height="1071"
    cap-height="1464"
    bbox="-436 -512 2487 2080"
    underline-thickness="172"
    underline-position="-231"
    slope="-11"
    unicode-range="U+0020-FB04"
  />
<missing-glyph horiz-adv-x="616" vert-adv-y="2457" 
d="M62 0v1464h492v-1464h-492zM492 62v1340h-368v-1340h368z" />
    <glyph glyph-name="fi" unicode="fi" horiz-adv-x="1251" vert-adv-y="2457" 
d="M140 907l30 164h148l35 180q32 167 138 248q86 66 214 66q122 0 205 -64l-81 -143q-51 45 -119 45q-122 0 -153 -156l-34 -176h217l-31 -164h-219l-176 -907h-203l174 907h-145zM758 0l209 1071h205l-209 -1071h-205zM1135 1499q50 0 82 -31t32 -80q0 -57 -40 -97
t-97 -40q-49 0 -81 31.5t-32 80.5q0 57 39 96.5t97 39.5z" />
    <glyph glyph-name="fl" unicode="fl" horiz-adv-x="1253" vert-adv-y="2457" 
d="M758 0l299 1542h209l-299 -1542h-209zM140 907l30 164h148l35 180q32 167 138 248q86 66 214 66q122 0 205 -64l-81 -143q-51 45 -119 45q-122 0 -153 -156l-34 -176h217l-31 -164h-219l-176 -907h-203l174 907h-145z" />
    <glyph glyph-name="afii61352" unicode="Nr&#x2e;" horiz-adv-x="2499" vert-adv-y="2457" 
d="M77 0l285 1464h237l399 -1171l227 1171h200l-285 -1464h-244l-394 1161l-225 -1161h-200zM2030 1389q208 0 324 -142q96 -117 96 -313q0 -134 -43.5 -260t-120.5 -214q-147 -169 -381 -169q-98 0 -184 38.5t-140 107.5q-98 123 -98 317q0 168 70 317q79 166 221 250
q116 68 256 68zM2021 1227q-154 0 -245 -149q-83 -138 -83 -342q0 -282 225 -282q147 0 233 148t86 355q0 129 -50 194q-57 76 -166 76zM1338 0l33 166h941l-32 -166h-942z" />
    <glyph glyph-name="ff" unicode="ff" horiz-adv-x="1279" vert-adv-y="2457" 
d="M855 1071l26 132q19 97 37 145.5t52 92.5q96 124 272 124q122 0 205 -64l-80 -143q-51 45 -119 45t-103.5 -39.5t-54.5 -138.5l-30 -154h217l-31 -164h-219l-176 -907h-203l174 907h-332l-176 -907h-203l174 907h-145l30 164h148l25 132q19 97 37 145.5t52 92.5
q96 124 273 124q122 0 205 -64l-81 -143q-51 45 -118 45q-68 0 -103.5 -39.5t-54.5 -138.5l-30 -154h332z" />
    <glyph glyph-name="ffi" unicode="ffi" horiz-adv-x="1793" vert-adv-y="2457" 
d="M855 1071l26 132q19 97 37 145.5t52 92.5q96 124 272 124q122 0 205 -64l-80 -143q-51 45 -119 45t-103.5 -39.5t-54.5 -138.5l-30 -154h217l-31 -164h-219l-176 -907h-203l174 907h-332l-176 -907h-203l174 907h-145l30 164h148l25 132q19 97 37 145.5t52 92.5
q96 124 273 124q122 0 205 -64l-81 -143q-51 45 -118 45q-68 0 -103.5 -39.5t-54.5 -138.5l-30 -154h332zM1268 0l209 1071h205l-209 -1071h-205zM1645 1499q50 0 82 -31t32 -80q0 -57 -40 -97t-97 -40q-49 0 -81 31.5t-32 80.5q0 57 39 96.5t97 39.5z" />
    <glyph glyph-name="ffl" unicode="ffl" horiz-adv-x="1793" vert-adv-y="2457" 
d="M855 1071l26 132q19 97 37 145.5t52 92.5q96 124 272 124q122 0 205 -64l-80 -143q-51 45 -119 45t-103.5 -39.5t-54.5 -138.5l-30 -154h217l-31 -164h-219l-176 -907h-203l174 907h-332l-176 -907h-203l174 907h-145l30 164h148l25 132q19 97 37 145.5t52 92.5
q96 124 273 124q122 0 205 -64l-81 -143q-51 45 -118 45q-68 0 -103.5 -39.5t-54.5 -138.5l-30 -154h332zM1261 0l299 1542h207l-299 -1542h-207z" />
    <glyph glyph-name=".notdef" horiz-adv-x="616" vert-adv-y="2457" 
d="M62 0v1464h492v-1464h-492zM492 62v1340h-368v-1340h368z" />
    <glyph glyph-name="glyph1" horiz-adv-x="0" vert-adv-y="0" 
 />
    <glyph glyph-name="glyph2" horiz-adv-x="616" vert-adv-y="2457" 
 />
    <glyph glyph-name="space" unicode=" " horiz-adv-x="616" vert-adv-y="2457" 
 />
    <glyph glyph-name="exclam" unicode="!" horiz-adv-x="733" vert-adv-y="2457" 
d="M329 455l60 567l86 442h227l-92 -463l-162 -546h-119zM340 279q58 0 96.5 -38t38.5 -96q0 -66 -45.5 -110.5t-112.5 -44.5q-58 0 -96.5 38t-38.5 95q0 65 46 110.5t112 45.5z" />
    <glyph glyph-name="quotedbl" unicode="&#x22;" horiz-adv-x="879" vert-adv-y="2457" 
d="M251 913l78 551h221l-141 -551h-158zM609 913l78 551h219l-141 -551h-156z" />
    <glyph glyph-name="numbersign" unicode="#" horiz-adv-x="1147" vert-adv-y="2457" 
d="M225 991l33 166h195l76 307h141l-76 -307h219l76 307h143l-75 -307h192l-33 -166h-200l-62 -252h193l-33 -166h-201l-76 -311h-141l76 311h-219l-76 -311h-141l75 311h-188l33 166h194l62 252h-187zM553 991l-61 -252h219l61 252h-219z" />
    <glyph glyph-name="dollar" unicode="$" horiz-adv-x="1233" vert-adv-y="2457" 
d="M388 -276l51 270q-173 35 -281 148q-87 93 -122 245l203 49q40 -222 233 -274l103 520q-162 68 -233 132q-105 97 -105 253q0 209 160 324q128 92 311 92h20l37 182h127l-39 -197q251 -55 328 -315l-189 -59q-32 92 -69 136.5t-103 68.5l-90 -463q172 -68 247 -134
q116 -102 116 -270q0 -186 -121 -308q-142 -142 -393 -142h-15l-49 -258h-127zM597 148q289 13 289 261q0 79 -41.5 127.5t-153.5 100.5zM698 1317h-3q-122 0 -190.5 -57.5t-68.5 -160.5q0 -80 37 -125t141 -93z" />
    <glyph glyph-name="percent" unicode="%" horiz-adv-x="1892" vert-adv-y="2457" 
d="M602 1476q136 0 218 -92q80 -90 80 -247q0 -111 -37.5 -211t-104.5 -167q-102 -102 -243 -102q-137 0 -220 93t-83 247q0 200 112 341q110 138 278 138zM588 1331q-92 0 -144 -92q-54 -96 -54 -241q0 -196 138 -196q90 0 140 92q56 103 56 246q0 191 -136 191zM1455 805
q127 0 207 -81q90 -91 90 -258q0 -111 -37.5 -211t-104.5 -167q-102 -102 -243 -102q-137 0 -220 93t-83 247q0 200 113 341q109 138 278 138zM1440 660q-92 0 -144 -92q-54 -96 -54 -242q0 -195 138 -195q90 0 140 92q56 102 56 246q0 191 -136 191zM405 0l995 1464h162
l-996 -1464h-161z" />
    <glyph glyph-name="ampersand" unicode="&#x26;" horiz-adv-x="1430" vert-adv-y="2457" 
d="M902 88q-159 -106 -345 -106q-194 0 -311 99q-132 111 -132 303q0 203 154 338q86 75 249 144q-16 101 -16 184q0 202 115 319q102 103 257 103q141 0 218 -89q59 -68 59 -172q0 -139 -97 -234.5t-318 -175.5q70 -216 217 -440q90 141 153 358h174q-86 -302 -229 -492
q71 -71 148 -71q29 0 59 6l-27 -162q-47 -12 -92 -12q-128 0 -236 100zM552 733q-102 -54 -153 -117q-76 -93 -76 -223q0 -122 66 -189.5t186 -67.5q126 0 235 71q-172 258 -258 526zM702 930q122 44 181 92q91 73 91 186q0 57 -28.5 88t-80.5 31q-83 0 -129.5 -69
t-46.5 -191q0 -67 13 -137z" />
    <glyph glyph-name="quotesingle" unicode="'" horiz-adv-x="510" vert-adv-y="2457" 
d="M246 913l78 551h221l-141 -551h-158z" />
    <glyph glyph-name="parenleft" unicode="(" horiz-adv-x="868" vert-adv-y="2457" 
d="M404 -303q-182 325 -182 690q0 444 232 831q110 183 294 371h187q-206 -236 -316 -449q-190 -366 -190 -774q0 -356 145 -669h-170z" />
    <glyph glyph-name="parenright" unicode=")" horiz-adv-x="868" vert-adv-y="2457" 
d="M502 1589q183 -326 183 -690q0 -443 -233 -831q-109 -183 -294 -371h-186q206 238 316 449q190 366 190 775q0 354 -146 668h170z" />
    <glyph glyph-name="asterisk" unicode="*" horiz-adv-x="932" vert-adv-y="2457" 
d="M382 823l-127 96l230 230l-238 63l78 166l213 -123l20 287h176l-81 -291l243 113l39 -164l-270 -55l143 -240l-151 -84l-93 250z" />
    <glyph glyph-name="plus" unicode="+" horiz-adv-x="1147" vert-adv-y="2457" 
d="M157 616l33 168h342l80 408h178l-80 -408h342l-33 -168h-342l-80 -407h-178l80 407h-342z" />
    <glyph glyph-name="comma" unicode="," horiz-adv-x="616" vert-adv-y="2457" 
d="M11 -315l23 108q138 35 175 203q-60 7 -93.5 42t-33.5 91q0 64 44.5 108t108.5 44q67 0 105.5 -44t38.5 -121q0 -76 -27 -155.5t-73 -137.5q-51 -65 -112.5 -96.5t-155.5 -41.5z" />
    <glyph glyph-name="hyphen" unicode="-" horiz-adv-x="616" vert-adv-y="2457" 
d="M86 579l35 186h461l-35 -186h-461z" />
    <glyph glyph-name="period" unicode="." horiz-adv-x="616" vert-adv-y="2457" 
d="M241 281q59 0 97.5 -38.5t38.5 -97.5q0 -66 -45.5 -110.5t-113.5 -44.5q-58 0 -97 38t-39 95q0 66 46.5 112t112.5 46z" />
    <glyph glyph-name="slash" unicode="/" horiz-adv-x="887" vert-adv-y="2457" 
d="M-128 -303l944 1892h195l-942 -1892h-197z" />
    <glyph glyph-name="zero" unicode="0" horiz-adv-x="1233" vert-adv-y="2457" 
d="M740 1482q258 0 378 -227q75 -141 75 -353q0 -324 -142 -594q-83 -158 -207 -242t-274 -84q-178 0 -296 120q-157 159 -157 474q0 157 37 311.5t103 275.5q87 159 222 245q114 74 261 74zM729 1314q-110 0 -200 -98q-83 -90 -136 -262q-58 -190 -58 -402q0 -233 90 -331
q60 -65 157 -65q108 0 197 98q81 89 135 264q59 191 59 400q0 169 -49 265q-66 131 -195 131z" />
    <glyph glyph-name="one" unicode="1" horiz-adv-x="1233" vert-adv-y="2457" 
d="M122 0l33 166h334l189 977q-134 -51 -347 -54l26 146q172 19 266 67q118 63 178 189h152l-258 -1325h301l-32 -166h-842z" />
    <glyph glyph-name="two" unicode="2" horiz-adv-x="1233" vert-adv-y="2457" 
d="M24 0l33 172q284 204 401 295.5t209 183.5q228 227 228 446q0 97 -53 152q-56 57 -155 57q-104 0 -170 -60t-120 -204l-183 53q132 387 485 387q198 0 314 -111q103 -98 103 -264q0 -299 -332 -598q-154 -140 -467 -341h688l-33 -168h-948z" />
    <glyph glyph-name="three" unicode="3" horiz-adv-x="1233" vert-adv-y="2457" 
d="M849 752q217 -87 217 -325q0 -183 -121 -304q-140 -141 -387 -141q-233 0 -371 126q-61 57 -94 126t-47 172l203 30q37 -290 316 -290q141 0 215 82q67 75 67 205q0 249 -264 249h-113l33 162h121q311 0 311 254q0 101 -63.5 160.5t-170.5 59.5q-114 0 -183.5 -55
t-123.5 -188l-166 55q53 147 139 226q135 126 351 126q209 0 328 -118q100 -100 100 -249q0 -266 -297 -363z" />
    <glyph glyph-name="four" unicode="4" horiz-adv-x="1233" vert-adv-y="2457" 
d="M660 0l57 303h-686l39 195l841 989h241l-199 -1020h188l-31 -164h-188l-60 -303h-202zM907 1263l-653 -796h498z" />
    <glyph glyph-name="five" unicode="5" horiz-adv-x="1233" vert-adv-y="2457" 
d="M439 856q118 111 287 111q174 0 275 -113q96 -108 96 -295q0 -266 -164 -431q-148 -148 -370 -148q-208 0 -338 115q-102 89 -142 249l199 43q22 -84 54 -131q73 -106 225 -106q180 0 264 147q61 109 61 255q0 251 -224 251q-166 0 -272 -139h-178l211 800h766l-35 -176
h-600z" />
    <glyph glyph-name="six" unicode="6" horiz-adv-x="1233" vert-adv-y="2457" 
d="M377 754q136 182 362 182q177 0 290 -114q114 -116 114 -299q0 -112 -41 -215.5t-115 -177.5q-148 -150 -374 -150q-225 0 -346 144t-121 412q0 264 100 498q87 202 229 319q156 129 361 129q159 0 255.5 -77.5t144.5 -243.5l-187 -64q-21 87 -52 130q-59 85 -177 85
q-325 0 -443 -558zM681 774q-140 0 -227 -88q-95 -96 -95 -254q0 -146 85 -224q68 -62 179 -62q150 0 235 118q72 102 72 247q0 124 -66 193.5t-183 69.5z" />
    <glyph glyph-name="seven" unicode="7" horiz-adv-x="1233" vert-adv-y="2457" 
d="M258 0q47 187 84.5 296t95.5 232q207 431 594 768h-735l33 168h936l-33 -178q-165 -141 -274 -268t-206 -289q-101 -170 -163 -336t-109 -393h-223z" />
    <glyph glyph-name="eight" unicode="8" horiz-adv-x="1233" vert-adv-y="2457" 
d="M911 764q215 -114 215 -329q0 -223 -177 -350q-145 -105 -359 -105q-226 0 -376 120q-145 116 -145 303q0 140 82 243q48 60 111.5 97t166.5 64q-159 101 -159 271q0 194 162 310q131 94 314 94q189 0 315 -101q128 -103 128 -266q0 -126 -70 -214.5t-208 -136.5z
M612 707q-149 0 -237 -88q-81 -80 -81 -205q0 -120 82.5 -193t218.5 -73q152 0 237 94q73 79 73 202q0 108 -71 180q-82 83 -222 83zM739 1322q-120 0 -190 -70q-68 -68 -68 -177q0 -129 98 -184q64 -35 150 -35q111 0 178 67t67 178q0 102 -63.5 161.5t-171.5 59.5z" />
    <glyph glyph-name="nine" unicode="9" horiz-adv-x="1233" vert-adv-y="2457" 
d="M929 732q-135 -167 -356 -167q-176 0 -291 115q-118 119 -118 308q0 187 116 322q148 172 404 172q232 0 352.5 -145t120.5 -425q0 -292 -102 -526q-115 -267 -327 -359q-107 -47 -232 -47q-167 0 -272.5 79t-156.5 242l184 65q29 -94 71 -141q65 -73 182 -73
q204 0 317 207q38 70 61 150t47 223zM682 1318q-152 0 -235 -109q-70 -90 -70 -221q0 -152 98 -220q63 -43 158 -43q134 0 221 81q93 88 93 236q0 143 -88 218q-68 58 -177 58z" />
    <glyph glyph-name="colon" unicode=":" horiz-adv-x="616" vert-adv-y="2457" 
d="M361 885q58 0 97 -39t39 -97q0 -66 -46.5 -111.5t-113.5 -45.5q-58 0 -96.5 39t-38.5 96q0 66 46.5 112t112.5 46zM242 281q59 0 97.5 -38.5t38.5 -97.5q0 -66 -45.5 -110.5t-113.5 -44.5q-58 0 -97 38t-39 95q0 66 46.5 112t112.5 46z" />
    <glyph glyph-name="semicolon" unicode=";" horiz-adv-x="616" vert-adv-y="2457" 
d="M12 -315l20 108q141 35 178 203q-60 7 -93.5 42t-33.5 91q0 64 44 108t109 44t104.5 -44t39.5 -118q0 -78 -27 -157.5t-73 -138.5q-51 -65 -112.5 -96.5t-155.5 -41.5zM361 885q58 0 97 -39t39 -97q0 -66 -46.5 -111.5t-113.5 -45.5q-58 0 -96.5 39t-38.5 96
q0 66 46.5 112t112.5 46z" />
    <glyph glyph-name="less" unicode="&#x3c;" horiz-adv-x="1147" vert-adv-y="2457" 
d="M873 168l-680 405l33 175l839 403l-43 -221l-612 -279l502 -284z" />
    <glyph glyph-name="equal" unicode="=" horiz-adv-x="1147" vert-adv-y="2457" 
d="M224 774l35 170h788l-35 -170h-788zM148 385l35 170h788l-35 -170h-788z" />
    <glyph glyph-name="greater" unicode="&#x3e;" horiz-adv-x="1147" vert-adv-y="2457" 
d="M131 168l43 221l612 279l-501 284l36 199l680 -406l-32 -174z" />
    <glyph glyph-name="question" unicode="?" horiz-adv-x="1118" vert-adv-y="2457" 
d="M432 455l20 111q21 111 76 181.5t178 143.5q117 68 162 124t45 132q0 78 -50 123.5t-137 45.5q-194 0 -282 -235l-172 53q46 137 127 217q133 131 343 131q199 0 302 -112q78 -85 78 -215q0 -152 -121 -262q-55 -50 -192 -131q-90 -53 -126.5 -100t-52.5 -131l-14 -76
h-184zM468 279q58 0 96 -38t38 -96q0 -66 -45.5 -110.5t-112.5 -44.5q-58 0 -96.5 38t-38.5 95q0 65 46.5 110.5t112.5 45.5z" />
    <glyph glyph-name="at" unicode="@" horiz-adv-x="1882" vert-adv-y="2457" 
d="M1388 -176q-129 -83 -243.5 -116t-275.5 -33q-328 0 -530 201q-107 106 -164 256q-57 149 -57 319q0 251 122 461q118 202 323 320q204 118 443 118q234 0 420 -108q161 -93 252 -250q93 -162 93 -369q0 -288 -153 -441q-114 -114 -270 -114q-202 0 -233 188
q-56 -91 -116 -137q-85 -65 -196 -65q-132 0 -207 91t-75 250q0 237 130 399q124 154 302 154q159 0 216 -137l28 117h181l-103 -500q-10 -49 -10 -97q0 -120 107 -120q120 0 189 122q65 114 65 290q0 260 -158 418q-173 172 -467 172q-308 0 -514 -205q-215 -214 -215 -552
q0 -323 193 -502q156 -144 420 -144q125 0 217.5 27.5t211.5 99.5zM960 790q-116 0 -185 -122q-66 -117 -66 -270q0 -182 139 -182q58 0 110.5 34.5t87.5 95.5q65 114 65 258q0 88 -39.5 137t-111.5 49z" />
    <glyph glyph-name="A" unicode="A" horiz-adv-x="1272" vert-adv-y="2457" 
d="M880 342h-575l-173 -342h-205l772 1466h225l209 -1466h-209zM859 506l-96 741l-375 -741h471z" />
    <glyph glyph-name="B" unicode="B" horiz-adv-x="1348" vert-adv-y="2457" 
d="M78 0l285 1464h493q189 0 297 -69q137 -89 137 -275q0 -136 -66.5 -223.5t-213.5 -144.5q100 -34 152 -88q77 -80 77 -219q0 -253 -201 -369q-134 -76 -339 -76h-621zM318 168h378q107 0 166.5 18.5t101.5 64.5q64 71 64 192q0 113 -63.5 172t-184.5 59h-364zM449 838
h340q290 0 290 263q0 195 -223 195h-317z" />
    <glyph glyph-name="C" unicode="C" horiz-adv-x="1444" vert-adv-y="2457" 
d="M1317 399q-98 -216 -235 -313q-150 -106 -363 -106q-264 0 -415 170q-148 167 -148 460q0 229 86 426q84 192 235 308q178 138 414 138q255 0 387 -157q81 -97 117 -283l-195 -49q-25 143 -82 219q-78 102 -236 102q-169 0 -294 -118q-109 -103 -167 -282
q-48 -150 -48 -317q0 -180 63 -290q92 -159 298 -159q140 0 238 78t169 247z" />
    <glyph glyph-name="D" unicode="D" horiz-adv-x="1450" vert-adv-y="2457" 
d="M78 0l285 1464h450q208 0 342 -88q222 -146 222 -502q0 -285 -115 -501q-97 -183 -270.5 -278t-411.5 -95h-502zM318 168h279q251 0 392 159q82 93 126.5 236t44.5 314q0 168 -49 258q-88 161 -317 161h-254z" />
    <glyph glyph-name="E" unicode="E" horiz-adv-x="1221" vert-adv-y="2457" 
d="M78 0l285 1464h901l-33 -168h-694l-92 -475h555l-31 -162h-555l-94 -491h729l-33 -168h-938z" />
    <glyph glyph-name="F" unicode="F" horiz-adv-x="1178" vert-adv-y="2457" 
d="M78 0l285 1464h882l-32 -168h-674l-101 -516h529l-33 -162h-526l-121 -618h-209z" />
    <glyph glyph-name="G" unicode="G" horiz-adv-x="1536" vert-adv-y="2457" 
d="M1153 248q-168 -268 -465 -268q-299 0 -439 241q-89 153 -89 381q0 229 85 426q97 224 281 346q164 108 380 108q277 0 412 -174q67 -87 106 -260l-195 -57q-27 115 -59 175q-79 148 -270 148q-235 0 -379 -203q-144 -202 -144 -508q0 -455 351 -455q208 0 336 161
q71 90 114 260l8 33h-346l31 166h549l-150 -768h-119z" />
    <glyph glyph-name="H" unicode="H" horiz-adv-x="1423" vert-adv-y="2457" 
d="M78 0l285 1464h213l-125 -649h628l127 649h213l-284 -1464h-213l125 641h-631l-125 -641h-213z" />
    <glyph glyph-name="I" unicode="I" horiz-adv-x="606" vert-adv-y="2457" 
d="M92 0l285 1464h209l-285 -1464h-209z" />
    <glyph glyph-name="J" unicode="J" horiz-adv-x="1139" vert-adv-y="2457" 
d="M1146 1464l-204 -1046q-46 -235 -192 -347q-119 -91 -295 -91q-213 0 -317 127q-75 92 -75 239q0 56 12 123l11 55h206l-10 -53q-15 -74 -15 -128q0 -195 193 -195q116 0 182 67.5t94 214.5l199 1034h211z" />
    <glyph glyph-name="K" unicode="K" horiz-adv-x="1315" vert-adv-y="2457" 
d="M78 0l285 1464h209l-140 -713l727 715h242l-639 -618l383 -848h-223l-320 700l-219 -207l-96 -493h-209z" />
    <glyph glyph-name="L" unicode="L" horiz-adv-x="1163" vert-adv-y="2457" 
d="M78 0l285 1464h209l-252 -1296h665l-33 -168h-874z" />
    <glyph glyph-name="M" unicode="M" horiz-adv-x="1724" vert-adv-y="2457" 
d="M79 0l285 1464h299l147 -1185l604 1185h305l-284 -1464h-205l237 1224l-624 -1224h-178l-158 1224l-238 -1224h-190z" />
    <glyph glyph-name="N" unicode="N" horiz-adv-x="1423" vert-adv-y="2457" 
d="M78 0l285 1464h252l375 -1222l237 1222h192l-284 -1464h-258l-369 1210l-235 -1210h-195z" />
    <glyph glyph-name="O" unicode="O" horiz-adv-x="1565" vert-adv-y="2457" 
d="M885 1483q303 0 466 -206q134 -170 134 -444q0 -276 -130 -498q-101 -172 -258 -263.5t-353 -91.5q-252 0 -413 163q-175 178 -175 494q0 220 81 405q96 217 280 337q161 104 368 104zM890 1315q-263 0 -403 -245q-114 -201 -114 -468q0 -248 127 -365q98 -89 259 -89
q172 0 297 119q106 101 163 276q49 150 49 316q0 193 -75 307q-98 149 -303 149z" />
    <glyph glyph-name="P" unicode="P" horiz-adv-x="1288" vert-adv-y="2457" 
d="M78 0l285 1464h471q216 0 327 -86q127 -99 127 -291q0 -227 -149 -358t-408 -131h-327l-117 -598h-209zM434 764h291q179 0 264 72q94 81 94 242q0 218 -245 218h-299z" />
    <glyph glyph-name="Q" unicode="Q" horiz-adv-x="1565" vert-adv-y="2457" 
d="M1076 60q-146 -80 -326 -80q-258 0 -419 163q-175 178 -175 494q0 370 211 612q205 234 518 234q305 0 466 -206q134 -172 134 -445q0 -194 -67.5 -367.5t-189.5 -292.5l140 -168l-147 -119zM961 198l-158 189l146 119l154 -185q27 34 48 71q117 201 117 466
q0 193 -75 308q-97 149 -303 149q-264 0 -403 -245q-114 -202 -114 -467q0 -249 127 -366q98 -89 253 -89q110 0 208 50z" />
    <glyph glyph-name="R" unicode="R" horiz-adv-x="1341" vert-adv-y="2457" 
d="M78 0l285 1464h497q157 0 265 -66q153 -94 153 -297q0 -189 -118 -297q-80 -72 -242 -109q112 -40 150.5 -109t43.5 -240q10 -265 53 -336l-2 -10h-211q-36 97 -40 348q-2 94 -17.5 145t-52.5 86q-56 52 -193 52h-239l-123 -631h-209zM441 795h295q335 0 335 291
q0 210 -245 210h-287z" />
    <glyph glyph-name="S" unicode="S" horiz-adv-x="1235" vert-adv-y="2457" 
d="M1002 1089q-36 102 -83 148q-78 77 -217 77q-103 0 -171 -39q-100 -58 -100 -184q0 -86 53 -132.5t227 -113.5q209 -79 296 -160q97 -92 97 -250q0 -242 -199 -367q-142 -88 -339 -88q-242 0 -384 127q-109 96 -153 284l203 51q31 -159 120 -228q86 -66 227 -66
q117 0 194 45q120 70 120 216q0 90 -55 141t-221 116q-128 49 -187.5 81.5t-104.5 76.5q-95 92 -95 243q0 196 146 311q133 104 340 104q189 0 305.5 -82t170.5 -253z" />
    <glyph glyph-name="T" unicode="T" horiz-adv-x="1247" vert-adv-y="2457" 
d="M415 0l252 1296h-438l33 168h1071l-33 -168h-426l-252 -1296h-207z" />
    <glyph glyph-name="U" unicode="U" horiz-adv-x="1430" vert-adv-y="2457" 
d="M1436 1464l-195 -1005q-92 -479 -568 -479q-267 0 -397 148q-103 117 -103 315q0 80 20 179l166 842h208l-169 -870q-18 -95 -18 -168q0 -278 301 -278q169 0 257 97q77 86 112 265l185 954h201z" />
    <glyph glyph-name="V" unicode="V" horiz-adv-x="1231" vert-adv-y="2457" 
d="M413 0l-213 1464h211l154 -1179l614 1179h211l-789 -1464h-188z" />
    <glyph glyph-name="W" unicode="W" horiz-adv-x="1923" vert-adv-y="2457" 
d="M334 0l-98 1464h213l55 -1130l553 1130h168l111 -1136l508 1136h204l-663 -1464h-191l-112 1128l-559 -1128h-189z" />
    <glyph glyph-name="X" unicode="X" horiz-adv-x="1274" vert-adv-y="2457" 
d="M-51 0l608 764l-293 700h230l223 -555l422 555h233l-567 -721l313 -743h-229l-242 602l-465 -602h-233z" />
    <glyph glyph-name="Y" unicode="Y" horiz-adv-x="1190" vert-adv-y="2457" 
d="M397 0l118 614l-315 850h221l234 -667l471 667h223l-625 -858l-118 -606h-209z" />
    <glyph glyph-name="Z" unicode="Z" horiz-adv-x="1221" vert-adv-y="2457" 
d="M8 0l35 182l973 1114h-717l33 168h948l-39 -195l-958 -1101h740l-32 -168h-983z" />
    <glyph glyph-name="bracketleft" unicode="[" horiz-adv-x="868" vert-adv-y="2457" 
d="M71 -303l369 1892h479l-33 -166h-272l-305 -1560h274l-33 -166h-479z" />
    <glyph glyph-name="backslash" unicode="\" horiz-adv-x="887" vert-adv-y="2457" 
d="M515 -303l-229 1892h176l225 -1892h-172z" />
    <glyph glyph-name="bracketright" unicode="]" horiz-adv-x="868" vert-adv-y="2457" 
d="M837 1589l-369 -1892h-479l33 166h272l305 1560h-274l33 166h479z" />
    <glyph glyph-name="asciicircum" unicode="^" horiz-adv-x="1120" vert-adv-y="2457" 
d="M228 829l436 635h162l188 -635h-176l-131 422l-286 -422h-193z" />
    <glyph glyph-name="underscore" unicode="_" horiz-adv-x="901" vert-adv-y="2457" 
d="M-225 -403l33 172h983l-33 -172h-983z" />
    <glyph glyph-name="grave" unicode="`" vert-adv-y="2457" 
d="M692 1204l-170 338h242l61 -338h-133z" />
    <glyph glyph-name="a" unicode="a" horiz-adv-x="1085" vert-adv-y="2457" 
d="M657 143q-131 -163 -305 -163q-117 0 -199 65q-102 81 -102 221q0 178 153 269q86 51 202.5 74t332.5 32l8 42q8 44 8 81q0 157 -171 157q-158 0 -308 -114l-88 137q187 147 426 147q186 0 275 -91q73 -76 73 -201q0 -56 -12 -119l-84 -432q-3 -16 -3 -32q0 -69 93 -69
l-31 -153q-36 -6 -65 -6q-178 0 -203 155zM710 504q-156 -5 -260 -28q-190 -40 -190 -197q0 -139 160 -139q102 0 174 59.5t90 158.5z" />
    <glyph glyph-name="b" unicode="b" horiz-adv-x="1237" vert-adv-y="2457" 
d="M457 921q134 170 331 170q162 0 257 -113q100 -118 100 -332q0 -159 -52.5 -298.5t-146.5 -230.5q-138 -135 -324 -135q-224 0 -306 221l-37 -203h-207l299 1542h207zM716 929q-115 0 -204 -84q-70 -65 -109.5 -174.5t-39.5 -237.5q0 -141 62 -215t180 -74q159 0 245 153
q80 143 80 343q0 289 -214 289z" />
    <glyph glyph-name="c" unicode="c" horiz-adv-x="1083" vert-adv-y="2457" 
d="M940 238q-85 -128 -173 -185q-111 -73 -263 -73q-184 0 -297 117q-121 125 -121 345q0 136 41.5 260t117.5 212q151 177 388 177q143 0 235.5 -63t149.5 -199l-174 -80q-40 103 -85.5 141.5t-126.5 38.5q-167 0 -254 -157q-77 -139 -77 -338q0 -292 222 -292
q84 0 147.5 44t120.5 142z" />
    <glyph glyph-name="d" unicode="d" horiz-adv-x="1241" vert-adv-y="2457" 
d="M786 160q-73 -96 -148.5 -137t-175.5 -41q-150 0 -249 100q-119 122 -119 353q0 144 42.5 272.5t119.5 219.5q142 164 351 164q114 0 196 -51.5t125 -148.5l127 651h204l-299 -1542h-204zM641 929q-164 0 -252 -153q-80 -141 -80 -341q0 -291 220 -291q111 0 198 83
q70 67 110.5 180t40.5 240q0 155 -77 226q-61 56 -160 56z" />
    <glyph glyph-name="e" unicode="e" horiz-adv-x="1096" vert-adv-y="2457" 
d="M922 193q-88 -111 -189.5 -162t-234.5 -51q-201 0 -310 123q-102 114 -102 316q0 273 161 468q168 204 424 204q185 0 279 -109q68 -78 68 -191q0 -238 -345 -312q-136 -29 -381 -35q-1 -35 -1 -45q0 -257 220 -257q83 0 146 34t129 115zM309 590q268 0 388 45.5
t120 147.5q0 69 -43 107.5t-119 38.5q-128 0 -216 -86.5t-130 -252.5z" />
    <glyph glyph-name="f" unicode="f" horiz-adv-x="705" vert-adv-y="2457" 
d="M140 907l30 164h148l25 132q19 97 37 145.5t52 92.5q96 124 273 124q122 0 205 -64l-81 -143q-51 45 -118 45q-68 0 -103.5 -39.5t-54.5 -138.5l-30 -154h217l-31 -164h-219l-176 -907h-203l174 907h-145z" />
    <glyph glyph-name="g" unicode="g" horiz-adv-x="1128" vert-adv-y="2457" 
d="M364 430q-67 -48 -67 -108q0 -78 112 -78h209q189 0 279 -94q67 -69 67 -179q0 -130 -86 -223q-67 -71 -186 -110t-272 -39q-200 0 -321 69q-128 72 -128 205q0 163 227 242q-86 55 -86 152q0 127 162 219q-106 100 -106 239q0 113 68 205q57 76 153 118.5t212 42.5
q121 0 226 -53l326 51l-33 -169h-168q45 -78 45 -164q0 -177 -145 -281q-116 -84 -282 -84q-108 0 -206 39zM321 76q-151 -65 -151 -175q0 -146 268 -146q321 0 321 190q0 129 -172 129h-210q-29 0 -56 2zM598 948q-93 0 -154 -54q-75 -66 -75 -178q0 -87 54 -136.5
t149 -49.5q105 0 165.5 61.5t60.5 168.5q0 88 -53 138t-147 50z" />
    <glyph glyph-name="h" unicode="h" horiz-adv-x="1190" vert-adv-y="2457" 
d="M72 0l299 1542h207l-122 -631q126 180 326 180q136 0 211 -83q70 -78 70 -213q0 -65 -12 -127l-129 -668h-207l129 670q10 51 10 96q0 155 -160 155q-113 0 -190 -77.5t-104 -218.5l-121 -625h-207z" />
    <glyph glyph-name="i" unicode="i" horiz-adv-x="569" vert-adv-y="2457" 
d="M76 0l209 1071h205l-209 -1071h-205zM453 1499q50 0 82 -31t32 -80q0 -57 -40 -97t-97 -40q-49 0 -81 31.5t-32 80.5q0 57 39 96.5t97 39.5z" />
    <glyph glyph-name="j" unicode="j" horiz-adv-x="569" vert-adv-y="2457" 
d="M494 1071l-228 -1167q-30 -156 -111 -224q-83 -69 -209 -69q-102 0 -163 45l63 151q53 -26 91 -26q54 0 83 33t45 114l224 1143h205zM457 1499q50 0 82 -31t32 -80q0 -57 -40 -97t-97 -40q-49 0 -81 31.5t-32 80.5q0 57 39 96.5t97 39.5z" />
    <glyph glyph-name="k" unicode="k" horiz-adv-x="1087" vert-adv-y="2457" 
d="M717 0l-209 496l-166 -166l-63 -330h-207l299 1542h207l-184 -950l462 479h238l-430 -428l268 -643h-215z" />
    <glyph glyph-name="l" unicode="l" horiz-adv-x="571" vert-adv-y="2457" 
d="M76 0l299 1542h207l-299 -1542h-207z" />
    <glyph glyph-name="m" unicode="m" horiz-adv-x="1743" vert-adv-y="2457" 
d="M456 917q127 174 306 174q201 0 251 -207q79 108 160.5 157.5t183.5 49.5q135 0 204 -90q57 -76 57 -199q0 -59 -14 -132l-129 -670h-207l131 670q10 50 10 98q0 153 -135 153q-104 0 -179 -82q-72 -80 -97 -212l-121 -627h-207l131 670q10 51 10 102q0 149 -135 149
q-119 0 -196 -103q-58 -78 -80 -191l-121 -627h-207l209 1071h207z" />
    <glyph glyph-name="n" unicode="n" horiz-adv-x="1190" vert-adv-y="2457" 
d="M72 0l209 1071h207l-32 -160q126 180 326 180q167 0 240 -124q41 -68 41 -172q0 -65 -12 -127l-129 -668h-207l129 670q10 51 10 97q0 154 -160 154q-113 0 -190 -77.5t-104 -218.5l-121 -625h-207z" />
    <glyph glyph-name="o" unicode="o" horiz-adv-x="1153" vert-adv-y="2457" 
d="M636 1091q210 0 326 -142q101 -124 101 -325q0 -147 -50 -280t-139 -222q-141 -142 -352 -142q-202 0 -320 136q-112 128 -112 340q0 129 41.5 250t115.5 208q151 177 389 177zM632 929q-154 0 -242 -148q-85 -142 -85 -352q0 -287 221 -287q158 0 247 171q75 145 75 340
q0 276 -216 276z" />
    <glyph glyph-name="p" unicode="p" horiz-adv-x="1237" vert-adv-y="2457" 
d="M2 -373l281 1444h206l-31 -154q132 174 334 174q159 0 255 -109q100 -113 100 -323q0 -141 -41.5 -270.5t-116.5 -222.5q-147 -184 -366 -184q-223 0 -305 219l-109 -574h-207zM718 929q-116 0 -205 -84q-70 -65 -109.5 -175t-39.5 -237q0 -141 62 -215t181 -74
q159 0 245 153q80 144 80 343q0 289 -214 289z" />
    <glyph glyph-name="q" unicode="q" horiz-adv-x="1241" vert-adv-y="2457" 
d="M682 -373l104 533q-74 -96 -148.5 -137t-175.5 -41q-150 0 -248 97q-120 119 -120 346q0 139 40 266t112 218q144 182 366 182q112 0 192.5 -53t121.5 -153l36 186h205l-280 -1444h-205zM641 929q-164 0 -252 -153q-80 -141 -80 -341q0 -291 220 -291q111 0 198 83
q70 67 110.5 180t40.5 240q0 155 -77 226q-61 56 -160 56z" />
    <glyph glyph-name="r" unicode="r" horiz-adv-x="858" vert-adv-y="2457" 
d="M72 0l209 1071h207l-37 -182q115 200 290 200q83 0 152 -43l-78 -176q-57 35 -115 35q-116 0 -198 -87.5t-113 -244.5l-110 -573h-207z" />
    <glyph glyph-name="s" unicode="s" horiz-adv-x="1001" vert-adv-y="2457" 
d="M790 788q-99 141 -251 141q-79 0 -122.5 -34.5t-43.5 -97.5q0 -56 33.5 -87.5t144.5 -79.5q148 -63 209 -111q96 -76 96 -209q0 -131 -89 -218q-114 -112 -323 -112q-292 0 -434 225l147 110q58 -93 126.5 -133t170.5 -40q81 0 130 28q67 38 67 113q0 55 -35 90t-131 75
q-103 44 -145 67.5t-84 63.5q-82 77 -82 202q0 162 127 245q100 65 248 65q127 0 217.5 -44t165.5 -142z" />
    <glyph glyph-name="t" unicode="t" horiz-adv-x="772" vert-adv-y="2457" 
d="M139 907l31 164h155l52 262l215 57l-62 -319h236l-31 -164h-238l-109 -572q-11 -56 -11 -86q0 -95 95 -95q59 0 130 39l57 -142q-109 -71 -242 -71q-116 0 -183 67q-66 67 -66 178q0 39 14 110l111 572h-154z" />
    <glyph glyph-name="u" unicode="u" horiz-adv-x="1171" vert-adv-y="2457" 
d="M719 172q-70 -101 -145.5 -146.5t-175.5 -45.5q-129 0 -201 78.5t-72 218.5q0 52 22 168l121 626h207l-129 -661q-12 -60 -12 -106q0 -158 149 -158q114 0 191 85q72 80 98 213l121 627h207l-209 -1071h-207z" />
    <glyph glyph-name="v" unicode="v" horiz-adv-x="971" vert-adv-y="2457" 
d="M264 0l-141 1071h213l88 -860l414 860h215l-553 -1071h-236z" />
    <glyph glyph-name="w" unicode="w" horiz-adv-x="1611" vert-adv-y="2457" 
d="M259 0l-100 1071h209l55 -827l373 827h203l71 -827l377 827h211l-524 -1071h-219l-70 809l-369 -809h-217z" />
    <glyph glyph-name="x" unicode="x" horiz-adv-x="1057" vert-adv-y="2457" 
d="M-55 0l467 563l-236 508h226l159 -373l291 373h232l-434 -518l258 -553h-226l-178 418l-332 -418h-227z" />
    <glyph glyph-name="y" unicode="y" horiz-adv-x="987" vert-adv-y="2457" 
d="M1069 1071l-666 -1231q-55 -103 -110 -152q-83 -73 -202 -73t-212 75l84 136q51 -49 119 -49q100 0 164 129l57 116l-180 1049h215l119 -782l395 782h217z" />
    <glyph glyph-name="z" unicode="z" horiz-adv-x="967" vert-adv-y="2457" 
d="M-18 0l31 162l694 743h-516l33 166h747l-35 -184l-667 -717h538l-32 -170h-793z" />
    <glyph glyph-name="braceleft" unicode="{" horiz-adv-x="879" vert-adv-y="2457" 
d="M596 -309q-117 3 -179 25q-184 64 -184 261q0 44 10 97l52 262q10 53 10 84q0 76 -46.5 109t-158.5 36l35 166q143 4 204 58q54 49 76 161l60 301q23 117 67 185.5t121 107.5q96 47 301 51l-30 -161q-146 -10 -195 -57q-48 -45 -72 -165l-61 -311q-23 -115 -78 -173.5
t-168 -88.5q78 -28 113 -75.5t35 -126.5q0 -40 -11 -95l-53 -274q-8 -42 -8 -71q0 -74 41.5 -106t148.5 -38z" />
    <glyph glyph-name="bar" unicode="|" horiz-adv-x="586" vert-adv-y="2457" 
d="M248 -303v1892h164v-1892h-164z" />
    <glyph glyph-name="braceright" unicode="}" horiz-adv-x="879" vert-adv-y="2457" 
d="M322 1595q117 -3 178 -25q184 -64 184 -261q0 -45 -10 -97l-51 -262q-10 -49 -10 -84q0 -76 46.5 -109t157.5 -36l-35 -166q-143 -4 -203 -58q-55 -49 -77 -161l-60 -301q-23 -117 -67 -185.5t-121 -106.5q-96 -48 -301 -52l31 162q145 9 195 56q47 45 71 165l61 311
q23 115 78 173.5t168 88.5q-78 28 -112.5 75.5t-34.5 126.5q0 44 10 95l53 275q8 40 8 70q0 75 -41.5 106.5t-148.5 38.5z" />
    <glyph glyph-name="asciitilde" unicode="~" horiz-adv-x="1147" vert-adv-y="2457" 
d="M326 535l-147 14q32 127 77 193q75 110 193 110q43 0 85 -17.5t107 -61.5q81 -56 122 -56q78 0 112 141l146 -14q-31 -125 -76 -190q-76 -113 -195 -113q-44 0 -85.5 17.5t-105.5 62.5q-81 57 -123 57q-77 0 -110 -143z" />
    <glyph glyph-name="Adieresis" unicode="&#xc4;" horiz-adv-x="1272" vert-adv-y="2457" 
d="M880 342h-575l-173 -342h-205l772 1466h225l209 -1466h-209zM859 506l-96 741l-375 -741h471zM656 1843q47 0 78.5 -30t31.5 -75q0 -54 -39 -93t-93 -39q-47 0 -77.5 30.5t-30.5 76.5q0 54 38 92t92 38zM1034 1843q47 0 78.5 -30t31.5 -75q0 -54 -38.5 -93t-92.5 -39
q-46 0 -77 30.5t-31 76.5q0 53 38.5 91.5t90.5 38.5z" />
    <glyph glyph-name="Aring" unicode="&#xc5;" horiz-adv-x="1272" vert-adv-y="2457" 
d="M880 342h-575l-173 -342h-205l772 1466h225l209 -1466h-209zM859 506l-96 741l-375 -741h471zM860 2013q86 0 142 -55.5t56 -141.5q0 -98 -67.5 -166.5t-164.5 -68.5q-84 0 -140 56.5t-56 142.5q0 97 67 165t163 68zM853 1913q-47 0 -77.5 -36.5t-30.5 -93.5
q0 -47 24 -74.5t64 -27.5q48 0 80 37.5t32 92.5q0 46 -25 74t-67 28z" />
    <glyph glyph-name="Ccedilla" unicode="&#xc7;" horiz-adv-x="1444" vert-adv-y="2457" 
d="M735 -21l-87 -100q30 7 47 7q61 0 98.5 -40.5t37.5 -104.5q0 -84 -59 -135t-158 -51q-124 0 -197 92l92 66q40 -56 109 -56q84 0 84 79q0 67 -65 67q-36 0 -66 -31l-68 58l134 154q-119 13 -213 67q-268 155 -268 558q0 229 86 427q85 191 235 308q177 138 414 138
q255 0 387 -157q81 -97 117 -283l-195 -49q-25 143 -82 219q-78 102 -236 102q-170 0 -294 -118q-109 -103 -167 -282q-48 -150 -48 -318q0 -180 63 -290q92 -159 298 -159q140 0 238 78.5t169 247.5l176 -74q-97 -214 -237 -315t-345 -105z" />
    <glyph glyph-name="Eacute" unicode="&#xc9;" horiz-adv-x="1221" vert-adv-y="2457" 
d="M78 0l285 1464h901l-33 -168h-694l-92 -475h555l-31 -162h-555l-94 -491h729l-33 -168h-938zM752 1597l154 338h258l-267 -338h-145z" />
    <glyph glyph-name="Ntilde" unicode="&#xd1;" horiz-adv-x="1423" vert-adv-y="2457" 
d="M78 0l285 1464h252l375 -1222l237 1222h192l-284 -1464h-258l-369 1210l-235 -1210h-195zM1284 1849q-24 -117 -76.5 -178t-130.5 -61q-62 0 -155 57q-60 37 -90 37q-58 0 -82 -96l-123 12q50 240 206 240q60 0 154 -57q62 -37 91 -37q57 0 81 96z" />
    <glyph glyph-name="Odieresis" unicode="&#xd6;" horiz-adv-x="1565" vert-adv-y="2457" 
d="M885 1483q303 0 466 -206q134 -170 134 -444q0 -276 -130 -498q-101 -172 -258 -263.5t-353 -91.5q-252 0 -413 163q-175 178 -175 494q0 220 81 405q96 217 280 337q161 104 368 104zM890 1315q-263 0 -403 -245q-114 -201 -114 -468q0 -248 127 -365q98 -89 259 -89
q172 0 297 119q106 101 163 276q49 150 49 316q0 193 -75 307q-98 149 -303 149zM760 1843q47 0 78.5 -30t31.5 -75q0 -54 -39 -93t-93 -39q-46 0 -76.5 30.5t-30.5 76.5q0 54 38 92t91 38zM1139 1843q47 0 78.5 -30t31.5 -75q0 -54 -38.5 -93t-92.5 -39q-46 0 -77 30.5
t-31 76.5q0 53 38.5 91.5t90.5 38.5z" />
    <glyph glyph-name="Udieresis" unicode="&#xdc;" horiz-adv-x="1430" vert-adv-y="2457" 
d="M1436 1464l-195 -1005q-92 -479 -568 -479q-267 0 -397 148q-103 117 -103 315q0 80 20 179l166 842h208l-169 -870q-18 -95 -18 -168q0 -278 301 -278q169 0 257 97q77 86 112 265l185 954h201zM753 1843q47 0 78.5 -30t31.5 -75q0 -54 -39 -93t-93 -39
q-46 0 -76.5 30.5t-30.5 76.5q0 54 38 92t91 38zM1132 1843q47 0 78.5 -30t31.5 -75q0 -54 -39 -93t-92 -39q-47 0 -78 30.5t-31 76.5q0 53 38.5 91.5t91.5 38.5z" />
    <glyph glyph-name="aacute" unicode="&#xe1;" horiz-adv-x="1085" vert-adv-y="2457" 
d="M657 143q-131 -163 -305 -163q-117 0 -199 65q-102 81 -102 221q0 178 153 269q86 51 202.5 74t332.5 32l8 42q8 44 8 81q0 157 -171 157q-158 0 -308 -114l-88 137q187 147 426 147q186 0 275 -91q73 -76 73 -201q0 -56 -12 -119l-84 -432q-3 -16 -3 -32q0 -69 93 -69
l-31 -153q-36 -6 -65 -6q-178 0 -203 155zM710 504q-156 -5 -260 -28q-190 -40 -190 -197q0 -139 160 -139q102 0 174 59.5t90 158.5zM528 1204l154 338h258l-267 -338h-145z" />
    <glyph glyph-name="agrave" unicode="&#xe0;" horiz-adv-x="1085" vert-adv-y="2457" 
d="M657 143q-131 -163 -305 -163q-117 0 -199 65q-102 81 -102 221q0 178 153 269q86 51 202.5 74t332.5 32l8 42q8 44 8 81q0 157 -171 157q-158 0 -308 -114l-88 137q187 147 426 147q186 0 275 -91q73 -76 73 -201q0 -56 -12 -119l-84 -432q-3 -16 -3 -32q0 -69 93 -69
l-31 -153q-36 -6 -65 -6q-178 0 -203 155zM710 504q-156 -5 -260 -28q-190 -40 -190 -197q0 -139 160 -139q102 0 174 59.5t90 158.5zM644 1204l-170 338h242l61 -338h-133z" />
    <glyph glyph-name="acircumflex" unicode="&#xe2;" horiz-adv-x="1085" vert-adv-y="2457" 
d="M657 143q-131 -163 -305 -163q-117 0 -199 65q-102 81 -102 221q0 178 153 269q86 51 202.5 74t332.5 32l8 42q8 44 8 81q0 157 -171 157q-158 0 -308 -114l-88 137q187 147 426 147q186 0 275 -91q73 -76 73 -201q0 -56 -12 -119l-84 -432q-3 -16 -3 -32q0 -69 93 -69
l-31 -153q-36 -6 -65 -6q-178 0 -203 155zM710 504q-156 -5 -260 -28q-190 -40 -190 -197q0 -139 160 -139q102 0 174 59.5t90 158.5zM348 1206l266 336h168l141 -336h-137l-112 178l-185 -178h-141z" />
    <glyph glyph-name="adieresis" unicode="&#xe4;" horiz-adv-x="1085" vert-adv-y="2457" 
d="M657 143q-131 -163 -305 -163q-117 0 -199 65q-102 81 -102 221q0 178 153 269q86 51 202.5 74t332.5 32l8 42q8 44 8 81q0 157 -171 157q-158 0 -308 -114l-88 137q187 147 426 147q186 0 275 -91q73 -76 73 -201q0 -56 -12 -119l-84 -432q-3 -16 -3 -32q0 -69 93 -69
l-31 -153q-36 -6 -65 -6q-178 0 -203 155zM710 504q-156 -5 -260 -28q-190 -40 -190 -197q0 -139 160 -139q102 0 174 59.5t90 158.5zM501 1495q47 0 78.5 -30t31.5 -76q0 -54 -39 -93t-93 -39q-47 0 -77.5 30.5t-30.5 76.5q0 54 38 92.5t92 38.5zM879 1495q47 0 78.5 -30
t31.5 -76q0 -54 -38.5 -93t-92.5 -39q-46 0 -77 30.5t-31 76.5q0 54 38.5 92.5t90.5 38.5z" />
    <glyph glyph-name="atilde" unicode="&#xe3;" horiz-adv-x="1085" vert-adv-y="2457" 
d="M657 143q-131 -163 -305 -163q-117 0 -199 65q-102 81 -102 221q0 178 153 269q86 51 202.5 74t332.5 32l8 42q8 44 8 81q0 157 -171 157q-158 0 -308 -114l-88 137q187 147 426 147q186 0 275 -91q73 -76 73 -201q0 -56 -12 -119l-84 -432q-3 -16 -3 -32q0 -69 93 -69
l-31 -153q-36 -6 -65 -6q-178 0 -203 155zM710 504q-156 -5 -260 -28q-190 -40 -190 -197q0 -139 160 -139q102 0 174 59.5t90 158.5zM986 1493q-50 -240 -209 -240q-61 0 -154 57q-60 37 -89 37q-59 0 -83 -96l-123 12q50 240 205 240q61 0 155 -57q62 -37 91 -37
q57 0 81 96z" />
    <glyph glyph-name="aring" unicode="&#xe5;" horiz-adv-x="1085" vert-adv-y="2457" 
d="M657 143q-131 -163 -305 -163q-117 0 -199 65q-102 81 -102 221q0 178 153 269q86 51 202.5 74t332.5 32l8 42q8 44 8 81q0 157 -171 157q-158 0 -308 -114l-88 137q187 147 426 147q186 0 275 -91q73 -76 73 -201q0 -56 -12 -119l-84 -432q-3 -16 -3 -32q0 -69 93 -69
l-31 -153q-36 -6 -65 -6q-178 0 -203 155zM710 504q-156 -5 -260 -28q-190 -40 -190 -197q0 -139 160 -139q102 0 174 59.5t90 158.5zM690 1620q86 0 142 -55.5t56 -141.5q0 -98 -67.5 -166.5t-164.5 -68.5q-84 0 -140 56.5t-56 142.5q0 97 67 165t163 68zM683 1520
q-47 0 -77.5 -36.5t-30.5 -94.5q0 -46 24 -73.5t64 -27.5q48 0 80 37.5t32 92.5q0 46 -25 74t-67 28z" />
    <glyph glyph-name="ccedilla" unicode="&#xe7;" horiz-adv-x="1083" vert-adv-y="2457" 
d="M518 -20l-87 -101q30 7 47 7q61 0 98.5 -40.5t37.5 -104.5q0 -77 -49 -125q-61 -61 -169 -61q-123 0 -196 93l92 65q40 -56 109 -56q84 0 84 79q0 67 -66 67q-35 0 -65 -30l-68 57l135 156q-133 26 -214 111q-121 125 -121 344q0 137 41.5 260.5t117.5 212.5
q151 177 388 177q143 0 235.5 -63t149.5 -199l-174 -80q-40 103 -85.5 141.5t-126.5 38.5q-167 0 -254 -157q-77 -140 -77 -339q0 -292 222 -292q84 0 147.5 44.5t120.5 142.5l149 -91q-90 -135 -184.5 -192.5t-237.5 -64.5z" />
    <glyph glyph-name="eacute" unicode="&#xe9;" horiz-adv-x="1096" vert-adv-y="2457" 
d="M922 193q-88 -111 -189.5 -162t-234.5 -51q-201 0 -310 123q-102 114 -102 316q0 273 161 468q168 204 424 204q185 0 279 -109q68 -78 68 -191q0 -238 -345 -312q-136 -29 -381 -35q-1 -35 -1 -45q0 -257 220 -257q83 0 146 34t129 115zM309 590q268 0 388 45.5
t120 147.5q0 69 -43 107.5t-119 38.5q-128 0 -216 -86.5t-130 -252.5zM612 1204l154 338h258l-267 -338h-145z" />
    <glyph glyph-name="egrave" unicode="&#xe8;" horiz-adv-x="1096" vert-adv-y="2457" 
d="M922 193q-88 -111 -189.5 -162t-234.5 -51q-201 0 -310 123q-102 114 -102 316q0 273 161 468q168 204 424 204q185 0 279 -109q68 -78 68 -191q0 -238 -345 -312q-136 -29 -381 -35q-1 -35 -1 -45q0 -257 220 -257q83 0 146 34t129 115zM309 590q268 0 388 45.5
t120 147.5q0 69 -43 107.5t-119 38.5q-128 0 -216 -86.5t-130 -252.5zM637 1204l-170 338h242l61 -338h-133z" />
    <glyph glyph-name="ecircumflex" unicode="&#xea;" horiz-adv-x="1096" vert-adv-y="2457" 
d="M922 193q-88 -111 -189.5 -162t-234.5 -51q-201 0 -310 123q-102 114 -102 316q0 273 161 468q168 204 424 204q185 0 279 -109q68 -78 68 -191q0 -238 -345 -312q-136 -29 -381 -35q-1 -35 -1 -45q0 -257 220 -257q83 0 146 34t129 115zM309 590q268 0 388 45.5
t120 147.5q0 69 -43 107.5t-119 38.5q-128 0 -216 -86.5t-130 -252.5zM401 1206l266 336h168l141 -336h-137l-112 178l-185 -178h-141z" />
    <glyph glyph-name="edieresis" unicode="&#xeb;" horiz-adv-x="1096" vert-adv-y="2457" 
d="M922 193q-88 -111 -189.5 -162t-234.5 -51q-201 0 -310 123q-102 114 -102 316q0 273 161 468q168 204 424 204q185 0 279 -109q68 -78 68 -191q0 -238 -345 -312q-136 -29 -381 -35q-1 -35 -1 -45q0 -257 220 -257q83 0 146 34t129 115zM309 590q268 0 388 45.5
t120 147.5q0 69 -43 107.5t-119 38.5q-128 0 -216 -86.5t-130 -252.5zM531 1495q47 0 78.5 -30t31.5 -76q0 -54 -39 -93t-93 -39q-47 0 -77.5 30.5t-30.5 76.5q0 54 38 92.5t92 38.5zM909 1495q47 0 78.5 -30t31.5 -76q0 -54 -38.5 -93t-92.5 -39q-46 0 -77 30.5t-31 76.5
q0 54 38.5 92.5t90.5 38.5z" />
    <glyph glyph-name="iacute" unicode="&#xed;" horiz-adv-x="569" vert-adv-y="2457" 
d="M76 0l209 1071h205l-209 -1071h-205zM337 1204l154 338h258l-267 -338h-145z" />
    <glyph glyph-name="igrave" unicode="&#xec;" horiz-adv-x="569" vert-adv-y="2457" 
d="M76 0l209 1071h205l-209 -1071h-205zM338 1204l-170 338h242l61 -338h-133z" />
    <glyph glyph-name="icircumflex" unicode="&#xee;" horiz-adv-x="569" vert-adv-y="2457" 
d="M76 0l209 1071h205l-209 -1071h-205zM114 1206l266 336h168l141 -336h-137l-112 178l-185 -178h-141z" />
    <glyph glyph-name="idieresis" unicode="&#xef;" horiz-adv-x="569" vert-adv-y="2457" 
d="M76 0l209 1071h205l-209 -1071h-205zM256 1495q47 0 78.5 -30t31.5 -76q0 -54 -39 -93t-93 -39q-47 0 -77.5 30.5t-30.5 76.5q0 54 38 92.5t92 38.5zM634 1495q47 0 78.5 -30t31.5 -76q0 -54 -38.5 -93t-92.5 -39q-46 0 -77 30.5t-31 76.5q0 54 38.5 92.5t90.5 38.5z" />
    <glyph glyph-name="ntilde" unicode="&#xf1;" horiz-adv-x="1190" vert-adv-y="2457" 
d="M72 0l209 1071h207l-32 -160q126 180 326 180q167 0 240 -124q41 -68 41 -172q0 -65 -12 -127l-129 -668h-207l129 670q10 51 10 97q0 154 -160 154q-113 0 -190 -77.5t-104 -218.5l-121 -625h-207zM1045 1493q-50 -240 -209 -240q-61 0 -154 57q-60 37 -89 37
q-59 0 -83 -96l-123 12q50 240 205 240q61 0 155 -57q62 -37 91 -37q57 0 81 96z" />
    <glyph glyph-name="oacute" unicode="&#xf3;" horiz-adv-x="1153" vert-adv-y="2457" 
d="M636 1091q210 0 326 -142q101 -124 101 -325q0 -147 -50 -280t-139 -222q-141 -142 -352 -142q-202 0 -320 136q-112 128 -112 340q0 129 41.5 250t115.5 208q151 177 389 177zM632 929q-154 0 -242 -148q-85 -142 -85 -352q0 -287 221 -287q158 0 247 171q75 145 75 340
q0 276 -216 276zM592 1204l154 338h258l-267 -338h-145z" />
    <glyph glyph-name="ograve" unicode="&#xf2;" horiz-adv-x="1153" vert-adv-y="2457" 
d="M636 1091q210 0 326 -142q101 -124 101 -325q0 -147 -50 -280t-139 -222q-141 -142 -352 -142q-202 0 -320 136q-112 128 -112 340q0 129 41.5 250t115.5 208q151 177 389 177zM632 929q-154 0 -242 -148q-85 -142 -85 -352q0 -287 221 -287q158 0 247 171q75 145 75 340
q0 276 -216 276zM654 1204l-170 338h242l61 -338h-133z" />
    <glyph glyph-name="ocircumflex" unicode="&#xf4;" horiz-adv-x="1153" vert-adv-y="2457" 
d="M636 1091q210 0 326 -142q101 -124 101 -325q0 -147 -50 -280t-139 -222q-141 -142 -352 -142q-202 0 -320 136q-112 128 -112 340q0 129 41.5 250t115.5 208q151 177 389 177zM632 929q-154 0 -242 -148q-85 -142 -85 -352q0 -287 221 -287q158 0 247 171q75 145 75 340
q0 276 -216 276zM388 1206l266 336h168l141 -336h-137l-112 178l-185 -178h-141z" />
    <glyph glyph-name="odieresis" unicode="&#xf6;" horiz-adv-x="1153" vert-adv-y="2457" 
d="M636 1091q210 0 326 -142q101 -124 101 -325q0 -147 -50 -280t-139 -222q-141 -142 -352 -142q-202 0 -320 136q-112 128 -112 340q0 129 41.5 250t115.5 208q151 177 389 177zM632 929q-154 0 -242 -148q-85 -142 -85 -352q0 -287 221 -287q158 0 247 171q75 145 75 340
q0 276 -216 276zM535 1495q47 0 78.5 -30t31.5 -76q0 -54 -39 -93t-93 -39q-47 0 -77.5 30.5t-30.5 76.5q0 54 38 92.5t92 38.5zM913 1495q47 0 78.5 -30t31.5 -76q0 -54 -38.5 -93t-92.5 -39q-46 0 -77 30.5t-31 76.5q0 54 38.5 92.5t90.5 38.5z" />
    <glyph glyph-name="otilde" unicode="&#xf5;" horiz-adv-x="1153" vert-adv-y="2457" 
d="M636 1091q210 0 326 -142q101 -124 101 -325q0 -147 -50 -280t-139 -222q-141 -142 -352 -142q-202 0 -320 136q-112 128 -112 340q0 129 41.5 250t115.5 208q151 177 389 177zM632 929q-154 0 -242 -148q-85 -142 -85 -352q0 -287 221 -287q158 0 247 171q75 145 75 340
q0 276 -216 276zM1032 1493q-50 -240 -209 -240q-61 0 -154 57q-60 37 -89 37q-59 0 -83 -96l-123 12q50 240 205 240q61 0 155 -57q62 -37 91 -37q57 0 81 96z" />
    <glyph glyph-name="uacute" unicode="&#xfa;" horiz-adv-x="1171" vert-adv-y="2457" 
d="M719 172q-70 -101 -145.5 -146.5t-175.5 -45.5q-129 0 -201 78.5t-72 218.5q0 52 22 168l121 626h207l-129 -661q-12 -60 -12 -106q0 -158 149 -158q114 0 191 85q72 80 98 213l121 627h207l-209 -1071h-207zM608 1204l154 338h258l-267 -338h-145z" />
    <glyph glyph-name="ugrave" unicode="&#xf9;" horiz-adv-x="1171" vert-adv-y="2457" 
d="M719 172q-70 -101 -145.5 -146.5t-175.5 -45.5q-129 0 -201 78.5t-72 218.5q0 52 22 168l121 626h207l-129 -661q-12 -60 -12 -106q0 -158 149 -158q114 0 191 85q72 80 98 213l121 627h207l-209 -1071h-207zM657 1204l-170 338h242l61 -338h-133z" />
    <glyph glyph-name="ucircumflex" unicode="&#xfb;" horiz-adv-x="1171" vert-adv-y="2457" 
d="M719 172q-70 -101 -145.5 -146.5t-175.5 -45.5q-129 0 -201 78.5t-72 218.5q0 52 22 168l121 626h207l-129 -661q-12 -60 -12 -106q0 -158 149 -158q114 0 191 85q72 80 98 213l121 627h207l-209 -1071h-207zM415 1206l266 336h168l141 -336h-137l-112 178l-185 -178
h-141z" />
    <glyph glyph-name="udieresis" unicode="&#xfc;" horiz-adv-x="1171" vert-adv-y="2457" 
d="M719 172q-70 -101 -145.5 -146.5t-175.5 -45.5q-129 0 -201 78.5t-72 218.5q0 52 22 168l121 626h207l-129 -661q-12 -60 -12 -106q0 -158 149 -158q114 0 191 85q72 80 98 213l121 627h207l-209 -1071h-207zM551 1495q47 0 78.5 -30t31.5 -76q0 -54 -39 -93t-93 -39
q-47 0 -77.5 30.5t-30.5 76.5q0 54 38 92.5t92 38.5zM929 1495q47 0 78.5 -30t31.5 -76q0 -54 -38.5 -93t-92.5 -39q-46 0 -77 30.5t-31 76.5q0 54 38.5 92.5t90.5 38.5z" />
    <glyph glyph-name="dagger" unicode="&#x2020;" horiz-adv-x="688" vert-adv-y="2457" 
d="M203 1110l27 137h176l43 217h151l-43 -217h178l-26 -137h-178l-90 -469h-152l90 469h-176z" />
    <glyph glyph-name="degree" unicode="&#xb0;" horiz-adv-x="936" vert-adv-y="2457" 
d="M618 1480q138 0 222.5 -84.5t84.5 -222.5q0 -173 -113 -287q-107 -106 -262 -106q-129 0 -215 85q-90 89 -90 229q0 167 114 280q107 106 259 106zM608 1353q-89 0 -147 -70.5t-58 -179.5q0 -90 43.5 -141t118.5 -51q91 0 148.5 70t57.5 181q0 88 -44 139.5t-119 51.5z
" />
    <glyph glyph-name="cent" unicode="&#xa2;" horiz-adv-x="1233" vert-adv-y="2457" 
d="M419 -276l51 268q-78 21 -127 51t-92 82q-94 118 -94 304q0 143 48 274t134 222q71 75 147.5 112t196.5 52l39 199h127l-39 -205q204 -37 287 -254l-172 -79q-36 86 -65.5 120.5t-81.5 51.5l-152 -785q79 13 129 52.5t115 140.5l143 -92q-79 -118 -163 -175
q-100 -67 -255 -79l-49 -260h-127zM653 928q-79 -18 -120 -51q-173 -134 -173 -447q0 -223 141 -282z" />
    <glyph glyph-name="sterling" unicode="&#xa3;" horiz-adv-x="1233" vert-adv-y="2457" 
d="M171 649l24 139h156q-25 122 -25 219q0 218 128 345q130 130 350 130q186 0 292 -97t129 -288l-190 -43q-15 100 -45 151q-57 101 -193 101q-120 0 -188 -77q-70 -79 -70 -227q0 -77 23 -214h375l-25 -139h-326q23 -143 23 -224q0 -91 -29 -183q117 -82 195 -82
q70 0 112 40t70 136l176 -33q-30 -104 -62 -157q-97 -162 -283 -162q-142 0 -284 120q-103 -120 -255 -120q-106 0 -170 54.5t-64 143.5q0 122 98 177q63 36 145 36q78 0 167 -47q2 15 2 29q0 82 -45 272h-211zM390 207q-72 55 -132 55q-42 0 -67.5 -20.5t-25.5 -54.5
q0 -35 25 -55.5t66 -20.5q82 0 134 96z" />
    <glyph glyph-name="section" unicode="&#xa7;" horiz-adv-x="1165" vert-adv-y="2457" 
d="M783 280q86 -101 86 -220q0 -152 -106 -246q-106 -95 -286 -95q-294 0 -423 266l164 80q90 -184 264 -184q88 0 136 42t48 119q0 69 -49 119q-35 35 -61.5 51.5t-154.5 82.5q-141 72 -206 152.5t-65 182.5q0 226 284 291q-79 94 -79 216q0 172 133 267q107 78 263 78
q143 0 235.5 -61.5t152.5 -196.5l-162 -77q-31 73 -69 111q-63 64 -166 64q-71 0 -119 -31q-67 -44 -67 -135q0 -74 55 -130q30 -29 54 -44t141 -74q148 -75 214 -153.5t66 -180.5q0 -222 -283 -294zM660 377q201 29 201 171q0 60 -40.5 104.5t-144.5 97.5l-143 73
q-200 -23 -200 -168q0 -61 40 -106t140 -96z" />
    <glyph glyph-name="bullet" unicode="&#x2022;" horiz-adv-x="819" vert-adv-y="2457" 
d="M440 951q113 0 189 -76q77 -77 77 -193q0 -115 -76.5 -191.5t-191.5 -76.5q-114 0 -191 77q-78 78 -78 192q0 115 77.5 191.5t193.5 76.5z" />
    <glyph glyph-name="paragraph" unicode="&#xb6;" horiz-adv-x="1264" vert-adv-y="2457" 
d="M469 0l137 698h-10q-176 0 -276.5 88.5t-100.5 242.5q0 141 68 245q125 190 407 190h551l-285 -1464h-172l254 1312h-145l-256 -1312h-172z" />
    <glyph glyph-name="germandbls" unicode="&#xdf;" horiz-adv-x="1186" vert-adv-y="2457" 
d="M809 874q126 -39 188 -119q76 -99 76 -263q0 -260 -150 -398q-117 -108 -300 -108q-110 0 -205 49l32 153h6q64 -40 151 -40q138 0 203 118q52 93 52 236q0 153 -71 223q-58 58 -195 74l31 162q83 0 125 16q73 27 114 91.5t41 152.5q0 92 -45 141.5t-127 49.5
q-178 0 -225 -238l-229 -1174h-209l228 1180q76 388 438 388q204 0 299 -130q65 -88 65 -206q0 -128 -78 -226q-40 -51 -87.5 -80t-127.5 -52z" />
    <glyph glyph-name="registered" unicode="&#xae;" horiz-adv-x="1159" vert-adv-y="2457" 
d="M444 770l92 473h207q70 0 109.5 -33.5t39.5 -93.5q0 -56 -28 -86.5t-92 -44.5q35 -14 46 -33t15 -73q6 -82 18 -105v-4h-108q-12 33 -14 102q-2 43 -16.5 60.5t-49.5 17.5h-72l-37 -180h-110zM606 1028h84q93 0 93 76q0 57 -61 57h-92zM710 1482q187 0 311 -126
q125 -125 125 -312q0 -220 -155 -376q-151 -150 -364 -150q-185 0 -309 124q-124 123 -124 312q0 216 156 375q150 153 360 153zM704 1394q-170 0 -287 -118q-123 -125 -123 -315q0 -162 94.5 -258.5t252.5 -96.5q164 0 281 117q126 127 126 318q0 160 -97 258
q-94 95 -247 95z" />
    <glyph glyph-name="copyright" unicode="&#xa9;" horiz-adv-x="1753" vert-adv-y="2457" 
d="M1258 541q-64 -132 -156 -194t-223 -62q-156 0 -255 101q-107 111 -107 294q0 205 118 349q127 155 331 155q127 0 205.5 -58.5t121.5 -185.5l-154 -66q-29 90 -69.5 126t-111.5 36q-130 0 -198 -118q-56 -95 -56 -235q0 -246 189 -246q77 0 127.5 40t86.5 129zM980 1482
q287 0 475 -189q190 -191 190 -485q0 -224 -112 -420q-111 -193 -301 -302q-181 -104 -392 -104q-133 0 -254 49.5t-211 139.5q-194 195 -194 494q0 224 112 415q114 195 300 299q185 103 387 103zM974 1382q-132 0 -255.5 -51t-217.5 -145q-207 -207 -207 -513
q0 -268 165 -434q156 -157 397 -157q126 0 248.5 52.5t216.5 147.5q108 107 163 250q50 130 50 271q0 258 -163 422q-156 157 -397 157z" />
    <glyph glyph-name="trademark" unicode="&#x2122;" horiz-adv-x="1544" vert-adv-y="2457" 
d="M754 805l129 659h170l72 -499l260 499h184l-129 -659h-125l95 489l-265 -489h-104l-74 489l-96 -489h-117zM320 805l109 553h-197l20 106h521l-21 -106h-190l-111 -553h-131z" />
    <glyph glyph-name="acute" unicode="&#xb4;" vert-adv-y="2457" 
d="M468 1204l154 338h258l-267 -338h-145z" />
    <glyph glyph-name="dieresis" unicode="&#xa8;" vert-adv-y="2457" 
d="M495 1495q47 0 78.5 -30t31.5 -76q0 -54 -39 -93t-93 -39q-47 0 -77.5 30.5t-30.5 76.5q0 54 38 92.5t92 38.5zM873 1495q47 0 78.5 -30t31.5 -76q0 -54 -38.5 -93t-92.5 -39q-46 0 -77 30.5t-31 76.5q0 54 38.5 92.5t90.5 38.5z" />
    <glyph glyph-name="notequal" unicode="&#x2260;" horiz-adv-x="1147" vert-adv-y="2457" 
d="M873 944h173l-35 -170h-252l-147 -219h358l-35 -170h-437l-156 -233l-135 63l114 170h-174l35 170h252l147 219h-358l35 170h437l156 233l135 -63z" />
    <glyph glyph-name="AE" unicode="&#xc6;" horiz-adv-x="1966" vert-adv-y="2457" 
d="M920 328h-508l-240 -328h-221l1092 1464h966l-33 -168h-659l-94 -475h522l-31 -162h-522l-94 -491h694l-33 -168h-903zM951 490l153 785l-574 -785h421z" />
    <glyph glyph-name="Oslash" unicode="&#xd8;" horiz-adv-x="1565" vert-adv-y="2457" 
d="M250 249q-94 163 -94 388q0 370 211 612q205 234 517 234q256 0 421 -156l135 137h194l-242 -248q93 -165 93 -383q0 -276 -130 -498q-103 -175 -265 -267q-154 -88 -340 -88q-249 0 -414 158l-135 -138h-195zM400 402l771 788q-101 125 -283 125q-263 0 -401 -245
q-114 -204 -114 -454q0 -125 27 -214zM1238 1059l-771 -786q105 -125 285 -125q263 0 401 244q115 204 115 456q0 119 -30 211z" />
    <glyph glyph-name="infinity" unicode="&#x221e;" horiz-adv-x="1632" vert-adv-y="2457" 
d="M847 589q-53 -74 -107 -122q-120 -108 -277 -108q-162 0 -254 103q-81 91 -81 235q0 153 89 246q93 96 246 96q171 0 301 -130q40 -40 83 -100q47 66 92 109q126 121 292 121q153 0 246 -96q89 -93 89 -246q0 -165 -104 -258q-90 -80 -231 -80q-115 0 -206.5 55
t-177.5 175zM764 699l-13 18q-74 100 -138 142t-140 42q-90 0 -142 -59q-48 -54 -48 -143q0 -102 61 -157q51 -45 130 -45q143 0 276 183zM930 699l13 -19q128 -183 278 -183q90 0 142 59q48 54 48 143q0 102 -61 157q-51 45 -129 45q-77 0 -140 -41.5t-138 -142.5z" />
    <glyph glyph-name="plusminus" unicode="&#xb1;" horiz-adv-x="1147" vert-adv-y="2457" 
d="M157 690l31 168h358l72 365h180l-74 -365h357l-33 -168h-356l-72 -368h-178l72 368h-357zM22 0l33 168h893l-33 -168h-893z" />
    <glyph glyph-name="lessequal" unicode="&#x2264;" horiz-adv-x="1147" vert-adv-y="2457" 
d="M81 0l34 177h759l-34 -177h-759zM889 253l-683 389l32 174l837 387l-43 -221l-609 -262l505 -269z" />
    <glyph glyph-name="greaterequal" unicode="&#x2265;" horiz-adv-x="1147" vert-adv-y="2457" 
d="M855 0h-759l34 177h759zM330 1203l683 -389l-33 -174l-836 -387l43 221l609 262l-505 268z" />
    <glyph glyph-name="yen" unicode="&#xa5;" horiz-adv-x="1233" vert-adv-y="2457" 
d="M162 705l25 129h281l-215 630h233l190 -640l451 640h211l-459 -630h285l-27 -129h-350l-45 -62l-25 -121h385l-24 -129h-385l-76 -393h-209l76 393h-383l27 129h381l24 121l-22 62h-349z" />
    <glyph glyph-name="mu" unicode="&#xb5;" horiz-adv-x="1233" vert-adv-y="2457" 
d="M795 172q-127 -190 -302 -190q-86 0 -142 53l-80 -408h-205l281 1444h206l-131 -670q-10 -53 -10 -97q0 -158 148 -158q110 0 185 78t103 220l123 627h205l-209 -1071h-205z" />
    <glyph glyph-name="partialdiff" unicode="&#x2202;" horiz-adv-x="1233" vert-adv-y="2457" 
d="M508 1460l108 139q206 -147 310 -283q190 -250 190 -589q0 -286 -114 -487q-148 -260 -441 -260q-205 0 -322 131q-110 123 -110 333q0 261 148 448q151 189 376 189q138 0 219 -96q-48 136 -130.5 243.5t-233.5 231.5zM672 919q-166 0 -255 -155q-79 -139 -79 -334
q0 -286 229 -286q158 0 243 153q83 148 83 347q0 275 -221 275z" />
    <glyph glyph-name="summation" unicode="&#x2211;" horiz-adv-x="1233" vert-adv-y="2457" 
d="M1447 1477l-34 -176h-148l-317 -1634h-216l318 1634h-573l-318 -1634h-215l318 1634h-148l34 176h1299z" />
    <glyph glyph-name="product" unicode="&#x220f;" horiz-adv-x="1233" vert-adv-y="2457" 
d="M-60 -373l37 191l563 762l-249 682l40 202h934l-34 -178h-705l248 -702l-572 -779h810l-34 -178h-1038z" />
    <glyph glyph-name="pi" unicode="&#x3c0;" horiz-adv-x="1165" vert-adv-y="2457" 
d="M84 0l177 909h-112l32 162h1009l-32 -162h-110l-176 -909h-207l176 909h-376l-177 -909h-204z" />
    <glyph glyph-name="integral" unicode="&#x222b;" horiz-adv-x="847" vert-adv-y="2457" 
d="M98 -318l41 163q58 -24 100 -24q57 0 83 46q20 35 20 165v1237q0 134 5.5 190.5t21.5 94.5q63 142 259 142q84 0 170 -30l-39 -165q-60 24 -101 24q-55 0 -81 -45q-20 -36 -20 -158v-1250q0 -220 -26 -281q-61 -141 -256 -141q-87 0 -177 32z" />
    <glyph glyph-name="ordfeminine" unicode="&#xaa;" horiz-adv-x="1004" vert-adv-y="2457" 
d="M694 662q-101 -123 -243 -123q-117 0 -189 66.5t-72 173.5q0 148 129 227q68 41 167 60.5t288 29.5l6 37q6 39 6 69q0 128 -145 128q-135 0 -261 -95l-75 123q168 124 365 124q117 0 192 -43q110 -64 110 -208q0 -43 -8 -84l-84 -434q-8 -43 -8 -83t10 -67v-8h-180
q-9 34 -9 90q0 3 1 17zM751 977q-153 -8 -216 -21q-161 -34 -161 -162q0 -116 129 -116q87 0 148.5 49.5t77.5 132.5z" />
    <glyph glyph-name="ordmasculine" unicode="&#xba;" horiz-adv-x="1090" vert-adv-y="2457" 
d="M696 1482q156 0 253 -97q107 -107 107 -294q0 -124 -43.5 -237.5t-119.5 -190.5q-125 -125 -306 -125q-157 0 -257 100q-110 109 -110 299q0 217 126 375q136 170 350 170zM681 1332q-137 0 -208 -125q-65 -113 -65 -281q0 -243 188 -243q131 0 201 124q69 123 69 293
q0 232 -185 232z" />
    <glyph glyph-name="Omega" unicode="&#x2126;" horiz-adv-x="1679" vert-adv-y="2457" 
d="M12 0l28 158h300q-90 88 -128 184t-38 238q0 207 80 398q101 243 296 378q181 126 412 126q190 0 339 -83q280 -157 280 -526q0 -227 -87 -409t-254 -306h279l-28 -158h-613l29 165q179 16 299 186q84 121 123 283q31 133 31 252q0 188 -86 296q-107 132 -313 132
q-306 0 -461 -311q-50 -99 -78.5 -225t-28.5 -244q0 -167 68 -262.5t194 -106.5l-29 -165h-614z" />
    <glyph glyph-name="ae" unicode="&#xe6;" horiz-adv-x="1716" vert-adv-y="2457" 
d="M749 193q-77 -111 -167.5 -162t-211.5 -51q-143 0 -230 77t-87 204q0 231 260 311q132 40 420 40l16 84q9 45 9 78q0 149 -173 149q-161 0 -311 -112l-86 133q189 147 428 147q124 0 198 -41t111 -131q160 172 377 172q167 0 259 -93q79 -78 79 -200q0 -196 -194 -271
q-148 -57 -531 -62q-2 -21 -2 -43q0 -166 70 -231q53 -49 149 -49q85 0 142.5 30.5t136.5 118.5l133 -98q-70 -89 -141 -135q-120 -78 -282 -78q-136 0 -226 51.5t-146 161.5zM938 610q275 0 375 28q126 34 126 149q0 142 -162 142q-251 0 -339 -319zM706 475
q-196 0 -284 -20q-85 -20 -123.5 -62t-38.5 -114q0 -137 159 -137q104 0 177 59.5t90 156.5z" />
    <glyph glyph-name="oslash" unicode="&#xf8;" horiz-adv-x="1153" vert-adv-y="2457" 
d="M151 188q-61 117 -61 268q0 129 41 249t116 209q150 177 390 177q174 0 287 -102l77 80h187l-182 -187q57 -112 57 -258q0 -147 -50 -280t-139 -222q-141 -142 -348 -142q-176 0 -294 104l-81 -84h-182zM309 353l487 503q-60 73 -165 73q-153 0 -241 -148
q-85 -142 -85 -350q0 -42 4 -78zM845 715l-486 -501q61 -72 164 -72q162 0 250 171q75 145 75 338q0 32 -3 64z" />
    <glyph glyph-name="questiondown" unicode="&#xbf;" horiz-adv-x="1118" vert-adv-y="2457" 
d="M888 -45q-54 -159 -159 -245q-127 -103 -310 -103q-197 0 -300 111q-79 87 -79 218q0 154 123 264q54 48 190 128q87 51 124.5 100t53.5 133l15 76h184l-20 -111q-23 -119 -82.5 -189t-220.5 -166q-160 -96 -160 -227q0 -79 50.5 -125t137.5 -46q193 0 283 237zM716 1102
q59 0 98 -38t39 -95q0 -66 -46.5 -112t-113.5 -46q-57 0 -95 39t-38 96q0 66 45 111t111 45z" />
    <glyph glyph-name="exclamdown" unicode="&#xa1;" horiz-adv-x="733" vert-adv-y="2457" 
d="M114 -373l90 463l162 547h121l-62 -568l-86 -442h-225zM496 1102q60 0 99 -38t39 -95q0 -66 -46.5 -111t-113.5 -45q-57 0 -95 38.5t-38 95.5q0 65 45 110t110 45z" />
    <glyph glyph-name="logicalnot" unicode="&#xac;" horiz-adv-x="1147" vert-adv-y="2457" 
d="M672 348l59 301h-477l33 172h651l-90 -473h-176z" />
    <glyph glyph-name="radical" unicode="&#x221a;" horiz-adv-x="1233" vert-adv-y="2457" 
d="M377 0l-86 649h-185l28 146h328l66 -557l786 1572h581l-30 -156h-436l-831 -1654h-221z" />
    <glyph glyph-name="florin" unicode="&#x192;" horiz-adv-x="885" vert-adv-y="2457" 
d="M150 667l31 160h184l70 334q67 321 364 321q117 0 205 -51l-63 -147q-66 36 -130 36q-73 0 -114.5 -39t-58.5 -124l-68 -330h260l-31 -160h-262l-151 -741q-32 -156 -109.5 -226.5t-215.5 -70.5q-99 0 -177 45l59 147q51 -30 102 -30q108 0 138 145l150 731h-183z" />
    <glyph glyph-name="approxequal" unicode="&#x2248;" horiz-adv-x="1147" vert-adv-y="2457" 
d="M361 698l-147 15q32 127 77 193q75 110 193 110q43 0 85 -17t107 -62q81 -56 122 -56q78 0 112 141l146 -14q-76 -303 -271 -303q-44 0 -85 17.5t-106 62.5q-81 57 -123 57q-76 0 -110 -144zM287 317l-147 15q32 127 77 193q74 110 193 110q43 0 85 -17t107 -62
q81 -56 122 -56q78 0 112 141l146 -14q-76 -303 -271 -303q-44 0 -85 17.5t-106 62.5q-81 57 -123 57q-77 0 -110 -144z" />
    <glyph glyph-name="Delta" unicode="&#x2206;" horiz-adv-x="1233" vert-adv-y="2457" 
d="M1168 0h-1335l841 1464h237zM137 172h794l-186 1082z" />
    <glyph glyph-name="guillemotleft" unicode="&#xab;" horiz-adv-x="1081" vert-adv-y="2457" 
d="M673 84l-172 418l325 399h197l-326 -416l156 -401h-180zM302 84l-170 420l319 397h197l-321 -412l155 -405h-180z" />
    <glyph glyph-name="guillemotright" unicode="&#xbb;" horiz-adv-x="1081" vert-adv-y="2457" 
d="M40 84l326 416l-156 401h180l172 -416l-325 -401h-197zM413 84l323 414l-155 403h180l170 -420l-320 -397h-198z" />
    <glyph glyph-name="ellipsis" unicode="&#x2026;" horiz-adv-x="1849" vert-adv-y="2457" 
d="M241 281q59 0 97.5 -38.5t38.5 -97.5q0 -66 -45.5 -110.5t-113.5 -44.5q-58 0 -97 38t-39 95q0 66 46.5 112t112.5 46zM857 281q59 0 97.5 -38.5t38.5 -97.5q0 -66 -45.5 -110.5t-113.5 -44.5q-58 0 -97 38t-39 95q0 66 46.5 112t112.5 46zM1474 281q59 0 97.5 -38.5
t38.5 -97.5q0 -66 -45.5 -110.5t-113.5 -44.5q-58 0 -97 38t-39 95q0 66 46.5 112t112.5 46z" />
    <glyph glyph-name="glyph172" horiz-adv-x="1233" vert-adv-y="1233" 
 />
    <glyph glyph-name="Agrave" unicode="&#xc0;" horiz-adv-x="1272" vert-adv-y="2457" 
d="M880 342h-575l-173 -342h-205l772 1466h225l209 -1466h-209zM859 506l-96 741l-375 -741h471zM758 1597l-170 338h242l61 -338h-133z" />
    <glyph glyph-name="Atilde" unicode="&#xc3;" horiz-adv-x="1272" vert-adv-y="2457" 
d="M880 342h-575l-173 -342h-205l772 1466h225l209 -1466h-209zM859 506l-96 741l-375 -741h471zM1165 1849q-24 -117 -76.5 -178t-130.5 -61q-62 0 -155 57q-60 37 -90 37q-58 0 -82 -96l-123 12q50 240 206 240q60 0 154 -57q62 -37 91 -37q57 0 81 96z" />
    <glyph glyph-name="Otilde" unicode="&#xd5;" horiz-adv-x="1565" vert-adv-y="2457" 
d="M885 1483q303 0 466 -206q134 -170 134 -444q0 -276 -130 -498q-101 -172 -258 -263.5t-353 -91.5q-252 0 -413 163q-175 178 -175 494q0 220 81 405q96 217 280 337q161 104 368 104zM890 1315q-263 0 -403 -245q-114 -201 -114 -468q0 -248 127 -365q98 -89 259 -89
q172 0 297 119q106 101 163 276q49 150 49 316q0 193 -75 307q-98 149 -303 149zM1300 1849q-24 -117 -76.5 -178t-130.5 -61q-62 0 -155 57q-60 37 -90 37q-58 0 -82 -96l-123 12q50 240 206 240q60 0 154 -57q62 -37 91 -37q57 0 81 96z" />
    <glyph glyph-name="OE" unicode="&#x152;" horiz-adv-x="2214" vert-adv-y="2457" 
d="M1094 119q-166 -139 -367 -139q-241 0 -397 155q-174 175 -174 482q0 216 82 409q100 234 289 356q156 100 358 100q148 0 251.5 -51t180.5 -162l39 195h901l-33 -168h-694l-92 -475h555l-31 -162h-555l-96 -491h731l-33 -168h-938zM1186 591l40 209q15 78 15 134
q0 180 -103 283q-98 97 -255 97q-175 0 -300 -120q-106 -101 -162 -276q-48 -149 -48 -317q0 -252 126 -368q94 -85 239 -85q181 0 304 136q107 116 144 307z" />
    <glyph glyph-name="oe" unicode="&#x153;" horiz-adv-x="1845" vert-adv-y="2457" 
d="M905 180q-149 -200 -385 -200q-203 0 -320 132q-110 125 -110 334q0 262 149 449q157 196 402 196q250 0 352 -231q177 231 438 231q165 0 258 -93q80 -81 80 -207q0 -240 -346 -312q-138 -30 -381 -35v-24q0 -124 37 -187q52 -91 182 -91q86 0 143.5 31t133.5 118
l135 -98q-70 -87 -141 -133q-121 -80 -281 -80q-128 0 -211 48.5t-135 151.5zM631 929q-164 0 -253 -156q-81 -144 -81 -344q0 -287 229 -287q156 0 241 153t85 360q0 274 -221 274zM1061 590q267 0 387 45.5t120 146.5q0 70 -43 108.5t-119 38.5q-128 0 -215.5 -86
t-129.5 -253z" />
    <glyph glyph-name="endash" unicode="&#x2013;" horiz-adv-x="1233" vert-adv-y="2457" 
d="M129 588l35 172h999l-35 -172h-999z" />
    <glyph glyph-name="emdash" unicode="&#x2014;" horiz-adv-x="1233" vert-adv-y="2457" 
d="M-72 588l35 172h1390l-34 -172h-1391z" />
    <glyph glyph-name="quotedblleft" unicode="&#x201c;" horiz-adv-x="1006" vert-adv-y="2457" 
d="M834 1266q55 -8 86 -40t31 -80q0 -57 -40 -95.5t-99 -38.5q-61 0 -96.5 39.5t-35.5 106.5q0 152 91 271q47 61 104 92t143 42l-21 -103q-130 -35 -163 -194zM441 1266q55 -8 85.5 -40t30.5 -80q0 -57 -40 -95.5t-99 -38.5q-61 0 -96 39.5t-35 106.5q0 152 91 271
q47 61 104 92t143 42l-21 -103q-130 -35 -163 -194z" />
    <glyph glyph-name="quotedblright" unicode="&#x201d;" horiz-adv-x="1006" vert-adv-y="2457" 
d="M666 1010l21 102q125 38 163 197q-54 5 -85.5 37t-31.5 82q0 57 40.5 96t99.5 39t95 -40.5t36 -106.5q0 -71 -24.5 -144.5t-66.5 -128.5q-48 -61 -104.5 -92t-142.5 -41zM273 1010l20 102q126 38 164 197q-55 5 -86 37t-31 82q0 57 40.5 96t99.5 39t95 -40.5t36 -106.5
q0 -70 -25 -144t-67 -129q-47 -61 -104 -92t-142 -41z" />
    <glyph glyph-name="quoteleft" unicode="&#x2018;" horiz-adv-x="602" vert-adv-y="2457" 
d="M437 1266q55 -8 85.5 -40t30.5 -80q0 -57 -40 -95.5t-99 -38.5q-61 0 -96 39.5t-35 106.5q0 152 91 271q47 61 104 92t143 42l-21 -103q-130 -35 -163 -194z" />
    <glyph glyph-name="quoteright" unicode="&#x2019;" horiz-adv-x="602" vert-adv-y="2457" 
d="M269 1010l20 102q126 38 164 197q-55 5 -86 37t-31 82q0 57 40.5 96t99.5 39t95 -40.5t36 -106.5q0 -70 -25 -144t-67 -129q-47 -61 -104 -92t-142 -41z" />
    <glyph glyph-name="divide" unicode="&#xf7;" horiz-adv-x="1147" vert-adv-y="2457" 
d="M157 616l33 168h862l-33 -168h-862zM540 442q55 0 92 -36.5t37 -92.5q0 -64 -44 -107.5t-109 -43.5q-55 0 -92.5 37t-37.5 92q0 62 45 106.5t109 44.5zM694 1239q55 0 92 -37t37 -92q0 -64 -44 -108t-109 -44q-55 0 -92.5 37t-37.5 92q0 63 45 107.5t109 44.5z" />
    <glyph glyph-name="lozenge" unicode="&#x25ca;" horiz-adv-x="1233" vert-adv-y="2457" 
d="M653 -67l-608 799l608 798l608 -798zM653 236l372 496l-372 495l-372 -495z" />
    <glyph glyph-name="ydieresis" unicode="&#xff;" horiz-adv-x="987" vert-adv-y="2457" 
d="M1069 1071l-666 -1231q-55 -103 -110 -152q-83 -73 -202 -73t-212 75l84 136q51 -49 119 -49q100 0 164 129l57 116l-180 1049h215l119 -782l395 782h217zM446 1495q47 0 78.5 -30t31.5 -76q0 -54 -39 -93t-93 -39q-47 0 -77.5 30.5t-30.5 76.5q0 54 38 92.5t92 38.5z
M824 1495q47 0 78.5 -30t31.5 -76q0 -54 -38.5 -93t-92.5 -39q-46 0 -77 30.5t-31 76.5q0 54 38.5 92.5t90.5 38.5z" />
    <glyph glyph-name="Ydieresis" unicode="&#x178;" horiz-adv-x="1190" vert-adv-y="2457" 
d="M397 0l118 614l-315 850h221l234 -667l471 667h223l-625 -858l-118 -606h-209zM628 1843q47 0 78.5 -30t31.5 -75q0 -54 -39 -93t-93 -39q-47 0 -77.5 30.5t-30.5 76.5q0 54 38 92t92 38zM1006 1843q47 0 78.5 -30t31.5 -75q0 -54 -38.5 -93t-92.5 -39q-46 0 -77 30.5
t-31 76.5q0 53 38.5 91.5t90.5 38.5z" />
    <glyph glyph-name="fraction" unicode="&#x2044;" horiz-adv-x="205" vert-adv-y="2457" 
d="M-436 0l995 1464h162l-995 -1464h-162z" />
    <glyph glyph-name="Euro" unicode="&#x20ac;" horiz-adv-x="1233" vert-adv-y="2457" 
d="M81 811l25 129h151q38 115 71 182.5t85 132.5q183 227 462 227q233 0 339 -149q35 -49 52.5 -99.5t35.5 -156.5l-197 -41q-19 118 -44 168q-57 110 -198 110q-266 0 -393 -374h416l-26 -129h-420q-16 -85 -19 -168h408l-27 -129h-381q11 -130 42 -198q74 -162 251 -162
q111 0 186 65t142 219l176 -65q-63 -142 -128 -217q-152 -174 -387 -174q-272 0 -403 209q-44 69 -62.5 134.5t-29.5 188.5h-184l25 129h161q3 83 19 168h-148z" />
    <glyph glyph-name="guilsinglleft" unicode="&#x2039;" horiz-adv-x="700" vert-adv-y="2457" 
d="M300 84l-172 418l326 399h196l-327 -416l157 -401h-180z" />
    <glyph glyph-name="guilsinglright" unicode="&#x203a;" horiz-adv-x="700" vert-adv-y="2457" 
d="M36 84l326 416l-156 401h180l172 -416l-325 -401h-197z" />
    <glyph glyph-name="daggerdbl" unicode="&#x2021;" horiz-adv-x="688" vert-adv-y="2457" 
d="M205 1124l27 131h176l41 209h152l-41 -209h178l-27 -131h-176l-29 -143h178l-26 -131h-176l-41 -209h-152l41 209h-178l27 131h176l28 143h-178z" />
    <glyph glyph-name="periodcentered" unicode="&#xb7;" horiz-adv-x="616" vert-adv-y="2457" 
d="M343 815q59 0 97.5 -38.5t38.5 -96.5q0 -66 -46 -111t-113 -45q-59 0 -97.5 38t-38.5 96q0 65 46 111t113 46z" />
    <glyph glyph-name="quotesinglbase" unicode="&#x201a;" horiz-adv-x="602" vert-adv-y="2457" 
d="M19 -303l20 102q127 35 164 197q-55 6 -86 37.5t-31 82.5q0 56 40.5 95t99.5 39t95 -40.5t36 -107.5q0 -70 -25 -143.5t-67 -127.5q-46 -61 -103 -92t-143 -42z" />
    <glyph glyph-name="quotedblbase" unicode="&#x201e;" horiz-adv-x="1006" vert-adv-y="2457" 
d="M23 -303l20 102q127 35 164 197q-55 6 -86 37.5t-31 82.5q0 56 40.5 95t99.5 39t95 -40.5t36 -107.5q0 -70 -25 -143.5t-67 -127.5q-46 -61 -103 -92t-143 -42zM416 -303l21 102q126 40 163 197q-54 6 -84 37.5t-30 82.5q0 57 39.5 95.5t98.5 38.5t94.5 -40.5
t35.5 -107.5q0 -152 -91 -271q-47 -61 -104 -92t-143 -42z" />
    <glyph glyph-name="perthousand" unicode="&#x2030;" horiz-adv-x="2630" vert-adv-y="2457" 
d="M600 1476q136 0 218 -92q80 -90 80 -247q0 -111 -37.5 -211t-104.5 -167q-102 -102 -243 -102q-137 0 -220 93t-83 247q0 200 112 341q110 138 278 138zM586 1331q-92 0 -144 -92q-54 -96 -54 -241q0 -196 138 -196q90 0 140 92q56 103 56 246q0 191 -136 191zM2189 805
q136 0 218 -92q80 -90 80 -247q0 -111 -37.5 -211t-104.5 -167q-102 -102 -243 -102q-137 0 -220 93t-83 247q0 200 112 341q110 138 278 138zM2175 660q-92 0 -144 -92q-54 -96 -54 -242q0 -195 138 -195q90 0 140 92q56 102 56 246q0 191 -136 191zM1418 805
q127 0 206 -79q91 -91 91 -259q0 -112 -37.5 -212.5t-105.5 -167.5q-100 -101 -241 -101q-137 0 -220.5 93.5t-83.5 246.5q0 197 111 339q111 140 280 140zM1403 660q-91 0 -143 -92q-53 -96 -53 -241q0 -122 48 -166q33 -30 89 -30q91 0 141 92q56 102 56 246q0 83 -27 129
q-37 62 -111 62zM386 0l993 1464h164l-995 -1464h-162z" />
    <glyph glyph-name="Acircumflex" unicode="&#xc2;" horiz-adv-x="1272" vert-adv-y="2457" 
d="M880 342h-575l-173 -342h-205l772 1466h225l209 -1466h-209zM859 506l-96 741l-375 -741h471zM535 1599l266 336h168l141 -336h-137l-112 178l-185 -178h-141z" />
    <glyph glyph-name="Ecircumflex" unicode="&#xca;" horiz-adv-x="1221" vert-adv-y="2457" 
d="M78 0l285 1464h901l-33 -168h-694l-92 -475h555l-31 -162h-555l-94 -491h729l-33 -168h-938zM534 1599l266 336h168l141 -336h-137l-112 178l-185 -178h-141z" />
    <glyph glyph-name="Aacute" unicode="&#xc1;" horiz-adv-x="1272" vert-adv-y="2457" 
d="M880 342h-575l-173 -342h-205l772 1466h225l209 -1466h-209zM859 506l-96 741l-375 -741h471zM747 1597l154 338h258l-267 -338h-145z" />
    <glyph glyph-name="Edieresis" unicode="&#xcb;" horiz-adv-x="1221" vert-adv-y="2457" 
d="M78 0l285 1464h901l-33 -168h-694l-92 -475h555l-31 -162h-555l-94 -491h729l-33 -168h-938zM661 1843q47 0 78.5 -30t31.5 -75q0 -54 -39.5 -93t-92.5 -39q-47 0 -77.5 30.5t-30.5 76.5q0 54 38 92t92 38zM1040 1843q47 0 78.5 -30t31.5 -75q0 -54 -39 -93t-92 -39
q-47 0 -78 30.5t-31 76.5q0 53 38.5 91.5t91.5 38.5z" />
    <glyph glyph-name="Egrave" unicode="&#xc8;" horiz-adv-x="1221" vert-adv-y="2457" 
d="M78 0l285 1464h901l-33 -168h-694l-92 -475h555l-31 -162h-555l-94 -491h729l-33 -168h-938zM805 1597l-170 338h242l61 -338h-133z" />
    <glyph glyph-name="Iacute" unicode="&#xcd;" horiz-adv-x="606" vert-adv-y="2457" 
d="M92 0l285 1464h209l-285 -1464h-209zM445 1597l154 338h258l-267 -338h-145z" />
    <glyph glyph-name="Icircumflex" unicode="&#xce;" horiz-adv-x="606" vert-adv-y="2457" 
d="M92 0l285 1464h209l-285 -1464h-209zM209 1599l266 336h168l141 -336h-137l-112 178l-185 -178h-141z" />
    <glyph glyph-name="Idieresis" unicode="&#xcf;" horiz-adv-x="606" vert-adv-y="2457" 
d="M92 0l285 1464h209l-285 -1464h-209zM342 1843q47 0 78.5 -30t31.5 -75q0 -54 -39 -93t-93 -39q-47 0 -77.5 30.5t-30.5 76.5q0 54 38 92t92 38zM720 1843q47 0 78.5 -30t31.5 -75q0 -54 -38.5 -93t-92.5 -39q-46 0 -77 30.5t-31 76.5q0 53 38.5 91.5t90.5 38.5z" />
    <glyph glyph-name="Igrave" unicode="&#xcc;" horiz-adv-x="606" vert-adv-y="2457" 
d="M92 0l285 1464h209l-285 -1464h-209zM449 1597l-170 338h242l61 -338h-133z" />
    <glyph glyph-name="Oacute" unicode="&#xd3;" horiz-adv-x="1565" vert-adv-y="2457" 
d="M885 1483q303 0 466 -206q134 -170 134 -444q0 -276 -130 -498q-101 -172 -258 -263.5t-353 -91.5q-252 0 -413 163q-175 178 -175 494q0 220 81 405q96 217 280 337q161 104 368 104zM890 1315q-263 0 -403 -245q-114 -201 -114 -468q0 -248 127 -365q98 -89 259 -89
q172 0 297 119q106 101 163 276q49 150 49 316q0 193 -75 307q-98 149 -303 149zM858 1597l154 338h258l-267 -338h-145z" />
    <glyph glyph-name="Ocircumflex" unicode="&#xd4;" horiz-adv-x="1565" vert-adv-y="2457" 
d="M885 1483q303 0 466 -206q134 -170 134 -444q0 -276 -130 -498q-101 -172 -258 -263.5t-353 -91.5q-252 0 -413 163q-175 178 -175 494q0 220 81 405q96 217 280 337q161 104 368 104zM890 1315q-263 0 -403 -245q-114 -201 -114 -468q0 -248 127 -365q98 -89 259 -89
q172 0 297 119q106 101 163 276q49 150 49 316q0 193 -75 307q-98 149 -303 149zM670 1599l266 336h168l141 -336h-137l-112 178l-185 -178h-141z" />
    <glyph glyph-name="glyph210" horiz-adv-x="616" vert-adv-y="2457" 
 />
    <glyph glyph-name="Ograve" unicode="&#xd2;" horiz-adv-x="1565" vert-adv-y="2457" 
d="M885 1483q303 0 466 -206q134 -170 134 -444q0 -276 -130 -498q-101 -172 -258 -263.5t-353 -91.5q-252 0 -413 163q-175 178 -175 494q0 220 81 405q96 217 280 337q161 104 368 104zM890 1315q-263 0 -403 -245q-114 -201 -114 -468q0 -248 127 -365q98 -89 259 -89
q172 0 297 119q106 101 163 276q49 150 49 316q0 193 -75 307q-98 149 -303 149zM917 1597l-170 338h242l61 -338h-133z" />
    <glyph glyph-name="Uacute" unicode="&#xda;" horiz-adv-x="1430" vert-adv-y="2457" 
d="M1436 1464l-195 -1005q-92 -479 -568 -479q-267 0 -397 148q-103 117 -103 315q0 80 20 179l166 842h208l-169 -870q-18 -95 -18 -168q0 -278 301 -278q169 0 257 97q77 86 112 265l185 954h201zM826 1597l154 338h258l-267 -338h-145z" />
    <glyph glyph-name="Ucircumflex" unicode="&#xdb;" horiz-adv-x="1430" vert-adv-y="2457" 
d="M1436 1464l-195 -1005q-92 -479 -568 -479q-267 0 -397 148q-103 117 -103 315q0 80 20 179l166 842h208l-169 -870q-18 -95 -18 -168q0 -278 301 -278q169 0 257 97q77 86 112 265l185 954h201zM633 1599l266 336h168l141 -336h-137l-112 178l-185 -178h-141z" />
    <glyph glyph-name="Ugrave" unicode="&#xd9;" horiz-adv-x="1430" vert-adv-y="2457" 
d="M1436 1464l-195 -1005q-92 -479 -568 -479q-267 0 -397 148q-103 117 -103 315q0 80 20 179l166 842h208l-169 -870q-18 -95 -18 -168q0 -278 301 -278q169 0 257 97q77 86 112 265l185 954h201zM898 1597l-170 338h242l61 -338h-133z" />
    <glyph glyph-name="dotlessi" unicode="&#x131;" horiz-adv-x="569" vert-adv-y="2457" 
d="M76 0l209 1071h205l-209 -1071h-205z" />
    <glyph glyph-name="circumflex" unicode="&#x2c6;" vert-adv-y="2457" 
d="M353 1206l266 336h168l141 -336h-137l-112 178l-185 -178h-141z" />
    <glyph glyph-name="tilde" unicode="&#x2dc;" vert-adv-y="2457" 
d="M1004 1493q-50 -240 -209 -240q-61 0 -154 57q-60 37 -89 37q-59 0 -83 -96l-123 12q50 240 205 240q61 0 155 -57q62 -37 91 -37q57 0 81 96z" />
    <glyph glyph-name="macron" unicode="&#xaf;" vert-adv-y="2457" 
d="M411 1299l29 147h495l-28 -147h-496z" />
    <glyph glyph-name="breve" unicode="&#x2d8;" vert-adv-y="2457" 
d="M423 1535h150q1 -72 15 -102q26 -56 104 -56q66 0 99.5 37.5t43.5 120.5h147q-24 -300 -290 -300q-85 0 -148.5 33.5t-91.5 93.5q-29 62 -29 173z" />
    <glyph glyph-name="dotaccent" unicode="&#x2d9;" vert-adv-y="2457" 
d="M684 1495q47 0 78.5 -30t31.5 -76q0 -54 -39 -93t-92 -39q-47 0 -78 30.5t-31 76.5q0 54 38 92.5t92 38.5z" />
    <glyph glyph-name="ring" unicode="&#x2da;" vert-adv-y="2457" 
d="M696 1620q86 0 142 -55.5t56 -141.5q0 -98 -67.5 -166.5t-164.5 -68.5q-84 0 -140 56.5t-56 142.5q0 97 67 165t163 68zM689 1520q-47 0 -77.5 -36.5t-30.5 -94.5q0 -46 24 -73.5t64 -27.5q48 0 80 37.5t32 92.5q0 46 -25 74t-67 28z" />
    <glyph glyph-name="cedilla" unicode="&#xb8;" vert-adv-y="2457" 
d="M371 -121q30 7 47 7q61 0 98.5 -40t37.5 -105q0 -76 -49 -124q-61 -61 -169 -61q-123 0 -196 92l92 65q40 -55 109 -55q84 0 84 79q0 66 -66 66q-35 0 -65 -30l-68 57l147 170h103z" />
    <glyph glyph-name="hungarumlaut" unicode="&#x2dd;" vert-adv-y="2457" 
d="M345 1204l125 338h219l-209 -338h-135zM660 1204l125 338h217l-206 -338h-136z" />
    <glyph glyph-name="ogonek" unicode="&#x2db;" vert-adv-y="2457" 
d="M533 -360q-81 -74 -188 -74q-87 0 -137 43t-50 118q0 158 213 273h133q-207 -132 -207 -256q0 -72 72 -72q51 0 104 47z" />
    <glyph glyph-name="caron" unicode="&#x2c7;" vert-adv-y="2457" 
d="M559 1206l-139 336h135l113 -180l184 180h141l-266 -336h-168z" />
    <glyph glyph-name="nonbreakingspace" unicode="&#xa0;" horiz-adv-x="616" vert-adv-y="2457" 
 />
    <glyph glyph-name="currency" unicode="&#xa4;" horiz-adv-x="1233" vert-adv-y="2457" 
d="M81 811l25 129h151q38 115 71 182.5t85 132.5q183 227 462 227q233 0 339 -149q35 -49 52.5 -99.5t35.5 -156.5l-197 -41q-19 118 -44 168q-57 110 -198 110q-266 0 -393 -374h416l-26 -129h-420q-16 -85 -19 -168h408l-27 -129h-381q11 -130 42 -198q74 -162 251 -162
q111 0 186 65t142 219l176 -65q-63 -142 -128 -217q-152 -174 -387 -174q-272 0 -403 209q-44 69 -62.5 134.5t-29.5 188.5h-184l25 129h161q3 83 19 168h-148z" />
    <glyph glyph-name="brokenbar" unicode="&#xa6;" horiz-adv-x="586" vert-adv-y="2457" 
d="M106 0l114 588h162l-114 -588h-162zM276 877l115 587h161l-114 -587h-162z" />
    <glyph glyph-name="uni00AD" unicode="&#xad;" horiz-adv-x="616" vert-adv-y="2457" 
d="M86 579l35 186h461l-35 -186h-461z" />
    <glyph glyph-name="twosuperior" unicode="&#xb2;" horiz-adv-x="924" vert-adv-y="2457" 
d="M164 912l27 142q249 158 335 224q176 138 176 255q0 52 -26 82.5t-70 30.5q-68 0 -112 -77q-13 -22 -37 -84l-179 48q44 120 93 170q92 96 256 96q136 0 210.5 -63t74.5 -177q0 -193 -215 -364q-60 -48 -202 -134h331l-28 -149h-634z" />
    <glyph glyph-name="threesuperior" unicode="&#xb3;" horiz-adv-x="924" vert-adv-y="2457" 
d="M780 1360q87 -60 87 -173q0 -125 -82 -202q-90 -84 -268 -84q-213 0 -301 133q-30 46 -48 155l202 28q21 -170 151 -170q64 0 100.5 32t36.5 89t-35 91.5t-94 34.5h-80l28 146h86q68 0 105.5 28t37.5 79q0 47 -30 75.5t-81 28.5q-52 0 -85 -28t-60 -94l-167 56
q78 213 329 213q133 0 213 -56q85 -60 85 -171q0 -141 -130 -211z" />
    <glyph glyph-name="onesuperior" unicode="&#xb9;" horiz-adv-x="924" vert-adv-y="2457" 
d="M217 912l29 148h202l90 463q-77 -14 -207 -15l25 134q124 13 178.5 42t93.5 104h159l-141 -728h182l-29 -148h-582z" />
    <glyph glyph-name="onequarter" unicode="&#xbc;" horiz-adv-x="1884" vert-adv-y="2457" 
d="M197 668l27 134h183l82 421q-68 -12 -188 -13l22 121q112 11 161.5 38t85.5 95h145l-128 -662h165l-26 -134h-529zM403 0l995 1464h162l-995 -1464h-162zM1350 0l29 155h-377l27 139l474 503h179l-99 -509h103l-25 -133h-103l-31 -155h-177zM1471 583l-274 -295h210z" />
    <glyph glyph-name="onehalf" unicode="&#xbd;" horiz-adv-x="1884" vert-adv-y="2457" 
d="M197 668l27 134h183l82 421q-68 -12 -188 -13l22 121q112 11 161.5 38t85.5 95h145l-128 -662h165l-26 -134h-529zM362 0l996 1464h161l-995 -1464h-162zM1022 0l25 129q222 139 304 203q160 125 160 231q0 48 -23.5 75.5t-63.5 27.5q-45 0 -74 -31.5t-61 -113.5l-163 43
q39 108 84 155q84 87 233 87q124 0 191.5 -57t67.5 -161q0 -177 -195 -331q-56 -44 -183 -122h301l-27 -135h-576z" />
    <glyph glyph-name="threequarters" unicode="&#xbe;" horiz-adv-x="1884" vert-adv-y="2457" 
d="M718 1075q80 -54 80 -156q0 -114 -74 -183q-82 -77 -244 -77q-195 0 -274 120q-27 42 -44 141l184 26q19 -154 138 -154q58 0 91 29t33 81t-32 83t-86 31h-73l26 132h78q62 0 96 25.5t34 71.5q0 43 -27.5 69t-73.5 26q-87 0 -131 -111l-153 50q71 194 300 194
q120 0 194 -51q77 -54 77 -155q0 -128 -119 -192zM413 0l995 1464h162l-995 -1464h-162zM1339 0l29 155h-378l28 139l474 503h179l-100 -509h104l-25 -133h-104l-30 -155h-177zM1460 583l-274 -295h209z" />
    <glyph glyph-name="Eth" unicode="&#xd0;" horiz-adv-x="1468" vert-adv-y="2457" 
d="M219 643h-160l33 166h159l127 655h451q208 0 342 -88q221 -146 221 -502q0 -284 -115 -501q-97 -183 -270.5 -278t-410.5 -95h-502zM427 643l-93 -475h279q251 0 391 159q82 93 126.5 236t44.5 314q0 168 -49 258q-87 161 -317 161h-254l-95 -487h275l-31 -166h-277z" />
    <glyph glyph-name="multiply" unicode="&#xd7;" horiz-adv-x="1147" vert-adv-y="2457" 
d="M298 262l-128 121l313 334l-313 332l128 121l306 -328l307 328l125 -120l-313 -333l313 -334l-125 -121l-307 328z" />
    <glyph glyph-name="Yacute" unicode="&#xdd;" horiz-adv-x="1190" vert-adv-y="2457" 
d="M397 0l118 614l-315 850h221l234 -667l471 667h223l-625 -858l-118 -606h-209zM737 1597l154 338h258l-267 -338h-145z" />
    <glyph glyph-name="Thorn" unicode="&#xde;" horiz-adv-x="1290" vert-adv-y="2457" 
d="M78 0l285 1464h209l-54 -274h289q231 0 343 -121q85 -93 85 -249q0 -232 -152 -365q-148 -131 -405 -131h-328l-63 -324h-209zM381 490h311q181 0 266 94q72 79 72 218q0 220 -243 220h-301z" />
    <glyph glyph-name="eth" unicode="&#xf0;" horiz-adv-x="1147" vert-adv-y="2457" 
d="M494 1147l-64 94l152 117q-61 56 -117 102l108 139q88 -62 158 -123l154 119l65 -94l-135 -104q111 -125 168 -244q90 -188 90 -426q0 -286 -114 -487q-148 -260 -441 -260q-205 0 -322 131q-110 123 -110 333q0 261 148 448q151 189 376 189q138 0 219 -96
q-56 158 -170 291zM629 919q-166 0 -255 -155q-79 -139 -79 -334q0 -286 229 -286q158 0 243 153q83 148 83 347q0 275 -221 275z" />
    <glyph glyph-name="yacute" unicode="&#xfd;" horiz-adv-x="987" vert-adv-y="2457" 
d="M1069 1071l-666 -1231q-55 -103 -110 -152q-83 -73 -202 -73t-212 75l84 136q51 -49 119 -49q100 0 164 129l57 116l-180 1049h215l119 -782l395 782h217zM521 1204l154 338h258l-267 -338h-145z" />
    <glyph glyph-name="thorn" unicode="&#xfe;" horiz-adv-x="1237" vert-adv-y="2457" 
d="M2 -373l371 1915h207l-122 -625q132 174 334 174q159 0 255 -109q100 -113 100 -323q0 -141 -41.5 -270.5t-116.5 -222.5q-147 -184 -368 -184q-222 0 -305 215l-107 -570h-207zM719 929q-117 0 -206 -85q-70 -65 -109.5 -176.5t-39.5 -241.5q0 -282 243 -282
q159 0 244 153q81 144 81 345q0 287 -213 287z" />
    <glyph glyph-name="Amacron" unicode="&#x100;" horiz-adv-x="1272" vert-adv-y="2457" 
d="M880 342h-575l-173 -342h-205l772 1466h225l209 -1466h-209zM859 506l-96 741l-375 -741h471zM582 1635l29 147h495l-28 -147h-496z" />
    <glyph glyph-name="amacron" unicode="&#x101;" horiz-adv-x="1085" vert-adv-y="2457" 
d="M657 143q-131 -163 -305 -163q-117 0 -199 65q-102 81 -102 221q0 178 153 269q86 51 202.5 74t332.5 32l8 42q8 44 8 81q0 157 -171 157q-158 0 -308 -114l-88 137q187 147 426 147q186 0 275 -91q73 -76 73 -201q0 -56 -12 -119l-84 -432q-3 -16 -3 -32q0 -69 93 -69
l-31 -153q-36 -6 -65 -6q-178 0 -203 155zM710 504q-156 -5 -260 -28q-190 -40 -190 -197q0 -139 160 -139q102 0 174 59.5t90 158.5zM405 1299l29 147h495l-28 -147h-496z" />
    <glyph glyph-name="Abreve" unicode="&#x102;" horiz-adv-x="1272" vert-adv-y="2457" 
d="M880 342h-575l-173 -342h-205l772 1466h225l209 -1466h-209zM859 506l-96 741l-375 -741h471zM1149 1878q-28 -133 -107 -202q-82 -70 -196 -70q-140 0 -209 103q-43 63 -43 169h147q7 -127 116 -127q55 0 88.5 29.5t57.5 97.5h146z" />
    <glyph glyph-name="abreve" unicode="&#x103;" horiz-adv-x="1085" vert-adv-y="2457" 
d="M657 143q-131 -163 -305 -163q-117 0 -199 65q-102 81 -102 221q0 178 153 269q86 51 202.5 74t332.5 32l8 42q8 44 8 81q0 157 -171 157q-158 0 -308 -114l-88 137q187 147 426 147q186 0 275 -91q73 -76 73 -201q0 -56 -12 -119l-84 -432q-3 -16 -3 -32q0 -69 93 -69
l-31 -153q-36 -6 -65 -6q-178 0 -203 155zM710 504q-156 -5 -260 -28q-190 -40 -190 -197q0 -139 160 -139q102 0 174 59.5t90 158.5zM967 1516q-27 -133 -107 -201q-82 -71 -196 -71q-140 0 -209 103q-43 63 -43 169h147q6 -127 116 -127q55 0 88.5 29t57.5 98h146z" />
    <glyph glyph-name="Aogonek" unicode="&#x104;" horiz-adv-x="1272" vert-adv-y="2457" 
d="M1133 0q-207 -132 -207 -256q0 -72 72 -72q51 0 105 47l59 -79q-81 -74 -188 -74q-87 0 -137 43t-50 118q0 157 213 273h-76l-44 342h-575l-173 -342h-205l772 1466h225zM859 506l-96 741l-375 -741h471z" />
    <glyph glyph-name="aogonek" unicode="&#x105;" horiz-adv-x="1085" vert-adv-y="2457" 
d="M896 -281l59 -79q-80 -74 -188 -74q-87 0 -137 43t-50 118q0 154 207 270q-111 30 -130 146q-131 -163 -305 -163q-117 0 -199 65q-102 81 -102 221q0 178 153 269q86 51 202.5 74t332.5 32l8 42q8 44 8 81q0 157 -171 157q-158 0 -308 -114l-88 137q187 147 426 147
q186 0 275 -91q73 -76 73 -201q0 -56 -12 -119l-84 -432q-3 -16 -3 -32q0 -69 93 -69l-29 -147q-208 -132 -208 -256q0 -72 72 -72q52 0 105 47zM710 504q-156 -5 -260 -28q-190 -40 -190 -197q0 -139 160 -139q102 0 174 59.5t90 158.5z" />
    <glyph glyph-name="Cacute" unicode="&#x106;" horiz-adv-x="1444" vert-adv-y="2457" 
d="M1317 399q-98 -216 -235 -313q-150 -106 -363 -106q-264 0 -415 170q-148 167 -148 460q0 229 86 426q84 192 235 308q178 138 414 138q255 0 387 -157q81 -97 117 -283l-195 -49q-25 143 -82 219q-78 102 -236 102q-169 0 -294 -118q-109 -103 -167 -282
q-48 -150 -48 -317q0 -180 63 -290q92 -159 298 -159q140 0 238 78t169 247zM858 1597l154 338h258l-267 -338h-145z" />
    <glyph glyph-name="cacute" unicode="&#x107;" horiz-adv-x="1083" vert-adv-y="2457" 
d="M940 238q-85 -128 -173 -185q-111 -73 -263 -73q-184 0 -297 117q-121 125 -121 345q0 136 41.5 260t117.5 212q151 177 388 177q143 0 235.5 -63t149.5 -199l-174 -80q-40 103 -85.5 141.5t-126.5 38.5q-167 0 -254 -157q-77 -139 -77 -338q0 -292 222 -292
q84 0 147.5 44t120.5 142zM564 1204l154 338h258l-267 -338h-145z" />
    <glyph glyph-name="Ccircumflex" unicode="&#x108;" horiz-adv-x="1444" vert-adv-y="2457" 
d="M1317 399q-98 -216 -235 -313q-150 -106 -363 -106q-264 0 -415 170q-148 167 -148 460q0 229 86 426q84 192 235 308q178 138 414 138q255 0 387 -157q81 -97 117 -283l-195 -49q-25 143 -82 219q-78 102 -236 102q-169 0 -294 -118q-109 -103 -167 -282
q-48 -150 -48 -317q0 -180 63 -290q92 -159 298 -159q140 0 238 78t169 247zM640 1599l266 336h168l141 -336h-137l-112 178l-185 -178h-141z" />
    <glyph glyph-name="ccircumflex" unicode="&#x109;" horiz-adv-x="1083" vert-adv-y="2457" 
d="M940 238q-85 -128 -173 -185q-111 -73 -263 -73q-184 0 -297 117q-121 125 -121 345q0 136 41.5 260t117.5 212q151 177 388 177q143 0 235.5 -63t149.5 -199l-174 -80q-40 103 -85.5 141.5t-126.5 38.5q-167 0 -254 -157q-77 -139 -77 -338q0 -292 222 -292
q84 0 147.5 44t120.5 142zM371 1206l266 336h168l141 -336h-137l-112 178l-185 -178h-141z" />
    <glyph glyph-name="Cdotaccent" unicode="&#x10a;" horiz-adv-x="1444" vert-adv-y="2457" 
d="M1317 399q-98 -216 -235 -313q-150 -106 -363 -106q-264 0 -415 170q-148 167 -148 460q0 229 86 426q84 192 235 308q178 138 414 138q255 0 387 -157q81 -97 117 -283l-195 -49q-25 143 -82 219q-78 102 -236 102q-169 0 -294 -118q-109 -103 -167 -282
q-48 -150 -48 -317q0 -180 63 -290q92 -159 298 -159q140 0 238 78t169 247zM963 1843q47 0 78.5 -30t31.5 -75q0 -54 -39 -93t-92 -39q-47 0 -78 30.5t-31 76.5q0 54 38 92t92 38z" />
    <glyph glyph-name="cdotaccent" unicode="&#x10b;" horiz-adv-x="1083" vert-adv-y="2457" 
d="M940 238q-85 -128 -173 -185q-111 -73 -263 -73q-184 0 -297 117q-121 125 -121 345q0 136 41.5 260t117.5 212q151 177 388 177q143 0 235.5 -63t149.5 -199l-174 -80q-40 103 -85.5 141.5t-126.5 38.5q-167 0 -254 -157q-77 -139 -77 -338q0 -292 222 -292
q84 0 147.5 44t120.5 142zM702 1495q47 0 78.5 -30t31.5 -76q0 -54 -39 -93t-92 -39q-47 0 -78 30.5t-31 76.5q0 54 38 92.5t92 38.5z" />
    <glyph glyph-name="Ccaron" unicode="&#x10c;" horiz-adv-x="1444" vert-adv-y="2457" 
d="M1317 399q-98 -216 -235 -313q-150 -106 -363 -106q-264 0 -415 170q-148 167 -148 460q0 229 86 426q84 192 235 308q178 138 414 138q255 0 387 -157q81 -97 117 -283l-195 -49q-25 143 -82 219q-78 102 -236 102q-169 0 -294 -118q-109 -103 -167 -282
q-48 -150 -48 -317q0 -180 63 -290q92 -159 298 -159q140 0 238 78t169 247zM845 1599l-139 336h135l113 -180l184 180h141l-266 -336h-168z" />
    <glyph glyph-name="ccaron" unicode="&#x10d;" horiz-adv-x="1084" vert-adv-y="2457" 
d="M940 238q-85 -128 -173 -185q-111 -73 -263 -73q-184 0 -297 117q-121 125 -121 345q0 136 41.5 260t117.5 212q151 177 388 177q143 0 235.5 -63t149.5 -199l-174 -80q-40 103 -85.5 141.5t-126.5 38.5q-167 0 -254 -157q-77 -139 -77 -338q0 -292 222 -292
q84 0 147.5 44t120.5 142zM570 1206l-139 336h135l113 -180l184 180h141l-266 -336h-168z" />
    <glyph glyph-name="Dcaron" unicode="&#x10e;" horiz-adv-x="1450" vert-adv-y="2457" 
d="M78 0l285 1464h450q208 0 342 -88q222 -146 222 -502q0 -285 -115 -501q-97 -183 -270.5 -278t-411.5 -95h-502zM318 168h279q251 0 392 159q82 93 126.5 236t44.5 314q0 168 -49 258q-88 161 -317 161h-254zM715 1599l-139 336h135l113 -180l184 180h141l-266 -336h-168
z" />
    <glyph glyph-name="dcaron" unicode="&#x10f;" horiz-adv-x="1456" vert-adv-y="2457" 
d="M786 160q-73 -96 -148.5 -137t-175.5 -41q-150 0 -249 100q-119 122 -119 353q0 144 42.5 272.5t119.5 219.5q142 164 351 164q114 0 196 -51.5t125 -148.5l127 651h204l-299 -1542h-204zM641 929q-164 0 -252 -153q-80 -141 -80 -341q0 -291 220 -291q111 0 198 83
q70 67 110.5 180t40.5 240q0 155 -77 226q-61 56 -160 56zM1337 1135l18 88q118 26 142 115q-48 5 -75.5 32.5t-27.5 70.5q0 49 34.5 82.5t84.5 33.5q54 0 86.5 -37.5t32.5 -99.5q0 -119 -75 -196q-75 -78 -220 -89z" />
    <glyph glyph-name="Dcroat" unicode="&#x110;" horiz-adv-x="1468" vert-adv-y="2457" 
d="M219 643h-160l33 166h159l127 655h451q208 0 342 -88q221 -146 221 -502q0 -284 -115 -501q-97 -183 -270.5 -278t-410.5 -95h-502zM427 643l-93 -475h279q251 0 391 159q82 93 126.5 236t44.5 314q0 168 -49 258q-87 161 -317 161h-254l-95 -487h275l-31 -166h-277z" />
    <glyph glyph-name="dcroat" unicode="&#x111;" horiz-adv-x="1241" vert-adv-y="2457" 
d="M1021 1372l34 170h204l-33 -170h162l-28 -158h-164l-236 -1214h-204l30 160q-73 -96 -148.5 -137t-175.5 -41q-150 0 -249 100q-119 122 -119 353q0 144 42.5 273t119.5 219q141 164 351 164q114 0 196 -51.5t125 -148.5l63 323h-227l30 158h227zM641 929
q-164 0 -252 -153q-80 -141 -80 -341q0 -291 220 -291q111 0 198 83q70 67 110.5 180t40.5 240q0 155 -77 226q-61 56 -160 56z" />
    <glyph glyph-name="Emacron" unicode="&#x112;" horiz-adv-x="1221" vert-adv-y="2457" 
d="M78 0l285 1464h901l-33 -168h-694l-92 -475h555l-31 -162h-555l-94 -491h729l-33 -168h-938zM587 1635l29 147h495l-28 -147h-496z" />
    <glyph glyph-name="emacron" unicode="&#x113;" horiz-adv-x="1096" vert-adv-y="2457" 
d="M922 193q-88 -111 -189.5 -162t-234.5 -51q-201 0 -310 123q-102 114 -102 316q0 273 161 468q168 204 424 204q185 0 279 -109q68 -78 68 -191q0 -238 -345 -312q-136 -29 -381 -35q-1 -35 -1 -45q0 -257 220 -257q83 0 146 34t129 115zM309 590q268 0 388 45.5
t120 147.5q0 69 -43 107.5t-119 38.5q-128 0 -216 -86.5t-130 -252.5zM435 1299l29 147h495l-28 -147h-496z" />
    <glyph glyph-name="Ebreve" unicode="&#x114;" horiz-adv-x="1221" vert-adv-y="2457" 
d="M78 0l285 1464h901l-33 -168h-694l-92 -475h555l-31 -162h-555l-94 -491h729l-33 -168h-938zM1129 1878q-27 -133 -107 -202q-81 -70 -195 -70q-140 0 -210 103q-43 63 -43 169h148q7 -127 116 -127q55 0 88.5 29.5t57.5 97.5h145z" />
    <glyph glyph-name="ebreve" unicode="&#x115;" horiz-adv-x="1096" vert-adv-y="2457" 
d="M922 193q-88 -111 -189.5 -162t-234.5 -51q-201 0 -310 123q-102 114 -102 316q0 273 161 468q168 204 424 204q185 0 279 -109q68 -78 68 -191q0 -238 -345 -312q-136 -29 -381 -35q-1 -35 -1 -45q0 -257 220 -257q83 0 146 34t129 115zM309 590q268 0 388 45.5
t120 147.5q0 69 -43 107.5t-119 38.5q-128 0 -216 -86.5t-130 -252.5zM463 1535h150q1 -72 15 -102q26 -56 104 -56q66 0 99.5 37.5t43.5 120.5h147q-24 -300 -290 -300q-85 0 -148.5 33.5t-91.5 93.5q-29 62 -29 173z" />
    <glyph glyph-name="Edotaccent" unicode="&#x116;" horiz-adv-x="1221" vert-adv-y="2457" 
d="M78 0l285 1464h901l-33 -168h-694l-92 -475h555l-31 -162h-555l-94 -491h729l-33 -168h-938zM851 1843q47 0 78.5 -30t31.5 -75q0 -54 -39 -93t-92 -39q-47 0 -78 30.5t-31 76.5q0 54 38 92t92 38z" />
    <glyph glyph-name="edotaccent" unicode="&#x117;" horiz-adv-x="1096" vert-adv-y="2457" 
d="M922 193q-88 -111 -189.5 -162t-234.5 -51q-201 0 -310 123q-102 114 -102 316q0 273 161 468q168 204 424 204q185 0 279 -109q68 -78 68 -191q0 -238 -345 -312q-136 -29 -381 -35q-1 -35 -1 -45q0 -257 220 -257q83 0 146 34t129 115zM309 590q268 0 388 45.5
t120 147.5q0 69 -43 107.5t-119 38.5q-128 0 -216 -86.5t-130 -252.5zM733 1495q47 0 78.5 -30t31.5 -76q0 -54 -39 -93t-92 -39q-47 0 -78 30.5t-31 76.5q0 54 38 92.5t92 38.5z" />
    <glyph glyph-name="Eogonek" unicode="&#x118;" horiz-adv-x="1221" vert-adv-y="2457" 
d="M1016 0q-207 -132 -207 -256q0 -72 72 -72q51 0 104 47l60 -79q-81 -74 -188 -74q-87 0 -137 43t-50 118q0 158 213 273h-805l285 1464h901l-33 -168h-694l-92 -475h555l-31 -162h-555l-94 -491h729z" />
    <glyph glyph-name="eogonek" unicode="&#x119;" horiz-adv-x="1096" vert-adv-y="2457" 
d="M584 -14q-185 -124 -185 -242q0 -72 72 -72q51 0 105 47l59 -80q-81 -73 -188 -73q-87 0 -137 43t-50 118q0 150 181 255q-103 13 -169 51q-186 109 -186 385q0 274 161 469q168 204 424 204q185 0 279 -109q68 -78 68 -191q0 -238 -345 -312q-136 -29 -381 -35
q-1 -35 -1 -45q0 -258 220 -258q83 0 145.5 34t129.5 116l136 -99q-143 -180 -338 -206zM309 590q268 0 388 45.5t120 147.5q0 69 -43 107.5t-119 38.5q-128 0 -216 -86.5t-130 -252.5z" />
    <glyph glyph-name="Ecaron" unicode="&#x11a;" horiz-adv-x="1221" vert-adv-y="2457" 
d="M78 0l285 1464h901l-33 -168h-694l-92 -475h555l-31 -162h-555l-94 -491h729l-33 -168h-938zM739 1599l-139 336h135l113 -180l184 180h141l-266 -336h-168z" />
    <glyph glyph-name="ecaron" unicode="&#x11b;" horiz-adv-x="1096" vert-adv-y="2457" 
d="M922 193q-88 -111 -189.5 -162t-234.5 -51q-201 0 -310 123q-102 114 -102 316q0 273 161 468q168 204 424 204q185 0 279 -109q68 -78 68 -191q0 -238 -345 -312q-136 -29 -381 -35q-1 -35 -1 -45q0 -257 220 -257q83 0 146 34t129 115zM309 590q268 0 388 45.5
t120 147.5q0 69 -43 107.5t-119 38.5q-128 0 -216 -86.5t-130 -252.5zM606 1206l-139 336h135l113 -180l184 180h141l-266 -336h-168z" />
    <glyph glyph-name="Gcircumflex" unicode="&#x11c;" horiz-adv-x="1536" vert-adv-y="2457" 
d="M1153 248q-168 -268 -465 -268q-299 0 -439 241q-89 153 -89 381q0 229 85 426q97 224 281 346q164 108 380 108q277 0 412 -174q67 -87 106 -260l-195 -57q-27 115 -59 175q-79 148 -270 148q-235 0 -379 -203q-144 -202 -144 -508q0 -455 351 -455q208 0 336 161
q71 90 114 260l8 33h-346l31 166h549l-150 -768h-119zM656 1599l266 336h168l141 -336h-137l-112 178l-185 -178h-141z" />
    <glyph glyph-name="gcircumflex" unicode="&#x11d;" horiz-adv-x="1128" vert-adv-y="2457" 
d="M364 430q-67 -48 -67 -108q0 -78 112 -78h209q189 0 279 -94q67 -69 67 -179q0 -130 -86 -223q-67 -71 -186 -110t-272 -39q-200 0 -321 69q-128 72 -128 205q0 163 227 242q-86 55 -86 152q0 127 162 219q-106 100 -106 239q0 113 68 205q57 76 153 118.5t212 42.5
q121 0 226 -53l326 51l-33 -169h-168q45 -78 45 -164q0 -177 -145 -281q-116 -84 -282 -84q-108 0 -206 39zM321 76q-151 -65 -151 -175q0 -146 268 -146q321 0 321 190q0 129 -172 129h-210q-29 0 -56 2zM598 948q-93 0 -154 -54q-75 -66 -75 -178q0 -87 54 -136.5
t149 -49.5q105 0 165.5 61.5t60.5 168.5q0 88 -53 138t-147 50zM363 1206l266 336h168l141 -336h-137l-112 178l-185 -178h-141z" />
    <glyph glyph-name="Gbreve" unicode="&#x11e;" horiz-adv-x="1536" vert-adv-y="2457" 
d="M1153 248q-168 -268 -465 -268q-299 0 -439 241q-89 153 -89 381q0 229 85 426q97 224 281 346q164 108 380 108q277 0 412 -174q67 -87 106 -260l-195 -57q-27 115 -59 175q-79 148 -270 148q-235 0 -379 -203q-144 -202 -144 -508q0 -455 351 -455q208 0 336 161
q71 90 114 260l8 33h-346l31 166h549l-150 -768h-119zM1269 1878q-27 -133 -107 -202q-81 -70 -195 -70q-141 0 -210 103q-43 63 -43 169h148q7 -127 116 -127q54 0 88 29.5t58 97.5h145z" />
    <glyph glyph-name="gbreve" unicode="&#x11f;" horiz-adv-x="1128" vert-adv-y="2457" 
d="M364 430q-67 -48 -67 -108q0 -78 112 -78h209q189 0 279 -94q67 -69 67 -179q0 -130 -86 -223q-67 -71 -186 -110t-272 -39q-200 0 -321 69q-128 72 -128 205q0 163 227 242q-86 55 -86 152q0 127 162 219q-106 100 -106 239q0 113 68 205q57 76 153 118.5t212 42.5
q121 0 226 -53l326 51l-33 -169h-168q45 -78 45 -164q0 -177 -145 -281q-116 -84 -282 -84q-108 0 -206 39zM321 76q-151 -65 -151 -175q0 -146 268 -146q321 0 321 190q0 129 -172 129h-210q-29 0 -56 2zM598 948q-93 0 -154 -54q-75 -66 -75 -178q0 -87 54 -136.5
t149 -49.5q105 0 165.5 61.5t60.5 168.5q0 88 -53 138t-147 50zM970 1516q-27 -133 -107 -201q-82 -71 -195 -71q-141 0 -210 103q-43 63 -43 169h148q6 -127 116 -127q55 0 88 29t58 98h145z" />
    <glyph glyph-name="Gdotaccent" unicode="&#x120;" horiz-adv-x="1536" vert-adv-y="2457" 
d="M1153 248q-168 -268 -465 -268q-299 0 -439 241q-89 153 -89 381q0 229 85 426q97 224 281 346q164 108 380 108q277 0 412 -174q67 -87 106 -260l-195 -57q-27 115 -59 175q-79 148 -270 148q-235 0 -379 -203q-144 -202 -144 -508q0 -455 351 -455q208 0 336 161
q71 90 114 260l8 33h-346l31 166h549l-150 -768h-119zM984 1843q47 0 78.5 -30t31.5 -75q0 -54 -39 -93t-92 -39q-47 0 -78 30.5t-31 76.5q0 54 38 92t92 38z" />
    <glyph glyph-name="gdotaccent" unicode="&#x121;" horiz-adv-x="1128" vert-adv-y="2457" 
d="M364 430q-67 -48 -67 -108q0 -78 112 -78h209q189 0 279 -94q67 -69 67 -179q0 -130 -86 -223q-67 -71 -186 -110t-272 -39q-200 0 -321 69q-128 72 -128 205q0 163 227 242q-86 55 -86 152q0 127 162 219q-106 100 -106 239q0 113 68 205q57 76 153 118.5t212 42.5
q121 0 226 -53l326 51l-33 -169h-168q45 -78 45 -164q0 -177 -145 -281q-116 -84 -282 -84q-108 0 -206 39zM321 76q-151 -65 -151 -175q0 -146 268 -146q321 0 321 190q0 129 -172 129h-210q-29 0 -56 2zM598 948q-93 0 -154 -54q-75 -66 -75 -178q0 -87 54 -136.5
t149 -49.5q105 0 165.5 61.5t60.5 168.5q0 88 -53 138t-147 50zM694 1495q47 0 78.5 -30t31.5 -76q0 -54 -39 -93t-92 -39q-47 0 -78 30.5t-31 76.5q0 54 38 92.5t92 38.5z" />
    <glyph glyph-name="Gcommaaccent" unicode="&#x122;" horiz-adv-x="1536" vert-adv-y="2457" 
d="M1153 248q-168 -268 -465 -268q-299 0 -439 241q-89 153 -89 381q0 229 85 426q97 224 281 346q164 108 380 108q277 0 412 -174q67 -87 106 -260l-195 -57q-27 115 -59 175q-79 148 -270 148q-235 0 -379 -203q-144 -202 -144 -508q0 -455 351 -455q208 0 336 161
q71 90 114 260l8 33h-346l31 166h549l-150 -768h-119zM485 -512l18 88q118 26 142 115q-48 5 -75.5 33t-27.5 70q0 49 34 82.5t85 33.5q54 0 86.5 -37.5t32.5 -99.5q0 -119 -75 -196q-75 -78 -220 -89z" />
    <glyph glyph-name="gcommaaccent" unicode="&#x123;" horiz-adv-x="1128" vert-adv-y="2457" 
d="M364 430q-67 -48 -67 -108q0 -78 112 -78h209q189 0 279 -94q67 -69 67 -179q0 -130 -86 -223q-67 -71 -186 -110t-272 -39q-200 0 -321 69q-128 72 -128 205q0 163 227 242q-86 55 -86 152q0 127 162 219q-106 100 -106 239q0 113 68 205q57 76 153 118.5t212 42.5
q121 0 226 -53l326 51l-33 -169h-168q45 -78 45 -164q0 -177 -145 -281q-116 -84 -282 -84q-108 0 -206 39zM321 76q-151 -65 -151 -175q0 -146 268 -146q321 0 321 190q0 129 -172 129h-210q-29 0 -56 2zM598 948q-93 0 -154 -54q-75 -66 -75 -178q0 -87 54 -136.5
t149 -49.5q105 0 165.5 61.5t60.5 168.5q0 88 -53 138t-147 50zM684 1411q47 -6 74.5 -34t27.5 -70q0 -49 -34 -82t-85 -33q-54 0 -86 36.5t-32 98.5q0 119 73 196q75 78 222 91l-19 -90q-117 -23 -141 -113z" />
    <glyph glyph-name="Hcircumflex" unicode="&#x124;" horiz-adv-x="1423" vert-adv-y="2457" 
d="M78 0l285 1464h213l-125 -649h628l127 649h213l-284 -1464h-213l125 641h-631l-125 -641h-213zM618 1599l266 336h168l141 -336h-137l-112 178l-185 -178h-141z" />
    <glyph glyph-name="hcircumflex" unicode="&#x125;" horiz-adv-x="1190" vert-adv-y="2457" 
d="M72 0l299 1542h207l-122 -631q126 180 326 180q136 0 211 -83q70 -78 70 -213q0 -65 -12 -127l-129 -668h-207l129 670q10 51 10 96q0 155 -160 155q-113 0 -190 -77.5t-104 -218.5l-121 -625h-207zM217 1599l266 336h168l141 -336h-137l-112 178l-185 -178h-141z" />
    <glyph glyph-name="Hbar" unicode="&#x126;" horiz-adv-x="1421" vert-adv-y="2457" 
d="M103 1059l28 141h180l52 264h213l-52 -264h631l51 264h213l-51 -264h187l-29 -141h-186l-205 -1059h-213l125 641h-631l-125 -641h-213l205 1059h-180zM451 815h628l48 244h-629z" />
    <glyph glyph-name="hbar" unicode="&#x127;" horiz-adv-x="1190" vert-adv-y="2457" 
d="M338 1370l33 172h207l-33 -172h248l-29 -154h-249l-59 -305q126 180 326 180q136 0 211 -83q70 -78 70 -213q0 -65 -12 -127l-129 -668h-207l129 670q10 51 10 96q0 155 -160 155q-113 0 -190 -77.5t-104 -218.5l-121 -625h-207l236 1216h-140l31 154h139z" />
    <glyph glyph-name="Itilde" unicode="&#x128;" horiz-adv-x="606" vert-adv-y="2457" 
d="M92 0l285 1464h209l-285 -1464h-209zM899 1849q-24 -117 -76.5 -178t-130.5 -61q-62 0 -155 57q-60 37 -90 37q-58 0 -82 -96l-123 12q50 240 206 240q60 0 154 -57q62 -37 91 -37q57 0 81 96z" />
    <glyph glyph-name="itilde" unicode="&#x129;" horiz-adv-x="569" vert-adv-y="2457" 
d="M76 0l209 1071h205l-209 -1071h-205zM775 1493q-50 -240 -209 -240q-61 0 -154 57q-60 37 -89 37q-59 0 -83 -96l-123 12q50 240 205 240q61 0 155 -57q62 -37 91 -37q57 0 81 96z" />
    <glyph glyph-name="Imacron" unicode="&#x12a;" horiz-adv-x="606" vert-adv-y="2457" 
d="M92 0l285 1464h209l-285 -1464h-209zM261 1635l29 147h495l-28 -147h-496z" />
    <glyph glyph-name="imacron" unicode="&#x12b;" horiz-adv-x="569" vert-adv-y="2457" 
d="M76 0l209 1071h205l-209 -1071h-205zM166 1299l29 147h495l-28 -147h-496z" />
    <glyph glyph-name="Ibreve" unicode="&#x12c;" horiz-adv-x="606" vert-adv-y="2457" 
d="M92 0l285 1464h209l-285 -1464h-209zM220 1907h150q1 -72 17 -101q31 -57 123 -57q75 0 113 37t49 121h148q-26 -300 -310 -300q-192 0 -260 129q-29 56 -30 171z" />
    <glyph glyph-name="ibreve" unicode="&#x12d;" horiz-adv-x="569" vert-adv-y="2457" 
d="M76 0l209 1071h205l-209 -1071h-205zM727 1516q-27 -133 -107 -201q-82 -71 -195 -71q-141 0 -210 103q-43 63 -43 169h148q6 -127 116 -127q55 0 88 29t58 98h145z" />
    <glyph glyph-name="Iogonek" unicode="&#x12e;" horiz-adv-x="606" vert-adv-y="2457" 
d="M301 0q-207 -133 -207 -256q0 -72 72 -72q51 0 104 47l60 -79q-81 -74 -188 -74q-87 0 -137 43t-50 118q0 158 213 273h-76l285 1464h209z" />
    <glyph glyph-name="iogonek" unicode="&#x12f;" horiz-adv-x="569" vert-adv-y="2457" 
d="M280 0q-207 -133 -207 -256q0 -72 72 -72q51 0 104 47l60 -79q-81 -74 -188 -74q-87 0 -137 43t-50 118q0 158 213 273h-72l209 1071h205zM452 1499q50 0 82 -31t32 -80q0 -57 -40 -97t-97 -40q-49 0 -81 31.5t-32 80.5q0 57 39 96.5t97 39.5z" />
    <glyph glyph-name="Idotaccent" unicode="&#x130;" horiz-adv-x="606" vert-adv-y="2457" 
d="M92 0l285 1464h209l-285 -1464h-209zM537 1843q47 0 78.5 -30t31.5 -75q0 -54 -39 -93t-92 -39q-47 0 -78 30.5t-31 76.5q0 54 38 92t92 38z" />
    <glyph glyph-name="IJ" unicode="&#x132;" horiz-adv-x="1657" vert-adv-y="2457" 
d="M68 0l285 1464h209l-285 -1464h-209zM1608 1464l-204 -1046q-46 -235 -192 -347q-119 -91 -295 -91q-213 0 -317 127q-75 92 -75 239q0 56 12 123l11 55h206l-10 -53q-15 -74 -15 -128q0 -195 193 -195q116 0 182 67.5t94 214.5l199 1034h211z" />
    <glyph glyph-name="ij" unicode="&#x133;" horiz-adv-x="945" vert-adv-y="2457" 
d="M76 0l209 1071h205l-209 -1071h-205zM453 1499q50 0 82 -31t32 -80q0 -57 -40 -97t-97 -40q-49 0 -81 31.5t-32 80.5q0 57 39 96.5t97 39.5zM839 1071l-228 -1167q-30 -156 -111 -224q-83 -69 -209 -69q-102 0 -163 45l63 151q53 -26 91 -26q54 0 83 33t45 114l224 1143
h205zM802 1499q50 0 82 -31t32 -80q0 -57 -40 -97t-97 -40q-49 0 -81 31.5t-32 80.5q0 57 39 96.5t97 39.5z" />
    <glyph glyph-name="Jcircumflex" unicode="&#x134;" horiz-adv-x="1139" vert-adv-y="2457" 
d="M1146 1464l-204 -1046q-46 -235 -192 -347q-119 -91 -295 -91q-213 0 -317 127q-75 92 -75 239q0 56 12 123l11 55h206l-10 -53q-15 -74 -15 -128q0 -195 193 -195q116 0 182 67.5t94 214.5l199 1034h211zM746 1599l266 336h168l141 -336h-137l-112 178l-185 -178h-141z
" />
    <glyph glyph-name="jcircumflex" unicode="&#x135;" horiz-adv-x="569" vert-adv-y="2457" 
d="M494 1071l-228 -1167q-30 -156 -111 -224q-83 -69 -209 -69q-102 0 -163 45l63 151q53 -26 91 -26q54 0 83 33t45 114l224 1143h205zM108 1206l266 336h168l141 -336h-137l-112 178l-185 -178h-141z" />
    <glyph glyph-name="Kcommaaccent" unicode="&#x136;" horiz-adv-x="1315" vert-adv-y="2457" 
d="M78 0l285 1464h209l-140 -713l727 715h242l-639 -618l383 -848h-223l-320 700l-219 -207l-96 -493h-209zM399 -512l18 88q118 26 142 115q-48 5 -75.5 33t-27.5 70q0 49 34 82.5t85 33.5q54 0 86.5 -37.5t32.5 -99.5q0 -119 -75 -196q-75 -78 -220 -89z" />
    <glyph glyph-name="kcommaaccent" unicode="&#x137;" horiz-adv-x="1087" vert-adv-y="2457" 
d="M717 0l-209 496l-166 -166l-63 -330h-207l299 1542h207l-184 -950l462 479h238l-430 -428l268 -643h-215zM298 -512l18 88q118 26 142 115q-48 5 -75.5 33t-27.5 70q0 49 34 82.5t85 33.5q54 0 86.5 -37.5t32.5 -99.5q0 -119 -75 -196q-75 -78 -220 -89z" />
    <glyph glyph-name="kgreenlandic" unicode="&#x138;" horiz-adv-x="1315" vert-adv-y="2457" 
d="M68 2l249 1069h195l-118 -506l616 506h230l-563 -456l334 -613h-208l-275 497l-181 -144l-84 -353h-195z" />
    <glyph glyph-name="Lacute" unicode="&#x139;" horiz-adv-x="1163" vert-adv-y="2457" 
d="M78 0l285 1464h209l-252 -1296h665l-33 -168h-874zM422 1597l154 338h258l-267 -338h-145z" />
    <glyph glyph-name="lacute" unicode="&#x13a;" horiz-adv-x="571" vert-adv-y="2457" 
d="M76 0l299 1542h207l-299 -1542h-207zM440 1646l154 338h258l-267 -338h-145z" />
    <glyph glyph-name="Lcommaaccent" unicode="&#x13b;" horiz-adv-x="1163" vert-adv-y="2457" 
d="M78 0l285 1464h209l-252 -1296h665l-33 -168h-874zM317 -512l18 88q118 26 142 115q-48 5 -75.5 33t-27.5 70q0 49 34 82.5t85 33.5q54 0 86.5 -37.5t32.5 -99.5q0 -119 -75 -196q-75 -78 -220 -89z" />
    <glyph glyph-name="lcommaaccent" unicode="&#x13c;" horiz-adv-x="571" vert-adv-y="2457" 
d="M76 0l299 1542h207l-299 -1542h-207zM-39 -512l18 88q118 26 142 115q-48 5 -75.5 33t-27.5 70q0 49 34 82.5t85 33.5q54 0 86.5 -37.5t32.5 -99.5q0 -119 -75 -196q-75 -78 -220 -89z" />
    <glyph glyph-name="Lcaron" unicode="&#x13d;" horiz-adv-x="1167" vert-adv-y="2457" 
d="M78 0l285 1464h209l-252 -1296h665l-33 -168h-874zM687 1052l18 88q118 26 142 115q-48 5 -75.5 33t-27.5 70q0 50 34.5 83t84.5 33q54 0 86.5 -37.5t32.5 -99.5q0 -118 -75 -196q-75 -77 -220 -89z" />
    <glyph glyph-name="lcaron" unicode="&#x13e;" horiz-adv-x="772" vert-adv-y="2457" 
d="M76 0l299 1542h207l-299 -1542h-207zM647 1135l18 88q118 26 142 115q-48 5 -75.5 32.5t-27.5 70.5q0 49 34.5 82.5t84.5 33.5q54 0 86.5 -37.5t32.5 -99.5q0 -119 -75 -196q-75 -78 -220 -89z" />
    <glyph glyph-name="Ldot" unicode="&#x13f;" horiz-adv-x="1163" vert-adv-y="2457" 
d="M78 0l285 1464h209l-252 -1296h665l-33 -168h-874zM831 815q59 0 97.5 -38.5t38.5 -96.5q0 -66 -46 -111t-113 -45q-59 0 -97.5 38t-38.5 96q0 65 46 111t113 46z" />
    <glyph glyph-name="ldot" unicode="&#x140;" horiz-adv-x="659" vert-adv-y="2457" 
d="M76 0l299 1542h207l-299 -1542h-207zM728 815q59 0 97.5 -38.5t38.5 -96.5q0 -66 -46 -111t-113 -45q-59 0 -97.5 38t-38.5 96q0 65 46 111t113 46z" />
    <glyph glyph-name="Lslash" unicode="&#x141;" horiz-adv-x="1196" vert-adv-y="2457" 
d="M53 502l35 172l168 61l141 729h209l-125 -647l354 131l-30 -172l-359 -131l-92 -477h666l-33 -168h-875l109 563z" />
    <glyph glyph-name="lslash" unicode="&#x142;" horiz-adv-x="674" vert-adv-y="2457" 
d="M61 545l37 188l190 88l140 721h206l-118 -614l213 100l-37 -188l-213 -101l-144 -739h-206l122 633z" />
    <glyph glyph-name="Nacute" unicode="&#x143;" horiz-adv-x="1423" vert-adv-y="2457" 
d="M78 0l285 1464h252l375 -1222l237 1222h192l-284 -1464h-258l-369 1210l-235 -1210h-195zM835 1597l154 338h258l-267 -338h-145z" />
    <glyph glyph-name="nacute" unicode="&#x144;" horiz-adv-x="1190" vert-adv-y="2457" 
d="M72 0l209 1071h207l-32 -160q126 180 326 180q167 0 240 -124q41 -68 41 -172q0 -65 -12 -127l-129 -668h-207l129 670q10 51 10 97q0 154 -160 154q-113 0 -190 -77.5t-104 -218.5l-121 -625h-207zM672 1204l154 338h258l-267 -338h-145z" />
    <glyph glyph-name="Ncommaaccent" unicode="&#x145;" horiz-adv-x="1423" vert-adv-y="2457" 
d="M78 0l285 1464h252l375 -1222l237 1222h192l-284 -1464h-258l-369 1210l-235 -1210h-195zM429 -512l18 88q118 26 142 115q-48 5 -75.5 33t-27.5 70q0 49 34 82.5t85 33.5q54 0 86.5 -37.5t32.5 -99.5q0 -119 -75 -196q-75 -78 -220 -89z" />
    <glyph glyph-name="ncommaaccent" unicode="&#x146;" horiz-adv-x="1190" vert-adv-y="2457" 
d="M72 0l209 1071h207l-32 -160q126 180 326 180q167 0 240 -124q41 -68 41 -172q0 -65 -12 -127l-129 -668h-207l129 670q10 51 10 97q0 154 -160 154q-113 0 -190 -77.5t-104 -218.5l-121 -625h-207zM300 -512l18 88q118 26 142 115q-48 5 -75.5 33t-27.5 70q0 49 34 82.5
t85 33.5q54 0 86.5 -37.5t32.5 -99.5q0 -119 -75 -196q-75 -78 -220 -89z" />
    <glyph glyph-name="Ncaron" unicode="&#x147;" horiz-adv-x="1423" vert-adv-y="2457" 
d="M78 0l285 1464h252l375 -1222l237 1222h192l-284 -1464h-258l-369 1210l-235 -1210h-195zM847 1599l-139 336h135l113 -180l184 180h141l-266 -336h-168z" />
    <glyph glyph-name="ncaron" unicode="&#x148;" horiz-adv-x="1190" vert-adv-y="2457" 
d="M72 0l209 1071h207l-32 -160q126 180 326 180q167 0 240 -124q41 -68 41 -172q0 -65 -12 -127l-129 -668h-207l129 670q10 51 10 97q0 154 -160 154q-113 0 -190 -77.5t-104 -218.5l-121 -625h-207zM642 1206l-139 336h135l113 -180l184 180h141l-266 -336h-168z" />
    <glyph glyph-name="napostrophe" unicode="&#x149;" horiz-adv-x="1190" vert-adv-y="2457" 
d="M71 0l209 1071h207l-32 -160q126 180 326 180q167 0 240 -124q41 -68 41 -172q0 -65 -12 -127l-129 -668h-207l129 670q10 51 10 97q0 154 -160 154q-113 0 -190 -77.5t-104 -218.5l-121 -625h-207zM-61 1060l18 88q118 26 142 115q-48 5 -75.5 32.5t-27.5 70.5
q0 49 34.5 82.5t84.5 33.5q54 0 86.5 -37.5t32.5 -99.5q0 -119 -75 -196q-75 -78 -220 -89z" />
    <glyph glyph-name="Eng" unicode="&#x14a;" horiz-adv-x="1190" vert-adv-y="2457" 
d="M508 1304q52 75 108 114q94 67 229 67q160 0 235 -96q60 -76 60 -200q0 -66 -12 -128l-226 -1154q-17 -85 -42.5 -136t-69.5 -88q-83 -69 -207 -69q-56 0 -95 12l49 162q13 -4 33 -4q57 0 86 32.5t44 114.5l221 1132q10 52 10 97q0 81 -41.5 118t-132.5 37
q-121 0 -199 -76t-106 -221l-198 -1018h-207l286 1464h207z" />
    <glyph glyph-name="eng" unicode="&#x14b;" horiz-adv-x="1190" vert-adv-y="2457" 
d="M456 911q126 180 326 180q167 0 240 -124q41 -68 41 -172q0 -66 -12 -127l-149 -761q-30 -156 -112 -224q-82 -69 -207 -69q-55 0 -94 12l49 162q13 -4 33 -4q56 0 85 32.5t45 114.5l143 739q10 51 10 97q0 154 -160 154q-113 0 -190 -77.5t-104 -218.5l-121 -625h-207
l209 1071h207z" />
    <glyph glyph-name="Omacron" unicode="&#x14c;" horiz-adv-x="1565" vert-adv-y="2457" 
d="M885 1483q303 0 466 -206q134 -170 134 -444q0 -276 -130 -498q-101 -172 -258 -263.5t-353 -91.5q-252 0 -413 163q-175 178 -175 494q0 220 81 405q96 217 280 337q161 104 368 104zM890 1315q-263 0 -403 -245q-114 -201 -114 -468q0 -248 127 -365q98 -89 259 -89
q172 0 297 119q106 101 163 276q49 150 49 316q0 193 -75 307q-98 149 -303 149zM705 1635l29 147h495l-28 -147h-496z" />
    <glyph glyph-name="omacron" unicode="&#x14d;" horiz-adv-x="1153" vert-adv-y="2457" 
d="M636 1091q210 0 326 -142q101 -124 101 -325q0 -147 -50 -280t-139 -222q-141 -142 -352 -142q-202 0 -320 136q-112 128 -112 340q0 129 41.5 250t115.5 208q151 177 389 177zM632 929q-154 0 -242 -148q-85 -142 -85 -352q0 -287 221 -287q158 0 247 171q75 145 75 340
q0 276 -216 276zM451 1299l29 147h495l-28 -147h-496z" />
    <glyph glyph-name="Obreve" unicode="&#x14e;" horiz-adv-x="1565" vert-adv-y="2457" 
d="M885 1483q303 0 466 -206q134 -170 134 -444q0 -276 -130 -498q-101 -172 -258 -263.5t-353 -91.5q-252 0 -413 163q-175 178 -175 494q0 220 81 405q96 217 280 337q161 104 368 104zM890 1315q-263 0 -403 -245q-114 -201 -114 -468q0 -248 127 -365q98 -89 259 -89
q172 0 297 119q106 101 163 276q49 150 49 316q0 193 -75 307q-98 149 -303 149zM782 1907h150q1 -72 17 -101q31 -57 123 -57q75 0 113 37t49 121h148q-26 -300 -310 -300q-192 0 -260 129q-29 56 -30 171z" />
    <glyph glyph-name="obreve" unicode="&#x14f;" horiz-adv-x="1153" vert-adv-y="2457" 
d="M636 1091q210 0 326 -142q101 -124 101 -325q0 -147 -50 -280t-139 -222q-141 -142 -352 -142q-202 0 -320 136q-112 128 -112 340q0 129 41.5 250t115.5 208q151 177 389 177zM632 929q-154 0 -242 -148q-85 -142 -85 -352q0 -287 221 -287q158 0 247 171q75 145 75 340
q0 276 -216 276zM487 1535h150q1 -72 15 -102q26 -56 104 -56q66 0 99.5 37.5t43.5 120.5h147q-24 -300 -290 -300q-85 0 -148.5 33.5t-91.5 93.5q-29 62 -29 173z" />
    <glyph glyph-name="Ohungarumlaut" unicode="&#x150;" horiz-adv-x="1565" vert-adv-y="2457" 
d="M885 1483q303 0 466 -206q134 -170 134 -444q0 -276 -130 -498q-101 -172 -258 -263.5t-353 -91.5q-252 0 -413 163q-175 178 -175 494q0 220 81 405q96 217 280 337q161 104 368 104zM890 1315q-263 0 -403 -245q-114 -201 -114 -468q0 -248 127 -365q98 -89 259 -89
q172 0 297 119q106 101 163 276q49 150 49 316q0 193 -75 307q-98 149 -303 149zM717 1597l125 338h219l-209 -338h-135zM1032 1597l125 338h217l-206 -338h-136z" />
    <glyph glyph-name="ohungarumlaut" unicode="&#x151;" horiz-adv-x="1153" vert-adv-y="2457" 
d="M636 1091q210 0 326 -142q101 -124 101 -325q0 -147 -50 -280t-139 -222q-141 -142 -352 -142q-202 0 -320 136q-112 128 -112 340q0 129 41.5 250t115.5 208q151 177 389 177zM632 929q-154 0 -242 -148q-85 -142 -85 -352q0 -287 221 -287q158 0 247 171q75 145 75 340
q0 276 -216 276zM445 1204l125 338h219l-209 -338h-135zM760 1204l125 338h217l-206 -338h-136z" />
    <glyph glyph-name="Racute" unicode="&#x154;" horiz-adv-x="1341" vert-adv-y="2457" 
d="M78 0l285 1464h497q157 0 265 -66q153 -94 153 -297q0 -189 -118 -297q-80 -72 -242 -109q112 -40 150.5 -109t43.5 -240q10 -265 53 -336l-2 -10h-211q-36 97 -40 348q-2 94 -17.5 145t-52.5 86q-56 52 -193 52h-239l-123 -631h-209zM441 795h295q335 0 335 291
q0 210 -245 210h-287zM722 1597l154 338h258l-267 -338h-145z" />
    <glyph glyph-name="racute" unicode="&#x155;" horiz-adv-x="858" vert-adv-y="2457" 
d="M72 0l209 1071h207l-37 -182q115 200 290 200q83 0 152 -43l-78 -176q-57 35 -115 35q-116 0 -198 -87.5t-113 -244.5l-110 -573h-207zM506 1204l154 338h258l-267 -338h-145z" />
    <glyph glyph-name="Rcommaaccent" unicode="&#x156;" horiz-adv-x="1341" vert-adv-y="2457" 
d="M78 0l285 1464h497q157 0 265 -66q153 -94 153 -297q0 -189 -118 -297q-80 -72 -242 -109q112 -40 150.5 -109t43.5 -240q10 -265 53 -336l-2 -10h-211q-36 97 -40 348q-2 94 -17.5 145t-52.5 86q-56 52 -193 52h-239l-123 -631h-209zM441 795h295q335 0 335 291
q0 210 -245 210h-287zM455 -512l18 88q118 26 142 115q-48 5 -75.5 33t-27.5 70q0 49 34 82.5t85 33.5q54 0 86.5 -37.5t32.5 -99.5q0 -119 -75 -196q-75 -78 -220 -89z" />
    <glyph glyph-name="rcommaaccent" unicode="&#x157;" horiz-adv-x="858" vert-adv-y="2457" 
d="M71 0l209 1071h207l-37 -182q115 200 290 200q83 0 152 -43l-78 -176q-57 35 -115 35q-116 0 -198 -87.5t-113 -244.5l-110 -573h-207zM-29 -512l18 88q118 26 142 115q-48 5 -75.5 33t-27.5 70q0 49 34 82.5t85 33.5q54 0 86.5 -37.5t32.5 -99.5q0 -119 -75 -196
q-75 -78 -220 -89z" />
    <glyph glyph-name="Rcaron" unicode="&#x158;" horiz-adv-x="1341" vert-adv-y="2457" 
d="M78 0l285 1464h497q157 0 265 -66q153 -94 153 -297q0 -189 -118 -297q-80 -72 -242 -109q112 -40 150.5 -109t43.5 -240q10 -265 53 -336l-2 -10h-211q-36 97 -40 348q-2 94 -17.5 145t-52.5 86q-56 52 -193 52h-239l-123 -631h-209zM441 795h295q335 0 335 291
q0 210 -245 210h-287zM709 1599l-139 336h135l113 -180l184 180h141l-266 -336h-168z" />
    <glyph glyph-name="rcaron" unicode="&#x159;" horiz-adv-x="858" vert-adv-y="2457" 
d="M72 0l209 1071h207l-37 -182q115 200 290 200q83 0 152 -43l-78 -176q-57 35 -115 35q-116 0 -198 -87.5t-113 -244.5l-110 -573h-207zM512 1206l-139 336h135l113 -180l184 180h141l-266 -336h-168z" />
    <glyph glyph-name="Sacute" unicode="&#x15a;" horiz-adv-x="1235" vert-adv-y="2457" 
d="M1002 1089q-36 102 -83 148q-78 77 -217 77q-103 0 -171 -39q-100 -58 -100 -184q0 -86 53 -132.5t227 -113.5q209 -79 296 -160q97 -92 97 -250q0 -242 -199 -367q-142 -88 -339 -88q-242 0 -384 127q-109 96 -153 284l203 51q31 -159 120 -228q86 -66 227 -66
q117 0 194 45q120 70 120 216q0 90 -55 141t-221 116q-128 49 -187.5 81.5t-104.5 76.5q-95 92 -95 243q0 196 146 311q133 104 340 104q189 0 305.5 -82t170.5 -253zM723 1597l154 338h258l-267 -338h-145z" />
    <glyph glyph-name="sacute" unicode="&#x15b;" horiz-adv-x="1001" vert-adv-y="2457" 
d="M790 788q-99 141 -251 141q-79 0 -122.5 -34.5t-43.5 -97.5q0 -56 33.5 -87.5t144.5 -79.5q148 -63 209 -111q96 -76 96 -209q0 -131 -89 -218q-114 -112 -323 -112q-292 0 -434 225l147 110q58 -93 126.5 -133t170.5 -40q81 0 130 28q67 38 67 113q0 55 -35 90t-131 75
q-103 44 -145 67.5t-84 63.5q-82 77 -82 202q0 162 127 245q100 65 248 65q127 0 217.5 -44t165.5 -142zM492 1204l154 338h258l-267 -338h-145z" />
    <glyph glyph-name="Scircumflex" unicode="&#x15c;" horiz-adv-x="1235" vert-adv-y="2457" 
d="M1002 1089q-36 102 -83 148q-78 77 -217 77q-103 0 -171 -39q-100 -58 -100 -184q0 -86 53 -132.5t227 -113.5q209 -79 296 -160q97 -92 97 -250q0 -242 -199 -367q-142 -88 -339 -88q-242 0 -384 127q-109 96 -153 284l203 51q31 -159 120 -228q86 -66 227 -66
q117 0 194 45q120 70 120 216q0 90 -55 141t-221 116q-128 49 -187.5 81.5t-104.5 76.5q-95 92 -95 243q0 196 146 311q133 104 340 104q189 0 305.5 -82t170.5 -253zM499 1599l266 336h168l141 -336h-137l-112 178l-185 -178h-141z" />
    <glyph glyph-name="scircumflex" unicode="&#x15d;" horiz-adv-x="1001" vert-adv-y="2457" 
d="M790 788q-99 141 -251 141q-79 0 -122.5 -34.5t-43.5 -97.5q0 -56 33.5 -87.5t144.5 -79.5q148 -63 209 -111q96 -76 96 -209q0 -131 -89 -218q-114 -112 -323 -112q-292 0 -434 225l147 110q58 -93 126.5 -133t170.5 -40q81 0 130 28q67 38 67 113q0 55 -35 90t-131 75
q-103 44 -145 67.5t-84 63.5q-82 77 -82 202q0 162 127 245q100 65 248 65q127 0 217.5 -44t165.5 -142zM318 1206l266 336h168l141 -336h-137l-112 178l-185 -178h-141z" />
    <glyph glyph-name="Scedilla" unicode="&#x15e;" horiz-adv-x="1235" vert-adv-y="2457" 
d="M589 -20l-87 -101q29 7 46 7q61 0 98.5 -40.5t37.5 -104.5q0 -84 -59 -135t-157 -51q-125 0 -198 92l92 66q40 -56 109 -56q84 0 84 79q0 67 -65 67q-36 0 -66 -31l-68 58l133 153q-383 36 -460 408l203 51q30 -160 120 -228q86 -67 227 -67q117 0 194 45q120 70 120 216
q0 90 -55 141.5t-221 115.5q-129 50 -188 82t-104 76q-95 93 -95 244q0 196 146 310q133 105 340 105q189 0 305.5 -82t170.5 -253l-190 -58q-37 103 -83 148q-78 77 -217 77q-103 0 -171 -39q-100 -58 -100 -184q0 -87 52.5 -133t227.5 -113q209 -79 296 -161
q97 -91 97 -250q0 -199 -139 -322t-376 -132z" />
    <glyph glyph-name="scedilla" unicode="&#x15f;" horiz-adv-x="1001" vert-adv-y="2457" 
d="M447 -21l-87 -100q30 7 47 7q60 0 97.5 -40.5t37.5 -104.5q0 -78 -49 -125q-61 -61 -169 -61q-123 0 -195 93l92 65q40 -56 108 -56q84 0 84 79q0 67 -66 67q-34 0 -65 -30l-67 57l135 156q-223 32 -340 219l147 110q58 -94 126 -134t171 -40q81 0 130 28q67 38 67 113
q0 55 -35 90t-131 75q-103 44 -145 68t-84 63q-82 77 -82 202q0 163 127 246q100 65 248 65q127 0 217.5 -44t165.5 -142l-142 -117q-99 141 -251 141q-79 0 -122.5 -35t-43.5 -98q0 -56 33.5 -87t144.5 -79q148 -63 209 -111q96 -77 96 -209q0 -149 -110 -238t-299 -93z
" />
    <glyph glyph-name="Scaron" unicode="&#x160;" horiz-adv-x="1235" vert-adv-y="2457" 
d="M1002 1089q-36 102 -83 148q-78 77 -217 77q-103 0 -171 -39q-100 -58 -100 -184q0 -86 53 -132.5t227 -113.5q209 -79 296 -160q97 -92 97 -250q0 -242 -199 -367q-142 -88 -339 -88q-242 0 -384 127q-109 96 -153 284l203 51q31 -159 120 -228q86 -66 227 -66
q117 0 194 45q120 70 120 216q0 90 -55 141t-221 116q-128 49 -187.5 81.5t-104.5 76.5q-95 92 -95 243q0 196 146 311q133 104 340 104q189 0 305.5 -82t170.5 -253zM698 1599l-139 336h135l113 -180l184 180h141l-266 -336h-168z" />
    <glyph glyph-name="scaron" unicode="&#x161;" horiz-adv-x="1002" vert-adv-y="2457" 
d="M790 788q-99 141 -251 141q-79 0 -122.5 -34.5t-43.5 -97.5q0 -56 33.5 -87.5t144.5 -79.5q148 -63 209 -111q96 -76 96 -209q0 -131 -89 -218q-114 -112 -323 -112q-292 0 -434 225l147 110q58 -93 126.5 -133t170.5 -40q81 0 130 28q67 38 67 113q0 55 -35 90t-131 75
q-103 44 -145 67.5t-84 63.5q-82 77 -82 202q0 162 127 245q100 65 248 65q127 0 217.5 -44t165.5 -142zM529 1206l-139 336h135l113 -180l184 180h141l-266 -336h-168z" />
    <glyph glyph-name="Tcommaaccent" unicode="&#x162;" horiz-adv-x="1247" vert-adv-y="2457" 
d="M415 0l252 1296h-438l33 168h1071l-33 -168h-426l-252 -1296h-207zM304 -512l18 88q118 26 142 115q-48 5 -75.5 33t-27.5 70q0 49 34 82.5t85 33.5q54 0 86.5 -37.5t32.5 -99.5q0 -119 -75 -196q-75 -78 -220 -89z" />
    <glyph glyph-name="tcommaaccent" unicode="&#x163;" horiz-adv-x="772" vert-adv-y="2457" 
d="M139 907l31 164h155l52 262l215 57l-62 -319h236l-31 -164h-238l-109 -572q-11 -56 -11 -86q0 -95 95 -95q59 0 130 39l57 -142q-109 -71 -242 -71q-116 0 -183 67q-66 67 -66 178q0 39 14 110l111 572h-154zM103 -512l18 88q118 26 142 115q-48 5 -75.5 33t-27.5 70
q0 49 34 82.5t85 33.5q54 0 86.5 -37.5t32.5 -99.5q0 -119 -75 -196q-75 -78 -220 -89z" />
    <glyph glyph-name="Tcaron" unicode="&#x164;" horiz-adv-x="1247" vert-adv-y="2457" 
d="M415 0l252 1296h-438l33 168h1071l-33 -168h-426l-252 -1296h-207zM740 1599l-139 336h135l113 -180l184 180h141l-266 -336h-168z" />
    <glyph glyph-name="tcaron" unicode="&#x165;" horiz-adv-x="995" vert-adv-y="2457" 
d="M139 907l31 164h155l52 262l215 57l-62 -319h236l-31 -164h-238l-109 -572q-11 -56 -11 -86q0 -95 95 -95q59 0 130 39l57 -142q-109 -71 -242 -71q-116 0 -183 67q-66 67 -66 178q0 39 14 110l111 572h-154zM801 1131l18 88q118 26 142 115q-48 5 -75.5 32.5t-27.5 70.5
q0 49 34.5 82.5t84.5 33.5q54 0 86.5 -37.5t32.5 -99.5q0 -119 -75 -196q-75 -78 -220 -89z" />
    <glyph glyph-name="Tbar" unicode="&#x166;" horiz-adv-x="1247" vert-adv-y="2457" 
d="M528 579h-251l35 186h252l103 531h-438l33 168h1071l-33 -168h-426l-103 -531h253l-35 -186h-254l-113 -579h-207z" />
    <glyph glyph-name="tbar" unicode="&#x167;" horiz-adv-x="772" vert-adv-y="2457" 
d="M471 769h241l-32 -164h-240l-52 -270q-11 -57 -11 -86q0 -95 95 -95q58 0 130 39l58 -142q-111 -71 -243 -71q-116 0 -182 67q-67 67 -67 179q0 37 14 110l52 269h-149l32 164h149l27 138h-154l31 164h156l51 262l215 57l-61 -319h235l-31 -164h-237z" />
    <glyph glyph-name="Utilde" unicode="&#x168;" horiz-adv-x="1430" vert-adv-y="2457" 
d="M1436 1464l-195 -1005q-92 -479 -568 -479q-267 0 -397 148q-103 117 -103 315q0 80 20 179l166 842h208l-169 -870q-18 -95 -18 -168q0 -278 301 -278q169 0 257 97q77 86 112 265l185 954h201zM1364 1849q-24 -117 -76.5 -178t-130.5 -61q-62 0 -155 57q-60 37 -90 37
q-58 0 -82 -96l-123 12q50 240 206 240q60 0 154 -57q62 -37 91 -37q57 0 81 96z" />
    <glyph glyph-name="utilde" unicode="&#x169;" horiz-adv-x="1171" vert-adv-y="2457" 
d="M719 172q-70 -101 -145.5 -146.5t-175.5 -45.5q-129 0 -201 78.5t-72 218.5q0 52 22 168l121 626h207l-129 -661q-12 -60 -12 -106q0 -158 149 -158q114 0 191 85q72 80 98 213l121 627h207l-209 -1071h-207zM1104 1493q-50 -240 -209 -240q-61 0 -154 57q-60 37 -89 37
q-59 0 -83 -96l-123 12q50 240 205 240q61 0 155 -57q62 -37 91 -37q57 0 81 96z" />
    <glyph glyph-name="Umacron" unicode="&#x16a;" horiz-adv-x="1430" vert-adv-y="2457" 
d="M1436 1464l-195 -1005q-92 -479 -568 -479q-267 0 -397 148q-103 117 -103 315q0 80 20 179l166 842h208l-169 -870q-18 -95 -18 -168q0 -278 301 -278q169 0 257 97q77 86 112 265l185 954h201zM679 1635l29 147h495l-28 -147h-496z" />
    <glyph glyph-name="umacron" unicode="&#x16b;" horiz-adv-x="1171" vert-adv-y="2457" 
d="M719 172q-70 -101 -145.5 -146.5t-175.5 -45.5q-129 0 -201 78.5t-72 218.5q0 52 22 168l121 626h207l-129 -661q-12 -60 -12 -106q0 -158 149 -158q114 0 191 85q72 80 98 213l121 627h207l-209 -1071h-207zM473 1299l29 147h495l-28 -147h-496z" />
    <glyph glyph-name="Ubreve" unicode="&#x16c;" horiz-adv-x="1430" vert-adv-y="2457" 
d="M1436 1464l-195 -1005q-92 -479 -568 -479q-267 0 -397 148q-103 117 -103 315q0 80 20 179l166 842h208l-169 -870q-18 -95 -18 -168q0 -278 301 -278q169 0 257 97q77 86 112 265l185 954h201zM1222 1878q-27 -133 -107 -202q-82 -70 -196 -70q-140 0 -209 103
q-43 63 -43 169h147q7 -127 116 -127q55 0 88.5 29.5t57.5 97.5h146z" />
    <glyph glyph-name="ubreve" unicode="&#x16d;" horiz-adv-x="1171" vert-adv-y="2457" 
d="M719 172q-70 -101 -145.5 -146.5t-175.5 -45.5q-129 0 -201 78.5t-72 218.5q0 52 22 168l121 626h207l-129 -661q-12 -60 -12 -106q0 -158 149 -158q114 0 191 85q72 80 98 213l121 627h207l-209 -1071h-207zM1028 1516q-27 -133 -107 -201q-82 -71 -195 -71
q-141 0 -210 103q-43 63 -43 169h148q6 -127 116 -127q55 0 88 29t58 98h145z" />
    <glyph glyph-name="Uring" unicode="&#x16e;" horiz-adv-x="1430" vert-adv-y="2457" 
d="M1436 1464l-195 -1005q-92 -479 -568 -479q-267 0 -397 148q-103 117 -103 315q0 80 20 179l166 842h208l-169 -870q-18 -95 -18 -168q0 -278 301 -278q169 0 257 97q77 86 112 265l185 954h201zM975 2013q86 0 142 -55.5t56 -141.5q0 -98 -67.5 -166.5t-164.5 -68.5
q-84 0 -140 56.5t-56 142.5q0 97 67 165t163 68zM968 1913q-47 0 -77.5 -36.5t-30.5 -93.5q0 -47 24 -74.5t64 -27.5q48 0 80 37.5t32 92.5q0 46 -25 74t-67 28z" />
    <glyph glyph-name="uring" unicode="&#x16f;" horiz-adv-x="1171" vert-adv-y="2457" 
d="M719 172q-70 -101 -145.5 -146.5t-175.5 -45.5q-129 0 -201 78.5t-72 218.5q0 52 22 168l121 626h207l-129 -661q-12 -60 -12 -106q0 -158 149 -158q114 0 191 85q72 80 98 213l121 627h207l-209 -1071h-207zM739 1620q86 0 142 -55.5t56 -141.5q0 -98 -67.5 -166.5
t-164.5 -68.5q-84 0 -140 56.5t-56 142.5q0 97 67 165t163 68zM732 1520q-47 0 -77.5 -36.5t-30.5 -94.5q0 -46 24 -73.5t64 -27.5q48 0 80 37.5t32 92.5q0 46 -25 74t-67 28z" />
    <glyph glyph-name="Uhungarumlaut" unicode="&#x170;" horiz-adv-x="1430" vert-adv-y="2457" 
d="M1436 1464l-195 -1005q-92 -479 -568 -479q-267 0 -397 148q-103 117 -103 315q0 80 20 179l166 842h208l-169 -870q-18 -95 -18 -168q0 -278 301 -278q169 0 257 97q77 86 112 265l185 954h201zM697 1597l125 338h219l-209 -338h-135zM1012 1597l125 338h217l-206 -338
h-136z" />
    <glyph glyph-name="uhungarumlaut" unicode="&#x171;" horiz-adv-x="1171" vert-adv-y="2457" 
d="M719 172q-70 -101 -145.5 -146.5t-175.5 -45.5q-129 0 -201 78.5t-72 218.5q0 52 22 168l121 626h207l-129 -661q-12 -60 -12 -106q0 -158 149 -158q114 0 191 85q72 80 98 213l121 627h207l-209 -1071h-207zM473 1204l125 338h219l-209 -338h-135zM788 1204l125 338h217
l-206 -338h-136z" />
    <glyph glyph-name="Uogonek" unicode="&#x172;" horiz-adv-x="1430" vert-adv-y="2457" 
d="M729 -19q-179 -121 -179 -237q0 -72 72 -72q52 0 105 47l59 -80q-80 -73 -187 -73q-88 0 -138 43t-50 118q0 74 43 133.5t140 122.5q-139 15 -228 68q-193 118 -193 392q0 80 20 179l166 842h208l-169 -870q-18 -95 -18 -169q0 -144 77 -213q74 -65 224 -65q169 0 257 98
q77 85 112 265l185 954h201l-195 -1006q-87 -450 -512 -477z" />
    <glyph glyph-name="uogonek" unicode="&#x173;" horiz-adv-x="1171" vert-adv-y="2457" 
d="M891 0q-207 -133 -207 -256q0 -72 72 -72q51 0 104 47l60 -79q-81 -74 -188 -74q-87 0 -137 43t-50 118q0 158 213 273h-74l35 172q-70 -101 -145.5 -146.5t-175.5 -45.5q-129 0 -201 78.5t-72 218.5q0 52 22 168l121 626h207l-129 -661q-12 -60 -12 -106
q0 -158 149 -158q114 0 191 85q72 80 98 213l121 627h207z" />
    <glyph glyph-name="Wcircumflex" unicode="&#x174;" horiz-adv-x="1923" vert-adv-y="2457" 
d="M334 0l-98 1464h213l55 -1130l553 1130h168l111 -1136l508 1136h204l-663 -1464h-191l-112 1128l-559 -1128h-189zM868 1599l266 336h168l141 -336h-137l-112 178l-185 -178h-141z" />
    <glyph glyph-name="wcircumflex" unicode="&#x175;" horiz-adv-x="1611" vert-adv-y="2457" 
d="M259 0l-100 1071h209l55 -827l373 827h203l71 -827l377 827h211l-524 -1071h-219l-70 809l-369 -809h-217zM750 1206l266 336h168l141 -336h-137l-112 178l-185 -178h-141z" />
    <glyph glyph-name="Ycircumflex" unicode="&#x176;" horiz-adv-x="1190" vert-adv-y="2457" 
d="M397 0l118 614l-315 850h221l234 -667l471 667h223l-625 -858l-118 -606h-209zM507 1599l266 336h168l141 -336h-137l-112 178l-185 -178h-141z" />
    <glyph glyph-name="ycircumflex" unicode="&#x177;" horiz-adv-x="987" vert-adv-y="2457" 
d="M1069 1071l-666 -1231q-55 -103 -110 -152q-83 -73 -202 -73t-212 75l84 136q51 -49 119 -49q100 0 164 129l57 116l-180 1049h215l119 -782l395 782h217zM316 1206l266 336h168l141 -336h-137l-112 178l-185 -178h-141z" />
    <glyph glyph-name="Zacute" unicode="&#x179;" horiz-adv-x="1221" vert-adv-y="2457" 
d="M8 0l35 182l973 1114h-717l33 168h948l-39 -195l-958 -1101h740l-32 -168h-983zM734 1597l154 338h258l-267 -338h-145z" />
    <glyph glyph-name="zacute" unicode="&#x17a;" horiz-adv-x="967" vert-adv-y="2457" 
d="M-18 0l31 162l694 743h-516l33 166h747l-35 -184l-667 -717h538l-32 -170h-793zM518 1204l154 338h258l-267 -338h-145z" />
    <glyph glyph-name="Zdotaccent" unicode="&#x17b;" horiz-adv-x="1221" vert-adv-y="2457" 
d="M8 0l35 182l973 1114h-717l33 168h948l-39 -195l-958 -1101h740l-32 -168h-983zM874 1843q47 0 78.5 -30t31.5 -75q0 -54 -39 -93t-92 -39q-47 0 -78 30.5t-31 76.5q0 54 38 92t92 38z" />
    <glyph glyph-name="zdotaccent" unicode="&#x17c;" horiz-adv-x="967" vert-adv-y="2457" 
d="M-18 0l31 162l694 743h-516l33 166h747l-35 -184l-667 -717h538l-32 -170h-793zM656 1495q47 0 78.5 -30t31.5 -76q0 -54 -39 -93t-92 -39q-47 0 -78 30.5t-31 76.5q0 54 38 92.5t92 38.5z" />
    <glyph glyph-name="Zcaron" unicode="&#x17d;" horiz-adv-x="1221" vert-adv-y="2457" 
d="M8 0l35 182l973 1114h-717l33 168h948l-39 -195l-958 -1101h740l-32 -168h-983zM751 1599l-139 336h135l113 -180l184 180h141l-266 -336h-168z" />
    <glyph glyph-name="zcaron" unicode="&#x17e;" horiz-adv-x="967" vert-adv-y="2457" 
d="M-18 0l31 162l694 743h-516l33 166h747l-35 -184l-667 -717h538l-32 -170h-793zM530 1206l-139 336h135l113 -180l184 180h141l-266 -336h-168z" />
    <glyph glyph-name="uni018F" unicode="&#x18f;" horiz-adv-x="1565" vert-adv-y="2457" 
d="M235 1036q54 123 132 212q205 234 518 234q305 0 466 -206q134 -172 134 -443q0 -277 -130 -498q-103 -175 -265 -267q-154 -88 -339 -88q-259 0 -419 163q-85 86 -130 208q-46 127 -46 259q0 77 16 211h1095q1 16 1 33q0 196 -75 311q-98 149 -303 149q-182 0 -304 -120
q-48 -48 -88.5 -109t-54.5 -107zM1249 659h-874q-2 -26 -2 -51q0 -254 127 -371q98 -89 253 -89q205 0 339 157q111 130 157 354z" />
    <glyph glyph-name="Ohorn" unicode="&#x1a0;" horiz-adv-x="1565" vert-adv-y="2457" 
d="M1274 1356q147 31 179 131q-47 6 -74.5 33.5t-27.5 69.5q0 50 34 83t85 33q54 0 86.5 -37.5t32.5 -100.5q0 -112 -66 -192t-174 -98q136 -170 136 -445q0 -276 -130 -498q-103 -175 -265 -267q-154 -88 -339 -88q-259 0 -420 163q-175 178 -175 494q0 370 211 612
q205 234 516 234q236 0 391 -127zM890 1315q-263 0 -403 -245q-114 -201 -114 -468q0 -248 127 -365q98 -89 259 -89q172 0 297 119q106 101 163 276q49 150 49 316q0 193 -75 307q-98 149 -303 149z" />
    <glyph glyph-name="ohorn" unicode="&#x1a1;" horiz-adv-x="1153" vert-adv-y="2457" 
d="M912 999q126 27 154 120q-47 6 -74.5 33.5t-27.5 69.5q0 50 34.5 83t84.5 33q54 0 86.5 -37.5t32.5 -99.5q0 -105 -59.5 -180.5t-159.5 -99.5q80 -117 80 -296q0 -148 -50 -281t-139 -222q-141 -142 -347 -142q-207 0 -325 136q-112 128 -112 340q0 130 41 250t116 208
q150 177 389 177q161 0 276 -92zM632 929q-154 0 -242 -148q-85 -142 -85 -352q0 -287 221 -287q158 0 247 171q75 145 75 340q0 276 -216 276z" />
    <glyph glyph-name="Uhorn" unicode="&#x1af;" horiz-adv-x="1430" vert-adv-y="2457" 
d="M1419 1377q99 27 122 110q-48 6 -75.5 33.5t-27.5 69.5q0 50 34 83t85 33q54 0 86.5 -37.5t32.5 -99.5q0 -119 -73.5 -194.5t-201.5 -88.5l-160 -827q-92 -479 -568 -479q-267 0 -397 148q-103 117 -103 315q0 80 20 179l166 842h208l-169 -870q-18 -95 -18 -168
q0 -278 301 -278q169 0 257 97q77 86 112 265l185 954h201z" />
    <glyph glyph-name="uhorn" unicode="&#x1b0;" horiz-adv-x="1171" vert-adv-y="2457" 
d="M1089 1015q81 29 101 104q-47 6 -74.5 33.5t-27.5 69.5q0 50 34 83t85 33q54 0 86.5 -37.5t32.5 -99.5q0 -113 -70 -190t-186 -91l-179 -920h-207l35 172q-70 -101 -145.5 -146.5t-175.5 -45.5q-129 0 -201 78.5t-72 218.5q0 52 22 168l121 626h207l-129 -661
q-12 -60 -12 -106q0 -158 149 -158q114 0 191 85q72 80 98 213l121 627h207z" />
    <glyph glyph-name="uni01CD" unicode="&#x1cd;" horiz-adv-x="1272" vert-adv-y="2457" 
d="M880 342h-575l-173 -342h-205l772 1466h225l209 -1466h-209zM859 506l-96 741l-375 -741h471zM747 1599l-139 336h135l113 -180l184 180h141l-266 -336h-168z" />
    <glyph glyph-name="uni01CE" unicode="&#x1ce;" horiz-adv-x="1085" vert-adv-y="2457" 
d="M657 143q-131 -163 -305 -163q-117 0 -199 65q-102 81 -102 221q0 178 153 269q86 51 202.5 74t332.5 32l8 42q8 44 8 81q0 157 -171 157q-158 0 -308 -114l-88 137q187 147 426 147q186 0 275 -91q73 -76 73 -201q0 -56 -12 -119l-84 -432q-3 -16 -3 -32q0 -69 93 -69
l-31 -153q-36 -6 -65 -6q-178 0 -203 155zM710 504q-156 -5 -260 -28q-190 -40 -190 -197q0 -139 160 -139q102 0 174 59.5t90 158.5zM565 1206l-139 336h135l113 -180l184 180h141l-266 -336h-168z" />
    <glyph glyph-name="uni01CF" unicode="&#x1cf;" horiz-adv-x="606" vert-adv-y="2457" 
d="M92 0l285 1464h209l-285 -1464h-209zM462 1599l-139 336h135l113 -180l184 180h141l-266 -336h-168z" />
    <glyph glyph-name="uni01D0" unicode="&#x1d0;" horiz-adv-x="569" vert-adv-y="2457" 
d="M76 0l209 1071h205l-209 -1071h-205zM330 1206l-140 336h136l112 -180l185 180h141l-266 -336h-168z" />
    <glyph glyph-name="uni01D1" unicode="&#x1d1;" horiz-adv-x="1565" vert-adv-y="2457" 
d="M885 1483q303 0 466 -206q134 -170 134 -444q0 -276 -130 -498q-101 -172 -258 -263.5t-353 -91.5q-252 0 -413 163q-175 178 -175 494q0 220 81 405q96 217 280 337q161 104 368 104zM890 1315q-263 0 -403 -245q-114 -201 -114 -468q0 -248 127 -365q98 -89 259 -89
q172 0 297 119q106 101 163 276q49 150 49 316q0 193 -75 307q-98 149 -303 149zM944 1599l-139 336h135l112 -180l185 180h141l-266 -336h-168z" />
    <glyph glyph-name="uni01D2" unicode="&#x1d2;" horiz-adv-x="1153" vert-adv-y="2457" 
d="M636 1091q210 0 326 -142q101 -124 101 -325q0 -147 -50 -280t-139 -222q-141 -142 -352 -142q-202 0 -320 136q-112 128 -112 340q0 129 41.5 250t115.5 208q151 177 389 177zM632 929q-154 0 -242 -148q-85 -142 -85 -352q0 -287 221 -287q158 0 247 171q75 145 75 340
q0 276 -216 276zM623 1206l-139 336h135l113 -180l184 180h141l-266 -336h-168z" />
    <glyph glyph-name="uni01D3" unicode="&#x1d3;" horiz-adv-x="1430" vert-adv-y="2457" 
d="M1436 1464l-195 -1005q-92 -479 -568 -479q-267 0 -397 148q-103 117 -103 315q0 80 20 179l166 842h208l-169 -870q-18 -95 -18 -168q0 -278 301 -278q169 0 257 97q77 86 112 265l185 954h201zM826 1599l-139 336h135l113 -180l184 180h141l-266 -336h-168z" />
    <glyph glyph-name="uni01D4" unicode="&#x1d4;" horiz-adv-x="1171" vert-adv-y="2457" 
d="M719 172q-70 -101 -145.5 -146.5t-175.5 -45.5q-129 0 -201 78.5t-72 218.5q0 52 22 168l121 626h207l-129 -661q-12 -60 -12 -106q0 -158 149 -158q114 0 191 85q72 80 98 213l121 627h207l-209 -1071h-207zM659 1206l-139 336h135l113 -180l184 180h141l-266 -336h-168
z" />
    <glyph glyph-name="uni01DD" unicode="&#x1dd;" horiz-adv-x="1096" vert-adv-y="2457" 
d="M182 878q88 111 189.5 162t234.5 51q200 0 310 -123q102 -114 102 -316q0 -273 -161 -468q-168 -204 -424 -204q-185 0 -279 109q-68 78 -68 191q0 238 345 312q136 29 381 35q1 30 1 45q0 257 -220 257q-83 0 -146 -34t-130 -115zM795 481q-268 0 -388 -45.5
t-120 -147.5q0 -69 43 -107.5t119 -38.5q128 0 216 86.5t130 252.5z" />
    <glyph glyph-name="Gcaron" unicode="&#x1e6;" horiz-adv-x="1536" vert-adv-y="2457" 
d="M1153 248q-168 -268 -465 -268q-299 0 -439 241q-89 153 -89 381q0 229 85 426q97 224 281 346q164 108 380 108q277 0 412 -174q67 -87 106 -260l-195 -57q-27 115 -59 175q-79 148 -270 148q-235 0 -379 -203q-144 -202 -144 -508q0 -455 351 -455q208 0 336 161
q71 90 114 260l8 33h-346l31 166h549l-150 -768h-119zM867 1599l-139 336h135l113 -180l184 180h141l-266 -336h-168z" />
    <glyph glyph-name="gcaron" unicode="&#x1e7;" horiz-adv-x="1128" vert-adv-y="2457" 
d="M364 430q-67 -48 -67 -108q0 -78 112 -78h209q189 0 279 -94q67 -69 67 -179q0 -130 -86 -223q-67 -71 -186 -110t-272 -39q-200 0 -321 69q-128 72 -128 205q0 163 227 242q-86 55 -86 152q0 127 162 219q-106 100 -106 239q0 113 68 205q57 76 153 118.5t212 42.5
q121 0 226 -53l326 51l-33 -169h-168q45 -78 45 -164q0 -177 -145 -281q-116 -84 -282 -84q-108 0 -206 39zM321 76q-151 -65 -151 -175q0 -146 268 -146q321 0 321 190q0 129 -172 129h-210q-29 0 -56 2zM598 948q-93 0 -154 -54q-75 -66 -75 -178q0 -87 54 -136.5
t149 -49.5q105 0 165.5 61.5t60.5 168.5q0 88 -53 138t-147 50zM574 1206l-139 336h135l113 -180l184 180h141l-266 -336h-168z" />
    <glyph glyph-name="uni01F4" unicode="&#x1f4;" horiz-adv-x="1536" vert-adv-y="2457" 
d="M1153 248q-168 -268 -465 -268q-299 0 -439 241q-89 153 -89 381q0 229 85 426q97 224 281 346q164 108 380 108q277 0 412 -174q67 -87 106 -260l-195 -57q-27 115 -59 175q-79 148 -270 148q-235 0 -379 -203q-144 -202 -144 -508q0 -455 351 -455q208 0 336 161
q71 90 114 260l8 33h-346l31 166h549l-150 -768h-119zM862 1597l154 338h258l-267 -338h-145z" />
    <glyph glyph-name="uni01F5" unicode="&#x1f5;" horiz-adv-x="1128" vert-adv-y="2457" 
d="M364 430q-67 -48 -67 -108q0 -78 112 -78h209q189 0 279 -94q67 -69 67 -179q0 -130 -86 -223q-67 -71 -186 -110t-272 -39q-200 0 -321 69q-128 72 -128 205q0 163 227 242q-86 55 -86 152q0 127 162 219q-106 100 -106 239q0 113 68 205q57 76 153 118.5t212 42.5
q121 0 226 -53l326 51l-33 -169h-168q45 -78 45 -164q0 -177 -145 -281q-116 -84 -282 -84q-108 0 -206 39zM321 76q-151 -65 -151 -175q0 -146 268 -146q321 0 321 190q0 129 -172 129h-210q-29 0 -56 2zM598 948q-93 0 -154 -54q-75 -66 -75 -178q0 -87 54 -136.5
t149 -49.5q105 0 165.5 61.5t60.5 168.5q0 88 -53 138t-147 50zM518 1204l154 338h258l-267 -338h-145z" />
    <glyph glyph-name="Aringacute" unicode="&#x1fa;" horiz-adv-x="1272" vert-adv-y="2457" 
d="M768 1466q-59 22 -92.5 71.5t-33.5 115.5q0 97 67 165t163 68q86 0 142 -56t56 -141q0 -76 -42.5 -136.5t-114.5 -86.5h11l209 -1466h-209l-44 342h-575l-173 -342h-205l772 1466h69zM859 506l-96 741l-375 -741h471zM865 1786q-47 0 -77.5 -36.5t-30.5 -93.5
q0 -47 24 -74.5t64 -27.5q48 0 80 37.5t32 92.5q0 46 -25 74t-67 28zM449 1742l153 338h258l-266 -338h-145z" />
    <glyph glyph-name="aringacute" unicode="&#x1fb;" horiz-adv-x="1085" vert-adv-y="2457" 
d="M657 143q-131 -163 -305 -163q-117 0 -199 65q-102 81 -102 221q0 178 153 269q86 51 202.5 74t332.5 32l8 42q8 44 8 81q0 157 -171 157q-158 0 -308 -114l-88 137q187 147 426 147q186 0 275 -91q73 -76 73 -201q0 -56 -12 -119l-84 -432q-3 -16 -3 -32q0 -69 93 -69
l-31 -153q-36 -6 -65 -6q-178 0 -203 155zM710 504q-156 -5 -260 -28q-190 -40 -190 -197q0 -139 160 -139q102 0 174 59.5t90 158.5zM690 1620q86 0 142 -55.5t56 -141.5q0 -98 -67.5 -166.5t-164.5 -68.5q-84 0 -140 56.5t-56 142.5q0 97 67 165t163 68zM683 1520
q-47 0 -77.5 -36.5t-30.5 -94.5q0 -46 24 -73.5t64 -27.5q48 0 80 37.5t32 92.5q0 46 -25 74t-67 28zM303 1501l154 338h258l-267 -338h-145z" />
    <glyph glyph-name="AEacute" unicode="&#x1fc;" horiz-adv-x="1966" vert-adv-y="2457" 
d="M920 328h-508l-240 -328h-221l1092 1464h966l-33 -168h-659l-94 -475h522l-31 -162h-522l-94 -491h694l-33 -168h-903zM951 490l153 785l-574 -785h421zM1074 1597l154 338h258l-267 -338h-145z" />
    <glyph glyph-name="aeacute" unicode="&#x1fd;" horiz-adv-x="1716" vert-adv-y="2457" 
d="M749 193q-77 -111 -167.5 -162t-211.5 -51q-143 0 -230 77t-87 204q0 231 260 311q132 40 420 40l16 84q9 45 9 78q0 149 -173 149q-161 0 -311 -112l-86 133q189 147 428 147q124 0 198 -41t111 -131q160 172 377 172q167 0 259 -93q79 -78 79 -200q0 -196 -194 -271
q-148 -57 -531 -62q-2 -21 -2 -43q0 -166 70 -231q53 -49 149 -49q85 0 142.5 30.5t136.5 118.5l133 -98q-70 -89 -141 -135q-120 -78 -282 -78q-136 0 -226 51.5t-146 161.5zM938 610q275 0 375 28q126 34 126 149q0 142 -162 142q-251 0 -339 -319zM706 475
q-196 0 -284 -20q-85 -20 -123.5 -62t-38.5 -114q0 -137 159 -137q104 0 177 59.5t90 156.5zM802 1204l154 338h258l-267 -338h-145z" />
    <glyph glyph-name="Oslashacute" unicode="&#x1fe;" horiz-adv-x="1565" vert-adv-y="2457" 
d="M250 249q-94 163 -94 388q0 370 211 612q205 234 517 234q256 0 421 -156l135 137h194l-242 -248q93 -165 93 -383q0 -276 -130 -498q-103 -175 -265 -267q-154 -88 -340 -88q-249 0 -414 158l-135 -138h-195zM400 402l771 788q-101 125 -283 125q-263 0 -401 -245
q-114 -204 -114 -454q0 -125 27 -214zM1238 1059l-771 -786q105 -125 285 -125q263 0 401 244q115 204 115 456q0 119 -30 211zM914 1597l154 338h258l-267 -338h-145z" />
    <glyph glyph-name="oslashacute" unicode="&#x1ff;" horiz-adv-x="1153" vert-adv-y="2457" 
d="M151 188q-61 117 -61 268q0 129 41 249t116 209q150 177 390 177q174 0 287 -102l77 80h187l-182 -187q57 -112 57 -258q0 -147 -50 -280t-139 -222q-141 -142 -348 -142q-176 0 -294 104l-81 -84h-182zM309 353l487 503q-60 73 -165 73q-153 0 -241 -148
q-85 -142 -85 -350q0 -42 4 -78zM845 715l-486 -501q61 -72 164 -72q162 0 250 171q75 145 75 338q0 32 -3 64zM534 1204l154 338h258l-267 -338h-145z" />
    <glyph glyph-name="Scommaaccent" unicode="&#x218;" horiz-adv-x="1329" vert-adv-y="2457" 
d="M1048 1089q-36 102 -83 148q-78 77 -217 77q-103 0 -171 -39q-100 -58 -100 -184q0 -86 53 -132.5t227 -113.5q209 -79 296 -160q97 -92 97 -250q0 -242 -199 -367q-142 -88 -339 -88q-242 0 -384 127q-109 96 -153 284l203 51q31 -159 120 -228q86 -66 227 -66
q117 0 194 45q120 70 120 216q0 90 -55 141t-221 116q-128 49 -187.5 81.5t-104.5 76.5q-95 92 -95 243q0 196 146 311q133 104 340 104q189 0 305.5 -82t170.5 -253zM376 -512l18 88q118 26 142 115q-48 5 -75.5 33t-27.5 70q0 49 34 82.5t85 33.5q54 0 86.5 -37.5
t32.5 -99.5q0 -119 -75 -196q-75 -78 -220 -89z" />
    <glyph glyph-name="scommaaccent" unicode="&#x219;" horiz-adv-x="1001" vert-adv-y="2457" 
d="M790 788q-99 141 -251 141q-79 0 -122.5 -34.5t-43.5 -97.5q0 -56 33.5 -87.5t144.5 -79.5q148 -63 209 -111q96 -76 96 -209q0 -131 -89 -218q-114 -112 -323 -112q-292 0 -434 225l147 110q58 -93 126.5 -133t170.5 -40q81 0 130 28q67 38 67 113q0 55 -35 90t-131 75
q-103 44 -145 67.5t-84 63.5q-82 77 -82 202q0 162 127 245q100 65 248 65q127 0 217.5 -44t165.5 -142zM200 -512l18 88q118 26 142 115q-48 5 -75.5 33t-27.5 70q0 49 34 82.5t85 33.5q54 0 86.5 -37.5t32.5 -99.5q0 -119 -75 -196q-75 -78 -220 -89z" />
    <glyph glyph-name="uni021A" unicode="&#x21a;" horiz-adv-x="1247" vert-adv-y="2457" 
d="M415 0l252 1296h-438l33 168h1071l-33 -168h-426l-252 -1296h-207zM304 -512l18 88q118 26 142 115q-48 5 -75.5 33t-27.5 70q0 49 34 82.5t85 33.5q54 0 86.5 -37.5t32.5 -99.5q0 -119 -75 -196q-75 -78 -220 -89z" />
    <glyph glyph-name="uni021B" unicode="&#x21b;" horiz-adv-x="772" vert-adv-y="2457" 
d="M139 907l31 164h155l52 262l215 57l-62 -319h236l-31 -164h-238l-109 -572q-11 -56 -11 -86q0 -95 95 -95q59 0 130 39l57 -142q-109 -71 -242 -71q-116 0 -183 67q-66 67 -66 178q0 39 14 110l111 572h-154zM103 -512l18 88q118 26 142 115q-48 5 -75.5 33t-27.5 70
q0 49 34 82.5t85 33.5q54 0 86.5 -37.5t32.5 -99.5q0 -119 -75 -196q-75 -78 -220 -89z" />
    <glyph glyph-name="uni0226" unicode="&#x226;" horiz-adv-x="1272" vert-adv-y="2457" 
d="M880 342h-575l-173 -342h-205l772 1466h225l209 -1466h-209zM859 506l-96 741l-375 -741h471zM846 1843q47 0 78.5 -30t31.5 -75q0 -54 -39 -93t-92 -39q-47 0 -78 30.5t-31 76.5q0 54 38 92t92 38z" />
    <glyph glyph-name="uni0227" unicode="&#x227;" horiz-adv-x="1085" vert-adv-y="2457" 
d="M657 143q-131 -163 -305 -163q-117 0 -199 65q-102 81 -102 221q0 178 153 269q86 51 202.5 74t332.5 32l8 42q8 44 8 81q0 157 -171 157q-158 0 -308 -114l-88 137q187 147 426 147q186 0 275 -91q73 -76 73 -201q0 -56 -12 -119l-84 -432q-3 -16 -3 -32q0 -69 93 -69
l-31 -153q-36 -6 -65 -6q-178 0 -203 155zM710 504q-156 -5 -260 -28q-190 -40 -190 -197q0 -139 160 -139q102 0 174 59.5t90 158.5zM703 1495q47 0 78.5 -30t31.5 -76q0 -54 -39 -93t-92 -39q-47 0 -78 30.5t-31 76.5q0 54 38 92.5t92 38.5z" />
    <glyph glyph-name="uni0237" unicode="&#x237;" horiz-adv-x="569" vert-adv-y="2457" 
d="M494 1071l-228 -1167q-30 -156 -111 -224q-83 -69 -209 -69q-102 0 -163 45l63 151q53 -26 91 -26q54 0 83 33t45 114l224 1143h205z" />
    <glyph glyph-name="uni0259" unicode="&#x259;" horiz-adv-x="1096" vert-adv-y="2457" 
d="M182 878q88 111 189.5 162t234.5 51q200 0 310 -123q102 -114 102 -316q0 -273 -161 -468q-168 -204 -424 -204q-185 0 -279 109q-68 78 -68 191q0 238 345 312q136 29 381 35q1 30 1 45q0 257 -220 257q-83 0 -146 -34t-130 -115zM795 481q-268 0 -388 -45.5
t-120 -147.5q0 -69 43 -107.5t119 -38.5q128 0 216 86.5t130 252.5z" />
    <glyph glyph-name="afii57929" unicode="&#x2bc;" horiz-adv-x="602" vert-adv-y="2457" 
d="M467 1309q-55 8 -86 39.5t-31 80.5q0 57 40 95.5t99 38.5q61 0 96.5 -39.5t35.5 -106.5q0 -70 -24.5 -143.5t-66.5 -127.5q-47 -61 -104 -92t-143 -42l20 102q130 35 164 195z" />
    <glyph glyph-name="uni02C9" unicode="&#x2c9;" vert-adv-y="2457" 
d="M411 1299l29 147h495l-28 -147h-496z" />
    <glyph glyph-name="uni0309" unicode="&#x309;" vert-adv-y="2457" 
d="M722 1534h-114l29 150q79 11 102.5 26t23.5 53q0 27 -36 27q-43 0 -72 -10t-110 -52l-38 87q149 88 239 88q65 0 106 -36t41 -94q0 -135 -156 -165z" />
    <glyph glyph-name="uni037E" unicode="&#x37e;" horiz-adv-x="616" vert-adv-y="2457" 
d="M12 -315l20 108q141 35 178 203q-60 7 -93.5 42t-33.5 91q0 64 44 108t109 44t104.5 -44t39.5 -118q0 -78 -27 -157.5t-73 -138.5q-51 -65 -112.5 -96.5t-155.5 -41.5zM361 885q58 0 97 -39t39 -97q0 -66 -46.5 -111.5t-113.5 -45.5q-58 0 -96.5 39t-38.5 96
q0 66 46.5 112t112.5 46z" />
    <glyph glyph-name="tonos" unicode="&#x384;" horiz-adv-x="1007" vert-adv-y="2457" 
d="M813 1563l-100 -356h-161l39 356h222z" />
    <glyph glyph-name="dieresistonos" unicode="&#x385;" vert-adv-y="2457" 
d="M802 1563l-99 -356h-148l39 356h208zM357 1497q45 0 74 -28t29 -71q0 -50 -37 -87t-87 -37q-45 0 -74 28.5t-29 72.5q0 50 36.5 86t87.5 36zM995 1497q44 0 73 -28t29 -71q0 -50 -37 -87t-86 -37q-44 0 -73 28.5t-29 72.5q0 50 36 86t87 36z" />
    <glyph glyph-name="Alphatonos" unicode="&#x386;" horiz-adv-x="1272" vert-adv-y="2457" 
d="M880 342h-575l-173 -342h-205l772 1466h225l209 -1466h-209zM859 506l-96 741l-375 -741h471zM134 1042l52 422h222l-113 -422h-161z" />
    <glyph glyph-name="uni0387" unicode="&#x387;" horiz-adv-x="616" vert-adv-y="2457" 
d="M343 815q59 0 97.5 -38.5t38.5 -96.5q0 -66 -46 -111t-113 -45q-59 0 -97.5 38t-38.5 96q0 65 46 111t113 46z" />
    <glyph glyph-name="Epsilontonos" unicode="&#x388;" horiz-adv-x="1382" vert-adv-y="2457" 
d="M239 0l284 1464h901l-32 -168h-695l-92 -475h555l-31 -162h-555l-94 -491h729l-32 -168h-938zM99 1042l52 422h222l-113 -422h-161z" />
    <glyph glyph-name="Etatonos" unicode="&#x389;" horiz-adv-x="1584" vert-adv-y="2457" 
d="M239 0l284 1464h213l-125 -649h629l127 649h213l-285 -1464h-213l125 641h-631l-124 -641h-213zM99 1042l52 422h222l-113 -422h-161z" />
    <glyph glyph-name="Iotatonos" unicode="&#x38a;" horiz-adv-x="753" vert-adv-y="2457" 
d="M239 0l284 1464h209l-285 -1464h-208zM99 1042l52 422h222l-113 -422h-161z" />
    <glyph glyph-name="Omicrontonos" unicode="&#x38c;" horiz-adv-x="1715" vert-adv-y="2457" 
d="M1035 1483q303 0 466 -206q134 -170 134 -444q0 -276 -130 -498q-101 -172 -258 -263.5t-353 -91.5q-252 0 -413 163q-175 178 -175 494q0 220 81 405q96 217 280 337q161 104 368 104zM1040 1315q-263 0 -403 -245q-114 -201 -114 -468q0 -248 127 -365q98 -89 259 -89
q172 0 297 119q106 101 163 276q49 150 49 316q0 193 -75 307q-98 149 -303 149zM99 1042l52 422h222l-113 -422h-161z" />
    <glyph glyph-name="Upsilontonos" unicode="&#x38e;" horiz-adv-x="1450" vert-adv-y="2457" 
d="M656 0l118 614l-315 850h221l234 -667l471 667h223l-625 -858l-118 -606h-209zM99 1042l52 422h222l-113 -422h-161z" />
    <glyph glyph-name="Omegatonos" unicode="&#x38f;" horiz-adv-x="1732" vert-adv-y="2457" 
d="M133 0l30 162h300q-174 172 -174 453q0 174 66 350q101 267 302 401q174 116 401 116q279 0 442 -165q159 -161 159 -434q0 -223 -94.5 -412.5t-263.5 -308.5h272l-29 -162h-592l31 169q77 5 136 36t118 96q87 97 141 240q64 171 64 351q0 198 -101 310t-288 112
q-279 0 -430 -266q-54 -95 -85.5 -222.5t-31.5 -250.5q0 -221 90 -332q53 -66 151 -74l-30 -169h-584zM99 1042l52 422h222l-113 -422h-161z" />
    <glyph glyph-name="iotadieresistonos" unicode="&#x390;" horiz-adv-x="590" vert-adv-y="2457" 
d="M497 1071l-152 -780q-6 -31 -6 -68q0 -35 17.5 -49t59.5 -14q15 0 43 1l-31 -161q-57 -8 -99 -8q-205 0 -205 178q0 48 17 134l149 767h207zM608 1563l-99 -356h-148l39 356h208zM163 1497q45 0 74 -28t29 -71q0 -50 -37 -87t-87 -37q-45 0 -74 28.5t-29 72.5
q0 50 36.5 86t87.5 36zM801 1497q44 0 73 -28t29 -71q0 -50 -37 -87t-86 -37q-44 0 -73 28.5t-29 72.5q0 50 36 86t87 36z" />
    <glyph glyph-name="Alpha" unicode="&#x391;" horiz-adv-x="1272" vert-adv-y="2457" 
d="M880 342h-575l-173 -342h-205l772 1466h225l209 -1466h-209zM859 506l-96 741l-375 -741h471z" />
    <glyph glyph-name="Beta" unicode="&#x392;" horiz-adv-x="1348" vert-adv-y="2457" 
d="M78 0l285 1464h493q189 0 297 -69q137 -89 137 -275q0 -136 -66.5 -223.5t-213.5 -144.5q100 -34 152 -88q77 -80 77 -219q0 -253 -201 -369q-134 -76 -339 -76h-621zM318 168h378q107 0 166.5 18.5t101.5 64.5q64 71 64 192q0 113 -63.5 172t-184.5 59h-364zM449 838
h340q290 0 290 263q0 195 -223 195h-317z" />
    <glyph glyph-name="Gamma" unicode="&#x393;" horiz-adv-x="1056" vert-adv-y="2457" 
d="M78 0l285 1464h831l-34 -168h-618l-251 -1296h-213z" />
    <glyph glyph-name="uni0394" unicode="&#x394;" horiz-adv-x="1359" vert-adv-y="2457" 
d="M-69 0l809 1464h242l234 -1464h-1285zM233 162h745l-164 1088z" />
    <glyph glyph-name="Epsilon" unicode="&#x395;" horiz-adv-x="1221" vert-adv-y="2457" 
d="M78 0l285 1464h901l-33 -168h-694l-92 -475h555l-31 -162h-555l-94 -491h729l-33 -168h-938z" />
    <glyph glyph-name="Zeta" unicode="&#x396;" horiz-adv-x="1221" vert-adv-y="2457" 
d="M8 0l35 182l973 1114h-717l33 168h948l-39 -195l-958 -1101h740l-32 -168h-983z" />
    <glyph glyph-name="Eta" unicode="&#x397;" horiz-adv-x="1423" vert-adv-y="2457" 
d="M78 0l285 1464h213l-125 -649h628l127 649h213l-284 -1464h-213l125 641h-631l-125 -641h-213z" />
    <glyph glyph-name="Theta" unicode="&#x398;" horiz-adv-x="1565" vert-adv-y="2457" 
d="M517 659l32 162h575l-33 -162h-574zM893 1482q190 0 334 -94q154 -99 217 -287q41 -121 41 -268q0 -276 -130 -498q-103 -175 -265 -267q-154 -88 -339 -88q-259 0 -420 163q-175 178 -175 494q0 220 81 404q96 217 280 337q161 104 376 104zM882 1314q-255 0 -395 -245
q-114 -201 -114 -466q0 -249 127 -366q98 -89 253 -89q262 0 400 244q115 203 115 464q0 195 -75 309q-98 149 -311 149z" />
    <glyph glyph-name="Iota" unicode="&#x399;" horiz-adv-x="606" vert-adv-y="2457" 
d="M92 0l285 1464h209l-285 -1464h-209z" />
    <glyph glyph-name="Kappa" unicode="&#x39a;" horiz-adv-x="1315" vert-adv-y="2457" 
d="M78 0l285 1464h209l-140 -713l727 715h242l-639 -618l383 -848h-223l-320 700l-219 -207l-96 -493h-209z" />
    <glyph glyph-name="Lambda" unicode="&#x39b;" horiz-adv-x="1222" vert-adv-y="2457" 
d="M-78 0l768 1464h205l193 -1464h-212l-140 1192l-602 -1192h-212z" />
    <glyph glyph-name="Mu" unicode="&#x39c;" horiz-adv-x="1724" vert-adv-y="2457" 
d="M79 0l285 1464h299l147 -1185l604 1185h305l-284 -1464h-205l237 1224l-624 -1224h-178l-158 1224l-238 -1224h-190z" />
    <glyph glyph-name="Nu" unicode="&#x39d;" horiz-adv-x="1423" vert-adv-y="2457" 
d="M78 0l285 1464h252l375 -1222l237 1222h192l-284 -1464h-258l-369 1210l-235 -1210h-195z" />
    <glyph glyph-name="Xi" unicode="&#x39e;" horiz-adv-x="1173" vert-adv-y="2457" 
d="M6 0l34 168h949l-34 -168h-949zM257 1296l34 168h949l-34 -168h-949zM234 653l33 168h748l-33 -168h-748z" />
    <glyph glyph-name="Omicron" unicode="&#x39f;" horiz-adv-x="1565" vert-adv-y="2457" 
d="M885 1483q303 0 466 -206q134 -170 134 -444q0 -276 -130 -498q-101 -172 -258 -263.5t-353 -91.5q-252 0 -413 163q-175 178 -175 494q0 220 81 405q96 217 280 337q161 104 368 104zM890 1315q-263 0 -403 -245q-114 -201 -114 -468q0 -248 127 -365q98 -89 259 -89
q172 0 297 119q106 101 163 276q49 150 49 316q0 193 -75 307q-98 149 -303 149z" />
    <glyph glyph-name="Pi" unicode="&#x3a0;" horiz-adv-x="1380" vert-adv-y="2457" 
d="M71 0l251 1296h-117l34 168h1258l-34 -168h-115l-250 -1296h-213l250 1296h-600l-251 -1296h-213z" />
    <glyph glyph-name="Rho" unicode="&#x3a1;" horiz-adv-x="1288" vert-adv-y="2457" 
d="M78 0l285 1464h471q216 0 327 -86q127 -99 127 -291q0 -227 -149 -358t-408 -131h-327l-117 -598h-209zM434 764h291q179 0 264 72q94 81 94 242q0 218 -245 218h-299z" />
    <glyph glyph-name="Sigma" unicode="&#x3a3;" horiz-adv-x="1185" vert-adv-y="2457" 
d="M-2 0l38 191l513 569l-270 529l35 175h938l-34 -168h-720l282 -545l-524 -583h798l-34 -168h-1022z" />
    <glyph glyph-name="Tau" unicode="&#x3a4;" horiz-adv-x="1247" vert-adv-y="2457" 
d="M415 0l252 1296h-438l33 168h1071l-33 -168h-426l-252 -1296h-207z" />
    <glyph glyph-name="Upsilon" unicode="&#x3a5;" horiz-adv-x="1190" vert-adv-y="2457" 
d="M397 0l118 614l-315 850h221l234 -667l471 667h223l-625 -858l-118 -606h-209z" />
    <glyph glyph-name="Phi" unicode="&#x3a6;" horiz-adv-x="1694" vert-adv-y="2457" 
d="M631 -45l28 143q-182 26 -296 111q-211 157 -211 444q0 237 142 427q103 138 245 206t368 88l26 135h203l-28 -143q183 -26 297 -111q211 -157 211 -444q0 -237 -142 -426q-103 -137 -243.5 -204t-369.5 -87l-27 -139h-203zM893 254q187 20 295 102q107 81 164 231
q47 122 47 249q0 219 -153 317q-67 42 -169 58zM690 256l184 954q-186 -20 -295 -102q-107 -81 -163 -231q-47 -123 -47 -248q0 -218 153 -315q69 -44 168 -58z" />
    <glyph glyph-name="Chi" unicode="&#x3a7;" horiz-adv-x="1274" vert-adv-y="2457" 
d="M-51 0l608 764l-293 700h230l223 -555l422 555h233l-567 -721l313 -743h-229l-242 602l-465 -602h-233z" />
    <glyph glyph-name="Psi" unicode="&#x3a8;" horiz-adv-x="1656" vert-adv-y="2457" 
d="M616 0l69 356h-58q-124 0 -202.5 22.5t-134.5 74.5q-114 106 -114 290q0 119 36 305l81 416h213l-97 -497q-18 -94 -18 -213t65.5 -174.5t204.5 -55.5h57l183 940h212l-183 -940h75q194 0 278 80q71 67 104 237l120 623h213l-128 -661q-25 -128 -55.5 -196t-86.5 -122
q-137 -129 -414 -129h-139l-69 -356h-212z" />
    <glyph glyph-name="uni03A9" unicode="&#x3a9;" horiz-adv-x="1586" vert-adv-y="2457" 
d="M-12 0l30 162h299q-173 172 -173 453q0 174 66 350q101 267 302 401q174 116 401 116q279 0 442 -165q159 -161 159 -434q0 -223 -94.5 -412.5t-264.5 -308.5h273l-30 -162h-591l31 169q77 5 136 36t118 96q87 97 141 240q64 171 64 351q0 198 -101 310t-288 112
q-279 0 -430 -266q-54 -95 -85.5 -222.5t-31.5 -250.5q0 -221 89 -332q54 -66 152 -74l-31 -169h-583z" />
    <glyph glyph-name="Iotadieresis" unicode="&#x3aa;" horiz-adv-x="606" vert-adv-y="2457" 
d="M92 0l285 1464h209l-285 -1464h-209zM341 1843q47 0 78.5 -30t31.5 -75q0 -54 -39 -93t-93 -39q-46 0 -76.5 30.5t-30.5 76.5q0 54 38 92t91 38zM720 1843q47 0 78.5 -30t31.5 -75q0 -54 -39 -93t-92 -39q-47 0 -78 30.5t-31 76.5q0 53 38.5 91.5t91.5 38.5z" />
    <glyph glyph-name="Upsilondieresis" unicode="&#x3ab;" horiz-adv-x="1190" vert-adv-y="2457" 
d="M397 0l118 614l-315 850h221l234 -667l471 667h223l-625 -858l-118 -606h-209zM628 1843q47 0 78.5 -30t31.5 -75q0 -54 -39 -93t-93 -39q-47 0 -77.5 30.5t-30.5 76.5q0 54 38 92t92 38zM1006 1843q47 0 78.5 -30t31.5 -75q0 -54 -38.5 -93t-92.5 -39q-46 0 -77 30.5
t-31 76.5q0 53 38.5 91.5t90.5 38.5z" />
    <glyph glyph-name="alphatonos" unicode="&#x3ac;" horiz-adv-x="1191" vert-adv-y="2457" 
d="M1118 1071l-209 -1071h-206l30 156q-66 -85 -154 -130.5t-185 -45.5q-146 0 -228 94q-89 104 -89 295q0 128 36 259.5t98 228.5q150 234 387 234q101 0 173.5 -47.5t107.5 -135.5l32 163h207zM627 929q-145 0 -240 -172q-41 -76 -68 -189t-27 -215q0 -211 175 -211
q170 0 272 175q39 68 64.5 169.5t25.5 191.5q0 118 -53.5 184.5t-148.5 66.5zM878 1563l-100 -356h-161l39 356h222z" />
    <glyph glyph-name="epsilontonos" unicode="&#x3ad;" horiz-adv-x="1067" vert-adv-y="2457" 
d="M336 621h446l-29 -147h-446q-5 -38 -5 -70q0 -262 246 -262q88 0 153.5 31.5t130.5 104.5l129 -111q-63 -68 -132 -111q-122 -76 -296 -76q-234 0 -353 144q-93 114 -93 299q0 131 43.5 255.5t122.5 218.5q163 194 415 194q280 0 388 -214l-146 -95q-50 83 -102.5 115
t-138.5 32q-239 0 -333 -308zM867 1563l-100 -356h-161l39 356h222z" />
    <glyph glyph-name="etatonos" unicode="&#x3ae;" horiz-adv-x="1202" vert-adv-y="2457" 
d="M71 0l208 1071h207l-31 -159q129 179 326 179q137 0 214 -85q69 -78 69 -211q0 -59 -17 -148l-198 -1020h-208l192 987q16 82 16 152q0 157 -158 157q-111 0 -187.5 -78t-103.5 -219l-122 -626h-207zM911 1563l-100 -356h-161l39 356h222z" />
    <glyph glyph-name="iotatonos" unicode="&#x3af;" horiz-adv-x="590" vert-adv-y="2457" 
d="M497 1071l-152 -780q-6 -31 -6 -68q0 -35 17.5 -49t59.5 -14q15 0 43 1l-31 -161q-57 -8 -99 -8q-205 0 -205 178q0 48 17 134l149 767h207zM597 1563l-100 -356h-161l39 356h222z" />
    <glyph glyph-name="upsilondieresistonos" unicode="&#x3b0;" horiz-adv-x="1161" vert-adv-y="2457" 
d="M270 1071h207l-110 -567q-24 -123 -24 -193q0 -169 171 -169q126 0 187 101q40 65 68 211l120 617h207l-130 -665q-45 -232 -138 -322q-57 -55 -131.5 -79.5t-181.5 -24.5q-104 0 -170.5 18t-114.5 59q-90 78 -90 233q0 111 30 266zM882 1563l-99 -356h-148l39 356h208z
M437 1497q45 0 74 -28t29 -71q0 -50 -37 -87t-87 -37q-45 0 -74 28.5t-29 72.5q0 50 36.5 86t87.5 36zM1075 1497q44 0 73 -28t29 -71q0 -50 -37 -87t-86 -37q-44 0 -73 28.5t-29 72.5q0 50 36 86t87 36z" />
    <glyph glyph-name="alpha" unicode="&#x3b1;" horiz-adv-x="1191" vert-adv-y="2457" 
d="M1118 1071l-209 -1071h-206l30 156q-66 -85 -154 -130.5t-185 -45.5q-146 0 -228 94q-89 104 -89 295q0 128 36 259.5t98 228.5q150 234 387 234q101 0 173.5 -47.5t107.5 -135.5l32 163h207zM627 929q-145 0 -240 -172q-41 -76 -68 -189t-27 -215q0 -211 175 -211
q170 0 272 175q39 68 64.5 169.5t25.5 191.5q0 118 -53.5 184.5t-148.5 66.5z" />
    <glyph glyph-name="beta" unicode="&#x3b2;" horiz-adv-x="1238" vert-adv-y="2457" 
d="M2 -373l279 1437q28 141 52.5 208.5t72.5 127.5q128 165 373 165q174 0 272 -87q104 -91 104 -245q0 -131 -71.5 -219.5t-213.5 -132.5q109 -40 165 -101q93 -102 93 -264q0 -113 -42.5 -227.5t-111.5 -185.5q-118 -123 -304 -123q-122 0 -216 35l33 168q76 -41 155 -41
q130 0 200 122q71 123 71 278q0 138 -85 205q-62 49 -178 49h-13l31 160q73 1 110 10t73 33q50 34 79.5 95t29.5 132q0 177 -183 177q-140 0 -211 -115q-50 -80 -82 -245l-275 -1416h-207z" />
    <glyph glyph-name="gamma" unicode="&#x3b3;" horiz-adv-x="983" vert-adv-y="2457" 
d="M223 -373l73 373l-168 1071h212l108 -821l398 821h213l-556 -1071l-73 -373h-207z" />
    <glyph glyph-name="delta" unicode="&#x3b4;" horiz-adv-x="1153" vert-adv-y="2457" 
d="M500 1054q-39 37 -57 62q-42 59 -42 149q0 138 94 220.5t251 82.5q246 0 393 -203l-130 -116q-48 76 -81 103q-76 64 -178 64q-154 0 -154 -145q0 -65 36 -104t148 -96q91 -46 141.5 -86t82.5 -91q59 -95 59 -254q0 -285 -151 -472q-152 -188 -395 -188q-221 0 -336 160
q-91 125 -91 307q0 142 51 268.5t144 215.5q82 78 215 123zM631 935q-154 0 -243 -163q-83 -151 -83 -349q0 -131 59 -209q54 -72 160 -72q169 0 257 190q67 143 67 316q0 124 -44 194q-58 93 -173 93z" />
    <glyph glyph-name="epsilon" unicode="&#x3b5;" horiz-adv-x="1067" vert-adv-y="2457" 
d="M336 621h446l-29 -147h-446q-5 -38 -5 -70q0 -262 246 -262q88 0 153.5 31.5t130.5 104.5l129 -111q-63 -68 -132 -111q-122 -76 -296 -76q-234 0 -353 144q-93 114 -93 299q0 131 43.5 255.5t122.5 218.5q163 194 415 194q280 0 388 -214l-146 -95q-50 83 -102.5 115
t-138.5 32q-239 0 -333 -308z" />
    <glyph glyph-name="zeta" unicode="&#x3b6;" horiz-adv-x="870" vert-adv-y="2457" 
d="M318 1380l32 162h657l-36 -179q-290 -259 -411 -407q-278 -340 -278 -624q0 -91 38 -130t131 -44q79 -4 124.5 -21t77.5 -55q55 -65 55 -179q0 -124 -74 -276h-192q71 133 71 230q0 75 -33 104t-125 35q-112 8 -173 50q-115 80 -115 273q0 334 348 703q140 150 411 358
h-508z" />
    <glyph glyph-name="eta" unicode="&#x3b7;" horiz-adv-x="1202" vert-adv-y="2457" 
d="M71 0l208 1071h207l-31 -159q129 179 326 179q137 0 214 -85q69 -78 69 -211q0 -59 -17 -148l-198 -1020h-208l192 987q16 82 16 152q0 157 -158 157q-111 0 -187.5 -78t-103.5 -219l-122 -626h-207z" />
    <glyph glyph-name="theta" unicode="&#x3b8;" horiz-adv-x="1192" vert-adv-y="2457" 
d="M761 1560q116 0 210 -68q91 -66 138.5 -193t47.5 -301q0 -195 -54 -394t-146 -342q-182 -282 -435 -282q-206 0 -313 171q-90 145 -90 376q0 192 55 393.5t149 352.5q179 287 438 287zM909 710h-561q-14 -129 -14 -212q0 -164 52 -260q23 -44 64.5 -70t87.5 -26
q120 0 217 149t154 419zM936 872q6 127 6 170q0 166 -50 261q-49 95 -151 95q-163 0 -286 -284q-38 -87 -76 -242h557z" />
    <glyph glyph-name="iota" unicode="&#x3b9;" horiz-adv-x="590" vert-adv-y="2457" 
d="M497 1071l-152 -780q-6 -31 -6 -68q0 -35 17.5 -49t59.5 -14q15 0 43 1l-31 -161q-57 -8 -99 -8q-205 0 -205 178q0 48 17 134l149 767h207z" />
    <glyph glyph-name="kappa" unicode="&#x3ba;" horiz-adv-x="1101" vert-adv-y="2457" 
d="M335 296l-57 -296h-207l208 1071h207l-100 -516l500 516h239l-431 -424l273 -647h-218l-209 500z" />
    <glyph glyph-name="lambda" unicode="&#x3bb;" horiz-adv-x="1034" vert-adv-y="2457" 
d="M-75 0l606 1091l-61 451h205l216 -1542h-210l-109 817l-432 -817h-215z" />
    <glyph glyph-name="uni03BC" unicode="&#x3bc;" horiz-adv-x="1187" vert-adv-y="2457" 
d="M-2 -373l281 1444h207l-124 -638q-18 -91 -18 -136q0 -149 151 -149q107 0 184 74.5t102 203.5l125 645h207l-208 -1071h-207l30 154q-56 -80 -137 -124t-174 -44q-85 0 -137 26l-75 -385h-207z" />
    <glyph glyph-name="nu" unicode="&#x3bd;" horiz-adv-x="971" vert-adv-y="2457" 
d="M264 0l-141 1071h213l88 -860l414 860h215l-553 -1071h-236z" />
    <glyph glyph-name="xi" unicode="&#x3be;" horiz-adv-x="935" vert-adv-y="2457" 
d="M307 1380l32 162h743l-32 -162h-73q-205 0 -321 -60q-70 -37 -109 -97.5t-39 -132.5q0 -97 57.5 -142t180.5 -45h108l-31 -162h-136q-101 0 -161 -17.5t-109 -61.5q-57 -51 -90.5 -135t-33.5 -175q0 -99 50 -149q23 -23 56 -32.5t104 -13.5q142 -7 206 -76
q63 -67 63 -184q0 -124 -76 -270h-190q42 79 56.5 125.5t14.5 99.5q0 74 -36.5 105.5t-128.5 36.5q-84 5 -130.5 18t-85.5 43q-118 89 -118 278q0 196 104.5 327t296.5 177q-65 23 -98 46q-88 64 -88 179q0 216 302 318h-288z" />
    <glyph glyph-name="omicron" unicode="&#x3bf;" horiz-adv-x="1153" vert-adv-y="2457" 
d="M636 1091q210 0 326 -142q101 -124 101 -325q0 -147 -50 -280t-139 -222q-141 -142 -352 -142q-202 0 -320 136q-112 128 -112 340q0 129 41.5 250t115.5 208q151 177 389 177zM632 929q-154 0 -242 -148q-85 -142 -85 -352q0 -287 221 -287q158 0 247 171q75 145 75 340
q0 276 -216 276z" />
    <glyph glyph-name="rho" unicode="&#x3c1;" horiz-adv-x="1172" vert-adv-y="2457" 
d="M107 -373q-44 207 -44 460q0 437 131 698q77 153 213 238q108 68 249 68q190 0 306 -117q121 -122 121 -327q0 -138 -45.5 -272.5t-120.5 -220.5q-152 -174 -369 -174q-104 0 -175 37t-129 121q21 -308 65 -511h-202zM649 929q-171 0 -269 -199q-73 -146 -73 -333
q0 -140 85 -208q60 -47 146 -47q165 0 258 190q31 64 51.5 159.5t20.5 176.5q0 116 -49 184q-57 77 -170 77z" />
    <glyph glyph-name="uni03C2" unicode="&#x3c2;" horiz-adv-x="958" vert-adv-y="2457" 
d="M686 -373h-185q31 64 50.5 136.5t19.5 122.5q0 61 -34 86q-22 15 -115 25q-143 14 -204 56q-68 48 -101 130q-37 93 -37 201q0 150 45 290.5t124 234.5q152 182 374 182q261 0 346 -246l-164 -87q-25 72 -48 103q-48 68 -139 68q-157 0 -247 -188q-34 -72 -55 -172.5
t-21 -191.5q0 -125 73 -179q39 -29 142 -38q89 -8 134 -24.5t74 -52.5q48 -56 48 -144q0 -150 -80 -312z" />
    <glyph glyph-name="sigma" unicode="&#x3c3;" horiz-adv-x="1155" vert-adv-y="2457" 
d="M1204 1071l-32 -168l-226 8q93 -113 93 -285q0 -129 -42 -255t-114 -215q-66 -80 -157 -126q-102 -50 -217 -50q-194 0 -311 129q-111 123 -111 334q0 133 42.5 256.5t119.5 212.5q79 92 184 135.5t248 43.5q64 0 153 -10q87 -10 121 -10h249zM615 929q-147 0 -234 -155
q-79 -140 -79 -345q0 -287 211 -287q161 0 246 186q65 141 65 323q0 278 -209 278z" />
    <glyph glyph-name="tau" unicode="&#x3c4;" horiz-adv-x="836" vert-adv-y="2457" 
d="M209 0l176 909h-310l32 162h813l-32 -162h-296l-177 -909h-206z" />
    <glyph glyph-name="upsilon" unicode="&#x3c5;" horiz-adv-x="1161" vert-adv-y="2457" 
d="M270 1071h207l-110 -567q-24 -123 -24 -193q0 -169 171 -169q126 0 187 101q40 65 68 211l120 617h207l-130 -665q-45 -232 -138 -322q-57 -55 -131.5 -79.5t-181.5 -24.5q-104 0 -170.5 18t-114.5 59q-90 78 -90 233q0 111 30 266z" />
    <glyph glyph-name="phi" unicode="&#x3c6;" horiz-adv-x="1454" vert-adv-y="2457" 
d="M439 -373l70 362q-165 31 -268 123q-155 139 -155 363q0 350 374 544l66 -136q-225 -136 -225 -414q0 -269 238 -327l182 938q53 5 95 5q244 0 392 -131q154 -137 154 -367q0 -257 -175 -417.5t-478 -180.5l-70 -362h-200zM739 142q158 18 249 92q75 61 117 159t42 214
q0 135 -67.5 222t-186.5 105z" />
    <glyph glyph-name="chi" unicode="&#x3c7;" horiz-adv-x="974" vert-adv-y="2457" 
d="M-205 -373l541 771l-207 673h214l149 -510l349 510h209l-486 -694l233 -750h-216l-172 590l-405 -590h-209z" />
    <glyph glyph-name="psi" unicode="&#x3c8;" horiz-adv-x="1590" vert-adv-y="2457" 
d="M1525 1071l-116 -598q-29 -149 -56.5 -218.5t-81.5 -130.5q-68 -75 -153.5 -108.5t-211.5 -33.5h-118l-69 -355h-204l69 355h-23q-189 0 -292 82q-119 95 -119 276q0 111 36 294l85 437h206l-100 -518q-24 -121 -24 -182q0 -117 56.5 -169t183.5 -52h23l180 921h204
l-179 -921h54q149 0 220.5 70.5t106.5 252.5l117 598h206z" />
    <glyph glyph-name="omega" unicode="&#x3c9;" horiz-adv-x="1477" vert-adv-y="2457" 
d="M459 1096l107 -102q-97 -98 -157 -204q-120 -213 -120 -444q0 -113 52 -167q36 -37 86 -37q84 0 136 106q28 57 56 203l68 348h197l-68 -348q-25 -129 -25 -184q0 -56 33 -90.5t87 -34.5q118 0 188 142q30 62 49.5 162t19.5 193q0 196 -89 355l126 93q83 -106 109 -160
q69 -142 69 -303q0 -111 -30 -228.5t-79 -198.5q-58 -96 -140 -151q-100 -66 -219 -66q-184 0 -243 184q-103 -184 -270 -184q-168 0 -258 128q-70 99 -70 255q0 283 164 511q79 109 221 222z" />
    <glyph glyph-name="iotadieresis" unicode="&#x3ca;" horiz-adv-x="590" vert-adv-y="2457" 
d="M497 1071l-152 -780q-6 -31 -6 -68q0 -35 17.5 -49t59.5 -14q15 0 43 1l-31 -161q-57 -8 -99 -8q-205 0 -205 178q0 48 17 134l149 767h207zM278 1494q47 0 78.5 -30t31.5 -75q0 -54 -39 -93t-93 -39q-47 0 -77.5 30.5t-30.5 76.5q0 54 38 92t92 38zM656 1494
q47 0 78.5 -30t31.5 -75q0 -54 -38.5 -93t-92.5 -39q-46 0 -77 30.5t-31 76.5q0 53 38.5 91.5t90.5 38.5z" />
    <glyph glyph-name="upsilondieresis" unicode="&#x3cb;" horiz-adv-x="1161" vert-adv-y="2457" 
d="M270 1071h207l-110 -567q-24 -123 -24 -193q0 -169 171 -169q126 0 187 101q40 65 68 211l120 617h207l-130 -665q-45 -232 -138 -322q-57 -55 -131.5 -79.5t-181.5 -24.5q-104 0 -170.5 18t-114.5 59q-90 78 -90 233q0 111 30 266zM563 1495q47 0 78.5 -30t31.5 -76
q0 -54 -39 -93t-93 -39q-47 0 -77.5 30.5t-30.5 76.5q0 54 38 92.5t92 38.5zM942 1495q47 0 78.5 -30t31.5 -76q0 -54 -39 -93t-92 -39q-47 0 -78 30.5t-31 76.5q0 54 38.5 92.5t91.5 38.5z" />
    <glyph glyph-name="omicrontonos" unicode="&#x3cc;" horiz-adv-x="1153" vert-adv-y="2457" 
d="M636 1091q210 0 326 -142q101 -124 101 -325q0 -147 -50 -280t-139 -222q-141 -142 -352 -142q-202 0 -320 136q-112 128 -112 340q0 129 41.5 250t115.5 208q151 177 389 177zM632 929q-154 0 -242 -148q-85 -142 -85 -352q0 -287 221 -287q158 0 247 171q75 145 75 340
q0 276 -216 276zM856 1563l-100 -356h-161l39 356h222z" />
    <glyph glyph-name="upsilontonos" unicode="&#x3cd;" horiz-adv-x="1161" vert-adv-y="2457" 
d="M270 1071h207l-110 -567q-24 -123 -24 -193q0 -169 171 -169q126 0 187 101q40 65 68 211l120 617h207l-130 -665q-45 -232 -138 -322q-57 -55 -131.5 -79.5t-181.5 -24.5q-104 0 -170.5 18t-114.5 59q-90 78 -90 233q0 111 30 266zM884 1563l-100 -356h-161l39 356h222z
" />
    <glyph glyph-name="omegatonos" unicode="&#x3ce;" horiz-adv-x="1477" vert-adv-y="2457" 
d="M459 1096l107 -102q-97 -98 -157 -204q-120 -213 -120 -444q0 -113 52 -167q36 -37 86 -37q84 0 136 106q28 57 56 203l68 348h197l-68 -348q-25 -129 -25 -184q0 -56 33 -90.5t87 -34.5q118 0 188 142q30 62 49.5 162t19.5 193q0 196 -89 355l126 93q83 -106 109 -160
q69 -142 69 -303q0 -111 -30 -228.5t-79 -198.5q-58 -96 -140 -151q-100 -66 -219 -66q-184 0 -243 184q-103 -184 -270 -184q-168 0 -258 128q-70 99 -70 255q0 283 164 511q79 109 221 222zM1026 1563l-100 -356h-161l39 356h222z" />
    <glyph glyph-name="phi1" unicode="&#x3d5;" horiz-adv-x="1454" vert-adv-y="2457" 
d="M721 1079l78 410h199l-79 -410q113 -16 201 -64q133 -72 195 -206q47 -102 47 -222q0 -257 -175 -417.5t-478 -180.5l-70 -362h-200l70 362q-165 31 -268 123q-155 139 -155 363q0 212 144 374q81 90 177 142t229 76q46 9 85 12zM893 933l-154 -791q158 18 249 92
q75 61 117 159t42 214q0 135 -67.5 221.5t-186.5 104.5zM539 142l153 790q-131 -32 -198 -72.5t-116 -115.5q-77 -118 -77 -275q0 -269 238 -327z" />
    <glyph glyph-name="uni0400" unicode="&#x400;" horiz-adv-x="1221" vert-adv-y="2457" 
d="M78 0l285 1464h901l-33 -168h-694l-92 -475h555l-31 -162h-555l-94 -491h729l-33 -168h-938zM866 1597l-170 338h242l61 -338h-133z" />
    <glyph glyph-name="afii10023" unicode="&#x401;" horiz-adv-x="1223" vert-adv-y="2457" 
d="M77 0l285 1464h904l-33 -175h-692l-91 -465h552l-33 -169h-551l-93 -480h727l-34 -175h-941zM652 1846q49 0 80.5 -30.5t31.5 -77.5q0 -55 -39.5 -95t-94.5 -40q-46 0 -77.5 31.5t-31.5 78.5q0 55 38.5 94t92.5 39zM1034 1846q49 0 80.5 -30.5t31.5 -77.5
q0 -55 -39.5 -95t-94.5 -40q-47 0 -78 31.5t-31 78.5q0 55 38.5 94t92.5 39z" />
    <glyph glyph-name="afii10051" unicode="&#x402;" horiz-adv-x="1542" vert-adv-y="2457" 
d="M488 0h-217l251 1287h-376l34 177h1114l-34 -177h-522l-97 -498q157 168 391 168q348 0 348 -339q0 -125 -39.5 -337t-86.5 -338q-70 -190 -230 -264q-101 -48 -266 -53l13 163q104 7 153 40q101 68 159 311q71 297 71 451q0 100 -46 147t-145 47q-236 0 -370 -246z" />
    <glyph glyph-name="afii10052" unicode="&#x403;" horiz-adv-x="1056" vert-adv-y="2457" 
d="M76 0l285 1464h833l-34 -177h-617l-250 -1287h-217zM663 1596l154 338h258l-267 -338h-145z" />
    <glyph glyph-name="afii10053" unicode="&#x404;" horiz-adv-x="1360" vert-adv-y="2457" 
d="M1411 1137l-190 -77q-25 105 -64 152q-81 98 -240 98q-177 0 -307 -126t-195 -361h630l-33 -169h-631q-7 -69 -7 -112q0 -172 77 -269q93 -116 283 -116q245 0 392 214l165 -111q-209 -280 -579 -280q-255 0 -401 137q-164 156 -164 433q0 171 54.5 341t150.5 299
q221 297 569 297q127 0 230 -39.5t166 -112.5q61 -72 94 -198z" />
    <glyph glyph-name="afii10054" unicode="&#x405;" horiz-adv-x="1237" vert-adv-y="2457" 
d="M1195 1148l-194 -61q-35 94 -73 136q-77 86 -224 86q-126 0 -197 -57.5t-71 -159.5q0 -87 55.5 -134.5t235.5 -115.5q186 -70 265 -140q116 -103 116 -270q0 -184 -123 -307q-147 -145 -405 -145q-455 0 -551 410l206 53q28 -123 78 -181q92 -107 266 -107q164 0 247 85
q65 66 65 168q0 90 -56.5 142t-218.5 113q-189 71 -268 137q-119 99 -119 266q0 208 157 324q126 93 318 93q261 0 392 -151q53 -61 99 -184z" />
    <glyph glyph-name="afii10055" unicode="&#x406;" horiz-adv-x="607" vert-adv-y="2457" 
d="M91 0l285 1464h217l-285 -1464h-217z" />
    <glyph glyph-name="afii10056" unicode="&#x407;" horiz-adv-x="607" vert-adv-y="2457" 
d="M91 0l285 1464h217l-285 -1464h-217zM337 1840q47 0 78.5 -30t31.5 -75q0 -54 -39 -93t-93 -39q-47 0 -77.5 30.5t-30.5 76.5q0 54 38 92t92 38zM715 1840q47 0 78.5 -30t31.5 -75q0 -54 -38.5 -93t-92.5 -39q-46 0 -77 30.5t-31 76.5q0 53 38.5 91.5t90.5 38.5z" />
    <glyph glyph-name="afii10057" unicode="&#x408;" horiz-adv-x="1141" vert-adv-y="2457" 
d="M1150 1464l-204 -1046q-46 -234 -193 -347q-119 -91 -297 -91q-203 0 -309 116q-87 95 -87 252q0 71 23 178h212q-22 -113 -22 -178q0 -191 191 -191q113 0 177 66t93 212l199 1029h217z" />
    <glyph glyph-name="afii10058" unicode="&#x409;" horiz-adv-x="1979" vert-adv-y="2457" 
d="M814 0l251 1287h-494l-39 -201q-90 -425 -179 -660q-82 -220 -220 -426h-239q145 178 228 385q118 290 216 780l60 299h918l-116 -596h269q254 0 352 -90q92 -85 92 -238q0 -116 -47 -226t-127 -183q-79 -71 -179.5 -101t-259.5 -30h-486zM1065 174h293q176 0 262 101
q79 94 79 229q0 98 -58.5 144t-181.5 46h-293z" />
    <glyph glyph-name="afii10059" unicode="&#x40a;" horiz-adv-x="2053" vert-adv-y="2457" 
d="M577 1464l-116 -596h578l116 596h215l-116 -593h232q248 0 357 -84q132 -103 132 -302q0 -109 -45 -207t-124 -163q-77 -64 -174.5 -89.5t-265.5 -25.5h-496l134 691h-578l-133 -691h-217l285 1464h216zM1119 172h272q107 0 168.5 20.5t108.5 71.5q84 89 84 214
q0 127 -79 182q-57 40 -176 40h-276z" />
    <glyph glyph-name="afii10060" unicode="&#x40b;" horiz-adv-x="1547" vert-adv-y="2457" 
d="M493 0h-217l251 1287h-376l34 177h1114l-34 -177h-522l-97 -498q157 168 391 168q354 0 354 -336q0 -81 -24 -206l-81 -415h-217l80 410q25 127 25 184q0 98 -49.5 144.5t-155.5 46.5q-124 0 -214.5 -60t-156.5 -186z" />
    <glyph glyph-name="afii10061" unicode="&#x40c;" horiz-adv-x="1272" vert-adv-y="2457" 
d="M76 0l285 1464h217l-126 -645h38q110 0 165.5 45t157.5 216q86 146 129 205.5t92 100.5q95 83 269 83q38 0 93 -5l-34 -175q-34 4 -66 4q-99 0 -147 -44t-156 -233q-73 -127 -118.5 -173t-144.5 -94q76 -28 112 -61q76 -71 132 -221l176 -467h-239l-142 387
q-63 173 -112.5 226.5t-144.5 53.5h-89l-130 -667h-217zM761 1596l154 338h258l-267 -338h-145z" />
    <glyph glyph-name="uni040D" unicode="&#x40d;" horiz-adv-x="1408" vert-adv-y="2457" 
d="M78 0l285 1464h205l-195 -1003l800 868l27 135h206l-284 -1464h-206l198 1018l-802 -868l-29 -150h-205zM936 1597l-170 338h242l61 -338h-133z" />
    <glyph glyph-name="afii10062" unicode="&#x40e;" horiz-adv-x="1155" vert-adv-y="2457" 
d="M510 331l-313 1133h224l218 -898l467 898h212l-594 -1103q-118 -220 -195 -289q-106 -95 -267 -95q-83 0 -153 24l67 170q52 -17 101 -17q77 0 121 31.5t100 125.5zM489 1905h150q1 -72 17 -101q31 -57 123 -57q75 0 113 37t49 121h148q-26 -300 -310 -300
q-192 0 -260 129q-29 56 -30 171z" />
    <glyph glyph-name="afii10145" unicode="&#x40f;" horiz-adv-x="1374" vert-adv-y="2457" 
d="M76 0l285 1464h217l-251 -1287h579l250 1287h217l-285 -1464h-394l-97 -350h-166l39 350h-394z" />
    <glyph glyph-name="afii10017" unicode="&#x410;" horiz-adv-x="1303" vert-adv-y="2457" 
d="M1164 0h-216l-48 345h-580l-178 -345h-212l783 1466h232zM404 513h475l-100 727z" />
    <glyph glyph-name="afii10018" unicode="&#x411;" horiz-adv-x="1273" vert-adv-y="2457" 
d="M76 0l285 1464h855l-34 -172h-640l-78 -402h255q246 0 353 -83q128 -100 128 -300q0 -116 -44.5 -218.5t-124.5 -170.5q-77 -66 -174 -92t-264 -26h-517zM325 172h292q108 0 170.5 22t109.5 76q81 94 81 231q0 113 -61 166.5t-190 53.5h-296z" />
    <glyph glyph-name="afii10019" unicode="&#x412;" horiz-adv-x="1353" vert-adv-y="2457" 
d="M77 0l285 1464h509q169 0 270 -60q152 -90 152 -284q0 -137 -66 -224t-213 -145q101 -34 153 -87q78 -81 78 -219q0 -211 -143 -328t-401 -117h-624zM324 173h390q319 0 319 272q0 116 -66.5 171.5t-206.5 55.5h-339zM453 839h309q154 0 229 51q95 63 95 208
q0 193 -231 193h-313z" />
    <glyph glyph-name="afii10020" unicode="&#x413;" horiz-adv-x="1056" vert-adv-y="2457" 
d="M76 0l285 1464h833l-34 -177h-617l-250 -1287h-217z" />
    <glyph glyph-name="afii10021" unicode="&#x414;" horiz-adv-x="1359" vert-adv-y="2457" 
d="M1016 0h-965l-96 -350h-169l103 528h133q206 253 373 1086l39 200h916l-251 -1286h148l-102 -528h-169zM884 174l217 1113h-496l-20 -104q-150 -693 -337 -1009h636z" />
    <glyph glyph-name="afii10022" unicode="&#x415;" horiz-adv-x="1223" vert-adv-y="2457" 
d="M77 0l285 1464h904l-33 -175h-692l-91 -465h552l-33 -172h-551l-93 -477h727l-34 -175h-941z" />
    <glyph glyph-name="afii10024" unicode="&#x416;" horiz-adv-x="1782" vert-adv-y="2457" 
d="M682 0l130 668q-88 -2 -144 -34q-90 -53 -230 -247l-278 -387h-250l342 467q91 125 166 188t170 94q-77 45 -101.5 98.5t-54.5 243.5q-19 122 -51 162t-112 40q-34 0 -69 -4l34 175q57 5 76 5q138 0 204 -63q36 -34 56.5 -87.5t42.5 -172.5q30 -157 44 -205.5t37 -76.5
q37 -45 147 -45l125 645h210l-126 -645q79 1 112.5 7t64.5 26q64 41 191 295q101 198 185 260q85 62 221 62q27 0 84 -5l-34 -175q-34 4 -62 4q-57 0 -88 -17.5t-65 -69.5q-36 -53 -100 -190q-65 -140 -105.5 -188t-136.5 -98q114 -52 186 -263l160 -467h-234l-128 387
q-57 173 -110.5 227t-169.5 54l-130 -668h-209z" />
    <glyph glyph-name="afii10025" unicode="&#x417;" horiz-adv-x="1296" vert-adv-y="2457" 
d="M18 385l201 48q14 -80 33.5 -123.5t58.5 -75.5q91 -77 256 -77q187 0 279 93q80 80 80 198q0 111 -75.5 171.5t-213.5 60.5h-185l34 169h177q157 0 250 60q110 71 110 191q0 97 -73.5 152.5t-202.5 55.5q-122 0 -208.5 -45.5t-157.5 -146.5l-155 106q172 261 539 261
q226 0 355 -106q122 -100 122 -261q0 -190 -170 -290q-51 -30 -145 -60q78 -30 115 -61q52 -42 81.5 -110t29.5 -145q0 -98 -45 -189.5t-125 -153.5q-161 -127 -422 -127q-183 0 -316 66q-103 50 -154 127t-73 212z" />
    <glyph glyph-name="afii10026" unicode="&#x418;" horiz-adv-x="1405" vert-adv-y="2457" 
d="M76 0l285 1464h205l-195 -1003l800 868l27 135h206l-284 -1464h-206l198 1018l-802 -868l-29 -150h-205z" />
    <glyph glyph-name="afii10027" unicode="&#x419;" horiz-adv-x="1405" vert-adv-y="2457" 
d="M76 0l285 1464h205l-195 -1003l800 868l27 135h206l-284 -1464h-206l198 1018l-802 -868l-29 -150h-205zM622 1905h150q1 -72 17 -101q31 -57 123 -57q75 0 113 37t49 121h148q-26 -300 -310 -300q-192 0 -260 129q-29 56 -30 171z" />
    <glyph glyph-name="afii10028" unicode="&#x41a;" horiz-adv-x="1272" vert-adv-y="2457" 
d="M76 0l285 1464h217l-126 -645h38q110 0 165.5 45t157.5 216q86 146 129 205.5t92 100.5q95 83 269 83q38 0 93 -5l-34 -175q-34 4 -66 4q-99 0 -147 -44t-156 -233q-73 -127 -118.5 -173t-144.5 -94q76 -28 112 -61q76 -71 132 -221l176 -467h-239l-142 387
q-63 173 -112.5 226.5t-144.5 53.5h-89l-130 -667h-217z" />
    <glyph glyph-name="afii10029" unicode="&#x41b;" horiz-adv-x="1315" vert-adv-y="2457" 
d="M813 0l251 1287h-494l-39 -201q-90 -425 -179 -660q-82 -220 -219 -426h-239q145 179 228 385q118 289 216 779l60 300h917l-285 -1464h-217z" />
    <glyph glyph-name="afii10030" unicode="&#x41c;" horiz-adv-x="1735" vert-adv-y="2457" 
d="M77 0l285 1464h294l161 -1179l612 1179h306l-285 -1464h-211l230 1187l-619 -1187h-181l-166 1187l-230 -1187h-196z" />
    <glyph glyph-name="afii10031" unicode="&#x41d;" horiz-adv-x="1418" vert-adv-y="2457" 
d="M77 0l285 1464h216l-125 -645h623l125 645h216l-284 -1464h-217l125 642h-623l-124 -642h-217z" />
    <glyph glyph-name="afii10032" unicode="&#x41e;" horiz-adv-x="1565" vert-adv-y="2457" 
d="M902 1483q250 0 409 -159q175 -174 175 -477q0 -278 -128 -502q-104 -181 -270 -276q-155 -89 -348 -89q-246 0 -406 154q-180 174 -180 483q0 221 85 415q80 181 222 297q188 154 441 154zM890 1308q-260 0 -397 -240q-113 -196 -113 -464q0 -245 125 -360
q97 -89 256 -89q168 0 290 117q104 99 160 272q48 150 48 316q0 248 -125 363q-93 85 -244 85z" />
    <glyph glyph-name="afii10033" unicode="&#x41f;" horiz-adv-x="1406" vert-adv-y="2457" 
d="M76 0l285 1464h1044l-285 -1464h-217l250 1282h-611l-249 -1282h-217z" />
    <glyph glyph-name="afii10034" unicode="&#x420;" horiz-adv-x="1289" vert-adv-y="2457" 
d="M77 0l285 1464h465q224 0 331 -78q134 -98 134 -300q0 -241 -162 -374q-146 -120 -416 -120h-307l-115 -592h-215zM440 763h290q154 0 242 64q109 79 109 250q0 116 -62.5 165t-212.5 49h-263z" />
    <glyph glyph-name="afii10035" unicode="&#x421;" horiz-adv-x="1445" vert-adv-y="2457" 
d="M1317 398q-68 -144 -151 -233q-174 -185 -449 -185q-264 0 -416 171q-147 167 -147 458q0 282 125 505q96 173 249 269q160 100 360 100q272 0 406 -180q39 -52 60.5 -107t41.5 -154l-200 -52q-22 120 -58 183q-79 133 -257 133q-225 0 -364 -207q-136 -203 -136 -499
q0 -177 61 -285q90 -158 293 -158q139 0 235.5 77t164.5 242z" />
    <glyph glyph-name="afii10036" unicode="&#x422;" horiz-adv-x="1248" vert-adv-y="2457" 
d="M413 0l250 1289h-430l34 175h1073l-34 -175h-430l-250 -1289h-213z" />
    <glyph glyph-name="afii10037" unicode="&#x423;" horiz-adv-x="1155" vert-adv-y="2457" 
d="M510 331l-313 1133h224l218 -898l467 898h212l-594 -1103q-118 -220 -195 -289q-106 -95 -267 -95q-83 0 -153 24l67 170q52 -17 101 -17q77 0 121 31.5t100 125.5z" />
    <glyph glyph-name="afii10038" unicode="&#x424;" horiz-adv-x="1701" vert-adv-y="2457" 
d="M632 -66l42 215q-135 12 -214.5 36t-146.5 72q-167 121 -167 352q0 202 115 377q100 152 254 231.5t386 97.5l41 215h203l-42 -215q130 -11 212 -35.5t149 -72.5q167 -121 167 -351q0 -203 -115 -378q-141 -214 -396 -289q-91 -27 -244 -40l-41 -215h-203zM706 312
l163 840q-218 -21 -336 -128q-88 -81 -129 -212q-33 -105 -33 -205q0 -263 335 -295zM908 312q217 20 336 128q88 81 129 212q33 105 33 205q0 261 -335 295z" />
    <glyph glyph-name="afii10039" unicode="&#x425;" horiz-adv-x="1266" vert-adv-y="2457" 
d="M-60 0l608 764l-292 700h236l220 -551l418 551h242l-568 -721l313 -743h-235l-240 598l-462 -598h-240z" />
    <glyph glyph-name="afii10040" unicode="&#x426;" horiz-adv-x="1383" vert-adv-y="2457" 
d="M76 0l285 1464h217l-251 -1287h579l250 1287h217l-250 -1287h148l-102 -527h-170l41 350h-964z" />
    <glyph glyph-name="afii10041" unicode="&#x427;" horiz-adv-x="1307" vert-adv-y="2457" 
d="M1022 0h-217l108 555q-127 -153 -359 -153q-187 0 -280 107q-72 83 -72 223q0 94 29 245l95 487h217l-100 -511q-22 -115 -22 -190q0 -186 213 -186q133 0 222.5 74t115.5 206l118 607h217z" />
    <glyph glyph-name="afii10042" unicode="&#x428;" horiz-adv-x="2009" vert-adv-y="2457" 
d="M76 0l285 1464h217l-251 -1287h499l250 1287h217l-250 -1287h498l250 1287h217l-285 -1464h-1647z" />
    <glyph glyph-name="afii10043" unicode="&#x429;" horiz-adv-x="2018" vert-adv-y="2457" 
d="M76 0l285 1464h217l-251 -1286h499l250 1286h217l-250 -1286h498l250 1286h217l-250 -1286h148l-103 -528h-169l41 350h-1599z" />
    <glyph glyph-name="afii10044" unicode="&#x42a;" horiz-adv-x="1427" vert-adv-y="2457" 
d="M744 1464l-106 -546h232q247 0 355 -87q126 -103 126 -309q0 -120 -45 -226.5t-126 -175.5q-78 -67 -175 -93.5t-264 -26.5h-497l251 1289h-345l34 175h560zM493 172h273q108 0 171 23t111 80q81 97 81 240q0 120 -60 176t-188 56h-276z" />
    <glyph glyph-name="afii10045" unicode="&#x42b;" horiz-adv-x="1773" vert-adv-y="2457" 
d="M1272 0l284 1464h217l-285 -1464h-216zM577 1464l-106 -546h232q247 0 354 -87q127 -103 127 -309q0 -120 -45 -226t-126 -176q-78 -67 -175 -93.5t-265 -26.5h-496l285 1464h215zM326 172h273q108 0 171 23t110 80q81 97 81 241q0 119 -60 175t-187 56h-277z" />
    <glyph glyph-name="afii10046" unicode="&#x42c;" horiz-adv-x="1260" vert-adv-y="2457" 
d="M577 1464l-106 -546h232q247 0 354 -87q127 -103 127 -309q0 -120 -45 -226t-126 -176q-78 -67 -175 -93.5t-265 -26.5h-496l285 1464h215zM326 172h273q108 0 171 23t110 80q81 97 81 241q0 119 -60 175t-187 56h-277z" />
    <glyph glyph-name="afii10047" unicode="&#x42d;" horiz-adv-x="1337" vert-adv-y="2457" 
d="M400 823h635q2 48 2 70q0 100 -20 182q-59 235 -310 235q-122 0 -213 -48.5t-176 -159.5l-166 105q90 121 187 181q159 99 371 99q289 0 427 -175q126 -158 126 -424q0 -210 -68.5 -397t-190.5 -312q-195 -199 -485 -199q-278 0 -416 154q-62 69 -98 181l192 86
q27 -94 76 -146q93 -98 267 -98q176 0 296 126.5t174 370.5h-643z" />
    <glyph glyph-name="afii10048" unicode="&#x42e;" horiz-adv-x="2086" vert-adv-y="2457" 
d="M577 1464l-125 -644h283q34 177 117 317q81 135 201 222q170 124 390 124q261 0 420 -185q145 -170 145 -450q0 -278 -125 -502q-101 -182 -263 -277q-150 -89 -331 -89q-210 0 -355 115q-112 88 -164 219t-54 329h-299l-124 -643h-217l285 1464h216zM1424 1308
q-162 0 -283 -118q-101 -99 -154 -270q-46 -148 -46 -315q0 -203 83 -320q94 -130 270 -130q249 0 379 241q108 201 108 460q0 195 -74 312q-89 140 -283 140z" />
    <glyph glyph-name="afii10049" unicode="&#x42f;" horiz-adv-x="1356" vert-adv-y="2457" 
d="M1356 1464l-285 -1464h-216l119 613h-228q-90 0 -144.5 -15t-98.5 -53q-42 -36 -71.5 -86.5t-74.5 -167.5q-80 -203 -148 -291h-231l2 9q47 58 80 123t104 244q38 96 77 151t94 92q49 35 133 62q-226 75 -226 333q0 195 137 324q73 69 166.5 97.5t243.5 28.5h567z
M1007 782l98 508h-334q-86 0 -138 -16t-92 -55q-84 -82 -84 -216q0 -107 59 -164t168 -57h323z" />
    <glyph glyph-name="afii10065" unicode="&#x430;" horiz-adv-x="1085" vert-adv-y="2457" 
d="M657 143q-131 -163 -305 -163q-117 0 -199 65q-102 81 -102 221q0 178 153 269q86 51 202.5 74t332.5 32l8 42q8 44 8 81q0 157 -171 157q-158 0 -308 -114l-88 137q187 147 426 147q186 0 275 -91q73 -76 73 -201q0 -56 -12 -119l-84 -432q-3 -16 -3 -32q0 -69 93 -69
l-31 -153q-36 -6 -65 -6q-178 0 -203 155zM710 504q-156 -5 -260 -28q-190 -40 -190 -197q0 -139 160 -139q102 0 174 59.5t90 158.5z" />
    <glyph glyph-name="afii10066" unicode="&#x431;" horiz-adv-x="1160" vert-adv-y="2457" 
d="M1146 1542l-65 -168h-217q-180 0 -255 -34q-88 -41 -142.5 -142.5t-99.5 -310.5q84 89 133 122q101 68 229 68q166 0 255 -108q100 -120 100 -315q0 -128 -42 -254t-116 -219q-160 -201 -398 -201q-191 0 -304 120q-114 119 -114 323q0 180 64.5 447t143.5 412
q42 77 107 136t137 85q108 39 279 39h305zM675 917q-81 0 -152.5 -48.5t-120.5 -136.5q-83 -147 -83 -332q0 -116 53 -182q58 -72 159 -72q159 0 257 186q36 68 58 161t22 176q0 111 -44 175q-49 73 -149 73z" />
    <glyph glyph-name="afii10067" unicode="&#x432;" horiz-adv-x="1155" vert-adv-y="2457" 
d="M76 0l208 1071h444q340 0 340 -248q0 -182 -175 -268q143 -73 143 -219q0 -78 -33 -146.5t-92 -111.5q-105 -78 -297 -78h-538zM315 160h290q101 0 153 43q65 54 65 139q0 131 -161 131h-286zM407 626h271q93 0 137 46q49 52 49 130q0 109 -140 109h-262z" />
    <glyph glyph-name="afii10068" unicode="&#x433;" horiz-adv-x="889" vert-adv-y="2457" 
d="M81 0l208 1071h658l-33 -172h-446l-175 -899h-212z" />
    <glyph glyph-name="afii10069" unicode="&#x434;" horiz-adv-x="1167" vert-adv-y="2457" 
d="M923 902q8 124 8 172q0 170 -58 249q-53 73 -173 73q-134 0 -273 -120l-104 132q103 84 192 119t204 35q209 0 305.5 -124.5t96.5 -395.5q0 -224 -38.5 -431t-105.5 -339q-71 -142 -189 -217t-269 -75q-189 0 -302 108q-128 122 -128 344q0 155 59 300q67 167 185 256
t273 89q229 0 317 -175zM641 916q-171 0 -268 -197q-68 -140 -68 -307q0 -134 66 -208q51 -58 145 -58q178 0 275 204q69 143 69 305q0 119 -53 187q-57 74 -166 74z" />
    <glyph glyph-name="afii10070" unicode="&#x435;" horiz-adv-x="1083" vert-adv-y="2457" 
d="M929 192q-89 -106 -169 -150q-114 -62 -257 -62q-204 0 -314 122q-104 115 -104 316q0 283 173 479q171 195 424 195q172 0 266 -95q79 -81 79 -205q0 -247 -361 -316q-136 -27 -365 -30q-2 -27 -2 -47q0 -251 217 -251q83 0 146.5 33.5t129.5 111.5zM318 591
q268 0 384.5 44.5t116.5 146.5q0 68 -41.5 106t-115.5 38q-129 0 -215.5 -84.5t-128.5 -250.5z" />
    <glyph glyph-name="afii10072" unicode="&#x436;" horiz-adv-x="1500" vert-adv-y="2457" 
d="M542 0l94 484h-68q-62 0 -101 -31t-99 -127l-204 -326h-241l224 332q71 105 122 151t132 79q-49 42 -63 76.5t-40 181.5q-11 59 -28.5 74.5t-75.5 15.5h-50l32 161h50q127 0 170 -35q45 -36 78 -198q29 -145 52 -177.5t94 -32.5h44l86 443h208l-86 -443h74q71 0 109 37
t103 169q78 155 129 196t169 41h77l-32 -161h-42q-55 0 -74 -20.5t-72 -135.5q-41 -91 -81.5 -135.5t-115.5 -83.5q80 -52 134 -203l119 -332h-222l-106 326q-30 93 -62.5 125.5t-96.5 32.5h-38l-94 -484h-208z" />
    <glyph glyph-name="afii10073" unicode="&#x437;" horiz-adv-x="1036" vert-adv-y="2457" 
d="M-8 284l187 48q28 -105 77 -140q66 -48 184 -48q94 0 157 39q40 25 63.5 66.5t23.5 86.5q0 68 -52.5 106t-147.5 38h-157l30 154h155q96 0 159 36q80 46 80 126q0 61 -49.5 96.5t-135.5 35.5q-181 0 -276 -127l-142 98q132 193 427 193q188 0 288 -74q98 -73 98 -202
q0 -90 -46 -149.5t-147 -102.5q132 -71 132 -217q0 -82 -37.5 -156t-101.5 -120q-126 -91 -330 -91q-251 0 -361 127q-54 62 -78 177z" />
    <glyph glyph-name="afii10074" unicode="&#x438;" horiz-adv-x="1220" vert-adv-y="2457" 
d="M81 0l208 1071h213l-131 -673l532 557l23 116h212l-208 -1071h-213l133 683l-532 -556l-25 -127h-212z" />
    <glyph glyph-name="afii10075" unicode="&#x439;" horiz-adv-x="1220" vert-adv-y="2457" 
d="M81 0l208 1071h213l-131 -673l532 557l23 116h212l-208 -1071h-213l133 683l-532 -556l-25 -127h-212zM465 1532h150q1 -72 15 -102q26 -56 104 -56q66 0 99.5 37.5t43.5 120.5h147q-24 -300 -290 -300q-85 0 -148.5 33.5t-91.5 93.5q-29 62 -29 173z" />
    <glyph glyph-name="afii10076" unicode="&#x43a;" horiz-adv-x="1099" vert-adv-y="2457" 
d="M76 0l208 1071h211l-87 -448h55q75 0 112 34t137 193q60 95 90.5 132t68.5 58q54 31 185 31h67l-32 -161h-37q-71 0 -94.5 -19.5t-90.5 -132.5q-59 -99 -96 -136.5t-112 -73.5q59 -25 98 -74t76 -143l130 -331h-229l-119 325q-30 81 -66.5 114.5t-95.5 33.5h-76l-92 -473
h-211z" />
    <glyph glyph-name="afii10077" unicode="&#x43b;" horiz-adv-x="1153" vert-adv-y="2457" 
d="M657 0l175 900h-336l-37 -187q-84 -431 -286 -713h-236q127 154 209.5 349.5t136.5 472.5l48 249h746l-208 -1071h-212z" />
    <glyph glyph-name="afii10078" unicode="&#x43c;" horiz-adv-x="1488" vert-adv-y="2457" 
d="M284 1071h290l114 -803l417 803h306l-208 -1071h-201l169 868l-456 -868h-151l-125 867l-169 -867h-194z" />
    <glyph glyph-name="afii10079" unicode="&#x43d;" horiz-adv-x="1202" vert-adv-y="2457" 
d="M76 0l208 1071h211l-86 -442h419l86 442h210l-208 -1071h-211l90 460h-419l-89 -460h-211z" />
    <glyph glyph-name="afii10080" unicode="&#x43e;" horiz-adv-x="1155" vert-adv-y="2457" 
d="M644 1092q205 0 320 -137q103 -121 103 -322q0 -148 -51 -283.5t-140 -224.5q-144 -145 -359 -145q-207 0 -325 141q-104 123 -104 326q0 270 159 460q155 185 397 185zM632 927q-164 0 -251 -157q-80 -143 -80 -345q0 -280 224 -280q157 0 241 150q85 153 85 359
q0 273 -219 273z" />
    <glyph glyph-name="afii10081" unicode="&#x43f;" horiz-adv-x="1197" vert-adv-y="2457" 
d="M76 0l208 1071h836l-209 -1071h-211l175 899h-413l-175 -899h-211z" />
    <glyph glyph-name="afii10082" unicode="&#x440;" horiz-adv-x="1244" vert-adv-y="2457" 
d="M5 -373l281 1444h211l-30 -154q131 175 331 175q164 0 259 -115q95 -113 95 -318q0 -139 -40 -267t-113 -221q-147 -190 -370 -190q-225 0 -304 214l-109 -568h-211zM719 924q-113 0 -201 -83q-68 -64 -107 -172.5t-39 -235.5q0 -137 61.5 -210.5t175.5 -73.5
q160 0 246 150q81 141 81 340q0 285 -217 285z" />
    <glyph glyph-name="afii10083" unicode="&#x441;" horiz-adv-x="1085" vert-adv-y="2457" 
d="M942 238q-84 -128 -172 -185q-111 -73 -265 -73q-180 0 -293 108q-127 122 -127 343q0 140 43 267t121 218q152 176 390 176q278 0 380 -264l-177 -81q-37 98 -84 137.5t-126 39.5q-168 0 -254 -155q-77 -138 -77 -332q0 -289 222 -289q84 0 144 41t122 141z" />
    <glyph glyph-name="afii10084" unicode="&#x442;" horiz-adv-x="839" vert-adv-y="2457" 
d="M209 0l175 900h-301l33 171h814l-32 -171h-303l-175 -900h-211z" />
    <glyph glyph-name="afii10085" unicode="&#x443;" horiz-adv-x="992" vert-adv-y="2457" 
d="M1076 1071l-664 -1228q-66 -123 -143 -176t-189 -53q-118 0 -205 72l91 144q55 -52 117 -52q101 0 163 127l58 118l-179 1048h218l119 -776l393 776h221z" />
    <glyph glyph-name="afii10086" unicode="&#x444;" horiz-adv-x="1654" vert-adv-y="2457" 
d="M556 -373l99 513q-104 -160 -260 -160q-143 0 -225 108q-89 119 -89 318q0 129 36.5 259.5t98.5 226.5q132 200 332 200q91 0 160 -46.5t99 -127.5l121 624h191l-118 -605q107 155 259 155q72 0 134.5 -33t101.5 -91q77 -116 77 -299q0 -128 -37.5 -261.5t-99.5 -227.5
q-131 -200 -329 -200q-95 0 -160 45.5t-97 133.5l-104 -532h-190zM1202 925q-120 0 -202 -146q-46 -81 -74 -194.5t-28 -219.5q0 -83 33 -140q44 -78 143 -78q101 0 164 94q52 77 85.5 202t33.5 242q0 112 -41.5 176t-113.5 64zM588 925q-109 0 -181 -120q-50 -85 -80 -204
t-30 -232q0 -112 43 -169q40 -53 113 -53q104 0 177 102q54 77 90 203.5t36 243.5q0 107 -44 167q-47 62 -124 62z" />
    <glyph glyph-name="afii10087" unicode="&#x445;" horiz-adv-x="1053" vert-adv-y="2457" 
d="M-62 0l467 563l-236 508h232l156 -370l288 370h237l-434 -518l259 -553h-232l-176 414l-328 -414h-233z" />
    <glyph glyph-name="afii10088" unicode="&#x446;" horiz-adv-x="1183" vert-adv-y="2457" 
d="M76 0l208 1071h211l-174 -899h395l175 899h211l-174 -899h120l-94 -482h-166l40 310h-752z" />
    <glyph glyph-name="afii10089" unicode="&#x447;" horiz-adv-x="1122" vert-adv-y="2457" 
d="M230 1071h211l-71 -368q-13 -66 -13 -111q0 -140 163 -140q86 0 150.5 53t80.5 137l84 429h210l-208 -1071h-211l80 409q-108 -127 -281 -127q-128 0 -204.5 74t-76.5 198q0 72 21 178z" />
    <glyph glyph-name="afii10090" unicode="&#x448;" horiz-adv-x="1691" vert-adv-y="2457" 
d="M76 0l208 1071h211l-175 -899h351l175 899h206l-175 -899h351l175 899h211l-208 -1071h-1330z" />
    <glyph glyph-name="afii10091" unicode="&#x449;" horiz-adv-x="1694" vert-adv-y="2457" 
d="M76 0l208 1071h211l-175 -899h351l175 899h206l-175 -899h351l175 899h211l-175 -899h120l-93 -482h-166l40 310h-1264z" />
    <glyph glyph-name="afii10092" unicode="&#x44a;" horiz-adv-x="1157" vert-adv-y="2457" 
d="M150 0l177 908h-251l31 163h460l-71 -365h192q203 0 287 -70q94 -79 94 -229q0 -91 -34.5 -176t-93.5 -138q-56 -51 -127.5 -72t-187.5 -21h-476zM389 162h232q131 0 190 85q44 64 44 140q0 83 -42 121.5t-132 38.5h-216z" />
    <glyph glyph-name="afii10093" unicode="&#x44b;" horiz-adv-x="1548" vert-adv-y="2457" 
d="M1052 0l208 1071h211l-209 -1071h-210zM492 1071l-71 -365h192q204 0 288 -70q94 -78 94 -229q0 -91 -34.5 -176t-93.5 -138q-55 -51 -127.5 -72t-187.5 -21h-476l208 1071h208zM315 162h232q131 0 191 85q44 64 44 143q0 81 -42.5 119t-133.5 38h-216z" />
    <glyph glyph-name="afii10094" unicode="&#x44c;" horiz-adv-x="1083" vert-adv-y="2457" 
d="M492 1071l-71 -365h192q204 0 288 -70q94 -78 94 -229q0 -91 -34.5 -176t-93.5 -138q-55 -51 -127.5 -72t-187.5 -21h-476l208 1071h208zM315 162h232q131 0 191 85q44 64 44 143q0 81 -42.5 119t-133.5 38h-216z" />
    <glyph glyph-name="afii10095" unicode="&#x44d;" horiz-adv-x="1058" vert-adv-y="2457" 
d="M277 469l29 147h450q0 16 -1 60q-1 120 -58.5 186.5t-159.5 66.5q-77 0 -141 -29t-146 -101l-117 125q167 167 411 167q201 0 307 -108q119 -122 119 -334q0 -120 -37.5 -238.5t-103.5 -208.5q-163 -222 -439 -222q-304 0 -411 222l165 104q35 -64 69 -96q71 -68 189 -68
q238 0 325 327h-450z" />
    <glyph glyph-name="afii10096" unicode="&#x44e;" horiz-adv-x="1618" vert-adv-y="2457" 
d="M486 1071l-88 -455h205q37 159 121 270q154 205 399 205q195 0 306 -134q100 -121 100 -322q0 -149 -49.5 -285t-136.5 -226q-139 -144 -343 -144q-168 0 -275 100q-126 118 -141 374h-218l-88 -454h-207l208 1071h207zM1105 929q-154 0 -237 -159q-76 -145 -76 -339
q0 -289 208 -289q154 0 234 153q80 154 80 354q0 280 -209 280z" />
    <glyph glyph-name="afii10097" unicode="&#x44f;" horiz-adv-x="1146" vert-adv-y="2457" 
d="M861 0h-208l82 425h-183q-97 0 -145.5 -42t-99.5 -171q-55 -139 -115 -212h-223l6 31q56 60 138 259q35 83 75 127t113 79q-135 72 -135 226q0 159 106 257q56 51 126 71.5t191 20.5h480zM765 579l65 332h-252q-98 0 -146 -45q-58 -55 -58 -146q0 -76 40.5 -108.5
t136.5 -32.5h214z" />
    <glyph glyph-name="uni0450" unicode="&#x450;" horiz-adv-x="1096" vert-adv-y="2457" 
d="M922 193q-88 -111 -189.5 -162t-234.5 -51q-201 0 -310 123q-102 114 -102 316q0 273 161 468q168 204 424 204q185 0 279 -109q68 -78 68 -191q0 -238 -345 -312q-136 -29 -381 -35q-1 -35 -1 -45q0 -257 220 -257q83 0 146 34t129 115zM309 590q268 0 388 45.5
t120 147.5q0 69 -43 107.5t-119 38.5q-128 0 -216 -86.5t-130 -252.5zM732 1204l-170 338h242l61 -338h-133z" />
    <glyph glyph-name="afii10071" unicode="&#x451;" horiz-adv-x="1077" vert-adv-y="2457" 
d="M929 192q-89 -106 -169 -150q-114 -62 -257 -62q-204 0 -314 122q-104 115 -104 316q0 283 173 479q171 195 424 195q172 0 266 -95q79 -81 79 -205q0 -247 -361 -316q-136 -27 -365 -30q-2 -27 -2 -47q0 -251 217 -251q83 0 146.5 33.5t129.5 111.5zM318 591
q268 0 384.5 44.5t116.5 146.5q0 68 -41.5 106t-115.5 38q-129 0 -215.5 -84.5t-128.5 -250.5zM522 1502q47 0 78.5 -30t31.5 -76q0 -54 -39 -93t-93 -39q-47 0 -77.5 30.5t-30.5 76.5q0 54 38 92.5t92 38.5zM900 1502q47 0 78.5 -30t31.5 -76q0 -54 -38.5 -93t-92.5 -39
q-46 0 -77 30.5t-31 76.5q0 54 38.5 92.5t90.5 38.5z" />
    <glyph glyph-name="afii10099" unicode="&#x452;" horiz-adv-x="1194" vert-adv-y="2457" 
d="M581 1542l-33 -168h236l-29 -149h-236l-60 -314q129 181 326 181q133 0 208 -78.5t75 -218.5q0 -51 -16 -131l-79 -409q-46 -235 -93.5 -347.5t-129.5 -180.5q-67 -56 -146.5 -81t-202.5 -30l18 149q81 6 123 22.5t77 55.5q46 53 76.5 139t64.5 266l82 420q11 58 11 91
q0 159 -158 159q-112 0 -189 -79t-105 -223l-120 -616h-211l237 1225h-140l29 149h140l33 168h212z" />
    <glyph glyph-name="afii10100" unicode="&#x453;" horiz-adv-x="889" vert-adv-y="2457" 
d="M81 0l208 1071h658l-33 -172h-446l-175 -899h-212zM520 1203l154 338h258l-267 -338h-145z" />
    <glyph glyph-name="afii10101" unicode="&#x454;" horiz-adv-x="1062" vert-adv-y="2457" 
d="M340 622h443l-30 -154h-444q-7 -41 -7 -73q0 -121 62.5 -184.5t183.5 -63.5q87 0 153 30.5t130 100.5l130 -113q-62 -68 -132 -110q-122 -75 -295 -75q-236 0 -355 142q-95 112 -95 298q0 134 43.5 259t123.5 219q164 194 417 194q281 0 389 -215l-148 -99
q-49 83 -101.5 115t-137.5 32q-236 0 -330 -303z" />
    <glyph glyph-name="afii10102" unicode="&#x455;" horiz-adv-x="1005" vert-adv-y="2457" 
d="M794 786q-99 142 -254 142q-78 0 -122 -33.5t-44 -93.5q0 -72 72 -118q31 -19 189 -87q227 -97 227 -283q0 -150 -114 -241.5t-301 -91.5q-201 0 -330 103q-43 34 -105 120l149 114q51 -75 89 -106q81 -65 205 -65q93 0 144.5 37t51.5 104q0 66 -61 106q-30 20 -145 71
q-128 55 -189 114q-82 78 -82 200q0 173 145 256q100 58 242 58q234 0 377 -186z" />
    <glyph glyph-name="afii10103" unicode="&#x456;" horiz-adv-x="570" vert-adv-y="2457" 
d="M459 1511q51 0 83.5 -31.5t32.5 -80.5q0 -58 -41 -99t-98 -41q-51 0 -84 32.5t-33 82.5q0 57 40.5 97t99.5 40zM75 0l209 1071h211l-209 -1071h-211z" />
    <glyph glyph-name="afii10104" unicode="&#x457;" horiz-adv-x="570" vert-adv-y="2457" 
d="M75 0l209 1071h205l-209 -1071h-205zM254 1502q47 0 78.5 -30t31.5 -76q0 -54 -39 -93t-93 -39q-47 0 -77.5 30.5t-30.5 76.5q0 54 38 92.5t92 38.5zM632 1502q47 0 78.5 -30t31.5 -76q0 -54 -38.5 -93t-92.5 -39q-46 0 -77 30.5t-31 76.5q0 54 38.5 92.5t90.5 38.5z" />
    <glyph glyph-name="afii10105" unicode="&#x458;" horiz-adv-x="572" vert-adv-y="2457" 
d="M497 1071l-231 -1186q-54 -275 -321 -275q-93 0 -163 46l65 155q50 -27 91 -27q97 0 119 115l229 1172h211zM461 1511q51 0 83.5 -31.5t32.5 -80.5q0 -58 -40.5 -99t-98.5 -41q-50 0 -83 32.5t-33 82.5q0 57 40.5 97t98.5 40z" />
    <glyph glyph-name="afii10106" unicode="&#x459;" horiz-adv-x="1650" vert-adv-y="2457" 
d="M657 0l175 899h-337l-36 -186q-84 -432 -286 -713h-236q127 154 209 349t137 473l48 249h743l-74 -378h224q200 0 274 -68q69 -64 69 -183q0 -100 -37 -192t-100 -150q-59 -53 -137 -76.5t-199 -23.5h-437zM897 161h234q116 0 173 76q53 70 53 163q0 135 -153 135h-234z
" />
    <glyph glyph-name="afii10107" unicode="&#x45a;" horiz-adv-x="1692" vert-adv-y="2457" 
d="M818 658l80 413h208l-73 -378h187q202 0 288 -68q95 -75 95 -224q0 -89 -34.5 -172t-92.5 -136q-56 -51 -127.5 -72t-187.5 -21h-471l96 495h-403l-96 -495h-211l208 1071h211l-80 -413h403zM929 162h228q103 0 158 51q33 30 53.5 77.5t20.5 93.5q0 150 -176 150h-211z
" />
    <glyph glyph-name="afii10108" unicode="&#x45b;" horiz-adv-x="1191" vert-adv-y="2457" 
d="M336 1374l33 168h211l-32 -168h236l-29 -149h-236l-60 -314q129 181 326 181q133 0 208 -78.5t75 -217.5q0 -52 -15 -132l-129 -664h-211l129 668q11 56 11 91q0 159 -158 159q-112 0 -189 -79t-105 -223l-120 -616h-211l237 1225h-140l29 149h140z" />
    <glyph glyph-name="afii10109" unicode="&#x45c;" horiz-adv-x="1099" vert-adv-y="2457" 
d="M76 0l208 1071h211l-87 -448h55q75 0 112 34t137 193q60 95 90.5 132t68.5 58q54 31 185 31h67l-32 -161h-37q-71 0 -94.5 -19.5t-90.5 -132.5q-59 -99 -96 -136.5t-112 -73.5q59 -25 98 -74t76 -143l130 -331h-229l-119 325q-30 81 -66.5 114.5t-95.5 33.5h-76l-92 -473
h-211zM617 1203l154 338h258l-267 -338h-145z" />
    <glyph glyph-name="uni045D" unicode="&#x45d;" horiz-adv-x="1220" vert-adv-y="2457" 
d="M81 0l208 1071h213l-131 -673l532 557l23 116h212l-208 -1071h-213l133 683l-532 -556l-25 -127h-212zM683 1204l-170 338h242l61 -338h-133z" />
    <glyph glyph-name="afii10110" unicode="&#x45e;" horiz-adv-x="992" vert-adv-y="2457" 
d="M1076 1071l-664 -1228q-66 -123 -143 -176t-189 -53q-118 0 -205 72l91 144q55 -52 117 -52q101 0 163 127l58 118l-179 1048h218l119 -776l393 776h221zM348 1532h150q1 -72 15 -102q26 -56 104 -56q66 0 99.5 37.5t43.5 120.5h147q-24 -300 -290 -300
q-85 0 -148.5 33.5t-91.5 93.5q-29 62 -29 173z" />
    <glyph glyph-name="afii10193" unicode="&#x45f;" horiz-adv-x="1181" vert-adv-y="2457" 
d="M76 0l208 1071h212l-175 -899h396l175 899h211l-208 -1071h-309l-81 -310h-159l39 310h-309z" />
    <glyph glyph-name="afii10050" unicode="&#x490;" horiz-adv-x="1056" vert-adv-y="2457" 
d="M76 0l285 1464h649l76 245h156l-82 -422h-617l-250 -1287h-217z" />
    <glyph glyph-name="afii10098" unicode="&#x491;" horiz-adv-x="889" vert-adv-y="2457" 
d="M81 0l208 1071h480l62 216h158l-75 -388h-446l-175 -899h-212z" />
    <glyph glyph-name="uni0492" unicode="&#x492;" horiz-adv-x="1056" vert-adv-y="2457" 
d="M210 679h-206l33 162h205l121 623h831l-34 -168h-619l-88 -455h439l-33 -162h-438l-131 -679h-212z" />
    <glyph glyph-name="uni0493" unicode="&#x493;" horiz-adv-x="889" vert-adv-y="2457" 
d="M185 534h-143l33 172h144l71 365h658l-34 -172h-445l-38 -193h302l-33 -172h-302l-104 -534h-212z" />
    <glyph glyph-name="uni0496" unicode="&#x496;" horiz-adv-x="1782" vert-adv-y="2457" 
d="M1548 0h-119l-128 387q-57 173 -110.5 227t-169.5 54l-130 -668h-209l130 668q-88 -2 -144 -34q-90 -53 -230 -247l-278 -387h-250l342 467q90 124 165.5 187.5t170.5 94.5q-77 45 -101.5 98.5t-54.5 243.5q-19 122 -51 162t-112 40q-34 0 -69 -4l34 175q57 5 76 5
q138 0 204 -63q36 -34 56.5 -87.5t42.5 -172.5q30 -157 44 -205.5t37 -76.5q37 -45 147 -45l125 645h210l-126 -645q79 1 112.5 7t64.5 26q64 42 191 295q101 198 185 260q85 62 221 62q27 0 84 -5l-34 -175q-34 4 -62 4q-57 0 -88 -17.5t-65 -69.5q-36 -53 -100 -190
q-65 -140 -105.5 -188t-136.5 -98q114 -52 186 -263l99 -288h178l-103 -528h-169z" />
    <glyph glyph-name="uni0497" unicode="&#x497;" horiz-adv-x="1500" vert-adv-y="2457" 
d="M1225 0h-78l-106 326q-30 93 -62.5 125.5t-96.5 32.5h-38l-94 -484h-208l94 484h-68q-62 0 -101 -31t-99 -127l-204 -326h-241l224 332q71 104 122 150.5t132 79.5q-49 41 -63 76.5t-40 181.5q-11 59 -28.5 74.5t-75.5 15.5h-50l32 161h50q127 0 170 -35q45 -36 78 -198
q29 -145 52 -177.5t94 -32.5h44l86 443h208l-86 -443h74q71 0 109 37t103 169q78 155 129 196t169 41h77l-32 -161h-42q-55 0 -74 -20.5t-72 -135.5q-41 -91 -81.5 -135.5t-115.5 -83.5q80 -52 134 -203l55 -154h140l-94 -482h-165z" />
    <glyph glyph-name="uni049A" unicode="&#x49a;" horiz-adv-x="1315" vert-adv-y="2457" 
d="M1065 178h185l-103 -528h-169l40 350h-96l-320 700l-219 -206l-96 -494h-209l285 1464h209l-140 -713l727 715h242l-639 -618z" />
    <glyph glyph-name="uni049B" unicode="&#x49b;" horiz-adv-x="1102" vert-adv-y="2457" 
d="M892 178h183l-93 -482h-166l39 304h-106l-209 500l-205 -204l-57 -296h-207l208 1071h207l-100 -516l500 516h239l-431 -424z" />
    <glyph glyph-name="uni049C" unicode="&#x49c;" horiz-adv-x="1272" vert-adv-y="2457" 
d="M614 647l-75 -384h-161l79 404h-34l-130 -667h-217l285 1464h217l-126 -645h34l81 414h161l-71 -368q55 44 156 216q83 141 127.5 202.5t93.5 102.5q96 83 269 83q38 0 93 -5l-34 -175q-34 4 -66 4q-99 0 -147 -44t-156 -233q-73 -127 -118.5 -173t-144.5 -94
q76 -28 112 -61q76 -70 132 -221l176 -467h-239l-142 387q-45 123 -78.5 179t-76.5 81z" />
    <glyph glyph-name="uni049D" unicode="&#x49d;" horiz-adv-x="1099" vert-adv-y="2457" 
d="M534 453l-60 -309h-126l64 329h-33l-92 -473h-211l208 1071h211l-87 -448h33l48 251h126l-42 -219q37 32 139 195q60 95 91 132t68 58q54 31 185 31h67l-32 -162h-37q-71 0 -94.5 -19t-90.5 -132q-60 -100 -96.5 -136.5t-111.5 -73.5q59 -24 98 -73.5t76 -143.5l130 -331
h-229l-119 326q-34 92 -83 127z" />
    <glyph glyph-name="uni04A2" unicode="&#x4a2;" horiz-adv-x="1423" vert-adv-y="2457" 
d="M1169 178h180l-103 -528h-169l40 350h-195l125 641h-631l-125 -641h-213l285 1464h213l-125 -649h628l127 649h213z" />
    <glyph glyph-name="uni04A3" unicode="&#x4a3;" horiz-adv-x="1189" vert-adv-y="2457" 
d="M942 178h150l-93 -482h-167l39 304h-170l90 465h-423l-90 -465h-207l208 1071h207l-86 -444h423l86 444h207z" />
    <glyph glyph-name="uni04AE" unicode="&#x4ae;" horiz-adv-x="1190" vert-adv-y="2457" 
d="M397 0l118 614l-315 850h221l234 -667l471 667h223l-625 -858l-118 -606h-209z" />
    <glyph glyph-name="uni04AF" unicode="&#x4af;" horiz-adv-x="987" vert-adv-y="2457" 
d="M494 8l-89 -451h-195l92 472l-179 1042h215l119 -782l395 782h217z" />
    <glyph glyph-name="uni04B0" unicode="&#x4b0;" horiz-adv-x="1190" vert-adv-y="2457" 
d="M449 269h-293l33 162h291l35 184l-315 849h221l234 -667l471 667h223l-625 -857l-34 -176h310l-32 -162h-310l-52 -269h-209z" />
    <glyph glyph-name="uni04B1" unicode="&#x4b1;" horiz-adv-x="987" vert-adv-y="2457" 
d="M296 1l6 28l-179 1042h215l119 -782l395 782h217l-575 -1063l-1 -7h245l-33 -163h-244l-56 -281h-195l55 281h-235l33 163h233z" />
    <glyph glyph-name="uni04B2" unicode="&#x4b2;" horiz-adv-x="1274" vert-adv-y="2457" 
d="M1043 179h185l-102 -528h-169l40 349h-108l-242 603l-465 -603h-233l608 764l-293 700h230l223 -555l422 555h233l-567 -720z" />
    <glyph glyph-name="uni04B3" unicode="&#x4b3;" horiz-adv-x="1057" vert-adv-y="2457" 
d="M825 177h173l-93 -482h-167l39 305h-95l-178 418l-332 -418h-227l467 563l-236 508h226l159 -373l291 373h232l-434 -518z" />
    <glyph glyph-name="uni04B6" unicode="&#x4b6;" horiz-adv-x="1310" vert-adv-y="2457" 
d="M1226 178l-103 -528h-169l40 350h-186l108 557q-128 -154 -359 -154q-187 0 -281 108q-72 84 -72 223q0 92 29 242l95 488h213l-99 -510q-21 -108 -21 -194q0 -189 213 -189q135 0 225 75t116 209l118 609h213l-250 -1286h170z" />
    <glyph glyph-name="uni04B7" unicode="&#x4b7;" horiz-adv-x="1115" vert-adv-y="2457" 
d="M868 178h150l-94 -482h-166l39 304h-170l79 407q-108 -122 -280 -122q-129 0 -205.5 73t-76.5 196q0 72 21 178l66 339h207l-72 -369q-7 -35 -7 -113q0 -142 162 -142q86 0 149.5 52.5t79.5 137.5l85 434h207z" />
    <glyph glyph-name="uni04B8" unicode="&#x4b8;" horiz-adv-x="1310" vert-adv-y="2457" 
d="M681 416l-44 -228h-162l42 217q-152 12 -232.5 96.5t-80.5 232.5q0 92 29 242l95 488h213l-99 -510q-21 -108 -21 -194q0 -146 130 -178l72 378h162l-73 -381q105 21 173 92t90 184l118 609h213l-285 -1464h-213l108 557q-91 -108 -235 -141z" />
    <glyph glyph-name="uni04B9" unicode="&#x4b9;" horiz-adv-x="1115" vert-adv-y="2457" 
d="M435 462l56 287h162l-57 -291q60 20 101 67.5t53 111.5l85 434h207l-209 -1071h-206l79 407q-61 -70 -139 -98l-39 -202h-162l35 178q-85 9 -146 44q-52 31 -81.5 90.5t-29.5 133.5q0 73 21 179l66 339h207l-72 -370q-7 -34 -7 -113q0 -93 76 -126z" />
    <glyph glyph-name="uni04BA" unicode="&#x4ba;" horiz-adv-x="1310" vert-adv-y="2457" 
d="M489 1464h213l-108 -557q128 154 359 154q187 0 281 -108q72 -84 72 -223q0 -91 -29 -242l-95 -488h-213l99 510q21 108 21 194q0 189 -214 189q-134 0 -224 -75t-116 -209l-118 -609h-213z" />
    <glyph glyph-name="uni04BB" unicode="&#x4bb;" horiz-adv-x="1190" vert-adv-y="2457" 
d="M72 0l299 1542h207l-122 -631q126 180 326 180q136 0 211 -83q70 -78 70 -213q0 -65 -12 -127l-129 -668h-207l129 670q10 51 10 96q0 155 -160 155q-113 0 -190 -77.5t-104 -218.5l-121 -625h-207z" />
    <glyph glyph-name="uni04C0" unicode="&#x4c0;" horiz-adv-x="607" vert-adv-y="2457" 
d="M91 0l285 1464h217l-285 -1464h-217z" />
    <glyph glyph-name="uni04CF" unicode="&#x4cf;" horiz-adv-x="607" vert-adv-y="2457" 
d="M91 0l285 1464h217l-285 -1464h-217z" />
    </font>
</defs>
</svg>
