<svg xmlns="http://www.w3.org/2000/svg" viewBox="0 0 192 192"><path d="M89.4 129c2.7-1.1 4-2.9 4-5.5 0-4.6-3.9-7.6-9.9-7.6-5.3 0-8.8 2.3-10.4 6.7l5.4 2.2c1-2.4 2.5-3.5 4.7-3.5 2 0 3.3 1.1 3.3 2.8 0 1.8-1.4 2.9-3.6 2.9h-2.1v5h1.9c2.8 0 4.2.9 4.2 2.9 0 1.9-1.5 3.1-3.9 3.1-2.5 0-3.9-1-4.6-3.6l-6.2 1.8c1.1 4.6 5.2 7.2 11.3 7.2 6.6 0 10.8-3.2 10.8-8.3-.3-2.9-1.8-5-4.9-6.1zM108.2 116.4H97.7v26.8H108c8.6 0 13.8-5.1 13.8-13.5.1-8.3-5.1-13.3-13.6-13.3zm.1 21H105v-15.2h3.2c3.9 0 6 2.6 6 7.6s-2 7.6-5.9 7.6z"/><path d="M144 152V36c0-11-9-20-20-20H68c-11 0-20 9-20 20v116H32v24h128v-24h-16zM80 24h32v16H80V24zm24 24v12H88V48h16zM56 36c0-6.7 5.3-12 12-12h4v24h8v12c0 4.4 3.6 8 8 8h4v7.5c0 .3-.2.5-.5.5H76c-4.4 0-8 3.6-8 8v8c0 4.4 3.6 8 8 8h39.5c.3 0 .5.2.5.5v7.5h8v-8c0-4.4-3.6-8-8-8H76.5c-.3 0-.5-.2-.5-.5v-7c0-.3.2-.5.5-.5H92c4.4 0 8-3.6 8-8v-8h4c4.4 0 8-3.6 8-8V48h8V24h4c6.7 0 12 5.3 12 12v116H56V36zm96 132H40v-8h112v8z"/></svg>