<svg xmlns="http://www.w3.org/2000/svg" viewBox="0 0 192 192"><path d="M104 176c-17 0-32.6-9.9-39.8-25.3l-21.4-48.5.4-1.4c.2-.7 2.1-6.4 7.6-8.9 5.4-2.4 11.8-.7 16.2 4.5 1.4 1.7 5.4 6.9 9 11.7V60c0-6.6 5.4-12 12-12s12 5.4 12 12v26.1c2.4-1.4 5.1-2.1 8-2.1 1.7 0 3.4.3 5 .8l24.3 8.1c6.5 2.3 10.7 8.3 10.7 15.1v24c0 24.3-19.7 44-44 44zm-52.6-74l20.1 45.4C77.3 159.9 90.1 168 104 168c19.9 0 36-16.1 36-36v-24c0-3.4-2.1-6.4-5.3-7.6l-24.2-8.1c-.8-.3-1.6-.4-2.5-.4-4.4 0-8 3.6-8 8h-8V60c0-2.2-1.8-4-4-4s-4 1.8-4 4v64h-6.2l-1.2-1.6c-4.5-6.1-13.5-18.2-15.6-20.8-1.6-1.9-4.3-3.5-6.9-2.4-1.3.6-2.2 1.8-2.7 2.8z"/><path d="M55.9 82.8c1.6 0 3.2.2 4.8.6C55.3 77.1 52 68.9 52 60c0-19.9 16.1-36 36-36s36 16.1 36 36c0 4.2-.7 8.3-2.1 12.1 2.7.3 5.3 1.1 7.7 2.3 1.6-4.5 2.4-9.4 2.4-14.4 0-24.3-19.7-44-44-44S44 35.7 44 60c0 8.6 2.5 16.7 6.8 23.5 1.7-.4 3.3-.7 5.1-.7z"/><path d="M68 60c0-11 9-20 20-20s20 9 20 20h8c0-15.4-12.6-28-28-28S60 44.6 60 60h8z"/></svg>