<svg xmlns="http://www.w3.org/2000/svg" viewBox="0 0 192 192"><path d="M148 108c0-6.8-4.3-12.8-10.7-15.1L113 84.8c-1.6-.5-3.3-.8-5-.8-2.9 0-5.6.8-8 2.1V60c0-6.6-5.4-12-12-12s-12 5.4-12 12v48.1c-3.6-4.8-7.5-10-9-11.7-4.4-5.2-10.8-7-16.2-4.5-5.5 2.5-7.4 8.3-7.6 8.9l-.4 1.4 21.4 48.5C71.4 166.1 87 176 104 176c24.3 0 44-19.7 44-44v-24zm-8 24c0 19.9-16.1 36-36 36-13.9 0-26.7-8.1-32.6-20.6l-20-45.4c.6-1 1.5-2.2 2.7-2.8 2.6-1.2 5.2.5 6.9 2.4 2.2 2.5 11.2 14.7 15.6 20.8l1.2 1.6H84V60c0-2.2 1.8-4 4-4s4 1.8 4 4v40h8c0-4.4 3.6-8 8-8 .9 0 1.7.1 2.5.4l24.2 8.1c3.2 1.1 5.3 4.2 5.3 7.6V132z"/><path d="M68 64H52V36h84v28h-28v8h36V28H44v44h24z"/></svg>