<svg xmlns="http://www.w3.org/2000/svg" viewBox="0 0 192 192"><path d="M104 176c-17 0-32.6-9.9-39.8-25.3l-21.4-48.5.4-1.4c.2-.7 2.1-6.4 7.6-8.9 5.4-2.4 11.8-.7 16.2 4.5 1.4 1.7 5.4 6.9 9 11.7V60c0-6.6 5.4-12 12-12s12 5.4 12 12v26.1c2.4-1.4 5.1-2.1 8-2.1 1.7 0 3.4.3 5 .8l24.3 8.1c6.5 2.3 10.7 8.3 10.7 15.1v24c0 24.3-19.7 44-44 44zm-52.6-74l20.1 45.4C77.3 159.9 90.1 168 104 168c19.9 0 36-16.1 36-36v-24c0-3.4-2.1-6.4-5.3-7.6l-24.2-8.1c-.8-.3-1.6-.4-2.5-.4-4.4 0-8 3.6-8 8h-8V60c0-2.2-1.8-4-4-4s-4 1.8-4 4v64h-6.2l-1.2-1.6c-4.5-6.1-13.5-18.2-15.6-20.8-1.6-1.9-4.3-3.5-6.9-2.4-1.3.6-2.2 1.8-2.7 2.8zM40.7 49c1.9 4.8 4.9 6.8 10 6.8s8.1-2.1 8.1-5.7c0-3.1-1.6-4.4-8.2-5.9-7.1-1.7-9.4-2.5-11.4-3.8-3.5-2.3-5.1-5.5-5.1-10 0-8.9 6.1-14.3 16.1-14.3 8.3 0 14 3.2 17.4 9.6l-8.2 4c-2.2-4-4.7-5.4-9.2-5.4-4.1 0-6.4 1.8-6.4 5 0 2.9 2 4.3 7.8 5.5 6.1 1.3 9.4 2.4 11.9 4 3.5 2.4 5.2 5.8 5.2 10.7 0 9.4-6.4 14.6-17.8 14.6-9.5 0-15.3-3.5-18.8-11.1l8.6-4zM132.1 49c1.9 4.8 4.9 6.8 10 6.8s8.1-2.1 8.1-5.7c0-3.1-1.6-4.4-8.2-5.9-7.1-1.7-9.4-2.5-11.4-3.8-3.5-2.3-5.1-5.5-5.1-10 0-8.9 6.1-14.3 16.1-14.3 8.3 0 14 3.2 17.4 9.6l-8.2 4c-2.2-4-4.7-5.4-9.2-5.4-4.1 0-6.4 1.8-6.4 5 0 2.9 2 4.3 7.8 5.5 6.1 1.3 9.4 2.4 11.9 4 3.5 2.4 5.2 5.8 5.2 10.7 0 9.4-6.4 14.6-17.8 14.6-9.5 0-15.3-3.5-18.8-11.1l8.6-4z"/><path fill="none" d="M105.7 50.6c1.6-2.6 2.4-6.2 2.4-10.6 0-9.6-4.3-15.6-11.3-15.6-7.3 0-11.5 5.7-11.5 15.6v.1c.9-.1 1.7-.2 2.6-.2 8.5.1 14.7 4.7 17.8 10.7zM88 48c-.5 0-.9 0-1.4.1 1.8 4.8 5.3 7.5 10.2 7.5.8 0 1.6-.1 2.3-.2C97.5 51.3 93.7 48 88 48z"/><path d="M97 16c-13 0-22.2 10-22.2 24.1 0 1.5.1 3 .3 4.5 2.7-2.3 6.2-3.9 10.2-4.4v-.1c0-9.9 4.2-15.6 11.5-15.6 7 0 11.3 6 11.3 15.6 0 4.4-.8 8-2.4 10.6 1.5 2.9 2.3 6.2 2.3 9.4v1c6.6-4 10.7-11.6 10.7-21.1 0-14-9.1-24-21.7-24z"/></svg>