<svg xmlns="http://www.w3.org/2000/svg" viewBox="0 0 192 192"><path d="M52 148c-19.9 0-36-16.1-36-36s16.1-36 36-36 36 16.1 36 36-16.1 36-36 36zm0-64c-15.4 0-28 12.6-28 28s12.6 28 28 28 28-12.6 28-28-12.6-28-28-28z"/><path d="M168 103.3V90.8c0-6.3-4.3-11.3-11.8-13.8l-49.1-16.1L94.9 24H40.7l-8.2 39.8C27 66 21.8 69.2 17.3 73.2l5.3 6C30.7 72 41.2 68 52 68c24.3 0 44 19.7 44 44 0 3.7-.5 7.4-1.4 11l-1.5 5.8 31-4.2c1.3 13.1 12.4 23.4 25.9 23.4 14.3 0 26-11.7 26-26 0-7.4-3.1-14-8-18.7zM52 60c-3.6 0-7.2.4-10.8 1.1l6-29.1h41.9l21.3 64h-9C94.7 75.1 75.1 60 52 60zm72.6 56.4l-21.1 2.8c.3-2.4.5-4.8.5-7.3 0-2.7-.2-5.4-.6-8h18.2l-11.2-33.7 43.4 14.3c4.2 1.4 6.3 3.5 6.3 6.2V98c-3.1-1.3-6.5-2-10-2-12.5 0-22.9 8.8-25.5 20.4zM150 140c-9.9 0-18-8.1-18-18s8.1-18 18-18 18 8.1 18 18-8.1 18-18 18z"/></svg>