<svg xmlns="http://www.w3.org/2000/svg" viewBox="0 0 192 192"><path d="M160 106.7V50c0-18.7-15.3-34-34-34H66c-18.7 0-34 15.3-34 34v54.1c0 9.2 3.9 17.9 10.7 23.9 1.7 1.5 3.6 3 5.7 4.5l-.1-.1-16 40 7.4 3 4.6-11.5h103.4l4.6 11.5 7.4-3-16-40-.2.1c3.5-2.6 6.4-5.1 8.7-7.3 4.9-4.7 7.8-11.5 7.8-18.5zM144.5 156h-97l7.6-19c10.2 6 23.8 11 40.9 11 17.1 0 30.8-5.1 40.9-11.1l7.6 19.1zm7.5-49.3c0 4.9-2 9.6-5.4 12.9-7.9 7.6-24.9 20.4-50.6 20.4-22.7 0-38.6-9.8-48-18-5.1-4.5-8-11-8-17.9V50c0-14.3 11.7-26 26-26h60c14.3 0 26 11.7 26 26v56.7z"/><path d="M128 32H64c-8.8 0-16 7.2-16 16v24.7c0 10 6.3 19.1 15.8 22.5 9.3 3.4 20.2 5.2 32.2 5.2s22.9-1.7 32.2-5.2c9.4-3.5 15.8-12.5 15.8-22.5V48c0-8.8-7.2-16-16-16zM56 72.7V48c0-4.4 3.6-8 8-8h28v52.3c-9.5-.3-18-1.9-25.5-4.6-6.3-2.3-10.5-8.3-10.5-15zm80 0c0 6.7-4.2 12.7-10.5 15-7.4 2.7-16 4.3-25.5 4.6V40h28c4.4 0 8 3.6 8 8v24.7z"/><circle cx="66" cy="114" r="6"/><circle cx="126" cy="114" r="6"/></svg>