<svg xmlns="http://www.w3.org/2000/svg" viewBox="0 0 192 192"><path d="M172 124h-11.5l-.9-1.7c-.4-.9-5.2-10.9-9.9-16.7-7-9.4-27.4-9.6-29.7-9.5-2.3 0-22.7.1-29.7 9.5-4.7 5.8-9.5 15.8-9.9 16.7l-.9 1.7H68c-2.2 0-4 1.8-4 4s1.8 4 4 4h5.9c-2.7 2.8-5.9 7.1-5.9 12v16c0 10.2 2.9 16 8 16h12c1.7 0 6.8-1 7.8-12h48.3c1 11 6.1 12 7.8 12h12c5.1 0 8-5.8 8-16v-16c0-4.9-3.2-9.2-5.9-12h5.9c2.2 0 4-1.8 4-4s-1.7-4-3.9-4zm-8 36c0 4.2-.6 6.9-1.1 8h-9.7c-.4-.8-1.2-3-1.2-8v-4H88v4c0 5-.8 7.2-1.2 8h-9.7c-.5-1.1-1.1-3.8-1.1-8v-16c0-3.1 4.3-7.3 6.3-8.8l.8-.6 4.4-8.9v-.1c0-.1 4.7-10 8.9-15.2l.1-.2c3.4-4.7 16.1-6.4 23.3-6.4 6 0 19.7 1.5 23.3 6.4l.1.2c4.2 5.2 8.9 15.1 8.9 15.2l4.5 9 .8.6c2.1 1.5 6.3 5.6 6.3 8.8v16z"/><path fill="none" d="M72 24c-22.4 0-34 3.7-37.2 6.8C33 32.7 32 39.7 32 44v10c.2 2.9 13.2 14 40 14s39.7-11.1 40-14V44c0-4.3-1-11.3-2.8-13.2C106 27.7 94.4 24 72 24z"/><path d="M124 36c-2.2 0-4 1.8-4 4v4c0-2.3-.2-13.9-5.2-18.8C108.9 19.3 93.7 16 72 16s-36.9 3.3-42.8 9.2C24.2 30.1 24 41.7 24 44v-4c0-2.2-1.8-4-4-4s-4 1.8-4 4v16c0 2.2 1.8 4 4 4s4-1.8 4-4v52c0 6 .8 20 8 20h12c3.3 0 7.3-2.9 7.9-16h24.7c1.3-2.4 3-5.2 4.9-8H44v4c0 7.6-1 10.8-1.5 12h-8.9c-.7-2-1.6-6.9-1.6-12V65.5c1.7 1.2 3.7 2.4 5.8 3.4C44.4 72.2 55.6 76 72 76c16.4 0 27.6-3.8 34.2-7.1 2.2-1.1 4.1-2.2 5.8-3.4v22.9c2.9-.3 5.7-.4 8-.4V56c0 2.2 1.8 4 4 4s4-1.8 4-4V40c0-2.2-1.8-4-4-4zm-12 18c-.3 2.9-13.2 14-40 14S32.2 56.8 32 54V44c0-4.3 1-11.3 2.8-13.2C38 27.7 49.6 24 72 24s34 3.7 37.2 6.8c1.8 1.8 2.8 8.8 2.8 13.2v10z"/></svg>