<svg xmlns="http://www.w3.org/2000/svg" viewBox="0 0 192 192"><path d="M152.5 129.9l-8.5 8.4-8.5-8.4-5.6 5.6 8.4 8.5-8.4 8.5 5.6 5.6 8.5-8.4 8.5 8.4 5.6-5.6-8.4-8.5 8.4-8.5z"/><path d="M144 112c-17.6 0-32 14.4-32 32s14.4 32 32 32 32-14.4 32-32-14.4-32-32-32zm0 56c-13.2 0-24-10.8-24-24s10.8-24 24-24 24 10.8 24 24-10.8 24-24 24zM56 72h64v8H56zM56 92h64v8H56zM75.6 148v-28h9.6v-8H56v8h9.7v28z"/><path d="M112 168H48V24h68v32h28v48c2.7 0 5.4.3 8 .8V50.5L121.8 16H40v160h80c-3-2.3-5.7-5-8-8zm12-137.4L139.2 48H124V30.6z"/></svg>