<svg xmlns="http://www.w3.org/2000/svg" viewBox="0 0 192 192"><path d="M96.4 103.4h-.7c-8.6 0-15.6 7-15.6 15.6v41.4c0 8.6 7 15.6 15.6 15.6h.7c8.6 0 15.6-7 15.6-15.6V119c0-8.6-7-15.6-15.6-15.6zm7.6 57c0 4.2-3.4 7.6-7.6 7.6h-.7c-4.2 0-7.6-3.4-7.6-7.6V119c0-4.2 3.4-7.6 7.6-7.6h.7c4.2 0 7.6 3.4 7.6 7.6v41.4z"/><path d="M154.7 47.8l2.6-7.6-13-4.3-21.6 3.6-7.8-23.5H77.1l-7.8 23.5-21.6-3.6-13 4.3 2.6 7.6 11-3.7 15.4 2.6-11.9 11.8 4.3 46.6 7.9 15.8V140h-8v8h16v-28.9l-8.1-16.2-3.7-41.4 15.3-15.3L82.9 24h26.2l7.4 22.2 15.3 15.3-3.7 41.4-8.1 16.2V148h16v-8h-8v-19.1l7.9-15.8 4.3-46.6-11.9-11.8 15.4-2.6z"/><path d="M120 59.1l-24 4.8-24-4.8v9.5l4.7 14.2L96 92.5l19.3-9.6 4.7-14.2v-9.6zm-11.3 18.1L96 83.5l-12.7-6.4-2.8-8.1L96 72.1l15.5-3.1-2.8 8.2zM36 124c-6.6 0-12 5.4-12 12v28c0 6.6 5.4 12 12 12s12-5.4 12-12v-28c0-6.6-5.4-12-12-12zm4 40c0 2.2-1.8 4-4 4s-4-1.8-4-4v-28c0-2.2 1.8-4 4-4s4 1.8 4 4v28zM156 124c-6.6 0-12 5.4-12 12v28c0 6.6 5.4 12 12 12s12-5.4 12-12v-28c0-6.6-5.4-12-12-12zm4 40c0 2.2-1.8 4-4 4s-4-1.8-4-4v-28c0-2.2 1.8-4 4-4s4 1.8 4 4v28z"/></svg>