<svg xmlns="http://www.w3.org/2000/svg" viewBox="0 0 192 192"><path d="M152 128.5v-54l21.5-8.8-3-7.4L144 69.2V80h-20V60h-8v20h-8V68h-8v12H36V40h108v12h8V32H28v96.5c-6.9 1.8-12 8-12 15.5 0 8.8 7.2 16 16 16 7.4 0 13.7-5.1 15.5-12h85.1c1.8 6.9 8 12 15.5 12 8.8 0 16-7.2 16-16-.1-7.4-5.2-13.7-12.1-15.5zM144 88v28h-20V96h-8v20h-8V96h-8v20h-8v-12h-8v12H36V88h108zM32 152c-4.4 0-8-3.6-8-8s3.6-8 8-8 8 3.6 8 8-3.6 8-8 8zm100.5-12h-85c-1.5-5.6-5.9-10-11.5-11.5V124h108v4.5c-5.6 1.5-10 5.9-11.5 11.5zm15.5 12c-4.4 0-8-3.6-8-8s3.6-8 8-8 8 3.6 8 8-3.6 8-8 8z"/></svg>