<svg xmlns="http://www.w3.org/2000/svg" viewBox="0 0 192 192"><path d="M176 116c0-14.1-13.9-28-28-28H16v64h16.7c1.7 4.7 6.1 8 11.3 8s9.6-3.3 11.3-8h9.4c1.7 4.7 6.1 8 11.3 8s9.6-3.3 11.3-8h49.4c1.7 4.7 6.1 8 11.3 8s9.6-3.3 11.3-8H176v-36zm-8 0v4h-20V96c9.7 0 20 10.3 20 20zM44 152c-2.2 0-4-1.8-4-4s1.8-4 4-4 4 1.8 4 4-1.8 4-4 4zm32 0c-2.2 0-4-1.8-4-4s1.8-4 4-4 4 1.8 4 4-1.8 4-4 4zm42-8H87.3c-1.7-4.7-6.1-8-11.3-8s-9.6 3.3-11.3 8h-9.4c-1.7-4.7-6.1-8-11.3-8s-9.6 3.3-11.3 8H24V96h100v48h-6zm30 8c-2.2 0-4-1.8-4-4s1.8-4 4-4 4 1.8 4 4-1.8 4-4 4zm11.3-8c-1.7-4.7-6.1-8-11.3-8s-9.6 3.3-11.3 8H132V96h8v32h28v16h-8.7z"/></svg>