<svg xmlns="http://www.w3.org/2000/svg" viewBox="0 0 192 192"><path d="M158 124c-9.9 0-18 8.1-18 18s8.1 18 18 18 18-8.1 18-18-8.1-18-18-18zm0 28c-5.5 0-10-4.5-10-10s4.5-10 10-10 10 4.5 10 10-4.5 10-10 10z"/><path d="M173.6 121.2l4.8-6.4c-3.2-2.4-6.7-4.1-10.4-5.3V104h-4.2c.1-1.3.2-2.7.2-4v-.4l-9.4-43.8c-2-9.2-10.2-15.8-19.6-15.8H48.5C16.4 40 16 59.2 16 60v88h21.1c2.5 7 9.1 12 16.9 12s14.5-5 16.9-12h43.5c8.7 0 16.4-5.6 19-13.9 3.5-11 13.2-18.1 24.5-18.1 5.8 0 11.2 1.8 15.7 5.2zM100 48v92H76v-16.2c0-11-5.5-16.7-10.2-19.5C60 100.7 52.9 100 48 100c-1.9 0-4-2.1-4-4V48.2c1.4-.1 2.9-.2 4.5-.2H100zM54 152c-5.5 0-10-4.5-10-10s4.5-10 10-10 10 4.5 10 10-4.5 10-10 10zm0-28c-9.2 0-16.9 7-17.9 16H24V60c0-.1.2-7.4 12-10.6V96c0 6.3 5.7 12 12 12 13.3 0 20 5.3 20 15.8v6.9c-3.3-4.1-8.3-6.7-14-6.7zm71.9 7.6c-1.6 5-6.2 8.4-11.4 8.4H108v-32h16v-8h-16V48h27.1c5.6 0 10.6 4 11.7 9.5l5.7 26.5H140v8h14.2l1.8 8.4c0 2.6-.3 5.2-.8 7.7-13.7 1.1-25 10.1-29.3 23.5z"/></svg>