<svg xmlns="http://www.w3.org/2000/svg" viewBox="0 0 192 192"><path d="M108.5 122.5c-2.4 0-4.4-.4-6-1.6-1.2-.8-2.4-2-2.8-3.2s-.8-4.4-.8-8.8V88.6h18.7V76.3H99V56H87.4c-.4 4-1.6 7.6-2.8 10.3-1.2 2.8-3.2 4.8-5.2 6.8-2.4 2-4.8 3.2-8 4.4v11.1h8.8v27.9c0 3.6.4 6.4 1.2 8.4.8 2 2 3.6 4 5.6 2 1.6 4.4 3.2 7.2 4 2.8.8 6 1.6 9.6 1.6 3.2 0 6.4-.4 9.2-.8 2.8-.4 5.6-1.6 9.2-3.2v-12.7c-3.7 1.9-7.7 3.1-12.1 3.1z"/><path d="M96 176c-44.1 0-80-35.9-80-80s35.9-80 80-80 80 35.9 80 80-35.9 80-80 80zm0-152c-39.7 0-72 32.3-72 72s32.3 72 72 72 72-32.3 72-72-32.3-72-72-72z"/></svg>