<svg xmlns="http://www.w3.org/2000/svg" viewBox="0 0 192 192"><path d="M176 24h-40v4H85.3c-18.2 0-35.5 7.1-48.7 20C23.3 60.9 16 78 16 96.1c0 37.4 30.5 67.9 68 67.9s68-30.4 68-67.9c0-4-.4-8.2-1-12.1h25V24zm-32 72.1c0 33-26.9 59.9-60 59.9s-60-26.9-60-59.9c0-15.9 6.5-31 18.2-42.4C53.9 42.3 69.2 36 85.3 36H136v36h-30.9c-5.6-5-13-8-21.1-8-17.6 0-32 14.4-32 32s14.4 32 32 32 32-14.4 32-32c0-5.8-1.6-11.3-4.3-16H136v4h6.8c.8 3.9 1.2 8.1 1.2 12.1zM92 96l14.5-8.4c1 2.6 1.5 5.4 1.5 8.4s-.5 5.8-1.5 8.4L92 96zm10.5 15.3c-3.6 4.3-8.7 7.4-14.5 8.4V103l14.5 8.3zM88 89.1V72.3c5.8 1 10.9 4 14.5 8.4L88 89.1zm-8 13.8v16.7c-5.8-1-10.9-4-14.5-8.4l14.5-8.3zm-18.5 1.5c-1-2.6-1.5-5.4-1.5-8.4s.5-5.8 1.5-8.4L76 96l-14.5 8.4zm4-23.7c3.6-4.3 8.7-7.4 14.5-8.4V89l-14.5-8.3zM168 76h-24V32h24v44z"/></svg>