<svg xmlns="http://www.w3.org/2000/svg" viewBox="0 0 192 192"><path d="M96 176c-44.1 0-80-35.9-80-80s35.9-80 80-80 80 35.9 80 80-35.9 80-80 80zm0-152c-39.7 0-72 32.3-72 72s32.3 72 72 72 72-32.3 72-72-32.3-72-72-72z"/><path d="M95.8 83.7c-13.4-2-20.1-3.9-34.3-16.9 0 0-7.1 11 4.7 21.7 0 0-5.5-.4-7.1-2 0 0-.8 11.4 12.2 15.8 0 0-1.2 3.2-6.3 2.8 0 0 2.4 7.5 14.6 9.5 0 0-8.3 8.3-23.6 6.7 0 0 13.8 11.8 39.4 5.5 21.3-5.5 30.3-30.3 30.3-30.3s2.8-9.1 2-16.6c0 0 5.1-3.9 8.3-8.3l-9.1 2.4s5.5-3.9 6.7-8.7l-9.9 3.9s-4.3-6.7-14.6-5.5c-3.2.4-5.5 1.6-7.5 3.2-4.3 3.2-6.3 8.3-6.3 13.8l.5 3z"/></svg>