<svg xmlns="http://www.w3.org/2000/svg" viewBox="0 0 192 192"><path d="M31.4 136H19.9l36.6-96h11.3l36.1 96h-12l-8.8-23.9H40L31.4 136zm48.4-33.2L61.6 52.9l-18.2 49.9h36.4zM16 144h92v8H16zM120 108h56v8h-56zM165.2 150.8L148 133.7l-17.2 17.1-5.6-5.6 22.8-22.9 22.8 22.9zM172 95.4c-1.1.1-2.2.1-3 .1-5.8 0-9.5-2.6-11.2-7.8-4.8 5.7-10 8.3-16.7 8.3C131 96 124 89.8 124 81.1c0-8 5.3-13.7 14.9-16.3 5.1-1.3 9-1.8 18.3-2.1v-3.4c0-8.4-3.3-12.2-10.7-12.2-5.7 0-10 1.9-15.6 6.7l-5.1-5.6c6.5-5.9 12.4-8.3 20.6-8.3 12.4 0 19.3 6.8 19.3 19.4v24.1c0 3.8 1.5 5.1 6.1 5.2v6.8h.2zm-14.7-26.5c-17.4.6-24.7 4-24.7 11.8 0 5.4 3.5 8.4 10 8.4 8.6 0 14.7-5 14.7-11.9v-8.3z"/></svg>