<svg xmlns="http://www.w3.org/2000/svg" viewBox="0 0 192 192"><path d="M100 24.1V16h-8v8.1c-33.4 2.1-60 30-60 63.9v7.3l6.2-3.9C41.6 89.2 45.7 88 50 88s8.4 1.2 11.8 3.4l2 1.3 2.1-1.2c4.1-2.3 9-3.5 14-3.5 4.3 0 8.4.9 12 2.5V164c0 2.2-1.8 4-4 4s-4-1.8-4-4v-4h-8v4c0 6.6 5.4 12 12 12s12-5.4 12-12V90.5c3.6-1.6 7.7-2.5 12-2.5 5.1 0 9.9 1.2 14 3.5l2.1 1.2 2-1.3c3.5-2.2 7.6-3.4 11.8-3.4s8.4 1.2 11.8 3.4l6.2 3.9V88c.2-33.9-26.4-61.8-59.8-63.9zM142 80c-5 0-9.8 1.2-14.1 3.5-4.8-2.3-10.3-3.5-15.9-3.5-5.7 0-11.1 1.2-16 3.5-4.9-2.3-10.3-3.5-16-3.5-5.6 0-11.1 1.2-15.9 3.5C59.9 81.2 55 80 50 80c-3.3 0-6.6.5-9.6 1.5C43.6 53.7 67.3 32 96 32c28.7 0 52.4 21.7 55.6 49.5-3-1-6.3-1.5-9.6-1.5z"/></svg>