<svg xmlns="http://www.w3.org/2000/svg" viewBox="0 0 192 192"><path d="M120 48v24h8v11.3c0 5.5-1.4 9.2-4.3 10.9-4.2 2.5-16.3 10-23.7 14.6V40h12l-8-12-8-12-8 12-8 12h12v88.8c-7.4-4.6-19.6-12.1-23.7-14.6-2.8-1.7-4.3-5.4-4.3-10.9v-8c4.7-1.6 8-6.1 8-11.3 0-6.6-5.4-12-12-12s-12 5.4-12 12c0 5.2 3.3 9.7 8 11.3v8c0 10.6 4.4 15.5 8.1 17.7 5.1 3.1 22.1 13.6 27.9 17.2v14.5c-4.7 1.6-8 6.1-8 11.3 0 6.6 5.4 12 12 12s12-5.4 12-12c0-5.2-3.3-9.7-8-11.3v-34.5c5.7-3.5 22.8-14.1 27.9-17.2 3.7-2.2 8.1-7.1 8.1-17.7V72h8V48h-24z"/></svg>