<svg xmlns="http://www.w3.org/2000/svg" viewBox="0 0 192 192"><path d="M126 132c-18.7 0-34-15.2-34-34s15.2-34 34-34 34 15.2 34 34-15.3 34-34 34zm0-59.9c-14.3 0-26 11.6-26 26s11.6 26 26 26 26-11.6 26-26-11.7-26-26-26z"/><path d="M176 176h-8c0-24.3-18.8-44-42-44s-42 19.7-42 44h-8c0-28.7 22.4-52 50-52s50 23.3 50 52zM64 92h8v20h-8z"/><circle fill="none" cx="126" cy="98" r="34"/><path fill="none" d="M24 24v64h61.2c4.5-18.3 21.1-31.9 40.7-31.9 3.5 0 6.8.4 10 1.2V24H24z"/><path d="M24 88V24h112v33.3c2.7.7 5.3 1.6 7.8 2.8h.2V16H16v80h68.1c.1-2.7.5-5.4 1.2-8H24zM56 108v8h32v-.1c-1.2-2.5-2.1-5.1-2.8-7.9H56z"/></svg>