<svg xmlns="http://www.w3.org/2000/svg" viewBox="0 0 192 192"><path d="M146.5 43.6c4.2-10.2-.7-21.9-10.9-26.1-10.2-4.2-21.9.7-26.1 10.9-2.4 5.9-1.8 12.4 1.2 17.6-3.4-.7-6.9-.8-10.2-.2L96.8 44C82.1 36.6 60 25.5 44.5 40.1c-5.8 5.7-9 12.6-8.8 19.6.1 6 2.6 11.4 6.9 15.3 3.5 3.2 8.1 4.9 13.1 4.9 1.4 0 2.8-.1 4.2-.4 6.2-1.1 12.2-4.5 16.9-9.6l.2-.2c-.1 1.9.2 3.7.8 5.4 2.8 8 11.6 12 12.5 12.4l3.6 1.6L109.7 54c.9.2 1.8.5 2.6.9 11 4.5 13.3 16.6 10.7 26.6-1.8 6.8-2.7 8.7-2.7 8.8l-1.3 2.6 20.6 20.5 5.6-5.7L128.7 91c.5-1.6 1.3-4 2.2-7.5 2.7-10.4.9-20.4-4.5-27.5.5 0 1.1.1 1.6.1 7.8-.1 15.3-4.8 18.5-12.5zM71.4 64.1l-.4.4c-3.5 3.9-8 6.5-12.5 7.3-4.2.7-8-.2-10.6-2.5-2.7-2.4-4.2-5.8-4.3-9.6-.1-4.7 2.2-9.6 6.4-13.7 10.2-9.7 26-3.3 38.9 3L71.4 64.1zm18.8 14.2c-1.9-1.4-4-3.4-4.8-5.8-.7-2-.5-4.1.7-6.5 3.3-6.5 8.9-10.8 14.9-12.2L90.2 78.3zm26.7-46.9c2.5-6.1 9.5-9.1 15.7-6.5 6.1 2.5 9.1 9.5 6.5 15.7-2.5 6.1-9.5 9.1-15.7 6.5s-9-9.5-6.5-15.7zM72.8 133.2L46 148.5l4 7 29.2-16.7 12.5-33.4-7.4-2.8zM104.5 109.9l19.1 34.3-11.3 26.2 7.4 3.2 12.7-29.8-20.9-37.7z"/></svg>