<svg xmlns="http://www.w3.org/2000/svg" viewBox="0 0 192 192"><path d="M149.9 154.1h-33.3l-2.3-1.4c1.1-.9 2.1-2 2.9-3.2l5.3-7.9-3.4-2.2c-.2-.1-22.1-14.6-25.1-16.7-4.4-3.2-9.7-3.3-13-2-1.5.6-9.4 2.8-14.4 4.2H56V116H32v48h24v-9.5h10.2l36.7 21.5H160v-11.7c0-5.6-4.5-10.2-10.1-10.2zM48 156h-8v-32h8v32zm104 12h-46.9l-36.7-21.5H56V133h11.8l.5-.1c1.4-.4 13.3-3.7 15.7-4.6 1-.4 3.4-.3 5.4 1.1 2.4 1.7 15.6 10.5 22 14.7l-.8 1.2c-.9 1.3-2.2 2.3-3.4 2.5-.6.1-1.2 0-1.7-.4l-.1.2L84.7 135l-4.2 6.8 33.8 20.6h35.5c1.2 0 2.1 1 2.1 2.2v3.4zM96 84c22.1 0 40 17.9 40 40h8c0-22.3-15.2-41-35.8-46.4C119.8 72.8 128 61.3 128 48c0-17.6-14.4-32-32-32S64 30.4 64 48c0 13.3 8.2 24.8 19.8 29.6-15.2 4-27.7 15.2-33.1 30.4h8.6C65.6 93.5 80 84 96 84zM72 48c0-13.2 10.8-24 24-24s24 10.8 24 24-10.8 24-24 24-24-10.8-24-24z"/></svg>