<svg xmlns="http://www.w3.org/2000/svg" viewBox="0 0 192 192"><path d="M104.7 16c-33.1 0-54.1 10.6-63.9 32.6-5.2 11.5-5.5 30.7-5.5 35.7L17.8 112c-2.3 3.6-2.4 8-.4 11.7 2 3.7 6 6 10.2 6h7.7v16.1c0 6.6 2 11.9 5.9 15.4 3.5 3.1 8.3 4.4 13.9 3.7l21-4.1V176h8v-25L54 156.9c-3.2.4-5.7-.2-7.5-1.8-2.1-1.8-3.2-5.2-3.2-9.4v-24.1H27.7c-2 0-2.9-1.3-3.2-1.9-.3-.5-.9-2 .1-3.5l18.8-29.7v-1.2c0-.2-.4-22.1 4.7-33.5C51.2 45 60.7 24 104.7 24c18.8 0 34.8 6.3 46.4 18.3C162 53.5 168 68.8 168 85.4c0 18.5-9.3 27.7-19.2 37.4-11.4 11.2-11.4 26-11.4 33V176h8v-20.1c0-6.5 0-18.5 9-27.3C165 118.1 176 107.2 176 85.4c0-34.5-24.5-69.4-71.3-69.4z"/><path d="M140 102.7l4.3-1.7.4-.2c6.1-4.1 8.8-11.8 6.4-18.8-.3-.8-.1-1.6.3-2.3l.5-.8c4.4-6.6 2.9-15.4-3.5-20.2l-8.4-6.3c-.7-.5-1.1-1.2-1.3-2C136.6 42 129 36 120.1 36h-6.7c-.1 0-.2 0-.3-.1l-3.1-2c-6.1-4.1-14.3-3.3-19.4 1.9l-2.9 2.9c-.5.5-1.2.7-1.8.4-7.4-2.5-16.6.7-21 7.2l-1.5 2.2c-.2.3-.4.5-.7.7l-1.1.7c-7 4.7-9.9 13.6-7.1 21.5l-.9 1.4c-1.4 2.3-2 5-1.6 7.6.6 4.2 4.4 7.4 8.7 7.4h2.5c.5 0 .8.2 1.1.6l2.6 3.9c3.2 4.8 9.2 6.9 14.7 5.3l5.5-.9.3-.1h.1l4.7 3.2c4.1 2.7 9.4 2.7 13.4 0 .6-.3 1.1-.6 1.5-1.1.2-.1.3-.3.5-.4l.4-.4c.3-.3.7-.3 1.1-.1l7.5 5 .3.3 5.6 17.8c.5 1.5 1.2 2.8 2.2 3.8 1.7 1.6 3.9 2.5 6.2 2.5 4.9 0 8.9-4 8.9-8.9l.2-15.6zm-3.2-7.3c-2.9 1.1-4.8 3.9-4.8 7l-.1 15.7c0 .5-.4.9-.9.9-.2 0-.5-.1-.6-.3 0 0-.1-.1-.2-.4l-5.8-18.5-.1-.3c-.7-1.5-1.8-2.7-3.2-3.6l-7.4-4.9c4.3-3.1 8.7-3 12.9-3h1.4c2.2 0 4-1.8 4-4s-1.8-4-4-4h-1.3c-6.8-.1-17-.2-25.5 13-1.4.9-3.2.9-4.5-.1L92 89.7c-1.1-.8-2.4-1.2-3.7-1.3C88.9 78.3 93.1 72 96 72c2.2 0 4-1.8 4-4s-1.8-4-4-4c-2.1 0-4 .6-5.8 1.8-1.1-2.3-2.7-4.6-5.1-5.8-2.9-1.5-6.4-1.4-10.6.4-2 .9-3 3.2-2.1 5.2.9 2 3.2 3 5.2 2.1 1.8-.8 3.2-1 3.8-.6.4.2 1.7 1.2 2.7 5.8-2.3 4.4-3.8 10.2-4 16.7l-.4.1-.3.1c-2.2.7-4.6-.1-5.9-2L71 83.9c-1.7-2.6-4.7-4.1-7.8-4.1h-2.4c-.4 0-.7-.3-.8-.6-.1-.8 0-1.5.5-2.2l1.3-2.2c1.1-1.7 1.2-3.8.5-5.7-1.9-4.6-.3-9.9 3.8-12.7l1.1-.7c1.1-.8 2.1-1.7 2.9-2.9l1.5-2.2c2.3-3.5 7.8-5.4 11.8-4.1 3.5 1.2 7.4.3 10-2.4l2.9-2.9c2.4-2.4 6.1-2.8 9-1.1-3.3 3.4-5.1 7.5-5.1 11.8 0 4.7 2.1 8.9 5.8 11.2.7.4 1.4.6 2.1.6 1.3 0 2.6-.7 3.4-1.9 1.2-1.9.6-4.3-1.3-5.5-1.3-.8-2.1-2.4-2.1-4.4 0-1.5.6-5.1 5.1-8.2h6.9c5.2 0 9.6 3.5 10.9 8.5.1.2.1.5.2.7-6.6 2.5-8.3 7-8.7 9.1-.7 3.6.6 7.2 3.3 9 .7.5 1.5.7 2.2.7 1.3 0 2.6-.6 3.3-1.8 1.2-1.8.8-4.2-1-5.4-.1-.2-.2-.7.1-1.4.7-1.6 2.9-2.9 6.1-3.5l7.1 5.3c2.9 2.2 3.6 6.3 1.6 9.3l-.5.8c-1.8 2.7-2.3 6.1-1.2 9.2 1.1 3.4-.1 7.2-3 9.3l-3.7 1.9z"/></svg>