<svg xmlns="http://www.w3.org/2000/svg" viewBox="0 0 192 192"><path d="M92 144c-11 0-20-9-20-20s9-20 20-20 20 9 20 20-9 20-20 20zm0-32c-6.6 0-12 5.4-12 12s5.4 12 12 12 12-5.4 12-12-5.4-12-12-12zM156 112c-11 0-20-9-20-20s9-20 20-20 20 9 20 20-9 20-20 20zm0-32c-6.6 0-12 5.4-12 12s5.4 12 12 12 12-5.4 12-12-5.4-12-12-12zM156 176c-11 0-20-9-20-20s9-20 20-20 20 9 20 20-9 20-20 20zm0-32c-6.6 0-12 5.4-12 12s5.4 12 12 12 12-5.4 12-12-5.4-12-12-12z"/><path d="M104.685 110.23l32.87-15.172 3.353 7.264-32.87 15.171zM104.635 137.772l3.353-7.264 32.87 15.171-3.353 7.264zM64 80c-17.6 0-32-14.4-32-32s14.4-32 32-32 32 14.4 32 32-14.4 32-32 32zm0-56c-13.2 0-24 10.8-24 24s10.8 24 24 24 24-10.8 24-24-10.8-24-24-24z"/><path d="M64 72c-26.5 0-48 21.5-48 48h8c0-22 17.9-40 40-40 12.9 0 24.4 6.1 31.7 15.6 4.4.6 8.4 2.1 11.9 4.4C100 83.5 83.3 72 64 72z"/></svg>