<svg xmlns="http://www.w3.org/2000/svg" viewBox="0 0 192 192"><path d="M32 168h128v8H32zM72.2 75.2c1.5-4 4.4-7.2 8.3-9 5.8-2.7 12.5-1.7 17.3 2.5l1.5 1.4 28.4 2 .6-8-25.6-1.8c-4.9-4.1-11.1-6-17.2-5.5 2.9-4.5 3.5-10.3 1.1-15.5-1.8-3.9-5-6.8-9-8.3-4-1.5-8.4-1.3-12.2.5s-6.8 5-8.3 9c-1.5 4-1.3 8.4.5 12.2s5 6.8 9 8.3c1.2.4 2.3.7 3.5.8-2.4 2.4-4.2 5.3-5.4 8.5-2.2 6-1.9 12.5.8 18.4l11.8 25.4 7.2-3.4-11.8-25.3c-1.8-3.9-2-8.2-.5-12.2zm-7.4-23.8c-.9-1.9-1-4.1-.3-6.1s2.2-3.6 4.1-4.5c1.9-.9 4.1-1 6.1-.3s3.6 2.2 4.5 4.1c1.9 4 .1 8.8-3.9 10.6-1.9.9-4.1 1-6.1.3-1.9-.7-3.5-2.2-4.4-4.1z"/><path d="M81.141 105.526l7.25-3.38 23.666 50.752-7.25 3.38zM109 90.5l-4.9 6.3 19.4 15.4-1.1 23.9 8 .4 1.3-28z"/></svg>