<svg xmlns="http://www.w3.org/2000/svg" viewBox="0 0 192 192"><path d="M91.9 118.9c9.7-6 16.1-16.7 16.1-28.9 0-18.7-15.3-34-34-34S40 71.3 40 90c0 12.2 6.5 22.9 16.1 28.9C32.9 126.7 16 149.4 16 176h8c0-28.7 22.4-52 50-52s50 23.3 50 52h8c0-26.6-16.9-49.3-40.1-57.1zM48 90c0-14.3 11.7-26 26-26s26 11.7 26 26-11.7 26-26 26-26-11.7-26-26z"/><ellipse cx="160" cy="72" fill="none" rx="8" ry="4"/><path d="M128 28.7v36.8c-2.3-1-5.1-1.6-8-1.6-4.2 0-8 1.2-10.8 3.1 1.5 2.3 2.7 4.7 3.8 7.2 1.3-1.2 3.8-2.3 7.1-2.3 4.9 0 8 2.4 8 4s-3.1 4-8 4c-2.3 0-4.2-.5-5.5-1.2.8 2.8 1.3 5.8 1.5 8.8 1.3.2 2.7.4 4.1.4 9 0 16-5.3 16-12V35.3l32-6.4v32.7c-2.3-1-5.1-1.6-8-1.6-9 0-16 5.3-16 12s7 12 16 12 16-5.3 16-12V19.1L128 28.7zM160 76c-4.9 0-8-2.4-8-4s3.1-4 8-4 8 2.4 8 4-3.1 4-8 4z"/></svg>