<svg xmlns="http://www.w3.org/2000/svg" viewBox="0 0 192 192"><path d="M144 112c-17.6 0-32 14.4-32 32s14.4 32 32 32 32-14.4 32-32-14.4-32-32-32zm0 56c-13.2 0-24-10.8-24-24s10.8-24 24-24 24 10.8 24 24-10.8 24-24 24z"/><path fill="none" d="M96 52c0-15.4-12.6-28-28-28S40 36.5 40 52c0 15.4 12.6 28 28 28s28-12.5 28-28z"/><path d="M117 114.5c-5.2-14.5-16.6-26-31-31.3C96.7 77 104 65.3 104 52c0-19.8-16.1-36-36-36S32 32.2 32 52c0 13.3 7.3 24.9 18.1 31.2C30.2 90.5 16 109.6 16 132h8c0-24.3 19.7-44 44-44 20.7 0 38.1 14.4 42.8 33.7 1.8-2.6 3.8-5 6.2-7.2zM40 52c0-15.4 12.6-28 28-28s28 12.5 28 28c0 15.4-12.6 28-28 28S40 67.5 40 52zM160 140h-12v-12h-8v12h-12v8h12v12h8v-12h12z"/></svg>