<svg xmlns="http://www.w3.org/2000/svg" viewBox="0 0 192 192"><path d="M91.9 118.9c9.7-6 16.1-16.7 16.1-28.9 0-18.7-15.3-34-34-34S40 71.3 40 90c0 12.2 6.5 22.9 16.1 28.9C32.9 126.7 16 149.4 16 176h8c0-28.7 22.4-52 50-52s50 23.3 50 52h8c0-26.6-16.9-49.3-40.1-57.1zM48 90c0-14.3 11.7-26 26-26s26 11.7 26 26-11.7 26-26 26-26-11.7-26-26zM136.2 16c-7.4 0-13.8 2.2-18.5 6.4-4.5 4-6.5 8.2-7.7 15.3l9.3 1.2c1.8-9.8 7.4-14.6 16.5-14.6 8.3 0 13.9 5.1 13.9 12.6 0 5.9-2.3 9.5-9.3 14.4-9.1 6.4-11.6 10.7-11.6 19.7v6.5h8.8v-5.2c0-7.2 1.4-9.9 7.8-14.1 5.4-3.6 7.1-4.9 9.3-7.2 3.5-3.9 5.3-8.6 5.3-14.2.1-12.4-9.6-20.8-23.8-20.8z"/><circle cx="133" cy="96.3" r="7.7"/></svg>