<svg xmlns="http://www.w3.org/2000/svg" viewBox="0 0 192 192"><path d="M69 140.8l-22.3 7.4 2.6 7.6 25.7-8.6 12.7-29.6-7.4-3.2zM104.7 118.3l18.7 26.2-11.1 25.9 7.4 3.2 12.9-30.1-21.3-29.8zM128.2 90.2l.7-7.7c1-11-2-20.4-8-26.6 8.5-.4 16.1-6.2 18.4-14.8 1.4-5.2.7-10.6-2-15.2s-7-7.9-12.2-9.3c-10.7-2.8-21.6 3.5-24.5 14.2-1.4 5.2-.7 10.6 2 15.2.4.7.9 1.4 1.4 2.1-12.6-1-24.7 7.1-29.3 20.4-2.5 7.1-6.5 18-6.5 18.1l-.8 2.4 21.8 21.8 5.7-5.7L76.6 87c1.3-3.7 3.9-10.7 5.7-15.8 3.9-11.1 14.2-17.2 24.6-14.5 11.8 3.1 14.9 15.5 14 25.2l-1.1 11.9 21.7 17.3 5-6.2-18.3-14.7zm-19.9-57.3c1.4-5.4 6.3-8.9 11.6-8.9 1 0 2.1.1 3.1.4 3.1.8 5.7 2.8 7.3 5.6s2 6 1.2 9.1c-1.7 6.4-8.3 10.2-14.7 8.5-6.4-1.7-10.2-8.3-8.5-14.7z"/></svg>