<svg xmlns="http://www.w3.org/2000/svg" viewBox="0 0 192 192"><path d="M91.9 118.9c9.7-6 16.1-16.7 16.1-28.9 0-18.7-15.3-34-34-34S40 71.3 40 90c0 12.2 6.5 22.9 16.1 28.9C32.9 126.7 16 149.4 16 176h8c0-28.7 22.4-52 50-52s50 23.3 50 52h8c0-26.6-16.9-49.3-40.1-57.1zM48 90c0-14.3 11.7-26 26-26s26 11.7 26 26-11.7 26-26 26-26-11.7-26-26zM124 96h16v8h-16zM132 36c-13.2 0-24 10.8-24 24 0 8.5 4.6 16.5 12 20.8V88h8v-7.2c0-2.9-1.6-5.6-4.1-7-4.9-2.9-7.9-8.1-7.9-13.8 0-8.8 7.2-16 16-16s16 7.2 16 16c0 5.7-3 10.9-7.9 13.8-2.5 1.4-4.1 4.1-4.1 7V88h8v-7.2c7.4-4.3 12-12.2 12-20.8 0-13.2-10.8-24-24-24zM128 16h8v12h-8zM164 56h12v8h-12zM98.016 31.716l5.657-5.657 8.485 8.486L106.5 40.2zM151.798 34.503l8.485-8.485 5.657 5.656-8.485 8.486zM151.84 85.456l5.656-5.656 8.486 8.485-5.657 5.657z"/></svg>