<svg xmlns="http://www.w3.org/2000/svg" viewBox="0 0 192 192"><path d="M91.9 118.9c9.7-6 16.1-16.7 16.1-28.9 0-18.7-15.3-34-34-34S40 71.3 40 90c0 12.2 6.5 22.9 16.1 28.9C32.9 126.7 16 149.4 16 176h8c0-28.7 22.4-52 50-52s50 23.3 50 52h8c0-26.6-16.9-49.3-40.1-57.1zM48 90c0-14.3 11.7-26 26-26s26 11.7 26 26-11.7 26-26 26-26-11.7-26-26zM160 24v-8h-44v8h-16v25.3c0 9.6 6.4 16.5 16.4 18.3 1.8 8.2 8.8 14.6 17.7 16.1V96H124v8h28v-8h-9.9V83.6c8.7-1.6 15.6-7.9 17.4-16 10.1-1.8 16.4-8.7 16.4-18.3V24H160zm-52 25.3V32h8v27.3c-3.8-1.1-8-3.7-8-10zm44 14.1c0 6.9-6.3 12.6-14 12.6s-14-5.6-14-12.6V24h28v39.4zm16-14.1c0 6.3-4.2 8.9-8 10V32h8v17.3z"/></svg>