<svg xmlns="http://www.w3.org/2000/svg" viewBox="0 0 192 192"><circle fill="none" cx="76" cy="44" r="20"/><path d="M76 16c-15.4 0-28 12.6-28 28 0 11.3 6.7 21 16.3 25.4C45.7 74.1 32 89.6 32 108v52h8v-52c0-17.6 16.1-32 36-32 1.9 0 3.7.1 5.5.4.9-2.2 2.3-4.3 3.9-6l1.2-1.2c2.3-2.1 5.1-3.7 8.2-4.5 5.6-5.1 9.2-12.5 9.2-20.7 0-15.4-12.6-28-28-28zm0 48c-11 0-20-9-20-20s9-20 20-20 20 9 20 20-9 20-20 20z"/><g><path d="M159.9 90.6c-.7-6-5.8-10.6-11.9-10.6-1.4 0-2.7.3-4 .7v-.8c0-6.6-5.4-11.9-12-11.9-1.6 0-3.1.3-4.4.9-1.4-5.1-6-8.9-11.6-8.9-6.6 0-12 5.4-12 12v.7c-1.3-.4-2.6-.7-4-.7-6.6 0-12 5.4-12 12v35.4l-4.2-3.5c-2.2-2-5.1-3.1-8.1-3.1-6.8 0-12.3 5.5-12.3 12.3 0 1.8.6 3.9 1.1 5.1.4.8.9 2.1 28.7 28.6l2 2c6.6 6.8 14.7 15.2 33.3 15.2 17.4 0 31.6-14.2 31.6-31.6l-.2-53.8zm-7.9 53.8c0 13-10.6 23.6-23.6 23.6-15.2 0-21.5-6.5-27.6-12.8l-2.1-2.1c-11.7-11.2-24.8-24-27.1-26.5-.1-.4-.3-1.1-.3-1.5 0-2.4 1.9-4.3 4.3-4.3 1.1 0 2.1.4 2.8 1.1L96 136.6V84c0-2.2 1.8-4 4-4s4 1.8 4 4v32.1h8V72c0-2.2 1.8-4 4-4s4 1.8 4 4v45.1h8V80c0-2.2 1.8-4 4-4s4 1.8 4 4v36h8V92c0-2.2 1.8-4 4-4s4 1.8 4 4v52.4z"/></g></svg>