<svg xmlns="http://www.w3.org/2000/svg" viewBox="0 0 192 192"><path d="M112 176h8"/><g><path d="M36.8 144.9L18.6 152l2.8 7.4 21.8-8.3 8.6-25.8-7.6-2.6zM64.7 126.2l14.9 22.4-7.4 22.1 7.6 2.6 8.6-25.9-17.1-25.6zM86.8 98.6c2.3-5.1 2.1-10.9-.4-16.2-1.1-2.4-2.7-4.6-4.5-6.5 6.3-.7 11.9-5.2 13.6-11.8 1.1-4.1.5-8.4-1.7-12.1-2.1-3.7-5.6-6.3-9.7-7.4-8.5-2.3-17.3 2.8-19.6 11.3-1.1 4.1-.5 8.4 1.7 12.1.1.1.2.3.3.4-10.7-.9-21 5.9-24.9 17.1-2 5.6-5.2 12.8-5.2 12.8l-1.1 2.5 17.9 17.9 5.7-5.7-14.1-13.9c1.2-2.7 3-7.1 4.3-10.9 3-8.7 11.1-13.5 19.2-11.3 4.7 1.2 8.8 4.7 10.9 9 1.1 2.3 2 5.8.4 9.5l-4.4 10 18.6 13.9 4.8-6.4L85 102.7l1.8-4.1zM72.3 57.9c1-3.6 4.2-5.9 7.7-5.9.7 0 1.4.1 2.1.3 2.1.6 3.8 1.9 4.9 3.7 1.1 1.8 1.4 4 .8 6.1-1.1 4.3-5.5 6.8-9.8 5.7-2.1-.6-3.8-1.9-4.9-3.7s-1.4-4.1-.8-6.2zM176 28.1V16h-12.1c0 6.7 5.4 12.1 12.1 12.1zM152 16h-8c0 17.6 14.4 32 32 32v-8c-13.2 0-24-10.8-24-24z"/><path d="M132 16h-8c0 28.7 23.3 52 52 52v-8c-24.3 0-44-19.7-44-44z"/><path d="M112 16h-8c0 39.7 32.3 72 72 72v-8c-35.3 0-64-28.7-64-64z"/></g></svg>