<svg xmlns="http://www.w3.org/2000/svg" viewBox="0 0 192 192"><path d="M136 77.4c-.4 7.8-5.8 18.5-16.3 32-10.9 14.2-20.1 21.2-27.6 21.2-4.7 0-8.6-4.3-11.8-12.9-2.2-7.9-4.3-15.8-6.5-23.7-2.4-8.6-5-12.9-7.7-12.9-.6 0-2.7 1.3-6.3 3.8L56 80c3.9-3.5 7.8-7 11.7-10.4 5.3-4.6 9.2-7 11.9-7.2 6.2-.6 10 3.6 11.4 12.7 1.6 9.8 2.6 16 3.2 18.4 1.8 8.2 3.8 12.3 5.9 12.3 1.7 0 4.2-2.7 7.5-7.9 3.4-5.3 5.1-9.3 5.4-12.1.5-4.6-1.3-6.9-5.4-6.9-1.9 0-3.9.4-5.9 1.3 3.9-12.9 11.4-19.2 22.5-18.8 8.4.2 12.2 5.5 11.8 16z"/><path d="M96 176c-44.1 0-80-35.9-80-80s35.9-80 80-80 80 35.9 80 80-35.9 80-80 80zm0-152c-39.7 0-72 32.3-72 72s32.3 72 72 72 72-32.3 72-72-32.3-72-72-72z"/></svg>