<svg xmlns="http://www.w3.org/2000/svg" viewBox="0 0 192 192"><path d="M112.2 104.3c7.4-3.5 13.6-9.4 17.5-16.8 5.9-1.6 10.3-7.1 10.3-13.5V48h-13c-6.4-9-16.1-14.6-27-15.8V28h-8v4.2C81.2 33.4 71.4 39 65 48H52v26c0 6.4 4.4 11.8 10.3 13.5 3.9 7.5 10.1 13.3 17.5 16.8C55.7 111.4 38 133.7 38 160h8c0-27.6 22.4-50 50-50s50 22.4 50 50h8c0-26.3-17.7-48.6-41.8-55.7zm4.2-56.3H100v-7.7c6.2.8 11.9 3.5 16.4 7.7zM92 40.3V48H75.6c4.5-4.2 10.2-6.9 16.4-7.7zM60 56h72v18c0 3.3-2.7 6-6 6H66c-3.3 0-6-2.7-6-6V56zm12 32h48c-5.6 7.4-14.5 12-24 12s-18.4-4.6-24-12z"/></svg>