<svg xmlns="http://www.w3.org/2000/svg" viewBox="0 0 192 192"><path d="M84 125.7L57.2 98.8l5.6-5.6L84 114.3l45.2-45.1 5.6 5.6z"/><path d="M96 173l-13.3-9.9-16.1 4-8.6-14.2-16.4-2.5-2.5-16.4-14.2-8.6 4-16.1L19 96l9.9-13.3-4-16.1L39.1 58l2.5-16.4L58 39.1l8.6-14.2 16.1 4L96 19l13.3 9.9 16.1-4 8.6 14.2 16.4 2.5 2.5 16.4 14.2 8.6-4 16.1L173 96l-9.9 13.3 4 16.1-14.2 8.6-2.5 16.4-16.4 2.5-8.6 14.2-16.1-4L96 173zm-11.6-18.6L96 163l11.6-8.6 14 3.5 7.5-12.4 14.3-2.1 2.1-14.3 12.4-7.5-3.5-14L163 96l-8.6-11.6 3.5-14-12.4-7.5-2.1-14.3-14.3-2.1-7.5-12.4-14 3.5L96 29l-11.6 8.6-14-3.5-7.5 12.4-14.3 2.1-2.1 14.3-12.4 7.5 3.5 14L29 96l8.6 11.6-3.5 14 12.4 7.5 2.1 14.3 14.3 2.1 7.5 12.4 14-3.5z"/></svg>