<svg xmlns="http://www.w3.org/2000/svg" viewBox="0 0 192 192"><path d="M76.2 98.8c-.1-.9-.2-1.8-.2-2.8 0-11 9-20 20-20 1 0 1.9.1 2.8.2l6.6-6.6c-2.9-1.1-6.1-1.6-9.4-1.6-15.4 0-28 12.6-28 28 0 3.3.6 6.5 1.6 9.4l6.6-6.6zM115.8 93.2c.1.9.2 1.9.2 2.8 0 11-9 20-20 20-1 0-1.9-.1-2.8-.2l-6.6 6.6c2.9 1.1 6.1 1.6 9.4 1.6 15.4 0 28-12.6 28-28 0-3.3-.6-6.5-1.6-9.4l-6.6 6.6zM33.102 153.189L153.097 33.194l5.656 5.657L38.76 158.846z"/><path d="M171.5 94.1c-.4-.7-9.2-16.7-26.9-29.7l-5.7 5.7c13.4 9.6 21.6 21.3 24.5 25.9-5.2 8.2-27.9 40-67.3 40-6.9 0-13.6-1-20.1-2.9l-6.1 6.1-.1.4c8.4 3 17.3 4.5 26.3 4.5 49.8 0 74.5-44.2 75.5-46.1l1-1.9-1.1-2zM47.4 127.6l5.7-5.7c-13.4-9.5-21.6-21.3-24.5-25.9 5.2-8.2 27.9-40 67.3-40 6.9 0 13.6 1 20.1 2.9l6.1-6.1.1-.4C113.9 49.5 105 48 96 48c-49.8 0-74.5 44.2-75.5 46.1l-1 1.9 1 1.9c.4.7 9.2 16.7 26.9 29.7z"/></svg>