<svg xmlns="http://www.w3.org/2000/svg" viewBox="0 0 192 192"><path d="M125.5 137.1l-5-6.2 2.5 3.1-2.5-3.1c.1-.1 13.5-11.1 13.5-26.9 0-10.9-4.1-17.7-8.4-24.9-4.7-7.8-9.6-16-9.6-29.1 0-19.4 12.6-32.3 13.2-32.8l5.7 5.7C134.7 22.9 124 34 124 50c0 10.9 4.1 17.7 8.4 24.9 4.7 7.8 9.6 16 9.6 29.1 0 19.7-15.8 32.6-16.5 33.1zM92.5 137.1l-5-6.2L90 134l-2.5-3.1c.1-.1 13.5-11.1 13.5-26.9 0-10.9-4.1-17.7-8.4-24.9-4.7-7.9-9.6-16-9.6-29.1 0-19.4 12.6-32.3 13.2-32.8l5.7 5.7C101.7 22.9 91 34 91 50c0 10.9 4.1 17.7 8.4 24.9 4.7 7.8 9.6 16 9.6 29.1 0 19.7-15.8 32.6-16.5 33.1zM59.5 137.1l-5-6.2L57 134l-2.5-3.1c.1-.1 13.5-11.1 13.5-26.9 0-10.9-4.1-17.7-8.4-24.9-4.7-7.9-9.6-16-9.6-29.1 0-19.4 12.6-32.3 13.2-32.8l5.7 5.7C68.7 22.9 58 34 58 50c0 10.9 4.1 17.7 8.4 24.9 4.7 7.8 9.6 16 9.6 29.1 0 19.7-15.8 32.6-16.5 33.1zM176 176c-6.8 0-17.1-6.7-23.9-13.8-11.2 12.4-23.2 13.8-28.1 13.8-4.9 0-16.9-1.4-28-13.7C84.9 174.6 72.9 176 68 176c-4.9 0-16.9-1.4-28.1-13.8C33.1 169.3 22.8 176 16 176v-8c3.9 0 14.8-6.5 20.8-14.4.8-1 1.9-1.6 3.2-1.6s2.4.6 3.2 1.6C53.2 167 64.7 168 68 168s14.8-1 24.8-14.4c.8-1 1.9-1.6 3.2-1.6s2.4.6 3.2 1.6c10 13.4 21.5 14.4 24.8 14.4s14.8-1 24.8-14.4c.8-1 1.9-1.6 3.2-1.6s2.4.6 3.2 1.6c6 7.9 16.9 14.4 20.8 14.4v8z"/></svg>