<svg xmlns="http://www.w3.org/2000/svg" viewBox="0 0 192 192"><path d="M148 160H80c-15.4 0-28-12.6-28-28v-4h124v4c0 15.4-12.6 28-28 28zm-87.6-24c1.9 9.1 9.9 16 19.6 16h68c9.7 0 17.7-6.9 19.6-16H60.4zM156.1 76H96v23.8c0 11.1 9 20.2 20.2 20.2h15.7c9.7 0 17.8-6.9 19.7-16h4.5c6.6 0 11.9-5.3 11.9-11.9v-4.2c0-6.6-5.3-11.9-11.9-11.9zM144 99.8c0 6.7-5.5 12.2-12.2 12.2h-15.7c-6.7 0-12.2-5.5-12.2-12.2V84h40v15.8zm16-7.7c0 2.1-1.7 3.9-3.9 3.9H152V84h4.1c2.1 0 3.9 1.7 3.9 3.9v4.2z"/><path d="M50.1 152H31.9c-.1 0-.2-.1-.2-.2L24.3 56h51.4l-4.9 64h8l5.5-72H15.7l8 104.5c.3 4.2 3.9 7.5 8.2 7.5h25.5c-2.8-2.3-5.3-5-7.3-8z"/></svg>