<svg xmlns="http://www.w3.org/2000/svg" viewBox="0 0 192 192"><path d="M124 128c-11.5 0-21.3-3.5-28-10-6.7 6.5-16.5 10-28 10s-21.3-3.5-28-9.9c-6.4 6.5-13.9 9-19.4 9.9l-1.3-7.9c5-.8 12.1-3.3 17.5-10.5.8-1 1.9-1.6 3.2-1.6s2.4.6 3.2 1.6C48.3 116.4 56.9 120 68 120s19.7-3.6 24.8-10.4c.8-1 1.9-1.6 3.2-1.6s2.4.6 3.2 1.6c5.1 6.8 13.7 10.4 24.8 10.4s19.7-3.6 24.8-10.4c.8-1 1.9-1.6 3.2-1.6s2.4.6 3.2 1.6c4.9 6.6 11.5 8.9 17.8 10.5l-1.9 7.8c-6.2-1.6-13.2-4-19.1-9.8-6.7 6.4-16.5 9.9-28 9.9zM124 160c-11.5 0-21.3-3.5-28-10-6.7 6.5-16.5 10-28 10s-21.3-3.5-28-9.9c-6.4 6.5-13.9 9-19.4 9.9l-1.3-7.9c5-.8 12.1-3.3 17.5-10.5.8-1 1.9-1.6 3.2-1.6s2.4.6 3.2 1.6C48.3 148.4 56.9 152 68 152s19.7-3.6 24.8-10.4c.8-1 1.9-1.6 3.2-1.6s2.4.6 3.2 1.6c5.1 6.8 13.7 10.4 24.8 10.4s19.7-3.6 24.8-10.4c.8-1 1.9-1.6 3.2-1.6s2.4.6 3.2 1.6c4.9 6.6 11.5 8.9 17.8 10.5l-1.9 7.8c-6.2-1.6-13.2-4-19.1-9.8-6.7 6.4-16.5 9.9-28 9.9z"/><path d="M76 92h40v15.5c2.8.7 5.6.9 8 .9V48c0-4.4 3.6-8 8-8s8 3.6 8 8h8c0-8.8-7.2-16-16-16s-16 7.2-16 16v12H76V48c0-4.4 3.6-8 8-8s8 3.6 8 8h8c0-8.8-7.2-16-16-16s-16 7.2-16 16v60.4c2.4 0 5.2-.2 8-.9V92zm0-24h40v16H76V68z"/></svg>