<svg xmlns="http://www.w3.org/2000/svg" viewBox="0 0 192 192"><path d="M124 160c-11.5 0-21.3-3.5-28-10-6.7 6.5-16.5 10-28 10s-21.3-3.5-28-9.9c-6.4 6.5-13.9 9-19.4 9.9l-1.3-7.9c5-.8 12.1-3.3 17.5-10.5.8-1 1.9-1.6 3.2-1.6s2.4.6 3.2 1.6C48.3 148.4 56.9 152 68 152s19.7-3.6 24.8-10.4c.8-1 1.9-1.6 3.2-1.6s2.4.6 3.2 1.6c5.1 6.8 13.7 10.4 24.8 10.4s19.7-3.6 24.8-10.4c.8-1 1.9-1.6 3.2-1.6s2.4.6 3.2 1.6c4.9 6.6 11.5 8.9 17.8 10.5l-1.9 7.8c-6.2-1.6-13.2-4-19.1-9.8-6.7 6.4-16.5 9.9-28 9.9zM79.1 133.2c-.5 0-.9-.1-1.4-.2-2.1-.8-3.1-3.1-2.4-5.1l16.4-45.1c.8-2.1 3-3.1 5.1-2.4 2.1.8 3.1 3.1 2.4 5.1l-16.4 45.1c-.5 1.5-2 2.6-3.7 2.6zM65.5 123.9c-.5 0-.9-.1-1.4-.2-2.1-.8-3.1-3.1-2.4-5.1l15-41.3c.8-2.1 3.1-3.1 5.1-2.4 2.1.8 3.1 3.1 2.4 5.1l-15 41.3c-.6 1.6-2.1 2.6-3.7 2.6z"/><path d="M96.9 131.1c-.5 0-.9-.1-1.4-.2-2.1-.8-3.1-3.1-2.4-5.1l23-63.2 8.5 24.6c.5.8 1.2 1.3 2 1.7 1 .4 2.1.3 3.1-.1 1-.5 1.7-1.3 2.1-2.3.2-.5.2-1.4.2-1.7-.1-1.4-3-18.5-4.7-29-2.2-8.9-5.2-17.2-17.8-21.8-6.2-2.3-12.8-2.1-18.5.5-5.6 2.5-9.8 7.1-11.9 12.9L59.6 101c-.8 2.1-3.1 3.1-5.1 2.4-2.1-.8-3.1-3.1-2.4-5.1l19.5-53.6c2.8-7.8 8.6-14 16.1-17.4 7.6-3.5 16.4-3.8 24.5-.8 17.7 6.5 21.1 20.2 22.9 27.5l.1.3c1.1 6.6 4.7 28.3 4.8 29.9.1 1.3-.1 3.4-.7 5.1-1.1 3-3.3 5.4-6.2 6.8-2.9 1.4-6.2 1.5-9.2.4-2.8-1-5.1-3-6.5-5.6l-.2-.3-1.3-3.9-15.3 42c-.5 1.4-2.1 2.4-3.7 2.4z"/><g><path d="M53.7 117.5c-4.3-1.7-7.9-4.4-10.5-7.9-.8-1-1.9-1.6-3.2-1.6s-2.4.6-3.2 1.6c-5.3 7.1-12.4 9.6-17.5 10.5l1.3 7.9c5.5-.9 13-3.4 19.4-9.9 4.1 3.9 9.3 6.7 15.4 8.4-1.7-2.7-2.3-5.8-1.7-9zM155.2 109.6c-.8-1-1.9-1.6-3.2-1.6s-2.4.6-3.2 1.6c-5.1 6.8-13.7 10.4-24.8 10.4-4.1 0-7.8-.5-11.2-1.4l-2.7 7.5c4.2 1.3 8.9 1.9 13.9 1.9 11.5 0 21.3-3.5 28-9.9 5.9 5.9 12.8 8.3 19.1 9.8l1.9-7.8c-6.3-1.6-12.9-3.9-17.8-10.5z"/></g></svg>