<svg xmlns="http://www.w3.org/2000/svg" viewBox="0 0 192 192"><path d="M144 72c0-22.4-17.9-38.4-44-39.9V16h-8v16.1C65.9 33.6 48 49.6 48 72v4h96v-4zm-87.8-4C58.3 51.1 73.8 40 96 40s37.7 11.1 39.8 28H56.2zM92 164h8v12h-8zM92 92h8v28h-8zM92 132h8v20h-8zM112.433 91.31l7.878-1.389 4.861 27.574-7.878 1.39zM57.037 172.67l2.084-11.817 7.879 1.39-2.085 11.817zM66.803 117.44l4.864-27.574 7.878 1.39-4.864 27.574zM61.185 148.998l3.472-19.696 7.878 1.389-3.472 19.696zM23.011 163.957l4.103-11.276 7.518 2.735-4.103 11.276zM42.176 111.435l9.576-26.311 7.518 2.736-9.576 26.311zM31.21 141.479l6.84-18.794 7.517 2.736-6.84 18.794zM132.7 87.8l9 24.7c2-.4 4.1-.6 6.3-.6h.1l1.7-.6-9.6-26.3-7.5 2.8zM148 120c-15.4 0-28 12.6-28 28s12.6 28 28 28 28-12.6 28-28-12.6-28-28-28zm0 48c-11 0-20-9-20-20s9-20 20-20 20 9 20 20-9 20-20 20z"/><path d="M152 136h-8v16h16.5v-8H152z"/></svg>