<svg xmlns="http://www.w3.org/2000/svg" viewBox="0 0 192 192"><path d="M156 72.1h-17.1l8.6-15-7-4-10.8 19h-26.8l13.4-23.2 21.9.1v-8l-17.3-.1 8.6-14.8-7-4-8.5 14.8-8.7-14.9-6.9 4 11 18.9L96 68.1 82.6 44.9l11-18.9-6.9-4L78 36.9l-8.5-14.8-7 4 8.6 14.8-17.3.1v8l21.9-.1 13.4 23.2H62.3l-10.8-19-7 4 8.6 15H36v8h17.1l-8.6 15 7 4 10.8-19h26.8l-13.4 23.1-21.9-.1v8l17.3.1-8.6 14.8 7 4 8.5-14.8 8.7 15 6.9-4.1-11-18.9L96 84.1l13.4 23.1-11 18.9 6.9 4.1 8.7-15 8.5 14.8 7-4-8.6-14.8 17.3-.1v-8l-21.9.1-13.4-23.1h26.8l10.8 19 7-4-8.6-15H156zM176 176c-6.8 0-17.1-6.7-23.9-13.8-11.2 12.4-23.2 13.8-28.1 13.8-4.9 0-16.9-1.4-28-13.7C84.9 174.6 72.9 176 68 176c-4.9 0-16.9-1.4-28.1-13.8C33.1 169.3 22.8 176 16 176v-8c3.9 0 14.8-6.5 20.8-14.4.8-1 1.9-1.6 3.2-1.6s2.4.6 3.2 1.6C53.2 167 64.7 168 68 168s14.8-1 24.8-14.4c.8-1 1.9-1.6 3.2-1.6s2.4.6 3.2 1.6c10 13.4 21.5 14.4 24.8 14.4s14.8-1 24.8-14.4c.8-1 1.9-1.6 3.2-1.6s2.4.6 3.2 1.6c6 7.9 16.9 14.4 20.8 14.4v8z"/></svg>