<svg xmlns="http://www.w3.org/2000/svg" viewBox="0 0 192 192"><path d="M144 72c0-22.4-17.9-38.4-44-39.9V16h-8v16.1C65.9 33.6 48 49.6 48 72v4h96v-4zm-87.8-4C58.3 51.1 73.8 40 96 40s37.7 11.1 39.8 28H56.2zM92 164h8v12h-8zM92 92h8v28h-8zM92 132h8v20h-8zM112.433 91.31l7.878-1.389 4.861 27.574-7.878 1.39zM57.037 172.67l2.084-11.817 7.879 1.39-2.085 11.817zM66.803 117.44l4.864-27.574 7.878 1.39-4.864 27.574zM61.185 148.998l3.472-19.696 7.878 1.389-3.472 19.696zM23.011 163.957l4.103-11.276 7.518 2.735-4.103 11.276zM42.176 111.435l9.576-26.311 7.518 2.736-9.576 26.311zM31.21 141.479l6.84-18.794 7.517 2.736-6.84 18.794zM132.748 87.798l7.517-2.736 9.576 26.312-7.517 2.736zM154 167.1c2.8-.9 5.4-2.4 7.5-4.4l7.2 4.2c2.7-3 4.8-6.5 6-10.4l-7.2-4.1c.3-1.4.5-2.8.5-4.3s-.2-2.9-.5-4.3l7.2-4.1c-1.2-3.9-3.3-7.4-6-10.4l-7.2 4.2c-2.1-2-4.7-3.5-7.5-4.4v-8.3c-1.9-.4-3.9-.7-6-.7s-4.1.2-6 .7v8.3c-2.8.9-5.4 2.4-7.5 4.4l-7.2-4.2c-2.7 3-4.8 6.5-6 10.4l7.2 4.1c-.3 1.4-.5 2.8-.5 4.3s.2 2.9.5 4.3l-7.2 4.1c1.2 3.9 3.3 7.4 6 10.4l7.2-4.2c2.1 2 4.7 3.5 7.5 4.4v8.3c1.9.4 3.9.7 6 .7s4.1-.2 6-.7v-8.3zM136 148c0-6.6 5.4-12 12-12s12 5.4 12 12-5.4 12-12 12-12-5.4-12-12z"/></svg>