<svg xmlns="http://www.w3.org/2000/svg" viewBox="0 0 192 192"><path d="M42.176 111.431l9.576-26.311 7.517 2.736-9.576 26.311zM57.037 172.67l2.084-11.817 7.879 1.39-2.085 11.817zM65 149.7l4.1.7 1-5.9zM92 164h8v12h-8zM144 76v-4-1.3l-5.3 5.3h5.3zM70 99.4l8.3-8.3-6.7-1.2zM101.4 68H56.2C58.3 51.1 73.8 40 96 40c10.6 0 19.6 2.5 26.4 7l5.7-5.7c-7.4-5.3-17-8.5-28.1-9.1V16h-8v16.1C65.9 33.6 48 49.6 48 72v4h45.4l8-8zM44.4 125l-6.3-2.3-4.9 13.5zM132.746 87.804l7.518-2.736 9.576 26.311-7.518 2.736zM146.404 125.37l7.517-2.737 6.84 18.794-7.517 2.736zM125.02 162.173l7.879-1.39 2.084 11.818-7.878 1.39zM157.274 155.45l7.518-2.735 4.104 11.276-7.518 2.736zM119.417 130.646l7.879-1.39 3.474 19.697-7.879 1.39zM92 132h8v20h-8zM94.6 120h5.4v-5.4zM121 93.6l-6.9 6.9 3.2 18.4 7.9-1.4z"/><g><path d="M18.36 162.326L162.324 18.36l11.313 11.314L29.673 173.64z"/></g></svg>