<svg xmlns="http://www.w3.org/2000/svg" viewBox="0 0 192 192"><path d="M144 72c0-22.4-17.9-38.4-44-39.9V16h-8v16.1C65.9 33.6 48 49.6 48 72v4h96v-4zm-87.8-4C58.3 51.1 73.8 40 96 40s37.7 11.1 39.8 28H56.2zM92 164h8v12h-8v-12zm0-72h8v28h-8V92zm0 40h8v20h-8v-20zm33.2-14.5l-7.9 1.4-4.9-27.6 7.9-1.4 4.9 27.6zm24.6-6.1l-7.5 2.7-9.6-26.3 7.5-2.7 9.6 26.3zm-90.7 49.4l7.9 1.4-2.1 11.8-7.9-1.4 2.1-11.8zm12.5-70.9l7.9 1.4-4.9 27.6-7.9-1.4 4.9-27.6zm-6.9 39.4l7.9 1.4-3.5 19.7-7.9-1.4 3.5-19.7zm-37.6 23.4l7.5 2.7-4.1 11.3L23 164l4.1-11.3zm32.2-64.9l-9.6 26.3-7.5-2.7 9.6-26.3 7.5 2.7zm-21.2 34.9l7.5 2.7-6.8 18.8-7.5-2.7 6.8-18.8zM176 160h-16v16h-16v-16h-16v-16h16v-16h16v16h16v16z"/></svg>