<svg xmlns="http://www.w3.org/2000/svg" viewBox="0 0 192 192"><path d="M124 104c-11.5 0-21.3-3.5-28-10-6.7 6.5-16.5 10-28 10s-21.3-3.5-28-9.9c-6.4 6.5-13.9 9-19.4 9.9l-1.3-7.9c5-.8 12.1-3.3 17.5-10.5.8-1 1.9-1.6 3.2-1.6s2.4.6 3.2 1.6C48.3 92.4 56.9 96 68 96s19.7-3.6 24.8-10.4c.8-1 1.9-1.6 3.2-1.6s2.4.6 3.2 1.6C104.3 92.4 112.9 96 124 96s19.7-3.6 24.8-10.4c.8-1 1.9-1.6 3.2-1.6s2.4.6 3.2 1.6c4.9 6.6 11.5 8.9 17.8 10.5l-1.9 7.8c-6.2-1.6-13.2-4-19.1-9.8-6.7 6.4-16.5 9.9-28 9.9zM124 68c-11.5 0-21.3-3.5-28-10-6.7 6.5-16.5 10-28 10s-21.3-3.5-28-9.9c-6.4 6.5-13.9 9-19.4 9.9l-1.3-7.9c5-.8 12.1-3.3 17.5-10.5.8-1 1.9-1.6 3.2-1.6s2.4.6 3.2 1.6C48.3 56.4 56.9 60 68 60s19.7-3.6 24.8-10.4c.8-1 1.9-1.6 3.2-1.6s2.4.6 3.2 1.6C104.3 56.4 112.9 60 124 60s19.7-3.6 24.8-10.4c.8-1 1.9-1.6 3.2-1.6s2.4.6 3.2 1.6c4.9 6.6 11.5 8.9 17.8 10.5l-1.9 7.8c-6.2-1.6-13.2-4-19.1-9.8-6.7 6.4-16.5 9.9-28 9.9zM124 140c-11.5 0-21.3-3.5-28-10-6.7 6.5-16.5 10-28 10s-21.3-3.5-28-9.9c-6.4 6.5-13.9 9-19.4 9.9l-1.3-7.9c5-.8 12.1-3.3 17.5-10.5.8-1 1.9-1.6 3.2-1.6s2.4.6 3.2 1.6C48.3 128.4 56.9 132 68 132s19.7-3.6 24.8-10.4c.8-1 1.9-1.6 3.2-1.6s2.4.6 3.2 1.6c5.1 6.8 13.7 10.4 24.8 10.4s19.7-3.6 24.8-10.4c.8-1 1.9-1.6 3.2-1.6s2.4.6 3.2 1.6c4.9 6.6 11.5 8.9 17.8 10.5l-1.9 7.8c-6.2-1.6-13.2-4-19.1-9.8-6.7 6.4-16.5 9.9-28 9.9z"/></svg>