<svg xmlns="http://www.w3.org/2000/svg" viewBox="0 0 192 192"><path d="M144.9 34.3l-.5-2.7-2.7-.5c-.5-.1-12.7-2.3-28.4-1.2-21.1 1.5-38.4 8.6-50.2 20.3-21.8 21.8-7.7 50.2-2.3 59.3l-15.7 15.7 5.7 5.7 15.7-15.7c5.4 3.2 17.6 9.5 31.2 9.5 9.3 0 19.2-2.9 28.1-11.8 11.7-11.7 18.7-29.1 20.3-50.2 1.2-15.7-1.1-27.9-1.2-28.4zm-6.8 28c-1.8 24.1-10.8 37.7-17.9 44.9-8.8 8.8-20.1 11.5-33.4 8-5.9-1.6-11-4-14.4-5.9l44.4-44.4-5.7-5.7-44.4 44.4c-1.9-3.3-4.4-8.4-5.9-14.4-3.5-13.4-.8-24.6 8-33.4 13-13 31.6-17 44.9-17.9 10.5-.8 19.4.1 23.8.6.6 4.3 1.4 13.3.6 23.8zM176 176c-6.8 0-17.1-6.7-23.9-13.8-11.2 12.4-23.2 13.8-28.1 13.8-4.9 0-16.9-1.4-28-13.7C84.9 174.6 72.9 176 68 176c-4.9 0-16.9-1.4-28.1-13.8C33.1 169.3 22.8 176 16 176v-8c3.9 0 14.8-6.5 20.8-14.4.8-1 1.9-1.6 3.2-1.6s2.4.6 3.2 1.6C53.2 167 64.7 168 68 168s14.8-1 24.8-14.4c.8-1 1.9-1.6 3.2-1.6s2.4.6 3.2 1.6c10 13.4 21.5 14.4 24.8 14.4s14.8-1 24.8-14.4c.8-1 1.9-1.6 3.2-1.6s2.4.6 3.2 1.6c6 7.9 16.9 14.4 20.8 14.4v8z"/></svg>