<svg xmlns="http://www.w3.org/2000/svg" viewBox="0 0 192 192"><path d="M144 72c0-22.4-17.9-38.4-44-39.9V16h-8v16.1C65.9 33.6 48 49.6 48 72v4h96v-4zm-87.8-4C58.3 51.1 73.8 40 96 40s37.7 11.1 39.8 28H56.2zM92 164h8v12h-8zM92 92h8v28h-8zM92 132h8v20h-8zM125.02 162.173l7.879-1.39 2.084 11.818-7.878 1.39zM112.432 91.315l7.879-1.39 4.863 27.574-7.878 1.39zM119.417 130.646l7.879-1.39 3.474 19.697-7.879 1.39zM157.272 155.456l7.517-2.736 4.104 11.276-7.517 2.736zM132.746 87.804l7.518-2.736 9.576 26.311-7.518 2.736zM146.404 125.37l7.517-2.737 6.84 18.794-7.517 2.736zM57.037 172.67l2.084-11.817 7.879 1.39-2.085 11.817zM66.803 117.44l4.863-27.574 7.879 1.39-4.864 27.574zM61.185 148.993l3.474-19.696 7.879 1.39-3.474 19.696zM23.017 163.954l4.104-11.276 7.518 2.736-4.104 11.276zM42.176 111.433l9.576-26.311 7.518 2.736-9.576 26.311zM31.21 141.479l6.84-18.794 7.517 2.736-6.84 18.794z"/></svg>