<svg xmlns="http://www.w3.org/2000/svg" viewBox="0 0 192 192"><path d="M165 88.9l-.7-1c-3-4.6-4.9-7.8-4.9-7.8l-3.4-5.9-3.4 5.9s-1.9 3.2-4.9 7.8l-.7 1c-3.1 4.7-7 10.6-7 17.1 0 8.8 7.2 16 16 16s16-7.2 16-16c0-6.5-3.9-12.4-7-17.1zm-9 25.1c-4.4 0-8-3.6-8-8 0-4.1 3-8.7 5.7-12.8l.7-1.1c.6-.9 1.1-1.8 1.6-2.6.5.8 1.1 1.7 1.7 2.6l.7 1.1c2.6 4 5.7 8.6 5.7 12.7-.1 4.5-3.7 8.1-8.1 8.1zM44.4 87.8c-3-4.6-4.9-7.8-4.9-7.8L36 74.1 32.6 80s-1.9 3.2-4.9 7.8l-.7 1c-3.1 4.7-7 10.6-7 17.1 0 8.8 7.2 16 16 16s16-7.2 16-16c0-6.5-3.9-12.4-7-17.1l-.6-1zM68 28h8v-4h40v4h8V16H68zM68 36h8v8h-8zM68 68h8v8h-8zM68 84h8v8h-8zM68 100h8v8h-8zM68 116h8v8h-8zM68 132h8v8h-8zM68 148h8v8h-8zM116 36h8v8h-8zM116 68h8v8h-8zM116 84h8v8h-8zM116 100h8v8h-8zM116 116h8v8h-8zM116 132h8v8h-8zM116 148h8v8h-8zM68 52h8v8h-8zM116 52h8v8h-8zM116 168H76v-4h-8v12h56v-12h-8z"/></svg>