<svg xmlns="http://www.w3.org/2000/svg" viewBox="0 0 192 192"><path d="M161.4 166.8l-4.1-11.3 7.5-2.7L169 164l-7.6 2.8zm-11.6-55.4l-9.6-26.3-7.5 2.7 9.6 26.3 7.5-2.7zm10.9 30.1l-6.8-18.8-7.5 2.7 6.8 18.8 7.5-2.7zm14.1-118.7l-5.7-5.7-152 152 5.7 5.7 152-152zM133 76h11v-4c0-2.2-.2-4.4-.5-6.5L133 76zm-76.8-8C58.3 51.1 73.8 40 96 40c12.1 0 22.5 3.3 29.6 9.4l5.7-5.7c-7.8-6.9-18.7-10.9-31.3-11.6V16h-8v16.1C65.9 33.6 48 49.6 48 72v4h51l8-8H56.2zM92 176h8v-12h-8v12zm0-56h8v-11l-8 8v3zm0 32h8v-20h-8v20zm33 10.2l2.1 11.8 7.9-1.4-2.1-11.8-7.9 1.4zm-7.7-43.3l7.9-1.4-5-28.7-6.9 6.9 4 23.2zm10 10.4l-7.9 1.4 3.5 19.7 7.9-1.4-3.5-19.7zm-70.2 43.3L65 174l2.1-11.8-7.9-1.4-2.1 11.8zm22.4-81.3l-7.9-1.4-2.9 16.4 9.9-9.9.9-5.1zM61.2 149l7.9 1.5 2.4-13-10 10-.3 1.5zm-1.9-61.2l-7.5-2.7-9.6 26.3 7.5 2.7 9.6-26.3zm-13.7 37.6l-7.5-2.7-5.2 14.3 3.8 1.4 6.6-6.6 2.3-6.4z"/></svg>