<svg xmlns="http://www.w3.org/2000/svg" viewBox="0 0 192 192"><path d="M67.7 74.5c.2-.8.3-1.7.3-2.5 0-6.6-5.4-12-12-12s-12 5.4-12 12 5.3 11.9 11.8 12c-1.9 2.2-3.5 4.7-4.8 7.4-8.6-2.2-15-10.1-15-19.4 0-11 9-20 20-20 10.9 0 19.8 8.7 20 19.6-2.9.6-5.7 1.6-8.3 2.9zM52 32h8v12h-8zM16 68h12v8H16zM73.105 49.187l7.99-7.99 5.657 5.657-7.99 7.99zM25.105 97.186l7.99-7.99 5.657 5.657-7.99 7.99zM25.155 46.762l5.657-5.657 7.99 7.99-5.657 5.657zM146.9 160H61.1C45 160 32 147 32 130.9c0-14.1 10.2-26.1 23.8-28.6 2.5-13.6 14.5-23.8 28.6-23.8 3 0 5.9.4 8.6 1.3 7.1-9.8 18.4-15.6 30.7-15.6 21 0 38 17 38 38 0 1.2-.1 2.3-.2 3.5 8.9 5.2 14.5 14.7 14.5 25.1 0 16.2-13 29.2-29.1 29.2zM84.3 86.6c-11 0-20.2 8.6-21 19.6l-.2 3.5-3.5.2c-11 .7-19.6 10-19.6 21 0 11.6 9.4 21.1 21.1 21.1H147c11.6 0 21.1-9.4 21.1-21.1 0-8.3-4.9-15.8-12.5-19.2l-2.8-1.3.5-3.1c.3-1.7.4-3.4.4-5.1 0-16.5-13.5-30-30-30-10.6 0-20.2 5.4-25.7 14.6l-1.8 3-3.2-1.4c-2.8-1.2-5.7-1.8-8.7-1.8z"/></svg>