<svg xmlns="http://www.w3.org/2000/svg" viewBox="0 0 192 192"><path d="M159.8 87c.1-1.4.2-2.8.2-4.2 0-23.6-18.8-42.8-42-42.8-13.7 0-26.3 6.6-34.2 17.9-3.2-1-6.5-1.6-9.8-1.6-15.6 0-28.9 11.6-31.5 27C27.4 86 16 99.5 16 115.4c0 18 14.4 32.6 32 32.6h4v-8.2h-4c-13.2 0-24-11-24-24.5 0-12.8 9.8-23.5 22.3-24.4l3.5-.2.2-3.5c.9-12.7 11.4-22.7 24-22.7 3.4 0 6.7.7 9.8 2.1l3.2 1.5 1.8-3.1C95.1 54.4 106 48.2 118 48.2c18.7 0 34 15.5 34 34.6 0 1.9-.2 3.9-.5 5.9l-.5 3.1 2.8 1.3c8.6 3.9 14.2 12.7 14.2 22.3 0 13.5-10.8 24.5-24 24.5h-4v8.2h4c17.6 0 32-14.6 32-32.6 0-11.9-6.3-22.7-16.2-28.5z"/><path d="M118.7 126.9l-2.7-2.5-2.7 2.5c-.5.5-13.3 12.4-13.3 25.1 0 8.8 7.2 16 16 16s16-7.2 16-16c0-12.7-12.7-24.6-13.3-25.1zM116 160c-4.4 0-8-3.6-8-8 0-5.8 4.5-12.4 8-16.4 3.5 4 8 10.5 8 16.4 0 4.4-3.6 8-8 8zM78.7 134.9l-2.7-2.5-2.7 2.5c-.6.5-13.3 12.4-13.3 25.1 0 8.8 7.2 16 16 16s16-7.2 16-16c0-12.7-12.7-24.6-13.3-25.1zM76 168c-4.4 0-8-3.6-8-8 0-5.8 4.5-12.4 8-16.4 3.5 4 8 10.5 8 16.4 0 4.4-3.6 8-8 8z"/></svg>