<svg xmlns="http://www.w3.org/2000/svg" viewBox="0 0 192 192"><path d="M116 168c-8.8 0-16-7.2-16-16 0-12.7 12.7-24.6 13.3-25.1l2.7-2.5 2.7 2.5c.5.5 13.3 12.4 13.3 25.1 0 8.8-7.2 16-16 16zm0-32.4c-3.5 4-8 10.5-8 16.4 0 4.4 3.6 8 8 8s8-3.6 8-8c0-5.9-4.5-12.4-8-16.4zM63.7 176.8l7.2-28.8H55.7l32.6-40.8-7.2 28.8h15.2z"/><path d="M159.8 87.1c.1-1.4.2-2.9.2-4.3 0-23.6-18.8-42.8-42-42.8-13.5 0-26.3 6.8-34.2 17.9-3.2-1-6.5-1.6-9.8-1.6-15.7 0-28.9 11.6-31.5 27C27.4 86 16 99.5 16 115.4c0 17.1 13 31.2 29.5 32.5l6.3-7.9H48c-13.2 0-24-11-24-24.6 0-12.9 9.8-23.6 22.4-24.5l3.5-.2.2-3.5c.8-12.8 11.3-22.9 23.9-22.9 3.4 0 6.7.7 9.8 2.1l3.3 1.5 1.8-3.1C95.1 54.3 106 48 118 48c18.7 0 34 15.6 34 34.8 0 1.9-.2 3.9-.5 5.9l-.5 3 2.8 1.3c8.6 4 14.2 12.8 14.2 22.4 0 13.5-10.8 24.6-24 24.6h-6.5c1.1 2.7 1.8 5.3 2.2 8h4.3c17.6 0 32-14.6 32-32.6 0-11.7-6.3-22.6-16.2-28.3z"/></svg>