<svg xmlns="http://www.w3.org/2000/svg" viewBox="0 0 192 192"><path d="M176 112h-8c0-10-6.2-24.3-14.2-27.9l-2.8-1.3.5-3.1c.3-1.9.5-3.9.5-5.8 0-18.7-15.3-34-34-34-12 0-22.9 6.2-29.2 16.5l-1.8 3-3.2-1.4c-3.1-1.3-6.4-2-9.8-2-12.6 0-23.1 9.8-23.9 22.3l-.2 3.5-3.5.2C36.2 82.8 24 96.3 24 112h-8c0-15.5 11.3-34.1 26.5-37.4C45.1 59.4 58.3 48 74 48c3.4 0 6.7.5 9.8 1.5C91.7 38.5 104.3 32 118 32c23.2 0 42 18.8 42 42 0 1.4-.1 2.8-.2 4.3 9.8 6.4 16.2 21.9 16.2 33.7zM16 120h160M16 152h116v8H16zM140 152h36v8h-36zM60 136h108v8H60zM100 120h76v8h-76zM16 120h76v8H16zM24 136h28v8H24z"/></svg>