<svg xmlns="http://www.w3.org/2000/svg" viewBox="0 0 192 192"><path d="M177.1 82.3l-7.5 8.9c-4.2 4.9-9.5 8.5-15.4 10.7-3.1-2.5-6.7-4.5-10.5-5.9 4-.2 7.9-1.3 11.4-3.2-2.9-.5-5.7-1.4-8.4-2.6-15.3-7.1-22.9-24.5-17.5-40.6 1-2.9 2.3-5.6 4-8.1-7.4 2.5-13.5 8-16.7 15.3-2 4.5-2.7 9.3-2.2 14.1-2.1-.4-4.3-.6-6.5-.6h-1.6c-.4-5.7.6-11.4 2.9-16.8 6-13.8 20.2-22.4 35.3-21.5l11.6.7-9.6 6.6c-4.5 3.1-7.8 7.5-9.6 12.7-4 12 1.8 25.5 13.2 30.8 5 2.3 10.4 2.9 15.7 1.8l11.4-2.3z"/><path d="M130.9 160H45.1C29 160 16 146.9 16 130.9c0-10.4 5.6-20 14.5-25.2-.1-1.2-.2-2.4-.2-3.5 0-21 17-38.1 38-38.1 12.1 0 23.6 5.9 30.7 15.7 2.8-.9 5.7-1.3 8.6-1.3 14.1 0 26.1 10.2 28.6 23.8 13.6 2.5 23.8 14.5 23.8 28.6 0 16-13 29.1-29.1 29.1zM68.3 72c-16.5 0-30 13.5-30 30.1 0 1.7.1 3.4.4 5.1l.5 3-2.8 1.3c-7.6 3.4-12.5 11-12.5 19.3 0 11.7 9.4 21.1 21.1 21.1h85.9c11.6 0 21.1-9.5 21.1-21.1 0-11.1-8.6-20.3-19.6-21.1l-3.5-.2-.2-3.5c-.7-11-10-19.7-21-19.7-3 0-5.9.6-8.6 1.8l-3.2 1.5-1.8-3C88.5 77.5 78.9 72 68.3 72z"/></svg>