<svg xmlns="http://www.w3.org/2000/svg" viewBox="0 0 192 192"><path d="M148.4 152H67.6C52.4 152 40 139.4 40 124c0-13.5 9.6-25 22.4-27.5 2.4-13 13.8-22.8 27.1-22.8 2.8 0 5.4.4 8 1.2 6.7-9.3 17.6-14.9 29-14.9 19.9 0 36 16.4 36 36.6 0 1.1 0 2.2-.1 3.3 8.4 5 13.6 14.2 13.6 24.1 0 15.4-12.4 28-27.6 28zM89.5 81.7c-10.3 0-18.8 8.2-19.5 18.6l-.2 3.5-3.5.2c-10.3.8-18.3 9.5-18.3 20 0 11 8.8 20 19.6 20h80.8c10.8 0 19.6-9 19.6-20 0-7.9-4.6-15-11.6-18.3l-2.8-1.3.5-3c.3-1.6.4-3.3.4-4.9 0-15.8-12.6-28.6-28-28.6-9.9 0-18.9 5.2-24 13.8l-1.8 3.1-3.3-1.5c-2.5-1-5.2-1.6-7.9-1.6z"/><path d="M97.4 52.5c-2.6 0-5 .4-7.5 1.1C83.5 45 73.5 40 62.6 40c-18.7 0-34 15.1-34 33.7 0 .9 0 1.8.1 2.8-7.8 4.6-12.7 13-12.7 22.2 0 10.6 6.4 20 16.1 23.9.1-2.7.6-5.5 1.3-8.2-5.7-3.1-9.4-9-9.4-15.7 0-7 4.2-13.4 10.7-16.3l2.8-1.3-.5-3c-.3-1.5-.4-2.9-.4-4.4 0-14.2 11.7-25.7 26-25.7 9.2 0 17.5 4.7 22.3 12.5l1.8 3 3.2-1.4c2.3-1 4.8-1.6 7.4-1.6 1 0 2 .1 3 .2 2.8-2.1 5.8-3.9 9.1-5.3-3.6-1.9-7.7-2.9-12-2.9z"/></svg>