<svg xmlns="http://www.w3.org/2000/svg" viewBox="0 0 192 192"><path d="M136 106.4c0-11.4-11.3-20.6-25.2-20.6S85.7 95 85.7 106.4 97 127 110.9 127c3.5 0 6.8-.6 9.8-1.6l8.5 4.2-1.9-7.6c5.3-3.8 8.7-9.4 8.7-15.6zm-32.6-3.1c-2.3 0-4.2-1.9-4.2-4.2s1.9-4.2 4.2-4.2c2.3 0 4.2 1.9 4.2 4.2s-1.9 4.2-4.2 4.2zm16.3 0c-2.3 0-4.2-1.9-4.2-4.2s1.9-4.2 4.2-4.2c2.3 0 4.2 1.9 4.2 4.2s-1.8 4.2-4.2 4.2z"/><path d="M85 64.4c-16 0-29 10.6-29 23.8 0 7.8 4.6 14.6 11.6 19l-2.2 8.1 10.3-4.6c2.2.6 4.6 1 7.1 1.1-.5-1.7-.7-3.5-.7-5.4C82.1 92.9 95 82 110.8 82c.7 0 1.4 0 2.2.1-3.3-10.2-14.5-17.7-28-17.7zm-9.7 20.5c-2.4 0-4.4-2-4.4-4.4s2-4.4 4.4-4.4 4.4 2 4.4 4.4c0 2.5-2 4.4-4.4 4.4zm18.9 0c-2.4 0-4.4-2-4.4-4.4s2-4.4 4.4-4.4 4.4 2 4.4 4.4c0 2.5-1.9 4.4-4.4 4.4z"/><g><path d="M96 176c-44.1 0-80-35.9-80-80s35.9-80 80-80 80 35.9 80 80-35.9 80-80 80zm0-152c-39.7 0-72 32.3-72 72s32.3 72 72 72 72-32.3 72-72-32.3-72-72-72z"/></g></svg>