<svg xmlns="http://www.w3.org/2000/svg" viewBox="0 0 192 192"><path d="M120.5 96.9c-1.4-.9-2.9-1.6-4.6-2.1-.4-.1-.6-.2-.8-.3-.1-.1-.3-.2-.5-.3-.2-.2-.3-.4-.2-.6.1-.2.1-.5.2-.9 1.3-3.4 1.3-6.1 0-7.9-1.4-1.8-3.6-2.7-6.8-2.7-3.2 0-6.8.9-11 2.6l-.3.1c-.2.1-.4.1-.6.2-.2 0-.4.1-.6 0-.2 0-.4-.1-.4-.3-.1-.2-.1-.5 0-.9 1.3-4.3 1-7.4-.9-9.3-2.2-2.2-5.9-2.3-11-.3s-10.2 5.5-15.2 10.5C64 88.5 61 92.3 59 96.2c-2.1 3.9-3.1 7.5-3.1 10.9 0 3.2 1 6.2 2.9 8.9s4.5 5 7.7 6.7c3.2 1.8 6.7 3.2 10.7 4.1 4 1 8.1 1.5 12.3 1.5 4.2 0 8.2-.5 12.1-1.4s7.2-2.2 10.1-3.7 5.4-3.3 7.5-5.2c2.1-1.9 3.8-4 4.9-6.1s1.7-4.2 1.7-6.2c0-1.9-.5-3.6-1.5-5.2-1.2-1.5-2.4-2.8-3.8-3.6zm-14.6 20.4c-4.4 3.5-9.9 5.6-16.5 6.3-4.3.4-8.4.1-12.2-.9-3.8-1-6.9-2.7-9.3-4.9-2.4-2.2-3.7-4.7-4-7.6-.4-4.3 1.6-8.3 5.9-11.8 4.4-3.5 9.9-5.6 16.5-6.3 4.3-.4 8.4-.1 12.2.9 3.8 1 6.9 2.7 9.3 4.9 2.4 2.2 3.7 4.7 4 7.6.5 4.4-1.5 8.3-5.9 11.8z"/><path d="M90.7 98.8c-3.2-.8-6.3-.5-9.4.8-3.1 1.4-5.4 3.4-6.8 6.2-1.4 2.8-1.5 5.6-.3 8.4s3.4 4.6 6.6 5.6c3.3 1.1 6.6.9 10-.5s5.7-3.7 7.1-6.7c1.3-3 1.3-5.8-.1-8.5-1.4-2.6-3.8-4.4-7.1-5.3zM86 113.3c-.7 1-1.6 1.7-2.8 2.1-1.2.4-2.3.4-3.3-.1s-1.6-1.2-1.9-2.3c-.3-1-.1-2 .6-3.1.6-1 1.5-1.7 2.7-2.1s2.2-.4 3.3 0c1 .4 1.7 1.2 2 2.2.2 1.3 0 2.3-.6 3.3zm4.2-5.4c-.2.4-.5.7-1 .8-.4.2-.9.2-1.3 0-.9-.4-1.1-1.1-.6-2 .2-.4.5-.7 1-.8.4-.2.9-.2 1.3 0 .4.1.6.4.8.8.1.4 0 .8-.2 1.2zM119.6 88.3c.3.6.8 1.1 1.5 1.3.7.2 1.3.1 2-.2.6-.3 1.1-.8 1.3-1.5.6-1.7.7-3.4.3-5.2-.4-1.8-1.2-3.4-2.4-4.8a9.49 9.49 0 0 0-4.5-2.9c-1.8-.6-3.5-.6-5.3-.2-.7.1-1.3.5-1.6 1.1-.4.6-.5 1.3-.4 2s.5 1.3 1.1 1.6c.6.4 1.3.5 2 .4 1.9-.4 3.5.1 4.8 1.6 1.3 1.4 1.7 3.1 1.1 5-.3.5-.2 1.2.1 1.8z"/><path d="M135.4 80.5c-.8-3.8-2.4-7.1-5-9.9-2.6-2.9-5.7-4.9-9.3-6-3.6-1.1-7.2-1.3-10.9-.5-.8.2-1.5.6-1.9 1.3-.5.7-.6 1.5-.4 2.3s.6 1.5 1.3 1.9c.7.5 1.5.6 2.3.4 2.6-.5 5.2-.4 7.7.4 2.6.8 4.8 2.2 6.6 4.3 1.8 2 3 4.4 3.6 7 .5 2.7.4 5.2-.4 7.7-.2.8-.2 1.6.2 2.3.4.7 1 1.2 1.8 1.5s1.6.2 2.3-.2c.7-.4 1.2-1 1.5-1.8 1.1-3.3 1.3-6.9.6-10.7z"/><g><path d="M96 176c-44.1 0-80-35.9-80-80s35.9-80 80-80 80 35.9 80 80-35.9 80-80 80zm0-152c-39.7 0-72 32.3-72 72s32.3 72 72 72 72-32.3 72-72-32.3-72-72-72z"/></g></svg>