<svg xmlns="http://www.w3.org/2000/svg" viewBox="0 0 192 192"><path d="M164 60c-5.2 0-9.6 3.3-11.3 8H124c0-6.6-5.4-12-12-12H79.8c-2.4.1-5.5 1.1-6.2 1.4L38.9 67c-1.9-4.1-6.1-7-10.9-7-6.6 0-12 5.4-12 12v36c0 6.6 5.4 12 12 12 5.2 0 9.6-3.3 11.3-8h7.4l30.5 21.9c2 1.4 4.3 2.1 6.8 2.1 1.1 0 2.2-.2 3.4-.5l28.1-7.7 1.2-.3c2.5-.8 4.6-2.3 6.1-4.4l22.1-11.1h7.8c1.7 4.7 6.1 8 11.3 8 6.6 0 12-5.4 12-12V72c0-6.6-5.4-12-12-12zM28 112c-2.2 0-4-1.8-4-4V72c0-2.2 1.8-4 4-4s4 1.8 4 4v36c0 2.2-1.8 4-4 4zm86.4 7.8l-28.9 8-.4.1c-1.1.3-2.4.1-3.3-.5L49.3 104H40V75l35.8-10 .3-.1c1-.4 3-.9 4-1H112c2.2 0 4 1.8 4 4h-4c-2 0-4.3.5-4.9.7l-9.7 2c-.8.2-2.4.6-3.3 1-.8.4-2.1 1.3-3 2l-22.5 17c-2.9 2.3-4.6 5.7-4.6 9.4 0 6.6 5.4 12 12 12 1.8 0 3.6-.4 5.3-1.2l21.8-13.5 13.6 17 .2.2-.2-.2c.1.2.3.8.3 1.7 0 1.8-1 3.2-2.6 3.8zm28.7-15.8l-18.4 9.2c-.4-2-1.2-3.2-1.4-3.5l-11-13.7h7.7v-8h-17.1l-25.3 15.7c-.5.2-1 .3-1.6.3-2.2 0-4-1.8-4-4 0-1.2.6-2.4 1.5-3.1L95.9 80c.5-.4 1.3-1 1.7-1.2.3-.1 1-.3 1.5-.4l9.7-2h.2c.6-.1 2.2-.5 3-.5h40v28l-8.9.1zm24.9 4c0 2.2-1.8 4-4 4s-4-1.8-4-4V72c0-2.2 1.8-4 4-4s4 1.8 4 4v36z"/></svg>