<svg xmlns="http://www.w3.org/2000/svg" viewBox="0 0 192 192"><path fill="none" d="M88 121.8c-5.2-5.6-10.7-9.8-14.7-12.4.3 4 .9 9.3 2.5 15.2 3.8 1 7.6 2.3 11.3 4.3.2-2.4.5-4.8.9-7.1zM138.4 124.6c1.5-5.8 2.2-11.2 2.5-15.2-4 2.7-9.6 6.9-14.8 12.5.4 2.2.7 4.6.9 6.9 3.7-1.9 7.5-3.3 11.4-4.2z"/><path d="M108.6 167.5s.1 0 .1-.1c0 .1-.1.1-.1.1zM107.4 168h.1c0-.1-.1 0-.1 0zM107.5 167.9c.3 0 .7-.2 1.1-.4-.4.2-.8.4-1.1.4zM107 168h.4-.4z"/><path d="M107.1 168h.4v-.1h-.1c-.1.1-.2.1-.3.1zM106.7 168h.4-.2-.2z"/><path d="M172 124.5c-.7-.2-11.7-2.9-25-1.5 2.5-11.5 2-20.4 2-21l-.4-6-5.4 2.6c-.6.3-10 5-19.6 14.3-4.8-13.7-13.1-23.1-13.6-23.7l-3-3.3-3 3.3c-.5.5-8.7 9.9-13.5 23.5-9.6-9-18.9-13.7-19.5-14l-5.4-2.6-.4 6c0 .6-.5 9.5 2 21-13.4-1.5-24.5 1.3-25.2 1.5l-4.1 1.1 1.3 4c.3 1 8.3 25.1 28.8 36.3 9.8 5.4 20 8.9 28.7 9.8 1.5.2 2.9.2 4.3.2 1.3 0 2.6-.1 3.8-.2h.2c.7-.1 1.4-.2 2-.4.7.2 1.4.3 2.1.4H109.4c1.2.1 2.4.2 3.7.2 1.4 0 2.8-.1 4.3-.2 8.7-.9 18.9-4.4 28.7-9.8 20.5-11.3 28.5-35.3 28.8-36.3l1.3-4-4.2-1.2zm-31.2-15.1c-.3 4-.9 9.3-2.5 15.2-3.8 1-7.7 2.4-11.5 4.3-.1-2.4-.4-4.7-.9-6.9 5.4-5.7 10.9-9.9 14.9-12.6zM88 121.8c-.4 2.3-.8 4.7-.9 7.1-3.7-1.9-7.5-3.3-11.3-4.3-1.5-5.9-2.2-11.2-2.5-15.2 4.1 2.6 9.5 6.8 14.7 12.4zm3.8 45c-6.3-1.4-13.2-4.1-20-7.9-12.9-7.1-20.2-20.6-23.3-27.5 4.7-.7 12.6-1.3 21 .1 3.1.5 6.4 1.3 9.5 2.5 1.8.7 3.5 1.5 5.2 2.4 1 .6 2 1.1 3 1.7.3 4.4.8 8.7 1.7 12.8 1.3 6.4 3.3 12.1 5.9 16.6-1-.2-2-.4-3-.7zm27.2-33.2c-.1 3.7-.3 7.2-.7 10.4-.5 4.2-1.4 7.9-2.3 11.1-.3.9-.5 1.7-.8 2.4-1.9 5.3-4.3 8.8-6.4 10 0 0-.1 0-.1.1-.4.2-.7.3-1.1.4v.1h-.8c-.4 0-.8-.2-1.3-.4-.2-.1-.5-.3-.7-.5-1.9-1.5-4-4.7-5.7-9.3-.3-.9-.6-1.8-.9-2.8-1-3.2-1.8-6.9-2.3-11-.4-3.2-.7-6.7-.7-10.4v-1.6-1.1c.1-3.9.7-7.7 1.7-11.2 2.5-9.2 7.2-16.8 10.3-21.1 3.1 4.3 7.8 12 10.3 21.3 1 3.6 1.6 7.4 1.7 11.3v.9c-.2.3-.2.9-.2 1.4zm23.2 25.4c-6.7 3.7-13.5 6.4-19.7 7.8-1.1.3-2.2.5-3.2.6 2.6-4.3 4.6-10 5.9-16.2.9-4.2 1.5-8.6 1.7-13.1 1-.6 1.9-1.1 2.9-1.7 1.8-1 3.6-1.8 5.4-2.5 3.1-1.2 6.4-2 9.5-2.5 3.6-.6 7-.8 10.2-.8 4.2 0 8 .4 10.6.8-3.1 6.9-10.4 20.5-23.3 27.6z"/><g><circle fill="none" cx="64" cy="48" r="24"/><path fill="none" d="M107 86.7c-6 6.6-20 23.9-20 43.8 0 12.6 2.4 24.4 6.6 33.3 3.8 7.8 8.6 12.2 13.4 12.2s9.6-4.5 13.4-12.2c4.3-8.8 6.6-20.6 6.6-33.3 0-19.9-14-37.2-20-43.8z"/><path d="M76.2 77.6C87.8 72.8 96 61.3 96 48c0-17.6-14.4-32-32-32S32 30.4 32 48c0 13.3 8.2 24.8 19.8 29.6C31.2 83 16 101.7 16 124h8c0-22.1 17.9-40 40-40 10.1 0 19.6 3.7 26.9 10.4 1.6-2.4 3.2-4.6 4.7-6.6-5.6-4.9-12.3-8.3-19.4-10.2zM40 48c0-13.2 10.8-24 24-24s24 10.8 24 24-10.8 24-24 24-24-10.8-24-24z"/></g></svg>