<svg xmlns="http://www.w3.org/2000/svg" viewBox="0 0 192 192"><path d="M96 176c-44.1 0-80-35.9-80-80s35.9-80 80-80 80 35.9 80 80-35.9 80-80 80zm0-152c-39.7 0-72 32.3-72 72s32.3 72 72 72 72-32.3 72-72-32.3-72-72-72zm.8 30.7c-22.4 0-40.6 18-40.6 40.2 0 7.3 2 14.4 5.7 20.6l-7.5 22 22.9-7.3c5.9 3.2 12.6 4.9 19.4 4.9 22.4 0 40.5-18 40.5-40.2.1-22.1-18.1-40.2-40.4-40.2zm-26.4 59.2c-4.1-5.5-6.2-12.1-6.2-18.9 0-17.8 14.6-32.3 32.5-32.3s32.5 14.5 32.5 32.3c0 17.8-14.6 32.3-32.5 32.3-6.4 0-12.6-1.8-17.9-5.3l-.2-.1-12 3.8 3.9-11.5-.1-.3zm10.9-17c4.7 6.9 10.6 12 16.4 14.3 5.7 2.2 8.2 2.8 9.6 2.8.6 0 1-.1 1.5-.2.2-.1.5-.1.7-.1 1.8-.2 6-2.3 6.9-4.9.8-2.2.9-4.3.5-5-.3-.5-.8-.7-1.6-1.1l-.5-.2c-.8-.4-5.7-2.8-6.6-3.1-.8-.3-1.9-.7-2.8.7-.6.9-2.2 2.8-3 3.7-.4.4-.7.5-1.5.1-.2-.1-.4-.2-.7-.3-1.4-.6-4-1.7-6.9-4.4-2.9-2.5-4.7-5.6-5.3-6.5-.3-.6-.2-.8.3-1.3.3-.3.6-.7 1-1.1.2-.2.3-.4.5-.6.4-.5.6-.9.9-1.4l.1-.3c.3-.7.3-1.4-.1-2.1-.2-.3-1.1-2.6-1.8-4.4-.4-1-.8-2-1.1-2.7-.8-1.9-1.7-2-2.4-1.9h-2c-.5 0-1.8.1-2.9 1.4l-.2.2c-1 1-3.3 3.5-3.3 8.1 0 4.4 2.8 8.6 4 10.2.1-.2.2-.1.3.1z"/></svg>