<svg xmlns="http://www.w3.org/2000/svg" viewBox="0 0 192 192"><path d="M130.6 104H91.4l-4.3-28H116v-8H85.9l-2.6-16.9C90.6 48.9 96 42 96 33.9c0-9.9-8.1-18-18-18s-18 8.1-18 18c0 9 6.7 16.5 15.3 17.8l9.3 60.3h40.8l14.9 33.6 7.3-3.2-17-38.4zM68 33.9c0-5.5 4.5-10 10-10s10 4.5 10 10-4.5 10-10 10-10-4.5-10-10z"/><path d="M94.2 152C73.1 152 56 135.1 56 114.3c0-12.3 6-23.6 15.9-30.6L70.5 75C56.7 83.2 48 98 48 114.3c0 25.2 20.7 45.7 46.2 45.7 14.3 0 27.6-6.5 36.2-17.4l-3.8-8.5c-6.9 11.1-19.1 17.9-32.4 17.9z"/></svg>