<svg xmlns="http://www.w3.org/2000/svg" viewBox="0 0 192 192"><circle fill="none" stroke="#000" stroke-width="8" stroke-miterlimit="10" cx="96" cy="96" r="24"/><path fill="none" stroke="#000" stroke-width="8" stroke-miterlimit="10" d="M92 72.3L88 28l8-8 8 8-4 44.3M119.7 92l44.3-4 8 8-8 8-44.3-4M100 119.7l4 44.3-8 8-8-8 4-44.3M72.3 100L28 104l-8-8 8-8 44.3 4"/><g fill="none" stroke="#000" stroke-width="8" stroke-miterlimit="10"><path d="M109.9 76.5L140 40h12v12l-36.5 30.1M115.5 109.9L152 140v12h-12l-30.1-36.5M82.1 115.5L52 152H40v-12l36.5-30.1M76.5 82.1L40 52V40h12l30.1 36.5"/></g></svg>