<svg xmlns="http://www.w3.org/2000/svg" viewBox="0 0 192 192"><path d="M80 72c-10.6 0-20.4 3.8-28 10.1V82c0-9.9-8.1-18-18-18s-18 8.1-18 18 8.1 18 18 18c1.9 0 3.6-.3 5.3-.8C37.2 104.4 36 110 36 116c0 24.3 19.8 44 44 44 22.9 0 41.8-17.6 43.8-40H176V72H80zM24 82c0-5.5 4.5-10 10-10s10 4.5 10 10-4.5 10-10 10-10-4.5-10-10zm144 30h-52v4c0 19.9-16.1 36-36 36s-36-16.2-36-36 16.1-36 36-36h88v32zM72 32h8v24h-8zM88.551 57.974l11.988-19.98 6.86 4.117-11.988 19.98zM44.551 42.025l6.86-4.116 11.988 19.98-6.86 4.116z"/></svg>