<svg xmlns="http://www.w3.org/2000/svg" viewBox="0 0 192 192"><path d="M174 60.5C150.2 47.1 123.2 40 96 40c-27.2 0-54.1 7.1-77.9 20.5L15 62.3l35.2 83.5 3.9-2.3C66.8 136 81.3 132 96 132s29.2 4 42 11.4l3.9 2.3 35.2-83.5-3.1-1.7zm-36 73.8c-13-6.8-27.4-10.3-42-10.3-14.6 0-29.1 3.6-42 10.3L25.1 65.8C46.9 54.1 71.4 48 96 48c24.6 0 49.1 6.1 70.9 17.8L138 134.3z"/><path d="M116 96c0 6.3-3 9.4-6.8 13.2l5.7 5.7c4.1-4.1 9.2-9.2 9.2-18.8 0-5.2-2.5-8.9-4.7-12.2-1.8-2.7-3.3-5-3.3-7.8 0-6.3 3-9.4 6.8-13.2l-5.7-5.7c-4.1 4.1-9.2 9.2-9.2 18.8 0 5.2 2.5 8.9 4.7 12.2 1.8 2.7 3.3 5 3.3 7.8zM92.7 88.2c1.8 2.7 3.3 5 3.3 7.8 0 6.3-3 9.4-6.8 13.2l5.7 5.7c4.1-4.1 9.2-9.2 9.2-18.8 0-5.2-2.5-8.9-4.7-12.2-1.8-2.7-3.3-5-3.3-7.8 0-6.3 3-9.4 6.8-13.2l-5.7-5.7C93.1 61.3 88 66.3 88 76c0 5.2 2.5 8.9 4.7 12.2zM76 76c0-6.3 3-9.4 6.8-13.2l-5.7-5.7c-4 4.2-9.1 9.2-9.1 18.9 0 5.2 2.5 8.9 4.7 12.2 1.8 2.7 3.3 5 3.3 7.8 0 6.3-3 9.4-6.8 13.2l5.7 5.7c4.1-4.1 9.2-9.2 9.2-18.8 0-5.2-2.5-8.9-4.7-12.2-1.9-2.8-3.4-5.1-3.4-7.9z"/></svg>