<svg xmlns="http://www.w3.org/2000/svg" viewBox="0 0 192 192"><path d="M83.978 36L96 23.98 108.02 36 96 48.021zM92 138h8v6h-8zM92 111.1h8v13.5h-8zM92 84.2h8v13.5h-8zM92 57.2h8v13.5h-8zM151.6 62.5l7.4 3c.9-2.1 1.5-4.3 1.9-6.5l-7.8-1.6c-.3 1.8-.8 3.4-1.5 5.1zM119.9 24.6l-1.7-7.8c-4.6 1-9.1 2.9-13 5.6l4.5 6.6c3.1-2.2 6.6-3.6 10.2-4.4zM141.1 28.6l4.4-6.7c-2-1.3-4.1-2.4-6.3-3.3-2.2-.9-4.5-1.6-6.8-2l-1.5 7.9c1.8.3 3.5.9 5.3 1.6 1.7.7 3.4 1.5 4.9 2.5zM161 44.9c-.9-4.7-2.8-9.1-5.4-13l-6.6 4.5c2.1 3.1 3.5 6.5 4.2 10.1l7.8-1.6zM40.4 62.5c-.7-1.7-1.2-3.3-1.5-5L31 59c.4 2.2 1.1 4.3 1.9 6.5l7.5-3zM55.8 26c1.7-.7 3.5-1.2 5.3-1.6l-1.5-7.9c-2.3.4-4.6 1.1-6.8 2-2.2.9-4.3 2-6.3 3.3l4.4 6.7c1.5-.9 3.2-1.7 4.9-2.5zM86.7 22.3c-3.9-2.7-8.3-4.6-13-5.6L72 24.5c3.6.8 7.1 2.2 10.1 4.3l4.6-6.5zM43.1 36.3l-6.6-4.5c-2.7 3.9-4.5 8.4-5.4 13l7.8 1.6c.7-3.5 2.2-7 4.2-10.1z"/><path d="M174 88.5c-20.3-11.4-42.9-18.3-66-20v8c20.5 1.7 40.6 7.5 58.9 17.3L138 162.3c-13-6.8-27.4-10.3-42-10.3-14.6 0-29.1 3.6-42 10.3L25.1 93.8C43.4 84 63.5 78.2 84 76.5v-8c-23.1 1.8-45.6 8.6-65.9 20L15 90.3l35.2 83.5 3.9-2.3C66.8 164 81.3 160 96 160s29.2 4 42 11.4l3.9 2.3 35.2-83.5-3.1-1.7z"/></svg>