<svg xmlns="http://www.w3.org/2000/svg" viewBox="0 0 192 192"><path d="M16 32v128h160V32H16zm152 8v24H24V40h144zM24 152V72h144v80H24z"/><path d="M115.8 98.7c-.5-1.6-2.1-2.7-3.8-2.7s-3.3 1.1-3.8 2.7l-4.2 12.6-8.2-24.6c-.5-1.6-2.1-2.7-3.8-2.7s-3.3 1.1-3.8 2.7L76 123.4l-4.2-12.6c-.5-1.6-2.1-2.7-3.8-2.7H56v8h9.1l7.1 21.3c.5 1.6 2.1 2.7 3.8 2.7s3.3-1.1 3.8-2.7L92 100.6l8.2 24.6c.5 1.6 2.1 2.7 3.8 2.7s3.3-1.1 3.8-2.7l4.2-12.6.2.6c.5 1.6 2.1 2.7 3.8 2.7h20v-8h-17.1l-3.1-9.2zM152 48h8v8h-8zM136 48h8v8h-8z"/></svg>