<svg xmlns="http://www.w3.org/2000/svg" viewBox="0 0 192 192"><path d="M140 160c-.6 0-1.1-.1-1.7-.4L96 140.4l-42.3 19.2c-1.3.6-2.9.4-4.1-.5-1.2-.9-1.8-2.4-1.5-3.8l7.7-46-34.6-34.5c-1.1-1.1-1.4-2.6-1-4 .5-1.4 1.7-2.5 3.2-2.7l46.1-7.7 23.1-42.3c.7-1.3 2-2.1 3.5-2.1s2.8.8 3.5 2.1l23.1 42.3 46.1 7.7c1.5.2 2.7 1.3 3.2 2.7.5 1.4.1 3-1 4l-34.5 34.5 7.7 46c.2 1.5-.3 2.9-1.5 3.8-1 .6-1.8.9-2.7.9zm-44-28c.6 0 1.1.1 1.7.4l37.2 16.9-6.8-40.6c-.2-1.3.2-2.6 1.1-3.5l30.5-30.5-40.3-6.7c-1.2-.2-2.3-1-2.9-2L96 28.4 75.5 65.9c-.6 1.1-1.6 1.8-2.9 2l-40.3 6.7 30.5 30.5c.9.9 1.3 2.2 1.1 3.5l-6.8 40.6 37.2-16.9c.6-.2 1.1-.3 1.7-.3z"/></svg>