<svg xmlns="http://www.w3.org/2000/svg" viewBox="0 0 192 192"><path d="M144 112c-17.6 0-32 14.4-32 32s14.4 32 32 32 32-14.4 32-32-14.4-32-32-32zm0 56c-13.2 0-24-10.8-24-24s10.8-24 24-24 24 10.8 24 24-10.8 24-24 24z"/><path d="M148 128h-8v12h-12v8h12v12h8v-12h12v-8h-12zM104 144c0-2.9.3-5.7.9-8.4l-7.2-3.3c-.5-.2-1.1-.4-1.7-.4s-1.1.1-1.7.4l-37.2 16.9 6.8-40.6c.2-1.3-.2-2.6-1.1-3.5L32.3 74.7 72.6 68c1.2-.2 2.3-1 2.9-2L96 28.4 116.5 66c.6 1.1 1.6 1.8 2.9 2l40.3 6.7-30.5 30.5c-.6.6-1 1.3-1.1 2.2 4.2-1.8 8.7-3 13.5-3.2l29.3-29.3c1.1-1.1 1.4-2.6 1-4-.5-1.4-1.7-2.5-3.2-2.7l-46.1-7.7-23.1-42.4c-.7-1.3-2-2.1-3.5-2.1s-2.8.8-3.5 2.1L69.4 60.4l-46.1 7.7c-1.5.2-2.7 1.3-3.2 2.7-.5 1.4-.1 3 1 4l34.5 34.5-7.7 46c-.2 1.5.3 2.9 1.5 3.8 1.2.9 2.7 1.1 4.1.5L96 140.4l8 3.6z"/></svg>