<svg xmlns="http://www.w3.org/2000/svg" viewBox="0 0 192 192"><path d="M76.2 41.9c.4.4 1 .7 1.6.6h4.7c.3 0 .6-.1.9-.3.3-.3.3-.6.4-.7.1-.6.1-1.3-.1-1.9l.1-.2c.1-.3.1-.5 0-.8-.2-.2-.4-.4-.6-.5-1.4-.3-2.9-.4-4.3-.4-.9-.1-1.8.2-2.4.9-.5.6-.6 1.4-.4 2.2-.2.4-.1.8.1 1.1zM81.8 52c-.2-.4-.6-.6-1.1-.6-.2-.2-.5-.3-.8-.2-.8.2-1.5.7-2 1.4s-.6 1.6-.4 2.4c0 .3.2.6.5.7.2.1.5.2.8.2h2.1c.4 0 .8-.4.9-.8l.2-1.8c0-.4 0-.9-.2-1.3z"/><path d="M82.5 48.7c-.4.2-.5.7-.3 1.1.4 1.2.5 2.5.4 3.8v.2c0 .1 0 .1-.1.1l-.1.1c-.5.8-.7 1.7-.5 2.6 0 .8.7 1.5 1.5 1.5H86c.3 0 .7-.1.9-.3.3-.3.5-.7.5-1.1l.2-5.2c.1-.7-.2-1.3-.6-1.8-.2-.2-.5-.4-.8-.5-.9-.3-1.9-.5-2.9-.6-.3-.1-.6-.1-.8.1z"/><path d="M96 16c-44.1 0-80 35.9-80 80s35.9 80 80 80 80-35.9 80-80-35.9-80-80-80zM24 96c0-17.3 6.1-33.2 16.4-45.7l.4 1.1c-.5 1.7-.6 3.5-.3 5.3 0 .3.2.5.4.6s.5.2.8.1c2.7-.8 5-2.4 6.8-4.6.7-1 1.2-2.1 1.6-3.2.3-.8.6-1.5 1-2.2.6-1 1.3-2 2.1-2.9.6-.7 1.2-1.5 1.8-2.3 1-1.6 1.9-3.3 2.5-5.1L58 36l-.5-.8c5.4-3.4 11.3-6.2 17.5-8.1l.2.9c-.1.1-.1.2-.2.3-.2.3-.5.6-.8.9l-1.2.6h-.1c-1.7.6-3.4 1.4-5 2.3-1.2.6-2.4 1.5-3.3 2.5-1 1.2-1.5 2.8-1.2 4.3.1.4.5.7.9.7 4.8-.1 9.6-1 14.2-2.6 2.5-.8 4.9-1.9 7.2-3.3.4-.3.9-.6 1.3-.9.3.8.8 1.4 1.5 1.9.3.2.7.2 1 .1.3-.2.5-.5.5-.8 0-.8 1-1.5 2-1.7.6-.1 1.1-.1 1.7-.1.8 0 1.7-.1 2.5-.3.7-.2 1.2-.5 1.8-.7l1.5-.6c.8-.2 1.5-.2 2.3-.2h.4c3.3-.1 6.5-.6 9.6-1.6.4-.1.8-.3 1.2-.6.3-.2.5-.5.7-.8l.3-1.1c4.7 1.2 9.3 2.9 13.6 5l-.9.8c-3.3.4-5.5 3-7.8 5.6-1.2 1.5-2.5 2.8-4 4-.1-.2-.2-.4-.4-.5-6.9-4.2-16.9-2.6-22.2 3.5-.8.8-1.4 1.9-1.6 3 0 1.1.2 2.1.6 3.1.1.2.2.5.3.7.7 2 .6 4.1-.1 6.1l-12.5 4c-.3.1-.5.3-.6.6s0 .6.2.8c.6.7.7 1.7.3 2.5-.3.9-1 1.5-1.9 1.8-.4.1-.9.1-1.3 0h-1.3c-3 .3-5.2 2.9-5 5.9.2 2 1.4 3.7 3.2 4.5 3.5 1.6 7.2-.9 10-3.3 3.2-2.7 5.7-3.7 7.6-3.1.1 1.6 1.4 2.8 2.5 3.8.1.2.3.3.5.4.7.6 1 1.5 1 2.4-.1.2-.2.4-.3.5-.4.1-.6.5-.5.9 0 .4.3.7.7.8 1.5.4 3 .4 4.5.1 1-.3 1.9-.9 2.5-1.8.5 1.2 1.3 2.3 2.2 3.3 1.3 1.2 3.5 2.1 5.4 1.1.8-.4 1.4-1.1 1.7-1.9.7.3 1.5.6 2.3.7.3 0 .6.1.9.1 1.2-.1 2.3.3 3.3.9.5.4.8 1 .9 1.7.2 2.2-2.2 4-4.5 4.4-1.5.2-3 .2-4.5 0-1.2-.1-2.5-.2-3.7-.1-.7 0-1.4.1-2.1.2-1.9.2-3.8.5-5.3-.3-.9-.6-1.7-1.3-2.3-2.1-.8-1-1.8-1.9-3-2.5l1.1-2c.2-.3.2-.6 0-.9-.1-.3-.5-.5-.8-.5l-20.1-1-.1-.4c0-.2-.1-.5-.2-.7-.2-.4-.7-.6-1.1-.5s-.7.6-.6 1l.1.3c0 .2-.3.4-.5.5-.4.1-.7.2-1.1.2l-1.2.3c-1.8.6-2.8 2.1-3.7 3.5-.5.7-.9 1.4-1.4 2-.7.7-1.5 1.2-2.3 1.7-1.2.7-2.2 1.5-3.1 2.5-.8 1.2-1.4 2.5-1.7 3.9l-.1.3c-.3 1.2-.7 2.3-1.1 3.5-1.2 3.4-2.1 6.9-2.5 10.5-.4 4.5.9 10.4 5.4 13.5 3.3 2.2 7.4 2.3 11.3 2.4 3.7.1 7.1.1 9.9 1.8l.4 2.2c.1.4.3.6.7.7l2.2.5c-1.7 4-1 8.6 1.9 11.8l.4.4c.4.4.8.8 1 1.3.2.6.2 1.3.2 1.9-.3 7.4.8 14.7 3.2 21.7.1.2.2.3.3.4l1 1C53 164.6 24 133.6 24 96zm86.6 70.5l.2-1.1c.8-.5 1.5-1.1 2.2-1.7 1.2-1 2.3-2.1 3.3-3.3l13.2-13.8c.2-.2.3-.4.2-.7 0-.3-.2-.5-.4-.7-1.3-.8-1.5-2.7-1.1-4.1.6-1.6 1.5-3 2.6-4.3l.2-.3c3.4-4.3 6.3-8.9 8.8-13.7 1.5-2.9 2.8-6 2.6-9.2 0-.3-.2-.5-.4-.7-.2-.1-.3-.2-.5-.2h-.2c-1.3.4-2.6 1-3.7 1.7-1.5.9-3 1.8-4.5 1.5-1.3-.4-2.5-1.2-3.3-2.4-3.7-4.1-7-8.6-9.9-13.4-1.1-1.8-1.5-3.2-1.3-4.2 3.6 2.6 7.5 5.5 9.7 9.5.3.6.6 1.2 1 1.8.6 1.3 1.3 2.6 2.2 3.7 1.5 1.8 4.1 3.2 6.5 2.3 1.7-.8 3-2.1 3.8-3.8.3-.4.5-.8.8-1.2 2.2-3 5.8-4.7 9.6-4.5.2 0 .5-.1.7-.2.2-.2.3-.4.3-.7.1-5.1-1.3-8.1-4.2-9-1.5-.4-3.1-.2-4.6.3-1.3.3-2.5.7-3.5.4-1.9-.5-2.8-2.8-3.4-4.9 1.1-.1 2.2.5 3.5 1 1 .5 2.1.9 3.2 1.1 1.7.2 3.5 0 5.2-.5 1.7-.4 3.4-.8 4.9-.3 3 .9 4.4 4.6 5.5 7.9l.1.2c.7 2 2.7 6.5 6.4 7.5l.9-.1c-4.3 30-27.2 54.1-56.6 60.1z"/></svg>