<svg xmlns="http://www.w3.org/2000/svg" viewBox="0 0 192 192"><path d="M111.9 111.9l27.9 61.3 9.3-18.5 16.1 16.1 5.7-5.7-16.1-16.1 18.5-9.3-61.4-27.8zm28.3 42.8L128.1 128l26.7 12.1-9.8 4.9-4.8 9.7z"/><path d="M125.7 161.6c-8.1 3.7-16.8 5.8-25.7 6.3V100h31.9c-.1 4-.4 8-.9 11.9l7.6 3.5c.7-5 1.1-10.1 1.2-15.3h27.9c-.5 8.9-2.7 17.6-6.3 25.7l7.3 3.3c4.7-10.3 7.1-21.6 7.1-33 0-44.1-35.9-80-80-80S16 51.9 16 96s35.9 80 80 80c11.4 0 22.7-2.5 33-7.1l-3.3-7.3zM167.9 92H140c-.7-27.4-8.7-50.7-20.5-64.1 27 9.4 46.7 34.3 48.4 64.1zM100 24.5c17.1 4 30.9 32.9 31.9 67.5H100V24.5zm-27.4 3.4C60.7 41.3 52.8 64.6 52.1 92h-28c1.7-29.8 21.4-54.7 48.5-64.1zM24.1 100H52c.7 27.4 8.7 50.7 20.5 64.1-27-9.4-46.7-34.3-48.4-64.1zM92 167.5c-17.1-4-30.9-32.9-31.9-67.5H92v67.5zM92 92H60.1C61.1 57.4 75 28.5 92 24.5V92z"/></svg>