<svg xmlns="http://www.w3.org/2000/svg" viewBox="0 0 192 192"><path d="M167.6 103.5c.3 1.5.4 3 .4 4.5 0 13.2-10.8 24-24 24h-42.3l31.2-31.2c3.7 1.5 7.6 2.2 11.6 2.2 1.6 0 3.1-.1 4.6-.3.3 0 .7-.1 1-.2 4.3-.8 8.3-2.4 11.8-4.8.1-.1.2-.2.4-.2.6-.4 1.2-.9 1.8-1.3.3-.2.5-.4.8-.6.3-.2.5-.4.8-.7C172 89.1 176 80.8 176 71.5c0-3.8-.7-7.6-2-11.1l-2.2-5.8-18.6 18.6c-2.9 2.9-7.5 2.9-10.3 0-1.4-1.4-2.1-3.2-2.1-5.2s.8-3.8 2.1-5.2l18.6-18.6-5.8-2.2c-3.6-1.3-7.3-2-11.1-2-17.5 0-31.6 14.1-31.6 31.5 0 4 .7 7.9 2.2 11.6L66.3 132H48c-13.2 0-24-10.8-24-24 0-12.6 9.8-23.1 22.3-23.9l3.5-.2.2-3.5C50.9 67.8 61.4 58 74 58c3.4 0 6.7.7 9.8 2.1l3.2 1.4 1.8-3C95.1 48.2 106 42 118 42h.3c3.2-2.8 6.7-5.1 10.3-6.7-3.4-.9-7-1.3-10.5-1.3-13.7 0-26.3 6.5-34.2 17.5-3.2-1-6.5-1.5-9.8-1.5-15.6 0-28.9 11.4-31.5 26.5C27.4 79.1 16 92.4 16 108c0 17.6 14.4 32 32 32h21.7l55.2-55.2-1.3-2.6c-1.7-3.3-2.6-6.9-2.6-10.7 0-13 10.5-23.5 23.5-23.5.6 0 1.2 0 1.8.1l-9.1 9.1c-2.9 2.9-4.5 6.7-4.5 10.8 0 4.1 1.6 7.9 4.5 10.8 6 6 15.7 6 21.7 0l9.1-9.1c0 .6.1 1.2.1 1.8 0 13-10.5 23.5-23.5 23.5-3.8 0-7.3-.9-10.7-2.6l-2.6-1.3-49 48.9H144c17.6 0 32-14.4 32-32 0-3.6-.6-7.1-1.8-10.5-1.9 2.2-4.2 4.3-6.6 6z"/></svg>