<svg xmlns="http://www.w3.org/2000/svg" viewBox="0 0 192 192"><path d="M34 176.1c-4.8 0-9.4-1.9-12.8-5.3-3.4-3.4-5.3-8-5.3-12.8s1.9-9.4 5.3-12.8l48-48 5.7 5.7-48 48c-1.9 1.9-3 4.5-3 7.2s1.1 5.3 3 7.2 4.5 3 7.2 3 5.3-1.1 7.2-3l48-48L95 123l-48 48c-3.6 3.3-8.2 5.1-13 5.1zM118.8 90.8l-5.6-5.6L142.3 56h11.3l12-21.8-7.8-7.8-21.8 12v11.3l-29.2 29.1-5.6-5.6L128 46.3V33.6l31.2-17 16.2 16.2-17 31.2h-12.7z"/><path d="M144.5 176c-17.4 0-31.5-14.1-31.5-31.5 0-4 .7-7.9 2.2-11.6L59.1 76.8c-3.7 1.5-7.6 2.2-11.6 2.2C30.1 79 16 64.9 16 47.5c0-3.8.7-7.6 2-11.1l2.2-5.8 18.6 18.6c2.9 2.9 7.5 2.9 10.3 0s2.9-7.5 0-10.3L30.6 20.2l5.8-2.2c3.6-1.3 7.3-2 11.1-2C64.9 16 79 30.1 79 47.5c0 4-.7 7.9-2.2 11.6l56.1 56.1c3.7-1.5 7.6-2.2 11.6-2.2 17.4 0 31.5 14.1 31.5 31.5 0 3.8-.7 7.6-2 11.1l-2.2 5.8-18.6-18.6c-2.9-2.9-7.5-2.9-10.3 0s-2.9 7.5 0 10.3l18.6 18.6-5.8 2.2a30.9 30.9 0 0 1-11.2 2.1zM60.8 67.1l64.1 64.1-1.3 2.6c-1.7 3.3-2.6 6.9-2.6 10.7 0 13 10.5 23.5 23.5 23.5.6 0 1.2 0 1.8-.1l-9.1-9.1c-6-6-6-15.7 0-21.7s15.7-6 21.7 0l9.1 9.1c0-.6.1-1.2.1-1.8 0-13-10.5-23.5-23.5-23.5-3.8 0-7.3.9-10.7 2.6l-2.6 1.3-64.2-64 1.3-2.6c1.7-3.3 2.6-6.9 2.6-10.7C71 34.5 60.5 24 47.5 24c-.6 0-1.2 0-1.8.1l9.1 9.1c6 6 6 15.7 0 21.7s-15.7 6-21.7 0L24 45.8c0 .6-.1 1.2-.1 1.8C24 60.5 34.5 71 47.5 71c3.8 0 7.3-.9 10.7-2.6l2.6-1.3z"/></svg>