<svg xmlns="http://www.w3.org/2000/svg" viewBox="0 0 192 192"><path d="M166.1 120.3c-1.6-2.7-4.6-4.9-8.3-6.2l13.4-22.4-44.4 1.3-17.3-17.3-6.8.9-12.8-21.2L55 64.1l-2.5.6L39 68.1l1.9 7.8 9.9-2.5-2 10-5.4.6c-8 1.1-11.4 4.7-11.4 11.8l-8.8.3 4.4 22c-.7.7-1.2 1.4-1.7 2.1-1 1.8-4.9 3.7-9.9 3.7v8c7.5 0 14-3 16.8-7.6 1.1-1.8 4.9-3.7 9.9-3.7s8.8 1.9 9.9 3.7c2.7 4.6 9.3 7.6 16.8 7.6s14-3 16.8-7.6c1-1.8 4.9-3.7 9.9-3.7s8.8 1.9 9.9 3.7c2.7 4.6 9.3 7.6 16.8 7.6s14-3 16.8-7.6c1-1.8 4.9-3.7 9.9-3.7s8.8 1.9 9.9 3.7c2.7 4.6 9.3 7.6 16.8 7.6v-8c-5.2.1-9-1.8-10.1-3.6zm-106.7-49l26.7-6.7L94 77.7l-36.8 4.6 2.2-11zM44.5 92l62-7.8 9.2 9.2L40 95.6c0-2.5.2-3 4.5-3.6zm88.1 28.3c-1 1.8-4.9 3.7-9.9 3.7s-8.8-1.9-9.9-3.7c-2.7-4.6-9.3-7.6-16.8-7.6s-14 3-16.8 7.6c-1 1.8-4.9 3.7-9.9 3.7s-8.8-1.9-9.9-3.7c-2.7-4.6-9.3-7.6-16.8-7.6-2.8 0-5.4.4-7.8 1.2l-2-10.1 124-3.7-7.5 12.6c-7.5.1-14 3.1-16.7 7.6z"/></svg>