<svg xmlns="http://www.w3.org/2000/svg" viewBox="0 0 192 192"><path d="M96 176c-44.1 0-80-35.9-80-80s35.9-80 80-80 80 35.9 80 80-35.9 80-80 80zm0-152c-39.7 0-72 32.3-72 72s32.3 72 72 72 72-32.3 72-72-32.3-72-72-72z"/><path d="M96 56c-22.1 0-40 17.9-40 40s17.9 40 40 40 40-17.9 40-40-17.9-40-40-40zm0 67.5c-15.2 0-27.5-12.3-27.5-27.5S80.8 68.5 96 68.5s27.5 12.3 27.5 27.5-12.3 27.5-27.5 27.5z"/><path d="M89 115.6c-2 0-4-1-5.2-2.7-2-2.9-1.2-6.8 1.6-8.7l11.8-8.1-11.8-8c-2.9-1.9-3.6-5.8-1.7-8.7 1.9-2.9 5.8-3.6 8.7-1.7l19.4 13.2c1.7 1.2 2.7 3.1 2.7 5.2s-1 4-2.7 5.2l-19.4 13.3c-1 .7-2.2 1-3.4 1z"/></svg>