<?xml version="1.0" encoding="utf-8"?>
<svg version="1.1" xmlns="http://www.w3.org/2000/svg" xmlns:xlink="http://www.w3.org/1999/xlink" x="0" y="0" width="334.6" height="135.9" viewBox="0 0 334.6 135.9">
<style type="text/css">
	.st0{fill:url(#SVGID_1_);}
	.st1{fill:url(#SVGID_2_);}
	.st2{fill:url(#SVGID_3_);}
	.st3{fill:url(#SVGID_4_);}
	.st4{fill:url(#SVGID_5_);}
	.st5{fill:url(#SVGID_6_);}
	.st6{fill:url(#SVGID_7_);}
	.st7{fill:url(#SVGID_8_);}
</style>
<g transform="translate(0,-1)">

		<linearGradient id="SVGID_1_" gradientUnits="userSpaceOnUse" x1="1581.3712" y1="1615.1289" x2="1581.3712" y2="1110.5289" gradientTransform="matrix(0 -1 -1 0 1530.4148 1714.0248)">
		<stop  offset="0" style="stop-color:#F7F8F8"/>
		<stop  offset="0.5008" style="stop-color:#EBECEB"/>
		<stop  offset="1" style="stop-color:#E6E7E7"/>
	</linearGradient>
	<path class="st0" d="M342.7,113.5c-41.8-2.9-90-16.5-141-30.9c-8.2-2.3-16.4-4.6-24.9-7c-9,2.3-18,4.7-26.7,7
		C95.3,97,43.5,110.7-1.4,113.5c-34.9,2.2-60.9-2.3-83.3-14.7v75.6c30.1,12.4,47.9,16.9,82.8,14.7c44.9-2.9,96.7-16.5,151.5-30.9
		c81.2-21.4,174.8-46.1,270.3-38.2V98.8C399,111.2,375.2,115.7,342.7,113.5L342.7,113.5z"/>

		<linearGradient id="SVGID_2_" gradientUnits="userSpaceOnUse" x1="1462.104" y1="1278.0959" x2="1614.504" y2="1449.1659" gradientTransform="matrix(0 -1 -1 0 1530.4148 1714.0248)">
		<stop  offset="0" style="stop-color:#F2F2F2"/>
		<stop  offset="1" style="stop-color:#E6E7E7"/>
	</linearGradient>
	<path class="st1" d="M149.6,158.2C94.8,172.6,43,186.3-1.9,189.1c-34.9,2.2-52.7-2.3-82.8-14.7v58.4C4.1,223.5,91,239,189.9,255.2
		c57.7,9.4,117.3,19.2,165.7,21.7c34.8,1.8,54-0.6,64.3-2.9V120C324.4,112,230.8,136.8,149.6,158.2L149.6,158.2z"/>

		<linearGradient id="SVGID_3_" gradientUnits="userSpaceOnUse" x1="1598.4564" y1="1133.1013" x2="1672.8563" y2="1265.5714" gradientTransform="matrix(0 -1 -1 0 1530.4148 1714.0248)">
		<stop  offset="0" style="stop-color:#F2F2F2"/>
		<stop  offset="1" style="stop-color:#ECECED"/>
	</linearGradient>
	<path class="st2" d="M176.9,75.6c8.4,2.3,16.7,4.7,24.9,7c51,14.4,99.2,28.1,141,30.9c32.5,2.2,56.3-2.3,77.2-14.7V44.4
		C334.7,37.3,251.5,56.2,176.9,75.6z"/>

		<linearGradient id="SVGID_4_" gradientUnits="userSpaceOnUse" x1="1686.5396" y1="1615.1289" x2="1686.5396" y2="1110.5288" gradientTransform="matrix(0 -1 -1 0 1530.4148 1714.0248)">
		<stop  offset="0" style="stop-color:#F7F8F8"/>
		<stop  offset="1" style="stop-color:#E6E7E7"/>
	</linearGradient>
	<path class="st3" d="M-84.7,49.4c91.1-17.6,181.8,4,261.6,26.2c74.6-19.3,157.8-38.2,243-31.1v-65.2H-84.7
		C-84.7-20.7-84.7,49.4-84.7,49.4z"/>

		<linearGradient id="SVGID_5_" gradientUnits="userSpaceOnUse" x1="1422.5448" y1="1615.1289" x2="1422.5448" y2="1110.5289" gradientTransform="matrix(0 -1 -1 0 1530.4148 1714.0248)">
		<stop  offset="0" style="stop-color:#F2F2F2"/>
		<stop  offset="1" style="stop-color:#E6E7E7"/>
	</linearGradient>
	<path class="st4" d="M355.6,276.9c-48.4-2.5-108-12.3-165.7-21.7C91,239,4.1,223.4-84.7,232.8v116.6c18.8,2.3,31.6,4.7,68.9,2.9
		c52-2.5,116.1-12.3,178.1-21.7c91.3-13.9,179.2-27.3,257.6-24.9V274C409.5,276.3,390.4,278.7,355.6,276.9L355.6,276.9z"/>

		<linearGradient id="SVGID_6_" gradientUnits="userSpaceOnUse" x1="1584.8079" y1="1409.4985" x2="1660.0079" y2="1543.6285" gradientTransform="matrix(0 -1 -1 0 1530.4148 1714.0248)">
		<stop  offset="0" style="stop-color:#F2F2F2"/>
		<stop  offset="1" style="stop-color:#ECECED"/>
	</linearGradient>
	<path class="st5" d="M-1.4,113.5c44.9-2.9,96.7-16.5,151.5-30.9c8.8-2.3,17.7-4.7,26.7-7C97.1,53.4,6.4,31.8-84.7,49.4v49.4
		C-62.3,111.2-36.2,115.7-1.4,113.5z"/>

		<linearGradient id="SVGID_7_" gradientUnits="userSpaceOnUse" x1="1283.9441" y1="1107.6464" x2="1416.251" y2="1601.2822" gradientTransform="matrix(0 -1 -1 0 1530.4148 1714.0248)">
		<stop  offset="0" style="stop-color:#F7F8F8"/>
		<stop  offset="1" style="stop-color:#E6E7E7"/>
	</linearGradient>
	<path class="st6" d="M162.3,330.6c-62,9.4-126.1,19.2-178.1,21.7c-37.3,1.8-50.1-0.6-68.9-2.9v68.3c66.1-2.5,140.4,2.5,264.7,11.5
		c71.7,5.2,182,13.2,239.9,11.6V305.6C341.5,303.2,253.6,316.7,162.3,330.6L162.3,330.6z"/>

		<linearGradient id="SVGID_8_" gradientUnits="userSpaceOnUse" x1="1302.9843" y1="1605.5782" x2="1191.9843" y2="1096.6482" gradientTransform="matrix(0 -1 -1 0 1530.4148 1714.0248)">
		<stop  offset="0" style="stop-color:#F7F8F8"/>
		<stop  offset="1" style="stop-color:#E6E7E7"/>
	</linearGradient>
	<path class="st7" d="M180,429.2c-124.3-9-198.6-14-264.7-11.5v69.5l504.6,0.1v-46.6C362,442.3,251.7,434.3,180,429.2z"/>
</g>
</svg>
