<svg xmlns="http://www.w3.org/2000/svg" viewBox="0 0 504.6 1190.6" width="504" height="1190">
  <linearGradient id="a" gradientUnits="userSpaceOnUse" x1="-342.993" y1="595.276" x2="847.56" y2="595.276" gradientTransform="rotate(-90 252.283 595.276)">
    <stop offset="0" stop-color="#902336"/>
    <stop offset=".036" stop-color="#90181B"/>
    <stop offset=".085" stop-color="#AF2B41"/>
    <stop offset=".124" stop-color="#AF1E23"/>
    <stop offset=".13" stop-color="#B61F24"/>
    <stop offset=".155" stop-color="#D12027"/>
    <stop offset=".17" stop-color="#DA2128"/>
    <stop offset=".182" stop-color="#C5273F"/>
    <stop offset=".209" stop-color="#8E387A"/>
    <stop offset=".214" stop-color="#833B86"/>
    <stop offset=".244" stop-color="#813C87"/>
    <stop offset=".264" stop-color="#6C3F99"/>
    <stop offset=".291" stop-color="#344A9A"/>
    <stop offset=".324" stop-color="#023F88"/>
    <stop offset=".413" stop-color="#30337B"/>
    <stop offset=".418" stop-color="#32327B"/>
    <stop offset=".494" stop-color="#234093"/>
    <stop offset=".558" stop-color="#1C68A6"/>
    <stop offset=".583" stop-color="#2E7EAD"/>
    <stop offset=".63" stop-color="#4BA2B9"/>
    <stop offset=".656" stop-color="#56B0BD"/>
    <stop offset=".672" stop-color="#50AEBC"/>
    <stop offset=".693" stop-color="#40A8BA"/>
    <stop offset=".717" stop-color="#269FB6"/>
    <stop offset=".742" stop-color="#0292B0"/>
    <stop offset=".743" stop-color="#0092B0"/>
    <stop offset=".846" stop-color="#00A674"/>
    <stop offset=".887" stop-color="#00AE5A"/>
    <stop offset="1" stop-color="#009B85"/>
  </linearGradient>
  <path fill="url(#a)" d="M0 0h504.6v1190.6H0z"/>
  <linearGradient id="b" gradientUnits="userSpaceOnUse" x1="-3.617" y1="721.419" x2="-150.406" y2="721.419" gradientTransform="rotate(-90 252.283 595.276)">
    <stop offset="0" stop-color="#833B86"/>
    <stop offset=".335" stop-color="#833B86"/>
    <stop offset=".7" stop-color="#893163"/>
    <stop offset="1" stop-color="#8D2A4B"/>
    <stop offset="1" stop-color="#8D2A4A"/>
  </linearGradient>
  <path fill="url(#b)" d="M504.6 998V851.2l-252.3 51.1"/>
  <linearGradient id="c" gradientUnits="userSpaceOnUse" x1="249.585" y1="343.485" x2="196.259" y2="676.945" gradientTransform="rotate(-90 252.283 595.276)">
    <stop offset="0" stop-color="#32327B"/>
    <stop offset=".243" stop-color="#32327B"/>
    <stop offset=".444" stop-color="#2D367E"/>
    <stop offset=".68" stop-color="#1F3F89"/>
    <stop offset=".934" stop-color="#074F9A"/>
    <stop offset="1" stop-color="#00549F"/>
  </linearGradient>
  <path fill="url(#c)" d="M0 601v74.4l252.3 40.4L504.6 679v-78"/>
  <linearGradient id="d" gradientUnits="userSpaceOnUse" x1="-54.725" y1="595.276" x2="74.989" y2="595.276" gradientTransform="rotate(-90 252.283 595.276)">
    <stop offset="0" stop-color="#6C3F99"/>
    <stop offset="1" stop-color="#344A9A"/>
  </linearGradient>
  <path fill="url(#d)" d="M0 845.7v.1l252.3 56.5 252.3-51.1-252.3-78.6"/>
  <linearGradient id="e" gradientUnits="userSpaceOnUse" x1="172.156" y1="595.276" x2="-3.617" y2="595.276" gradientTransform="rotate(-90 252.283 595.276)">
    <stop offset="0" stop-color="#023F88"/>
    <stop offset=".195" stop-color="#073F89"/>
    <stop offset=".426" stop-color="#153F8A"/>
    <stop offset=".674" stop-color="#2D408C"/>
    <stop offset=".934" stop-color="#4E408F"/>
    <stop offset="1" stop-color="#584090"/>
  </linearGradient>
  <path fill="url(#e)" d="M0 675.4v170.3l252.3-73.1 252.3 78.6V679l-252.3 36.8"/>
  <path fill="#AF1E23" d="M0 999.4v99.6h156.2l96.1-56.4 96.1 56.4h156.2V998l-252.3 35.9"/>
  <linearGradient id="f" gradientUnits="userSpaceOnUse" x1="2.948" y1="469.136" x2="-155.847" y2="469.136" gradientTransform="rotate(-90 252.283 595.276)">
    <stop offset="0" stop-color="#833B86"/>
    <stop offset=".335" stop-color="#833B86"/>
    <stop offset=".7" stop-color="#893163"/>
    <stop offset="1" stop-color="#8D2A4B"/>
    <stop offset="1" stop-color="#8D2A4A"/>
  </linearGradient>
  <path fill="url(#f)" d="M0 845.8v153.6l252.3-97.1"/>
  <path fill="#90181B" d="M0 1099v91.6l156.2-91.6"/>
  <path fill="#AF2B41" d="M252.3 1042.6l-96.1 56.4h192.2"/>
  <path fill="#90181B" d="M504.6 1190.6V1099H348.4"/>
  <path fill="#902336" d="M156.2 1099L0 1190.6h504.6L348.4 1099"/>
  <path fill="#DA2128" d="M0 999.4l252.3 34.5L504.6 998l-252.3-95.7"/>
  <linearGradient id="g" gradientUnits="userSpaceOnUse" x1="694.248" y1="342.993" x2="694.248" y2="847.56" gradientTransform="rotate(-90 252.283 595.276)">
    <stop offset="0" stop-color="#8BBE63"/>
    <stop offset=".225" stop-color="#85BE6E"/>
    <stop offset=".638" stop-color="#7DBC7C"/>
    <stop offset="1" stop-color="#7ABC80"/>
  </linearGradient>
  <path fill="url(#g)" d="M427.4 134.2c-41.8-2.9-90-16.5-141-30.9-8.2-2.3-16.4-4.7-24.9-7-9 2.3-18 4.7-26.7 7-54.8 14.4-106.6 28.1-151.5 30.9-34.9 2.2-60.9-2.3-83.3-14.7v75.6c30.1 12.4 47.9 16.9 82.8 14.7 44.9-2.9 96.7-16.5 151.5-30.9 81.2-21.4 174.8-46.1 270.3-38.2v-21.2c-20.9 12.4-44.7 16.9-77.2 14.7z"/>
  <linearGradient id="h" gradientUnits="userSpaceOnUse" x1="537.439" y1="348.352" x2="668.706" y2="845.174" gradientTransform="rotate(-90 252.283 595.276)">
    <stop offset="0" stop-color="#00AE5A"/>
    <stop offset=".292" stop-color="#00AB61"/>
    <stop offset=".703" stop-color="#00A373"/>
    <stop offset="1" stop-color="#009B85"/>
  </linearGradient>
  <path fill="url(#h)" d="M234.3 178.9c-54.8 14.4-106.6 28.1-151.5 30.9-34.9 2.2-52.7-2.3-82.8-14.7v58.4c88.8-9.3 175.7 6.2 274.6 22.4 57.7 9.4 117.3 19.2 165.7 21.7 34.8 1.8 53.9-.6 64.3-2.9v-154c-95.5-7.9-189.1 16.8-270.3 38.2z"/>
  <path fill="#1EA34A" d="M261.6 96.3c8.4 2.3 16.7 4.7 24.9 7 51 14.4 99.2 28.1 141 30.9 32.5 2.2 56.3-2.3 77.2-14.7V65.1C419.4 58 336.2 76.9 261.6 96.3z"/>
  <linearGradient id="i" gradientUnits="userSpaceOnUse" x1="799.42" y1="342.993" x2="799.42" y2="847.56" gradientTransform="rotate(-90 252.283 595.276)">
    <stop offset="0" stop-color="#68A16A"/>
    <stop offset=".098" stop-color="#579D61"/>
    <stop offset=".266" stop-color="#429756"/>
    <stop offset=".454" stop-color="#33934E"/>
    <stop offset=".672" stop-color="#2A914A"/>
    <stop offset="1" stop-color="#289048"/>
  </linearGradient>
  <path fill="url(#i)" d="M0 70.1c91.1-17.6 181.8 4 261.6 26.2 74.6-19.3 157.8-38.2 243-31.1V0H0v70.1z"/>
  <linearGradient id="j" gradientUnits="userSpaceOnUse" x1="535.418" y1="342.993" x2="535.418" y2="847.56" gradientTransform="rotate(-90 252.283 595.276)">
    <stop offset="0" stop-color="#00BCDF"/>
    <stop offset=".277" stop-color="#00B5D8"/>
    <stop offset=".675" stop-color="#00A4C5"/>
    <stop offset="1" stop-color="#0092B0"/>
  </linearGradient>
  <path fill="url(#j)" d="M440.3 297.6c-48.4-2.5-108-12.3-165.7-21.7C175.7 259.7 88.8 244.1 0 253.5v116.6c18.8 2.3 31.6 4.7 68.9 2.9 52-2.5 116.1-12.3 178.1-21.7 91.3-13.9 179.2-27.3 257.6-24.9v-31.7c-10.4 2.3-29.5 4.7-64.3 2.9z"/>
  <path fill="#234093" d="M0 601h504.6l-252.3-29.1"/>
  <linearGradient id="k" gradientUnits="userSpaceOnUse" x1="697.719" y1="548.612" x2="772.91" y2="414.479" gradientTransform="rotate(-90 252.283 595.276)">
    <stop offset="0" stop-color="#5EB579"/>
    <stop offset="1" stop-color="#7EBB64"/>
  </linearGradient>
  <path fill="url(#k)" d="M83.3 134.2c44.9-2.9 96.7-16.5 151.5-30.9 8.8-2.3 17.7-4.7 26.7-7C181.8 74.1 91.1 52.5 0 70.1v49.5c22.4 12.3 48.5 16.8 83.3 14.6z"/>
  <linearGradient id="l" gradientUnits="userSpaceOnUse" x1="367.216" y1="354.23" x2="500.866" y2="853.018" gradientTransform="rotate(-90 252.283 595.276)">
    <stop offset="0" stop-color="#009ED1"/>
    <stop offset=".236" stop-color="#0FA1CE"/>
    <stop offset=".688" stop-color="#37A9C5"/>
    <stop offset="1" stop-color="#56B0BD"/>
  </linearGradient>
  <path fill="url(#l)" d="M247 351.3c-62 9.4-126.1 19.2-178.1 21.7-37.3 1.8-50.1-.6-68.9-2.9v68.3c66.1-2.5 140.4 2.5 264.7 11.5 71.7 5.2 182 13.2 239.9 11.6V326.3c-78.4-2.4-166.3 11.1-257.6 25z"/>
  <linearGradient id="m" gradientUnits="userSpaceOnUse" x1="293.084" y1="342.993" x2="293.084" y2="847.56" gradientTransform="rotate(-90 252.283 595.276)">
    <stop offset="0" stop-color="#0A4E9B"/>
    <stop offset=".46" stop-color="#1B61A7"/>
    <stop offset="1" stop-color="#337DB9"/>
  </linearGradient>
  <path fill="url(#m)" d="M0 601l252.3-29.1L504.6 601v-93L0 507.9"/>
  <linearGradient id="n" gradientUnits="userSpaceOnUse" x1="374.681" y1="847.56" x2="374.681" y2="342.993" gradientTransform="rotate(-90 252.283 595.276)">
    <stop offset="0" stop-color="#3C9BC6"/>
    <stop offset="1" stop-color="#1C68A6"/>
  </linearGradient>
  <path fill="url(#n)" d="M264.7 449.9c-124.3-9-198.6-14-264.7-11.5v69.5l504.6.1v-46.6c-57.9 1.6-168.2-6.4-239.9-11.5z"/>
</svg>
