<svg data-name="BOSCH SUPERGRAPHIC A3 GSL" xmlns="http://www.w3.org/2000/svg" xmlns:xlink="http://www.w3.org/1999/xlink" width="1190.55" height="504.57" viewBox="0 0 1190.55 504.57">
  <defs>
    <linearGradient id="e" y1="252.28" x2="1190.55" y2="252.28" gradientUnits="userSpaceOnUse">
      <stop offset="0" stop-color="#e8e8e8"/>
      <stop offset="1" stop-color="#fbfbfb"/>
    </linearGradient>
    <linearGradient id="a" x1="339.38" y1="378.43" x2="192.59" y2="378.43" gradientUnits="userSpaceOnUse">
      <stop offset="0" stop-color="#fbfbfb"/>
      <stop offset=".47" stop-color="#f6f6f6"/>
      <stop offset="1" stop-color="#ededed"/>
    </linearGradient>
    <linearGradient id="f" x1="573.77" y1="499.46" x2="518.31" y2="2.08" gradientUnits="userSpaceOnUse">
      <stop offset="0" stop-color="#f8f8f8"/>
      <stop offset=".5" stop-color="#f4f4f4"/>
      <stop offset=".83" stop-color="#ededed"/>
      <stop offset="1" stop-color="#e8e8e8"/>
    </linearGradient>
    <linearGradient id="g" x1="417.98" y1="252.28" x2="288.27" y2="252.28" gradientUnits="userSpaceOnUse">
      <stop offset="0" stop-color="#f1f1f1"/>
      <stop offset="1" stop-color="#ededed"/>
    </linearGradient>
    <linearGradient id="h" x1="515.15" y1="252.28" x2="339.38" y2="252.28" gradientUnits="userSpaceOnUse">
      <stop offset="0" stop-color="#e3e3e3"/>
      <stop offset=".21" stop-color="#ededed"/>
      <stop offset=".58" stop-color="#f8f8f8"/>
      <stop offset="1" stop-color="#fbfbfb"/>
    </linearGradient>
    <linearGradient id="i" x1="345.94" y1="126.14" x2="187.15" y2="126.14" xlink:href="#a"/>
    <linearGradient id="j" x1="1037.24" x2="1037.24" y2="504.57" gradientUnits="userSpaceOnUse">
      <stop offset="0" stop-color="#fbfbfb"/>
      <stop offset=".45" stop-color="#f2f2f2"/>
      <stop offset="1" stop-color="#ededed"/>
    </linearGradient>
    <linearGradient id="b" x1="917.98" y1="337.02" x2="1070.39" y2="165.95" gradientUnits="userSpaceOnUse">
      <stop offset="0" stop-color="#f6f6f6"/>
      <stop offset="1" stop-color="#ededed"/>
    </linearGradient>
    <linearGradient id="c" x1="1054.34" y1="482" x2="1128.67" y2="349.53" gradientUnits="userSpaceOnUse">
      <stop offset="0" stop-color="#f6f6f6"/>
      <stop offset="1" stop-color="#f1f1f1"/>
    </linearGradient>
    <linearGradient id="d" x1="1142.41" x2="1142.41" y2="504.57" gradientUnits="userSpaceOnUse">
      <stop offset="0" stop-color="#fbfbfb"/>
      <stop offset="1" stop-color="#ededed"/>
    </linearGradient>
    <linearGradient id="k" x1="878.41" x2="878.41" y2="504.57" xlink:href="#b"/>
    <linearGradient id="l" x1="1040.72" y1="205.62" x2="1115.91" y2="71.49" xlink:href="#c"/>
    <linearGradient id="m" x1="739.82" y1="507.44" x2="872.08" y2="13.82" xlink:href="#d"/>
    <linearGradient id="n" x1="624.12" y1="438.47" x2="653.77" y2="-24.96" gradientUnits="userSpaceOnUse">
      <stop offset="0" stop-color="#fbfbfb"/>
      <stop offset="1" stop-color="#e3e3e3"/>
    </linearGradient>
    <linearGradient id="o" x1="758.82" y1="9.54" x2="647.83" y2="518.47" gradientUnits="userSpaceOnUse">
      <stop offset="0" stop-color="#e8e8e8"/>
      <stop offset=".52" stop-color="#f5f5f5"/>
      <stop offset="1" stop-color="#fbfbfb"/>
    </linearGradient>
  </defs>
  <title>
    Bosch-Supergraphic-Gray-Light
  </title>
  <path fill="url(#e)" d="M0 0h1190.55v504.57H0z"/>
  <path fill="url(#a)" d="M192.59 504.57h146.79l-51.11-252.28-95.68 252.28"/>
  <path fill="url(#f)" d="M589.51 0h-74.36l-40.38 252.29 36.75 252.28h77.99V0"/>
  <path fill="url(#g)" d="M344.82 0h-.05l-56.5 252.29 51.11 252.28 78.6-252.28L344.82 0"/>
  <path fill="url(#h)" d="M515.15 0H344.82l73.16 252.29-78.6 252.28h172.14l-36.75-252.28L515.15 0"/>
  <path fill="#f1f1f1" d="M191.12 0H91.6v156.16l56.38 96.13-56.38 96.12v156.16h100.99l-35.95-252.28L191.12 0"/>
  <path fill="url(#i)" d="M344.77 0H191.12l97.15 252.29L344.77 0"/>
  <path fill="#efeeee" d="M91.6 0H0l91.6 156.16V0"/>
  <path fill="#f8f8f8" d="M147.98 252.29L91.6 156.16v192.25l56.38-96.12"/>
  <path fill="#efeeee" d="M0 504.57h91.6V348.41L0 504.57"/>
  <path fill="#f4f4f4" d="M91.6 156.16L0 0v504.57l91.6-156.16V156.16"/>
  <path fill="#f8f8f8" d="M191.12 0l-34.48 252.29 35.95 252.28 95.68-252.28L191.12 0"/>
  <path d="M1056.35 427.4c2.88-41.78 16.51-90 30.94-141q3.46-12.24 7-24.86-3.52-13.56-7-26.73c-14.42-54.82-28.06-106.6-30.93-151.51-2.25-34.82 2.31-60.9 14.64-83.3h-75.55c-12.37 30.08-16.94 47.89-14.7 82.75 2.88 44.91 16.51 96.68 30.94 151.51 21.37 81.21 46.11 174.83 38.17 270.31h21.21c-12.38-20.86-16.96-44.69-14.72-77.17z" fill="url(#j)"/>
  <path d="M1011.69 234.26c-14.43-54.82-28.06-106.6-30.94-151.51-2.24-34.86 2.33-52.67 14.7-82.75h-58.36c9.33 88.81-6.22 175.72-22.4 274.6-9.44 57.7-19.21 117.34-21.74 165.7-1.82 34.77.61 54 2.94 64.27h154c7.91-95.48-16.82-189.1-38.2-270.31z" fill="url(#b)"/>
  <path d="M1094.28 261.58q-3.52 12.62-7 24.86c-14.43 51-28.06 99.18-30.94 141-2.24 32.47 2.34 56.31 14.73 77.16h54.34c7.1-85.2-11.8-168.4-31.13-243.02z" fill="url(#c)"/>
  <path d="M1120.49 0c17.59 91.11-4 181.81-26.21 261.58 19.33 74.62 38.23 157.81 31.14 243h65.13V0z" fill="url(#d)"/>
  <path d="M892.95 440.3c2.53-48.35 12.3-108 21.74-165.7 16.18-98.88 31.73-185.79 22.4-274.6h-116.6c-2.33 18.79-4.75 31.58-2.93 68.89C820.1 120.86 829.85 185 839.3 247c13.9 91.29 27.33 179.22 24.93 257.59h31.66c-2.34-10.34-4.76-29.52-2.94-64.29z" fill="url(#k)"/>
  <path fill="#e8e8e8" d="M589.51 0v504.57l29.12-252.28L589.51 0"/>
  <path d="M1056.34 83.35c2.88 44.91 16.51 96.69 30.93 151.51q3.47 13.16 7 26.73c22.18-79.77 43.8-170.47 26.21-261.58H1071c-12.33 22.39-16.89 48.47-14.66 83.34z" fill="url(#l)"/>
  <path d="M839.3 247c-9.44-62-19.2-126.12-21.73-178.09-1.82-37.31.59-50.1 2.93-68.89h-68.35c2.51 66.11-2.48 140.41-11.45 264.7-5.18 71.66-13.18 182-11.58 239.86h135.11c2.4-78.38-11.03-166.31-24.93-257.58z" fill="url(#m)"/>
  <path fill="url(#n)" d="M589.51 0l29.12 252.29-29.12 252.28h93.05L682.65 0h-93.14"/>
  <path d="M740.69 264.7c9-124.3 14-198.6 11.45-264.7h-69.5l-.09 504.57h46.55c-1.59-57.9 6.41-168.2 11.59-239.87z" fill="url(#o)"/>
</svg>
